<svg width="100" height="40" viewBox="0 0 100 40" fill="none" xmlns="http://www.w3.org/2000/svg">
<g clip-path="url(#clip0_8114_32109)">
<path d="M98.0549 30.3469H83.4653V28.4395H100C100.002 29.4931 99.1304 30.3469 98.0549 30.3469Z" fill="black"/>
<path d="M17.2704 39.1669H3.75432C2.14204 39.1669 0.833496 37.885 0.833496 36.3056V31.3046C0.833496 29.7252 2.14204 28.4434 3.75432 28.4434H17.2704C17.2704 29.497 16.3988 30.3508 15.3232 30.3508H3.75432C3.21759 30.3508 2.78071 30.7788 2.78071 31.3046V32.8514H17.2704C18.8827 32.8514 20.1913 34.1332 20.1913 35.7126V36.3056C20.1913 37.885 18.8827 39.1669 17.2704 39.1669ZM2.78071 34.7589V36.3056C2.78071 36.8314 3.21759 37.2594 3.75432 37.2594H17.2704C17.8072 37.2594 18.244 36.8314 18.244 36.3056V35.7126C18.244 35.1868 17.8072 34.7589 17.2704 34.7589H2.78071Z" fill="black"/>
<path d="M61.8773 39.163H46.414C44.8017 39.163 43.4932 37.8811 43.4932 36.3017V31.3007C43.4932 29.7213 44.8017 28.4395 46.414 28.4395H61.8773C61.8773 29.4931 61.0056 30.3469 59.9301 30.3469H46.414C45.8773 30.3469 45.4404 30.7749 45.4404 31.3007V36.3017C45.4404 36.8275 45.8773 37.2555 46.414 37.2555H61.8773V39.163Z" fill="black"/>
<path d="M81.9095 39.163H66.4462C64.8339 39.163 63.5254 37.8811 63.5254 36.3017V31.3007C63.5254 29.7213 64.8339 28.4395 66.4462 28.4395H81.9095V30.3469H66.4462C65.9095 30.3469 65.4726 30.7749 65.4726 31.3007V36.3017C65.4726 36.8275 65.9095 37.2555 66.4462 37.2555H79.9623C81.0379 37.2555 81.9095 38.1094 81.9095 39.163Z" fill="black"/>
<path d="M92.7085 29.3926H90.7612V39.1664H92.7085V29.3926Z" fill="black"/>
<path d="M24.3623 39.167H22.415V31.3007C22.415 29.7233 23.7257 28.4395 25.3359 28.4395H38.852C40.4622 28.4395 41.7728 29.7233 41.7728 31.3007V31.8937C41.7728 33.4711 40.4622 34.7549 38.852 34.7549H24.3623V39.167ZM24.3623 32.8475H38.852C39.3887 32.8475 39.8256 32.4195 39.8256 31.8937V31.3007C39.8256 30.7749 39.3887 30.3469 38.852 30.3469H25.3359C24.7991 30.3469 24.3623 30.7749 24.3623 31.3007V32.8475Z" fill="black"/>
<path d="M58.9402 32.8477H43.6162V34.7551H58.9402V32.8477Z" fill="black"/>
<path d="M62.7698 11.5508H56.7929C56.4787 12.2355 56.1022 12.9916 55.6653 13.7762H62.7718C64.8002 13.7762 66.4499 15.2414 66.4499 17.043C66.4499 18.8445 64.8002 20.3097 62.7718 20.3097H46.1414C44.6893 21.4163 41.8705 22.1622 40.2603 22.5351H62.7718C66.0526 22.5351 68.7217 20.0713 68.7217 17.043C68.7196 14.0126 66.0505 11.5508 62.7698 11.5508Z" fill="#68ACFF"/>
<path d="M53.7869 7.55658C53.7557 7.65848 51.0076 16.4337 45.2491 19.3418C44.2506 19.7617 43.1979 20.1305 42.4469 20.21C38.5421 20.6216 35.7356 19.5599 34.7288 17.1246C33.9424 15.2232 34.5457 12.9754 36.1642 11.7791C37.2273 10.9925 38.2758 10.7663 39.1329 10.7663C40.2688 10.7663 41.0697 11.1657 41.1217 11.1922C41.4546 11.3695 41.854 11.3716 42.1889 11.2004C42.5239 11.0292 42.7506 10.7052 42.7922 10.3383C42.7943 10.318 43.0398 8.27189 44.2527 6.22175C45.8192 3.57043 48.2157 2.2254 51.3758 2.2254C54.3507 2.2254 56.3375 3.5154 57.6127 4.89507H60.4712C58.8672 2.50867 55.9276 0 51.3758 0C44.625 0 41.6626 5.12943 40.7826 8.7345C39.3721 8.40436 37.0941 8.30246 34.7953 10.0041C32.3717 11.7975 31.4584 15.1437 32.6255 17.9622C33.3349 19.6761 35.1365 21.3594 37.3583 22.0584C38.3923 22.3763 39.551 22.5414 40.8076 22.5414C41.4254 22.5414 42.0683 22.5006 42.7298 22.4211C46.5681 21.9524 50.0839 19.3133 52.8986 14.7871C54.3653 12.4252 55.2786 10.1529 55.6988 8.99128H65.3184C66.5583 8.99128 67.5652 8.01715 67.5881 6.80867H54.5837C54.2051 6.90445 53.9014 7.18161 53.7869 7.55658Z" fill="#1B58FF"/>
</g>
<defs>
<clipPath id="clip0_8114_32109">
<rect width="99.1667" height="39.1667" fill="white" transform="translate(0.833496)"/>
</clipPath>
</defs>
</svg>
