<svg width="193" height="100" viewBox="0 0 193 100" fill="none" xmlns="http://www.w3.org/2000/svg">
<g clip-path="url(#clip0_7501_237404)">
<path fill-rule="evenodd" clip-rule="evenodd" d="M73.476 74.141V72.435H69.136V74.141H68.629V70.481H69.136V72.068H73.476V70.481H73.977V74.141H73.476Z" fill="#201C26"/>
<path fill-rule="evenodd" clip-rule="evenodd" d="M75.684 74.141V70.481H80.007V70.846H76.183V72.068H79.906V72.43H76.183V73.774H80.007V74.141H75.684Z" fill="#201C26"/>
<path fill-rule="evenodd" clip-rule="evenodd" d="M88.78 72.527V72.071C88.78 71.201 88.348 70.763 86.979 70.763H85.489V70.438H84.981V70.763H83.509C82.131 70.763 81.699 71.128 81.699 72.071V72.527C81.699 73.458 82.187 73.78 83.509 73.78H84.981V74.14H85.489V73.78H86.979C88.293 73.78 88.78 73.475 88.78 72.527ZM88.271 72.527C88.271 73.232 87.93 73.418 86.979 73.418H85.489V71.129H86.979C87.882 71.129 88.271 71.341 88.271 72.051V72.527ZM84.981 73.418H83.509C82.557 73.418 82.194 73.232 82.194 72.522V72.035C82.194 71.335 82.592 71.129 83.509 71.129H84.981V73.418Z" fill="#201C26"/>
<path fill-rule="evenodd" clip-rule="evenodd" d="M92.642 70.846V74.141H93.147V70.846H95.534V70.481H90.273V70.846H92.642Z" fill="#201C26"/>
<path fill-rule="evenodd" clip-rule="evenodd" d="M101.905 74.141V70.482H98.615C97.4 70.482 96.899 70.783 96.899 71.615C96.899 72.303 97.4 72.624 98.358 72.624L96.697 74.142H97.4L98.963 72.624H101.396V74.142L101.905 74.141ZM101.396 72.262H98.456C97.674 72.262 97.401 72.16 97.401 71.615C97.401 71.047 97.687 70.846 98.406 70.846H101.396V72.262Z" fill="#201C26"/>
<path fill-rule="evenodd" clip-rule="evenodd" d="M108.589 74.141V72.435H104.252V74.141H103.747V70.481H104.252V72.068H108.589V70.481H109.096V74.141H108.589Z" fill="#201C26"/>
<path fill-rule="evenodd" clip-rule="evenodd" d="M116.272 74.141L113.742 70.482H112.965L110.437 74.141H110.995L111.623 73.223H115.057L115.679 74.141H116.272ZM114.793 72.849H111.897L113.341 70.744L114.793 72.849Z" fill="#201C26"/>
<path fill-rule="evenodd" clip-rule="evenodd" d="M122.041 74.141V72.623H119.609L118.038 74.141H117.345L118.994 72.623C118.038 72.623 117.543 72.302 117.543 71.614C117.543 70.782 118.038 70.481 119.253 70.481H122.55V74.14L122.041 74.141ZM122.041 70.846H119.052C118.335 70.846 118.038 71.046 118.038 71.615C118.038 72.161 118.314 72.262 119.1 72.262H122.041V70.846Z" fill="#201C26"/>
<path fill-rule="evenodd" clip-rule="evenodd" d="M131.92 74.141H132.807L129.275 72.223L132.728 70.481H131.833L128.75 72.051H127.93V70.481H127.423V74.141H127.93V72.419H128.771L131.92 74.141Z" fill="#201C26"/>
<path fill-rule="evenodd" clip-rule="evenodd" d="M139.379 72.886C139.379 73.602 139.14 73.775 138.114 73.775H135.977C135.026 73.775 134.671 73.591 134.671 72.886V71.718C134.671 71.006 135.06 70.813 135.977 70.813H138.114C139.088 70.813 139.379 70.994 139.379 71.718V72.886ZM139.88 72.886V71.741C139.88 70.677 139.298 70.438 138.114 70.438H135.982C134.595 70.438 134.164 70.812 134.164 71.741V72.886C134.164 73.826 134.656 74.141 135.982 74.141H138.114C139.412 74.141 139.88 73.928 139.88 72.886Z" fill="#201C26"/>
<path fill-rule="evenodd" clip-rule="evenodd" d="M147.561 70.481H148.648V74.141H148.141V70.778H147.86L145.224 74.141H144.965L142.333 70.778H142.048V74.141H141.545V70.481H142.625L145.101 73.602L147.561 70.481Z" fill="#201C26"/>
<path fill-rule="evenodd" clip-rule="evenodd" d="M150.971 74.141V70.846H155.297V74.141H155.808V70.481H150.458V74.141H150.971Z" fill="#201C26"/>
<path fill-rule="evenodd" clip-rule="evenodd" d="M162.393 74.141L161.772 73.223H158.338L157.701 74.141H157.143L159.677 70.482H160.445L162.975 74.141H162.393ZM160.06 70.743L158.606 72.848H161.507L160.06 70.743Z" fill="#201C26"/>
<path fill-rule="evenodd" clip-rule="evenodd" d="M169.771 74.141V70.481H169.268V72.068H164.937V70.481H164.424V74.141H164.937V72.435H169.268V74.141H169.771Z" fill="#201C26"/>
<path fill-rule="evenodd" clip-rule="evenodd" d="M176.857 74.141V70.481H175.871L172.011 73.856H171.967V70.481H171.468V74.141H172.289L176.159 70.764H176.346V74.141H176.857Z" fill="#201C26"/>
<path fill-rule="evenodd" clip-rule="evenodd" d="M182.965 72.262H180.018C179.232 72.262 178.968 72.16 178.968 71.615C178.968 71.047 179.246 70.846 179.963 70.846H182.965V72.262ZM183.462 74.141V70.482H180.175C178.968 70.482 178.461 70.783 178.461 71.615C178.461 72.303 178.968 72.624 179.923 72.624L178.256 74.142H178.968L180.523 72.624H182.965V74.142L183.462 74.141Z" fill="#201C26"/>
<path fill-rule="evenodd" clip-rule="evenodd" d="M68.585 79.563C68.585 79.563 79.581 79.415 80.462 80.005C81.342 80.587 82.221 81.181 82.368 82.348C82.514 83.522 81.782 87.182 78.995 87.331C76.212 87.477 72.991 87.182 72.991 87.182L72.847 90.115L68.449 89.969L68.585 79.563Z" fill="#201C26"/>
<path fill-rule="evenodd" clip-rule="evenodd" d="M73.133 82.492L72.991 84.254C72.991 84.254 76.505 84.984 77.237 84.254C77.97 83.523 77.382 82.349 76.213 82.349C75.043 82.349 73.133 82.492 73.133 82.492Z" fill="white"/>
<path fill-rule="evenodd" clip-rule="evenodd" d="M82.369 82.349C83.547 81.032 85.597 78.978 90.279 79.269C94.97 79.564 97.467 81.464 97.467 83.675C97.467 85.866 97.606 88.796 94.822 89.671C92.041 90.555 89.252 90.555 87.349 90.267C85.443 89.97 82.369 88.208 81.931 85.867C81.49 83.522 82.369 82.349 82.369 82.349Z" fill="#241C24"/>
<path fill-rule="evenodd" clip-rule="evenodd" d="M86.768 85.131C86.5 83.238 88.082 82.052 89.401 82.052C90.718 82.052 92.911 82.201 92.766 84.694C92.623 87.183 92.482 87.036 91.164 87.478C89.844 87.917 87.205 88.361 86.768 85.131Z" fill="white"/>
<path fill-rule="evenodd" clip-rule="evenodd" d="M113.137 83.675C112.408 82.349 110.801 79.853 108.304 79.712C105.814 79.564 102.441 79.269 100.831 79.853C99.215 80.445 97.907 81.905 97.61 83.224C97.319 84.547 97.017 87.478 98.927 88.796C100.83 90.115 103.915 91.144 106.841 90.555C109.766 89.97 112.553 88.796 112.993 86.304H108.014C108.014 86.304 106.689 88.065 105.083 87.917C105.083 87.917 103.608 88.361 102.586 86.898C101.566 85.425 101.709 84.108 102.732 82.787C103.767 81.464 106.545 81.904 106.84 82.492C107.131 83.08 107.571 83.957 107.571 83.957L113.137 83.675Z" fill="#241C24"/>
<path fill-rule="evenodd" clip-rule="evenodd" d="M112.702 79.853H117.247V83.375H121.782V79.563H126.476V90.115H122.076V86.598H117.394V90.115H112.554L112.702 79.853Z" fill="#241C24"/>
<path fill-rule="evenodd" clip-rule="evenodd" d="M127.946 79.563L140.987 79.712V82.349H133.076V83.375H139.671V86.304H132.779V87.629H141.278V90.409H128.09L127.946 79.563Z" fill="#241C24"/>
<path fill-rule="evenodd" clip-rule="evenodd" d="M147.726 79.563H152.27C152.27 79.563 151.98 80.298 152.572 80.153C153.149 80.006 157.106 79.852 158.283 81.325C159.452 82.787 159.895 84.693 158.718 86.013C157.541 87.333 156.517 87.917 155.792 87.917C155.052 87.917 152.572 88.064 152.572 88.064V90.409H147.726V87.917C147.726 87.917 144.647 87.77 143.622 87.478C142.601 87.183 140.691 86.013 140.691 84.109C140.691 82.202 141.717 80.588 143.188 80.445C144.647 80.299 147.433 80.299 147.433 80.299L147.726 79.563Z" fill="#241C24"/>
<path fill-rule="evenodd" clip-rule="evenodd" d="M147.726 82.787L147.58 84.984C147.58 84.984 145.237 85.279 145.237 84.405C145.237 83.522 145.679 82.642 147.726 82.787Z" fill="white"/>
<path fill-rule="evenodd" clip-rule="evenodd" d="M152.571 82.933L152.71 84.985C152.71 84.985 154.029 85.574 154.767 84.547C155.491 83.522 154.173 82.787 152.571 82.933Z" fill="white"/>
<path fill-rule="evenodd" clip-rule="evenodd" d="M161.793 82.787V90.555H166.481V82.787H170.728L171.615 81.618L170.297 80.006H157.987C157.99 80.006 157.398 82.349 158.716 82.492C160.034 82.642 161.793 82.787 161.793 82.787Z" fill="#241C24"/>
<path fill-rule="evenodd" clip-rule="evenodd" d="M175.42 80.006V82.933C175.42 82.933 180.994 82.642 182.021 83.224C183.046 83.812 184.071 84.694 184.217 85.714C184.363 86.746 184.071 88.361 183.046 89.236C182.021 90.115 180.852 90.7 179.67 90.7H171.178V80.153L175.42 80.006Z" fill="#241C24"/>
<path fill-rule="evenodd" clip-rule="evenodd" d="M175.867 86.013V87.77H178.793C179.522 87.77 180.553 86.159 179.231 85.867C177.915 85.573 175.867 86.013 175.867 86.013Z" fill="white"/>
<path fill-rule="evenodd" clip-rule="evenodd" d="M8.50403 31.203H15.981V56.558L8.50403 49.96V31.203Z" fill="#241C24"/>
<path fill-rule="evenodd" clip-rule="evenodd" d="M17.448 22.851H24.628V64.766L17.448 57.869V22.851Z" fill="#241C24"/>
<path fill-rule="evenodd" clip-rule="evenodd" d="M26.096 14.499H33.424V54.211H26.096V14.499Z" fill="#241C24"/>
<path fill-rule="evenodd" clip-rule="evenodd" d="M34.884 6.146H42.505V46.005H34.884V6.146Z" fill="#241C24"/>
<path fill-rule="evenodd" clip-rule="evenodd" d="M43.531 14.055H50.861V54.211H43.531V14.055Z" fill="#241C24"/>
<path fill-rule="evenodd" clip-rule="evenodd" d="M52.62 22.697H59.8V57.724L52.62 64.766V22.697Z" fill="#241C24"/>
<path fill-rule="evenodd" clip-rule="evenodd" d="M61.115 31.055H68.449V49.376L61.115 56.558V31.055Z" fill="#241C24"/>
<path fill-rule="evenodd" clip-rule="evenodd" d="M26.096 55.097H33.424V91.868H26.096V55.097Z" fill="#B3B31C"/>
<path fill-rule="evenodd" clip-rule="evenodd" d="M34.884 47.183H42.062V91.868H34.884V47.183Z" fill="#B3B31C"/>
<path fill-rule="evenodd" clip-rule="evenodd" d="M43.531 55.237H50.861V91.868H43.531V55.237Z" fill="#B3B31C"/>
</g>
<defs>
<clipPath id="clip0_7501_237404">
<rect width="192.756" height="99.256" fill="white"/>
</clipPath>
</defs>
</svg>
