<svg width="211" height="94" viewBox="0 0 211 94" fill="none" xmlns="http://www.w3.org/2000/svg">
<g clip-path="url(#clip0_7501_237445)">
<path d="M149.36 8.32912V11.7619H178.698C180.654 11.7619 183.588 11.7619 185.514 13.7252C187.44 15.6885 187.47 18.6334 187.47 20.567V50.0163C187.47 51.9796 187.47 54.9246 185.514 56.8581C183.558 58.8214 180.624 58.8214 178.698 58.8214H164.533C162.091 58.8214 158.908 58.8214 157.717 56.1204C156.496 53.4194 158.205 50.9682 159.672 48.9811L178.757 23.4584H149.419L137.683 39.1647C135.716 41.7943 134.015 44.0729 134.015 47.0179C134.015 49.9628 135.597 52.0808 137.683 54.871L140.617 58.7976C143.551 62.7242 146.485 66.6508 150.397 68.6141C154.309 70.5773 158.932 70.5773 165.333 70.5773H178.016C185.366 70.5773 196.331 70.5774 203.68 63.2001C211.03 55.8229 211.03 45.0546 211.03 41.128V29.3482C211.03 25.4217 211.03 14.6533 203.68 7.27608C196.331 -0.101133 185.366 -0.101133 178.016 -0.101133L157.746 -0.107677C155.79 -0.108272 153.348 -0.107677 151.404 1.85561C149.448 3.81891 149.448 6.27005 149.448 8.22144" fill="#C4151C"/>
<path d="M114.39 23.5595H143.433L108.464 70.7975H79.4214L114.39 23.5595Z" fill="#C4151C"/>
<path d="M0 31.8886C0 29.9253 0 27.4742 1.9559 25.5228C3.9118 23.5714 6.35371 23.5595 8.29775 23.5595H57.4323C63.7742 23.5595 68.4565 23.5595 72.3683 25.5228C76.2801 27.4861 79.1843 31.4127 82.1478 35.3392L85.0816 39.2658C87.162 42.0501 88.7504 44.1741 88.7504 47.119C88.7504 50.0639 87.0493 52.3425 85.0816 54.9722L73.3462 70.6785H44.0077L63.0926 45.1557C64.5565 43.1924 66.2694 40.7413 65.0485 38.0165C63.8275 35.3154 60.6506 35.3154 58.2324 35.3154H35.2358V94.2142H11.765V35.3154H0.0296348V31.8767" fill="#C4151C"/>
</g>
<defs>
<clipPath id="clip0_7501_237445">
<rect width="211" height="94" fill="white"/>
</clipPath>
</defs>
</svg>
