<svg width="233" height="386" viewBox="0 0 233 386" fill="none" xmlns="http://www.w3.org/2000/svg">
<g filter="url(#filter0_b_8526_251900)">
<path d="M4.97216 283L65.7852 389L353.815 389L293.327 283L4.97216 283Z" fill="url(#paint0_linear_8526_251900)"/>
<path d="M4.97216 283L65.7852 389L353.815 389L293.327 283L4.97216 283Z" fill="url(#paint1_linear_8526_251900)" fill-opacity="0.05"/>
</g>
<g filter="url(#filter1_b_8526_251900)">
<path d="M66.1266 177.417L4.97266 283H293.333L354.228 177.414L66.1266 177.417Z" fill="url(#paint2_linear_8526_251900)"/>
<path d="M66.1266 177.417L4.97266 283H293.333L354.228 177.414L66.1266 177.417Z" fill="url(#paint3_linear_8526_251900)" fill-opacity="0.05"/>
<path d="M127.606 71.4141L66.1937 177.414H127.348H354.228L415.137 71.4141H127.606Z" fill="url(#paint4_linear_8526_251900)"/>
<path d="M127.606 71.4141L66.1937 177.414H127.348H354.228L415.137 71.4141H127.606Z" fill="url(#paint5_linear_8526_251900)" fill-opacity="0.05"/>
</g>
<g filter="url(#filter2_b_8526_251900)">
<path d="M66.2891 -34.5859L127.606 71.414L415.131 71.414L353.814 -34.5859L66.2891 -34.5859Z" fill="url(#paint6_linear_8526_251900)"/>
</g>
<g filter="url(#filter3_b_8526_251900)">
<path d="M61.3163 391.484L0.414062 283L61.1537 177.417L122.219 71.414L62.1449 -32.1016L66.2879 -34.5859L127.767 71.414L66.7694 177.414L5.79917 283L65.8736 389L61.3163 391.484Z" fill="#F0F3F4" fill-opacity="0.6"/>
<path d="M5.71257 282.95C5.69484 282.981 5.69469 283.018 5.71217 283.049L65.7365 388.961L61.3552 391.349L0.529081 283L61.2404 177.467L122.305 71.4639C122.323 71.4329 122.323 71.3948 122.305 71.3638L62.2809 -32.0665L66.2523 -34.448L127.652 71.4142L66.6828 177.364L66.6827 177.364L5.71257 282.95Z" stroke="url(#paint7_linear_8526_251900)" stroke-width="0.2" stroke-linejoin="round"/>
</g>
<g filter="url(#filter4_b_8526_251900)">
<path d="M77.9594 296.75L138.624 403L425.953 403L365.613 296.75L77.9594 296.75Z" fill="url(#paint8_linear_8526_251900)"/>
<path d="M77.9594 296.75L138.624 403L425.953 403L365.613 296.75L77.9594 296.75Z" fill="url(#paint9_linear_8526_251900)" fill-opacity="0.05"/>
</g>
<g filter="url(#filter5_b_8526_251900)">
<path d="M138.966 190.917L77.9609 296.749H365.619L426.367 190.914L138.966 190.917Z" fill="url(#paint10_linear_8526_251900)"/>
<path d="M138.966 190.917L77.9609 296.749H365.619L426.367 190.914L138.966 190.917Z" fill="url(#paint11_linear_8526_251900)" fill-opacity="0.05"/>
<path d="M200.296 84.6641L139.033 190.914H200.038H426.367L487.128 84.6641H200.296Z" fill="url(#paint12_linear_8526_251900)"/>
<path d="M200.296 84.6641L139.033 190.914H200.038H426.367L487.128 84.6641H200.296Z" fill="url(#paint13_linear_8526_251900)" fill-opacity="0.05"/>
</g>
<g filter="url(#filter6_b_8526_251900)">
<path d="M139.125 -21.5859L200.292 84.664L487.118 84.664L425.95 -21.5859L139.125 -21.5859Z" fill="url(#paint14_linear_8526_251900)"/>
</g>
<g filter="url(#filter7_b_8526_251900)">
<path d="M134.168 405.489L73.4141 296.749L134.006 190.917L194.922 84.664L134.995 -19.0957L139.128 -21.5859L200.457 84.664L139.608 190.914L78.7861 296.749L138.714 402.999L134.168 405.489Z" fill="#F0F3F4" fill-opacity="0.6"/>
<path d="M78.6994 296.699C78.6818 296.73 78.6816 296.767 78.699 296.798L138.578 402.96L134.207 405.354L73.5289 296.749L134.093 190.967L195.009 84.7137C195.027 84.6828 195.027 84.6448 195.009 84.614L135.13 -19.0607L139.092 -21.4477L200.342 84.6642L139.521 190.864L139.521 190.864L78.6994 296.699Z" stroke="url(#paint15_linear_8526_251900)" stroke-width="0.2" stroke-linejoin="round"/>
</g>
<g filter="url(#filter8_b_8526_251900)">
<path d="M168.972 313L229.785 419L517.815 419L457.327 313L168.972 313Z" fill="url(#paint16_linear_8526_251900)"/>
<path d="M168.972 313L229.785 419L517.815 419L457.327 313L168.972 313Z" fill="url(#paint17_linear_8526_251900)" fill-opacity="0.05"/>
</g>
<g filter="url(#filter9_b_8526_251900)">
<path d="M230.127 207.417L168.973 313H457.333L518.228 207.414L230.127 207.417Z" fill="url(#paint18_linear_8526_251900)"/>
<path d="M230.127 207.417L168.973 313H457.333L518.228 207.414L230.127 207.417Z" fill="url(#paint19_linear_8526_251900)" fill-opacity="0.05"/>
<path d="M291.606 101.414L230.194 207.414H291.348H518.228L579.137 101.414H291.606Z" fill="url(#paint20_linear_8526_251900)"/>
<path d="M291.606 101.414L230.194 207.414H291.348H518.228L579.137 101.414H291.606Z" fill="url(#paint21_linear_8526_251900)" fill-opacity="0.05"/>
</g>
<g filter="url(#filter10_b_8526_251900)">
<path d="M230.289 -4.58594L291.606 101.414L579.131 101.414L517.814 -4.58594L230.289 -4.58594Z" fill="url(#paint22_linear_8526_251900)"/>
</g>
<g filter="url(#filter11_b_8526_251900)">
<path d="M225.316 421.484L164.414 313L225.154 207.417L286.219 101.414L226.145 -2.10156L230.288 -4.58594L291.767 101.414L230.769 207.414L169.799 313L229.874 419L225.316 421.484Z" fill="#F0F3F4" fill-opacity="0.6"/>
<path d="M169.713 312.95C169.695 312.981 169.695 313.018 169.712 313.049L229.737 418.961L225.355 421.349L164.529 313L225.24 207.467L286.305 101.464C286.323 101.433 286.323 101.395 286.305 101.364L226.281 -2.0665L230.252 -4.44799L291.652 101.414L230.683 207.364L230.683 207.364L169.713 312.95Z" stroke="url(#paint23_linear_8526_251900)" stroke-width="0.2" stroke-linejoin="round"/>
</g>
<defs>
<filter id="filter0_b_8526_251900" x="-5.02734" y="273" width="368.844" height="126" filterUnits="userSpaceOnUse" color-interpolation-filters="sRGB">
<feFlood flood-opacity="0" result="BackgroundImageFix"/>
<feGaussianBlur in="BackgroundImageFix" stdDeviation="5"/>
<feComposite in2="SourceAlpha" operator="in" result="effect1_backgroundBlur_8526_251900"/>
<feBlend mode="normal" in="SourceGraphic" in2="effect1_backgroundBlur_8526_251900" result="shape"/>
</filter>
<filter id="filter1_b_8526_251900" x="-5.02734" y="61.4141" width="430.164" height="231.586" filterUnits="userSpaceOnUse" color-interpolation-filters="sRGB">
<feFlood flood-opacity="0" result="BackgroundImageFix"/>
<feGaussianBlur in="BackgroundImageFix" stdDeviation="5"/>
<feComposite in2="SourceAlpha" operator="in" result="effect1_backgroundBlur_8526_251900"/>
<feBlend mode="normal" in="SourceGraphic" in2="effect1_backgroundBlur_8526_251900" result="shape"/>
</filter>
<filter id="filter2_b_8526_251900" x="56.2891" y="-44.5859" width="368.84" height="126" filterUnits="userSpaceOnUse" color-interpolation-filters="sRGB">
<feFlood flood-opacity="0" result="BackgroundImageFix"/>
<feGaussianBlur in="BackgroundImageFix" stdDeviation="5"/>
<feComposite in2="SourceAlpha" operator="in" result="effect1_backgroundBlur_8526_251900"/>
<feBlend mode="normal" in="SourceGraphic" in2="effect1_backgroundBlur_8526_251900" result="shape"/>
</filter>
<filter id="filter3_b_8526_251900" x="-9.58594" y="-44.5859" width="147.352" height="446.07" filterUnits="userSpaceOnUse" color-interpolation-filters="sRGB">
<feFlood flood-opacity="0" result="BackgroundImageFix"/>
<feGaussianBlur in="BackgroundImageFix" stdDeviation="5"/>
<feComposite in2="SourceAlpha" operator="in" result="effect1_backgroundBlur_8526_251900"/>
<feBlend mode="normal" in="SourceGraphic" in2="effect1_backgroundBlur_8526_251900" result="shape"/>
</filter>
<filter id="filter4_b_8526_251900" x="67.9609" y="286.75" width="367.992" height="126.25" filterUnits="userSpaceOnUse" color-interpolation-filters="sRGB">
<feFlood flood-opacity="0" result="BackgroundImageFix"/>
<feGaussianBlur in="BackgroundImageFix" stdDeviation="5"/>
<feComposite in2="SourceAlpha" operator="in" result="effect1_backgroundBlur_8526_251900"/>
<feBlend mode="normal" in="SourceGraphic" in2="effect1_backgroundBlur_8526_251900" result="shape"/>
</filter>
<filter id="filter5_b_8526_251900" x="67.9609" y="74.6641" width="429.168" height="232.086" filterUnits="userSpaceOnUse" color-interpolation-filters="sRGB">
<feFlood flood-opacity="0" result="BackgroundImageFix"/>
<feGaussianBlur in="BackgroundImageFix" stdDeviation="5"/>
<feComposite in2="SourceAlpha" operator="in" result="effect1_backgroundBlur_8526_251900"/>
<feBlend mode="normal" in="SourceGraphic" in2="effect1_backgroundBlur_8526_251900" result="shape"/>
</filter>
<filter id="filter6_b_8526_251900" x="129.125" y="-31.5859" width="367.992" height="126.25" filterUnits="userSpaceOnUse" color-interpolation-filters="sRGB">
<feFlood flood-opacity="0" result="BackgroundImageFix"/>
<feGaussianBlur in="BackgroundImageFix" stdDeviation="5"/>
<feComposite in2="SourceAlpha" operator="in" result="effect1_backgroundBlur_8526_251900"/>
<feBlend mode="normal" in="SourceGraphic" in2="effect1_backgroundBlur_8526_251900" result="shape"/>
</filter>
<filter id="filter7_b_8526_251900" x="63.4141" y="-31.5859" width="147.043" height="447.074" filterUnits="userSpaceOnUse" color-interpolation-filters="sRGB">
<feFlood flood-opacity="0" result="BackgroundImageFix"/>
<feGaussianBlur in="BackgroundImageFix" stdDeviation="5"/>
<feComposite in2="SourceAlpha" operator="in" result="effect1_backgroundBlur_8526_251900"/>
<feBlend mode="normal" in="SourceGraphic" in2="effect1_backgroundBlur_8526_251900" result="shape"/>
</filter>
<filter id="filter8_b_8526_251900" x="158.973" y="303" width="368.844" height="126" filterUnits="userSpaceOnUse" color-interpolation-filters="sRGB">
<feFlood flood-opacity="0" result="BackgroundImageFix"/>
<feGaussianBlur in="BackgroundImageFix" stdDeviation="5"/>
<feComposite in2="SourceAlpha" operator="in" result="effect1_backgroundBlur_8526_251900"/>
<feBlend mode="normal" in="SourceGraphic" in2="effect1_backgroundBlur_8526_251900" result="shape"/>
</filter>
<filter id="filter9_b_8526_251900" x="158.973" y="91.4141" width="430.164" height="231.586" filterUnits="userSpaceOnUse" color-interpolation-filters="sRGB">
<feFlood flood-opacity="0" result="BackgroundImageFix"/>
<feGaussianBlur in="BackgroundImageFix" stdDeviation="5"/>
<feComposite in2="SourceAlpha" operator="in" result="effect1_backgroundBlur_8526_251900"/>
<feBlend mode="normal" in="SourceGraphic" in2="effect1_backgroundBlur_8526_251900" result="shape"/>
</filter>
<filter id="filter10_b_8526_251900" x="220.289" y="-14.5859" width="368.84" height="126" filterUnits="userSpaceOnUse" color-interpolation-filters="sRGB">
<feFlood flood-opacity="0" result="BackgroundImageFix"/>
<feGaussianBlur in="BackgroundImageFix" stdDeviation="5"/>
<feComposite in2="SourceAlpha" operator="in" result="effect1_backgroundBlur_8526_251900"/>
<feBlend mode="normal" in="SourceGraphic" in2="effect1_backgroundBlur_8526_251900" result="shape"/>
</filter>
<filter id="filter11_b_8526_251900" x="154.414" y="-14.5859" width="147.352" height="446.07" filterUnits="userSpaceOnUse" color-interpolation-filters="sRGB">
<feFlood flood-opacity="0" result="BackgroundImageFix"/>
<feGaussianBlur in="BackgroundImageFix" stdDeviation="5"/>
<feComposite in2="SourceAlpha" operator="in" result="effect1_backgroundBlur_8526_251900"/>
<feBlend mode="normal" in="SourceGraphic" in2="effect1_backgroundBlur_8526_251900" result="shape"/>
</filter>
<linearGradient id="paint0_linear_8526_251900" x1="14.9164" y1="336" x2="96.9244" y2="288.625" gradientUnits="userSpaceOnUse">
<stop stop-color="white" stop-opacity="0.6"/>
<stop offset="1" stop-color="#45B0EF" stop-opacity="0.6"/>
</linearGradient>
<linearGradient id="paint1_linear_8526_251900" x1="35.5501" y1="283" x2="81.4362" y2="362.523" gradientUnits="userSpaceOnUse">
<stop stop-color="white"/>
<stop offset="1" stop-color="white" stop-opacity="0"/>
</linearGradient>
<linearGradient id="paint2_linear_8526_251900" x1="69.6036" y1="71.8281" x2="191.377" y2="137.309" gradientUnits="userSpaceOnUse">
<stop stop-color="white" stop-opacity="0.6"/>
<stop offset="1" stop-color="#45B0EF" stop-opacity="0.6"/>
</linearGradient>
<linearGradient id="paint3_linear_8526_251900" x1="153.707" y1="71.828" x2="100.788" y2="111.131" gradientUnits="userSpaceOnUse">
<stop stop-color="white"/>
<stop offset="1" stop-color="white" stop-opacity="0"/>
</linearGradient>
<linearGradient id="paint4_linear_8526_251900" x1="69.6036" y1="71.8281" x2="191.377" y2="137.309" gradientUnits="userSpaceOnUse">
<stop stop-color="white" stop-opacity="0.6"/>
<stop offset="1" stop-color="#45B0EF" stop-opacity="0.6"/>
</linearGradient>
<linearGradient id="paint5_linear_8526_251900" x1="153.707" y1="71.828" x2="100.788" y2="111.131" gradientUnits="userSpaceOnUse">
<stop stop-color="white"/>
<stop offset="1" stop-color="white" stop-opacity="0"/>
</linearGradient>
<linearGradient id="paint6_linear_8526_251900" x1="96.7705" y1="18.6194" x2="188.475" y2="-34.3567" gradientUnits="userSpaceOnUse">
<stop stop-color="white" stop-opacity="0.6"/>
<stop offset="1" stop-color="#45B0EF" stop-opacity="0.6"/>
</linearGradient>
<linearGradient id="paint7_linear_8526_251900" x1="63.9615" y1="-34.311" x2="63.9615" y2="389.139" gradientUnits="userSpaceOnUse">
<stop offset="0.015625" stop-color="#FAFDFF" stop-opacity="0.18"/>
<stop offset="0.375" stop-color="#67B7E7"/>
<stop offset="1" stop-color="#E8E8E8" stop-opacity="0"/>
</linearGradient>
<linearGradient id="paint8_linear_8526_251900" x1="87.8795" y1="349.875" x2="169.884" y2="302.729" gradientUnits="userSpaceOnUse">
<stop stop-color="white" stop-opacity="0.6"/>
<stop offset="1" stop-color="#45B0EF" stop-opacity="0.6"/>
</linearGradient>
<linearGradient id="paint9_linear_8526_251900" x1="108.463" y1="296.75" x2="154.567" y2="376.269" gradientUnits="userSpaceOnUse">
<stop stop-color="white"/>
<stop offset="1" stop-color="white" stop-opacity="0"/>
</linearGradient>
<linearGradient id="paint10_linear_8526_251900" x1="142.435" y1="85.0791" x2="264.172" y2="150.227" gradientUnits="userSpaceOnUse">
<stop stop-color="white" stop-opacity="0.6"/>
<stop offset="1" stop-color="#45B0EF" stop-opacity="0.6"/>
</linearGradient>
<linearGradient id="paint11_linear_8526_251900" x1="226.333" y1="85.079" x2="173.363" y2="124.232" gradientUnits="userSpaceOnUse">
<stop stop-color="white"/>
<stop offset="1" stop-color="white" stop-opacity="0"/>
</linearGradient>
<linearGradient id="paint12_linear_8526_251900" x1="142.435" y1="85.0791" x2="264.172" y2="150.227" gradientUnits="userSpaceOnUse">
<stop stop-color="white" stop-opacity="0.6"/>
<stop offset="1" stop-color="#45B0EF" stop-opacity="0.6"/>
</linearGradient>
<linearGradient id="paint13_linear_8526_251900" x1="226.333" y1="85.079" x2="173.363" y2="124.232" gradientUnits="userSpaceOnUse">
<stop stop-color="white"/>
<stop offset="1" stop-color="white" stop-opacity="0"/>
</linearGradient>
<linearGradient id="paint14_linear_8526_251900" x1="169.532" y1="31.7448" x2="261.232" y2="-20.9755" gradientUnits="userSpaceOnUse">
<stop stop-color="white" stop-opacity="0.6"/>
<stop offset="1" stop-color="#45B0EF" stop-opacity="0.6"/>
</linearGradient>
<linearGradient id="paint15_linear_8526_251900" x1="136.807" y1="-21.3103" x2="136.807" y2="403.138" gradientUnits="userSpaceOnUse">
<stop offset="0.015625" stop-color="#FAFDFF" stop-opacity="0.18"/>
<stop offset="0.375" stop-color="#67B7E7"/>
<stop offset="1" stop-color="#E8E8E8" stop-opacity="0"/>
</linearGradient>
<linearGradient id="paint16_linear_8526_251900" x1="178.916" y1="366" x2="260.924" y2="318.625" gradientUnits="userSpaceOnUse">
<stop stop-color="white" stop-opacity="0.6"/>
<stop offset="1" stop-color="#45B0EF" stop-opacity="0.6"/>
</linearGradient>
<linearGradient id="paint17_linear_8526_251900" x1="199.55" y1="313" x2="245.436" y2="392.523" gradientUnits="userSpaceOnUse">
<stop stop-color="white"/>
<stop offset="1" stop-color="white" stop-opacity="0"/>
</linearGradient>
<linearGradient id="paint18_linear_8526_251900" x1="233.604" y1="101.828" x2="355.377" y2="167.309" gradientUnits="userSpaceOnUse">
<stop stop-color="white" stop-opacity="0.6"/>
<stop offset="1" stop-color="#45B0EF" stop-opacity="0.6"/>
</linearGradient>
<linearGradient id="paint19_linear_8526_251900" x1="317.707" y1="101.828" x2="264.788" y2="141.131" gradientUnits="userSpaceOnUse">
<stop stop-color="white"/>
<stop offset="1" stop-color="white" stop-opacity="0"/>
</linearGradient>
<linearGradient id="paint20_linear_8526_251900" x1="233.604" y1="101.828" x2="355.377" y2="167.309" gradientUnits="userSpaceOnUse">
<stop stop-color="white" stop-opacity="0.6"/>
<stop offset="1" stop-color="#45B0EF" stop-opacity="0.6"/>
</linearGradient>
<linearGradient id="paint21_linear_8526_251900" x1="317.707" y1="101.828" x2="264.788" y2="141.131" gradientUnits="userSpaceOnUse">
<stop stop-color="white"/>
<stop offset="1" stop-color="white" stop-opacity="0"/>
</linearGradient>
<linearGradient id="paint22_linear_8526_251900" x1="260.771" y1="48.6194" x2="352.475" y2="-4.35673" gradientUnits="userSpaceOnUse">
<stop stop-color="white" stop-opacity="0.6"/>
<stop offset="1" stop-color="#45B0EF" stop-opacity="0.6"/>
</linearGradient>
<linearGradient id="paint23_linear_8526_251900" x1="227.962" y1="-4.31097" x2="227.962" y2="419.139" gradientUnits="userSpaceOnUse">
<stop offset="0.015625" stop-color="#FAFDFF" stop-opacity="0.18"/>
<stop offset="0.375" stop-color="#67B7E7"/>
<stop offset="1" stop-color="#E8E8E8" stop-opacity="0"/>
</linearGradient>
</defs>
</svg>
