<svg width="40" height="40" viewBox="0 0 40 40" fill="none" xmlns="http://www.w3.org/2000/svg">
<path d="M5 35H35M8.33333 35V8.33333C8.33333 7.44928 8.68452 6.60143 9.30964 5.97631C9.93477 5.35119 10.7826 5 11.6667 5H28.3333C29.2174 5 30.0652 5.35119 30.6904 5.97631C31.3155 6.60143 31.6667 7.44928 31.6667 8.33333V35M15 35V28.3333C15 27.4493 15.3512 26.6014 15.9763 25.9763C16.6014 25.3512 17.4493 25 18.3333 25H21.6667C22.5507 25 23.3986 25.3512 24.0237 25.9763C24.6488 26.6014 25 27.4493 25 28.3333V35M16.6667 15H23.3333M20 11.6667V18.3333" stroke="#0079C1" stroke-width="1.5" stroke-linecap="round" stroke-linejoin="round"/>
</svg>
