<svg width="532" height="256" viewBox="0 0 532 256" fill="none" xmlns="http://www.w3.org/2000/svg">
<path d="M20.95 208H18.318V200.594L16.4 201.77L15.35 199.936L18.752 197.822H20.95V208ZM23.1815 205.55C23.5268 205.662 23.8768 205.76 24.2315 205.844C24.5955 205.919 25.0155 205.956 25.4915 205.956C26.2661 205.956 26.8401 205.849 27.2135 205.634C27.5961 205.419 27.7875 205.074 27.7875 204.598C27.7875 204.169 27.6241 203.851 27.2975 203.646C26.9801 203.441 26.4575 203.338 25.7295 203.338C25.2815 203.338 24.8428 203.371 24.4135 203.436C23.9841 203.501 23.6108 203.571 23.2935 203.646L23.6015 197.822H30.1255V200.062H25.6175L25.5195 201.588C25.7621 201.541 25.9908 201.509 26.2055 201.49C26.4201 201.471 26.6208 201.462 26.8075 201.462C27.5075 201.462 28.0955 201.551 28.5715 201.728C29.0568 201.905 29.4488 202.143 29.7475 202.442C30.0461 202.731 30.2608 203.072 30.3915 203.464C30.5221 203.847 30.5875 204.253 30.5875 204.682C30.5875 205.13 30.5081 205.569 30.3495 205.998C30.2001 206.418 29.9481 206.791 29.5935 207.118C29.2388 207.445 28.7675 207.706 28.1795 207.902C27.5915 208.098 26.8635 208.196 25.9955 208.196C25.5475 208.196 25.0901 208.163 24.6235 208.098C24.1661 208.042 23.6855 207.935 23.1815 207.776V205.55ZM35.8642 199.628C35.3975 199.628 35.0242 199.763 34.7442 200.034C34.4642 200.305 34.3242 200.678 34.3242 201.154C34.3242 201.63 34.4595 202.008 34.7302 202.288C35.0102 202.559 35.3695 202.694 35.8082 202.694C36.0508 202.694 36.2702 202.652 36.4662 202.568C36.6715 202.484 36.8442 202.372 36.9842 202.232C37.1335 202.083 37.2455 201.91 37.3202 201.714C37.4042 201.518 37.4462 201.313 37.4462 201.098C37.4462 200.678 37.3015 200.328 37.0122 200.048C36.7228 199.768 36.3402 199.628 35.8642 199.628ZM32.5462 205.662C32.9008 205.774 33.2648 205.853 33.6382 205.9C34.0115 205.947 34.4175 205.97 34.8562 205.97C35.2388 205.97 35.5982 205.923 35.9342 205.83C36.2795 205.737 36.5828 205.592 36.8442 205.396C37.1055 205.2 37.3108 204.948 37.4602 204.64C37.6095 204.332 37.6842 203.959 37.6842 203.52C37.5722 203.632 37.4368 203.744 37.2782 203.856C37.1288 203.968 36.9515 204.071 36.7462 204.164C36.5502 204.248 36.3168 204.323 36.0462 204.388C35.7848 204.444 35.4862 204.472 35.1502 204.472C34.6462 204.472 34.1748 204.402 33.7362 204.262C33.3068 204.113 32.9288 203.898 32.6022 203.618C32.2848 203.338 32.0328 202.997 31.8462 202.596C31.6688 202.185 31.5802 201.714 31.5802 201.182C31.5802 200.631 31.6828 200.137 31.8882 199.698C32.0935 199.259 32.3828 198.886 32.7562 198.578C33.1295 198.27 33.5775 198.037 34.1002 197.878C34.6228 197.71 35.2015 197.626 35.8362 197.626C36.6295 197.626 37.3015 197.752 37.8522 198.004C38.4122 198.256 38.8648 198.601 39.2102 199.04C39.5555 199.479 39.8028 200.006 39.9522 200.622C40.1108 201.229 40.1902 201.887 40.1902 202.596C40.1902 203.343 40.1015 204.057 39.9242 204.738C39.7562 205.41 39.4668 206.003 39.0562 206.516C38.6548 207.029 38.1228 207.44 37.4602 207.748C36.7975 208.047 35.9762 208.196 34.9962 208.196C34.7068 208.196 34.3475 208.177 33.9182 208.14C33.4982 208.103 33.0408 208.023 32.5462 207.902V205.662Z" fill="#4A5A68"/>
<path d="M0 220C0 217.791 1.79086 216 4 216H52C54.2091 216 56 217.791 56 220V230H0V220Z" fill="#0079C1"/>
<path d="M0 220C0 217.791 1.79086 216 4 216H52C54.2091 216 56 217.791 56 220V230H0V220Z" fill="url(#paint0_linear_5397_192925)"/>
<path d="M12.7 250.74L14.632 249.116C15.2293 248.612 15.7333 248.159 16.144 247.758C16.564 247.347 16.9 246.969 17.152 246.624C17.4133 246.269 17.6 245.938 17.712 245.63C17.824 245.313 17.88 245 17.88 244.692C17.88 244.104 17.698 243.656 17.334 243.348C16.97 243.04 16.4193 242.886 15.682 242.886C15.234 242.886 14.8 242.947 14.38 243.068C13.96 243.18 13.54 243.343 13.12 243.558V242.298C13.5773 242.083 14.0207 241.929 14.45 241.836C14.8887 241.733 15.3227 241.682 15.752 241.682C16.2933 241.682 16.7833 241.752 17.222 241.892C17.6607 242.023 18.0293 242.219 18.328 242.48C18.636 242.732 18.8693 243.045 19.028 243.418C19.196 243.782 19.28 244.193 19.28 244.65C19.28 245.042 19.21 245.429 19.07 245.812C18.9393 246.185 18.72 246.582 18.412 247.002C18.1133 247.413 17.7167 247.856 17.222 248.332C16.7367 248.808 16.1347 249.34 15.416 249.928L14.408 250.754V250.796H19.42V252H12.7V250.74ZM25.3749 250.936C25.7856 250.936 26.1403 250.866 26.4389 250.726C26.7376 250.586 26.9849 250.357 27.1809 250.04C27.3769 249.713 27.5216 249.298 27.6149 248.794C27.7083 248.281 27.7549 247.651 27.7549 246.904C27.7549 246.139 27.7036 245.499 27.6009 244.986C27.5076 244.473 27.3629 244.062 27.1669 243.754C26.9709 243.437 26.7236 243.213 26.4249 243.082C26.1263 242.951 25.7763 242.886 25.3749 242.886C25.0109 242.886 24.6796 242.951 24.3809 243.082C24.0916 243.213 23.8443 243.432 23.6389 243.74C23.4336 244.048 23.2749 244.463 23.1629 244.986C23.0509 245.499 22.9949 246.139 22.9949 246.904C22.9949 247.66 23.0463 248.299 23.1489 248.822C23.2609 249.335 23.4149 249.751 23.6109 250.068C23.8163 250.376 24.0636 250.6 24.3529 250.74C24.6516 250.871 24.9923 250.936 25.3749 250.936ZM25.3749 252.14C24.1616 252.14 23.2283 251.72 22.5749 250.88C21.9216 250.04 21.5949 248.715 21.5949 246.904C21.5949 245.989 21.6789 245.205 21.8469 244.552C22.0243 243.889 22.2763 243.348 22.6029 242.928C22.9296 242.499 23.3263 242.186 23.7929 241.99C24.2596 241.785 24.7869 241.682 25.3749 241.682C26.6723 241.682 27.6243 242.097 28.2309 242.928C28.8469 243.749 29.1549 245.075 29.1549 246.904C29.1549 247.847 29.0709 248.649 28.9029 249.312C28.7443 249.975 28.5016 250.516 28.1749 250.936C27.8576 251.356 27.4609 251.664 26.9849 251.86C26.5183 252.047 25.9816 252.14 25.3749 252.14ZM33.2069 243.39L31.6109 244.384L30.9809 243.39L33.4869 241.822H34.5509V252H33.2069V243.39ZM42.3435 243.026H37.2755V241.822H43.7855V242.886L39.8515 252H38.4795L42.3435 243.026Z" fill="#4A5A68"/>
<path d="M91.56 191.452C92.12 191.648 92.6193 191.783 93.058 191.858C93.4967 191.923 93.912 191.956 94.304 191.956C95.06 191.956 95.5967 191.858 95.914 191.662C96.2407 191.457 96.404 191.177 96.404 190.822C96.404 190.486 96.2593 190.239 95.97 190.08C95.6807 189.921 95.228 189.842 94.612 189.842H92.806V187.812H94.458C95.5873 187.812 96.152 187.49 96.152 186.846C96.152 186.529 96.0073 186.286 95.718 186.118C95.4287 185.95 94.948 185.866 94.276 185.866C93.8 185.866 93.3427 185.908 92.904 185.992C92.4747 186.076 92.0873 186.183 91.742 186.314V184.074C92.274 183.915 92.8153 183.803 93.366 183.738C93.9167 183.663 94.4487 183.626 94.962 183.626C95.7647 183.626 96.4227 183.705 96.936 183.864C97.4493 184.023 97.8553 184.228 98.154 184.48C98.4527 184.732 98.658 185.021 98.77 185.348C98.882 185.665 98.938 185.987 98.938 186.314C98.938 187.583 98.2333 188.386 96.824 188.722V188.764C97.272 188.829 97.6453 188.932 97.944 189.072C98.2427 189.203 98.4853 189.371 98.672 189.576C98.8587 189.772 98.9893 190.001 99.064 190.262C99.148 190.514 99.19 190.785 99.19 191.074C99.19 191.513 99.106 191.923 98.938 192.306C98.77 192.679 98.5087 193.006 98.154 193.286C97.7993 193.566 97.342 193.79 96.782 193.958C96.2313 194.117 95.5733 194.196 94.808 194.196C94.36 194.196 93.8513 194.163 93.282 194.098C92.722 194.033 92.148 193.911 91.56 193.734V191.452ZM100.644 191.55C100.99 191.662 101.34 191.76 101.694 191.844C102.058 191.919 102.478 191.956 102.954 191.956C103.729 191.956 104.303 191.849 104.676 191.634C105.059 191.419 105.25 191.074 105.25 190.598C105.25 190.169 105.087 189.851 104.76 189.646C104.443 189.441 103.92 189.338 103.192 189.338C102.744 189.338 102.306 189.371 101.876 189.436C101.447 189.501 101.074 189.571 100.756 189.646L101.064 183.822H107.588V186.062H103.08L102.982 187.588C103.225 187.541 103.454 187.509 103.668 187.49C103.883 187.471 104.084 187.462 104.27 187.462C104.97 187.462 105.558 187.551 106.034 187.728C106.52 187.905 106.912 188.143 107.21 188.442C107.509 188.731 107.724 189.072 107.854 189.464C107.985 189.847 108.05 190.253 108.05 190.682C108.05 191.13 107.971 191.569 107.812 191.998C107.663 192.418 107.411 192.791 107.056 193.118C106.702 193.445 106.23 193.706 105.642 193.902C105.054 194.098 104.326 194.196 103.458 194.196C103.01 194.196 102.553 194.163 102.086 194.098C101.629 194.042 101.148 193.935 100.644 193.776V191.55ZM109.449 191.55C109.794 191.662 110.144 191.76 110.499 191.844C110.863 191.919 111.283 191.956 111.759 191.956C112.534 191.956 113.108 191.849 113.481 191.634C113.864 191.419 114.055 191.074 114.055 190.598C114.055 190.169 113.892 189.851 113.565 189.646C113.248 189.441 112.725 189.338 111.997 189.338C111.549 189.338 111.11 189.371 110.681 189.436C110.252 189.501 109.878 189.571 109.561 189.646L109.869 183.822H116.393V186.062H111.885L111.787 187.588C112.03 187.541 112.258 187.509 112.473 187.49C112.688 187.471 112.888 187.462 113.075 187.462C113.775 187.462 114.363 187.551 114.839 187.728C115.324 187.905 115.716 188.143 116.015 188.442C116.314 188.731 116.528 189.072 116.659 189.464C116.79 189.847 116.855 190.253 116.855 190.682C116.855 191.13 116.776 191.569 116.617 191.998C116.468 192.418 116.216 192.791 115.861 193.118C115.506 193.445 115.035 193.706 114.447 193.902C113.859 194.098 113.131 194.196 112.263 194.196C111.815 194.196 111.358 194.163 110.891 194.098C110.434 194.042 109.953 193.935 109.449 193.776V191.55Z" fill="#4A5A68"/>
<path d="M76 206C76 203.791 77.7909 202 80 202H128C130.209 202 132 203.791 132 206V230H76V206Z" fill="#0079C1"/>
<path d="M76 206C76 203.791 77.7909 202 80 202H128C130.209 202 132 203.791 132 206V230H76V206Z" fill="url(#paint1_linear_5397_192925)"/>
<path d="M87.7 250.74L89.632 249.116C90.2293 248.612 90.7333 248.159 91.144 247.758C91.564 247.347 91.9 246.969 92.152 246.624C92.4133 246.269 92.6 245.938 92.712 245.63C92.824 245.313 92.88 245 92.88 244.692C92.88 244.104 92.698 243.656 92.334 243.348C91.97 243.04 91.4193 242.886 90.682 242.886C90.234 242.886 89.8 242.947 89.38 243.068C88.96 243.18 88.54 243.343 88.12 243.558V242.298C88.5773 242.083 89.0207 241.929 89.45 241.836C89.8887 241.733 90.3227 241.682 90.752 241.682C91.2933 241.682 91.7833 241.752 92.222 241.892C92.6607 242.023 93.0293 242.219 93.328 242.48C93.636 242.732 93.8693 243.045 94.028 243.418C94.196 243.782 94.28 244.193 94.28 244.65C94.28 245.042 94.21 245.429 94.07 245.812C93.9393 246.185 93.72 246.582 93.412 247.002C93.1133 247.413 92.7167 247.856 92.222 248.332C91.7367 248.808 91.1347 249.34 90.416 249.928L89.408 250.754V250.796H94.42V252H87.7V250.74ZM100.375 250.936C100.786 250.936 101.14 250.866 101.439 250.726C101.738 250.586 101.985 250.357 102.181 250.04C102.377 249.713 102.522 249.298 102.615 248.794C102.708 248.281 102.755 247.651 102.755 246.904C102.755 246.139 102.704 245.499 102.601 244.986C102.508 244.473 102.363 244.062 102.167 243.754C101.971 243.437 101.724 243.213 101.425 243.082C101.126 242.951 100.776 242.886 100.375 242.886C100.011 242.886 99.6796 242.951 99.3809 243.082C99.0916 243.213 98.8443 243.432 98.6389 243.74C98.4336 244.048 98.2749 244.463 98.1629 244.986C98.0509 245.499 97.9949 246.139 97.9949 246.904C97.9949 247.66 98.0463 248.299 98.1489 248.822C98.2609 249.335 98.4149 249.751 98.6109 250.068C98.8163 250.376 99.0636 250.6 99.3529 250.74C99.6516 250.871 99.9923 250.936 100.375 250.936ZM100.375 252.14C99.1616 252.14 98.2283 251.72 97.5749 250.88C96.9216 250.04 96.5949 248.715 96.5949 246.904C96.5949 245.989 96.6789 245.205 96.8469 244.552C97.0243 243.889 97.2763 243.348 97.6029 242.928C97.9296 242.499 98.3263 242.186 98.7929 241.99C99.2596 241.785 99.7869 241.682 100.375 241.682C101.672 241.682 102.624 242.097 103.231 242.928C103.847 243.749 104.155 245.075 104.155 246.904C104.155 247.847 104.071 248.649 103.903 249.312C103.744 249.975 103.502 250.516 103.175 250.936C102.858 251.356 102.461 251.664 101.985 251.86C101.518 252.047 100.982 252.14 100.375 252.14ZM108.207 243.39L106.611 244.384L105.981 243.39L108.487 241.822H109.551V252H108.207V243.39ZM116.447 252.14C115.925 252.14 115.435 252.084 114.977 251.972C114.529 251.851 114.133 251.673 113.787 251.44C113.451 251.207 113.185 250.913 112.989 250.558C112.793 250.194 112.695 249.774 112.695 249.298C112.695 248.598 112.896 248.043 113.297 247.632C113.708 247.212 114.277 246.895 115.005 246.68C114.352 246.391 113.848 246.055 113.493 245.672C113.139 245.28 112.961 244.767 112.961 244.132C112.961 243.74 113.041 243.395 113.199 243.096C113.367 242.788 113.601 242.531 113.899 242.326C114.207 242.111 114.571 241.953 114.991 241.85C115.421 241.738 115.897 241.682 116.419 241.682C116.895 241.682 117.339 241.729 117.749 241.822C118.16 241.906 118.515 242.046 118.813 242.242C119.121 242.429 119.359 242.671 119.527 242.97C119.705 243.269 119.793 243.628 119.793 244.048C119.793 244.683 119.625 245.191 119.289 245.574C118.963 245.957 118.473 246.288 117.819 246.568C118.659 246.839 119.252 247.184 119.597 247.604C119.943 248.015 120.115 248.561 120.115 249.242C120.115 249.69 120.027 250.091 119.849 250.446C119.681 250.801 119.434 251.104 119.107 251.356C118.79 251.608 118.403 251.804 117.945 251.944C117.497 252.075 116.998 252.14 116.447 252.14ZM116.517 250.936C117.189 250.936 117.731 250.791 118.141 250.502C118.561 250.203 118.771 249.774 118.771 249.214C118.771 248.906 118.697 248.645 118.547 248.43C118.407 248.206 118.216 248.019 117.973 247.87C117.74 247.711 117.469 247.576 117.161 247.464C116.853 247.352 116.531 247.249 116.195 247.156C115.915 247.249 115.645 247.357 115.383 247.478C115.131 247.59 114.903 247.73 114.697 247.898C114.501 248.057 114.343 248.239 114.221 248.444C114.1 248.649 114.039 248.887 114.039 249.158C114.039 249.671 114.24 250.096 114.641 250.432C115.052 250.768 115.677 250.936 116.517 250.936ZM116.685 246.176C117.348 245.887 117.805 245.583 118.057 245.266C118.319 244.939 118.449 244.603 118.449 244.258C118.449 244.006 118.398 243.796 118.295 243.628C118.193 243.451 118.048 243.311 117.861 243.208C117.675 243.096 117.451 243.017 117.189 242.97C116.937 242.914 116.653 242.886 116.335 242.886C115.663 242.886 115.155 243.012 114.809 243.264C114.473 243.516 114.305 243.838 114.305 244.23C114.305 244.501 114.371 244.734 114.501 244.93C114.632 245.126 114.805 245.303 115.019 245.462C115.234 245.611 115.486 245.747 115.775 245.868C116.065 245.98 116.368 246.083 116.685 246.176Z" fill="#4A5A68"/>
<path d="M168.95 138H166.318V130.594L164.4 131.77L163.35 129.936L166.752 127.822H168.95V138ZM179.805 138H177.173V130.594L175.255 131.77L174.205 129.936L177.607 127.822H179.805V138ZM187.161 138H184.529V130.594L182.611 131.77L181.561 129.936L184.963 127.822H187.161V138ZM189.392 135.55C189.738 135.662 190.088 135.76 190.442 135.844C190.806 135.919 191.226 135.956 191.702 135.956C192.477 135.956 193.051 135.849 193.424 135.634C193.807 135.419 193.998 135.074 193.998 134.598C193.998 134.169 193.835 133.851 193.508 133.646C193.191 133.441 192.668 133.338 191.94 133.338C191.492 133.338 191.054 133.371 190.624 133.436C190.195 133.501 189.822 133.571 189.504 133.646L189.812 127.822H196.336V130.062H191.828L191.73 131.588C191.973 131.541 192.202 131.509 192.416 131.49C192.631 131.471 192.832 131.462 193.018 131.462C193.718 131.462 194.306 131.551 194.782 131.728C195.268 131.905 195.66 132.143 195.958 132.442C196.257 132.731 196.472 133.072 196.602 133.464C196.733 133.847 196.798 134.253 196.798 134.682C196.798 135.13 196.719 135.569 196.56 135.998C196.411 136.418 196.159 136.791 195.804 137.118C195.45 137.445 194.978 137.706 194.39 137.902C193.802 138.098 193.074 138.196 192.206 138.196C191.758 138.196 191.301 138.163 190.834 138.098C190.377 138.042 189.896 137.935 189.392 137.776V135.55Z" fill="#4A5A68"/>
<path d="M152 150C152 147.791 153.791 146 156 146H204C206.209 146 208 147.791 208 150V230H152V150Z" fill="#0079C1"/>
<path d="M152 150C152 147.791 153.791 146 156 146H204C206.209 146 208 147.791 208 150V230H152V150Z" fill="url(#paint2_linear_5397_192925)"/>
<path d="M163.7 250.74L165.632 249.116C166.229 248.612 166.733 248.159 167.144 247.758C167.564 247.347 167.9 246.969 168.152 246.624C168.413 246.269 168.6 245.938 168.712 245.63C168.824 245.313 168.88 245 168.88 244.692C168.88 244.104 168.698 243.656 168.334 243.348C167.97 243.04 167.419 242.886 166.682 242.886C166.234 242.886 165.8 242.947 165.38 243.068C164.96 243.18 164.54 243.343 164.12 243.558V242.298C164.577 242.083 165.021 241.929 165.45 241.836C165.889 241.733 166.323 241.682 166.752 241.682C167.293 241.682 167.783 241.752 168.222 241.892C168.661 242.023 169.029 242.219 169.328 242.48C169.636 242.732 169.869 243.045 170.028 243.418C170.196 243.782 170.28 244.193 170.28 244.65C170.28 245.042 170.21 245.429 170.07 245.812C169.939 246.185 169.72 246.582 169.412 247.002C169.113 247.413 168.717 247.856 168.222 248.332C167.737 248.808 167.135 249.34 166.416 249.928L165.408 250.754V250.796H170.42V252H163.7V250.74ZM176.375 250.936C176.786 250.936 177.14 250.866 177.439 250.726C177.738 250.586 177.985 250.357 178.181 250.04C178.377 249.713 178.522 249.298 178.615 248.794C178.708 248.281 178.755 247.651 178.755 246.904C178.755 246.139 178.704 245.499 178.601 244.986C178.508 244.473 178.363 244.062 178.167 243.754C177.971 243.437 177.724 243.213 177.425 243.082C177.126 242.951 176.776 242.886 176.375 242.886C176.011 242.886 175.68 242.951 175.381 243.082C175.092 243.213 174.844 243.432 174.639 243.74C174.434 244.048 174.275 244.463 174.163 244.986C174.051 245.499 173.995 246.139 173.995 246.904C173.995 247.66 174.046 248.299 174.149 248.822C174.261 249.335 174.415 249.751 174.611 250.068C174.816 250.376 175.064 250.6 175.353 250.74C175.652 250.871 175.992 250.936 176.375 250.936ZM176.375 252.14C175.162 252.14 174.228 251.72 173.575 250.88C172.922 250.04 172.595 248.715 172.595 246.904C172.595 245.989 172.679 245.205 172.847 244.552C173.024 243.889 173.276 243.348 173.603 242.928C173.93 242.499 174.326 242.186 174.793 241.99C175.26 241.785 175.787 241.682 176.375 241.682C177.672 241.682 178.624 242.097 179.231 242.928C179.847 243.749 180.155 245.075 180.155 246.904C180.155 247.847 180.071 248.649 179.903 249.312C179.744 249.975 179.502 250.516 179.175 250.936C178.858 251.356 178.461 251.664 177.985 251.86C177.518 252.047 176.982 252.14 176.375 252.14ZM184.207 243.39L182.611 244.384L181.981 243.39L184.487 241.822H185.551V252H184.207V243.39ZM191.313 252.14C191.005 252.14 190.702 252.121 190.403 252.084C190.105 252.047 189.815 251.977 189.535 251.874V250.586C189.825 250.698 190.119 250.787 190.417 250.852C190.716 250.908 191.038 250.936 191.383 250.936C191.971 250.936 192.475 250.847 192.895 250.67C193.325 250.483 193.675 250.217 193.945 249.872C194.225 249.527 194.431 249.107 194.561 248.612C194.692 248.117 194.757 247.557 194.757 246.932C194.533 247.315 194.202 247.637 193.763 247.898C193.325 248.159 192.737 248.29 191.999 248.29C191.533 248.29 191.089 248.229 190.669 248.108C190.249 247.977 189.881 247.781 189.563 247.52C189.255 247.249 189.008 246.909 188.821 246.498C188.644 246.087 188.555 245.602 188.555 245.042C188.555 244.519 188.644 244.053 188.821 243.642C189.008 243.222 189.26 242.867 189.577 242.578C189.904 242.289 190.287 242.069 190.725 241.92C191.173 241.761 191.659 241.682 192.181 241.682C192.965 241.682 193.605 241.817 194.099 242.088C194.603 242.349 195 242.704 195.289 243.152C195.579 243.6 195.775 244.123 195.877 244.72C195.989 245.308 196.045 245.929 196.045 246.582C196.045 247.375 195.966 248.113 195.807 248.794C195.649 249.466 195.383 250.054 195.009 250.558C194.645 251.053 194.16 251.44 193.553 251.72C192.956 252 192.209 252.14 191.313 252.14ZM192.125 247.086C192.48 247.086 192.802 247.035 193.091 246.932C193.39 246.829 193.642 246.694 193.847 246.526C194.053 246.349 194.211 246.143 194.323 245.91C194.435 245.677 194.491 245.429 194.491 245.168C194.491 244.477 194.291 243.927 193.889 243.516C193.497 243.096 192.914 242.886 192.139 242.886C191.486 242.886 190.959 243.063 190.557 243.418C190.156 243.773 189.955 244.3 189.955 245C189.955 245.672 190.156 246.19 190.557 246.554C190.959 246.909 191.481 247.086 192.125 247.086Z" fill="#4A5A68"/>
<path d="M245.26 72H237.49V69.69L239.114 68.64C239.665 68.2853 240.141 67.9587 240.542 67.66C240.943 67.3613 241.275 67.0767 241.536 66.806C241.807 66.5353 242.007 66.274 242.138 66.022C242.269 65.77 242.334 65.5087 242.334 65.238C242.334 64.8553 242.185 64.5473 241.886 64.314C241.597 64.0807 241.093 63.964 240.374 63.964C239.917 63.964 239.464 64.0153 239.016 64.118C238.577 64.2113 238.171 64.342 237.798 64.51V62.13C238.414 61.934 238.993 61.8033 239.534 61.738C240.085 61.6633 240.626 61.626 241.158 61.626C241.942 61.626 242.591 61.7147 243.104 61.892C243.627 62.06 244.042 62.2887 244.35 62.578C244.658 62.858 244.873 63.18 244.994 63.544C245.125 63.908 245.19 64.2813 245.19 64.664C245.19 65.1213 245.106 65.5553 244.938 65.966C244.779 66.3673 244.541 66.7593 244.224 67.142C243.907 67.5153 243.51 67.8887 243.034 68.262C242.567 68.626 242.026 68.9993 241.41 69.382L240.822 69.746V69.76H245.26V72ZM251.065 69.956C251.373 69.956 251.63 69.9047 251.835 69.802C252.05 69.69 252.222 69.5127 252.353 69.27C252.484 69.0273 252.577 68.7147 252.633 68.332C252.698 67.94 252.731 67.4687 252.731 66.918C252.731 65.8447 252.61 65.07 252.367 64.594C252.124 64.1087 251.69 63.866 251.065 63.866C250.421 63.866 249.968 64.1087 249.707 64.594C249.455 65.0793 249.329 65.854 249.329 66.918C249.329 67.4687 249.362 67.9353 249.427 68.318C249.492 68.7007 249.595 69.0133 249.735 69.256C249.875 69.4987 250.052 69.676 250.267 69.788C250.491 69.9 250.757 69.956 251.065 69.956ZM251.051 72.196C249.576 72.196 248.461 71.7713 247.705 70.922C246.958 70.0727 246.585 68.7473 246.585 66.946C246.585 65.1073 246.972 63.7633 247.747 62.914C248.531 62.0553 249.66 61.626 251.135 61.626C252.628 61.626 253.725 62.0507 254.425 62.9C255.125 63.7493 255.475 65.056 255.475 66.82C255.475 67.7627 255.377 68.5747 255.181 69.256C254.994 69.9373 254.714 70.4973 254.341 70.936C253.968 71.3653 253.506 71.6827 252.955 71.888C252.404 72.0933 251.77 72.196 251.051 72.196ZM264.36 72H256.59V69.69L258.214 68.64C258.764 68.2853 259.24 67.9587 259.642 67.66C260.043 67.3613 260.374 67.0767 260.636 66.806C260.906 66.5353 261.107 66.274 261.238 66.022C261.368 65.77 261.434 65.5087 261.434 65.238C261.434 64.8553 261.284 64.5473 260.986 64.314C260.696 64.0807 260.192 63.964 259.474 63.964C259.016 63.964 258.564 64.0153 258.116 64.118C257.677 64.2113 257.271 64.342 256.898 64.51V62.13C257.514 61.934 258.092 61.8033 258.634 61.738C259.184 61.6633 259.726 61.626 260.258 61.626C261.042 61.626 261.69 61.7147 262.204 61.892C262.726 62.06 263.142 62.2887 263.45 62.578C263.758 62.858 263.972 63.18 264.094 63.544C264.224 63.908 264.29 64.2813 264.29 64.664C264.29 65.1213 264.206 65.5553 264.038 65.966C263.879 66.3673 263.641 66.7593 263.324 67.142C263.006 67.5153 262.61 67.8887 262.134 68.262C261.667 68.626 261.126 68.9993 260.51 69.382L259.922 69.746V69.76H264.36V72ZM270.165 69.956C270.473 69.956 270.729 69.9047 270.935 69.802C271.149 69.69 271.322 69.5127 271.453 69.27C271.583 69.0273 271.677 68.7147 271.733 68.332C271.798 67.94 271.831 67.4687 271.831 66.918C271.831 65.8447 271.709 65.07 271.467 64.594C271.224 64.1087 270.79 63.866 270.165 63.866C269.521 63.866 269.068 64.1087 268.807 64.594C268.555 65.0793 268.429 65.854 268.429 66.918C268.429 67.4687 268.461 67.9353 268.527 68.318C268.592 68.7007 268.695 69.0133 268.835 69.256C268.975 69.4987 269.152 69.676 269.367 69.788C269.591 69.9 269.857 69.956 270.165 69.956ZM270.151 72.196C268.676 72.196 267.561 71.7713 266.805 70.922C266.058 70.0727 265.685 68.7473 265.685 66.946C265.685 65.1073 266.072 63.7633 266.847 62.914C267.631 62.0553 268.76 61.626 270.235 61.626C271.728 61.626 272.825 62.0507 273.525 62.9C274.225 63.7493 274.575 65.056 274.575 66.82C274.575 67.7627 274.477 68.5747 274.281 69.256C274.094 69.9373 273.814 70.4973 273.441 70.936C273.067 71.3653 272.605 71.6827 272.055 71.888C271.504 72.0933 270.869 72.196 270.151 72.196Z" fill="#4A5A68"/>
<path d="M228 84C228 81.7909 229.791 80 232 80H280C282.209 80 284 81.7909 284 84V230H228V84Z" fill="#0079C1"/>
<path d="M228 84C228 81.7909 229.791 80 232 80H280C282.209 80 284 81.7909 284 84V230H228V84Z" fill="url(#paint3_linear_5397_192925)"/>
<path d="M238.7 250.74L240.632 249.116C241.229 248.612 241.733 248.159 242.144 247.758C242.564 247.347 242.9 246.969 243.152 246.624C243.413 246.269 243.6 245.938 243.712 245.63C243.824 245.313 243.88 245 243.88 244.692C243.88 244.104 243.698 243.656 243.334 243.348C242.97 243.04 242.419 242.886 241.682 242.886C241.234 242.886 240.8 242.947 240.38 243.068C239.96 243.18 239.54 243.343 239.12 243.558V242.298C239.577 242.083 240.021 241.929 240.45 241.836C240.889 241.733 241.323 241.682 241.752 241.682C242.293 241.682 242.783 241.752 243.222 241.892C243.661 242.023 244.029 242.219 244.328 242.48C244.636 242.732 244.869 243.045 245.028 243.418C245.196 243.782 245.28 244.193 245.28 244.65C245.28 245.042 245.21 245.429 245.07 245.812C244.939 246.185 244.72 246.582 244.412 247.002C244.113 247.413 243.717 247.856 243.222 248.332C242.737 248.808 242.135 249.34 241.416 249.928L240.408 250.754V250.796H245.42V252H238.7V250.74ZM251.375 250.936C251.786 250.936 252.14 250.866 252.439 250.726C252.738 250.586 252.985 250.357 253.181 250.04C253.377 249.713 253.522 249.298 253.615 248.794C253.708 248.281 253.755 247.651 253.755 246.904C253.755 246.139 253.704 245.499 253.601 244.986C253.508 244.473 253.363 244.062 253.167 243.754C252.971 243.437 252.724 243.213 252.425 243.082C252.126 242.951 251.776 242.886 251.375 242.886C251.011 242.886 250.68 242.951 250.381 243.082C250.092 243.213 249.844 243.432 249.639 243.74C249.434 244.048 249.275 244.463 249.163 244.986C249.051 245.499 248.995 246.139 248.995 246.904C248.995 247.66 249.046 248.299 249.149 248.822C249.261 249.335 249.415 249.751 249.611 250.068C249.816 250.376 250.064 250.6 250.353 250.74C250.652 250.871 250.992 250.936 251.375 250.936ZM251.375 252.14C250.162 252.14 249.228 251.72 248.575 250.88C247.922 250.04 247.595 248.715 247.595 246.904C247.595 245.989 247.679 245.205 247.847 244.552C248.024 243.889 248.276 243.348 248.603 242.928C248.93 242.499 249.326 242.186 249.793 241.99C250.26 241.785 250.787 241.682 251.375 241.682C252.672 241.682 253.624 242.097 254.231 242.928C254.847 243.749 255.155 245.075 255.155 246.904C255.155 247.847 255.071 248.649 254.903 249.312C254.744 249.975 254.502 250.516 254.175 250.936C253.858 251.356 253.461 251.664 252.985 251.86C252.518 252.047 251.982 252.14 251.375 252.14ZM256.911 250.74L258.843 249.116C259.44 248.612 259.944 248.159 260.355 247.758C260.775 247.347 261.111 246.969 261.363 246.624C261.624 246.269 261.811 245.938 261.923 245.63C262.035 245.313 262.091 245 262.091 244.692C262.091 244.104 261.909 243.656 261.545 243.348C261.181 243.04 260.63 242.886 259.893 242.886C259.445 242.886 259.011 242.947 258.591 243.068C258.171 243.18 257.751 243.343 257.331 243.558V242.298C257.788 242.083 258.232 241.929 258.661 241.836C259.1 241.733 259.534 241.682 259.963 241.682C260.504 241.682 260.994 241.752 261.433 241.892C261.872 242.023 262.24 242.219 262.539 242.48C262.847 242.732 263.08 243.045 263.239 243.418C263.407 243.782 263.491 244.193 263.491 244.65C263.491 245.042 263.421 245.429 263.281 245.812C263.15 246.185 262.931 246.582 262.623 247.002C262.324 247.413 261.928 247.856 261.433 248.332C260.948 248.808 260.346 249.34 259.627 249.928L258.619 250.754V250.796H263.631V252H256.911V250.74ZM269.586 250.936C269.997 250.936 270.351 250.866 270.65 250.726C270.949 250.586 271.196 250.357 271.392 250.04C271.588 249.713 271.733 249.298 271.826 248.794C271.919 248.281 271.966 247.651 271.966 246.904C271.966 246.139 271.915 245.499 271.812 244.986C271.719 244.473 271.574 244.062 271.378 243.754C271.182 243.437 270.935 243.213 270.636 243.082C270.337 242.951 269.987 242.886 269.586 242.886C269.222 242.886 268.891 242.951 268.592 243.082C268.303 243.213 268.055 243.432 267.85 243.74C267.645 244.048 267.486 244.463 267.374 244.986C267.262 245.499 267.206 246.139 267.206 246.904C267.206 247.66 267.257 248.299 267.36 248.822C267.472 249.335 267.626 249.751 267.822 250.068C268.027 250.376 268.275 250.6 268.564 250.74C268.863 250.871 269.203 250.936 269.586 250.936ZM269.586 252.14C268.373 252.14 267.439 251.72 266.786 250.88C266.133 250.04 265.806 248.715 265.806 246.904C265.806 245.989 265.89 245.205 266.058 244.552C266.235 243.889 266.487 243.348 266.814 242.928C267.141 242.499 267.537 242.186 268.004 241.99C268.471 241.785 268.998 241.682 269.586 241.682C270.883 241.682 271.835 242.097 272.442 242.928C273.058 243.749 273.366 245.075 273.366 246.904C273.366 247.847 273.282 248.649 273.114 249.312C272.955 249.975 272.713 250.516 272.386 250.936C272.069 251.356 271.672 251.664 271.196 251.86C270.729 252.047 270.193 252.14 269.586 252.14Z" fill="#4A5A68"/>
<path d="M322.26 46H314.49V43.69L316.114 42.64C316.665 42.2853 317.141 41.9587 317.542 41.66C317.943 41.3613 318.275 41.0767 318.536 40.806C318.807 40.5353 319.007 40.274 319.138 40.022C319.269 39.77 319.334 39.5087 319.334 39.238C319.334 38.8553 319.185 38.5473 318.886 38.314C318.597 38.0807 318.093 37.964 317.374 37.964C316.917 37.964 316.464 38.0153 316.016 38.118C315.577 38.2113 315.171 38.342 314.798 38.51V36.13C315.414 35.934 315.993 35.8033 316.534 35.738C317.085 35.6633 317.626 35.626 318.158 35.626C318.942 35.626 319.591 35.7147 320.104 35.892C320.627 36.06 321.042 36.2887 321.35 36.578C321.658 36.858 321.873 37.18 321.994 37.544C322.125 37.908 322.19 38.2813 322.19 38.664C322.19 39.1213 322.106 39.5553 321.938 39.966C321.779 40.3673 321.541 40.7593 321.224 41.142C320.907 41.5153 320.51 41.8887 320.034 42.262C319.567 42.626 319.026 42.9993 318.41 43.382L317.822 43.746V43.76H322.26V46ZM327.015 43.452C327.575 43.648 328.074 43.7833 328.513 43.858C328.952 43.9233 329.367 43.956 329.759 43.956C330.515 43.956 331.052 43.858 331.369 43.662C331.696 43.4567 331.859 43.1767 331.859 42.822C331.859 42.486 331.714 42.2387 331.425 42.08C331.136 41.9213 330.683 41.842 330.067 41.842H328.261V39.812H329.913C331.042 39.812 331.607 39.49 331.607 38.846C331.607 38.5287 331.462 38.286 331.173 38.118C330.884 37.95 330.403 37.866 329.731 37.866C329.255 37.866 328.798 37.908 328.359 37.992C327.93 38.076 327.542 38.1833 327.197 38.314V36.074C327.729 35.9153 328.27 35.8033 328.821 35.738C329.372 35.6633 329.904 35.626 330.417 35.626C331.22 35.626 331.878 35.7053 332.391 35.864C332.904 36.0227 333.31 36.228 333.609 36.48C333.908 36.732 334.113 37.0213 334.225 37.348C334.337 37.6653 334.393 37.9873 334.393 38.314C334.393 39.5833 333.688 40.386 332.279 40.722V40.764C332.727 40.8293 333.1 40.932 333.399 41.072C333.698 41.2027 333.94 41.3707 334.127 41.576C334.314 41.772 334.444 42.0007 334.519 42.262C334.603 42.514 334.645 42.7847 334.645 43.074C334.645 43.5127 334.561 43.9233 334.393 44.306C334.225 44.6793 333.964 45.006 333.609 45.286C333.254 45.566 332.797 45.79 332.237 45.958C331.686 46.1167 331.028 46.196 330.263 46.196C329.815 46.196 329.306 46.1633 328.737 46.098C328.177 46.0327 327.603 45.9113 327.015 45.734V43.452ZM339.725 46H336.701L340.369 38.062H335.595V35.822H343.379V37.726L339.725 46ZM344.515 43.452C345.075 43.648 345.574 43.7833 346.013 43.858C346.452 43.9233 346.867 43.956 347.259 43.956C348.015 43.956 348.552 43.858 348.869 43.662C349.196 43.4567 349.359 43.1767 349.359 42.822C349.359 42.486 349.214 42.2387 348.925 42.08C348.636 41.9213 348.183 41.842 347.567 41.842H345.761V39.812H347.413C348.542 39.812 349.107 39.49 349.107 38.846C349.107 38.5287 348.962 38.286 348.673 38.118C348.384 37.95 347.903 37.866 347.231 37.866C346.755 37.866 346.298 37.908 345.859 37.992C345.43 38.076 345.042 38.1833 344.697 38.314V36.074C345.229 35.9153 345.77 35.8033 346.321 35.738C346.872 35.6633 347.404 35.626 347.917 35.626C348.72 35.626 349.378 35.7053 349.891 35.864C350.404 36.0227 350.81 36.228 351.109 36.48C351.408 36.732 351.613 37.0213 351.725 37.348C351.837 37.6653 351.893 37.9873 351.893 38.314C351.893 39.5833 351.188 40.386 349.779 40.722V40.764C350.227 40.8293 350.6 40.932 350.899 41.072C351.198 41.2027 351.44 41.3707 351.627 41.576C351.814 41.772 351.944 42.0007 352.019 42.262C352.103 42.514 352.145 42.7847 352.145 43.074C352.145 43.5127 352.061 43.9233 351.893 44.306C351.725 44.6793 351.464 45.006 351.109 45.286C350.754 45.566 350.297 45.79 349.737 45.958C349.186 46.1167 348.528 46.196 347.763 46.196C347.315 46.196 346.806 46.1633 346.237 46.098C345.677 46.0327 345.103 45.9113 344.515 45.734V43.452Z" fill="#4A5A68"/>
<path d="M304 58C304 55.7909 305.791 54 308 54H356C358.209 54 360 55.7909 360 58V230H304V58Z" fill="#0079C1"/>
<path d="M304 58C304 55.7909 305.791 54 308 54H356C358.209 54 360 55.7909 360 58V230H304V58Z" fill="url(#paint4_linear_5397_192925)"/>
<path d="M313.7 250.74L315.632 249.116C316.229 248.612 316.733 248.159 317.144 247.758C317.564 247.347 317.9 246.969 318.152 246.624C318.413 246.269 318.6 245.938 318.712 245.63C318.824 245.313 318.88 245 318.88 244.692C318.88 244.104 318.698 243.656 318.334 243.348C317.97 243.04 317.419 242.886 316.682 242.886C316.234 242.886 315.8 242.947 315.38 243.068C314.96 243.18 314.54 243.343 314.12 243.558V242.298C314.577 242.083 315.021 241.929 315.45 241.836C315.889 241.733 316.323 241.682 316.752 241.682C317.293 241.682 317.783 241.752 318.222 241.892C318.661 242.023 319.029 242.219 319.328 242.48C319.636 242.732 319.869 243.045 320.028 243.418C320.196 243.782 320.28 244.193 320.28 244.65C320.28 245.042 320.21 245.429 320.07 245.812C319.939 246.185 319.72 246.582 319.412 247.002C319.113 247.413 318.717 247.856 318.222 248.332C317.737 248.808 317.135 249.34 316.416 249.928L315.408 250.754V250.796H320.42V252H313.7V250.74ZM326.375 250.936C326.786 250.936 327.14 250.866 327.439 250.726C327.738 250.586 327.985 250.357 328.181 250.04C328.377 249.713 328.522 249.298 328.615 248.794C328.708 248.281 328.755 247.651 328.755 246.904C328.755 246.139 328.704 245.499 328.601 244.986C328.508 244.473 328.363 244.062 328.167 243.754C327.971 243.437 327.724 243.213 327.425 243.082C327.126 242.951 326.776 242.886 326.375 242.886C326.011 242.886 325.68 242.951 325.381 243.082C325.092 243.213 324.844 243.432 324.639 243.74C324.434 244.048 324.275 244.463 324.163 244.986C324.051 245.499 323.995 246.139 323.995 246.904C323.995 247.66 324.046 248.299 324.149 248.822C324.261 249.335 324.415 249.751 324.611 250.068C324.816 250.376 325.064 250.6 325.353 250.74C325.652 250.871 325.992 250.936 326.375 250.936ZM326.375 252.14C325.162 252.14 324.228 251.72 323.575 250.88C322.922 250.04 322.595 248.715 322.595 246.904C322.595 245.989 322.679 245.205 322.847 244.552C323.024 243.889 323.276 243.348 323.603 242.928C323.93 242.499 324.326 242.186 324.793 241.99C325.26 241.785 325.787 241.682 326.375 241.682C327.672 241.682 328.624 242.097 329.231 242.928C329.847 243.749 330.155 245.075 330.155 246.904C330.155 247.847 330.071 248.649 329.903 249.312C329.744 249.975 329.502 250.516 329.175 250.936C328.858 251.356 328.461 251.664 327.985 251.86C327.518 252.047 326.982 252.14 326.375 252.14ZM331.911 250.74L333.843 249.116C334.44 248.612 334.944 248.159 335.355 247.758C335.775 247.347 336.111 246.969 336.363 246.624C336.624 246.269 336.811 245.938 336.923 245.63C337.035 245.313 337.091 245 337.091 244.692C337.091 244.104 336.909 243.656 336.545 243.348C336.181 243.04 335.63 242.886 334.893 242.886C334.445 242.886 334.011 242.947 333.591 243.068C333.171 243.18 332.751 243.343 332.331 243.558V242.298C332.788 242.083 333.232 241.929 333.661 241.836C334.1 241.733 334.534 241.682 334.963 241.682C335.504 241.682 335.994 241.752 336.433 241.892C336.872 242.023 337.24 242.219 337.539 242.48C337.847 242.732 338.08 243.045 338.239 243.418C338.407 243.782 338.491 244.193 338.491 244.65C338.491 245.042 338.421 245.429 338.281 245.812C338.15 246.185 337.931 246.582 337.623 247.002C337.324 247.413 336.928 247.856 336.433 248.332C335.948 248.808 335.346 249.34 334.627 249.928L333.619 250.754V250.796H338.631V252H331.911V250.74ZM342.752 243.39L341.156 244.384L340.526 243.39L343.032 241.822H344.096V252H342.752V243.39Z" fill="#4A5A68"/>
<path d="M413.826 178.55C414.171 178.662 414.521 178.76 414.876 178.844C415.24 178.919 415.66 178.956 416.136 178.956C416.911 178.956 417.485 178.849 417.858 178.634C418.241 178.419 418.432 178.074 418.432 177.598C418.432 177.169 418.269 176.851 417.942 176.646C417.625 176.441 417.102 176.338 416.374 176.338C415.926 176.338 415.487 176.371 415.058 176.436C414.629 176.501 414.255 176.571 413.938 176.646L414.246 170.822H420.77V173.062H416.262L416.164 174.588C416.407 174.541 416.635 174.509 416.85 174.49C417.065 174.471 417.265 174.462 417.452 174.462C418.152 174.462 418.74 174.551 419.216 174.728C419.701 174.905 420.093 175.143 420.392 175.442C420.691 175.731 420.905 176.072 421.036 176.464C421.167 176.847 421.232 177.253 421.232 177.682C421.232 178.13 421.153 178.569 420.994 178.998C420.845 179.418 420.593 179.791 420.238 180.118C419.883 180.445 419.412 180.706 418.824 180.902C418.236 181.098 417.508 181.196 416.64 181.196C416.192 181.196 415.735 181.163 415.268 181.098C414.811 181.042 414.33 180.935 413.826 180.776V178.55ZM427.475 176.73V173.006H427.447L424.577 176.73H427.475ZM430.079 181H427.433V178.97H422.295V176.8L426.901 170.822H430.079V176.73H431.465V178.97H430.079V181ZM436.585 172.628C436.118 172.628 435.745 172.763 435.465 173.034C435.185 173.305 435.045 173.678 435.045 174.154C435.045 174.63 435.18 175.008 435.451 175.288C435.731 175.559 436.09 175.694 436.529 175.694C436.772 175.694 436.991 175.652 437.187 175.568C437.392 175.484 437.565 175.372 437.705 175.232C437.854 175.083 437.966 174.91 438.041 174.714C438.125 174.518 438.167 174.313 438.167 174.098C438.167 173.678 438.022 173.328 437.733 173.048C437.444 172.768 437.061 172.628 436.585 172.628ZM433.267 178.662C433.622 178.774 433.986 178.853 434.359 178.9C434.732 178.947 435.138 178.97 435.577 178.97C435.96 178.97 436.319 178.923 436.655 178.83C437 178.737 437.304 178.592 437.565 178.396C437.826 178.2 438.032 177.948 438.181 177.64C438.33 177.332 438.405 176.959 438.405 176.52C438.293 176.632 438.158 176.744 437.999 176.856C437.85 176.968 437.672 177.071 437.467 177.164C437.271 177.248 437.038 177.323 436.767 177.388C436.506 177.444 436.207 177.472 435.871 177.472C435.367 177.472 434.896 177.402 434.457 177.262C434.028 177.113 433.65 176.898 433.323 176.618C433.006 176.338 432.754 175.997 432.567 175.596C432.39 175.185 432.301 174.714 432.301 174.182C432.301 173.631 432.404 173.137 432.609 172.698C432.814 172.259 433.104 171.886 433.477 171.578C433.85 171.27 434.298 171.037 434.821 170.878C435.344 170.71 435.922 170.626 436.557 170.626C437.35 170.626 438.022 170.752 438.573 171.004C439.133 171.256 439.586 171.601 439.931 172.04C440.276 172.479 440.524 173.006 440.673 173.622C440.832 174.229 440.911 174.887 440.911 175.596C440.911 176.343 440.822 177.057 440.645 177.738C440.477 178.41 440.188 179.003 439.777 179.516C439.376 180.029 438.844 180.44 438.181 180.748C437.518 181.047 436.697 181.196 435.717 181.196C435.428 181.196 435.068 181.177 434.639 181.14C434.219 181.103 433.762 181.023 433.267 180.902V178.662Z" fill="#4A5A68"/>
<path d="M398 193C398 190.791 399.791 189 402 189H450C452.209 189 454 190.791 454 193V230H398V193Z" fill="#0079C1"/>
<path d="M398 193C398 190.791 399.791 189 402 189H450C452.209 189 454 190.791 454 193V230H398V193Z" fill="url(#paint5_linear_5397_192925)"/>
<path d="M405.62 250.936C406.273 250.936 406.796 250.759 407.188 250.404C407.589 250.049 407.79 249.522 407.79 248.822C407.79 248.15 407.585 247.646 407.174 247.31C406.763 246.965 406.245 246.792 405.62 246.792C405.265 246.792 404.943 246.843 404.654 246.946C404.365 247.049 404.117 247.184 403.912 247.352C403.707 247.52 403.548 247.711 403.436 247.926C403.324 248.141 403.268 248.365 403.268 248.598C403.268 248.925 403.319 249.228 403.422 249.508C403.525 249.788 403.674 250.035 403.87 250.25C404.066 250.465 404.309 250.633 404.598 250.754C404.897 250.875 405.237 250.936 405.62 250.936ZM405.564 252.14C404.78 252.14 404.136 251.995 403.632 251.706C403.137 251.417 402.745 251.043 402.456 250.586C402.167 250.129 401.966 249.615 401.854 249.046C401.751 248.467 401.7 247.889 401.7 247.31C401.7 246.517 401.779 245.779 401.938 245.098C402.097 244.407 402.358 243.81 402.722 243.306C403.095 242.802 403.585 242.405 404.192 242.116C404.799 241.827 405.55 241.682 406.446 241.682C406.745 241.682 407.043 241.701 407.342 241.738C407.641 241.775 407.93 241.845 408.21 241.948V243.236C407.921 243.124 407.627 243.04 407.328 242.984C407.039 242.919 406.731 242.886 406.404 242.886C405.807 242.886 405.289 242.989 404.85 243.194C404.421 243.399 404.066 243.679 403.786 244.034C403.515 244.389 403.315 244.809 403.184 245.294C403.053 245.77 402.988 246.283 402.988 246.834C403.109 246.666 403.254 246.507 403.422 246.358C403.59 246.199 403.781 246.064 403.996 245.952C404.22 245.84 404.472 245.751 404.752 245.686C405.041 245.621 405.373 245.588 405.746 245.588C406.213 245.588 406.651 245.649 407.062 245.77C407.482 245.891 407.851 246.083 408.168 246.344C408.485 246.605 408.733 246.937 408.91 247.338C409.097 247.739 409.19 248.22 409.19 248.78C409.19 249.303 409.097 249.774 408.91 250.194C408.733 250.605 408.481 250.955 408.154 251.244C407.837 251.533 407.454 251.757 407.006 251.916C406.567 252.065 406.087 252.14 405.564 252.14ZM418.992 244.37V252H417.704V245.91L415.562 250.6H414.302L412.16 246.008V252H410.872V244.37H412.706L414.988 249.438L417.256 244.37H418.992ZM420.882 250.74L422.814 249.116C423.411 248.612 423.915 248.159 424.326 247.758C424.746 247.347 425.082 246.969 425.334 246.624C425.595 246.269 425.782 245.938 425.894 245.63C426.006 245.313 426.062 245 426.062 244.692C426.062 244.104 425.88 243.656 425.516 243.348C425.152 243.04 424.601 242.886 423.864 242.886C423.416 242.886 422.982 242.947 422.562 243.068C422.142 243.18 421.722 243.343 421.302 243.558V242.298C421.759 242.083 422.202 241.929 422.632 241.836C423.07 241.733 423.504 241.682 423.934 241.682C424.475 241.682 424.965 241.752 425.404 241.892C425.842 242.023 426.211 242.219 426.51 242.48C426.818 242.732 427.051 243.045 427.21 243.418C427.378 243.782 427.462 244.193 427.462 244.65C427.462 245.042 427.392 245.429 427.252 245.812C427.121 246.185 426.902 246.582 426.594 247.002C426.295 247.413 425.898 247.856 425.404 248.332C424.918 248.808 424.316 249.34 423.598 249.928L422.59 250.754V250.796H427.602V252H420.882V250.74ZM433.557 250.936C433.967 250.936 434.322 250.866 434.621 250.726C434.919 250.586 435.167 250.357 435.363 250.04C435.559 249.713 435.703 249.298 435.797 248.794C435.89 248.281 435.937 247.651 435.937 246.904C435.937 246.139 435.885 245.499 435.783 244.986C435.689 244.473 435.545 244.062 435.349 243.754C435.153 243.437 434.905 243.213 434.607 243.082C434.308 242.951 433.958 242.886 433.557 242.886C433.193 242.886 432.861 242.951 432.563 243.082C432.273 243.213 432.026 243.432 431.821 243.74C431.615 244.048 431.457 244.463 431.345 244.986C431.233 245.499 431.177 246.139 431.177 246.904C431.177 247.66 431.228 248.299 431.331 248.822C431.443 249.335 431.597 249.751 431.793 250.068C431.998 250.376 432.245 250.6 432.535 250.74C432.833 250.871 433.174 250.936 433.557 250.936ZM433.557 252.14C432.343 252.14 431.41 251.72 430.757 250.88C430.103 250.04 429.777 248.715 429.777 246.904C429.777 245.989 429.861 245.205 430.029 244.552C430.206 243.889 430.458 243.348 430.785 242.928C431.111 242.499 431.508 242.186 431.975 241.99C432.441 241.785 432.969 241.682 433.557 241.682C434.854 241.682 435.806 242.097 436.413 242.928C437.029 243.749 437.337 245.075 437.337 246.904C437.337 247.847 437.253 248.649 437.085 249.312C436.926 249.975 436.683 250.516 436.357 250.936C436.039 251.356 435.643 251.664 435.167 251.86C434.7 252.047 434.163 252.14 433.557 252.14ZM439.093 250.74L441.025 249.116C441.622 248.612 442.126 248.159 442.537 247.758C442.957 247.347 443.293 246.969 443.545 246.624C443.806 246.269 443.993 245.938 444.105 245.63C444.217 245.313 444.273 245 444.273 244.692C444.273 244.104 444.091 243.656 443.727 243.348C443.363 243.04 442.812 242.886 442.075 242.886C441.627 242.886 441.193 242.947 440.773 243.068C440.353 243.18 439.933 243.343 439.513 243.558V242.298C439.97 242.083 440.413 241.929 440.843 241.836C441.281 241.733 441.715 241.682 442.145 241.682C442.686 241.682 443.176 241.752 443.615 241.892C444.053 242.023 444.422 242.219 444.721 242.48C445.029 242.732 445.262 243.045 445.421 243.418C445.589 243.782 445.673 244.193 445.673 244.65C445.673 245.042 445.603 245.429 445.463 245.812C445.332 246.185 445.113 246.582 444.805 247.002C444.506 247.413 444.109 247.856 443.615 248.332C443.129 248.808 442.527 249.34 441.809 249.928L440.801 250.754V250.796H445.813V252H439.093V250.74ZM449.934 243.39L448.338 244.384L447.708 243.39L450.214 241.822H451.278V252H449.934V243.39Z" fill="#4A5A68"/>
<path d="M489.95 106H487.318V98.594L485.4 99.77L484.35 97.936L487.752 95.822H489.95V106ZM495.681 103.55C496.027 103.662 496.377 103.76 496.731 103.844C497.095 103.919 497.515 103.956 497.991 103.956C498.766 103.956 499.34 103.849 499.713 103.634C500.096 103.419 500.287 103.074 500.287 102.598C500.287 102.169 500.124 101.851 499.797 101.646C499.48 101.441 498.957 101.338 498.229 101.338C497.781 101.338 497.343 101.371 496.913 101.436C496.484 101.501 496.111 101.571 495.793 101.646L496.101 95.822H502.625V98.062H498.117L498.019 99.588C498.262 99.5413 498.491 99.5087 498.705 99.49C498.92 99.4713 499.121 99.462 499.307 99.462C500.007 99.462 500.595 99.5507 501.071 99.728C501.557 99.9053 501.949 100.143 502.247 100.442C502.546 100.731 502.761 101.072 502.891 101.464C503.022 101.847 503.087 102.253 503.087 102.682C503.087 103.13 503.008 103.569 502.849 103.998C502.7 104.418 502.448 104.791 502.093 105.118C501.739 105.445 501.267 105.706 500.679 105.902C500.091 106.098 499.363 106.196 498.495 106.196C498.047 106.196 497.59 106.163 497.123 106.098C496.666 106.042 496.185 105.935 495.681 105.776V103.55ZM508.77 103.956C509.078 103.956 509.335 103.905 509.54 103.802C509.755 103.69 509.927 103.513 510.058 103.27C510.189 103.027 510.282 102.715 510.338 102.332C510.403 101.94 510.436 101.469 510.436 100.918C510.436 99.8447 510.315 99.07 510.072 98.594C509.829 98.1087 509.395 97.866 508.77 97.866C508.126 97.866 507.673 98.1087 507.412 98.594C507.16 99.0793 507.034 99.854 507.034 100.918C507.034 101.469 507.067 101.935 507.132 102.318C507.197 102.701 507.3 103.013 507.44 103.256C507.58 103.499 507.757 103.676 507.972 103.788C508.196 103.9 508.462 103.956 508.77 103.956ZM508.756 106.196C507.281 106.196 506.166 105.771 505.41 104.922C504.663 104.073 504.29 102.747 504.29 100.946C504.29 99.1073 504.677 97.7633 505.452 96.914C506.236 96.0553 507.365 95.626 508.84 95.626C510.333 95.626 511.43 96.0507 512.13 96.9C512.83 97.7493 513.18 99.056 513.18 100.82C513.18 101.763 513.082 102.575 512.886 103.256C512.699 103.937 512.419 104.497 512.046 104.936C511.673 105.365 511.211 105.683 510.66 105.888C510.109 106.093 509.475 106.196 508.756 106.196ZM514.631 103.55C514.976 103.662 515.326 103.76 515.681 103.844C516.045 103.919 516.465 103.956 516.941 103.956C517.715 103.956 518.289 103.849 518.663 103.634C519.045 103.419 519.237 103.074 519.237 102.598C519.237 102.169 519.073 101.851 518.747 101.646C518.429 101.441 517.907 101.338 517.179 101.338C516.731 101.338 516.292 101.371 515.863 101.436C515.433 101.501 515.06 101.571 514.743 101.646L515.051 95.822H521.575V98.062H517.067L516.969 99.588C517.211 99.5413 517.44 99.5087 517.655 99.49C517.869 99.4713 518.07 99.462 518.257 99.462C518.957 99.462 519.545 99.5507 520.021 99.728C520.506 99.9053 520.898 100.143 521.197 100.442C521.495 100.731 521.71 101.072 521.841 101.464C521.971 101.847 522.037 102.253 522.037 102.682C522.037 103.13 521.957 103.569 521.799 103.998C521.649 104.418 521.397 104.791 521.043 105.118C520.688 105.445 520.217 105.706 519.629 105.902C519.041 106.098 518.313 106.196 517.445 106.196C516.997 106.196 516.539 106.163 516.073 106.098C515.615 106.042 515.135 105.935 514.631 105.776V103.55Z" fill="#4A5A68"/>
<path d="M475 118C475 115.791 476.791 114 479 114H528C530.209 114 532 115.791 532 118V230H475V118Z" fill="#0079C1"/>
<path d="M475 118C475 115.791 476.791 114 479 114H528C530.209 114 532 115.791 532 118V230H475V118Z" fill="url(#paint6_linear_5397_192925)"/>
<path d="M480.62 250.936C481.273 250.936 481.796 250.759 482.188 250.404C482.589 250.049 482.79 249.522 482.79 248.822C482.79 248.15 482.585 247.646 482.174 247.31C481.763 246.965 481.245 246.792 480.62 246.792C480.265 246.792 479.943 246.843 479.654 246.946C479.365 247.049 479.117 247.184 478.912 247.352C478.707 247.52 478.548 247.711 478.436 247.926C478.324 248.141 478.268 248.365 478.268 248.598C478.268 248.925 478.319 249.228 478.422 249.508C478.525 249.788 478.674 250.035 478.87 250.25C479.066 250.465 479.309 250.633 479.598 250.754C479.897 250.875 480.237 250.936 480.62 250.936ZM480.564 252.14C479.78 252.14 479.136 251.995 478.632 251.706C478.137 251.417 477.745 251.043 477.456 250.586C477.167 250.129 476.966 249.615 476.854 249.046C476.751 248.467 476.7 247.889 476.7 247.31C476.7 246.517 476.779 245.779 476.938 245.098C477.097 244.407 477.358 243.81 477.722 243.306C478.095 242.802 478.585 242.405 479.192 242.116C479.799 241.827 480.55 241.682 481.446 241.682C481.745 241.682 482.043 241.701 482.342 241.738C482.641 241.775 482.93 241.845 483.21 241.948V243.236C482.921 243.124 482.627 243.04 482.328 242.984C482.039 242.919 481.731 242.886 481.404 242.886C480.807 242.886 480.289 242.989 479.85 243.194C479.421 243.399 479.066 243.679 478.786 244.034C478.515 244.389 478.315 244.809 478.184 245.294C478.053 245.77 477.988 246.283 477.988 246.834C478.109 246.666 478.254 246.507 478.422 246.358C478.59 246.199 478.781 246.064 478.996 245.952C479.22 245.84 479.472 245.751 479.752 245.686C480.041 245.621 480.373 245.588 480.746 245.588C481.213 245.588 481.651 245.649 482.062 245.77C482.482 245.891 482.851 246.083 483.168 246.344C483.485 246.605 483.733 246.937 483.91 247.338C484.097 247.739 484.19 248.22 484.19 248.78C484.19 249.303 484.097 249.774 483.91 250.194C483.733 250.605 483.481 250.955 483.154 251.244C482.837 251.533 482.454 251.757 482.006 251.916C481.567 252.065 481.087 252.14 480.564 252.14ZM493.992 244.37V252H492.704V245.91L490.562 250.6H489.302L487.16 246.008V252H485.872V244.37H487.706L489.988 249.438L492.256 244.37H493.992ZM495.882 250.74L497.814 249.116C498.411 248.612 498.915 248.159 499.326 247.758C499.746 247.347 500.082 246.969 500.334 246.624C500.595 246.269 500.782 245.938 500.894 245.63C501.006 245.313 501.062 245 501.062 244.692C501.062 244.104 500.88 243.656 500.516 243.348C500.152 243.04 499.601 242.886 498.864 242.886C498.416 242.886 497.982 242.947 497.562 243.068C497.142 243.18 496.722 243.343 496.302 243.558V242.298C496.759 242.083 497.202 241.929 497.632 241.836C498.07 241.733 498.504 241.682 498.934 241.682C499.475 241.682 499.965 241.752 500.404 241.892C500.842 242.023 501.211 242.219 501.51 242.48C501.818 242.732 502.051 243.045 502.21 243.418C502.378 243.782 502.462 244.193 502.462 244.65C502.462 245.042 502.392 245.429 502.252 245.812C502.121 246.185 501.902 246.582 501.594 247.002C501.295 247.413 500.898 247.856 500.404 248.332C499.918 248.808 499.316 249.34 498.598 249.928L497.59 250.754V250.796H502.602V252H495.882V250.74ZM508.557 250.936C508.967 250.936 509.322 250.866 509.621 250.726C509.919 250.586 510.167 250.357 510.363 250.04C510.559 249.713 510.703 249.298 510.797 248.794C510.89 248.281 510.937 247.651 510.937 246.904C510.937 246.139 510.885 245.499 510.783 244.986C510.689 244.473 510.545 244.062 510.349 243.754C510.153 243.437 509.905 243.213 509.607 243.082C509.308 242.951 508.958 242.886 508.557 242.886C508.193 242.886 507.861 242.951 507.563 243.082C507.273 243.213 507.026 243.432 506.821 243.74C506.615 244.048 506.457 244.463 506.345 244.986C506.233 245.499 506.177 246.139 506.177 246.904C506.177 247.66 506.228 248.299 506.331 248.822C506.443 249.335 506.597 249.751 506.793 250.068C506.998 250.376 507.245 250.6 507.535 250.74C507.833 250.871 508.174 250.936 508.557 250.936ZM508.557 252.14C507.343 252.14 506.41 251.72 505.757 250.88C505.103 250.04 504.777 248.715 504.777 246.904C504.777 245.989 504.861 245.205 505.029 244.552C505.206 243.889 505.458 243.348 505.785 242.928C506.111 242.499 506.508 242.186 506.975 241.99C507.441 241.785 507.969 241.682 508.557 241.682C509.854 241.682 510.806 242.097 511.413 242.928C512.029 243.749 512.337 245.075 512.337 246.904C512.337 247.847 512.253 248.649 512.085 249.312C511.926 249.975 511.683 250.516 511.357 250.936C511.039 251.356 510.643 251.664 510.167 251.86C509.7 252.047 509.163 252.14 508.557 252.14ZM514.093 250.74L516.025 249.116C516.622 248.612 517.126 248.159 517.537 247.758C517.957 247.347 518.293 246.969 518.545 246.624C518.806 246.269 518.993 245.938 519.105 245.63C519.217 245.313 519.273 245 519.273 244.692C519.273 244.104 519.091 243.656 518.727 243.348C518.363 243.04 517.812 242.886 517.075 242.886C516.627 242.886 516.193 242.947 515.773 243.068C515.353 243.18 514.933 243.343 514.513 243.558V242.298C514.97 242.083 515.413 241.929 515.843 241.836C516.281 241.733 516.715 241.682 517.145 241.682C517.686 241.682 518.176 241.752 518.615 241.892C519.053 242.023 519.422 242.219 519.721 242.48C520.029 242.732 520.262 243.045 520.421 243.418C520.589 243.782 520.673 244.193 520.673 244.65C520.673 245.042 520.603 245.429 520.463 245.812C520.332 246.185 520.113 246.582 519.805 247.002C519.506 247.413 519.109 247.856 518.615 248.332C518.129 248.808 517.527 249.34 516.809 249.928L515.801 250.754V250.796H520.813V252H514.093V250.74ZM522.638 250.74L524.57 249.116C525.167 248.612 525.671 248.159 526.082 247.758C526.502 247.347 526.838 246.969 527.09 246.624C527.351 246.269 527.538 245.938 527.65 245.63C527.762 245.313 527.818 245 527.818 244.692C527.818 244.104 527.636 243.656 527.272 243.348C526.908 243.04 526.357 242.886 525.62 242.886C525.172 242.886 524.738 242.947 524.318 243.068C523.898 243.18 523.478 243.343 523.058 243.558V242.298C523.515 242.083 523.958 241.929 524.388 241.836C524.826 241.733 525.26 241.682 525.69 241.682C526.231 241.682 526.721 241.752 527.16 241.892C527.598 242.023 527.967 242.219 528.266 242.48C528.574 242.732 528.807 243.045 528.966 243.418C529.134 243.782 529.218 244.193 529.218 244.65C529.218 245.042 529.148 245.429 529.007 245.812C528.877 246.185 528.658 246.582 528.35 247.002C528.051 247.413 527.654 247.856 527.16 248.332C526.674 248.808 526.072 249.34 525.354 249.928L524.346 250.754V250.796H529.358V252H522.638V250.74Z" fill="#4A5A68"/>
<rect y="228" width="532" height="2" fill="#00588D"/>
<path d="M425 159C425 159.552 425.448 160 426 160C426.552 160 427 159.552 427 159H425ZM497.707 70.7071C498.098 70.3166 498.098 69.6834 497.707 69.2929L491.343 62.9289C490.953 62.5384 490.319 62.5384 489.929 62.9289C489.538 63.3195 489.538 63.9526 489.929 64.3431L495.586 70L489.929 75.6569C489.538 76.0474 489.538 76.6805 489.929 77.0711C490.319 77.4616 490.953 77.4616 491.343 77.0711L497.707 70.7071ZM427 159V74H425V159H427ZM430 71H497V69H430V71ZM427 74C427 72.3431 428.343 71 430 71V69C427.239 69 425 71.2386 425 74H427Z" fill="#6A7E95"/>
<rect x="437" y="58" width="41" height="24" rx="12" fill="white"/>
<path d="M445.6 73.92L447.256 72.528C447.768 72.096 448.2 71.708 448.552 71.364C448.912 71.012 449.2 70.688 449.416 70.392C449.64 70.088 449.8 69.804 449.896 69.54C449.992 69.268 450.04 69 450.04 68.736C450.04 68.232 449.884 67.848 449.572 67.584C449.26 67.32 448.788 67.188 448.156 67.188C447.772 67.188 447.4 67.24 447.04 67.344C446.68 67.44 446.32 67.58 445.96 67.764V66.684C446.352 66.5 446.732 66.368 447.1 66.288C447.476 66.2 447.848 66.156 448.216 66.156C448.68 66.156 449.1 66.216 449.476 66.336C449.852 66.448 450.168 66.616 450.424 66.84C450.688 67.056 450.888 67.324 451.024 67.644C451.168 67.956 451.24 68.308 451.24 68.7C451.24 69.036 451.18 69.368 451.06 69.696C450.948 70.016 450.76 70.356 450.496 70.716C450.24 71.068 449.9 71.448 449.476 71.856C449.06 72.264 448.544 72.72 447.928 73.224L447.064 73.932V73.968H451.36V75H445.6V73.92ZM452.96 76.464C453.32 76.312 453.612 76.136 453.836 75.936C454.06 75.736 454.2 75.464 454.256 75.12C453.96 75.128 453.728 75.056 453.56 74.904C453.4 74.744 453.32 74.536 453.32 74.28C453.32 74.024 453.396 73.824 453.548 73.68C453.708 73.528 453.924 73.452 454.196 73.452C454.484 73.452 454.72 73.552 454.904 73.752C455.096 73.952 455.192 74.268 455.192 74.7C455.192 74.94 455.16 75.184 455.096 75.432C455.032 75.68 454.924 75.912 454.772 76.128C454.628 76.352 454.436 76.552 454.196 76.728C453.956 76.912 453.664 77.056 453.32 77.16L452.96 76.464ZM460.743 67.308H456.399V66.276H461.979V67.188L458.607 75H457.431L460.743 67.308ZM469.114 75H467.782L465.97 72.432L464.182 75H462.874L465.358 71.58L463.114 68.46H464.446L466.078 70.788L467.65 68.46H468.886L466.678 71.58L469.114 75Z" fill="#4A5A68"/>
<rect x="437" y="58" width="41" height="24" rx="12" stroke="#6A7E95" stroke-width="2"/>
<path d="M379.5 222.5V56" stroke="#6A7E95" stroke-width="2" stroke-dasharray="4 4"/>
<path d="M27 192C27 192.552 27.4477 193 28 193C28.5523 193 29 192.552 29 192H27ZM331.707 13.7071C332.098 13.3166 332.098 12.6834 331.707 12.2929L325.343 5.92893C324.953 5.53841 324.319 5.53841 323.929 5.92893C323.538 6.31946 323.538 6.95262 323.929 7.34315L329.586 13L323.929 18.6569C323.538 19.0474 323.538 19.6805 323.929 20.0711C324.319 20.4616 324.953 20.4616 325.343 20.0711L331.707 13.7071ZM29 192V17H27V192H29ZM32 14H331V12H32V14ZM29 17C29 15.3431 30.3431 14 32 14V12C29.2386 12 27 14.2386 27 17H29Z" fill="#6A7E95"/>
<rect x="156" y="1" width="48" height="24" rx="12" fill="white"/>
<path d="M166.568 10.62L165.2 11.472L164.66 10.62L166.808 9.276H167.72V18H166.568V10.62ZM174.963 14.964V10.32H174.939L171.615 14.964H174.963ZM174.963 15.996H170.355V15.036L174.483 9.276H176.115V14.964H177.255V15.996H176.115V18H174.963V15.996ZM178.37 19.464C178.73 19.312 179.022 19.136 179.246 18.936C179.47 18.736 179.61 18.464 179.666 18.12C179.37 18.128 179.138 18.056 178.97 17.904C178.81 17.744 178.73 17.536 178.73 17.28C178.73 17.024 178.806 16.824 178.958 16.68C179.118 16.528 179.334 16.452 179.606 16.452C179.894 16.452 180.13 16.552 180.314 16.752C180.506 16.952 180.602 17.268 180.602 17.7C180.602 17.94 180.57 18.184 180.506 18.432C180.442 18.68 180.334 18.912 180.182 19.128C180.038 19.352 179.846 19.552 179.606 19.728C179.366 19.912 179.074 20.056 178.73 20.16L178.37 19.464ZM184.413 18.12C184.149 18.12 183.889 18.104 183.633 18.072C183.377 18.04 183.129 17.98 182.889 17.892V16.788C183.137 16.884 183.389 16.96 183.645 17.016C183.901 17.064 184.177 17.088 184.473 17.088C184.977 17.088 185.409 17.012 185.769 16.86C186.137 16.7 186.437 16.472 186.669 16.176C186.909 15.88 187.085 15.52 187.197 15.096C187.309 14.672 187.365 14.192 187.365 13.656C187.173 13.984 186.889 14.26 186.513 14.484C186.137 14.708 185.633 14.82 185.001 14.82C184.601 14.82 184.221 14.768 183.861 14.664C183.501 14.552 183.185 14.384 182.913 14.16C182.649 13.928 182.437 13.636 182.277 13.284C182.125 12.932 182.049 12.516 182.049 12.036C182.049 11.588 182.125 11.188 182.277 10.836C182.437 10.476 182.653 10.172 182.925 9.924C183.205 9.676 183.533 9.488 183.909 9.36C184.293 9.224 184.709 9.156 185.157 9.156C185.829 9.156 186.377 9.272 186.801 9.504C187.233 9.728 187.573 10.032 187.821 10.416C188.069 10.8 188.237 11.248 188.325 11.76C188.421 12.264 188.469 12.796 188.469 13.356C188.469 14.036 188.401 14.668 188.265 15.252C188.129 15.828 187.901 16.332 187.581 16.764C187.269 17.188 186.853 17.52 186.333 17.76C185.821 18 185.181 18.12 184.413 18.12ZM185.109 13.788C185.413 13.788 185.689 13.744 185.937 13.656C186.193 13.568 186.409 13.452 186.585 13.308C186.761 13.156 186.897 12.98 186.993 12.78C187.089 12.58 187.137 12.368 187.137 12.144C187.137 11.552 186.965 11.08 186.621 10.728C186.285 10.368 185.785 10.188 185.121 10.188C184.561 10.188 184.109 10.34 183.765 10.644C183.421 10.948 183.249 11.4 183.249 12C183.249 12.576 183.421 13.02 183.765 13.332C184.109 13.636 184.557 13.788 185.109 13.788ZM195.673 18H194.341L192.529 15.432L190.741 18H189.433L191.917 14.58L189.673 11.46H191.005L192.637 13.788L194.209 11.46H195.445L193.237 14.58L195.673 18Z" fill="#4A5A68"/>
<rect x="156" y="1" width="48" height="24" rx="12" stroke="#6A7E95" stroke-width="2"/>
<defs>
<linearGradient id="paint0_linear_5397_192925" x1="11.2" y1="213.813" x2="11.2" y2="226.54" gradientUnits="userSpaceOnUse">
<stop stop-color="#049DF9"/>
<stop offset="1" stop-color="#0484D1"/>
</linearGradient>
<linearGradient id="paint1_linear_5397_192925" x1="87.2" y1="197.625" x2="87.2" y2="223.08" gradientUnits="userSpaceOnUse">
<stop stop-color="#049DF9"/>
<stop offset="1" stop-color="#0484D1"/>
</linearGradient>
<linearGradient id="paint2_linear_5397_192925" x1="163.2" y1="132.875" x2="163.2" y2="209.239" gradientUnits="userSpaceOnUse">
<stop stop-color="#049DF9"/>
<stop offset="1" stop-color="#0484D1"/>
</linearGradient>
<linearGradient id="paint3_linear_5397_192925" x1="239.2" y1="56.5625" x2="239.2" y2="192.926" gradientUnits="userSpaceOnUse">
<stop stop-color="#049DF9"/>
<stop offset="1" stop-color="#0484D1"/>
</linearGradient>
<linearGradient id="paint4_linear_5397_192925" x1="315.2" y1="26.5" x2="315.2" y2="186.5" gradientUnits="userSpaceOnUse">
<stop stop-color="#049DF9"/>
<stop offset="1" stop-color="#0484D1"/>
</linearGradient>
<linearGradient id="paint5_linear_5397_192925" x1="409.2" y1="182.594" x2="409.2" y2="219.866" gradientUnits="userSpaceOnUse">
<stop stop-color="#049DF9"/>
<stop offset="1" stop-color="#0484D1"/>
</linearGradient>
<linearGradient id="paint6_linear_5397_192925" x1="486.4" y1="95.875" x2="486.4" y2="201.33" gradientUnits="userSpaceOnUse">
<stop stop-color="#049DF9"/>
<stop offset="1" stop-color="#0484D1"/>
</linearGradient>
</defs>
</svg>
