<svg width="532" height="256" viewBox="0 0 532 256" fill="none" xmlns="http://www.w3.org/2000/svg">
<path d="M28.67 211.73V208.006H28.642L25.772 211.73H28.67ZM31.274 216H28.628V213.97H23.49V211.8L28.096 205.822H31.274V211.73H32.66V213.97H31.274V216Z" fill="#4A5A68"/>
<path d="M12.7 250.74L14.632 249.116C15.2293 248.612 15.7333 248.159 16.144 247.758C16.564 247.347 16.9 246.969 17.152 246.624C17.4133 246.269 17.6 245.938 17.712 245.63C17.824 245.313 17.88 245 17.88 244.692C17.88 244.104 17.698 243.656 17.334 243.348C16.97 243.04 16.4193 242.886 15.682 242.886C15.234 242.886 14.8 242.947 14.38 243.068C13.96 243.18 13.54 243.343 13.12 243.558V242.298C13.5773 242.083 14.0207 241.929 14.45 241.836C14.8887 241.733 15.3227 241.682 15.752 241.682C16.2933 241.682 16.7833 241.752 17.222 241.892C17.6607 242.023 18.0293 242.219 18.328 242.48C18.636 242.732 18.8693 243.045 19.028 243.418C19.196 243.782 19.28 244.193 19.28 244.65C19.28 245.042 19.21 245.429 19.07 245.812C18.9393 246.185 18.72 246.582 18.412 247.002C18.1133 247.413 17.7167 247.856 17.222 248.332C16.7367 248.808 16.1347 249.34 15.416 249.928L14.408 250.754V250.796H19.42V252H12.7V250.74ZM25.3749 250.936C25.7856 250.936 26.1403 250.866 26.4389 250.726C26.7376 250.586 26.9849 250.357 27.1809 250.04C27.3769 249.713 27.5216 249.298 27.6149 248.794C27.7083 248.281 27.7549 247.651 27.7549 246.904C27.7549 246.139 27.7036 245.499 27.6009 244.986C27.5076 244.473 27.3629 244.062 27.1669 243.754C26.9709 243.437 26.7236 243.213 26.4249 243.082C26.1263 242.951 25.7763 242.886 25.3749 242.886C25.0109 242.886 24.6796 242.951 24.3809 243.082C24.0916 243.213 23.8443 243.432 23.6389 243.74C23.4336 244.048 23.2749 244.463 23.1629 244.986C23.0509 245.499 22.9949 246.139 22.9949 246.904C22.9949 247.66 23.0463 248.299 23.1489 248.822C23.2609 249.335 23.4149 249.751 23.6109 250.068C23.8163 250.376 24.0636 250.6 24.3529 250.74C24.6516 250.871 24.9923 250.936 25.3749 250.936ZM25.3749 252.14C24.1616 252.14 23.2283 251.72 22.5749 250.88C21.9216 250.04 21.5949 248.715 21.5949 246.904C21.5949 245.989 21.6789 245.205 21.8469 244.552C22.0243 243.889 22.2763 243.348 22.6029 242.928C22.9296 242.499 23.3263 242.186 23.7929 241.99C24.2596 241.785 24.7869 241.682 25.3749 241.682C26.6723 241.682 27.6243 242.097 28.2309 242.928C28.8469 243.749 29.1549 245.075 29.1549 246.904C29.1549 247.847 29.0709 248.649 28.9029 249.312C28.7443 249.975 28.5016 250.516 28.1749 250.936C27.8576 251.356 27.4609 251.664 26.9849 251.86C26.5183 252.047 25.9816 252.14 25.3749 252.14ZM33.2069 243.39L31.6109 244.384L30.9809 243.39L33.4869 241.822H34.5509V252H33.2069V243.39ZM42.3435 243.026H37.2755V241.822H43.7855V242.886L39.8515 252H38.4795L42.3435 243.026Z" fill="#4A5A68"/>
<path d="M103.67 211.73V208.006H103.642L100.772 211.73H103.67ZM106.274 216H103.628V213.97H98.49V211.8L103.096 205.822H106.274V211.73H107.66V213.97H106.274V216Z" fill="#4A5A68"/>
<path d="M87.7 250.74L89.632 249.116C90.2293 248.612 90.7333 248.159 91.144 247.758C91.564 247.347 91.9 246.969 92.152 246.624C92.4133 246.269 92.6 245.938 92.712 245.63C92.824 245.313 92.88 245 92.88 244.692C92.88 244.104 92.698 243.656 92.334 243.348C91.97 243.04 91.4193 242.886 90.682 242.886C90.234 242.886 89.8 242.947 89.38 243.068C88.96 243.18 88.54 243.343 88.12 243.558V242.298C88.5773 242.083 89.0207 241.929 89.45 241.836C89.8887 241.733 90.3227 241.682 90.752 241.682C91.2933 241.682 91.7833 241.752 92.222 241.892C92.6607 242.023 93.0293 242.219 93.328 242.48C93.636 242.732 93.8693 243.045 94.028 243.418C94.196 243.782 94.28 244.193 94.28 244.65C94.28 245.042 94.21 245.429 94.07 245.812C93.9393 246.185 93.72 246.582 93.412 247.002C93.1133 247.413 92.7167 247.856 92.222 248.332C91.7367 248.808 91.1347 249.34 90.416 249.928L89.408 250.754V250.796H94.42V252H87.7V250.74ZM100.375 250.936C100.786 250.936 101.14 250.866 101.439 250.726C101.738 250.586 101.985 250.357 102.181 250.04C102.377 249.713 102.522 249.298 102.615 248.794C102.708 248.281 102.755 247.651 102.755 246.904C102.755 246.139 102.704 245.499 102.601 244.986C102.508 244.473 102.363 244.062 102.167 243.754C101.971 243.437 101.724 243.213 101.425 243.082C101.126 242.951 100.776 242.886 100.375 242.886C100.011 242.886 99.6796 242.951 99.3809 243.082C99.0916 243.213 98.8443 243.432 98.6389 243.74C98.4336 244.048 98.2749 244.463 98.1629 244.986C98.0509 245.499 97.9949 246.139 97.9949 246.904C97.9949 247.66 98.0463 248.299 98.1489 248.822C98.2609 249.335 98.4149 249.751 98.6109 250.068C98.8163 250.376 99.0636 250.6 99.3529 250.74C99.6516 250.871 99.9923 250.936 100.375 250.936ZM100.375 252.14C99.1616 252.14 98.2283 251.72 97.5749 250.88C96.9216 250.04 96.5949 248.715 96.5949 246.904C96.5949 245.989 96.6789 245.205 96.8469 244.552C97.0243 243.889 97.2763 243.348 97.6029 242.928C97.9296 242.499 98.3263 242.186 98.7929 241.99C99.2596 241.785 99.7869 241.682 100.375 241.682C101.672 241.682 102.624 242.097 103.231 242.928C103.847 243.749 104.155 245.075 104.155 246.904C104.155 247.847 104.071 248.649 103.903 249.312C103.744 249.975 103.502 250.516 103.175 250.936C102.858 251.356 102.461 251.664 101.985 251.86C101.518 252.047 100.982 252.14 100.375 252.14ZM108.207 243.39L106.611 244.384L105.981 243.39L108.487 241.822H109.551V252H108.207V243.39ZM116.447 252.14C115.925 252.14 115.435 252.084 114.977 251.972C114.529 251.851 114.133 251.673 113.787 251.44C113.451 251.207 113.185 250.913 112.989 250.558C112.793 250.194 112.695 249.774 112.695 249.298C112.695 248.598 112.896 248.043 113.297 247.632C113.708 247.212 114.277 246.895 115.005 246.68C114.352 246.391 113.848 246.055 113.493 245.672C113.139 245.28 112.961 244.767 112.961 244.132C112.961 243.74 113.041 243.395 113.199 243.096C113.367 242.788 113.601 242.531 113.899 242.326C114.207 242.111 114.571 241.953 114.991 241.85C115.421 241.738 115.897 241.682 116.419 241.682C116.895 241.682 117.339 241.729 117.749 241.822C118.16 241.906 118.515 242.046 118.813 242.242C119.121 242.429 119.359 242.671 119.527 242.97C119.705 243.269 119.793 243.628 119.793 244.048C119.793 244.683 119.625 245.191 119.289 245.574C118.963 245.957 118.473 246.288 117.819 246.568C118.659 246.839 119.252 247.184 119.597 247.604C119.943 248.015 120.115 248.561 120.115 249.242C120.115 249.69 120.027 250.091 119.849 250.446C119.681 250.801 119.434 251.104 119.107 251.356C118.79 251.608 118.403 251.804 117.945 251.944C117.497 252.075 116.998 252.14 116.447 252.14ZM116.517 250.936C117.189 250.936 117.731 250.791 118.141 250.502C118.561 250.203 118.771 249.774 118.771 249.214C118.771 248.906 118.697 248.645 118.547 248.43C118.407 248.206 118.216 248.019 117.973 247.87C117.74 247.711 117.469 247.576 117.161 247.464C116.853 247.352 116.531 247.249 116.195 247.156C115.915 247.249 115.645 247.357 115.383 247.478C115.131 247.59 114.903 247.73 114.697 247.898C114.501 248.057 114.343 248.239 114.221 248.444C114.1 248.649 114.039 248.887 114.039 249.158C114.039 249.671 114.24 250.096 114.641 250.432C115.052 250.768 115.677 250.936 116.517 250.936ZM116.685 246.176C117.348 245.887 117.805 245.583 118.057 245.266C118.319 244.939 118.449 244.603 118.449 244.258C118.449 244.006 118.398 243.796 118.295 243.628C118.193 243.451 118.048 243.311 117.861 243.208C117.675 243.096 117.451 243.017 117.189 242.97C116.937 242.914 116.653 242.886 116.335 242.886C115.663 242.886 115.155 243.012 114.809 243.264C114.473 243.516 114.305 243.838 114.305 244.23C114.305 244.501 114.371 244.734 114.501 244.93C114.632 245.126 114.805 245.303 115.019 245.462C115.234 245.611 115.486 245.747 115.775 245.868C116.065 245.98 116.368 246.083 116.685 246.176Z" fill="#4A5A68"/>
<path d="M172.95 177H170.318V169.594L168.4 170.77L167.35 168.936L170.752 166.822H172.95V177ZM179.059 168.628C178.593 168.628 178.219 168.763 177.939 169.034C177.659 169.305 177.519 169.678 177.519 170.154C177.519 170.63 177.655 171.008 177.925 171.288C178.205 171.559 178.565 171.694 179.003 171.694C179.246 171.694 179.465 171.652 179.661 171.568C179.867 171.484 180.039 171.372 180.179 171.232C180.329 171.083 180.441 170.91 180.515 170.714C180.599 170.518 180.641 170.313 180.641 170.098C180.641 169.678 180.497 169.328 180.207 169.048C179.918 168.768 179.535 168.628 179.059 168.628ZM175.741 174.662C176.096 174.774 176.46 174.853 176.833 174.9C177.207 174.947 177.613 174.97 178.051 174.97C178.434 174.97 178.793 174.923 179.129 174.83C179.475 174.737 179.778 174.592 180.039 174.396C180.301 174.2 180.506 173.948 180.655 173.64C180.805 173.332 180.879 172.959 180.879 172.52C180.767 172.632 180.632 172.744 180.473 172.856C180.324 172.968 180.147 173.071 179.941 173.164C179.745 173.248 179.512 173.323 179.241 173.388C178.98 173.444 178.681 173.472 178.345 173.472C177.841 173.472 177.37 173.402 176.931 173.262C176.502 173.113 176.124 172.898 175.797 172.618C175.48 172.338 175.228 171.997 175.041 171.596C174.864 171.185 174.775 170.714 174.775 170.182C174.775 169.631 174.878 169.137 175.083 168.698C175.289 168.259 175.578 167.886 175.951 167.578C176.325 167.27 176.773 167.037 177.295 166.878C177.818 166.71 178.397 166.626 179.031 166.626C179.825 166.626 180.497 166.752 181.047 167.004C181.607 167.256 182.06 167.601 182.405 168.04C182.751 168.479 182.998 169.006 183.147 169.622C183.306 170.229 183.385 170.887 183.385 171.596C183.385 172.343 183.297 173.057 183.119 173.738C182.951 174.41 182.662 175.003 182.251 175.516C181.85 176.029 181.318 176.44 180.655 176.748C179.993 177.047 179.171 177.196 178.191 177.196C177.902 177.196 177.543 177.177 177.113 177.14C176.693 177.103 176.236 177.023 175.741 176.902V174.662ZM184.581 174.452C185.141 174.648 185.641 174.783 186.079 174.858C186.518 174.923 186.933 174.956 187.325 174.956C188.081 174.956 188.618 174.858 188.935 174.662C189.262 174.457 189.425 174.177 189.425 173.822C189.425 173.486 189.281 173.239 188.991 173.08C188.702 172.921 188.249 172.842 187.633 172.842H185.827V170.812H187.479C188.609 170.812 189.173 170.49 189.173 169.846C189.173 169.529 189.029 169.286 188.739 169.118C188.45 168.95 187.969 168.866 187.297 168.866C186.821 168.866 186.364 168.908 185.925 168.992C185.496 169.076 185.109 169.183 184.763 169.314V167.074C185.295 166.915 185.837 166.803 186.387 166.738C186.938 166.663 187.47 166.626 187.983 166.626C188.786 166.626 189.444 166.705 189.957 166.864C190.471 167.023 190.877 167.228 191.175 167.48C191.474 167.732 191.679 168.021 191.791 168.348C191.903 168.665 191.959 168.987 191.959 169.314C191.959 170.583 191.255 171.386 189.845 171.722V171.764C190.293 171.829 190.667 171.932 190.965 172.072C191.264 172.203 191.507 172.371 191.693 172.576C191.88 172.772 192.011 173.001 192.085 173.262C192.169 173.514 192.211 173.785 192.211 174.074C192.211 174.513 192.127 174.923 191.959 175.306C191.791 175.679 191.53 176.006 191.175 176.286C190.821 176.566 190.363 176.79 189.803 176.958C189.253 177.117 188.595 177.196 187.829 177.196C187.381 177.196 186.873 177.163 186.303 177.098C185.743 177.033 185.169 176.911 184.581 176.734V174.452Z" fill="#4A5A68"/>
<path d="M152 196C152 193.791 153.791 192 156 192H204C206.209 192 208 193.791 208 196V230H152V196Z" fill="#0079C1"/>
<path d="M152 196C152 193.791 153.791 192 156 192H204C206.209 192 208 193.791 208 196V230H152V196Z" fill="url(#paint0_linear_5397_192969)"/>
<path d="M163.7 250.74L165.632 249.116C166.229 248.612 166.733 248.159 167.144 247.758C167.564 247.347 167.9 246.969 168.152 246.624C168.413 246.269 168.6 245.938 168.712 245.63C168.824 245.313 168.88 245 168.88 244.692C168.88 244.104 168.698 243.656 168.334 243.348C167.97 243.04 167.419 242.886 166.682 242.886C166.234 242.886 165.8 242.947 165.38 243.068C164.96 243.18 164.54 243.343 164.12 243.558V242.298C164.577 242.083 165.021 241.929 165.45 241.836C165.889 241.733 166.323 241.682 166.752 241.682C167.293 241.682 167.783 241.752 168.222 241.892C168.661 242.023 169.029 242.219 169.328 242.48C169.636 242.732 169.869 243.045 170.028 243.418C170.196 243.782 170.28 244.193 170.28 244.65C170.28 245.042 170.21 245.429 170.07 245.812C169.939 246.185 169.72 246.582 169.412 247.002C169.113 247.413 168.717 247.856 168.222 248.332C167.737 248.808 167.135 249.34 166.416 249.928L165.408 250.754V250.796H170.42V252H163.7V250.74ZM176.375 250.936C176.786 250.936 177.14 250.866 177.439 250.726C177.738 250.586 177.985 250.357 178.181 250.04C178.377 249.713 178.522 249.298 178.615 248.794C178.708 248.281 178.755 247.651 178.755 246.904C178.755 246.139 178.704 245.499 178.601 244.986C178.508 244.473 178.363 244.062 178.167 243.754C177.971 243.437 177.724 243.213 177.425 243.082C177.126 242.951 176.776 242.886 176.375 242.886C176.011 242.886 175.68 242.951 175.381 243.082C175.092 243.213 174.844 243.432 174.639 243.74C174.434 244.048 174.275 244.463 174.163 244.986C174.051 245.499 173.995 246.139 173.995 246.904C173.995 247.66 174.046 248.299 174.149 248.822C174.261 249.335 174.415 249.751 174.611 250.068C174.816 250.376 175.064 250.6 175.353 250.74C175.652 250.871 175.992 250.936 176.375 250.936ZM176.375 252.14C175.162 252.14 174.228 251.72 173.575 250.88C172.922 250.04 172.595 248.715 172.595 246.904C172.595 245.989 172.679 245.205 172.847 244.552C173.024 243.889 173.276 243.348 173.603 242.928C173.93 242.499 174.326 242.186 174.793 241.99C175.26 241.785 175.787 241.682 176.375 241.682C177.672 241.682 178.624 242.097 179.231 242.928C179.847 243.749 180.155 245.075 180.155 246.904C180.155 247.847 180.071 248.649 179.903 249.312C179.744 249.975 179.502 250.516 179.175 250.936C178.858 251.356 178.461 251.664 177.985 251.86C177.518 252.047 176.982 252.14 176.375 252.14ZM184.207 243.39L182.611 244.384L181.981 243.39L184.487 241.822H185.551V252H184.207V243.39ZM191.313 252.14C191.005 252.14 190.702 252.121 190.403 252.084C190.105 252.047 189.815 251.977 189.535 251.874V250.586C189.825 250.698 190.119 250.787 190.417 250.852C190.716 250.908 191.038 250.936 191.383 250.936C191.971 250.936 192.475 250.847 192.895 250.67C193.325 250.483 193.675 250.217 193.945 249.872C194.225 249.527 194.431 249.107 194.561 248.612C194.692 248.117 194.757 247.557 194.757 246.932C194.533 247.315 194.202 247.637 193.763 247.898C193.325 248.159 192.737 248.29 191.999 248.29C191.533 248.29 191.089 248.229 190.669 248.108C190.249 247.977 189.881 247.781 189.563 247.52C189.255 247.249 189.008 246.909 188.821 246.498C188.644 246.087 188.555 245.602 188.555 245.042C188.555 244.519 188.644 244.053 188.821 243.642C189.008 243.222 189.26 242.867 189.577 242.578C189.904 242.289 190.287 242.069 190.725 241.92C191.173 241.761 191.659 241.682 192.181 241.682C192.965 241.682 193.605 241.817 194.099 242.088C194.603 242.349 195 242.704 195.289 243.152C195.579 243.6 195.775 244.123 195.877 244.72C195.989 245.308 196.045 245.929 196.045 246.582C196.045 247.375 195.966 248.113 195.807 248.794C195.649 249.466 195.383 250.054 195.009 250.558C194.645 251.053 194.16 251.44 193.553 251.72C192.956 252 192.209 252.14 191.313 252.14ZM192.125 247.086C192.48 247.086 192.802 247.035 193.091 246.932C193.39 246.829 193.642 246.694 193.847 246.526C194.053 246.349 194.211 246.143 194.323 245.91C194.435 245.677 194.491 245.429 194.491 245.168C194.491 244.477 194.291 243.927 193.889 243.516C193.497 243.096 192.914 242.886 192.139 242.886C191.486 242.886 190.959 243.063 190.557 243.418C190.156 243.773 189.955 244.3 189.955 245C189.955 245.672 190.156 246.19 190.557 246.554C190.959 246.909 191.481 247.086 192.125 247.086Z" fill="#4A5A68"/>
<path d="M242.95 72H240.318V64.594L238.4 65.77L237.35 63.936L240.752 61.822H242.95V72ZM256.115 72H248.345V69.69L249.969 68.64C250.52 68.2853 250.996 67.9587 251.397 67.66C251.799 67.3613 252.13 67.0767 252.391 66.806C252.662 66.5353 252.863 66.274 252.993 66.022C253.124 65.77 253.189 65.5087 253.189 65.238C253.189 64.8553 253.04 64.5473 252.741 64.314C252.452 64.0807 251.948 63.964 251.229 63.964C250.772 63.964 250.319 64.0153 249.871 64.118C249.433 64.2113 249.027 64.342 248.653 64.51V62.13C249.269 61.934 249.848 61.8033 250.389 61.738C250.94 61.6633 251.481 61.626 252.013 61.626C252.797 61.626 253.446 61.7147 253.959 61.892C254.482 62.06 254.897 62.2887 255.205 62.578C255.513 62.858 255.728 63.18 255.849 63.544C255.98 63.908 256.045 64.2813 256.045 64.664C256.045 65.1213 255.961 65.5553 255.793 65.966C255.635 66.3673 255.397 66.7593 255.079 67.142C254.762 67.5153 254.365 67.8887 253.889 68.262C253.423 68.626 252.881 68.9993 252.265 69.382L251.677 69.746V69.76H256.115V72ZM262.481 67.73V64.006H262.453L259.583 67.73H262.481ZM265.085 72H262.439V69.97H257.301V67.8L261.907 61.822H265.085V67.73H266.471V69.97H265.085V72ZM271.591 63.628C271.124 63.628 270.751 63.7633 270.471 64.034C270.191 64.3047 270.051 64.678 270.051 65.154C270.051 65.63 270.186 66.008 270.457 66.288C270.737 66.5587 271.096 66.694 271.535 66.694C271.777 66.694 271.997 66.652 272.193 66.568C272.398 66.484 272.571 66.372 272.711 66.232C272.86 66.0827 272.972 65.91 273.047 65.714C273.131 65.518 273.173 65.3127 273.173 65.098C273.173 64.678 273.028 64.328 272.739 64.048C272.449 63.768 272.067 63.628 271.591 63.628ZM268.273 69.662C268.627 69.774 268.991 69.8533 269.365 69.9C269.738 69.9467 270.144 69.97 270.583 69.97C270.965 69.97 271.325 69.9233 271.661 69.83C272.006 69.7367 272.309 69.592 272.571 69.396C272.832 69.2 273.037 68.948 273.187 68.64C273.336 68.332 273.411 67.9587 273.411 67.52C273.299 67.632 273.163 67.744 273.005 67.856C272.855 67.968 272.678 68.0707 272.473 68.164C272.277 68.248 272.043 68.3227 271.773 68.388C271.511 68.444 271.213 68.472 270.877 68.472C270.373 68.472 269.901 68.402 269.463 68.262C269.033 68.1127 268.655 67.898 268.329 67.618C268.011 67.338 267.759 66.9973 267.573 66.596C267.395 66.1853 267.307 65.714 267.307 65.182C267.307 64.6313 267.409 64.1367 267.615 63.698C267.82 63.2593 268.109 62.886 268.483 62.578C268.856 62.27 269.304 62.0367 269.827 61.878C270.349 61.71 270.928 61.626 271.563 61.626C272.356 61.626 273.028 61.752 273.579 62.004C274.139 62.256 274.591 62.6013 274.937 63.04C275.282 63.4787 275.529 64.006 275.679 64.622C275.837 65.2287 275.917 65.8867 275.917 66.596C275.917 67.3427 275.828 68.0567 275.651 68.738C275.483 69.41 275.193 70.0027 274.783 70.516C274.381 71.0293 273.849 71.44 273.187 71.748C272.524 72.0467 271.703 72.196 270.723 72.196C270.433 72.196 270.074 72.1773 269.645 72.14C269.225 72.1027 268.767 72.0233 268.273 71.902V69.662Z" fill="#4A5A68"/>
<path d="M228 84C228 81.7909 229.791 80 232 80H280C282.209 80 284 81.7909 284 84V230H228V84Z" fill="#0079C1"/>
<path d="M228 84C228 81.7909 229.791 80 232 80H280C282.209 80 284 81.7909 284 84V230H228V84Z" fill="url(#paint1_linear_5397_192969)"/>
<path d="M238.7 250.74L240.632 249.116C241.229 248.612 241.733 248.159 242.144 247.758C242.564 247.347 242.9 246.969 243.152 246.624C243.413 246.269 243.6 245.938 243.712 245.63C243.824 245.313 243.88 245 243.88 244.692C243.88 244.104 243.698 243.656 243.334 243.348C242.97 243.04 242.419 242.886 241.682 242.886C241.234 242.886 240.8 242.947 240.38 243.068C239.96 243.18 239.54 243.343 239.12 243.558V242.298C239.577 242.083 240.021 241.929 240.45 241.836C240.889 241.733 241.323 241.682 241.752 241.682C242.293 241.682 242.783 241.752 243.222 241.892C243.661 242.023 244.029 242.219 244.328 242.48C244.636 242.732 244.869 243.045 245.028 243.418C245.196 243.782 245.28 244.193 245.28 244.65C245.28 245.042 245.21 245.429 245.07 245.812C244.939 246.185 244.72 246.582 244.412 247.002C244.113 247.413 243.717 247.856 243.222 248.332C242.737 248.808 242.135 249.34 241.416 249.928L240.408 250.754V250.796H245.42V252H238.7V250.74ZM251.375 250.936C251.786 250.936 252.14 250.866 252.439 250.726C252.738 250.586 252.985 250.357 253.181 250.04C253.377 249.713 253.522 249.298 253.615 248.794C253.708 248.281 253.755 247.651 253.755 246.904C253.755 246.139 253.704 245.499 253.601 244.986C253.508 244.473 253.363 244.062 253.167 243.754C252.971 243.437 252.724 243.213 252.425 243.082C252.126 242.951 251.776 242.886 251.375 242.886C251.011 242.886 250.68 242.951 250.381 243.082C250.092 243.213 249.844 243.432 249.639 243.74C249.434 244.048 249.275 244.463 249.163 244.986C249.051 245.499 248.995 246.139 248.995 246.904C248.995 247.66 249.046 248.299 249.149 248.822C249.261 249.335 249.415 249.751 249.611 250.068C249.816 250.376 250.064 250.6 250.353 250.74C250.652 250.871 250.992 250.936 251.375 250.936ZM251.375 252.14C250.162 252.14 249.228 251.72 248.575 250.88C247.922 250.04 247.595 248.715 247.595 246.904C247.595 245.989 247.679 245.205 247.847 244.552C248.024 243.889 248.276 243.348 248.603 242.928C248.93 242.499 249.326 242.186 249.793 241.99C250.26 241.785 250.787 241.682 251.375 241.682C252.672 241.682 253.624 242.097 254.231 242.928C254.847 243.749 255.155 245.075 255.155 246.904C255.155 247.847 255.071 248.649 254.903 249.312C254.744 249.975 254.502 250.516 254.175 250.936C253.858 251.356 253.461 251.664 252.985 251.86C252.518 252.047 251.982 252.14 251.375 252.14ZM256.911 250.74L258.843 249.116C259.44 248.612 259.944 248.159 260.355 247.758C260.775 247.347 261.111 246.969 261.363 246.624C261.624 246.269 261.811 245.938 261.923 245.63C262.035 245.313 262.091 245 262.091 244.692C262.091 244.104 261.909 243.656 261.545 243.348C261.181 243.04 260.63 242.886 259.893 242.886C259.445 242.886 259.011 242.947 258.591 243.068C258.171 243.18 257.751 243.343 257.331 243.558V242.298C257.788 242.083 258.232 241.929 258.661 241.836C259.1 241.733 259.534 241.682 259.963 241.682C260.504 241.682 260.994 241.752 261.433 241.892C261.872 242.023 262.24 242.219 262.539 242.48C262.847 242.732 263.08 243.045 263.239 243.418C263.407 243.782 263.491 244.193 263.491 244.65C263.491 245.042 263.421 245.429 263.281 245.812C263.15 246.185 262.931 246.582 262.623 247.002C262.324 247.413 261.928 247.856 261.433 248.332C260.948 248.808 260.346 249.34 259.627 249.928L258.619 250.754V250.796H263.631V252H256.911V250.74ZM269.586 250.936C269.997 250.936 270.351 250.866 270.65 250.726C270.949 250.586 271.196 250.357 271.392 250.04C271.588 249.713 271.733 249.298 271.826 248.794C271.919 248.281 271.966 247.651 271.966 246.904C271.966 246.139 271.915 245.499 271.812 244.986C271.719 244.473 271.574 244.062 271.378 243.754C271.182 243.437 270.935 243.213 270.636 243.082C270.337 242.951 269.987 242.886 269.586 242.886C269.222 242.886 268.891 242.951 268.592 243.082C268.303 243.213 268.055 243.432 267.85 243.74C267.645 244.048 267.486 244.463 267.374 244.986C267.262 245.499 267.206 246.139 267.206 246.904C267.206 247.66 267.257 248.299 267.36 248.822C267.472 249.335 267.626 249.751 267.822 250.068C268.027 250.376 268.275 250.6 268.564 250.74C268.863 250.871 269.203 250.936 269.586 250.936ZM269.586 252.14C268.373 252.14 267.439 251.72 266.786 250.88C266.133 250.04 265.806 248.715 265.806 246.904C265.806 245.989 265.89 245.205 266.058 244.552C266.235 243.889 266.487 243.348 266.814 242.928C267.141 242.499 267.537 242.186 268.004 241.99C268.471 241.785 268.998 241.682 269.586 241.682C270.883 241.682 271.835 242.097 272.442 242.928C273.058 243.749 273.366 245.075 273.366 246.904C273.366 247.847 273.282 248.649 273.114 249.312C272.955 249.975 272.713 250.516 272.386 250.936C272.069 251.356 271.672 251.664 271.196 251.86C270.729 252.047 270.193 252.14 269.586 252.14Z" fill="#4A5A68"/>
<path d="M319.95 46H317.318V38.594L315.4 39.77L314.35 37.936L317.752 35.822H319.95V46ZM325.415 43.452C325.975 43.648 326.475 43.7833 326.913 43.858C327.352 43.9233 327.767 43.956 328.159 43.956C328.915 43.956 329.452 43.858 329.769 43.662C330.096 43.4567 330.259 43.1767 330.259 42.822C330.259 42.486 330.115 42.2387 329.825 42.08C329.536 41.9213 329.083 41.842 328.467 41.842H326.661V39.812H328.313C329.443 39.812 330.007 39.49 330.007 38.846C330.007 38.5287 329.863 38.286 329.573 38.118C329.284 37.95 328.803 37.866 328.131 37.866C327.655 37.866 327.198 37.908 326.759 37.992C326.33 38.076 325.943 38.1833 325.597 38.314V36.074C326.129 35.9153 326.671 35.8033 327.221 35.738C327.772 35.6633 328.304 35.626 328.817 35.626C329.62 35.626 330.278 35.7053 330.791 35.864C331.305 36.0227 331.711 36.228 332.009 36.48C332.308 36.732 332.513 37.0213 332.625 37.348C332.737 37.6653 332.793 37.9873 332.793 38.314C332.793 39.5833 332.089 40.386 330.679 40.722V40.764C331.127 40.8293 331.501 40.932 331.799 41.072C332.098 41.2027 332.341 41.3707 332.527 41.576C332.714 41.772 332.845 42.0007 332.919 42.262C333.003 42.514 333.045 42.7847 333.045 43.074C333.045 43.5127 332.961 43.9233 332.793 44.306C332.625 44.6793 332.364 45.006 332.009 45.286C331.655 45.566 331.197 45.79 330.637 45.958C330.087 46.1167 329.429 46.196 328.663 46.196C328.215 46.196 327.707 46.1633 327.137 46.098C326.577 46.0327 326.003 45.9113 325.415 45.734V43.452ZM338.378 37.628C337.911 37.628 337.538 37.7633 337.258 38.034C336.978 38.3047 336.838 38.678 336.838 39.154C336.838 39.63 336.973 40.008 337.244 40.288C337.524 40.5587 337.883 40.694 338.322 40.694C338.564 40.694 338.784 40.652 338.98 40.568C339.185 40.484 339.358 40.372 339.498 40.232C339.647 40.0827 339.759 39.91 339.834 39.714C339.918 39.518 339.96 39.3127 339.96 39.098C339.96 38.678 339.815 38.328 339.526 38.048C339.236 37.768 338.854 37.628 338.378 37.628ZM335.06 43.662C335.414 43.774 335.778 43.8533 336.152 43.9C336.525 43.9467 336.931 43.97 337.37 43.97C337.752 43.97 338.112 43.9233 338.448 43.83C338.793 43.7367 339.096 43.592 339.358 43.396C339.619 43.2 339.824 42.948 339.974 42.64C340.123 42.332 340.198 41.9587 340.198 41.52C340.086 41.632 339.95 41.744 339.792 41.856C339.642 41.968 339.465 42.0707 339.26 42.164C339.064 42.248 338.83 42.3227 338.56 42.388C338.298 42.444 338 42.472 337.664 42.472C337.16 42.472 336.688 42.402 336.25 42.262C335.82 42.1127 335.442 41.898 335.116 41.618C334.798 41.338 334.546 40.9973 334.36 40.596C334.182 40.1853 334.094 39.714 334.094 39.182C334.094 38.6313 334.196 38.1367 334.402 37.698C334.607 37.2593 334.896 36.886 335.27 36.578C335.643 36.27 336.091 36.0367 336.614 35.878C337.136 35.71 337.715 35.626 338.35 35.626C339.143 35.626 339.815 35.752 340.366 36.004C340.926 36.256 341.378 36.6013 341.724 37.04C342.069 37.4787 342.316 38.006 342.466 38.622C342.624 39.2287 342.704 39.8867 342.704 40.596C342.704 41.3427 342.615 42.0567 342.438 42.738C342.27 43.41 341.98 44.0027 341.57 44.516C341.168 45.0293 340.636 45.44 339.974 45.748C339.311 46.0467 338.49 46.196 337.51 46.196C337.22 46.196 336.861 46.1773 336.432 46.14C336.012 46.1027 335.554 46.0233 335.06 45.902V43.662ZM349.29 46H346.658V38.594L344.74 39.77L343.69 37.936L347.092 35.822H349.29V46Z" fill="#4A5A68"/>
<path d="M304 58C304 55.7909 305.791 54 308 54H356C358.209 54 360 55.7909 360 58V230H304V58Z" fill="#0079C1"/>
<path d="M304 58C304 55.7909 305.791 54 308 54H356C358.209 54 360 55.7909 360 58V230H304V58Z" fill="url(#paint2_linear_5397_192969)"/>
<path d="M313.7 250.74L315.632 249.116C316.229 248.612 316.733 248.159 317.144 247.758C317.564 247.347 317.9 246.969 318.152 246.624C318.413 246.269 318.6 245.938 318.712 245.63C318.824 245.313 318.88 245 318.88 244.692C318.88 244.104 318.698 243.656 318.334 243.348C317.97 243.04 317.419 242.886 316.682 242.886C316.234 242.886 315.8 242.947 315.38 243.068C314.96 243.18 314.54 243.343 314.12 243.558V242.298C314.577 242.083 315.021 241.929 315.45 241.836C315.889 241.733 316.323 241.682 316.752 241.682C317.293 241.682 317.783 241.752 318.222 241.892C318.661 242.023 319.029 242.219 319.328 242.48C319.636 242.732 319.869 243.045 320.028 243.418C320.196 243.782 320.28 244.193 320.28 244.65C320.28 245.042 320.21 245.429 320.07 245.812C319.939 246.185 319.72 246.582 319.412 247.002C319.113 247.413 318.717 247.856 318.222 248.332C317.737 248.808 317.135 249.34 316.416 249.928L315.408 250.754V250.796H320.42V252H313.7V250.74ZM326.375 250.936C326.786 250.936 327.14 250.866 327.439 250.726C327.738 250.586 327.985 250.357 328.181 250.04C328.377 249.713 328.522 249.298 328.615 248.794C328.708 248.281 328.755 247.651 328.755 246.904C328.755 246.139 328.704 245.499 328.601 244.986C328.508 244.473 328.363 244.062 328.167 243.754C327.971 243.437 327.724 243.213 327.425 243.082C327.126 242.951 326.776 242.886 326.375 242.886C326.011 242.886 325.68 242.951 325.381 243.082C325.092 243.213 324.844 243.432 324.639 243.74C324.434 244.048 324.275 244.463 324.163 244.986C324.051 245.499 323.995 246.139 323.995 246.904C323.995 247.66 324.046 248.299 324.149 248.822C324.261 249.335 324.415 249.751 324.611 250.068C324.816 250.376 325.064 250.6 325.353 250.74C325.652 250.871 325.992 250.936 326.375 250.936ZM326.375 252.14C325.162 252.14 324.228 251.72 323.575 250.88C322.922 250.04 322.595 248.715 322.595 246.904C322.595 245.989 322.679 245.205 322.847 244.552C323.024 243.889 323.276 243.348 323.603 242.928C323.93 242.499 324.326 242.186 324.793 241.99C325.26 241.785 325.787 241.682 326.375 241.682C327.672 241.682 328.624 242.097 329.231 242.928C329.847 243.749 330.155 245.075 330.155 246.904C330.155 247.847 330.071 248.649 329.903 249.312C329.744 249.975 329.502 250.516 329.175 250.936C328.858 251.356 328.461 251.664 327.985 251.86C327.518 252.047 326.982 252.14 326.375 252.14ZM331.911 250.74L333.843 249.116C334.44 248.612 334.944 248.159 335.355 247.758C335.775 247.347 336.111 246.969 336.363 246.624C336.624 246.269 336.811 245.938 336.923 245.63C337.035 245.313 337.091 245 337.091 244.692C337.091 244.104 336.909 243.656 336.545 243.348C336.181 243.04 335.63 242.886 334.893 242.886C334.445 242.886 334.011 242.947 333.591 243.068C333.171 243.18 332.751 243.343 332.331 243.558V242.298C332.788 242.083 333.232 241.929 333.661 241.836C334.1 241.733 334.534 241.682 334.963 241.682C335.504 241.682 335.994 241.752 336.433 241.892C336.872 242.023 337.24 242.219 337.539 242.48C337.847 242.732 338.08 243.045 338.239 243.418C338.407 243.782 338.491 244.193 338.491 244.65C338.491 245.042 338.421 245.429 338.281 245.812C338.15 246.185 337.931 246.582 337.623 247.002C337.324 247.413 336.928 247.856 336.433 248.332C335.948 248.808 335.346 249.34 334.627 249.928L333.619 250.754V250.796H338.631V252H331.911V250.74ZM342.752 243.39L341.156 244.384L340.526 243.39L343.032 241.822H344.096V252H342.752V243.39Z" fill="#4A5A68"/>
<path d="M418.95 181H416.318V173.594L414.4 174.77L413.35 172.936L416.752 170.822H418.95V181ZM420.915 178.452C421.475 178.648 421.975 178.783 422.413 178.858C422.852 178.923 423.267 178.956 423.659 178.956C424.415 178.956 424.952 178.858 425.269 178.662C425.596 178.457 425.759 178.177 425.759 177.822C425.759 177.486 425.615 177.239 425.325 177.08C425.036 176.921 424.583 176.842 423.967 176.842H422.161V174.812H423.813C424.943 174.812 425.507 174.49 425.507 173.846C425.507 173.529 425.363 173.286 425.073 173.118C424.784 172.95 424.303 172.866 423.631 172.866C423.155 172.866 422.698 172.908 422.259 172.992C421.83 173.076 421.443 173.183 421.097 173.314V171.074C421.629 170.915 422.171 170.803 422.721 170.738C423.272 170.663 423.804 170.626 424.317 170.626C425.12 170.626 425.778 170.705 426.291 170.864C426.805 171.023 427.211 171.228 427.509 171.48C427.808 171.732 428.013 172.021 428.125 172.348C428.237 172.665 428.293 172.987 428.293 173.314C428.293 174.583 427.589 175.386 426.179 175.722V175.764C426.627 175.829 427.001 175.932 427.299 176.072C427.598 176.203 427.841 176.371 428.027 176.576C428.214 176.772 428.345 177.001 428.419 177.262C428.503 177.514 428.545 177.785 428.545 178.074C428.545 178.513 428.461 178.923 428.293 179.306C428.125 179.679 427.864 180.006 427.509 180.286C427.155 180.566 426.697 180.79 426.137 180.958C425.587 181.117 424.929 181.196 424.163 181.196C423.715 181.196 423.207 181.163 422.637 181.098C422.077 181.033 421.503 180.911 420.915 180.734V178.452ZM437.434 181H429.664V178.69L431.288 177.64C431.838 177.285 432.314 176.959 432.716 176.66C433.117 176.361 433.448 176.077 433.71 175.806C433.98 175.535 434.181 175.274 434.312 175.022C434.442 174.77 434.508 174.509 434.508 174.238C434.508 173.855 434.358 173.547 434.06 173.314C433.77 173.081 433.266 172.964 432.548 172.964C432.09 172.964 431.638 173.015 431.19 173.118C430.751 173.211 430.345 173.342 429.972 173.51V171.13C430.588 170.934 431.166 170.803 431.708 170.738C432.258 170.663 432.8 170.626 433.332 170.626C434.116 170.626 434.764 170.715 435.278 170.892C435.8 171.06 436.216 171.289 436.524 171.578C436.832 171.858 437.046 172.18 437.168 172.544C437.298 172.908 437.364 173.281 437.364 173.664C437.364 174.121 437.28 174.555 437.112 174.966C436.953 175.367 436.715 175.759 436.398 176.142C436.08 176.515 435.684 176.889 435.208 177.262C434.741 177.626 434.2 177.999 433.584 178.382L432.996 178.746V178.76H437.434V181Z" fill="#4A5A68"/>
<path d="M399 193C399 190.791 400.791 189 403 189H451C453.209 189 455 190.791 455 193V230H399V193Z" fill="#0079C1"/>
<path d="M399 193C399 190.791 400.791 189 403 189H451C453.209 189 455 190.791 455 193V230H399V193Z" fill="url(#paint3_linear_5397_192969)"/>
<path d="M405.62 250.936C406.273 250.936 406.796 250.759 407.188 250.404C407.589 250.049 407.79 249.522 407.79 248.822C407.79 248.15 407.585 247.646 407.174 247.31C406.763 246.965 406.245 246.792 405.62 246.792C405.265 246.792 404.943 246.843 404.654 246.946C404.365 247.049 404.117 247.184 403.912 247.352C403.707 247.52 403.548 247.711 403.436 247.926C403.324 248.141 403.268 248.365 403.268 248.598C403.268 248.925 403.319 249.228 403.422 249.508C403.525 249.788 403.674 250.035 403.87 250.25C404.066 250.465 404.309 250.633 404.598 250.754C404.897 250.875 405.237 250.936 405.62 250.936ZM405.564 252.14C404.78 252.14 404.136 251.995 403.632 251.706C403.137 251.417 402.745 251.043 402.456 250.586C402.167 250.129 401.966 249.615 401.854 249.046C401.751 248.467 401.7 247.889 401.7 247.31C401.7 246.517 401.779 245.779 401.938 245.098C402.097 244.407 402.358 243.81 402.722 243.306C403.095 242.802 403.585 242.405 404.192 242.116C404.799 241.827 405.55 241.682 406.446 241.682C406.745 241.682 407.043 241.701 407.342 241.738C407.641 241.775 407.93 241.845 408.21 241.948V243.236C407.921 243.124 407.627 243.04 407.328 242.984C407.039 242.919 406.731 242.886 406.404 242.886C405.807 242.886 405.289 242.989 404.85 243.194C404.421 243.399 404.066 243.679 403.786 244.034C403.515 244.389 403.315 244.809 403.184 245.294C403.053 245.77 402.988 246.283 402.988 246.834C403.109 246.666 403.254 246.507 403.422 246.358C403.59 246.199 403.781 246.064 403.996 245.952C404.22 245.84 404.472 245.751 404.752 245.686C405.041 245.621 405.373 245.588 405.746 245.588C406.213 245.588 406.651 245.649 407.062 245.77C407.482 245.891 407.851 246.083 408.168 246.344C408.485 246.605 408.733 246.937 408.91 247.338C409.097 247.739 409.19 248.22 409.19 248.78C409.19 249.303 409.097 249.774 408.91 250.194C408.733 250.605 408.481 250.955 408.154 251.244C407.837 251.533 407.454 251.757 407.006 251.916C406.567 252.065 406.087 252.14 405.564 252.14ZM418.992 244.37V252H417.704V245.91L415.562 250.6H414.302L412.16 246.008V252H410.872V244.37H412.706L414.988 249.438L417.256 244.37H418.992ZM420.882 250.74L422.814 249.116C423.411 248.612 423.915 248.159 424.326 247.758C424.746 247.347 425.082 246.969 425.334 246.624C425.595 246.269 425.782 245.938 425.894 245.63C426.006 245.313 426.062 245 426.062 244.692C426.062 244.104 425.88 243.656 425.516 243.348C425.152 243.04 424.601 242.886 423.864 242.886C423.416 242.886 422.982 242.947 422.562 243.068C422.142 243.18 421.722 243.343 421.302 243.558V242.298C421.759 242.083 422.202 241.929 422.632 241.836C423.07 241.733 423.504 241.682 423.934 241.682C424.475 241.682 424.965 241.752 425.404 241.892C425.842 242.023 426.211 242.219 426.51 242.48C426.818 242.732 427.051 243.045 427.21 243.418C427.378 243.782 427.462 244.193 427.462 244.65C427.462 245.042 427.392 245.429 427.252 245.812C427.121 246.185 426.902 246.582 426.594 247.002C426.295 247.413 425.898 247.856 425.404 248.332C424.918 248.808 424.316 249.34 423.598 249.928L422.59 250.754V250.796H427.602V252H420.882V250.74ZM433.557 250.936C433.967 250.936 434.322 250.866 434.621 250.726C434.919 250.586 435.167 250.357 435.363 250.04C435.559 249.713 435.703 249.298 435.797 248.794C435.89 248.281 435.937 247.651 435.937 246.904C435.937 246.139 435.885 245.499 435.783 244.986C435.689 244.473 435.545 244.062 435.349 243.754C435.153 243.437 434.905 243.213 434.607 243.082C434.308 242.951 433.958 242.886 433.557 242.886C433.193 242.886 432.861 242.951 432.563 243.082C432.273 243.213 432.026 243.432 431.821 243.74C431.615 244.048 431.457 244.463 431.345 244.986C431.233 245.499 431.177 246.139 431.177 246.904C431.177 247.66 431.228 248.299 431.331 248.822C431.443 249.335 431.597 249.751 431.793 250.068C431.998 250.376 432.245 250.6 432.535 250.74C432.833 250.871 433.174 250.936 433.557 250.936ZM433.557 252.14C432.343 252.14 431.41 251.72 430.757 250.88C430.103 250.04 429.777 248.715 429.777 246.904C429.777 245.989 429.861 245.205 430.029 244.552C430.206 243.889 430.458 243.348 430.785 242.928C431.111 242.499 431.508 242.186 431.975 241.99C432.441 241.785 432.969 241.682 433.557 241.682C434.854 241.682 435.806 242.097 436.413 242.928C437.029 243.749 437.337 245.075 437.337 246.904C437.337 247.847 437.253 248.649 437.085 249.312C436.926 249.975 436.683 250.516 436.357 250.936C436.039 251.356 435.643 251.664 435.167 251.86C434.7 252.047 434.163 252.14 433.557 252.14ZM439.093 250.74L441.025 249.116C441.622 248.612 442.126 248.159 442.537 247.758C442.957 247.347 443.293 246.969 443.545 246.624C443.806 246.269 443.993 245.938 444.105 245.63C444.217 245.313 444.273 245 444.273 244.692C444.273 244.104 444.091 243.656 443.727 243.348C443.363 243.04 442.812 242.886 442.075 242.886C441.627 242.886 441.193 242.947 440.773 243.068C440.353 243.18 439.933 243.343 439.513 243.558V242.298C439.97 242.083 440.413 241.929 440.843 241.836C441.281 241.733 441.715 241.682 442.145 241.682C442.686 241.682 443.176 241.752 443.615 241.892C444.053 242.023 444.422 242.219 444.721 242.48C445.029 242.732 445.262 243.045 445.421 243.418C445.589 243.782 445.673 244.193 445.673 244.65C445.673 245.042 445.603 245.429 445.463 245.812C445.332 246.185 445.113 246.582 444.805 247.002C444.506 247.413 444.109 247.856 443.615 248.332C443.129 248.808 442.527 249.34 441.809 249.928L440.801 250.754V250.796H445.813V252H439.093V250.74ZM449.934 243.39L448.338 244.384L447.708 243.39L450.214 241.822H451.278V252H449.934V243.39Z" fill="#4A5A68"/>
<path d="M493.452 106H490.428L494.096 98.062H489.322V95.822H497.106V97.726L493.452 106ZM502.638 104.194C503.104 104.194 503.478 104.059 503.758 103.788C504.038 103.517 504.178 103.144 504.178 102.668C504.178 102.192 504.038 101.823 503.758 101.562C503.487 101.291 503.132 101.156 502.694 101.156C502.451 101.156 502.227 101.198 502.022 101.282C501.826 101.366 501.653 101.478 501.504 101.618C501.364 101.758 501.252 101.926 501.168 102.122C501.093 102.309 501.056 102.509 501.056 102.724C501.056 103.144 501.2 103.494 501.49 103.774C501.779 104.054 502.162 104.194 502.638 104.194ZM505.928 98.16C505.573 98.048 505.214 97.9687 504.85 97.922C504.486 97.8753 504.084 97.852 503.646 97.852C503.263 97.852 502.899 97.8987 502.554 97.992C502.218 98.0853 501.919 98.23 501.658 98.426C501.396 98.622 501.191 98.8787 501.042 99.196C500.892 99.504 500.818 99.8727 500.818 100.302C500.93 100.19 501.06 100.083 501.21 99.98C501.368 99.868 501.546 99.77 501.742 99.686C501.947 99.5927 502.18 99.518 502.442 99.462C502.712 99.406 503.016 99.378 503.352 99.378C503.856 99.378 504.322 99.448 504.752 99.588C505.19 99.728 505.568 99.9333 505.886 100.204C506.212 100.475 506.464 100.811 506.642 101.212C506.828 101.613 506.922 102.08 506.922 102.612C506.922 103.163 506.819 103.662 506.614 104.11C506.408 104.549 506.119 104.922 505.746 105.23C505.372 105.538 504.92 105.776 504.388 105.944C503.856 106.112 503.268 106.196 502.624 106.196C501.84 106.196 501.172 106.07 500.622 105.818C500.071 105.566 499.623 105.221 499.278 104.782C498.942 104.343 498.694 103.821 498.536 103.214C498.386 102.607 498.312 101.945 498.312 101.226C498.312 100.479 498.396 99.77 498.564 99.098C498.741 98.4167 499.03 97.8193 499.432 97.306C499.842 96.7927 500.379 96.3867 501.042 96.088C501.704 95.78 502.526 95.626 503.506 95.626C503.795 95.626 504.145 95.6447 504.556 95.682C504.976 95.7193 505.433 95.7987 505.928 95.92V98.16ZM512.052 97.628C511.585 97.628 511.212 97.7633 510.932 98.034C510.652 98.3047 510.512 98.678 510.512 99.154C510.512 99.63 510.647 100.008 510.918 100.288C511.198 100.559 511.557 100.694 511.996 100.694C512.238 100.694 512.458 100.652 512.654 100.568C512.859 100.484 513.032 100.372 513.172 100.232C513.321 100.083 513.433 99.91 513.508 99.714C513.592 99.518 513.634 99.3127 513.634 99.098C513.634 98.678 513.489 98.328 513.2 98.048C512.91 97.768 512.528 97.628 512.052 97.628ZM508.734 103.662C509.088 103.774 509.452 103.853 509.826 103.9C510.199 103.947 510.605 103.97 511.044 103.97C511.426 103.97 511.786 103.923 512.122 103.83C512.467 103.737 512.77 103.592 513.032 103.396C513.293 103.2 513.498 102.948 513.648 102.64C513.797 102.332 513.872 101.959 513.872 101.52C513.76 101.632 513.624 101.744 513.466 101.856C513.316 101.968 513.139 102.071 512.934 102.164C512.738 102.248 512.504 102.323 512.234 102.388C511.972 102.444 511.674 102.472 511.338 102.472C510.834 102.472 510.362 102.402 509.924 102.262C509.494 102.113 509.116 101.898 508.79 101.618C508.472 101.338 508.22 100.997 508.034 100.596C507.856 100.185 507.768 99.714 507.768 99.182C507.768 98.6313 507.87 98.1367 508.076 97.698C508.281 97.2593 508.57 96.886 508.944 96.578C509.317 96.27 509.765 96.0367 510.288 95.878C510.81 95.71 511.389 95.626 512.024 95.626C512.817 95.626 513.489 95.752 514.04 96.004C514.6 96.256 515.052 96.6013 515.398 97.04C515.743 97.4787 515.99 98.006 516.14 98.622C516.298 99.2287 516.378 99.8867 516.378 100.596C516.378 101.343 516.289 102.057 516.112 102.738C515.944 103.41 515.654 104.003 515.244 104.516C514.842 105.029 514.31 105.44 513.648 105.748C512.985 106.047 512.164 106.196 511.184 106.196C510.894 106.196 510.535 106.177 510.106 106.14C509.686 106.103 509.228 106.023 508.734 105.902V103.662Z" fill="#4A5A68"/>
<path d="M475 118C475 115.791 476.791 114 479 114H528C530.209 114 532 115.791 532 118V230H475V118Z" fill="#0079C1"/>
<path d="M475 118C475 115.791 476.791 114 479 114H528C530.209 114 532 115.791 532 118V230H475V118Z" fill="url(#paint4_linear_5397_192969)"/>
<path d="M480.62 250.936C481.273 250.936 481.796 250.759 482.188 250.404C482.589 250.049 482.79 249.522 482.79 248.822C482.79 248.15 482.585 247.646 482.174 247.31C481.763 246.965 481.245 246.792 480.62 246.792C480.265 246.792 479.943 246.843 479.654 246.946C479.365 247.049 479.117 247.184 478.912 247.352C478.707 247.52 478.548 247.711 478.436 247.926C478.324 248.141 478.268 248.365 478.268 248.598C478.268 248.925 478.319 249.228 478.422 249.508C478.525 249.788 478.674 250.035 478.87 250.25C479.066 250.465 479.309 250.633 479.598 250.754C479.897 250.875 480.237 250.936 480.62 250.936ZM480.564 252.14C479.78 252.14 479.136 251.995 478.632 251.706C478.137 251.417 477.745 251.043 477.456 250.586C477.167 250.129 476.966 249.615 476.854 249.046C476.751 248.467 476.7 247.889 476.7 247.31C476.7 246.517 476.779 245.779 476.938 245.098C477.097 244.407 477.358 243.81 477.722 243.306C478.095 242.802 478.585 242.405 479.192 242.116C479.799 241.827 480.55 241.682 481.446 241.682C481.745 241.682 482.043 241.701 482.342 241.738C482.641 241.775 482.93 241.845 483.21 241.948V243.236C482.921 243.124 482.627 243.04 482.328 242.984C482.039 242.919 481.731 242.886 481.404 242.886C480.807 242.886 480.289 242.989 479.85 243.194C479.421 243.399 479.066 243.679 478.786 244.034C478.515 244.389 478.315 244.809 478.184 245.294C478.053 245.77 477.988 246.283 477.988 246.834C478.109 246.666 478.254 246.507 478.422 246.358C478.59 246.199 478.781 246.064 478.996 245.952C479.22 245.84 479.472 245.751 479.752 245.686C480.041 245.621 480.373 245.588 480.746 245.588C481.213 245.588 481.651 245.649 482.062 245.77C482.482 245.891 482.851 246.083 483.168 246.344C483.485 246.605 483.733 246.937 483.91 247.338C484.097 247.739 484.19 248.22 484.19 248.78C484.19 249.303 484.097 249.774 483.91 250.194C483.733 250.605 483.481 250.955 483.154 251.244C482.837 251.533 482.454 251.757 482.006 251.916C481.567 252.065 481.087 252.14 480.564 252.14ZM493.992 244.37V252H492.704V245.91L490.562 250.6H489.302L487.16 246.008V252H485.872V244.37H487.706L489.988 249.438L492.256 244.37H493.992ZM495.882 250.74L497.814 249.116C498.411 248.612 498.915 248.159 499.326 247.758C499.746 247.347 500.082 246.969 500.334 246.624C500.595 246.269 500.782 245.938 500.894 245.63C501.006 245.313 501.062 245 501.062 244.692C501.062 244.104 500.88 243.656 500.516 243.348C500.152 243.04 499.601 242.886 498.864 242.886C498.416 242.886 497.982 242.947 497.562 243.068C497.142 243.18 496.722 243.343 496.302 243.558V242.298C496.759 242.083 497.202 241.929 497.632 241.836C498.07 241.733 498.504 241.682 498.934 241.682C499.475 241.682 499.965 241.752 500.404 241.892C500.842 242.023 501.211 242.219 501.51 242.48C501.818 242.732 502.051 243.045 502.21 243.418C502.378 243.782 502.462 244.193 502.462 244.65C502.462 245.042 502.392 245.429 502.252 245.812C502.121 246.185 501.902 246.582 501.594 247.002C501.295 247.413 500.898 247.856 500.404 248.332C499.918 248.808 499.316 249.34 498.598 249.928L497.59 250.754V250.796H502.602V252H495.882V250.74ZM508.557 250.936C508.967 250.936 509.322 250.866 509.621 250.726C509.919 250.586 510.167 250.357 510.363 250.04C510.559 249.713 510.703 249.298 510.797 248.794C510.89 248.281 510.937 247.651 510.937 246.904C510.937 246.139 510.885 245.499 510.783 244.986C510.689 244.473 510.545 244.062 510.349 243.754C510.153 243.437 509.905 243.213 509.607 243.082C509.308 242.951 508.958 242.886 508.557 242.886C508.193 242.886 507.861 242.951 507.563 243.082C507.273 243.213 507.026 243.432 506.821 243.74C506.615 244.048 506.457 244.463 506.345 244.986C506.233 245.499 506.177 246.139 506.177 246.904C506.177 247.66 506.228 248.299 506.331 248.822C506.443 249.335 506.597 249.751 506.793 250.068C506.998 250.376 507.245 250.6 507.535 250.74C507.833 250.871 508.174 250.936 508.557 250.936ZM508.557 252.14C507.343 252.14 506.41 251.72 505.757 250.88C505.103 250.04 504.777 248.715 504.777 246.904C504.777 245.989 504.861 245.205 505.029 244.552C505.206 243.889 505.458 243.348 505.785 242.928C506.111 242.499 506.508 242.186 506.975 241.99C507.441 241.785 507.969 241.682 508.557 241.682C509.854 241.682 510.806 242.097 511.413 242.928C512.029 243.749 512.337 245.075 512.337 246.904C512.337 247.847 512.253 248.649 512.085 249.312C511.926 249.975 511.683 250.516 511.357 250.936C511.039 251.356 510.643 251.664 510.167 251.86C509.7 252.047 509.163 252.14 508.557 252.14ZM514.093 250.74L516.025 249.116C516.622 248.612 517.126 248.159 517.537 247.758C517.957 247.347 518.293 246.969 518.545 246.624C518.806 246.269 518.993 245.938 519.105 245.63C519.217 245.313 519.273 245 519.273 244.692C519.273 244.104 519.091 243.656 518.727 243.348C518.363 243.04 517.812 242.886 517.075 242.886C516.627 242.886 516.193 242.947 515.773 243.068C515.353 243.18 514.933 243.343 514.513 243.558V242.298C514.97 242.083 515.413 241.929 515.843 241.836C516.281 241.733 516.715 241.682 517.145 241.682C517.686 241.682 518.176 241.752 518.615 241.892C519.053 242.023 519.422 242.219 519.721 242.48C520.029 242.732 520.262 243.045 520.421 243.418C520.589 243.782 520.673 244.193 520.673 244.65C520.673 245.042 520.603 245.429 520.463 245.812C520.332 246.185 520.113 246.582 519.805 247.002C519.506 247.413 519.109 247.856 518.615 248.332C518.129 248.808 517.527 249.34 516.809 249.928L515.801 250.754V250.796H520.813V252H514.093V250.74ZM522.638 250.74L524.57 249.116C525.167 248.612 525.671 248.159 526.082 247.758C526.502 247.347 526.838 246.969 527.09 246.624C527.351 246.269 527.538 245.938 527.65 245.63C527.762 245.313 527.818 245 527.818 244.692C527.818 244.104 527.636 243.656 527.272 243.348C526.908 243.04 526.357 242.886 525.62 242.886C525.172 242.886 524.738 242.947 524.318 243.068C523.898 243.18 523.478 243.343 523.058 243.558V242.298C523.515 242.083 523.958 241.929 524.388 241.836C524.826 241.733 525.26 241.682 525.69 241.682C526.231 241.682 526.721 241.752 527.16 241.892C527.598 242.023 527.967 242.219 528.266 242.48C528.574 242.732 528.807 243.045 528.966 243.418C529.134 243.782 529.218 244.193 529.218 244.65C529.218 245.042 529.148 245.429 529.007 245.812C528.877 246.185 528.658 246.582 528.35 247.002C528.051 247.413 527.654 247.856 527.16 248.332C526.674 248.808 526.072 249.34 525.354 249.928L524.346 250.754V250.796H529.358V252H522.638V250.74Z" fill="#4A5A68"/>
<rect y="228" width="532" height="2" fill="#00588D"/>
<path d="M27 192C27 192.552 27.4477 193 28 193C28.5523 193 29 192.552 29 192H27ZM331.707 13.7071C332.098 13.3166 332.098 12.6834 331.707 12.2929L325.343 5.92893C324.953 5.53841 324.319 5.53841 323.929 5.92893C323.538 6.31946 323.538 6.95262 323.929 7.34315L329.586 13L323.929 18.6569C323.538 19.0474 323.538 19.6805 323.929 20.0711C324.319 20.4616 324.953 20.4616 325.343 20.0711L331.707 13.7071ZM29 192V17H27V192H29ZM32 14H331V12H32V14ZM29 17C29 15.3431 30.3431 14 32 14V12C29.2386 12 27 14.2386 27 17H29Z" fill="#6A7E95"/>
<rect x="156" y="1" width="40" height="24" rx="12" fill="white"/>
<path d="M168.704 10.308H164.36V9.276H169.94V10.188L166.568 18H165.392L168.704 10.308ZM169.792 19.464C170.152 19.312 170.444 19.136 170.668 18.936C170.892 18.736 171.032 18.464 171.088 18.12C170.792 18.128 170.56 18.056 170.392 17.904C170.232 17.744 170.152 17.536 170.152 17.28C170.152 17.024 170.228 16.824 170.38 16.68C170.54 16.528 170.756 16.452 171.028 16.452C171.316 16.452 171.552 16.552 171.736 16.752C171.928 16.952 172.024 17.268 172.024 17.7C172.024 17.94 171.992 18.184 171.928 18.432C171.864 18.68 171.756 18.912 171.604 19.128C171.46 19.352 171.268 19.552 171.028 19.728C170.788 19.912 170.496 20.056 170.152 20.16L169.792 19.464ZM173.834 16.92L175.49 15.528C176.002 15.096 176.434 14.708 176.786 14.364C177.146 14.012 177.434 13.688 177.65 13.392C177.874 13.088 178.034 12.804 178.13 12.54C178.226 12.268 178.274 12 178.274 11.736C178.274 11.232 178.118 10.848 177.806 10.584C177.494 10.32 177.022 10.188 176.39 10.188C176.006 10.188 175.634 10.24 175.274 10.344C174.914 10.44 174.554 10.58 174.194 10.764V9.684C174.586 9.5 174.966 9.368 175.334 9.288C175.71 9.2 176.082 9.156 176.45 9.156C176.914 9.156 177.334 9.216 177.71 9.336C178.086 9.448 178.402 9.616 178.658 9.84C178.922 10.056 179.122 10.324 179.258 10.644C179.402 10.956 179.474 11.308 179.474 11.7C179.474 12.036 179.414 12.368 179.294 12.696C179.182 13.016 178.994 13.356 178.73 13.716C178.474 14.068 178.134 14.448 177.71 14.856C177.294 15.264 176.778 15.72 176.162 16.224L175.298 16.932V16.968H179.594V18H173.834V16.92ZM186.919 18H185.587L183.775 15.432L181.987 18H180.679L183.163 14.58L180.919 11.46H182.251L183.883 13.788L185.455 11.46H186.691L184.483 14.58L186.919 18Z" fill="#4A5A68"/>
<rect x="156" y="1" width="40" height="24" rx="12" stroke="#6A7E95" stroke-width="2"/>
<path d="M379.5 222.5V56" stroke="#6A7E95" stroke-width="2" stroke-dasharray="4 4"/>
<path d="M425 157C425 157.552 425.448 158 426 158C426.552 158 427 157.552 427 157H425ZM497.707 68.7071C498.098 68.3166 498.098 67.6834 497.707 67.2929L491.343 60.9289C490.953 60.5384 490.319 60.5384 489.929 60.9289C489.538 61.3195 489.538 61.9526 489.929 62.3431L495.586 68L489.929 73.6569C489.538 74.0474 489.538 74.6805 489.929 75.0711C490.319 75.4616 490.953 75.4616 491.343 75.0711L497.707 68.7071ZM427 157V72H425V157H427ZM430 69H497V67H430V69ZM427 72C427 70.3431 428.343 69 430 69V67C427.239 67 425 69.2386 425 72H427Z" fill="#6A7E95"/>
<rect x="437" y="56" width="42" height="24" rx="12" fill="white"/>
<path d="M448.096 73.12C447.768 73.12 447.432 73.092 447.088 73.036C446.744 72.988 446.428 72.908 446.14 72.796V71.716C446.532 71.86 446.856 71.96 447.112 72.016C447.368 72.064 447.632 72.088 447.904 72.088C448.688 72.088 449.288 71.928 449.704 71.608C450.128 71.28 450.34 70.824 450.34 70.24C450.34 69.096 449.632 68.524 448.216 68.524C447.936 68.524 447.612 68.548 447.244 68.596C446.876 68.644 446.54 68.724 446.236 68.836L446.5 64.276H451.288V65.308H447.496L447.364 67.624C447.596 67.576 447.796 67.544 447.964 67.528C448.132 67.504 448.32 67.492 448.528 67.492C449.472 67.492 450.208 67.728 450.736 68.2C451.272 68.672 451.54 69.332 451.54 70.18C451.54 71.124 451.24 71.852 450.64 72.364C450.04 72.868 449.192 73.12 448.096 73.12ZM453.019 74.464C453.379 74.312 453.671 74.136 453.895 73.936C454.119 73.736 454.259 73.464 454.315 73.12C454.019 73.128 453.787 73.056 453.619 72.904C453.459 72.744 453.379 72.536 453.379 72.28C453.379 72.024 453.455 71.824 453.607 71.68C453.767 71.528 453.983 71.452 454.255 71.452C454.543 71.452 454.779 71.552 454.963 71.752C455.155 71.952 455.251 72.268 455.251 72.7C455.251 72.94 455.219 73.184 455.155 73.432C455.091 73.68 454.983 73.912 454.831 74.128C454.687 74.352 454.495 74.552 454.255 74.728C454.015 74.912 453.723 75.056 453.379 75.16L453.019 74.464ZM460.034 73.12C459.586 73.12 459.166 73.072 458.774 72.976C458.39 72.872 458.05 72.72 457.754 72.52C457.466 72.32 457.238 72.068 457.07 71.764C456.902 71.452 456.818 71.092 456.818 70.684C456.818 70.084 456.99 69.608 457.334 69.256C457.686 68.896 458.174 68.624 458.798 68.44C458.238 68.192 457.806 67.904 457.502 67.576C457.198 67.24 457.046 66.8 457.046 66.256C457.046 65.92 457.114 65.624 457.25 65.368C457.394 65.104 457.594 64.884 457.85 64.708C458.114 64.524 458.426 64.388 458.786 64.3C459.154 64.204 459.562 64.156 460.01 64.156C460.418 64.156 460.798 64.196 461.15 64.276C461.502 64.348 461.806 64.468 462.062 64.636C462.326 64.796 462.53 65.004 462.674 65.26C462.826 65.516 462.902 65.824 462.902 66.184C462.902 66.728 462.758 67.164 462.47 67.492C462.19 67.82 461.77 68.104 461.21 68.344C461.93 68.576 462.438 68.872 462.734 69.232C463.03 69.584 463.178 70.052 463.178 70.636C463.178 71.02 463.102 71.364 462.95 71.668C462.806 71.972 462.594 72.232 462.314 72.448C462.042 72.664 461.71 72.832 461.318 72.952C460.934 73.064 460.506 73.12 460.034 73.12ZM460.094 72.088C460.67 72.088 461.134 71.964 461.486 71.716C461.846 71.46 462.026 71.092 462.026 70.612C462.026 70.348 461.962 70.124 461.834 69.94C461.714 69.748 461.55 69.588 461.342 69.46C461.142 69.324 460.91 69.208 460.646 69.112C460.382 69.016 460.106 68.928 459.818 68.848C459.578 68.928 459.346 69.02 459.122 69.124C458.906 69.22 458.71 69.34 458.534 69.484C458.366 69.62 458.23 69.776 458.126 69.952C458.022 70.128 457.97 70.332 457.97 70.564C457.97 71.004 458.142 71.368 458.486 71.656C458.838 71.944 459.374 72.088 460.094 72.088ZM460.238 68.008C460.806 67.76 461.198 67.5 461.414 67.228C461.638 66.948 461.75 66.66 461.75 66.364C461.75 66.148 461.706 65.968 461.618 65.824C461.53 65.672 461.406 65.552 461.246 65.464C461.086 65.368 460.894 65.3 460.67 65.26C460.454 65.212 460.21 65.188 459.938 65.188C459.362 65.188 458.926 65.296 458.63 65.512C458.342 65.728 458.198 66.004 458.198 66.34C458.198 66.572 458.254 66.772 458.366 66.94C458.478 67.108 458.626 67.26 458.81 67.396C458.994 67.524 459.21 67.64 459.458 67.744C459.706 67.84 459.966 67.928 460.238 68.008ZM470.262 73H468.93L467.118 70.432L465.33 73H464.022L466.506 69.58L464.262 66.46H465.594L467.226 68.788L468.798 66.46H470.034L467.826 69.58L470.262 73Z" fill="#4A5A68"/>
<rect x="437" y="56" width="42" height="24" rx="12" stroke="#6A7E95" stroke-width="2"/>
<defs>
<linearGradient id="paint0_linear_5397_192969" x1="163.2" y1="186.063" x2="163.2" y2="220.608" gradientUnits="userSpaceOnUse">
<stop stop-color="#049DF9"/>
<stop offset="1" stop-color="#0484D1"/>
</linearGradient>
<linearGradient id="paint1_linear_5397_192969" x1="239.2" y1="56.5625" x2="239.2" y2="192.926" gradientUnits="userSpaceOnUse">
<stop stop-color="#049DF9"/>
<stop offset="1" stop-color="#0484D1"/>
</linearGradient>
<linearGradient id="paint2_linear_5397_192969" x1="315.2" y1="26.5" x2="315.2" y2="186.5" gradientUnits="userSpaceOnUse">
<stop stop-color="#049DF9"/>
<stop offset="1" stop-color="#0484D1"/>
</linearGradient>
<linearGradient id="paint3_linear_5397_192969" x1="410.2" y1="182.594" x2="410.2" y2="219.866" gradientUnits="userSpaceOnUse">
<stop stop-color="#049DF9"/>
<stop offset="1" stop-color="#0484D1"/>
</linearGradient>
<linearGradient id="paint4_linear_5397_192969" x1="486.4" y1="95.875" x2="486.4" y2="201.33" gradientUnits="userSpaceOnUse">
<stop stop-color="#049DF9"/>
<stop offset="1" stop-color="#0484D1"/>
</linearGradient>
</defs>
</svg>
