<svg width="40" height="40" viewBox="0 0 40 40" fill="none" xmlns="http://www.w3.org/2000/svg">
<path d="M10 35H20M15 35V5M15 5L5 15H35M15 5L31.6667 15M28.3333 15V21.6667C28.9926 21.6667 29.6371 21.8622 30.1852 22.2284C30.7334 22.5947 31.1606 23.1153 31.4129 23.7244C31.6652 24.3335 31.7312 25.0037 31.6026 25.6503C31.474 26.2969 31.1565 26.8908 30.6904 27.357C30.2242 27.8232 29.6302 28.1407 28.9836 28.2693C28.337 28.3979 27.6668 28.3319 27.0577 28.0796C26.4486 27.8273 25.928 27.4001 25.5618 26.8519C25.1955 26.3037 25 25.6593 25 25" stroke="#0079C1" stroke-width="1.5" stroke-linecap="round" stroke-linejoin="round"/>
</svg>
