<svg width="40" height="40" viewBox="0 0 40 40" fill="none" xmlns="http://www.w3.org/2000/svg">
<path fill-rule="evenodd" clip-rule="evenodd" d="M4.46967 11.4697C4.76256 11.1768 5.23744 11.1768 5.53033 11.4697L9.25 15.1893L9.25 5C9.25 4.58579 9.58579 4.25 10 4.25C10.4142 4.25 10.75 4.58579 10.75 5V15.1893L14.4697 11.4697C14.7626 11.1768 15.2374 11.1768 15.5303 11.4697C15.8232 11.7626 15.8232 12.2374 15.5303 12.5303L10.5303 17.5303C10.3897 17.671 10.1989 17.75 10 17.75C9.80109 17.75 9.61032 17.671 9.46967 17.5303L4.46967 12.5303C4.17678 12.2374 4.17678 11.7626 4.46967 11.4697ZM30.5303 6.53033C30.8232 6.23744 30.8232 5.76256 30.5303 5.46967C30.2374 5.17678 29.7626 5.17678 29.4697 5.46967L24.4697 10.4697C24.1768 10.7626 24.1768 11.2374 24.4697 11.5303L29.4697 16.5303C29.7626 16.8232 30.2374 16.8232 30.5303 16.5303C30.8232 16.2374 30.8232 15.7626 30.5303 15.4697L26.8107 11.75H37C37.4142 11.75 37.75 11.4142 37.75 11C37.75 10.5858 37.4142 10.25 37 10.25H26.8107L30.5303 6.53033ZM11.4697 34.4697C11.1768 34.7626 11.1768 35.2374 11.4697 35.5303C11.7626 35.8232 12.2374 35.8232 12.5303 35.5303L17.5303 30.5303C17.671 30.3897 17.75 30.1989 17.75 30C17.75 29.8011 17.671 29.6103 17.5303 29.4697L12.5303 24.4697C12.2374 24.1768 11.7626 24.1768 11.4697 24.4697C11.1768 24.7626 11.1768 25.2374 11.4697 25.5303L15.1893 29.25L5 29.25C4.58579 29.25 4.25 29.5858 4.25 30C4.25 30.4142 4.58579 30.75 5 30.75L15.1893 30.75L11.4697 34.4697ZM32.75 24.8107L36.4697 28.5303C36.7626 28.8232 37.2374 28.8232 37.5303 28.5303C37.8232 28.2374 37.8232 27.7626 37.5303 27.4697L32.5303 22.4697C32.3897 22.329 32.1989 22.25 32 22.25C31.8011 22.25 31.6103 22.329 31.4697 22.4697L26.4697 27.4697C26.1768 27.7626 26.1768 28.2374 26.4697 28.5303C26.7626 28.8232 27.2374 28.8232 27.5303 28.5303L31.25 24.8107V35C31.25 35.4142 31.5858 35.75 32 35.75C32.4142 35.75 32.75 35.4142 32.75 35V24.8107Z" fill="#0079C1"/>
</svg>
