<svg width="39" height="34" viewBox="0 0 39 34" fill="none" xmlns="http://www.w3.org/2000/svg">
<path d="M15.666 23H3.66602C3.13558 23 2.62687 22.7893 2.2518 22.4142C1.87673 22.0391 1.66602 21.5304 1.66602 21V5C1.66602 4.46957 1.87673 3.96086 2.2518 3.58579C2.62687 3.21071 3.13558 3 3.66602 3H15.666M9.66602 31H15.666M29.666 9V9.02M13.666 23V31M23.666 1H35.666C36.7706 1 37.666 1.89543 37.666 3V31C37.666 32.1046 36.7706 33 35.666 33H23.666C22.5614 33 21.666 32.1046 21.666 31V3C21.666 1.89543 22.5614 1 23.666 1ZM31.666 25C31.666 26.1046 30.7706 27 29.666 27C28.5614 27 27.666 26.1046 27.666 25C27.666 23.8954 28.5614 23 29.666 23C30.7706 23 31.666 23.8954 31.666 25Z" stroke="white" stroke-width="1.5" stroke-linecap="round" stroke-linejoin="round"/>
</svg>
