<svg width="42" height="38" viewBox="0 0 42 38" fill="none" xmlns="http://www.w3.org/2000/svg">
<path d="M32.5993 34.6349L28.2553 36.9109C28.1264 36.978 27.9814 37.008 27.8364 36.9974C27.6915 36.9869 27.5523 36.9362 27.4345 36.8512C27.3167 36.7661 27.2248 36.65 27.1691 36.5157C27.1135 36.3815 27.0962 36.2344 27.1193 36.0909L27.9493 31.2689L24.4353 27.8549C24.3304 27.7535 24.2562 27.6247 24.221 27.4831C24.1858 27.3415 24.1912 27.1929 24.2364 27.0542C24.2817 26.9155 24.365 26.7924 24.4769 26.6988C24.5888 26.6052 24.7248 26.5449 24.8693 26.5249L29.7253 25.8209L31.8973 21.4349C31.9623 21.3043 32.0624 21.1944 32.1864 21.1175C32.3104 21.0407 32.4534 21 32.5993 21C32.7452 21 32.8882 21.0407 33.0122 21.1175C33.1362 21.1944 33.2364 21.3043 33.3013 21.4349L35.4733 25.8209L40.3293 26.5249C40.4734 26.5457 40.6088 26.6063 40.7202 26.7C40.8316 26.7936 40.9146 26.9166 40.9598 27.055C41.0049 27.1934 41.0105 27.3416 40.9757 27.483C40.941 27.6244 40.8674 27.7532 40.7633 27.8549L37.2493 31.2689L38.0773 36.0889C38.1022 36.2327 38.0862 36.3805 38.0313 36.5156C37.9763 36.6507 37.8846 36.7677 37.7665 36.8533C37.6484 36.939 37.5087 36.9897 37.3631 36.9999C37.2176 37.0101 37.0722 36.9793 36.9433 36.9109L32.5993 34.6349Z" stroke="white" stroke-width="1.5" stroke-linecap="round" stroke-linejoin="round"/>
<path d="M9.3993 34.6349L5.0553 36.9109C4.92639 36.978 4.78137 37.008 4.63642 36.9974C4.49148 36.9869 4.35232 36.9362 4.23449 36.8512C4.11665 36.7661 4.02477 36.65 3.96912 36.5157C3.91346 36.3815 3.89622 36.2344 3.9193 36.0909L4.7493 31.2689L1.2353 27.8549C1.13042 27.7535 1.05615 27.6247 1.02099 27.4831C0.985823 27.3415 0.991173 27.1929 1.03643 27.0542C1.08168 26.9155 1.16502 26.7924 1.27693 26.6988C1.38883 26.6052 1.5248 26.5449 1.6693 26.5249L6.5253 25.8209L8.6973 21.4349C8.76226 21.3043 8.86238 21.1944 8.9864 21.1175C9.11042 21.0407 9.25341 21 9.3993 21C9.54519 21 9.68819 21.0407 9.81221 21.1175C9.93623 21.1944 10.0363 21.3043 10.1013 21.4349L12.2733 25.8209L17.1293 26.5249C17.2734 26.5457 17.4088 26.6063 17.5202 26.7C17.6316 26.7936 17.7146 26.9166 17.7598 27.055C17.8049 27.1934 17.8104 27.3416 17.7757 27.483C17.741 27.6244 17.6674 27.7532 17.5633 27.8549L14.0493 31.2689L14.8773 36.0889C14.9022 36.2327 14.8862 36.3805 14.8313 36.5156C14.7763 36.6507 14.6846 36.7677 14.5665 36.8533C14.4484 36.939 14.3086 36.9897 14.1631 36.9999C14.0176 37.0101 13.8722 36.9793 13.7433 36.9109L9.3993 34.6349Z" stroke="white" stroke-width="1.5" stroke-linecap="round" stroke-linejoin="round"/>
<path d="M20.9993 14.6349L16.6553 16.9109C16.5264 16.978 16.3814 17.008 16.2365 16.9974C16.0915 16.9869 15.9524 16.9362 15.8345 16.8512C15.7167 16.7661 15.6248 16.65 15.5692 16.5157C15.5135 16.3815 15.4963 16.2344 15.5193 16.0909L16.3493 11.2689L12.8353 7.85493C12.7305 7.75353 12.6562 7.62469 12.621 7.48311C12.5859 7.34152 12.5912 7.19291 12.6365 7.05422C12.6817 6.91553 12.7651 6.79236 12.877 6.69877C12.9889 6.60518 13.1248 6.54494 13.2693 6.52493L18.1253 5.82093L20.2973 1.43493C20.3623 1.3043 20.4624 1.19438 20.5864 1.11754C20.7105 1.04071 20.8534 1 20.9993 1C21.1452 1 21.2882 1.04071 21.4122 1.11754C21.5363 1.19438 21.6364 1.3043 21.7013 1.43493L23.8733 5.82093L28.7293 6.52493C28.8734 6.54565 29.0088 6.60628 29.1202 6.69996C29.2317 6.79364 29.3146 6.91663 29.3598 7.05501C29.405 7.19339 29.4105 7.34165 29.3758 7.48302C29.341 7.62438 29.2675 7.75321 29.1633 7.85493L25.6493 11.2689L26.4773 16.0889C26.5022 16.2327 26.4862 16.3805 26.4313 16.5156C26.3764 16.6507 26.2846 16.7677 26.1665 16.8533C26.0484 16.939 25.9087 16.9897 25.7632 16.9999C25.6177 17.0101 25.4722 16.9793 25.3433 16.9109L20.9993 14.6349Z" stroke="white" stroke-width="1.5" stroke-linecap="round" stroke-linejoin="round"/>
</svg>
