<svg width="49" height="48" viewBox="0 0 49 48" fill="none" xmlns="http://www.w3.org/2000/svg">
<path d="M16.6374 15.6037C17.0396 15.2738 17.6245 15.2738 18.0266 15.6037C20.8356 17.9083 24.3076 19.1697 27.8872 19.184C28.3524 19.1858 28.7742 19.483 28.88 19.9361C29.3252 21.8444 29.4433 23.8217 29.2265 25.7766C28.9805 27.9957 28.3081 30.1407 27.2494 32.0841C26.1907 34.0275 24.7672 35.7297 23.0635 37.0896C21.431 38.3926 19.5732 39.3558 17.5919 39.9275C17.4221 39.9764 17.2419 39.9764 17.0722 39.9275C15.0909 39.3558 13.2331 38.3926 11.6006 37.0896C9.89689 35.7297 8.47339 34.0275 7.41465 32.0841C6.35592 30.1407 5.68356 27.9957 5.43753 25.7766C5.22079 23.8217 5.33882 21.8444 5.78411 19.9361C5.88983 19.483 6.31163 19.1858 6.77688 19.184C10.3565 19.1697 13.8285 17.9083 16.6374 15.6037Z" fill="#003A5C"/>
<g filter="url(#filter0_b_8575_27053)">
<path d="M43.2717 13.3803C43.1701 11.8393 42.9016 10.3077 42.6566 8.77984C42.6112 8.49932 42.31 8.04862 42.134 8.05236C41.8491 8.05797 41.5298 8.33475 41.2993 8.57225C41.0943 8.78358 41.0126 9.11646 40.833 9.36331C39.4684 11.2465 38.1746 13.1952 36.6921 14.9737C35.6143 16.2659 34.1281 17.0102 32.4297 17.1841C30.7875 17.3524 29.5518 16.4136 29.3975 14.8671C29.2233 13.1054 30.2903 11.6224 31.9307 11.5457C32.7221 11.5084 33.5255 11.6979 34.3912 11.8241C34.5413 11.8459 34.6835 11.7491 34.7119 11.6002C35.1388 9.36386 33.6296 7.84674 31.3663 8.43574C29.7677 8.8509 28.4558 9.78035 27.3906 11.0502C26.7425 11.8234 26.1604 12.656 25.5936 13.427C25.4771 13.5854 25.2425 13.5887 25.1218 13.4334C24.3604 12.4536 23.6189 11.4195 22.7598 10.5003C21.6784 9.34274 20.3555 8.52176 18.7569 8.34223C16.7664 8.12128 15.4991 9.73288 15.9877 11.6123C16.0233 11.7491 16.1572 11.8341 16.2973 11.8157C17.1765 11.6999 18.043 11.5009 18.8912 11.5626C20.4535 11.6766 21.4679 13.1653 21.2773 14.8147C21.0886 16.4211 19.9128 17.3468 18.2887 17.1841C16.2782 16.984 14.6614 15.9517 13.4366 14.4089C12.0521 12.6622 10.8817 10.7378 9.58425 8.91636C9.39576 8.65097 9.12863 8.44562 8.86738 8.2359C8.71946 8.11716 8.49323 8.15109 8.38568 8.30733C8.20758 8.56605 8.02461 8.8235 7.95295 9.11085C7.30515 11.7253 7.19446 14.3846 7.48116 17.0588C7.77149 19.7817 8.51728 22.3531 10.1595 24.5598C11.8597 26.8451 14.2422 27.509 16.8316 26.4431C17.5847 26.1326 18.2851 25.6875 19.0436 25.3977C19.2515 25.3175 19.4951 25.3353 19.7411 25.3601C19.9438 25.3804 20.0903 25.5915 20.0351 25.7876C19.9723 26.011 19.9055 26.2311 19.7894 26.4187C18.9982 27.6904 17.5702 28.6012 17.7172 30.3965C17.7226 30.4619 17.6228 30.5479 17.5575 30.6097C16.8532 31.2603 16.1458 31.9109 15.4737 32.5294C15.3887 32.6076 15.264 32.6329 15.163 32.5769C14.5302 32.2264 14.9222 31.7084 14.9608 31.2754C15.0189 30.6452 14.8701 30.1272 14.2078 30.0037C13.5926 29.8878 13.2297 30.2487 13.1444 30.8621C13.0428 31.5821 12.6454 31.8739 11.9777 32.0702C11.8724 32.102 11.573 32.2105 11.4605 32.3489C11.152 32.721 11.2174 33.2858 11.5966 33.5813C11.7472 33.6991 12.2045 34.017 12.7253 33.8337C13.364 33.6093 13.7251 33.8001 14.1515 34.2115C15.028 35.0624 15.9371 35.8778 16.8407 36.6988C17.2871 37.1027 17.7734 37.1812 18.1944 36.6875C18.6027 36.2088 18.5156 35.7244 18.0655 35.298C17.6976 34.9518 17.3335 34.6002 16.9423 34.2247C16.8175 34.105 16.8192 33.9047 16.9459 33.7869C17.5189 33.2538 18.0446 32.7544 18.59 32.2797C18.7297 32.1562 18.9511 32.1039 19.1416 32.074C19.9581 31.9543 20.7965 31.93 21.5913 31.7224C22.1995 31.5626 22.7623 31.2191 23.3408 30.9387C23.4219 30.8995 23.518 30.9133 23.5854 30.9731C23.6506 31.0308 23.6773 31.121 23.6559 31.2055C23.5211 31.7373 23.4447 32.3109 23.1609 32.7341C22.6891 33.4373 22.1883 34.0589 21.5913 34.6667C21.0977 35.166 20.6096 35.6144 20.1523 36.1437C19.49 36.9086 19.4319 37.4861 20.3465 37.8938C20.6205 38.0153 20.9345 38.2055 21.2085 38.3289C22.4352 38.8899 23.6399 39.3412 24.8793 39.8705C25.175 39.9976 25.332 40.0786 25.8882 39.8817C26.6734 39.6036 28.7569 38.9121 29.9182 38.3289C30.5794 37.9968 31.1667 37.7518 31.1667 37.1027C31.1667 36.6988 30.3755 35.7792 29.9182 35.2593C29.1924 34.4364 28.3251 33.7099 27.5956 32.8889C27.1613 32.4006 27.0184 31.8814 27.161 31.2458C27.1975 31.0828 27.3725 30.9988 27.5281 31.0597C28.6047 31.4818 29.6285 32.0965 30.6278 32.0553C31.996 31.9973 32.7055 32.7435 33.4967 33.5326C33.7416 33.7758 33.9194 34.1853 33.9576 34.5388C34.1318 36.1302 35.3185 37.2878 36.8572 37.2897C38.3924 37.2916 39.7533 36.1302 39.7733 34.5612C39.7878 33.456 39.0873 32.1207 37.6103 31.7729C36.4836 31.5063 36.1732 31.9384 34.6177 31.9017C34.5436 31.9 34.473 31.8694 34.4178 31.82C33.8163 31.2826 32.779 30.7373 32.8724 29.3193C32.8924 29.007 32.5948 28.6442 32.3825 28.3506C31.898 27.6792 31.3518 27.0546 30.88 26.372C30.7755 26.2197 30.7279 26.0256 30.6855 25.8278C30.6463 25.6449 30.7743 25.4523 30.9575 25.4146C31.1592 25.3732 31.358 25.3397 31.5224 25.4033C32.3081 25.71 33.0485 26.1364 33.8251 26.4674C36.4526 27.5894 38.8478 26.9386 40.5644 24.6066C41.0344 23.9689 41.4281 23.2601 41.7747 22.542C43.1701 19.6489 43.4841 16.5464 43.2717 13.3803Z" fill="#C8E3EF" fill-opacity="0.7"/>
</g>
<defs>
<filter id="filter0_b_8575_27053" x="3.33203" y="4.05078" width="44" height="39.9492" filterUnits="userSpaceOnUse" color-interpolation-filters="sRGB">
<feFlood flood-opacity="0" result="BackgroundImageFix"/>
<feGaussianBlur in="BackgroundImageFix" stdDeviation="2"/>
<feComposite in2="SourceAlpha" operator="in" result="effect1_backgroundBlur_8575_27053"/>
<feBlend mode="normal" in="SourceGraphic" in2="effect1_backgroundBlur_8575_27053" result="shape"/>
</filter>
</defs>
</svg>
