<svg width="40" height="40" viewBox="0 0 40 40" fill="none" xmlns="http://www.w3.org/2000/svg">
<path d="M5 35V31.6667C5 29.8986 5.70238 28.2029 6.95262 26.9526C8.20286 25.7024 9.89856 25 11.6667 25H18.3333C20.1014 25 21.7971 25.7024 23.0474 26.9526C24.2976 28.2029 25 29.8986 25 31.6667V35M26.6667 5.21667C28.1007 5.58384 29.3717 6.41784 30.2794 7.58719C31.1871 8.75654 31.6797 10.1947 31.6797 11.675C31.6797 13.1553 31.1871 14.5935 30.2794 15.7628C29.3717 16.9322 28.1007 17.7662 26.6667 18.1333M35 35V31.6667C34.9915 30.1953 34.4965 28.768 33.5921 27.6074C32.6877 26.4467 31.4247 25.6179 30 25.25M21.6667 11.6667C21.6667 15.3486 18.6819 18.3333 15 18.3333C11.3181 18.3333 8.33333 15.3486 8.33333 11.6667C8.33333 7.98477 11.3181 5 15 5C18.6819 5 21.6667 7.98477 21.6667 11.6667Z" stroke="#0079C1" stroke-width="1.5" stroke-linecap="round" stroke-linejoin="round"/>
</svg>
