<svg width="82" height="100" viewBox="0 0 82 100" fill="none" xmlns="http://www.w3.org/2000/svg">
<g clip-path="url(#clip0_7501_237119)">
<path fill-rule="evenodd" clip-rule="evenodd" d="M19.6775 90.8942C21.306 90.8942 22.6274 92.3714 22.6274 94.1912C22.6274 96.0109 21.306 97.4882 19.6775 97.4882C18.0491 97.4882 16.7278 96.0109 16.7278 94.1912C16.7278 92.3714 18.0491 90.8942 19.6775 90.8942ZM19.6775 88.3824C22.922 88.3824 25.5532 90.9837 25.5532 94.1912C25.5532 97.3987 22.922 100 19.6775 100C16.4331 100 13.802 97.3987 13.802 94.1912C13.802 90.9837 16.4331 88.3824 19.6775 88.3824ZM33.4185 90.8942C34.4254 90.8942 35.3726 91.3433 35.9049 92.2046L37.8349 90.361C36.7579 89.1484 35.1787 88.3824 33.4185 88.3824C30.1742 88.3824 27.543 90.9837 27.543 94.1912C27.543 97.3987 30.1742 100 33.4185 100C35.2195 100 36.831 99.198 37.9089 97.9362L35.9034 96.226C35.3679 97.0599 34.4063 97.4882 33.4185 97.4882C31.7901 97.4882 30.4688 96.0109 30.4688 94.1912C30.4688 92.3714 31.7901 90.8942 33.4185 90.8942ZM52.8403 94.9536H61.2797C61.3116 94.7041 61.3282 94.4496 61.3282 94.1912C61.3282 90.9837 58.7904 88.3824 55.661 88.3824C52.5317 88.3824 49.9938 90.9837 49.9938 94.1912C49.9938 97.3987 52.5317 100 55.661 100C57.4457 100 59.4976 99.6983 60.5365 98.3763L59.2462 96.5164C58.5989 97.4432 56.8865 97.7013 55.7938 97.7013C54.3494 97.7013 53.1406 96.5249 52.8403 94.9536ZM52.9046 93.1477C53.2878 91.7193 54.4368 90.681 55.7937 90.681C57.1507 90.681 58.2998 91.7193 58.683 93.1477H52.9046ZM39.613 88.6478H48.6955V91.1402H45.5565V99.7345H42.752V91.1402H39.613V88.6478ZM65.9704 94.019L62.1472 88.6478H65.5246L67.8128 92.0798L70.101 88.6478H73.4785L69.6553 94.019L73.6516 99.7345H70.3878L67.8128 96.0236L65.2378 99.7345H61.9741L65.9704 94.019ZM67.8128 92.5991L67.7997 92.621L67.8128 92.6213L67.826 92.621L67.8128 92.5991ZM6.97949 87.1916C8.19759 87.1916 9.18538 88.1754 9.18538 89.3885C9.18538 90.6017 8.19759 91.5855 6.97949 91.5855H3.26149V87.1916H6.97949ZM0.180847 84.5827H7.61362C10.2782 84.5827 12.4391 86.7348 12.4391 89.3885C12.4391 92.0423 10.2782 94.1943 7.61362 94.1943H3.26149V99.7345H0.180847V84.5827Z" fill="black"/>
<path fill-rule="evenodd" clip-rule="evenodd" d="M9.40581 9.36757H33.9989L24.5931 0H0V24.4932L9.40581 33.8608V9.36757ZM39.0769 9.36757H63.6701V33.8608L73.0759 24.4932V0H48.4827L39.0769 9.36757ZM63.6701 38.918V63.4112H39.0769L48.4827 72.7788H73.0759V48.2856L63.6701 38.918ZM33.9989 63.4112H9.40581V38.918L0 48.2856V72.7788H24.5931L33.9989 63.4112Z" fill="black"/>
<path d="M75.7007 0.396347H78.0538V0.901601H77.131V3.70759H76.6235V0.901601H75.7007V0.396347ZM80.1672 2.86152L81.2693 0.396549H81.8343V3.70752H81.3267V1.53194L80.351 3.70752H79.9834L79.0077 1.53194V3.70752H78.5002V0.396549H79.0651L80.1672 2.86152Z" fill="black"/>
</g>
<defs>
<clipPath id="clip0_7501_237119">
<rect width="82" height="100" fill="white"/>
</clipPath>
</defs>
</svg>
