<svg width="253" height="124" viewBox="0 0 253 124" fill="none" xmlns="http://www.w3.org/2000/svg">
<path d="M79.1298 80.279H94.8589V85.4053H87.3764V121.424H79.1298V80.279Z" fill="#0079C2"/>
<path d="M104.184 105.978L105.598 85.4053H106.071L107.484 105.978H104.184ZM95.0518 121.424H103.126L103.89 110.497H107.778L108.546 121.424H116.617L112.316 80.279H99.3526L95.0518 121.424Z" fill="#0079C2"/>
<path d="M128.427 107.023V114.78C128.427 115.825 129.239 116.129 129.712 116.129C130.49 116.129 131.031 115.488 131.031 114.78V105.202C131.031 103.92 130.794 102.504 127.717 102.504H124.37V97.9848H127.852C130.185 97.9848 131.031 97.4452 131.031 94.9158V86.7543C131.031 86.0461 130.49 85.4053 129.712 85.4053C129.239 85.4053 128.427 85.6751 128.427 86.7543V93.4656H120.177V87.6311C120.177 84.7645 120.515 80.279 126.297 80.279H133.127C138.909 80.279 139.281 84.7645 139.281 87.6311V94.2075C139.281 98.693 136.136 99.9071 133.668 99.8059V100.211C139.213 100.076 139.281 104.325 139.281 105.775V114.072C139.281 116.972 138.909 121.424 133.127 121.424H126.297C120.515 121.424 120.177 116.972 120.177 114.072V107.023H128.427Z" fill="#0079C2"/>
<path d="M144.691 80.279H163.794V121.424H155.544V85.4053H152.941V121.424H144.691V80.279Z" fill="#0079C2"/>
<path d="M177.454 102.909V85.4053H178.536C179.415 85.4053 180.058 86.1472 180.058 87.4625V100.851C180.058 102.167 179.415 102.909 178.536 102.909H177.454ZM169.204 121.424H177.454V107.428H182.188C187.936 107.428 188.308 102.976 188.308 100.076V87.6311C188.308 84.7645 187.936 80.279 182.188 80.279H169.204V121.424Z" fill="#0079C2"/>
<path d="M204.571 114.78C204.571 115.488 204.03 116.129 203.253 116.129C202.779 116.129 201.968 115.825 201.968 114.78V86.7543C201.968 85.6751 202.779 85.4053 203.253 85.4053C204.03 85.4053 204.571 86.0461 204.571 86.7543V114.78ZM193.718 114.072C193.718 116.972 194.09 121.424 199.838 121.424H206.701C212.449 121.424 212.821 116.972 212.821 114.072V87.6311C212.821 84.7645 212.449 80.279 206.701 80.279H199.838C194.09 80.279 193.718 84.7645 193.718 87.6311V114.072Z" fill="#0079C2"/>
<path d="M239.668 80.279H250.42V121.424H242.17V95.624H241.865L237.605 121.424H231.012L226.785 95.624H226.481V121.424H218.231V80.279H228.949L234.325 109.215L239.668 80.279Z" fill="#0079C2"/>
<path d="M68.4386 24.0254C65.9128 12.9973 59.5833 4.0264 58.7109 2.57622C57.3314 4.63345 52.2833 12.5589 49.717 21.3274C46.914 31.1415 46.5015 39.8426 47.4685 48.375C48.4288 56.9412 52.0568 65.7435 52.0568 65.7435C53.9841 70.3301 56.8716 75.2877 58.7515 77.7159C61.5071 74.1411 67.8401 63.4839 69.8147 49.5891C70.9136 41.8323 70.9609 35.0536 68.4386 24.0254ZM58.7109 74.9505C57.47 72.6234 55.5428 68.2055 55.3602 61.3255C55.3128 54.7154 57.9738 49.0158 58.7515 47.8354C59.4446 49.0158 61.7371 53.9734 62.011 60.7522C62.1969 67.3623 59.9924 72.5897 58.7109 74.9505ZM67.7048 42.7429C67.6102 46.9586 67.1064 51.4103 66.4639 54.0746C66.6939 49.488 66.1427 43.0464 65.0878 37.9877C64.0329 32.9626 61.0473 24.5313 58.6636 20.6529C56.4625 24.3627 53.7508 31.6473 52.3307 37.9539C50.9038 44.2605 50.8632 51.9162 50.8632 54.2095C50.4845 52.2871 49.5378 45.3735 49.8049 38.4598C50.0281 32.7603 51.367 26.8584 52.1007 24.1603C54.9003 15.1557 58.0685 9.3887 58.6636 8.47811C59.2587 9.3887 63.2485 16.5047 65.3177 23.958C67.3769 31.4113 67.7928 38.561 67.7048 42.7429Z" fill="#0079C2"/>
<path d="M62.9948 80.279H43.7932V93.1283C43.8101 93.1283 43.8236 93.0947 43.8405 93.0947C48.3645 88.5755 55.7016 88.5755 60.229 93.0947C64.753 97.5801 64.753 104.898 60.229 109.418C60.2088 109.451 60.1885 109.451 60.1682 109.485C60.1445 109.485 60.1208 109.519 60.1005 109.553C55.5867 114.004 49.6899 116.23 43.7932 116.23C37.8694 116.23 31.9455 114.004 27.4283 109.485C19.4623 101.56 18.5189 89.2499 24.5915 80.279C25.4097 79.0649 26.3531 77.9183 27.4283 76.8391C31.9455 72.3199 37.8694 70.094 43.7932 70.094V39.2018C21.0311 39.2018 2.58008 57.582 2.58008 80.279C2.58008 102.976 21.0311 121.39 43.7932 121.39C55.6611 121.39 66.3523 116.365 73.872 108.372V80.279H62.9948Z" fill="#0079C2"/>
</svg>
