<svg width="184" height="65" viewBox="0 0 184 65" fill="none" xmlns="http://www.w3.org/2000/svg">
<g clip-path="url(#clip0_7501_237263)">
<path d="M37.56 36.88C36.6613 37.872 35.4888 38.5753 34.1905 38.901C32.8922 39.2268 31.5265 39.1604 30.266 38.7103C29.0055 38.2601 27.9066 37.4464 27.1084 36.372C26.3102 35.2975 25.8483 34.0106 25.7813 32.6737C25.7142 31.3369 26.045 30.0102 26.7317 28.8613C27.4184 27.7124 28.4303 26.7928 29.6395 26.2188C30.8486 25.6447 32.2008 25.442 33.5252 25.6363C34.8495 25.8305 36.0866 26.4129 37.08 27.31C37.7417 27.9057 38.2792 28.6263 38.6616 29.4303C39.044 30.2344 39.2639 31.106 39.3085 31.9953C39.3531 32.8845 39.2216 33.7738 38.9215 34.6121C38.6215 35.4503 38.1588 36.2211 37.56 36.88Z" fill="url(#paint0_radial_7501_237263)"/>
<path d="M34.31 9.14001C34.87 9.70001 35.4 10.27 35.87 10.84C37.5054 12.791 38.8524 14.9665 39.87 17.3C41.475 17.5993 43.109 17.7134 44.74 17.64H45.03H45.29C49.7455 17.2329 53.9041 15.23 57 12L57.41 11.58C56.79 10.84 56.16 10.12 55.47 9.43001C49.9624 3.9419 42.664 0.618796 34.9084 0.0679729C27.1528 -0.48285 19.4579 1.77539 13.23 6.43001C23.13 1.61001 30 4.93001 34.31 9.14001Z" fill="url(#paint1_linear_7501_237263)"/>
<path d="M11.39 42C11.59 41.23 11.82 40.49 12.07 39.8C12.9469 37.4106 14.159 35.1581 15.67 33.11C15.1291 31.5719 14.411 30.102 13.53 28.73L13.37 28.48L13.22 28.27C10.6542 24.6504 6.87553 22.071 2.57001 21L2.00001 20.83C1.67001 21.73 1.37001 22.64 1.11001 23.58C-0.893618 31.0912 -0.128111 39.0725 3.26669 46.0659C6.66149 53.0593 12.459 58.5979 19.6 61.67C10.45 55.47 9.88001 47.83 11.39 42Z" fill="url(#paint2_linear_7501_237263)"/>
<path d="M51.4 45.47C50.63 45.68 49.87 45.85 49.14 45.98C46.6334 46.414 44.0776 46.4881 41.55 46.2C40.4923 47.4241 39.5796 48.7663 38.83 50.2C38.83 50.29 38.74 50.37 38.7 50.46C38.6592 50.5381 38.6225 50.6182 38.59 50.7C36.7189 54.7334 36.3639 59.3061 37.59 63.58C37.59 63.77 37.7 63.96 37.76 64.15C38.7 63.98 39.65 63.8 40.59 63.55C48.0833 61.5224 54.5995 56.8718 58.9529 50.4446C63.3062 44.0173 65.2072 36.2407 64.31 28.53C63.51 39.56 57.18 43.86 51.4 45.47Z" fill="url(#paint3_linear_7501_237263)"/>
<path d="M13.18 6.42999C8.43911 9.74234 4.73286 14.3292 2.48999 19.66C5.82476 20.3641 8.91407 21.9374 11.4447 24.2205C13.9754 26.5035 15.8574 29.4151 16.9 32.66C17.79 32.09 20.53 29.92 22.37 23.96C24.6 16.75 28.82 11.43 34.31 9.10999C34.31 9.13999 27.36 -0.750007 13.18 6.42999Z" fill="url(#paint4_linear_7501_237263)"/>
<path d="M35.44 58.34C35.4361 53.5086 37.2454 48.8516 40.51 45.29L40.56 45.22C39.89 44.51 37.56 42.77 31.56 44.13C24.25 45.8 16.13 45.61 11.39 42C11.39 42 6.29001 53 19.6 61.65C24.8308 64.1004 30.6487 65.0192 36.38 64.3C35.7418 62.3784 35.4242 60.3648 35.44 58.34Z" fill="url(#paint5_linear_7501_237263)"/>
<path d="M58.2 12.66C56.4095 14.695 54.2068 16.3261 51.7379 17.445C49.2691 18.5639 46.5906 19.1451 43.88 19.15C42.4517 19.1449 41.0277 18.9941 39.63 18.7H39.56C39.28 19.7 39.06 22.55 43.11 26.91C48.24 32.45 52.11 39.57 51.4 45.48C51.4 45.48 63.4 44.41 64.31 28.54C63.8145 22.7757 61.696 17.2698 58.2 12.66Z" fill="url(#paint6_linear_7501_237263)"/>
<path d="M79.24 40.54H75.87V24.83H81.28C85.28 24.83 87.72 26.47 87.72 30.08C87.72 33.69 85.16 35.63 81 35.63H79.24V40.54ZM79.17 32.66H81C83 32.66 84.23 31.88 84.23 30.22C84.23 28.56 83.1 27.8 81 27.8H79.17V32.66Z" fill="#1A1A1A"/>
<path d="M90.17 32.69C90.17 27.41 93.38 24.56 97.71 24.56C102.56 24.56 105.37 27.64 105.37 32.69C105.37 38.28 102.11 40.81 97.8 40.81C93.25 40.81 90.17 38 90.17 32.69ZM101.8 32.69C101.8 29.12 100.16 27.53 97.71 27.53C95.49 27.53 93.71 29.19 93.71 32.69C93.71 36.19 95.53 37.85 97.89 37.85C100.25 37.85 101.8 36.21 101.8 32.69Z" fill="#1A1A1A"/>
<path d="M120.35 39.91C119.038 40.5806 117.571 40.8912 116.1 40.81C111.3 40.81 108.1 38.05 108.1 32.89C108.1 27.48 111.26 24.56 116.4 24.56C117.77 24.5283 119.132 24.7802 120.4 25.3L119.66 28.13C118.774 27.8412 117.851 27.6829 116.92 27.66C113.82 27.66 111.71 29.21 111.71 32.66C111.71 35.98 113.71 37.66 116.9 37.66C117.855 37.6292 118.797 37.4259 119.68 37.06L120.35 39.91Z" fill="#1A1A1A"/>
<path d="M132.67 36.35H126L124.48 40.54H122.48L128.48 24.83H130.48L136.36 40.54H134.25L132.67 36.35ZM126.61 34.51H132L129.38 27.12H129.29L126.61 34.51Z" fill="#1A1A1A"/>
<path d="M143.3 40.54H141.3V26.72H136.65V24.83H147.96V26.72H143.3V40.54Z" fill="#1A1A1A"/>
<path d="M150.08 32.69C150.08 27.69 152.98 24.61 157.08 24.61C161.75 24.61 164.26 27.93 164.26 32.69C164.26 38.03 161.26 40.77 157.15 40.77C152.84 40.77 150.08 37.67 150.08 32.69ZM162.16 32.69C162.16 28.38 160.23 26.49 157.16 26.49C154.4 26.49 152.27 28.49 152.27 32.69C152.27 36.89 154.33 38.88 157.43 38.88C160.34 38.88 162.16 36.75 162.16 32.69Z" fill="#1A1A1A"/>
<path d="M183.82 40.54H181.82L180.82 28.27L176.82 40.54H174.71L170.77 28.31L169.77 40.54H167.77L169.11 24.83H171.58L175.82 38.34L180 24.83H182.47L183.82 40.54Z" fill="#1A1A1A"/>
</g>
<defs>
<radialGradient id="paint0_radial_7501_237263" cx="0" cy="0" r="1" gradientUnits="userSpaceOnUse" gradientTransform="translate(30.4288 27.5576) scale(9.5077)">
<stop stop-color="#4495D1"/>
<stop offset="1" stop-color="#15256D"/>
</radialGradient>
<linearGradient id="paint1_linear_7501_237263" x1="23.2701" y1="2.17717" x2="51.7241" y2="13.6323" gradientUnits="userSpaceOnUse">
<stop stop-color="#4495D1"/>
<stop offset="1" stop-color="#15256D"/>
</linearGradient>
<linearGradient id="paint2_linear_7501_237263" x1="10.9039" y1="55.0784" x2="6.60704" y2="24.7115" gradientUnits="userSpaceOnUse">
<stop stop-color="#4495D1"/>
<stop offset="1" stop-color="#15256D"/>
</linearGradient>
<linearGradient id="paint3_linear_7501_237263" x1="62.9749" y1="39.3643" x2="38.8275" y2="58.2786" gradientUnits="userSpaceOnUse">
<stop stop-color="#4495D1"/>
<stop offset="1" stop-color="#15256D"/>
</linearGradient>
<linearGradient id="paint4_linear_7501_237263" x1="11.88" y1="23.95" x2="24.67" y2="4.31999" gradientUnits="userSpaceOnUse">
<stop stop-color="#4495D1"/>
<stop offset="1" stop-color="#15256D"/>
</linearGradient>
<linearGradient id="paint5_linear_7501_237263" x1="36.08" y1="51.93" x2="13.14" y2="54.27" gradientUnits="userSpaceOnUse">
<stop stop-color="#4495D1"/>
<stop offset="1" stop-color="#15256D"/>
</linearGradient>
<linearGradient id="paint6_linear_7501_237263" x1="50.85" y1="18.75" x2="55.52" y2="42.36" gradientUnits="userSpaceOnUse">
<stop stop-color="#4495D1"/>
<stop offset="1" stop-color="#15256D"/>
</linearGradient>
<clipPath id="clip0_7501_237263">
<rect width="183.82" height="64.56" fill="white"/>
</clipPath>
</defs>
</svg>
