<svg width="123" height="78" viewBox="0 0 123 78" fill="none" xmlns="http://www.w3.org/2000/svg">
<g clip-path="url(#clip0_7501_237096)">
<path fill-rule="evenodd" clip-rule="evenodd" d="M61.4999 11.7955L61.8344 11.703C45.1909 16.8582 32.0225 25.6899 31.7516 32.1765C31.4616 39.1198 46.0577 40.7481 64.3446 35.8162C82.6314 30.8844 97.6953 21.2535 97.9841 14.3108C98.1338 10.7135 94.2819 8.54419 87.9945 7.97319C95.6799 8.31579 100.494 10.5516 100.494 14.5429C100.494 22.1504 83.0326 33.2568 61.4999 39.3491C39.9672 45.4414 22.5055 44.2076 22.5055 36.6003C22.5055 28.993 39.9672 17.8864 61.4999 11.7961" fill="#6D6E71"/>
<path fill-rule="evenodd" clip-rule="evenodd" d="M30.9655 51.7948L85.0228 0L80.1229 40.7161L71.1846 30.5014L30.9655 51.7948Z" fill="#ED1941"/>
<path d="M9.54264 69.0892C9.54264 71.2778 7.96501 73.3904 5.23403 73.3904H2.46301V77.6921H0V64.7876H4.61708C7.98401 64.7876 9.54264 66.5921 9.54264 69.0892ZM7.07986 69.0892C7.07986 67.8787 6.11873 67.2456 4.92556 67.2456H2.46301V70.9324H4.92556C6.11942 70.9324 7.07986 70.1643 7.07986 69.0892Z" fill="#6D6E71"/>
<path d="M24.7083 71.2378C24.7088 72.575 24.3119 73.8823 23.5679 74.9944C22.8239 76.1065 21.7661 76.9734 20.5284 77.4854C19.2907 77.9975 17.9287 78.1317 16.6146 77.8711C15.3005 77.6105 14.0933 76.9668 13.1458 76.0214C12.1982 75.076 11.5529 73.8713 11.2913 72.5598C11.0298 71.2483 11.1638 69.8889 11.6764 68.6534C12.189 67.4179 13.0572 66.3619 14.1712 65.619C15.2852 64.876 16.5949 64.4794 17.9347 64.4794C19.7299 64.4823 21.4507 65.1952 22.7204 66.462C23.99 67.7287 24.7048 69.446 24.7083 71.2378ZM22.2453 71.2378C22.2451 70.3871 21.9921 69.5556 21.5184 68.8484C21.0447 68.1412 20.3715 67.59 19.584 67.2646C18.7965 66.9392 17.93 66.8542 17.0941 67.0202C16.2582 67.1863 15.4903 67.5959 14.8877 68.1975C14.285 68.799 13.8746 69.5654 13.7082 70.3997C13.5419 71.2341 13.6272 72.0989 13.9533 72.8849C14.2793 73.6708 14.8316 74.3426 15.5402 74.8154C16.2488 75.2881 17.0819 75.5406 17.9342 75.5408C18.5007 75.542 19.0619 75.4315 19.5854 75.2157C20.109 74.9998 20.5848 74.6829 20.9853 74.2831C21.3859 73.8833 21.7034 73.4085 21.9196 72.8859C22.1359 72.3633 22.2465 71.8032 22.2453 71.2378Z" fill="#6D6E71"/>
<path d="M36.5419 74.2166L37.484 76.4453C36.3142 77.4427 34.8279 77.9939 33.2894 78.0009C29.4986 78.0009 26.4013 74.9657 26.4013 71.2403C26.4013 67.5149 29.4986 64.482 33.2894 64.482C34.7324 64.482 36.3881 65.0191 37.484 66.0179L36.541 68.2457C35.6829 67.4072 34.5292 66.9385 33.3283 66.9404C30.8655 66.9404 28.8643 68.859 28.8643 71.2403C28.8643 73.6216 30.8655 75.5433 33.3283 75.5433C33.9257 75.5487 34.5181 75.4339 35.0702 75.206C35.6223 74.9781 36.1228 74.6416 36.5419 74.2166Z" fill="#6D6E71"/>
<path d="M51.1382 77.6921H48.021L43.1327 72.0463V77.6921H40.6704V64.7876H43.1327V70.1264L47.7132 64.7876H50.8307L45.2875 70.9514L51.1382 77.6921Z" fill="#6D6E71"/>
<path d="M65.1966 71.2378C65.197 72.5751 64.8001 73.8824 64.056 74.9945C63.3119 76.1067 62.2541 76.9735 61.0163 77.4855C59.7786 77.9975 58.4165 78.1317 57.1023 77.871C55.7882 77.6102 54.581 76.9664 53.6335 76.0209C52.686 75.0753 52.0408 73.8706 51.7794 72.559C51.518 71.2474 51.6522 69.8879 52.165 68.6525C52.6778 67.417 53.5463 66.3611 54.6604 65.6183C55.7746 64.8755 57.0844 64.4792 58.4243 64.4794C60.2193 64.4823 61.9401 65.1953 63.2095 66.4621C64.4789 67.7288 65.1934 69.4462 65.1966 71.2378ZM62.7343 71.2378C62.734 70.387 62.481 69.5555 62.0072 68.8483C61.5335 68.141 60.8602 67.5899 60.0727 67.2645C59.2851 66.9392 58.4186 66.8542 57.5826 67.0203C56.7466 67.1864 55.9788 67.5962 55.3762 68.1979C54.7736 68.7995 54.3632 69.566 54.197 70.4004C54.0308 71.2348 54.1163 72.0997 54.4425 72.8856C54.7688 73.6716 55.3212 74.3433 56.0299 74.816C56.7387 75.2886 57.5719 75.5408 58.4243 75.5408C58.9906 75.5418 59.5516 75.4311 60.0749 75.2151C60.5983 74.9992 61.0738 74.6822 61.4742 74.2824C61.8746 73.8827 62.1919 73.4079 62.408 72.8854C62.6241 72.3629 62.7348 71.803 62.7336 71.2378H62.7343Z" fill="#6D6E71"/>
<path d="M77.0294 74.2166L77.9725 76.4444C76.8027 77.4416 75.3167 77.9928 73.7783 78C69.9876 78 66.8902 74.9648 66.8902 71.2394C66.8902 67.514 69.9876 64.481 73.7783 64.481C75.2216 64.481 76.8754 65.0182 77.9725 66.017L77.0294 68.2448C76.1715 67.4064 75.018 66.9377 73.8172 66.9395C71.3544 66.9395 69.3528 68.8581 69.3528 71.2394C69.3528 73.6207 71.3544 75.5424 73.8172 75.5424C74.4144 75.5477 75.0065 75.433 75.5583 75.2052C76.1101 74.9774 76.6104 74.6412 77.0294 74.2166Z" fill="#6D6E71"/>
<path d="M95.3595 77.6921H92.7425L91.6654 69.2427L88.2801 77.6921H87.049L83.6621 69.2427L82.5845 77.6921H79.9673L81.8147 64.7876H84.2773L87.6641 73.0839L91.0509 64.7876H93.5137L95.3595 77.6921Z" fill="#6D6E71"/>
<path d="M110.223 71.2378C110.224 72.575 109.827 73.8823 109.083 74.9944C108.339 76.1065 107.281 76.9734 106.043 77.4854C104.806 77.9975 103.444 78.1317 102.13 77.8711C100.816 77.6105 99.6084 76.9668 98.6608 76.0214C97.7133 75.076 97.0679 73.8713 96.8064 72.5598C96.5448 71.2483 96.6788 69.8889 97.1914 68.6534C97.7041 67.4179 98.5723 66.3619 99.6862 65.619C100.8 64.876 102.11 64.4794 103.45 64.4794C105.245 64.4819 106.966 65.1947 108.236 66.4615C109.506 67.7283 110.22 69.4459 110.223 71.2378ZM107.761 71.2378C107.76 70.387 107.507 69.5555 107.034 68.8483C106.56 68.141 105.887 67.5899 105.099 67.2645C104.311 66.9392 103.445 66.8542 102.609 67.0203C101.773 67.1864 101.005 67.5962 100.403 68.1979C99.7999 68.7995 99.3896 69.566 99.2234 70.4004C99.0572 71.2348 99.1426 72.0997 99.4689 72.8856C99.7951 73.6716 100.348 74.3433 101.056 74.816C101.765 75.2886 102.598 75.5408 103.451 75.5408C104.017 75.5419 104.578 75.4313 105.102 75.2154C105.625 74.9995 106.101 74.6826 106.501 74.2828C106.902 73.883 107.219 73.4082 107.435 72.8856C107.651 72.3631 107.762 71.8031 107.761 71.2378H107.761Z" fill="#6D6E71"/>
<path d="M122.057 74.2166L123 76.4444C121.83 77.4417 120.344 77.9928 118.805 78C115.015 78 111.917 74.9648 111.917 71.2394C111.917 67.514 115.015 64.481 118.805 64.481C120.249 64.481 121.903 65.0182 123 66.017L122.057 68.2448C121.199 67.4063 120.045 66.9376 118.844 66.9395C116.381 66.9395 114.381 68.8581 114.381 71.2394C114.381 73.6207 116.381 75.5424 118.844 75.5424C119.441 75.5476 120.034 75.4329 120.586 75.2052C121.137 74.9774 121.638 74.6412 122.057 74.2166Z" fill="#6D6E71"/>
</g>
<defs>
<clipPath id="clip0_7501_237096">
<rect width="123" height="78" fill="white"/>
</clipPath>
</defs>
</svg>
