<svg width="178" height="38" viewBox="0 0 178 38" fill="none" xmlns="http://www.w3.org/2000/svg">
<path d="M155.642 7.32808C150.478 7.42734 146.827 10.7028 146.827 10.7028C143.045 14.1107 143.045 18.9081 143.045 18.9081C143.045 23.7055 146.827 27.0803 146.827 27.0803C150.478 30.3889 155.642 30.4881 155.642 30.4881H156.3C161.464 30.3889 165.115 27.0803 165.115 27.0803C168.898 23.7055 168.898 18.9081 168.898 18.9081C168.898 14.1107 165.115 10.7028 165.115 10.7028C161.464 7.42734 156.3 7.32808 156.3 7.32808H155.642ZM155.84 11.9932C155.84 11.9932 158.372 11.9932 160.148 14.0776C160.148 14.0776 161.957 16.1951 161.957 19.1728C161.957 19.1728 161.957 22.1505 160.148 24.2349C160.148 24.2349 158.372 26.3524 155.84 26.3524C155.84 26.3524 153.307 26.3524 151.498 24.2349C151.498 24.2349 149.722 22.1505 149.722 19.1728C149.722 19.1728 149.722 16.1951 151.498 14.0776C151.498 14.0776 153.307 11.9932 155.84 11.9932Z" fill="#003970"/>
<path d="M169.588 30.4881H176.825V7.32808H169.588V30.4881Z" fill="#003970"/>
<path d="M90.5162 28.6684C90.5162 28.6684 89.069 29.4294 87.3586 29.8926L82.9182 30.4881H81.6683L77.491 29.9918C77.491 29.9918 75.5833 29.5286 74.0045 28.6684C74.0045 28.6684 70.6495 26.8818 70.5837 24.3672V7.32808H77.491V22.8784C77.491 22.8784 77.5239 24.1687 78.9383 25.0951C78.9383 25.0951 80.3855 26.0877 82.4248 26.0877C82.4248 26.0877 84.4641 26.0877 85.9113 25.0951C85.9113 25.0951 87.3257 24.1687 87.3586 22.8784V7.32808H93.937V24.3672C93.937 24.3672 93.8712 26.8818 90.5162 28.6684Z" fill="#003970"/>
<path d="M107.225 24.7312L111.567 30.4881H119.494L111.271 18.9081L119.395 7.32808H111.732L103.147 18.9081V7.32808H96.5683V30.4881H103.147L107.225 24.7312Z" fill="#003970"/>
<path d="M141.63 7.32808V30.4881H135.052V21.6211H126.829V30.4881H120.251V7.32808H126.829V16.6583H135.052V7.32808H141.63Z" fill="#003970"/>
<path d="M57.6572 7.32808C57.6572 7.32808 53.5457 7.42734 50.6183 9.41248C50.6183 9.41248 47.5594 11.53 47.5594 14.5077C47.5594 14.5077 47.5594 17.0222 49.7631 18.9081L50.6183 19.5698C50.6183 19.5698 53.6115 21.6542 57.8545 21.6873H57.9532H58.019H58.1177C58.1177 21.6873 59.5978 21.7204 60.5846 22.3821C60.5846 22.3821 61.6371 23.0769 61.6371 24.0033C61.6371 24.0033 61.6371 24.9297 60.5188 25.5914C60.5188 25.5914 59.4334 26.2531 57.8545 26.2531C57.8545 26.2531 56.2757 26.2531 55.1574 25.5914C55.1574 25.5914 54.072 24.9297 54.072 24.0033L54.1049 23.7055H47.2305C47.2305 23.7055 47.362 26.4516 50.3881 28.4037C50.3881 28.4037 53.3812 30.3558 57.5256 30.4881H58.6439C58.6439 30.4881 62.7883 30.3558 65.7486 28.4037C65.7486 28.4037 68.9391 26.3524 68.9391 23.4408C68.9391 23.4408 68.9391 20.8271 66.3407 18.875L65.946 18.5772L65.7486 18.4449C65.7486 18.4449 62.7883 16.5259 58.6768 16.4267H58.1835L57.6572 16.3936C57.6572 16.3936 56.6375 16.2943 55.881 15.7319C55.881 15.7319 54.9601 15.0701 54.9601 14.1107C54.9601 14.1107 54.9601 13.1512 55.881 12.4564C55.881 12.4564 56.8349 11.7947 58.1835 11.7947C58.1835 11.7947 59.532 11.7947 60.453 12.4564C60.453 12.4564 61.4069 13.1512 61.4069 14.1107V14.1768H68.4786C68.4786 14.1768 68.3142 11.3976 65.4197 9.41248C65.4197 9.41248 62.5581 7.46042 58.5782 7.32808H57.6572Z" fill="#003970"/>
<path d="M19.0502 1.07547C11.6391 1.07547 6.39844 6.29792 6.39844 6.29792C1.17541 11.5558 1.17541 18.9911 1.17541 18.9911C1.17541 26.4265 6.39844 31.6667 6.39844 31.6667C11.6391 36.9245 19.0502 36.9245 19.0502 36.9245C26.4613 36.9245 31.6843 31.6667 31.6843 31.6667C36.925 26.4265 36.925 18.9911 36.925 18.9911C36.925 11.5558 31.6843 6.29792 31.6843 6.29792C26.4613 1.07547 19.0502 1.07547 19.0502 1.07547ZM19.0502 3.39459C19.0502 3.39459 24.0085 3.39459 27.8199 6.08549L3.85751 22.461H16.2975L20.4618 34.5346L27.8199 6.1386V6.12089C27.8199 6.12089 28.9845 6.91754 30.0256 7.96203C30.0256 7.96203 34.5958 12.5295 34.5958 18.9911C34.5958 18.9911 34.5958 25.4705 30.0256 30.038C30.0256 30.038 26.0025 34.092 20.4618 34.5346L19.0502 34.5877C19.0502 34.5877 12.6096 34.5877 8.02182 30.038C8.02182 30.038 4.75742 26.7629 3.85751 22.461C3.85751 22.461 3.5046 20.7969 3.5046 18.9911C3.5046 18.9911 3.5046 12.5295 8.02182 7.96203C8.02182 7.96203 12.6096 3.39459 19.0502 3.39459ZM23.7792 11.8921V11.9099L20.303 26.993L17.7621 20.4251L11.4803 20.0179L23.7262 11.9453L23.7792 11.8921Z" fill="#9A9A9A"/>
</svg>
