<svg width="564" height="1048" viewBox="0 0 564 1048" fill="none" xmlns="http://www.w3.org/2000/svg">
<path d="M363.814 145.526L360.277 147.88H64.3224L68.2526 145.526H363.814Z" fill="#F0F3F4" fill-opacity="0.6" stroke="url(#paint0_linear_3989_192461)" stroke-width="0.2"/>
<g filter="url(#filter0_b_3989_192461)">
<path d="M5.11727 472L67.7058 581L364.145 581L301.891 472L5.11727 472Z" fill="url(#paint1_linear_3989_192461)"/>
<path d="M5.11727 472L67.7058 581L364.145 581L301.891 472L5.11727 472Z" fill="url(#paint2_linear_3989_192461)" fill-opacity="0.05"/>
</g>
<g filter="url(#filter1_b_3989_192461)">
<path d="M68.0566 363.429L5.11719 472H301.896L364.57 363.426L68.0566 363.429Z" fill="url(#paint3_linear_3989_192461)"/>
<path d="M68.0566 363.429L5.11719 472H301.896L364.57 363.426L68.0566 363.429Z" fill="url(#paint4_linear_3989_192461)" fill-opacity="0.05"/>
<path d="M131.331 254.426L68.1257 363.426H131.065H364.57L427.257 254.426H131.331Z" fill="url(#paint5_linear_3989_192461)"/>
<path d="M131.331 254.426L68.1257 363.426H131.065H364.57L427.257 254.426H131.331Z" fill="url(#paint6_linear_3989_192461)" fill-opacity="0.05"/>
</g>
<g filter="url(#filter2_b_3989_192461)">
<path d="M68.2227 145.426L131.329 254.426L427.249 254.426L364.143 145.426L68.2227 145.426Z" fill="url(#paint7_linear_3989_192461)"/>
</g>
<g filter="url(#filter3_b_3989_192461)">
<path d="M63.1062 583.554L0.425781 472L62.9388 363.429L125.787 254.426L63.959 147.98L68.223 145.426L131.497 254.426L68.7185 363.426L5.96812 472L67.7966 581L63.1062 583.554Z" fill="#F0F3F4" fill-opacity="0.6"/>
<path d="M5.88154 471.95C5.86379 471.981 5.86363 472.018 5.88113 472.049L67.6594 580.961L63.145 583.419L0.540823 472L63.0255 363.479L125.873 254.476C125.891 254.445 125.891 254.406 125.873 254.376L64.095 148.016L68.1874 145.564L131.382 254.426L68.6319 363.376L68.6319 363.376L5.88154 471.95Z" stroke="url(#paint8_linear_3989_192461)" stroke-width="0.2" stroke-linejoin="round"/>
</g>
<g filter="url(#filter4_b_3989_192461)">
<path d="M359.451 583.555H63.1055L67.7958 581H364.142L359.451 583.555Z" fill="#F0F3F4" fill-opacity="0.6"/>
<path d="M363.749 581.1L359.426 583.455H63.4981L67.8213 581.1H363.749Z" stroke="url(#paint9_linear_3989_192461)" stroke-width="0.2"/>
</g>
<path d="M377.815 608.526L374.277 610.886H78.3217L82.2526 608.526H377.815Z" fill="#F0F3F4" fill-opacity="0.6" stroke="url(#paint10_linear_3989_192461)" stroke-width="0.2"/>
<g filter="url(#filter5_b_3989_192461)">
<path d="M19.1173 935.75L81.7059 1045L378.145 1045L315.891 935.75L19.1173 935.75Z" fill="url(#paint11_linear_3989_192461)"/>
<path d="M19.1173 935.75L81.7059 1045L378.145 1045L315.891 935.75L19.1173 935.75Z" fill="url(#paint12_linear_3989_192461)" fill-opacity="0.05"/>
</g>
<g filter="url(#filter6_b_3989_192461)">
<path d="M82.0566 826.929L19.1172 935.749H315.896L378.57 826.926L82.0566 826.929Z" fill="url(#paint13_linear_3989_192461)"/>
<path d="M82.0566 826.929L19.1172 935.749H315.896L378.57 826.926L82.0566 826.929Z" fill="url(#paint14_linear_3989_192461)" fill-opacity="0.05"/>
<path d="M145.331 717.676L82.1257 826.926H145.065H378.57L441.257 717.676H145.331Z" fill="url(#paint15_linear_3989_192461)"/>
<path d="M145.331 717.676L82.1257 826.926H145.065H378.57L441.257 717.676H145.331Z" fill="url(#paint16_linear_3989_192461)" fill-opacity="0.05"/>
</g>
<g filter="url(#filter7_b_3989_192461)">
<path d="M82.2227 608.426L145.329 717.676L441.249 717.676L378.143 608.426L82.2227 608.426Z" fill="url(#paint17_linear_3989_192461)"/>
</g>
<g filter="url(#filter8_b_3989_192461)">
<path d="M77.1062 1047.56L14.4258 935.749L76.9388 826.929L139.787 717.676L77.959 610.986L82.223 608.426L145.497 717.676L82.7185 826.926L19.9681 935.749L81.7966 1045L77.1062 1047.56Z" fill="#F0F3F4" fill-opacity="0.6"/>
<path d="M19.8815 935.699C19.8638 935.73 19.8637 935.767 19.8811 935.798L81.6595 1044.96L77.1451 1047.42L14.5408 935.749L77.0255 826.979L139.873 717.726C139.891 717.695 139.891 717.657 139.873 717.626L78.0949 611.021L82.1874 608.564L145.382 717.676L82.6319 826.876L82.6318 826.876L19.8815 935.699Z" stroke="url(#paint18_linear_3989_192461)" stroke-width="0.2" stroke-linejoin="round"/>
</g>
<g filter="url(#filter9_b_3989_192461)">
<path d="M373.451 1047.56H77.1055L81.7958 1045H378.142L373.451 1047.56Z" fill="#F0F3F4" fill-opacity="0.6"/>
<path d="M377.75 1045.1L373.426 1047.46H77.4973L81.8214 1045.1H377.75Z" stroke="url(#paint19_linear_3989_192461)" stroke-width="0.2"/>
</g>
<path d="M485.814 0.525781L482.277 2.88047H186.322L190.253 0.525781H485.814Z" fill="#F0F3F4" fill-opacity="0.6" stroke="url(#paint20_linear_3989_192461)" stroke-width="0.2"/>
<g filter="url(#filter10_b_3989_192461)">
<path d="M127.117 327L189.706 436L486.145 436L423.891 327L127.117 327Z" fill="url(#paint21_linear_3989_192461)"/>
<path d="M127.117 327L189.706 436L486.145 436L423.891 327L127.117 327Z" fill="url(#paint22_linear_3989_192461)" fill-opacity="0.05"/>
</g>
<g filter="url(#filter11_b_3989_192461)">
<path d="M190.057 218.429L127.117 327H423.896L486.57 218.426L190.057 218.429Z" fill="url(#paint23_linear_3989_192461)"/>
<path d="M190.057 218.429L127.117 327H423.896L486.57 218.426L190.057 218.429Z" fill="url(#paint24_linear_3989_192461)" fill-opacity="0.05"/>
<path d="M253.331 109.426L190.126 218.426H253.065H486.57L549.257 109.426H253.331Z" fill="url(#paint25_linear_3989_192461)"/>
<path d="M253.331 109.426L190.126 218.426H253.065H486.57L549.257 109.426H253.331Z" fill="url(#paint26_linear_3989_192461)" fill-opacity="0.05"/>
</g>
<g filter="url(#filter12_b_3989_192461)">
<path d="M190.223 0.425781L253.329 109.426L549.249 109.426L486.143 0.425781L190.223 0.425781Z" fill="url(#paint27_linear_3989_192461)"/>
</g>
<g filter="url(#filter13_b_3989_192461)">
<path d="M185.106 438.554L122.426 327L184.939 218.429L247.787 109.426L185.959 2.98047L190.223 0.425781L253.497 109.426L190.719 218.426L127.968 327L189.797 436L185.106 438.554Z" fill="#F0F3F4" fill-opacity="0.6"/>
<path d="M127.882 326.95C127.864 326.981 127.864 327.018 127.881 327.049L189.659 435.961L185.145 438.419L122.541 327L185.025 218.479L247.873 109.476C247.891 109.445 247.891 109.406 247.873 109.376L186.095 3.01555L190.187 0.563673L253.382 109.426L190.632 218.376L190.632 218.376L127.882 326.95Z" stroke="url(#paint28_linear_3989_192461)" stroke-width="0.2" stroke-linejoin="round"/>
</g>
<g filter="url(#filter14_b_3989_192461)">
<path d="M481.451 438.555H185.105L189.796 436H486.142L481.451 438.555Z" fill="#F0F3F4" fill-opacity="0.6"/>
<path d="M485.749 436.1L481.426 438.455H185.498L189.821 436.1H485.749Z" stroke="url(#paint29_linear_3989_192461)" stroke-width="0.2"/>
</g>
<path d="M499.815 463.526L496.277 465.886H200.322L204.253 463.526H499.815Z" fill="#F0F3F4" fill-opacity="0.6" stroke="url(#paint30_linear_3989_192461)" stroke-width="0.2"/>
<g filter="url(#filter15_b_3989_192461)">
<path d="M141.117 790.75L203.706 900L500.145 900L437.891 790.75L141.117 790.75Z" fill="url(#paint31_linear_3989_192461)"/>
<path d="M141.117 790.75L203.706 900L500.145 900L437.891 790.75L141.117 790.75Z" fill="url(#paint32_linear_3989_192461)" fill-opacity="0.05"/>
</g>
<g filter="url(#filter16_b_3989_192461)">
<path d="M204.057 681.929L141.117 790.749H437.896L500.57 681.926L204.057 681.929Z" fill="url(#paint33_linear_3989_192461)"/>
<path d="M204.057 681.929L141.117 790.749H437.896L500.57 681.926L204.057 681.929Z" fill="url(#paint34_linear_3989_192461)" fill-opacity="0.05"/>
<path d="M267.331 572.676L204.126 681.926H267.065H500.57L563.257 572.676H267.331Z" fill="url(#paint35_linear_3989_192461)"/>
<path d="M267.331 572.676L204.126 681.926H267.065H500.57L563.257 572.676H267.331Z" fill="url(#paint36_linear_3989_192461)" fill-opacity="0.05"/>
</g>
<g filter="url(#filter17_b_3989_192461)">
<path d="M204.223 463.426L267.329 572.676L563.249 572.676L500.143 463.426L204.223 463.426Z" fill="url(#paint37_linear_3989_192461)"/>
</g>
<g filter="url(#filter18_b_3989_192461)">
<path d="M199.106 902.559L136.426 790.749L198.939 681.929L261.787 572.676L199.959 465.986L204.223 463.426L267.497 572.676L204.719 681.926L141.968 790.749L203.797 899.999L199.106 902.559Z" fill="#F0F3F4" fill-opacity="0.6"/>
<path d="M141.881 790.699C141.864 790.73 141.864 790.767 141.881 790.798L203.66 899.96L199.145 902.424L136.541 790.749L199.026 681.979L261.873 572.726C261.891 572.695 261.891 572.657 261.873 572.626L200.095 466.021L204.187 463.564L267.382 572.676L204.632 681.876L204.632 681.876L141.881 790.699Z" stroke="url(#paint38_linear_3989_192461)" stroke-width="0.2" stroke-linejoin="round"/>
</g>
<g filter="url(#filter19_b_3989_192461)">
<path d="M495.451 902.561H199.105L203.796 900H500.142L495.451 902.561Z" fill="#F0F3F4" fill-opacity="0.6"/>
<path d="M499.75 900.1L495.426 902.461H199.497L203.821 900.1H499.75Z" stroke="url(#paint39_linear_3989_192461)" stroke-width="0.2"/>
</g>
<defs>
<filter id="filter0_b_3989_192461" x="-4.88281" y="462" width="379.027" height="129" filterUnits="userSpaceOnUse" color-interpolation-filters="sRGB">
<feFlood flood-opacity="0" result="BackgroundImageFix"/>
<feGaussianBlur in="BackgroundImageFix" stdDeviation="5"/>
<feComposite in2="SourceAlpha" operator="in" result="effect1_backgroundBlur_3989_192461"/>
<feBlend mode="normal" in="SourceGraphic" in2="effect1_backgroundBlur_3989_192461" result="shape"/>
</filter>
<filter id="filter1_b_3989_192461" x="-4.88281" y="244.426" width="442.141" height="237.574" filterUnits="userSpaceOnUse" color-interpolation-filters="sRGB">
<feFlood flood-opacity="0" result="BackgroundImageFix"/>
<feGaussianBlur in="BackgroundImageFix" stdDeviation="5"/>
<feComposite in2="SourceAlpha" operator="in" result="effect1_backgroundBlur_3989_192461"/>
<feBlend mode="normal" in="SourceGraphic" in2="effect1_backgroundBlur_3989_192461" result="shape"/>
</filter>
<filter id="filter2_b_3989_192461" x="58.2227" y="135.426" width="379.027" height="129" filterUnits="userSpaceOnUse" color-interpolation-filters="sRGB">
<feFlood flood-opacity="0" result="BackgroundImageFix"/>
<feGaussianBlur in="BackgroundImageFix" stdDeviation="5"/>
<feComposite in2="SourceAlpha" operator="in" result="effect1_backgroundBlur_3989_192461"/>
<feBlend mode="normal" in="SourceGraphic" in2="effect1_backgroundBlur_3989_192461" result="shape"/>
</filter>
<filter id="filter3_b_3989_192461" x="-9.57422" y="135.426" width="151.07" height="458.129" filterUnits="userSpaceOnUse" color-interpolation-filters="sRGB">
<feFlood flood-opacity="0" result="BackgroundImageFix"/>
<feGaussianBlur in="BackgroundImageFix" stdDeviation="5"/>
<feComposite in2="SourceAlpha" operator="in" result="effect1_backgroundBlur_3989_192461"/>
<feBlend mode="normal" in="SourceGraphic" in2="effect1_backgroundBlur_3989_192461" result="shape"/>
</filter>
<filter id="filter4_b_3989_192461" x="53.1055" y="571" width="321.035" height="22.5547" filterUnits="userSpaceOnUse" color-interpolation-filters="sRGB">
<feFlood flood-opacity="0" result="BackgroundImageFix"/>
<feGaussianBlur in="BackgroundImageFix" stdDeviation="5"/>
<feComposite in2="SourceAlpha" operator="in" result="effect1_backgroundBlur_3989_192461"/>
<feBlend mode="normal" in="SourceGraphic" in2="effect1_backgroundBlur_3989_192461" result="shape"/>
</filter>
<filter id="filter5_b_3989_192461" x="9.11719" y="925.75" width="379.027" height="129.25" filterUnits="userSpaceOnUse" color-interpolation-filters="sRGB">
<feFlood flood-opacity="0" result="BackgroundImageFix"/>
<feGaussianBlur in="BackgroundImageFix" stdDeviation="5"/>
<feComposite in2="SourceAlpha" operator="in" result="effect1_backgroundBlur_3989_192461"/>
<feBlend mode="normal" in="SourceGraphic" in2="effect1_backgroundBlur_3989_192461" result="shape"/>
</filter>
<filter id="filter6_b_3989_192461" x="9.11719" y="707.676" width="442.141" height="238.074" filterUnits="userSpaceOnUse" color-interpolation-filters="sRGB">
<feFlood flood-opacity="0" result="BackgroundImageFix"/>
<feGaussianBlur in="BackgroundImageFix" stdDeviation="5"/>
<feComposite in2="SourceAlpha" operator="in" result="effect1_backgroundBlur_3989_192461"/>
<feBlend mode="normal" in="SourceGraphic" in2="effect1_backgroundBlur_3989_192461" result="shape"/>
</filter>
<filter id="filter7_b_3989_192461" x="72.2227" y="598.426" width="379.027" height="129.25" filterUnits="userSpaceOnUse" color-interpolation-filters="sRGB">
<feFlood flood-opacity="0" result="BackgroundImageFix"/>
<feGaussianBlur in="BackgroundImageFix" stdDeviation="5"/>
<feComposite in2="SourceAlpha" operator="in" result="effect1_backgroundBlur_3989_192461"/>
<feBlend mode="normal" in="SourceGraphic" in2="effect1_backgroundBlur_3989_192461" result="shape"/>
</filter>
<filter id="filter8_b_3989_192461" x="4.42578" y="598.426" width="151.07" height="459.133" filterUnits="userSpaceOnUse" color-interpolation-filters="sRGB">
<feFlood flood-opacity="0" result="BackgroundImageFix"/>
<feGaussianBlur in="BackgroundImageFix" stdDeviation="5"/>
<feComposite in2="SourceAlpha" operator="in" result="effect1_backgroundBlur_3989_192461"/>
<feBlend mode="normal" in="SourceGraphic" in2="effect1_backgroundBlur_3989_192461" result="shape"/>
</filter>
<filter id="filter9_b_3989_192461" x="67.1055" y="1035" width="321.035" height="22.5586" filterUnits="userSpaceOnUse" color-interpolation-filters="sRGB">
<feFlood flood-opacity="0" result="BackgroundImageFix"/>
<feGaussianBlur in="BackgroundImageFix" stdDeviation="5"/>
<feComposite in2="SourceAlpha" operator="in" result="effect1_backgroundBlur_3989_192461"/>
<feBlend mode="normal" in="SourceGraphic" in2="effect1_backgroundBlur_3989_192461" result="shape"/>
</filter>
<filter id="filter10_b_3989_192461" x="117.117" y="317" width="379.027" height="129" filterUnits="userSpaceOnUse" color-interpolation-filters="sRGB">
<feFlood flood-opacity="0" result="BackgroundImageFix"/>
<feGaussianBlur in="BackgroundImageFix" stdDeviation="5"/>
<feComposite in2="SourceAlpha" operator="in" result="effect1_backgroundBlur_3989_192461"/>
<feBlend mode="normal" in="SourceGraphic" in2="effect1_backgroundBlur_3989_192461" result="shape"/>
</filter>
<filter id="filter11_b_3989_192461" x="117.117" y="99.4258" width="442.141" height="237.574" filterUnits="userSpaceOnUse" color-interpolation-filters="sRGB">
<feFlood flood-opacity="0" result="BackgroundImageFix"/>
<feGaussianBlur in="BackgroundImageFix" stdDeviation="5"/>
<feComposite in2="SourceAlpha" operator="in" result="effect1_backgroundBlur_3989_192461"/>
<feBlend mode="normal" in="SourceGraphic" in2="effect1_backgroundBlur_3989_192461" result="shape"/>
</filter>
<filter id="filter12_b_3989_192461" x="180.223" y="-9.57422" width="379.027" height="129" filterUnits="userSpaceOnUse" color-interpolation-filters="sRGB">
<feFlood flood-opacity="0" result="BackgroundImageFix"/>
<feGaussianBlur in="BackgroundImageFix" stdDeviation="5"/>
<feComposite in2="SourceAlpha" operator="in" result="effect1_backgroundBlur_3989_192461"/>
<feBlend mode="normal" in="SourceGraphic" in2="effect1_backgroundBlur_3989_192461" result="shape"/>
</filter>
<filter id="filter13_b_3989_192461" x="112.426" y="-9.57422" width="151.07" height="458.129" filterUnits="userSpaceOnUse" color-interpolation-filters="sRGB">
<feFlood flood-opacity="0" result="BackgroundImageFix"/>
<feGaussianBlur in="BackgroundImageFix" stdDeviation="5"/>
<feComposite in2="SourceAlpha" operator="in" result="effect1_backgroundBlur_3989_192461"/>
<feBlend mode="normal" in="SourceGraphic" in2="effect1_backgroundBlur_3989_192461" result="shape"/>
</filter>
<filter id="filter14_b_3989_192461" x="175.105" y="426" width="321.035" height="22.5547" filterUnits="userSpaceOnUse" color-interpolation-filters="sRGB">
<feFlood flood-opacity="0" result="BackgroundImageFix"/>
<feGaussianBlur in="BackgroundImageFix" stdDeviation="5"/>
<feComposite in2="SourceAlpha" operator="in" result="effect1_backgroundBlur_3989_192461"/>
<feBlend mode="normal" in="SourceGraphic" in2="effect1_backgroundBlur_3989_192461" result="shape"/>
</filter>
<filter id="filter15_b_3989_192461" x="131.117" y="780.75" width="379.027" height="129.25" filterUnits="userSpaceOnUse" color-interpolation-filters="sRGB">
<feFlood flood-opacity="0" result="BackgroundImageFix"/>
<feGaussianBlur in="BackgroundImageFix" stdDeviation="5"/>
<feComposite in2="SourceAlpha" operator="in" result="effect1_backgroundBlur_3989_192461"/>
<feBlend mode="normal" in="SourceGraphic" in2="effect1_backgroundBlur_3989_192461" result="shape"/>
</filter>
<filter id="filter16_b_3989_192461" x="131.117" y="562.676" width="442.141" height="238.074" filterUnits="userSpaceOnUse" color-interpolation-filters="sRGB">
<feFlood flood-opacity="0" result="BackgroundImageFix"/>
<feGaussianBlur in="BackgroundImageFix" stdDeviation="5"/>
<feComposite in2="SourceAlpha" operator="in" result="effect1_backgroundBlur_3989_192461"/>
<feBlend mode="normal" in="SourceGraphic" in2="effect1_backgroundBlur_3989_192461" result="shape"/>
</filter>
<filter id="filter17_b_3989_192461" x="194.223" y="453.426" width="379.027" height="129.25" filterUnits="userSpaceOnUse" color-interpolation-filters="sRGB">
<feFlood flood-opacity="0" result="BackgroundImageFix"/>
<feGaussianBlur in="BackgroundImageFix" stdDeviation="5"/>
<feComposite in2="SourceAlpha" operator="in" result="effect1_backgroundBlur_3989_192461"/>
<feBlend mode="normal" in="SourceGraphic" in2="effect1_backgroundBlur_3989_192461" result="shape"/>
</filter>
<filter id="filter18_b_3989_192461" x="126.426" y="453.426" width="151.07" height="459.133" filterUnits="userSpaceOnUse" color-interpolation-filters="sRGB">
<feFlood flood-opacity="0" result="BackgroundImageFix"/>
<feGaussianBlur in="BackgroundImageFix" stdDeviation="5"/>
<feComposite in2="SourceAlpha" operator="in" result="effect1_backgroundBlur_3989_192461"/>
<feBlend mode="normal" in="SourceGraphic" in2="effect1_backgroundBlur_3989_192461" result="shape"/>
</filter>
<filter id="filter19_b_3989_192461" x="189.105" y="890" width="321.035" height="22.5586" filterUnits="userSpaceOnUse" color-interpolation-filters="sRGB">
<feFlood flood-opacity="0" result="BackgroundImageFix"/>
<feGaussianBlur in="BackgroundImageFix" stdDeviation="5"/>
<feComposite in2="SourceAlpha" operator="in" result="effect1_backgroundBlur_3989_192461"/>
<feBlend mode="normal" in="SourceGraphic" in2="effect1_backgroundBlur_3989_192461" result="shape"/>
</filter>
<linearGradient id="paint0_linear_3989_192461" x1="214.815" y1="145.002" x2="214.815" y2="147.541" gradientUnits="userSpaceOnUse">
<stop stop-color="#E8E8E8" stop-opacity="0"/>
<stop offset="1" stop-color="#0079C1" stop-opacity="0.53"/>
</linearGradient>
<linearGradient id="paint1_linear_3989_192461" x1="15.3519" y1="526.5" x2="99.7175" y2="477.721" gradientUnits="userSpaceOnUse">
<stop stop-color="white" stop-opacity="0.6"/>
<stop offset="1" stop-color="#45B0EF" stop-opacity="0.6"/>
</linearGradient>
<linearGradient id="paint2_linear_3989_192461" x1="36.588" y1="472" x2="83.7522" y2="553.809" gradientUnits="userSpaceOnUse">
<stop stop-color="white"/>
<stop offset="1" stop-color="white" stop-opacity="0"/>
</linearGradient>
<linearGradient id="paint3_linear_3989_192461" x1="71.6352" y1="254.852" x2="196.915" y2="322.276" gradientUnits="userSpaceOnUse">
<stop stop-color="white" stop-opacity="0.6"/>
<stop offset="1" stop-color="#45B0EF" stop-opacity="0.6"/>
</linearGradient>
<linearGradient id="paint4_linear_3989_192461" x1="158.194" y1="254.851" x2="103.763" y2="295.312" gradientUnits="userSpaceOnUse">
<stop stop-color="white"/>
<stop offset="1" stop-color="white" stop-opacity="0"/>
</linearGradient>
<linearGradient id="paint5_linear_3989_192461" x1="71.6352" y1="254.852" x2="196.915" y2="322.276" gradientUnits="userSpaceOnUse">
<stop stop-color="white" stop-opacity="0.6"/>
<stop offset="1" stop-color="#45B0EF" stop-opacity="0.6"/>
</linearGradient>
<linearGradient id="paint6_linear_3989_192461" x1="158.194" y1="254.851" x2="103.763" y2="295.312" gradientUnits="userSpaceOnUse">
<stop stop-color="white"/>
<stop offset="1" stop-color="white" stop-opacity="0"/>
</linearGradient>
<linearGradient id="paint7_linear_3989_192461" x1="99.5941" y1="200.137" x2="193.935" y2="145.59" gradientUnits="userSpaceOnUse">
<stop stop-color="white" stop-opacity="0.6"/>
<stop offset="1" stop-color="#45B0EF" stop-opacity="0.6"/>
</linearGradient>
<linearGradient id="paint8_linear_3989_192461" x1="65.8287" y1="145.709" x2="65.8287" y2="581.142" gradientUnits="userSpaceOnUse">
<stop offset="0.015625" stop-color="#FAFDFF" stop-opacity="0.18"/>
<stop offset="0.375" stop-color="#67B7E7"/>
<stop offset="1" stop-color="#E8E8E8" stop-opacity="0"/>
</linearGradient>
<linearGradient id="paint9_linear_3989_192461" x1="213.96" y1="581.002" x2="213.96" y2="583.541" gradientUnits="userSpaceOnUse">
<stop stop-color="#E8E8E8" stop-opacity="0"/>
<stop offset="1" stop-color="#0079C1" stop-opacity="0.53"/>
</linearGradient>
<linearGradient id="paint10_linear_3989_192461" x1="228.815" y1="608.001" x2="228.815" y2="610.545" gradientUnits="userSpaceOnUse">
<stop stop-color="#E8E8E8" stop-opacity="0"/>
<stop offset="1" stop-color="#0079C1" stop-opacity="0.53"/>
</linearGradient>
<linearGradient id="paint11_linear_3989_192461" x1="29.3519" y1="990.375" x2="113.814" y2="941.652" gradientUnits="userSpaceOnUse">
<stop stop-color="white" stop-opacity="0.6"/>
<stop offset="1" stop-color="#45B0EF" stop-opacity="0.6"/>
</linearGradient>
<linearGradient id="paint12_linear_3989_192461" x1="50.588" y1="935.75" x2="97.9146" y2="1017.65" gradientUnits="userSpaceOnUse">
<stop stop-color="white"/>
<stop offset="1" stop-color="white" stop-opacity="0"/>
</linearGradient>
<linearGradient id="paint13_linear_3989_192461" x1="85.6352" y1="718.103" x2="211.043" y2="785.442" gradientUnits="userSpaceOnUse">
<stop stop-color="white" stop-opacity="0.6"/>
<stop offset="1" stop-color="#45B0EF" stop-opacity="0.6"/>
</linearGradient>
<linearGradient id="paint14_linear_3989_192461" x1="172.194" y1="718.102" x2="117.675" y2="758.537" gradientUnits="userSpaceOnUse">
<stop stop-color="white"/>
<stop offset="1" stop-color="white" stop-opacity="0"/>
</linearGradient>
<linearGradient id="paint15_linear_3989_192461" x1="85.6352" y1="718.103" x2="211.043" y2="785.442" gradientUnits="userSpaceOnUse">
<stop stop-color="white" stop-opacity="0.6"/>
<stop offset="1" stop-color="#45B0EF" stop-opacity="0.6"/>
</linearGradient>
<linearGradient id="paint16_linear_3989_192461" x1="172.194" y1="718.102" x2="117.675" y2="758.537" gradientUnits="userSpaceOnUse">
<stop stop-color="white"/>
<stop offset="1" stop-color="white" stop-opacity="0"/>
</linearGradient>
<linearGradient id="paint17_linear_3989_192461" x1="113.594" y1="663.262" x2="208.043" y2="608.778" gradientUnits="userSpaceOnUse">
<stop stop-color="white" stop-opacity="0.6"/>
<stop offset="1" stop-color="#45B0EF" stop-opacity="0.6"/>
</linearGradient>
<linearGradient id="paint18_linear_3989_192461" x1="79.8287" y1="608.709" x2="79.8287" y2="1045.14" gradientUnits="userSpaceOnUse">
<stop offset="0.015625" stop-color="#FAFDFF" stop-opacity="0.18"/>
<stop offset="0.375" stop-color="#67B7E7"/>
<stop offset="1" stop-color="#E8E8E8" stop-opacity="0"/>
</linearGradient>
<linearGradient id="paint19_linear_3989_192461" x1="227.96" y1="1045" x2="227.96" y2="1047.55" gradientUnits="userSpaceOnUse">
<stop stop-color="#E8E8E8" stop-opacity="0"/>
<stop offset="1" stop-color="#0079C1" stop-opacity="0.53"/>
</linearGradient>
<linearGradient id="paint20_linear_3989_192461" x1="336.815" y1="0.00164865" x2="336.815" y2="2.54062" gradientUnits="userSpaceOnUse">
<stop stop-color="#E8E8E8" stop-opacity="0"/>
<stop offset="1" stop-color="#0079C1" stop-opacity="0.53"/>
</linearGradient>
<linearGradient id="paint21_linear_3989_192461" x1="137.352" y1="381.5" x2="221.717" y2="332.721" gradientUnits="userSpaceOnUse">
<stop stop-color="white" stop-opacity="0.6"/>
<stop offset="1" stop-color="#45B0EF" stop-opacity="0.6"/>
</linearGradient>
<linearGradient id="paint22_linear_3989_192461" x1="158.588" y1="327" x2="205.752" y2="408.809" gradientUnits="userSpaceOnUse">
<stop stop-color="white"/>
<stop offset="1" stop-color="white" stop-opacity="0"/>
</linearGradient>
<linearGradient id="paint23_linear_3989_192461" x1="193.635" y1="109.852" x2="318.915" y2="177.276" gradientUnits="userSpaceOnUse">
<stop stop-color="white" stop-opacity="0.6"/>
<stop offset="1" stop-color="#45B0EF" stop-opacity="0.6"/>
</linearGradient>
<linearGradient id="paint24_linear_3989_192461" x1="280.194" y1="109.851" x2="225.763" y2="150.312" gradientUnits="userSpaceOnUse">
<stop stop-color="white"/>
<stop offset="1" stop-color="white" stop-opacity="0"/>
</linearGradient>
<linearGradient id="paint25_linear_3989_192461" x1="193.635" y1="109.852" x2="318.915" y2="177.276" gradientUnits="userSpaceOnUse">
<stop stop-color="white" stop-opacity="0.6"/>
<stop offset="1" stop-color="#45B0EF" stop-opacity="0.6"/>
</linearGradient>
<linearGradient id="paint26_linear_3989_192461" x1="280.194" y1="109.851" x2="225.763" y2="150.312" gradientUnits="userSpaceOnUse">
<stop stop-color="white"/>
<stop offset="1" stop-color="white" stop-opacity="0"/>
</linearGradient>
<linearGradient id="paint27_linear_3989_192461" x1="221.594" y1="55.1369" x2="315.935" y2="0.590358" gradientUnits="userSpaceOnUse">
<stop stop-color="white" stop-opacity="0.6"/>
<stop offset="1" stop-color="#45B0EF" stop-opacity="0.6"/>
</linearGradient>
<linearGradient id="paint28_linear_3989_192461" x1="187.829" y1="0.708526" x2="187.829" y2="436.142" gradientUnits="userSpaceOnUse">
<stop offset="0.015625" stop-color="#FAFDFF" stop-opacity="0.18"/>
<stop offset="0.375" stop-color="#67B7E7"/>
<stop offset="1" stop-color="#E8E8E8" stop-opacity="0"/>
</linearGradient>
<linearGradient id="paint29_linear_3989_192461" x1="335.96" y1="436.002" x2="335.96" y2="438.541" gradientUnits="userSpaceOnUse">
<stop stop-color="#E8E8E8" stop-opacity="0"/>
<stop offset="1" stop-color="#0079C1" stop-opacity="0.53"/>
</linearGradient>
<linearGradient id="paint30_linear_3989_192461" x1="350.815" y1="463.001" x2="350.815" y2="465.545" gradientUnits="userSpaceOnUse">
<stop stop-color="#E8E8E8" stop-opacity="0"/>
<stop offset="1" stop-color="#0079C1" stop-opacity="0.53"/>
</linearGradient>
<linearGradient id="paint31_linear_3989_192461" x1="151.352" y1="845.375" x2="235.814" y2="796.652" gradientUnits="userSpaceOnUse">
<stop stop-color="white" stop-opacity="0.6"/>
<stop offset="1" stop-color="#45B0EF" stop-opacity="0.6"/>
</linearGradient>
<linearGradient id="paint32_linear_3989_192461" x1="172.588" y1="790.75" x2="219.915" y2="872.653" gradientUnits="userSpaceOnUse">
<stop stop-color="white"/>
<stop offset="1" stop-color="white" stop-opacity="0"/>
</linearGradient>
<linearGradient id="paint33_linear_3989_192461" x1="207.635" y1="573.103" x2="333.043" y2="640.442" gradientUnits="userSpaceOnUse">
<stop stop-color="white" stop-opacity="0.6"/>
<stop offset="1" stop-color="#45B0EF" stop-opacity="0.6"/>
</linearGradient>
<linearGradient id="paint34_linear_3989_192461" x1="294.194" y1="573.102" x2="239.675" y2="613.537" gradientUnits="userSpaceOnUse">
<stop stop-color="white"/>
<stop offset="1" stop-color="white" stop-opacity="0"/>
</linearGradient>
<linearGradient id="paint35_linear_3989_192461" x1="207.635" y1="573.103" x2="333.043" y2="640.442" gradientUnits="userSpaceOnUse">
<stop stop-color="white" stop-opacity="0.6"/>
<stop offset="1" stop-color="#45B0EF" stop-opacity="0.6"/>
</linearGradient>
<linearGradient id="paint36_linear_3989_192461" x1="294.194" y1="573.102" x2="239.675" y2="613.537" gradientUnits="userSpaceOnUse">
<stop stop-color="white"/>
<stop offset="1" stop-color="white" stop-opacity="0"/>
</linearGradient>
<linearGradient id="paint37_linear_3989_192461" x1="235.594" y1="518.262" x2="330.043" y2="463.778" gradientUnits="userSpaceOnUse">
<stop stop-color="white" stop-opacity="0.6"/>
<stop offset="1" stop-color="#45B0EF" stop-opacity="0.6"/>
</linearGradient>
<linearGradient id="paint38_linear_3989_192461" x1="201.829" y1="463.709" x2="201.829" y2="900.142" gradientUnits="userSpaceOnUse">
<stop offset="0.015625" stop-color="#FAFDFF" stop-opacity="0.18"/>
<stop offset="0.375" stop-color="#67B7E7"/>
<stop offset="1" stop-color="#E8E8E8" stop-opacity="0"/>
</linearGradient>
<linearGradient id="paint39_linear_3989_192461" x1="349.96" y1="900.002" x2="349.96" y2="902.546" gradientUnits="userSpaceOnUse">
<stop stop-color="#E8E8E8" stop-opacity="0"/>
<stop offset="1" stop-color="#0079C1" stop-opacity="0.53"/>
</linearGradient>
</defs>
</svg>
