<svg width="64" height="64" viewBox="0 0 64 64" fill="none" xmlns="http://www.w3.org/2000/svg">
<path d="M18.6673 37.3346C15.8919 38.9015 13.6477 41.2615 12.2224 44.1122C10.7971 46.9628 10.2556 50.1742 10.6673 53.3346C13.8277 53.7464 17.0391 53.2049 19.8898 51.7795C22.7404 50.3542 25.1004 48.11 26.6673 45.3346M10.6673 34.668C15.4222 35.2331 19.8488 37.3814 23.2347 40.7673C26.6206 44.1532 28.7689 48.5797 29.334 53.3346C31.6911 51.9757 33.6628 50.0382 35.0626 47.7051C36.4624 45.3721 37.2442 42.7206 37.334 40.0013C41.8116 38.4261 45.7216 35.5586 48.5696 31.7613C51.4175 27.964 53.0756 23.4075 53.334 18.668C53.334 16.5462 52.4911 14.5114 50.9908 13.0111C49.4905 11.5108 47.4557 10.668 45.334 10.668C40.5944 10.9264 36.0379 12.5844 32.2406 15.4324C28.4433 18.2803 25.5758 22.1903 24.0007 26.668C21.2814 26.7578 18.6299 27.5395 16.2968 28.9394C13.9638 30.3392 12.0262 32.3108 10.6673 34.668ZM42.6673 24.0013C42.6673 25.4741 41.4734 26.668 40.0007 26.668C38.5279 26.668 37.334 25.4741 37.334 24.0013C37.334 22.5285 38.5279 21.3346 40.0007 21.3346C41.4734 21.3346 42.6673 22.5285 42.6673 24.0013Z" stroke="#0079C1" stroke-width="1.5" stroke-linecap="round" stroke-linejoin="round"/>
</svg>
