<svg width="64" height="64" viewBox="0 0 64 64" fill="none" xmlns="http://www.w3.org/2000/svg">
<path d="M51.9995 33.5258L31.9995 53.3338L11.9995 33.5258C10.6803 32.2421 9.64121 30.6992 8.94763 28.9942C8.25404 27.2892 7.921 25.459 7.96947 23.619C8.01794 21.7789 8.44687 19.9688 9.22925 18.3027C10.0116 16.6366 11.1305 15.1505 12.5155 13.938C13.9004 12.7256 15.5214 11.813 17.2763 11.2578C19.0313 10.7025 20.8822 10.5167 22.7125 10.7119C24.5428 10.9072 26.3128 11.4793 27.9112 12.3922C29.5095 13.3052 30.9015 14.5391 31.9995 16.0165C33.1023 14.5499 34.4959 13.3267 36.0931 12.4234C37.6903 11.5202 39.4568 10.9563 41.282 10.7672C43.1072 10.578 44.9517 10.7677 46.7002 11.3242C48.4487 11.8807 50.0636 12.7921 51.4436 14.0014C52.8237 15.2107 53.9393 16.6919 54.7206 18.3522C55.5019 20.0125 55.9321 21.8162 55.9843 23.6504C56.0365 25.4846 55.7095 27.3098 55.0239 29.0118C54.3382 30.7138 53.3086 32.256 51.9995 33.5418M31.9995 16.0005L23.2182 24.7818C22.7182 25.2819 22.4374 25.96 22.4374 26.6671C22.4374 27.3742 22.7182 28.0524 23.2182 28.5525L24.6662 30.0005C26.5062 31.8405 29.4928 31.8405 31.3328 30.0005L33.9995 27.3338C35.5908 25.7425 37.7491 24.8485 39.9995 24.8485C42.2499 24.8485 44.4082 25.7425 45.9995 27.3338L51.9995 33.3338M33.3328 41.3338L38.6662 46.6671M39.9995 34.6671L45.3328 40.0005" stroke="#0079C1" stroke-width="1.5" stroke-linecap="round" stroke-linejoin="round"/>
</svg>
