<svg width="64" height="64" viewBox="0 0 64 64" fill="none" xmlns="http://www.w3.org/2000/svg">
<path d="M10.6667 42.668L26.6667 24.0013L40 37.3346L53.3333 21.3346M42.6667 37.3346C42.6667 38.8074 41.4728 40.0013 40 40.0013C38.5272 40.0013 37.3333 38.8074 37.3333 37.3346C37.3333 35.8619 38.5272 34.668 40 34.668C41.4728 34.668 42.6667 35.8619 42.6667 37.3346ZM29.3333 24.0013C29.3333 25.4741 28.1394 26.668 26.6667 26.668C25.1939 26.668 24 25.4741 24 24.0013C24 22.5285 25.1939 21.3346 26.6667 21.3346C28.1394 21.3346 29.3333 22.5285 29.3333 24.0013ZM13.3333 42.668C13.3333 44.1407 12.1394 45.3346 10.6667 45.3346C9.19391 45.3346 8 44.1407 8 42.668C8 41.1952 9.19391 40.0013 10.6667 40.0013C12.1394 40.0013 13.3333 41.1952 13.3333 42.668ZM56 21.3346C56 22.8074 54.8061 24.0013 53.3333 24.0013C51.8606 24.0013 50.6667 22.8074 50.6667 21.3346C50.6667 19.8619 51.8606 18.668 53.3333 18.668C54.8061 18.668 56 19.8619 56 21.3346Z" stroke="#0079C1" stroke-width="1.5" stroke-linecap="round" stroke-linejoin="round"/>
</svg>
