<svg width="64" height="64" viewBox="0 0 64 64" fill="none" xmlns="http://www.w3.org/2000/svg">
<path d="M8 18.668H16M8 29.3346H13.3333M26.1335 20.0013L34.0855 28.748C34.7921 29.5254 35.645 30.1561 36.5954 30.6039C37.5458 31.0518 38.5751 31.308 39.6246 31.358C40.674 31.408 41.723 31.2509 42.7117 30.8954C43.7004 30.54 44.6094 29.9934 45.3868 29.2866L54.1335 21.3346M24.0532 23.4706L22.4532 39.4706C22.3791 40.2121 22.4611 40.9608 22.6941 41.6686C22.927 42.3763 23.3056 43.0275 23.8056 43.5799C24.3056 44.1324 24.9158 44.574 25.5969 44.8762C26.2779 45.1784 27.0148 45.3346 27.7599 45.3346H49.0399C50.3625 45.3346 51.6379 44.8431 52.6185 43.9556C53.5991 43.0682 54.215 41.848 54.3466 40.532L55.9466 24.532C56.0207 23.7905 55.9387 23.0418 55.7057 22.334C55.4728 21.6263 55.0941 20.9752 54.5942 20.4227C54.0942 19.8702 53.484 19.4286 52.8029 19.1264C52.1219 18.8242 51.385 18.668 50.6399 18.668H29.3599C28.0373 18.668 26.7619 19.1595 25.7813 20.047C24.8007 20.9344 24.1848 22.1546 24.0532 23.4706Z" stroke="#0079C1" stroke-width="1.5" stroke-linecap="round" stroke-linejoin="round"/>
</svg>
