<svg width="64" height="64" viewBox="0 0 64 64" fill="none" xmlns="http://www.w3.org/2000/svg">
<path d="M13.3333 21.3346C16.2789 21.3346 18.6667 18.9468 18.6667 16.0013C18.6667 13.0558 16.2789 10.668 13.3333 10.668C10.3878 10.668 8 13.0558 8 16.0013C8 18.9468 10.3878 21.3346 13.3333 21.3346ZM13.3333 21.3346V42.668M32 21.3346C34.9455 21.3346 37.3333 18.9468 37.3333 16.0013C37.3333 13.0558 34.9455 10.668 32 10.668C29.0545 10.668 26.6667 13.0558 26.6667 16.0013C26.6667 18.9468 29.0545 21.3346 32 21.3346ZM32 21.3346V42.668M50.6667 21.3346C53.6122 21.3346 56 18.9468 56 16.0013C56 13.0558 53.6122 10.668 50.6667 10.668C47.7211 10.668 45.3333 13.0558 45.3333 16.0013C45.3333 18.9468 47.7211 21.3346 50.6667 21.3346ZM50.6667 21.3346V26.668C50.6667 28.0825 50.1048 29.439 49.1046 30.4392C48.1044 31.4394 46.7478 32.0013 45.3333 32.0013H13.3333M13.3333 42.668C10.3878 42.668 8 45.0558 8 48.0013C8 50.9468 10.3878 53.3346 13.3333 53.3346C16.2789 53.3346 18.6667 50.9468 18.6667 48.0013C18.6667 45.0558 16.2789 42.668 13.3333 42.668ZM32 42.668C29.0545 42.668 26.6667 45.0558 26.6667 48.0013C26.6667 50.9468 29.0545 53.3346 32 53.3346C34.9455 53.3346 37.3333 50.9468 37.3333 48.0013C37.3333 45.0558 34.9455 42.668 32 42.668Z" stroke="#0079C1" stroke-width="1.5" stroke-linecap="round" stroke-linejoin="round"/>
</svg>
