<svg width="33" height="32" viewBox="0 0 33 32" fill="none" xmlns="http://www.w3.org/2000/svg">
<path d="M14.1663 19.9987H6.16634C5.81272 19.9987 5.47358 19.8582 5.22353 19.6082C4.97348 19.3581 4.83301 19.019 4.83301 18.6654V7.9987C4.83301 7.64508 4.97348 7.30594 5.22353 7.05589C5.47358 6.80584 5.81272 6.66536 6.16634 6.66536H14.1663M10.1663 25.332H14.1663M23.4997 10.6654V10.6787M12.833 19.9987V25.332M19.4997 5.33203H27.4997C28.2361 5.33203 28.833 5.92898 28.833 6.66536V25.332C28.833 26.0684 28.2361 26.6654 27.4997 26.6654H19.4997C18.7633 26.6654 18.1663 26.0684 18.1663 25.332V6.66536C18.1663 5.92898 18.7633 5.33203 19.4997 5.33203ZM24.833 21.332C24.833 22.0684 24.2361 22.6654 23.4997 22.6654C22.7633 22.6654 22.1663 22.0684 22.1663 21.332C22.1663 20.5957 22.7633 19.9987 23.4997 19.9987C24.2361 19.9987 24.833 20.5957 24.833 21.332Z" stroke="#F5FCFF" stroke-width="1.5" stroke-linecap="round" stroke-linejoin="round"/>
</svg>
