<svg width="33" height="32" viewBox="0 0 33 32" fill="none" xmlns="http://www.w3.org/2000/svg">
<path d="M24.833 15.9987C27.0421 15.9987 28.833 14.2078 28.833 11.9987V9.33203C28.833 7.12289 27.0421 5.33203 24.833 5.33203H8.83301C6.62387 5.33203 4.83301 7.12289 4.83301 9.33203V11.9987C4.83301 14.2078 6.62387 15.9987 8.83301 15.9987M24.833 15.9987H8.83301M24.833 15.9987C27.0421 15.9987 28.833 17.7896 28.833 19.9987V22.6654C28.833 24.8745 27.0421 26.6654 24.833 26.6654H8.83301C6.62387 26.6654 4.83301 24.8745 4.83301 22.6654V19.9987C4.83301 17.7896 6.62387 15.9987 8.83301 15.9987M10.1663 10.6654V10.6787M10.1663 21.332V21.3454" stroke="#F5FCFF" stroke-width="1.5" stroke-linecap="round" stroke-linejoin="round"/>
</svg>
