<svg width="65" height="64" viewBox="0 0 65 64" fill="none" xmlns="http://www.w3.org/2000/svg">
<path d="M53.6667 29.3339C53.0145 24.6411 50.8375 20.2929 47.471 16.9592C44.1046 13.6254 39.7353 11.491 35.0365 10.8847C30.3376 10.2784 25.5697 11.2338 21.4672 13.6038C17.3647 15.9739 14.1553 19.627 12.3333 24.0005M11 13.3339V24.0005H21.6667M11 34.6672C11.6522 39.3599 13.8291 43.7081 17.1956 47.0419C20.5621 50.3756 24.9313 52.5101 29.6302 53.1164C34.3291 53.7227 39.097 52.7672 43.1995 50.3972C47.3019 48.0272 50.5113 44.374 52.3333 40.0005M53.6667 50.6672V40.0005H43M35 32.0005C35 33.4733 33.8061 34.6672 32.3333 34.6672C30.8606 34.6672 29.6667 33.4733 29.6667 32.0005C29.6667 30.5278 30.8606 29.3339 32.3333 29.3339C33.8061 29.3339 35 30.5278 35 32.0005Z" stroke="#0079C1" stroke-width="1.5" stroke-linecap="round" stroke-linejoin="round"/>
</svg>
