<svg width="72" height="72" viewBox="0 0 72 72" fill="none" xmlns="http://www.w3.org/2000/svg">
<path d="M66 27L36 15L6 27L36 39L66 27V45Z" fill="white"/>
<path d="M18 31.8003V48.0003C18 50.3872 19.8964 52.6764 23.2721 54.3643C26.6477 56.0521 31.2261 57.0003 36 57.0003C40.7739 57.0003 45.3523 56.0521 48.7279 54.3643C52.1036 52.6764 54 50.3872 54 48.0003V31.8003" fill="white"/>
<path d="M66 27L36 15L6 27L36 39L66 27ZM66 27V45M18 31.8003V48.0003C18 50.3872 19.8964 52.6764 23.2721 54.3643C26.6477 56.0521 31.2261 57.0003 36 57.0003C40.7739 57.0003 45.3523 56.0521 48.7279 54.3643C52.1036 52.6764 54 50.3872 54 48.0003V31.8003" stroke="#00588D" stroke-width="1.5" stroke-linecap="round" stroke-linejoin="round"/>
</svg>
