<svg width="142" height="44" viewBox="0 0 142 44" fill="none" xmlns="http://www.w3.org/2000/svg">
<g clip-path="url(#clip0_7501_239979)">
<path d="M12.646 18.418H15.061L19.662 34.77H17.657L16.36 30.071H11.187L9.97998 34.771H7.97498L12.646 18.418ZM13.832 19.736H13.786L11.622 28.436H15.952L13.832 19.736ZM22.897 29.594C22.897 32 23.58 33.524 25.996 33.524C27.841 33.524 29.118 32.728 29.118 30.798C29.118 28.686 28.114 28.163 26.452 27.528L24.036 26.62C22.533 26.053 21.393 24.918 21.393 22.327C21.393 19.737 23.193 18.102 25.859 18.102C28.706 18.102 30.393 19.715 30.53 22.713H28.706C28.706 20.92 27.819 19.738 25.996 19.738C25.6391 19.6894 25.2758 19.7218 24.9332 19.8329C24.5906 19.9439 24.2774 20.1308 24.0169 20.3796C23.7564 20.6283 23.5554 20.9326 23.4287 21.2697C23.3019 21.6069 23.2528 21.9682 23.285 22.327C23.285 23.825 23.672 24.484 24.721 24.871L27.342 25.847C29.94 26.825 31.011 28.368 31.011 30.527C31.011 33.615 29.097 35.159 25.952 35.159C22.808 35.159 21.077 33.117 21.077 29.597H22.897V29.592V29.594ZM38.072 34.772H36.248V20.054H31.988V18.418H42.31V20.054H38.073V34.772H38.072ZM46.16 34.772H44.338V18.418H49.327C52.198 18.418 54.089 19.804 54.089 22.872C54.1523 23.7562 53.884 24.6322 53.3364 25.3293C52.7887 26.0263 52.001 26.4943 51.127 26.642V26.687C52.858 26.892 53.93 28.368 53.93 30.39C53.93 33.796 54.226 33.91 54.476 34.41V34.772H52.631C52.2269 33.5501 52.049 32.2647 52.106 30.979C52.106 28.822 51.149 27.573 49.121 27.573H46.16V34.772ZM46.16 25.936H49.327C49.7234 25.9688 50.1221 25.9126 50.4941 25.7716C50.866 25.6307 51.2018 25.4084 51.4769 25.1211C51.752 24.8339 51.9595 24.4888 52.0843 24.1111C52.209 23.7334 52.2479 23.3326 52.198 22.938C52.198 20.578 50.854 20.054 49.258 20.054H46.16V25.936ZM61.055 18.418H63.469L68.072 34.77H66.066L64.768 30.071H59.596L58.388 34.771H56.384L61.055 18.418ZM62.239 19.736H62.194L60.031 28.436H64.359L62.239 19.736ZM78.466 33.137H85.162V34.772H76.643V18.418H78.466V33.137ZM89.197 34.772H87.375V18.418H89.197V34.772ZM95.49 18.418L100.139 31.795C100.343 32.364 100.503 32.842 100.709 33.594H100.776C100.753 33.001 100.709 32.364 100.709 31.774V18.418H102.532V34.77H99.546L94.966 21.69C94.6806 20.8946 94.4746 20.0729 94.351 19.237H94.307C94.329 20.054 94.351 20.894 94.351 21.734V34.77H92.53V18.418H95.49ZM107.701 18.418V30.184C107.701 31.455 107.884 33.524 110.801 33.524C113.715 33.524 113.898 31.455 113.898 30.184V18.418H115.721V30.842C115.721 33.75 113.784 35.157 110.802 35.157C107.816 35.157 105.881 33.751 105.881 30.842V18.418H107.701ZM120.176 18.418L123.619 24.799L127.059 18.418H129.085L124.689 26.368L129.177 34.77H127.105L123.62 27.934L120.065 34.77H118.038L122.571 26.369L118.151 18.418H120.176Z" fill="#1469C8"/>
<path d="M95.947 42.17H8.094C6.43657 42.1724 4.84606 41.5163 3.6723 40.3461C2.49854 39.1759 1.83765 37.5874 1.835 35.93V16.657C1.83631 15.8365 1.99922 15.0243 2.31443 14.2667C2.62963 13.5092 3.09096 12.8212 3.67207 12.2419C4.25317 11.6627 4.94269 11.2035 5.70123 10.8908C6.45978 10.578 7.2725 10.4177 8.093 10.419H64.553C64.7959 10.419 65.0288 10.3227 65.2007 10.1511C65.3726 9.97958 65.4695 9.74685 65.47 9.50399C65.4699 9.38357 65.446 9.26435 65.3998 9.15315C65.3536 9.04194 65.2859 8.94093 65.2007 8.85587C65.1155 8.77081 65.0143 8.70337 64.903 8.65741C64.7917 8.61145 64.6724 8.58786 64.552 8.58799H8.094C7.03266 8.58641 5.98139 8.7939 5.00024 9.1986C4.01908 9.6033 3.12724 10.1973 2.37565 10.9467C1.62405 11.696 1.02741 12.5861 0.619795 13.5661C0.212181 14.546 0.00157469 15.5966 0 16.658L0 35.93C0.00344517 38.0736 0.858213 40.128 2.37629 41.6414C3.89437 43.1548 5.95143 44.0032 8.095 44H95.947V42.17Z" fill="#1469C8"/>
<path d="M133.906 8.58899H77.475C77.3545 8.58873 77.2351 8.61222 77.1237 8.65812C77.0123 8.70403 76.911 8.77144 76.8257 8.85651C76.7403 8.94158 76.6726 9.04265 76.6263 9.15392C76.58 9.26519 76.5562 9.38449 76.556 9.50499C76.5563 9.62541 76.5803 9.74461 76.6266 9.85576C76.6729 9.96692 76.7407 10.0679 76.826 10.1528C76.9114 10.2378 77.0126 10.3051 77.124 10.351C77.2353 10.3968 77.3546 10.4203 77.475 10.42H133.906C135.563 10.4176 137.154 11.0737 138.328 12.2439C139.501 13.4141 140.162 15.0026 140.165 16.66V35.93C140.164 36.751 140.001 37.5637 139.685 38.3218C139.37 39.0798 138.908 39.7683 138.327 40.3479C137.745 40.9275 137.055 41.3869 136.296 41.6999C135.537 42.0129 134.724 42.1733 133.903 42.172H95.947V44H133.907C136.05 44.0011 138.105 43.1519 139.623 41.6389C141.14 40.1259 141.995 38.0727 142 35.93V16.659C141.994 14.5162 141.139 12.4632 139.622 10.9503C138.104 9.4374 136.049 8.58819 133.906 8.58899Z" fill="#1469C8"/>
<path d="M78.103 5.639L73.286 4.812L71.463 0.967L71.003 0L68.716 4.812L63.896 5.638L67.339 9.358L66.568 14.636L71.002 12.209L75.437 14.635L74.661 9.359C75.275 8.694 77.367 6.436 77.469 6.325L78.103 5.639ZM74.043 9.119L74.699 13.525L71.002 11.502L67.302 13.527L67.957 9.12L65.077 6.01L69.104 5.316L71 1.326L72.893 5.316L76.923 6.01L74.043 9.119Z" fill="#1469C8"/>
<path d="M68.286 9.93199L69.623 11.745L70.197 11.43L67.977 6.84499L70.9 11.045L71 10.99L72.021 11.549L69.774 6.61499L73.6 12.415L74.12 12.698L74.036 12.137L71.568 6.38499L73.689 9.76099L73.574 8.97499L74.222 8.27499L73.364 6.15599L74.474 8.00499L76.046 6.30699L72.592 5.71499L71 2.35999L69.407 5.71499L65.955 6.30699L68.427 8.97499L68.286 9.93199ZM68.146 10.89L67.882 12.698L68.815 12.187L68.146 10.89ZM134.481 20.492C134.484 20.9172 134.361 21.3338 134.126 21.6887C133.892 22.0437 133.558 22.3211 133.166 22.4857C132.774 22.6503 132.342 22.6947 131.924 22.6133C131.507 22.5318 131.123 22.3283 130.822 22.0283C130.52 21.7284 130.314 21.3457 130.231 20.9287C130.147 20.5118 130.19 20.0794 130.352 19.6865C130.515 19.2935 130.79 18.9578 131.144 18.7218C131.498 18.4858 131.914 18.3602 132.339 18.361C132.62 18.3602 132.898 18.4147 133.157 18.5214C133.417 18.6281 133.653 18.7848 133.852 18.9827C134.05 19.1806 134.208 19.4158 134.316 19.6747C134.424 19.9337 134.48 20.2114 134.481 20.492ZM130.515 20.492C130.513 20.8521 130.619 21.2046 130.818 21.5049C131.016 21.8051 131.3 22.0397 131.632 22.1787C131.964 22.3178 132.33 22.3553 132.684 22.2863C133.037 22.2173 133.362 22.045 133.618 21.7912C133.873 21.5373 134.048 21.2134 134.119 20.8604C134.19 20.5075 134.155 20.1412 134.018 19.8081C133.881 19.475 133.649 19.19 133.35 18.9892C133.051 18.7884 132.699 18.6808 132.339 18.68C132.1 18.6791 131.864 18.7252 131.643 18.8158C131.422 18.9064 131.221 19.0396 131.051 19.2079C130.882 19.3762 130.747 19.5762 130.655 19.7966C130.563 20.0169 130.516 20.2532 130.515 20.492ZM131.535 19.292H132.59C133 19.292 133.445 19.424 133.445 19.934C133.445 20.418 133.08 20.587 132.687 20.587L133.404 21.691H133.051L132.372 20.587H131.842V21.691H131.536L131.535 19.292ZM131.843 20.362H132.549C132.772 20.362 133.137 20.322 133.137 19.924C133.137 19.565 132.811 19.52 132.52 19.52H131.843V20.362Z" fill="#1469C8"/>
</g>
<defs>
<clipPath id="clip0_7501_239979">
<rect width="142" height="44" fill="white"/>
</clipPath>
</defs>
</svg>
