<svg width="187" height="248" viewBox="0 0 187 248" fill="none" xmlns="http://www.w3.org/2000/svg">
<g clip-path="url(#clip0_7712_2042)">
<path d="M104.831 81.9215C102.262 81.9559 105.314 83.242 108.669 83.7595C109.599 83.034 110.434 82.3049 111.184 81.5931C109.098 82.1037 106.973 82.1158 104.831 81.9215Z" fill="#A80030"/>
<path d="M118.615 78.4843C120.151 76.3712 121.265 74.0603 121.659 71.6703C121.313 73.3725 120.393 74.8426 119.52 76.397C114.718 79.4214 119.066 74.6019 119.516 72.7673C114.355 79.2718 118.805 76.6669 118.615 78.4843Z" fill="#A80030"/>
<path d="M123.71 65.238C124.023 60.6111 122.801 62.076 122.39 63.8384C122.868 64.0894 123.248 67.1019 123.71 65.238Z" fill="#A80030"/>
<path d="M95.0853 1.99969C96.4574 2.24385 98.0496 2.43299 97.8209 2.7614C99.3271 2.42955 99.6658 2.13037 95.0853 1.99969Z" fill="#A80030"/>
<path d="M97.8226 2.76135L96.858 2.96252L97.7573 2.87999L97.8226 2.76135Z" fill="#A80030"/>
<path d="M140.583 66.9918C140.737 71.1459 139.371 73.1645 138.134 76.734L135.911 77.8396C134.094 81.3712 136.092 80.0817 134.79 82.8895C131.95 85.4119 126.183 90.7799 124.336 91.2716C122.986 91.2424 125.249 89.6794 125.545 89.069C121.747 91.6757 122.496 92.9824 116.686 94.5695L116.518 94.1895C102.195 100.93 82.298 87.5749 82.5594 69.356C82.4081 70.5114 82.1244 70.2226 81.808 70.6868C81.0687 61.3143 86.1375 51.9005 94.6864 48.0507C103.048 43.9138 112.85 45.6091 118.836 51.1955C115.548 46.8867 108.999 42.3182 101.243 42.7412C93.641 42.865 86.5278 47.6948 84.155 52.9407C80.2622 55.3909 79.8083 62.3906 78.113 63.6733C75.8279 80.4548 82.4064 87.7021 93.5361 96.2321C95.283 97.4116 94.0279 97.5922 94.2617 98.4897C90.565 96.76 87.1812 94.1465 84.3957 90.9467C85.8744 93.108 87.4683 95.2091 89.5299 96.8597C86.0412 95.6819 81.3833 88.4122 80.0267 88.1165C86.036 98.8766 104.405 106.987 114.028 102.962C109.575 103.127 103.92 103.053 98.9196 101.205C96.8133 100.123 93.9608 97.8862 94.4715 97.4684C107.601 102.37 121.16 101.179 132.519 92.0746C135.411 89.8222 138.568 85.993 139.481 85.9414C138.107 88.0082 139.716 86.9353 138.66 88.7596C141.535 84.1154 137.407 86.8682 141.635 80.7402L143.196 82.8895C142.612 79.0311 147.985 74.3509 147.438 68.2538C148.671 66.39 148.812 70.2621 147.505 74.5503C149.319 69.7927 147.985 69.0276 148.449 65.1004C148.949 66.4209 149.615 67.8223 149.954 69.2167C148.771 64.6173 151.162 61.4742 151.757 58.8005C151.169 58.5426 149.933 60.8328 149.647 55.4029C149.69 53.0439 150.306 54.1667 150.542 53.5855C150.081 53.319 148.865 51.5102 148.128 48.0421C148.659 47.2254 149.558 50.1553 150.287 50.2739C149.818 47.5177 149.011 45.4149 148.977 43.2983C146.845 38.845 148.222 43.8932 146.496 41.3863C144.226 34.3126 148.377 39.7442 148.659 36.5324C152.094 41.5101 154.053 49.2302 154.955 52.4266C154.268 48.5287 153.159 44.7512 151.802 41.0974C152.849 41.5393 150.119 33.0798 153.162 38.6816C149.914 26.7403 139.273 15.5813 129.48 10.3474C130.675 11.4427 132.187 12.8182 131.647 13.0349C126.774 10.1376 127.63 9.90896 126.932 8.68474C122.969 7.07021 122.704 8.81713 120.082 8.68818C112.603 4.71977 111.162 5.14103 104.279 2.65819L104.592 4.12313C99.6383 2.4725 98.8199 4.74556 93.4673 4.12657C93.1424 3.87382 95.1833 3.20497 96.8649 2.96253C92.0746 3.59527 92.2981 2.01685 87.611 3.13619C88.7647 2.32634 89.989 1.78817 91.2201 1.1004C87.3153 1.33768 81.894 3.37347 83.567 1.51994C77.1965 4.36385 65.8811 8.35461 59.5313 14.3089L59.3318 12.9747C56.4226 16.4668 46.6443 23.4046 45.8654 27.9319L45.0865 28.1124C43.5751 30.676 42.5933 33.5801 41.3932 36.216C39.4141 39.5912 38.4908 37.5159 38.7728 38.0454C34.8783 45.941 32.9405 52.5745 31.271 58.0182C32.4608 59.7978 31.3002 68.7335 31.749 75.8846C29.7957 111.208 56.5395 145.502 85.773 153.418C90.0577 154.954 96.4282 154.899 101.848 155.05C95.455 153.22 94.6297 154.082 88.3985 151.91C83.9057 149.792 82.9222 147.376 79.7378 144.613L80.9982 146.84C74.7567 144.63 77.3685 144.106 72.2893 142.498L73.6356 140.743C71.6119 140.588 68.2762 137.335 67.3649 135.528L65.1503 135.615C62.4921 132.338 61.0736 129.97 61.1785 128.136L60.4632 129.412C59.6534 128.021 50.678 117.104 55.3342 119.645C54.4693 118.858 53.319 118.361 52.0725 116.093L53.0199 115.012C50.7829 112.128 48.8967 108.433 49.0411 107.202C50.2361 108.815 51.0649 109.117 51.8868 109.394C46.2282 95.3569 45.9101 108.622 41.627 95.1059L42.5314 95.0337C41.8385 93.9831 41.4138 92.85 40.8567 91.7341L41.2522 87.8053C37.1806 83.101 40.1139 67.7827 40.7037 59.3834C41.1078 55.9686 44.103 52.3321 46.3778 46.6288L44.9919 46.3915C47.6433 41.7697 60.1262 27.8235 65.9103 28.5388C68.7112 25.0209 65.3532 28.5251 64.8047 27.6413C70.9585 21.2743 72.8928 23.1433 77.0452 21.9964C81.5209 19.3399 73.2023 23.035 75.3241 20.9837C83.0666 19.0081 80.809 16.4892 90.9071 15.4867C91.9732 16.092 88.4363 16.4221 87.5491 17.2079C93.9969 14.051 107.957 14.7715 117.028 18.9582C127.546 23.8775 139.371 38.4117 139.838 52.0862L140.37 52.2289C140.101 57.6657 141.202 63.9536 139.291 69.7274L140.583 66.9918Z" fill="#A80030"/>
<path d="M76.7856 85.4463L76.4228 87.2465C78.113 89.5419 79.4541 92.0282 81.6085 93.8164C80.0576 90.7919 78.9073 89.5419 76.7856 85.4463Z" fill="#A80030"/>
<path d="M80.7763 85.2915C79.8822 84.3011 79.3561 83.1113 78.7612 81.9283C79.3286 84.0106 80.4909 85.8005 81.569 87.623L80.7763 85.2915Z" fill="#A80030"/>
<path d="M151.417 69.9371L151.04 70.8863C150.349 75.8003 148.851 80.6628 146.561 85.1729C149.092 80.4152 150.724 75.2106 151.417 69.9371Z" fill="#A80030"/>
<path d="M95.596 0.766858C97.3309 0.132395 99.8636 0.417818 101.71 0C99.3065 0.201171 96.9148 0.32153 94.554 0.622428L95.596 0.766858Z" fill="#A80030"/>
<path d="M34.6066 33.1984C35.0072 36.902 31.8212 38.3412 35.3116 35.8962C37.1857 31.6767 34.5826 34.7321 34.6066 33.1984Z" fill="#A80030"/>
<path d="M30.5007 50.3479C31.3071 47.8771 31.4515 46.3949 31.7593 44.9626C29.5361 47.8066 30.7345 48.4135 30.5007 50.3479Z" fill="#A80030"/>
<path d="M23.1038 215.797C23.0264 215.878 23.0264 228.703 22.8665 232.05C22.7083 234.757 22.4676 240.573 16.7316 240.573C10.8357 240.573 9.40175 233.801 8.92376 230.855C8.36667 227.588 8.36667 224.877 8.36667 223.685C8.36667 219.86 8.60567 209.18 17.6085 209.18C20.3183 209.18 21.8314 209.98 23.0264 210.614L23.1038 215.797ZM0 225.2C0 247.666 11.9516 247.666 13.7037 247.666C18.6436 247.666 21.8314 244.956 23.1846 240.257L23.3445 247.346C24.8593 247.265 26.3724 247.107 28.8414 247.107C29.7183 247.107 30.4336 247.107 31.0732 247.188C31.7111 247.188 32.3473 247.265 33.0643 247.346C31.7902 244.798 30.8342 239.062 30.8342 226.629C30.8342 214.519 30.8342 194.044 31.8693 187.829C29.0031 189.185 26.5306 190.062 21.1127 190.539C23.2637 192.849 23.2637 194.044 23.2637 204.559C21.7523 204.082 19.8386 203.524 16.5717 203.524C2.31089 203.525 0 215.955 0 225.2Z" fill="black"/>
<path d="M43.2089 221.132C43.2897 214.519 44.6446 208.623 50.2997 208.623C56.5154 208.623 56.99 215.473 56.8318 221.132H43.2089ZM64.7187 221.932C64.7187 212.609 62.8876 203.444 51.0958 203.444C34.8439 203.444 34.8439 221.455 34.8439 225.276C34.8439 241.449 42.093 247.823 54.2836 247.823C59.6981 247.823 62.3305 247.03 63.7645 246.628C63.6854 243.76 64.0826 241.927 64.564 239.458C62.8876 240.496 60.7366 241.849 55.9566 241.849C43.527 241.849 43.3671 230.532 43.3671 226.629H64.564L64.7187 221.932Z" fill="black"/>
<path d="M90.6389 225.357C90.6389 232.766 89.2857 242.726 80.0439 242.726C78.7681 242.726 77.1759 242.484 76.1408 242.247C75.9809 239.379 75.9809 234.439 75.9809 228.703C75.9809 221.849 76.6962 218.269 77.2567 216.512C78.928 210.857 82.6729 210.78 83.3881 210.78C89.4439 210.78 90.6389 219.144 90.6389 225.357ZM67.7741 234.041C67.7741 239.939 67.7741 243.283 66.8182 245.831C70.085 247.107 74.1463 247.823 79.0088 247.823C82.1158 247.823 91.1186 247.823 95.9777 237.865C98.2886 233.244 99.0847 227.028 99.0847 222.327C99.0847 219.459 98.7649 213.166 96.4557 209.18C94.2273 205.439 90.6406 203.525 86.8184 203.525C79.1687 203.525 76.9386 209.899 75.7454 213.166C75.7454 209.103 75.8227 194.921 76.4589 187.671C71.2817 190.062 68.0922 190.458 64.6689 190.778C67.7759 192.05 67.7759 197.313 67.7759 214.444L67.7741 234.041Z" fill="black"/>
<path d="M114.401 247.346C112.806 247.107 111.688 246.947 109.377 246.947C106.832 246.947 105.075 247.109 103.246 247.346C104.042 245.831 104.36 245.113 104.599 239.937C104.919 232.845 104.998 213.881 104.441 209.897C104.042 206.868 103.326 206.392 102.211 205.595C108.743 204.958 110.576 204.481 113.602 203.047C112.967 206.55 112.883 208.307 112.883 213.642C112.727 241.134 112.646 244.079 114.401 247.346Z" fill="black"/>
<path d="M139.914 224.796C139.756 229.817 139.675 233.323 138.318 236.11C136.645 239.697 133.858 240.732 131.786 240.732C127.001 240.732 125.969 236.75 125.969 232.846C125.969 225.358 132.663 224.796 135.687 224.796H139.914ZM118.002 234.599C118.002 239.619 119.516 244.636 123.98 246.789C125.971 247.666 127.962 247.666 128.602 247.666C135.933 247.666 138.401 242.246 139.916 238.9C139.835 242.406 139.916 244.556 140.155 247.346C141.589 247.265 143.022 247.107 145.414 247.107C146.767 247.107 148.043 247.265 149.396 247.346C148.519 245.993 148.043 245.194 147.801 242.087C147.643 239.06 147.643 236.033 147.643 231.81L147.723 215.556C147.723 209.499 146.128 203.524 134.176 203.524C126.291 203.524 121.671 205.915 119.36 207.11C120.318 208.864 121.114 210.374 121.829 213.804C124.939 211.094 129.002 209.66 133.143 209.66C139.759 209.66 139.759 214.043 139.759 220.255C138.244 220.178 136.968 220.02 134.816 220.02C124.694 220.021 118.002 223.919 118.002 234.599Z" fill="black"/>
<path d="M185.805 239.459C185.886 242.169 185.886 245.037 187 247.348C185.245 247.19 184.209 246.949 180.946 246.949C179.032 246.949 177.997 247.111 176.482 247.348C176.799 246.313 176.962 245.914 177.12 244.557C177.359 242.728 177.519 236.591 177.519 234.439V225.835C177.519 222.09 177.519 216.67 177.277 214.76C177.119 213.407 176.723 209.743 172.098 209.743C167.557 209.743 166.044 213.087 165.485 215.797C164.851 218.584 164.851 221.614 164.851 233.404C164.928 243.603 164.928 244.556 165.724 247.346C164.371 247.188 162.698 247.03 160.308 247.03C158.394 247.03 157.12 247.107 155.53 247.346C156.087 246.07 156.406 245.433 156.565 240.972C156.726 236.59 157.044 215.076 156.322 209.98C155.927 206.87 155.127 206.154 154.254 205.358C160.708 205.038 162.777 204.002 164.771 202.97V211.412C165.726 208.94 167.717 203.443 175.686 203.443C185.647 203.443 185.724 210.694 185.805 215.472V239.459Z" fill="black"/>
<path d="M115.073 191.771L108.474 198.367L101.879 191.771L108.474 185.176L115.073 191.771Z" fill="#A80030"/>
</g>
<defs>
<clipPath id="clip0_7712_2042">
<rect width="187" height="247.824" fill="white"/>
</clipPath>
</defs>
</svg>
