<svg width="30" height="30" viewBox="0 0 30 30" fill="none" xmlns="http://www.w3.org/2000/svg">
<path d="M29.9992 23.0256C29.9992 23.1233 29.9992 23.2209 29.9992 23.3186C29.8911 23.5675 29.747 23.7844 29.4556 23.8348C29.3219 23.858 29.1834 23.8564 29.0473 23.8572C28.4661 23.8596 27.8841 23.858 27.2837 23.858C27.347 26.2255 26.191 27.3556 23.8573 27.2868C23.8573 27.9287 23.8437 28.5329 23.8621 29.1364C23.875 29.5598 23.714 29.8463 23.3186 29.9992C23.2209 29.9992 23.1232 29.9992 23.0256 29.9992C22.6189 29.8311 22.4708 29.5174 22.4956 29.0932C22.51 28.8499 22.498 28.6058 22.498 28.3617C22.498 28.0055 22.498 27.6493 22.498 27.29C21.5718 27.29 20.688 27.29 19.7697 27.29C19.7697 27.9199 19.7609 28.5321 19.7729 29.1444C19.7809 29.5646 19.6224 29.8575 19.2165 30C19.1189 30 19.0212 30 18.9235 30C18.5217 29.8247 18.3888 29.5062 18.3992 29.0852C18.4136 28.4921 18.4032 27.8982 18.4032 27.2972C17.4849 27.2972 16.5947 27.2972 15.6837 27.2972C15.6837 27.9079 15.6741 28.4921 15.6869 29.0764C15.6957 29.4926 15.5692 29.8159 15.1737 29.9992C15.0569 29.9992 14.9392 29.9992 14.8223 29.9992C14.5453 29.8495 14.3291 29.6542 14.3187 29.3101C14.3139 29.154 14.3131 28.9979 14.3123 28.8419C14.3115 28.328 14.3123 27.8142 14.3123 27.2876C13.3885 27.2876 12.5047 27.2876 11.5929 27.2876C11.5929 27.8974 11.5816 28.4913 11.5969 29.0844C11.6073 29.5054 11.4744 29.8239 11.0725 29.9992C10.9748 29.9992 10.8772 29.9992 10.7795 29.9992C10.3736 29.8567 10.2135 29.5638 10.2231 29.1436C10.2351 28.6562 10.2255 28.168 10.2255 27.6797C10.2255 27.5493 10.2255 27.418 10.2255 27.29C9.28485 27.29 8.40024 27.29 7.49722 27.29C7.49722 27.9039 7.48441 28.4985 7.50122 29.0924C7.51323 29.5174 7.37633 29.8311 6.96965 29.9984C6.87198 29.9984 6.77432 29.9984 6.67665 29.9984C6.27957 29.8455 6.10906 29.5558 6.13547 29.1332C6.14908 28.9195 6.13787 28.7034 6.13787 28.4889C6.13787 28.0927 6.13787 27.6966 6.13787 27.2572C5.14279 27.3324 4.24616 27.1803 3.53127 26.4728C2.80757 25.7565 2.67147 24.8441 2.72991 23.8564C2.09187 23.8564 1.49786 23.8572 0.90465 23.8564C0.317844 23.8556 -0.00317849 23.6139 2.37272e-05 23.1753C0.00242539 22.7399 0.328251 22.4982 0.912656 22.4974C1.50587 22.4974 2.09908 22.4974 2.70109 22.4974C2.70109 21.5778 2.70109 20.6862 2.70109 19.769C2.40569 19.769 2.1343 19.7714 1.86211 19.7682C1.43302 19.7634 1.00232 19.773 0.574822 19.741C0.243392 19.7153 0.0112315 19.428 0.000824282 19.1039C-0.00878237 18.7997 0.204165 18.5164 0.516381 18.4452C0.657279 18.4132 0.805381 18.4043 0.951082 18.4035C1.53309 18.3987 2.11509 18.4019 2.7059 18.4019C2.7059 17.4791 2.7059 16.5955 2.7059 15.6823C2.47454 15.6823 2.26079 15.6855 2.04784 15.6815C1.5507 15.6727 1.05195 15.6831 0.55721 15.6423C0.22498 15.6151 -0.00157738 15.3117 0.000824282 14.9932C0.00322594 14.6731 0.229783 14.4033 0.563614 14.3449C0.715719 14.3185 0.873429 14.3137 1.02874 14.3121C1.58272 14.3081 2.1375 14.3105 2.7075 14.3105C2.7075 13.3925 2.7075 12.5081 2.7075 11.5909C2.14951 11.5909 1.60514 11.5917 1.06156 11.5901C0.915057 11.5893 0.766955 11.5965 0.623656 11.5741C0.241791 11.5156 -0.0135857 11.2243 0.00162484 10.8817C0.0176359 10.5248 0.274614 10.2511 0.668487 10.2359C1.24409 10.2134 1.82048 10.2262 2.39608 10.2222C2.49935 10.2214 2.60183 10.2118 2.7067 10.2062C2.7067 9.28662 2.7067 8.40222 2.7067 7.49461C2.58261 7.49461 2.47694 7.49461 2.37127 7.49461C1.82449 7.49461 1.27691 7.50581 0.73093 7.49061C0.151328 7.4754 -0.171295 6.94556 0.0992925 6.47735C0.2546 6.20763 0.504373 6.13399 0.794974 6.13479C1.42661 6.13719 2.05825 6.13559 2.7115 6.13559C2.64345 3.77052 3.80106 2.63881 6.14028 2.70844C6.14028 2.00492 6.12987 1.34142 6.14428 0.677923C6.15308 0.281743 6.44689 0.00321735 6.81114 1.59039e-05C7.15538 -0.00238518 7.44438 0.267337 7.48921 0.641907C7.50202 0.748355 7.49642 0.856404 7.49642 0.963652C7.49722 1.53831 7.49642 2.11297 7.49642 2.70284C8.41065 2.70284 9.30247 2.70284 10.2247 2.70284C10.2247 2.50835 10.2231 2.33547 10.2247 2.16179C10.2311 1.63516 10.2215 1.10692 10.2519 0.581879C10.2703 0.264936 10.5113 0.0560413 10.8243 0.00881989C11.0957 -0.0319986 11.4175 0.134477 11.5128 0.398596C11.568 0.549865 11.5856 0.721943 11.588 0.885217C11.5961 1.48789 11.5913 2.09056 11.5913 2.70764C12.5079 2.70764 13.3917 2.70764 14.3107 2.70764C14.3107 2.22582 14.3067 1.75921 14.3123 1.2934C14.3155 1.04049 14.3147 0.785171 14.3516 0.535458C14.3956 0.239324 14.635 0.040034 14.9344 0.00561844C15.1961 -0.0247953 15.5012 0.133676 15.5972 0.391393C15.6573 0.550665 15.6757 0.732347 15.6789 0.905226C15.6885 1.49909 15.6829 2.09376 15.6829 2.70124C16.6019 2.70124 17.4929 2.70124 18.4024 2.70124C18.4024 2.05375 18.3976 1.42946 18.404 0.805981C18.4088 0.321762 18.673 0.011221 19.074 0.000816266C19.4855 -0.00958844 19.7585 0.303353 19.7681 0.807582C19.7745 1.11972 19.7697 1.43266 19.7697 1.74481C19.7697 2.06335 19.7697 2.38109 19.7697 2.70924C20.7 2.70924 21.5846 2.70924 22.498 2.70924C22.498 2.59879 22.498 2.50355 22.498 2.40831C22.498 1.85205 22.4884 1.295 22.5012 0.73875C22.5132 0.196905 22.9695 -0.133645 23.4314 0.0568416C23.7533 0.189702 23.8597 0.457023 23.8581 0.788373C23.8549 1.42066 23.8573 2.05295 23.8573 2.71084C26.215 2.64681 27.3582 3.79293 27.2845 6.13879C27.9242 6.13879 28.5294 6.1516 29.1338 6.13479C29.5565 6.12279 29.8463 6.28046 29.9992 6.67824C29.9992 6.77588 29.9992 6.87353 29.9992 6.97117C29.8319 7.37776 29.5181 7.52582 29.093 7.50101C28.8496 7.48661 28.6054 7.49861 28.3613 7.49861C28.005 7.49861 27.6496 7.49861 27.2893 7.49861C27.2893 8.42463 27.2893 9.30823 27.2893 10.227C27.9098 10.227 28.5118 10.2367 29.1138 10.2238C29.5413 10.2142 29.8535 10.3567 29.9992 10.7801C29.9992 10.8777 29.9992 10.9754 29.9992 11.073C29.8239 11.4748 29.5053 11.6077 29.085 11.5973C28.4918 11.5829 27.8985 11.5933 27.2973 11.5933C27.2973 12.5113 27.2973 13.4013 27.2973 14.3129C27.9074 14.3129 28.4926 14.3225 29.077 14.3097C29.4932 14.3009 29.8167 14.4273 30 14.8227C30 14.9396 30 15.0572 30 15.1741C29.8503 15.451 29.655 15.6679 29.3115 15.6775C29.1554 15.6823 28.9993 15.6831 28.8432 15.6839C28.3292 15.6847 27.8153 15.6839 27.2893 15.6839C27.2893 16.6075 27.2893 17.4911 27.2893 18.4035C27.8993 18.4035 28.4934 18.4148 29.0858 18.3995C29.5069 18.3891 29.8255 18.522 30 18.9238C30 19.0214 30 19.1191 30 19.2167C29.8543 19.6401 29.5413 19.7826 29.1146 19.773C28.5126 19.7602 27.9106 19.7698 27.2909 19.7698C27.2909 20.6966 27.2909 21.5882 27.2909 22.4982C27.905 22.4982 28.4998 22.511 29.0938 22.4942C29.5173 22.4822 29.8311 22.6191 29.9992 23.0256ZM25.9036 15.0276C25.9036 11.8934 25.9044 8.75918 25.9028 5.62496C25.9028 4.62771 25.3648 4.09227 24.3633 4.09227C18.1142 4.09147 11.865 4.09147 5.61591 4.09227C4.63363 4.09227 4.09086 4.63171 4.09006 5.60976C4.08926 11.8686 4.08926 18.1274 4.09006 24.3855C4.09006 25.3635 4.63283 25.9037 5.61431 25.9037C11.873 25.9045 18.1318 25.9045 24.3913 25.9029C24.5466 25.9029 24.7067 25.8997 24.8556 25.8637C25.5161 25.7037 25.9012 25.1762 25.902 24.4303C25.9044 21.2961 25.9036 18.1618 25.9036 15.0276Z" fill="#003A5C"/>
<path d="M5.44807 14.9759C5.44807 12.1146 5.44807 9.25254 5.44807 6.39125C5.44807 5.67412 5.67542 5.44922 6.39752 5.44922C12.1303 5.44922 17.8639 5.44922 23.5966 5.44922C24.3195 5.44922 24.5461 5.67412 24.5461 6.39125C24.5461 12.1338 24.5461 17.8764 24.5461 23.619C24.5461 24.3146 24.3123 24.5467 23.611 24.5467C17.8679 24.5467 12.1255 24.5467 6.38231 24.5467C5.68183 24.5467 5.44727 24.3146 5.44727 23.619C5.44807 20.7377 5.44807 17.8572 5.44807 14.9759ZM23.1835 14.9991C23.1835 12.382 23.1795 9.76477 23.1892 7.14839C23.19 6.88027 23.1195 6.80583 22.8489 6.80663C17.6149 6.81464 12.3801 6.81464 7.14604 6.80663C6.87866 6.80663 6.80341 6.87626 6.80421 7.14679C6.81221 12.3812 6.81221 17.6147 6.80421 22.8491C6.80421 23.1172 6.87385 23.1917 7.14444 23.1909C12.3785 23.1828 17.6133 23.1828 22.8473 23.1909C23.1147 23.1909 23.1908 23.1212 23.1892 22.8507C23.1795 20.2327 23.1835 17.6155 23.1835 14.9991Z" fill="#003A5C"/>
</svg>
