<svg width="41" height="40" viewBox="0 0 41 40" fill="none" xmlns="http://www.w3.org/2000/svg">
<path d="M40.1002 15.2568L26.5033 13.1036C25.3365 10.8331 21.3568 3.0967 21.3568 3.0967L20.0568 0.580078L13.6054 13.1036L0 15.2555L9.71662 24.9392L7.54077 38.6747L20.0568 32.3575L32.5736 38.6714L30.385 24.9392C32.1177 23.2096 38.0209 17.331 38.3105 17.0421L40.1002 15.2568ZM28.6418 24.3173L30.49 35.783L20.0568 30.5185L9.61163 35.7875L11.4619 24.3173L3.33141 16.222L14.6996 14.4179L20.0484 4.0308L25.39 14.4179L36.766 16.222L28.6418 24.3173Z" fill="#E8112D"/>
<path d="M12.3916 26.43L16.1648 31.1491L17.7833 30.3284L11.5186 18.3963L19.7682 29.3276L20.0515 29.1844L22.9319 30.64L16.589 17.7964L27.39 32.8929L28.8556 33.6288L28.621 32.1694L21.6545 17.1966L27.6402 25.9844L27.3139 23.9387L29.1452 22.1171L26.7242 16.6019L29.8548 21.4143L34.2938 16.9938L24.5441 15.4528L20.0515 6.72266L15.5554 15.4528L5.81055 16.9938L12.7883 23.9387L12.3916 26.43Z" fill="#E8112D"/>
<path d="M11.9955 28.9258L11.25 33.6306L13.8838 32.3027L11.9955 28.9258Z" fill="#E8112D"/>
</svg>
