<svg width="38" height="38" viewBox="0 0 38 38" fill="none" xmlns="http://www.w3.org/2000/svg">
<path d="M14.5595 18.9969L17.5193 22.3747L23.4389 15.6191M18.9992 3.79688C22.456 7.28709 26.9677 9.10432 31.5783 8.86354C32.2496 11.4695 32.455 14.2029 32.1823 16.9013C31.9096 19.5996 31.1644 22.2079 29.991 24.5711C28.8176 26.9343 27.2398 29.0042 25.3516 30.6578C23.4633 32.3114 21.3031 33.5149 18.9992 34.1969C16.6953 33.5149 14.5351 32.3114 12.6468 30.6578C10.7586 29.0042 9.18089 26.9343 8.00746 24.5711C6.83403 22.2079 6.08883 19.5996 5.81615 16.9013C5.54347 14.2029 5.74886 11.4695 6.42013 8.86354C11.0308 9.10432 15.5424 7.28709 18.9992 3.79688Z" stroke="#0079C1" stroke-width="1.5" stroke-linecap="round" stroke-linejoin="round"/>
</svg>
