<svg width="38" height="38" viewBox="0 0 38 38" fill="none" xmlns="http://www.w3.org/2000/svg">
<path d="M14.2513 28.5026C14.2513 30.2515 12.8335 31.6693 11.0846 31.6693C9.33573 31.6693 7.91797 30.2515 7.91797 28.5026C7.91797 26.7537 9.33573 25.3359 11.0846 25.3359M14.2513 28.5026C14.2513 26.7537 12.8335 25.3359 11.0846 25.3359M14.2513 28.5026H23.7513C24.5912 28.5026 25.3966 28.169 25.9905 27.5751C26.5843 26.9812 26.918 26.1758 26.918 25.3359V17.4193M11.0846 25.3359V12.6693M11.0846 12.6693C12.8335 12.6693 14.2513 11.2515 14.2513 9.5026C14.2513 7.7537 12.8335 6.33594 11.0846 6.33594C9.33573 6.33594 7.91797 7.7537 7.91797 9.5026C7.91797 11.2515 9.33573 12.6693 11.0846 12.6693ZM26.918 17.4193L22.168 22.1693M26.918 17.4193L31.668 22.1693M30.0846 9.5026C30.0846 11.2515 28.6669 12.6693 26.918 12.6693C25.1691 12.6693 23.7513 11.2515 23.7513 9.5026C23.7513 7.7537 25.1691 6.33594 26.918 6.33594C28.6669 6.33594 30.0846 7.7537 30.0846 9.5026Z" stroke="#0079C1" stroke-width="1.5" stroke-linecap="round" stroke-linejoin="round"/>
</svg>
