<svg width="39" height="38" viewBox="0 0 39 38" fill="none" xmlns="http://www.w3.org/2000/svg">
<path d="M16.1654 23.7526H6.66536C6.24544 23.7526 5.84271 23.5858 5.54578 23.2889C5.24885 22.9919 5.08203 22.5892 5.08203 22.1693V9.5026C5.08203 9.08268 5.24885 8.67995 5.54578 8.38302C5.84271 8.08609 6.24544 7.91927 6.66536 7.91927H16.1654M11.4154 30.0859H16.1654M27.2487 12.6693V12.6851M14.582 23.7526V30.0859M22.4987 6.33594H31.9987C32.8731 6.33594 33.582 7.04482 33.582 7.91927V30.0859C33.582 30.9604 32.8731 31.6693 31.9987 31.6693H22.4987C21.6242 31.6693 20.9154 30.9604 20.9154 30.0859V7.91927C20.9154 7.04482 21.6242 6.33594 22.4987 6.33594ZM28.832 25.3359C28.832 26.2104 28.1231 26.9193 27.2487 26.9193C26.3742 26.9193 25.6654 26.2104 25.6654 25.3359C25.6654 24.4615 26.3742 23.7526 27.2487 23.7526C28.1231 23.7526 28.832 24.4615 28.832 25.3359Z" stroke="#0079C1" stroke-width="1.5" stroke-linecap="round" stroke-linejoin="round"/>
</svg>
