<svg width="40" height="40" viewBox="0 0 40 40" fill="none" xmlns="http://www.w3.org/2000/svg">
<path d="M13.3333 15L21.6667 23.3333V35M13.3333 15L5 23.3333V35H13.3333M13.3333 15V35M21.6667 35H13.3333M21.6667 35H35V6.66667C35 6.22464 34.8244 5.80072 34.5118 5.48816C34.1993 5.17559 33.7754 5 33.3333 5H16.6667C16.2246 5 15.8007 5.17559 15.4882 5.48816C15.1756 5.80072 15 6.22464 15 6.66667V16.6667M21.6667 11.6667V11.6833M28.3333 11.6667V11.6833M28.3333 18.3333V18.35M28.3333 25V25.0167" stroke="#0079C1" stroke-width="1.5" stroke-linecap="round" stroke-linejoin="round"/>
</svg>
