<svg width="64" height="64" viewBox="0 0 64 64" fill="none" xmlns="http://www.w3.org/2000/svg">
<path d="M10.6665 21.3307V15.9974C10.6665 14.5829 11.2284 13.2264 12.2286 12.2262C13.2288 11.226 14.5853 10.6641 15.9998 10.6641H21.3332M10.6665 42.6641V47.9974C10.6665 49.4119 11.2284 50.7684 12.2286 51.7686C13.2288 52.7688 14.5853 53.3307 15.9998 53.3307H21.3332M42.6665 10.6641H47.9998C49.4143 10.6641 50.7709 11.226 51.7711 12.2262C52.7713 13.2264 53.3332 14.5829 53.3332 15.9974V21.3307M42.6665 53.3307H47.9998C49.4143 53.3307 50.7709 52.7688 51.7711 51.7686C52.7713 50.7684 53.3332 49.4119 53.3332 47.9974V42.6641M22.9411 25.624C23.4476 25.108 24.0518 24.6981 24.7184 24.4182C25.3851 24.1384 26.1008 23.9943 26.8238 23.9943C27.5468 23.9943 28.2626 24.1384 28.9292 24.4182C29.5959 24.6981 30.2001 25.108 30.7065 25.624L31.9998 26.664L33.3331 25.608C33.8392 25.0976 34.4416 24.6929 35.1054 24.4172C35.7691 24.1416 36.481 24.0005 37.1997 24.0023C37.9184 24.004 38.6296 24.1485 39.2921 24.4273C39.9545 24.7062 40.5549 25.1139 41.0585 25.6267C42.0892 26.6759 42.6668 28.0878 42.6668 29.5587C42.6668 31.0295 42.0892 32.4415 41.0585 33.4907L31.9998 42.664L22.9411 33.4907C21.9096 32.4413 21.3315 31.0288 21.3315 29.5573C21.3315 28.0859 21.9096 26.6733 22.9411 25.624Z" stroke="#0079C1" stroke-width="1.5" stroke-linecap="round" stroke-linejoin="round"/>
</svg>
