<svg width="64" height="64" viewBox="0 0 64 64" fill="none" xmlns="http://www.w3.org/2000/svg">
<path d="M50.6665 22.0454C51.4773 22.5135 52.1505 23.1867 52.6186 23.9975C53.0867 24.8082 53.3331 25.7279 53.3332 26.6641V47.9974C53.3332 49.4119 52.7713 50.7684 51.7711 51.7686C50.7709 52.7688 49.4143 53.3307 47.9998 53.3307H26.6665C25.252 53.3307 23.8955 52.7688 22.8953 51.7686C21.8951 50.7684 21.3332 49.4119 21.3332 47.9974V26.6641C21.3332 25.2496 21.8951 23.893 22.8953 22.8928C23.8955 21.8926 25.252 21.3307 26.6665 21.3307H34.6665M13.3412 41.9547C12.5281 41.4872 11.8528 40.8136 11.3832 40.0017C10.9136 39.1899 10.6664 38.2686 10.6665 37.3307V15.9974C10.6665 14.5829 11.2284 13.2264 12.2286 12.2262C13.2288 11.226 14.5853 10.6641 15.9998 10.6641H37.3332C38.7477 10.6641 40.1042 11.226 41.1044 12.2262C42.1046 13.2264 42.6665 14.5829 42.6665 15.9974V37.3307C42.6665 38.7452 42.1046 40.1018 41.1044 41.102C40.1042 42.1022 38.7477 42.6641 37.3332 42.6641H29.3332" stroke="#0079C1" stroke-width="1.5" stroke-linecap="round" stroke-linejoin="round"/>
</svg>
