<svg width="64" height="64" viewBox="0 0 64 64" fill="none" xmlns="http://www.w3.org/2000/svg">
<path d="M8 56V50.6667C8 47.8377 9.12381 45.1246 11.1242 43.1242C13.1246 41.1238 15.8377 40 18.6667 40H29.3333C32.1623 40 34.8754 41.1238 36.8758 43.1242C38.8762 45.1246 40 47.8377 40 50.6667V56M42.6667 29.3333L48 34.6667L58.6667 24M34.6667 18.6667C34.6667 24.5577 29.891 29.3333 24 29.3333C18.109 29.3333 13.3333 24.5577 13.3333 18.6667C13.3333 12.7756 18.109 8 24 8C29.891 8 34.6667 12.7756 34.6667 18.6667Z" stroke="#0079C1" stroke-width="1.5" stroke-linecap="round" stroke-linejoin="round"/>
</svg>
