<svg width="65" height="64" viewBox="0 0 65 64" fill="none" xmlns="http://www.w3.org/2000/svg">
<path d="M13.668 45.3333L19.0013 37.3333M24.3346 26.6667L29.668 18.6667M35.0013 18.6667L40.3346 26.6667M45.668 37.3333L51.0013 45.3333M40.3346 37.3333L35.0013 45.3333M24.3346 37.3333L29.668 45.3333M37.668 13.3333C37.668 16.2789 35.2802 18.6667 32.3346 18.6667C29.3891 18.6667 27.0013 16.2789 27.0013 13.3333C27.0013 10.3878 29.3891 8 32.3346 8C35.2802 8 37.668 10.3878 37.668 13.3333ZM27.0013 32C27.0013 34.9455 24.6135 37.3333 21.668 37.3333C18.7225 37.3333 16.3346 34.9455 16.3346 32C16.3346 29.0545 18.7225 26.6667 21.668 26.6667C24.6135 26.6667 27.0013 29.0545 27.0013 32ZM37.668 50.6667C37.668 53.6122 35.2802 56 32.3346 56C29.3891 56 27.0013 53.6122 27.0013 50.6667C27.0013 47.7211 29.3891 45.3333 32.3346 45.3333C35.2802 45.3333 37.668 47.7211 37.668 50.6667ZM59.0013 50.6667C59.0013 53.6122 56.6135 56 53.668 56C50.7225 56 48.3346 53.6122 48.3346 50.6667C48.3346 47.7211 50.7225 45.3333 53.668 45.3333C56.6135 45.3333 59.0013 47.7211 59.0013 50.6667ZM16.3346 50.6667C16.3346 53.6122 13.9468 56 11.0013 56C8.05578 56 5.66797 53.6122 5.66797 50.6667C5.66797 47.7211 8.05578 45.3333 11.0013 45.3333C13.9468 45.3333 16.3346 47.7211 16.3346 50.6667ZM48.3346 32C48.3346 34.9455 45.9468 37.3333 43.0013 37.3333C40.0558 37.3333 37.668 34.9455 37.668 32C37.668 29.0545 40.0558 26.6667 43.0013 26.6667C45.9468 26.6667 48.3346 29.0545 48.3346 32Z" stroke="#0079C1" stroke-width="1.5" stroke-linecap="round" stroke-linejoin="round"/>
</svg>
