<svg width="64" height="64" viewBox="0 0 64 64" fill="none" xmlns="http://www.w3.org/2000/svg">
<path d="M24.5222 31.9984L29.5071 37.6873L39.4769 26.3095M31.9996 6.39844C37.8216 12.2767 45.4201 15.3373 53.1854 14.9318C54.316 19.3208 54.6619 23.9244 54.2027 28.469C53.7434 33.0136 52.4883 37.4065 50.512 41.3866C48.5357 45.3667 45.8785 48.8529 42.6983 51.6378C39.5181 54.4228 35.8798 56.4498 31.9996 57.5984C28.1194 56.4498 24.4811 54.4228 21.3009 51.6378C18.1207 48.8529 15.4635 45.3667 13.4872 41.3866C11.5109 37.4065 10.2558 33.0136 9.79655 28.469C9.33729 23.9244 9.68322 19.3208 10.8138 14.9318C18.5791 15.3373 26.1777 12.2767 31.9996 6.39844Z" stroke="#0079C1" stroke-width="1.5" stroke-linecap="round" stroke-linejoin="round"/>
</svg>
