<svg width="64" height="64" viewBox="0 0 64 64" fill="none" xmlns="http://www.w3.org/2000/svg">
<path d="M48 21.3346V13.3346C48 12.6274 47.7191 11.9491 47.219 11.449C46.7189 10.9489 46.0406 10.668 45.3333 10.668H10.6667C9.95942 10.668 9.28115 10.9489 8.78105 11.449C8.28095 11.9491 8 12.6274 8 13.3346V45.3346C8 46.0419 8.28095 46.7202 8.78105 47.2203C9.28115 47.7204 9.95942 48.0013 10.6667 48.0013H34.6667M42.6667 24.0013H48M37.3333 21.3346H53.3333C54.8061 21.3346 56 22.5285 56 24.0013V50.668C56 52.1407 54.8061 53.3346 53.3333 53.3346H37.3333C35.8606 53.3346 34.6667 52.1407 34.6667 50.668V24.0013C34.6667 22.5285 35.8606 21.3346 37.3333 21.3346Z" stroke="#0079C1" stroke-width="1.5" stroke-linecap="round" stroke-linejoin="round"/>
</svg>
