<svg width="65" height="64" viewBox="0 0 65 64" fill="none" xmlns="http://www.w3.org/2000/svg">
<path d="M19.0007 13.3333H37.6673M37.6673 13.3333C37.6673 14.8061 38.8612 16 40.334 16C41.8067 16 43.0007 14.8061 43.0007 13.3333C43.0007 11.8606 41.8067 10.6667 40.334 10.6667C38.8612 10.6667 37.6673 11.8606 37.6673 13.3333ZM27.0007 50.6667H45.6673M27.0007 50.6667C27.0007 52.1394 25.8067 53.3333 24.334 53.3333C22.8612 53.3333 21.6673 52.1394 21.6673 50.6667C21.6673 49.1939 22.8612 48 24.334 48C25.8067 48 27.0007 49.1939 27.0007 50.6667ZM19.0007 14.6667C20.7516 14.6667 22.4854 15.115 24.1031 15.9861C25.7208 16.8572 27.1906 18.1339 28.4287 19.7435C29.6669 21.353 30.649 23.2638 31.319 25.3668C31.9891 27.4698 32.334 29.7238 32.334 32C32.334 36.5971 33.7387 41.0059 36.2392 44.2565C38.7397 47.5071 42.1311 49.3333 45.6673 49.3333M11.0007 8H16.334C17.8067 8 19.0007 9.19391 19.0007 10.6667V16C19.0007 17.4728 17.8067 18.6667 16.334 18.6667H11.0007C9.52789 18.6667 8.33398 17.4728 8.33398 16V10.6667C8.33398 9.19391 9.52789 8 11.0007 8ZM48.334 45.3333H53.6673C55.1401 45.3333 56.334 46.5272 56.334 48V53.3333C56.334 54.8061 55.1401 56 53.6673 56H48.334C46.8612 56 45.6673 54.8061 45.6673 53.3333V48C45.6673 46.5272 46.8612 45.3333 48.334 45.3333Z" stroke="#0079C1" stroke-width="1.5" stroke-linecap="round" stroke-linejoin="round"/>
</svg>
