<svg width="41" height="41" viewBox="0 0 41 41" fill="none" xmlns="http://www.w3.org/2000/svg">
<path d="M15.6667 30.5013C15.6667 32.3423 14.1743 33.8346 12.3333 33.8346C10.4924 33.8346 9 32.3423 9 30.5013C9 28.6604 10.4924 27.168 12.3333 27.168M15.6667 30.5013C15.6667 28.6604 14.1743 27.168 12.3333 27.168M15.6667 30.5013H25.6667C26.5507 30.5013 27.3986 30.1501 28.0237 29.525C28.6488 28.8999 29 28.052 29 27.168V18.8346M12.3333 27.168V13.8346M12.3333 13.8346C14.1743 13.8346 15.6667 12.3423 15.6667 10.5013C15.6667 8.66035 14.1743 7.16797 12.3333 7.16797C10.4924 7.16797 9 8.66035 9 10.5013C9 12.3423 10.4924 13.8346 12.3333 13.8346ZM29 18.8346L24 23.8346M29 18.8346L34 23.8346M32.3333 10.5013C32.3333 12.3423 30.8409 13.8346 29 13.8346C27.1591 13.8346 25.6667 12.3423 25.6667 10.5013C25.6667 8.66035 27.1591 7.16797 29 7.16797C30.8409 7.16797 32.3333 8.66035 32.3333 10.5013Z" stroke="#0079C1" stroke-width="1.5" stroke-linecap="round" stroke-linejoin="round"/>
</svg>
