<svg width="41" height="41" viewBox="0 0 41 41" fill="none" xmlns="http://www.w3.org/2000/svg">
<path d="M20.3336 20.5015V20.5182M32.1187 8.71644C30.8685 7.46619 28.4278 7.5088 25.3336 8.83488C22.2394 10.161 18.7451 12.6619 15.6195 15.7875C12.4939 18.9131 9.993 22.4074 8.66691 25.5015C7.34083 28.5957 7.29823 31.0364 8.54847 32.2867C9.79871 33.5369 12.2394 33.4943 15.3336 32.1682C18.4278 30.8421 21.922 28.3412 25.0476 25.2156C26.5953 23.668 28.0058 22.0135 29.1988 20.3468C30.3917 18.6801 31.3436 17.0336 32.0002 15.5016C32.6569 13.9695 33.0053 12.5817 33.0256 11.4175C33.0459 10.2533 32.7378 9.33549 32.1187 8.71644ZM8.54847 8.71645C7.29823 9.96669 7.34083 12.4074 8.66691 15.5016C9.993 18.5958 12.4939 22.09 15.6195 25.2156C18.7451 28.3412 22.2394 30.8421 25.3336 32.1682C28.4278 33.4943 30.8685 33.5369 32.1187 32.2867C33.3689 31.0364 33.3263 28.5958 32.0002 25.5016C30.6742 22.4074 28.1732 18.9131 25.0476 15.7875C23.5 14.2399 21.8456 12.8293 20.1788 11.6364C18.5121 10.4434 16.8657 9.4915 15.3336 8.83489C13.8015 8.17828 12.4137 7.82987 11.2495 7.80955C10.0854 7.78922 9.16752 8.09739 8.54847 8.71645Z" stroke="#0079C1" stroke-width="1.5" stroke-linecap="round" stroke-linejoin="round"/>
</svg>
