<svg width="40" height="41" viewBox="0 0 40 41" fill="none" xmlns="http://www.w3.org/2000/svg">
<path d="M20 22.1678V27.1678M20 27.1678C18.1591 27.1678 16.6667 28.6602 16.6667 30.5011M20 27.1678C21.8409 27.1678 23.3333 28.6602 23.3333 30.5011M23.3333 30.5011C23.3333 32.3421 21.8409 33.8345 20 33.8345C18.1591 33.8345 16.6667 32.3421 16.6667 30.5011M23.3333 30.5011H35M16.6667 30.5011H5M8.33333 16.9961C8.33333 14.1395 10.7667 11.8228 13.7667 11.8228C14.225 9.78945 15.8583 8.13112 18.0533 7.47112C20.2483 6.80945 22.67 7.24779 24.405 8.62112C26.1417 9.99112 26.9283 12.0878 26.47 14.1211H27.625C28.6944 14.1189 29.7209 14.5415 30.4789 15.296C31.2368 16.0504 31.664 17.075 31.6667 18.1445C31.664 19.2139 31.2368 20.2385 30.4789 20.9929C29.7209 21.7474 28.6944 22.17 27.625 22.1678H13.7667C10.7667 22.1678 8.33333 19.8511 8.33333 16.9961Z" stroke="#0079C1" stroke-width="1.5" stroke-linecap="round" stroke-linejoin="round"/>
</svg>
