<svg width="21" height="20" viewBox="0 0 21 20" fill="none" xmlns="http://www.w3.org/2000/svg">
<path d="M20.0501 7.62743L13.2517 6.55082C12.6682 5.41559 10.6784 1.54737 10.6784 1.54737L10.0284 0.289062L6.80269 6.55082L0 7.62678L4.85831 12.4686L3.77039 19.3364L10.0284 16.1778L16.2868 19.3347L15.1925 12.4686C16.0588 11.6038 19.0105 8.66452 19.1553 8.52007L20.0501 7.62743ZM14.3209 12.1577L15.245 17.8905L10.0284 15.2583L4.80581 17.8928L5.73097 12.1577L1.66571 8.11002L7.34982 7.20799L10.0242 2.01442L12.695 7.20799L18.383 8.11002L14.3209 12.1577Z" fill="#B7C8D7"/>
<path d="M6.19679 13.215L8.0834 15.5746L8.89265 15.1642L5.76029 9.19814L9.88509 14.6638L10.0267 14.5922L11.467 15.32L8.29549 8.89822L13.696 16.4465L14.4288 16.8144L14.3115 16.0847L10.8282 8.5983L13.8211 12.9922L13.6579 11.9693L14.5736 11.0586L13.3631 8.30097L14.9284 10.7071L17.1479 8.49692L12.273 7.72639L10.0267 3.36133L7.77865 7.72639L2.90625 8.49692L6.39514 11.9693L6.19679 13.215Z" fill="#B7C8D7"/>
<path d="M5.99774 14.4629L5.625 16.8153L6.94192 16.1513L5.99774 14.4629Z" fill="#B7C8D7"/>
</svg>
