<svg width="40" height="40" viewBox="0 0 40 40" fill="none" xmlns="http://www.w3.org/2000/svg">
<path d="M11.668 11.6667V11.6833M11.668 16.6667V16.6833M11.668 21.6667V21.6833M28.3346 11.6667V11.6833M28.3346 16.6667V16.6833M28.3346 21.6667V21.6833M13.3346 35C13.7767 35 14.2006 34.8244 14.5131 34.5118C14.8257 34.1993 15.0013 33.7754 15.0013 33.3333V31.6667C15.0013 30.3406 15.5281 29.0688 16.4658 28.1311C17.4034 27.1934 18.6752 26.6667 20.0013 26.6667C21.3274 26.6667 22.5992 27.1934 23.5368 28.1311C24.4745 29.0688 25.0013 30.3406 25.0013 31.6667V33.3333C25.0013 33.7754 25.1769 34.1993 25.4895 34.5118C25.802 34.8244 26.2259 35 26.668 35H31.668C32.11 35 32.5339 34.8244 32.8465 34.5118C33.159 34.1993 33.3346 33.7754 33.3346 33.3333V8.33333L28.3346 5L23.3346 8.33333V18.3333H16.668V8.33333L11.668 5L6.66797 8.33333V33.3333C6.66797 33.7754 6.84356 34.1993 7.15612 34.5118C7.46869 34.8244 7.89261 35 8.33464 35H13.3346Z" stroke="#0079C1" stroke-width="1.5" stroke-linecap="round" stroke-linejoin="round"/>
</svg>
