<svg width="22" height="22" viewBox="0 0 22 22" fill="none" xmlns="http://www.w3.org/2000/svg">
<path d="M13.4704 8.74139C15.1306 10.4007 17.6098 10.715 22 10.7743C21.8814 4.94413 17.238 0.237169 11.4358 0.0101645C11.4883 4.5257 11.7865 7.05664 13.4704 8.74139ZM8.74223 8.74139C10.4278 7.05579 10.7243 4.52231 10.7777 0C4.87468 0.117738 0.118585 4.87298 0 10.776C4.52316 10.7234 7.05579 10.4261 8.74139 8.74054L8.74223 8.74139ZM13.4704 13.4695C11.8127 15.128 11.4976 17.6056 11.4375 21.989C17.1685 21.7628 21.7637 17.1677 21.9898 11.4375C17.6064 11.4968 15.1289 11.8119 13.4704 13.4704V13.4695ZM8.74223 13.4695C7.05664 11.7856 4.52655 11.4875 0.0110114 11.435C0.238016 17.2371 4.94498 21.8814 10.7743 22C10.715 17.609 10.4016 15.1297 8.74139 13.4704L8.74223 13.4695Z" fill="white"/>
</svg>
