<svg width="22" height="22" viewBox="0 0 22 22" fill="none" xmlns="http://www.w3.org/2000/svg">
<path fill-rule="evenodd" clip-rule="evenodd" d="M22 11C22 17.0751 17.0751 22 11 22C4.92487 22 0 17.0751 0 11C0 4.92487 4.92487 0 11 0C17.0751 0 22 4.92487 22 11ZM13.6924 6.33698H5V16H7.41937V12.8563H12.0553L14.1705 16H16.8796L14.5471 12.8418C15.2715 12.7259 15.793 12.4506 16.1118 12.016C16.4305 11.5814 16.5898 10.886 16.5898 9.95882V9.23442C16.5898 8.68392 16.5319 8.2493 16.4305 7.91608C16.3291 7.5829 16.1552 7.29312 15.9089 7.03236C15.6482 6.78609 15.3584 6.61224 15.0107 6.49635C14.663 6.39491 14.2284 6.33698 13.6924 6.33698ZM13.3012 10.7266H7.41937V8.46663H13.3012C13.6344 8.46663 13.8662 8.52455 13.9821 8.62599C14.098 8.72739 14.1705 8.91573 14.1705 9.19099V10.0023C14.1705 10.292 14.098 10.4803 13.9821 10.5817C13.8662 10.6832 13.6344 10.7266 13.3012 10.7266ZM18.6053 5.23682C18.6053 5.9199 18.0516 6.47365 17.3685 6.47365C16.6854 6.47365 16.1317 5.9199 16.1317 5.23682C16.1317 4.55375 16.6854 4 17.3685 4C18.0516 4 18.6053 4.55375 18.6053 5.23682Z" fill="white"/>
</svg>
