<svg width="355" height="237" viewBox="0 0 355 237" fill="none" xmlns="http://www.w3.org/2000/svg">
<path opacity="0.4" d="M149.546 105.733C149.546 106.524 148.931 107.138 148.14 107.138C147.349 107.138 146.734 106.524 146.734 105.733C146.734 104.943 147.349 104.328 148.14 104.328C148.931 104.328 149.546 104.943 149.546 105.733Z" fill="#030C2A"/>
<path opacity="0.4" d="M169.753 85.1852C169.753 88.259 167.293 90.718 164.218 90.718C161.143 90.718 158.684 88.259 158.684 85.1852C158.684 82.1114 161.143 79.6523 164.218 79.6523C167.293 79.7402 169.753 82.1992 169.753 85.1852Z" fill="#030C2A"/>
<path opacity="0.8" d="M164.218 87.4652C165.479 87.4652 166.502 86.4429 166.502 85.1818C166.502 83.9207 165.479 82.8984 164.218 82.8984C162.956 82.8984 161.934 83.9207 161.934 85.1818C161.934 86.4429 162.956 87.4652 164.218 87.4652Z" fill="#030C2A"/>
<path d="M287.388 138.141H286.949V147.45H287.388V138.141Z" fill="#2A49A9"/>
<path d="M287.388 149.559H286.949V152.545H287.388V149.559Z" fill="#0990D7"/>
<path d="M60.2869 131.203H59.8477V140.512H60.2869V131.203Z" fill="#0990D7"/>
<path d="M60.2869 142.531H59.8477V145.166H60.2869V142.531Z" fill="#030C2A"/>
<path d="M60.2869 147.449H59.8477V150.084H60.2869V147.449Z" fill="#030C2A"/>
<path d="M123.896 27.5703H123.457V30.205H123.896V27.5703Z" fill="#0990D7"/>
<path d="M123.896 32.4023H123.457V35.037H123.896V32.4023Z" fill="#0990D7"/>
<path d="M123.896 37.3203H123.457V44.8731H123.896V37.3203Z" fill="#0990D7"/>
<path d="M229.846 211.996H229.406V214.982H229.846V211.996Z" fill="#2A49A9"/>
<path d="M229.846 188.371H229.406V197.768H229.846V188.371Z" fill="#2A49A9"/>
<path d="M294.068 95.7227H293.629V98.7086H294.068V95.7227Z" fill="#2A49A9"/>
<path d="M294.068 84.3047H293.629V93.6139H294.068V84.3047Z" fill="#0990D7"/>
<path d="M294.068 72.1875H293.629V81.5846H294.068V72.1875Z" fill="#2A49A9"/>
<path d="M294.068 58.2227H293.629V67.6197H294.068V58.2227Z" fill="#2A49A9"/>
<path opacity="0.4" d="M75.3982 49.9686C78.2609 49.9686 80.5816 47.6487 80.5816 44.787C80.5816 41.9253 78.2609 39.6055 75.3982 39.6055C72.5355 39.6055 70.2148 41.9253 70.2148 44.787C70.2148 47.6487 72.5355 49.9686 75.3982 49.9686Z" fill="#0990D7"/>
<path opacity="0.8" d="M75.3993 47.332C76.8064 47.332 77.9471 46.1917 77.9471 44.7851C77.9471 43.3786 76.8064 42.2383 75.3993 42.2383C73.9922 42.2383 72.8516 43.3786 72.8516 44.7851C72.8516 46.1917 73.9922 47.332 75.3993 47.332Z" fill="#0990D7"/>
<path opacity="0.4" d="M113.438 196.193C113.438 198.125 111.857 199.706 109.924 199.706C107.992 199.706 106.41 198.125 106.41 196.193C106.41 194.261 107.992 192.68 109.924 192.68C111.945 192.68 113.438 194.261 113.438 196.193Z" fill="#0990D7"/>
<path opacity="0.8" d="M110.013 197.861C110.935 197.861 111.682 197.114 111.682 196.192C111.682 195.271 110.935 194.523 110.013 194.523C109.091 194.523 108.344 195.271 108.344 196.192C108.344 197.114 109.091 197.861 110.013 197.861Z" fill="#0990D7"/>
<path opacity="0.4" d="M237.399 158.073C239.388 158.073 241.001 156.46 241.001 154.472C241.001 152.483 239.388 150.871 237.399 150.871C235.41 150.871 233.797 152.483 233.797 154.472C233.797 156.46 235.41 158.073 237.399 158.073Z" fill="#0990D7"/>
<path opacity="0.8" d="M237.398 156.228C238.368 156.228 239.155 155.441 239.155 154.471C239.155 153.501 238.368 152.715 237.398 152.715C236.427 152.715 235.641 153.501 235.641 154.471C235.641 155.441 236.427 156.228 237.398 156.228Z" fill="#0990D7"/>
<path opacity="0.4" d="M145.33 77.1033C145.33 78.6841 144.1 79.9136 142.518 79.9136C140.937 79.9136 139.707 78.6841 139.707 77.1033C139.707 75.5225 140.937 74.293 142.518 74.293C144.1 74.293 145.33 75.5225 145.33 77.1033Z" fill="#0990D7"/>
<path opacity="0.8" d="M142.519 78.5096C143.295 78.5096 143.925 77.8804 143.925 77.1044C143.925 76.3283 143.295 75.6992 142.519 75.6992C141.743 75.6992 141.113 76.3283 141.113 77.1044C141.113 77.8804 141.743 78.5096 142.519 78.5096Z" fill="#0990D7"/>
<path opacity="0.4" d="M248.294 191.974C249.119 191.974 249.788 191.306 249.788 190.481C249.788 189.657 249.119 188.988 248.294 188.988C247.469 188.988 246.801 189.657 246.801 190.481C246.801 191.306 247.469 191.974 248.294 191.974Z" fill="#0990D7"/>
<path opacity="0.4" d="M237.488 106.613C237.488 107.052 237.136 107.491 236.609 107.491C236.17 107.491 235.73 107.14 235.73 106.613C235.73 106.173 236.082 105.734 236.609 105.734C237.136 105.822 237.488 106.173 237.488 106.613Z" fill="#0990D7"/>
<path opacity="0.4" d="M121.523 175.113C121.523 175.552 121.171 175.991 120.644 175.991C120.205 175.991 119.766 175.64 119.766 175.113C119.766 174.673 120.117 174.234 120.644 174.234C121.083 174.234 121.523 174.673 121.523 175.113Z" fill="#0990D7"/>
<path d="M173.269 149.201C171.512 149.201 169.842 148.85 168.525 148.059L136.458 129.529C135.14 128.738 134.438 127.684 134.438 126.631C134.438 125.489 135.14 124.435 136.458 123.732L168.349 105.202C170.985 103.709 175.289 103.709 177.925 105.202L209.992 123.732C211.309 124.523 212.012 125.577 212.012 126.631C212.012 127.772 211.309 128.826 209.992 129.529L178.101 148.059C176.783 148.762 175.026 149.201 173.269 149.201ZM173.093 104.587C171.512 104.587 169.842 104.938 168.613 105.641L136.81 124.172C135.667 124.786 135.052 125.665 135.052 126.543C135.052 127.421 135.667 128.299 136.81 128.914L168.876 147.445C171.336 148.85 175.377 148.85 177.837 147.445L209.728 128.914C210.87 128.299 211.485 127.421 211.485 126.543C211.485 125.665 210.87 124.786 209.728 124.172L177.661 105.641C176.344 104.938 174.762 104.587 173.093 104.587Z" fill="#0990D7"/>
<path d="M211.839 116.443V101.074L192.423 103.621L177.927 95.1901C175.379 93.6971 171.25 93.6971 168.703 95.1901L166.418 96.5952L134.879 100.811V116.355V116.443C134.879 117.409 135.582 118.287 136.812 118.99L168.878 137.521C171.426 139.014 175.555 139.014 178.103 137.521L209.994 118.99C211.224 118.287 211.839 117.321 211.926 116.443H211.839Z" fill="url(#paint0_linear_4747_198730)"/>
<path d="M209.995 98.3496L177.929 79.819C175.381 78.326 171.252 78.326 168.704 79.819L136.813 98.3496C134.265 99.8426 134.265 102.214 136.813 103.707L168.88 122.237C171.427 123.73 175.557 123.73 178.104 122.237L209.995 103.707C212.543 102.214 212.543 99.7548 209.995 98.3496Z" fill="url(#paint1_radial_4747_198730)"/>
<path d="M209.992 102.742L178.102 121.273C175.554 122.766 171.425 122.766 168.877 121.273L136.81 102.742C135.756 102.128 135.141 101.337 134.966 100.547C134.702 101.689 135.317 102.83 136.81 103.709L168.877 122.239C171.425 123.732 175.554 123.732 178.102 122.239L209.992 103.709C211.486 102.83 212.101 101.689 211.837 100.547C211.662 101.337 211.047 102.128 209.992 102.742Z" fill="white"/>
<path d="M182.406 126.28L180.824 127.158V125.402L182.406 124.523V126.28Z" fill="white"/>
<path d="M185.568 124.436L184.074 125.314V123.558L185.568 122.68V124.436Z" fill="white"/>
<path d="M188.732 122.588L187.238 123.467V121.71L188.732 120.832V122.588Z" fill="white"/>
<path d="M186.095 127.686L184.602 128.564V126.808L186.095 125.93V127.686Z" fill="white"/>
<path d="M188.908 126.018L187.414 126.896V125.14L188.908 124.262V126.018Z" fill="white"/>
<path d="M198.923 116.706L197.43 117.584V115.827L198.923 114.949V116.706Z" fill="white"/>
<path d="M207.619 111.702L206.125 112.58V110.824L207.619 109.945V111.702Z" fill="white"/>
<path d="M191.896 120.749L190.402 121.627V119.87L191.896 118.992V120.749Z" fill="white"/>
<path opacity="0.4" d="M171.51 114.335L149.986 101.952C149.107 101.425 149.195 100.546 150.249 100.019L171.334 87.8998C172.388 87.2851 173.882 87.2851 174.76 87.7242L196.285 100.195C197.163 100.722 197.075 101.6 196.021 102.127L174.936 114.247C173.97 114.774 172.388 114.861 171.51 114.335Z" fill="#00436B"/>
<path d="M163.078 127.86L145.244 117.585C144.805 117.321 144.453 116.707 144.453 116.092V114.774C144.453 114.247 144.805 113.984 145.244 114.16L163.078 124.435C163.517 124.698 163.869 125.313 163.869 125.928V127.245C163.869 127.86 163.517 128.124 163.078 127.86Z" fill="white"/>
<path d="M211.839 87.6385V72.2695L192.423 74.8164L177.927 66.3854C175.379 64.8924 171.25 64.8924 168.703 66.3854L166.418 67.7905L134.879 72.006V87.5507V87.6385C134.879 88.6046 135.582 89.4828 136.812 90.1854L168.878 108.716C171.426 110.209 175.555 110.209 178.103 108.716L209.994 90.1854C211.224 89.4828 211.839 88.5168 211.926 87.6385H211.839Z" fill="url(#paint2_linear_4747_198730)"/>
<path d="M209.995 69.459L177.929 50.9283C175.381 49.4353 171.252 49.4353 168.704 50.9283L136.813 69.5468C134.265 71.0398 134.265 73.411 136.813 74.904L168.88 93.4347C171.427 94.9277 175.557 94.9277 178.104 93.4347L209.995 74.904C212.543 73.3232 212.543 70.952 209.995 69.459Z" fill="url(#paint3_radial_4747_198730)"/>
<path opacity="0.4" d="M194.71 70.6015L175.997 59.7993C174.503 58.9211 172.131 58.9211 170.638 59.7993L152.101 70.6015C150.607 71.4798 150.607 72.8849 152.101 73.6753L170.813 84.4776C172.307 85.3558 174.679 85.3558 176.172 84.4776L194.71 73.7632C196.203 72.8849 196.203 71.4798 194.71 70.6015Z" fill="#00436B"/>
<path d="M209.992 73.9378L178.102 92.4684C175.554 93.9614 171.425 93.9614 168.877 92.4684L136.81 73.9378C135.756 73.323 135.141 72.5326 134.966 71.7422C134.702 72.8839 135.317 74.0256 136.81 74.9038L168.877 93.4345C171.425 94.9275 175.554 94.9275 178.102 93.4345L209.992 74.9038C211.486 74.0256 212.101 72.8839 211.837 71.7422C211.662 72.5326 211.047 73.323 209.992 73.9378Z" fill="white"/>
<path d="M182.406 97.4713L180.824 98.3495V96.5931L182.406 95.7148V97.4713Z" fill="white"/>
<path d="M185.568 95.6276L184.074 96.5058V94.7493L185.568 93.8711V95.6276Z" fill="white"/>
<path d="M188.732 93.7799L187.238 94.6581V92.9017L188.732 92.0234V93.7799Z" fill="white"/>
<path d="M186.095 98.8776L184.602 99.7558V97.9993L186.095 97.1211V98.8776Z" fill="white"/>
<path d="M188.908 97.2096L187.414 98.0878V96.3314L188.908 95.4531V97.2096Z" fill="white"/>
<path d="M198.923 87.8971L197.43 88.7753V87.0189L198.923 86.1406V87.8971Z" fill="white"/>
<path d="M207.619 82.8932L206.125 83.7714V82.0149L207.619 81.1367V82.8932Z" fill="white"/>
<path d="M191.896 91.9401L190.402 92.8183V91.0618L191.896 90.1836V91.9401Z" fill="white"/>
<path d="M211.839 58.8299V43.4609L192.423 46.0078L177.927 37.5768C175.379 36.0838 171.25 36.0838 168.703 37.5768L166.418 38.9819L134.879 43.1974V58.8299V58.9178C134.879 59.8838 135.582 60.762 136.812 61.4646L168.878 79.9953C171.426 81.4883 175.555 81.4883 178.103 79.9953L209.994 61.4646C211.224 60.762 211.839 59.796 211.926 58.9178V58.8299H211.839Z" fill="url(#paint4_linear_4747_198730)"/>
<path d="M209.995 40.6504L177.929 22.1197C175.381 20.6268 171.252 20.6268 168.704 22.1197L136.813 40.7382C134.265 42.2312 134.265 44.6024 136.813 46.0954L168.88 64.6261C171.427 66.1191 175.557 66.1191 178.104 64.6261L209.995 46.0954C212.543 44.5146 212.543 42.1434 209.995 40.6504Z" fill="url(#paint5_radial_4747_198730)"/>
<path d="M209.992 45.0413L178.102 63.572C175.554 65.065 171.425 65.065 168.877 63.572L136.81 45.1292C135.756 44.5144 135.141 43.724 134.966 42.9336C134.702 44.0753 135.317 45.217 136.81 46.0952L168.877 64.6259C171.425 66.1189 175.554 66.1189 178.102 64.6259L209.992 46.0952C211.486 45.217 212.101 44.0753 211.837 42.9336C211.662 43.724 211.047 44.4266 209.992 45.0413Z" fill="white"/>
<path d="M182.406 68.6666L180.824 69.5448V67.7884L182.406 66.9102V68.6666Z" fill="white"/>
<path d="M185.568 66.8229L184.074 67.7011V65.9446L185.568 65.0664V66.8229Z" fill="white"/>
<path d="M188.732 64.9752L187.238 65.8534V64.097L188.732 63.2188V64.9752Z" fill="white"/>
<path d="M186.095 69.985L184.602 70.8633V69.1946L186.095 68.3164V69.985Z" fill="white"/>
<path d="M188.494 68.7565L187 69.6347V67.8782L188.494 67V68.7565Z" fill="white"/>
<path d="M198.923 59.0924L197.43 59.9706V58.2142L198.923 57.3359V59.0924Z" fill="white"/>
<path d="M207.619 54.0885L206.125 54.9667V53.2103L207.619 52.332V54.0885Z" fill="white"/>
<path d="M191.896 63.1354L190.402 64.0136V62.2571L191.896 61.3789V63.1354Z" fill="white"/>
<path d="M116.605 181.959C114.848 181.959 113.178 181.608 111.861 180.817L79.7941 162.287C78.4763 161.496 77.7734 160.442 77.7734 159.388C77.7734 158.247 78.4763 157.193 79.7941 156.49L111.685 137.96C114.321 136.467 118.625 136.467 121.261 137.96L153.327 156.49C154.645 157.281 155.348 158.335 155.348 159.388C155.348 160.53 154.645 161.584 153.327 162.287L121.437 180.817C120.031 181.608 118.362 181.959 116.605 181.959ZM116.429 137.345C114.848 137.345 113.178 137.696 111.948 138.399L80.0576 156.929C78.9155 157.544 78.3006 158.422 78.3006 159.301C78.3006 160.179 78.9155 161.057 80.0576 161.672L112.124 180.202C114.584 181.608 118.625 181.608 121.085 180.202L152.976 161.672C154.118 161.057 154.733 160.179 154.733 159.301C154.733 158.422 154.118 157.544 152.976 156.929L120.91 138.399C119.68 137.784 118.098 137.345 116.429 137.345Z" fill="#0990D7"/>
<path d="M155.175 149.291V133.922L135.759 136.469L121.263 128.038C118.715 126.545 114.586 126.545 112.038 128.038L109.754 129.443L78.2148 133.658V149.291V149.379C78.2148 150.345 78.9177 151.223 80.1476 151.926L112.214 170.456C114.762 171.949 118.891 171.949 121.439 170.456L153.33 151.926C154.56 151.223 155.175 150.257 155.262 149.379V149.291H155.175Z" fill="url(#paint6_linear_4747_198730)"/>
<path d="M153.241 131.111L121.175 112.581C118.627 111.088 114.498 111.088 111.95 112.581L80.0593 131.111C77.5115 132.604 77.5115 134.976 80.0593 136.469L112.126 154.999C114.674 156.492 118.803 156.492 121.35 154.999L153.241 136.469C155.789 134.976 155.789 132.604 153.241 131.111Z" fill="url(#paint7_radial_4747_198730)"/>
<path d="M153.242 135.504L121.352 154.035C118.804 155.528 114.675 155.528 112.127 154.035L80.0605 135.504C79.0062 134.889 78.3913 134.099 78.2156 133.309C77.952 134.45 78.567 135.592 80.0605 136.47L112.127 155.001C114.675 156.494 118.804 156.494 121.352 155.001L153.242 136.47C154.736 135.592 155.351 134.45 155.087 133.309C154.912 134.099 154.297 134.889 153.242 135.504Z" fill="white"/>
<path d="M125.658 159.042L124.164 159.92V158.163L125.658 157.285V159.042Z" fill="white"/>
<path d="M128.909 157.2L127.328 158.078V156.322L128.909 155.531V157.2Z" fill="white"/>
<path d="M132.07 155.44L130.488 156.318V154.562L132.07 153.684V155.44Z" fill="white"/>
<path d="M129.435 160.448L127.941 161.326V159.57L129.435 158.691V160.448Z" fill="white"/>
<path d="M132.247 158.866L130.754 159.744V157.988L132.247 157.109V158.866Z" fill="white"/>
<path d="M142.261 149.557L140.68 150.435V148.679L142.261 147.801V149.557Z" fill="white"/>
<path d="M150.958 144.463L149.465 145.342V143.585L150.958 142.707V144.463Z" fill="white"/>
<path d="M135.236 153.596L133.742 154.475V152.718L135.236 151.84V153.596Z" fill="white"/>
<path opacity="0.4" d="M114.846 147.184L93.3217 134.713C92.4431 134.186 92.531 133.308 93.5852 132.781L114.67 120.662C115.724 120.047 117.218 120.047 118.096 120.486L139.62 132.957C140.499 133.484 140.411 134.362 139.357 134.889L118.272 147.008C117.306 147.623 115.724 147.623 114.846 147.184Z" fill="#00436B"/>
<path d="M106.414 160.618L88.5797 150.343C88.1405 150.079 87.7891 149.464 87.7891 148.85V147.532C87.7891 147.005 88.1405 146.742 88.5797 146.917L106.414 157.193C106.853 157.456 107.205 158.071 107.205 158.686V160.003C107.117 160.618 106.765 160.881 106.414 160.618Z" fill="white"/>
<path d="M155.175 120.4V105.031L135.759 107.578L121.263 99.1471C118.715 97.6541 114.586 97.6541 112.038 99.1471L109.754 100.552L78.2148 104.768V120.312V120.4C78.2148 121.366 78.9177 122.245 80.1476 122.947L112.214 141.478C114.762 142.971 118.891 142.971 121.439 141.478L153.33 122.947C154.56 122.245 155.175 121.278 155.262 120.4H155.175Z" fill="url(#paint8_linear_4747_198730)"/>
<path d="M153.241 102.307L121.175 83.776C118.627 82.283 114.498 82.283 111.95 83.776L80.0593 102.307C77.5115 103.8 77.5115 106.171 80.0593 107.664L112.126 126.194C114.674 127.687 118.803 127.687 121.35 126.194L153.241 107.664C155.789 106.171 155.789 103.8 153.241 102.307Z" fill="url(#paint9_radial_4747_198730)"/>
<path opacity="0.4" d="M137.956 103.449L119.243 92.647C117.749 91.7687 115.377 91.7687 113.884 92.647L95.3467 103.449C93.8532 104.327 93.8532 105.733 95.3467 106.523L114.059 117.325C115.553 118.203 117.925 118.203 119.419 117.325L137.956 106.523C139.449 105.645 139.449 104.24 137.956 103.449Z" fill="#00436B"/>
<path d="M153.242 106.699L121.352 125.23C118.804 126.723 114.675 126.723 112.127 125.23L80.0605 106.699C79.0062 106.085 78.3913 105.294 78.2156 104.504C77.952 105.646 78.567 106.787 80.0605 107.666L112.127 126.196C114.675 127.689 118.804 127.689 121.352 126.196L153.242 107.666C154.736 106.787 155.351 105.646 155.087 104.504C154.912 105.294 154.297 106.085 153.242 106.699Z" fill="white"/>
<path d="M125.658 130.233L124.164 131.111V129.355L125.658 128.477V130.233Z" fill="white"/>
<path d="M128.909 128.389L127.328 129.268V127.511L128.909 126.633V128.389Z" fill="white"/>
<path d="M132.07 126.544L130.488 127.422V125.753L132.07 124.875V126.544Z" fill="white"/>
<path d="M129.435 131.639L127.941 132.518V130.761L129.435 129.883V131.639Z" fill="white"/>
<path d="M132.247 130.057L130.754 130.935V129.179L132.247 128.301V130.057Z" fill="white"/>
<path d="M142.261 120.749L140.68 121.627V119.87L142.261 118.992V120.749Z" fill="white"/>
<path d="M150.958 115.655L149.465 116.533V114.777L150.958 113.898V115.655Z" fill="white"/>
<path d="M135.236 124.788L133.742 125.666V123.909L135.236 123.031V124.788Z" fill="white"/>
<path d="M155.175 91.5917V76.2226L135.759 78.7695L121.263 70.3385C118.715 68.8455 114.586 68.8455 112.038 70.3385L109.754 71.7437L78.2148 75.9592V91.5038V91.5917C78.2148 92.5577 78.9177 93.4359 80.1476 94.1385L112.214 112.669C114.762 114.162 118.891 114.162 121.439 112.669L153.33 94.1385C154.56 93.4359 155.175 92.4699 155.262 91.5917H155.175Z" fill="url(#paint10_linear_4747_198730)"/>
<path d="M153.241 73.498L121.175 54.9674C118.627 53.4744 114.498 53.4744 111.95 54.9674L80.0593 73.498C77.5115 74.991 77.5115 77.3623 80.0593 78.8553L112.126 97.3859C114.674 98.8789 118.803 98.8789 121.35 97.3859L153.241 78.8553C155.789 77.3623 155.789 74.9032 153.241 73.498Z" fill="url(#paint11_radial_4747_198730)"/>
<path d="M153.241 73.498L121.175 54.9674C118.627 53.4744 114.498 53.4744 111.95 54.9674L80.0593 73.498C77.5115 74.991 77.5115 77.3623 80.0593 78.8553L112.126 97.3859C114.674 98.8789 118.803 98.8789 121.35 97.3859L153.241 78.8553C155.789 77.3623 155.789 74.9032 153.241 73.498Z" fill="#1180C2" fill-opacity="0.8"/>
<path d="M116.696 91.3282C115.554 91.3282 114.324 91.0647 113.445 90.5377L92.1849 78.2425C91.2185 77.7156 90.6914 76.9252 90.6914 76.1348C90.6914 75.3444 91.2185 74.554 92.1849 74.027L113.27 61.7318C115.115 60.6779 118.014 60.6779 119.771 61.7318L141.032 74.027C141.998 74.554 142.525 75.3444 142.525 76.1348C142.525 76.9252 141.998 77.7156 141.032 78.2425L119.947 90.5377C119.068 91.0647 117.926 91.3282 116.696 91.3282ZM116.608 61.8196C115.554 61.8196 114.5 62.0831 113.797 62.5222L92.712 74.8174C92.0092 75.1687 91.6578 75.6957 91.6578 76.2226C91.6578 76.7495 92.0092 77.2765 92.712 77.6278L113.973 89.923C115.554 90.8012 118.102 90.8012 119.683 89.923L140.768 77.6278C141.471 77.2765 141.822 76.7495 141.822 76.2226C141.822 75.6957 141.471 75.1687 140.768 74.8174L119.507 62.5222C118.717 61.9953 117.662 61.8196 116.608 61.8196Z" fill="#0079C1"/>
<path d="M153.242 77.8909L121.352 96.4215C118.804 97.9145 114.675 97.9145 112.127 96.4215L80.0605 77.8909C79.0062 77.2761 78.3913 76.4857 78.2156 75.6953C77.952 76.837 78.567 77.9787 80.0605 78.8569L112.127 97.3876C114.675 98.8806 118.804 98.8806 121.352 97.3876L153.242 78.8569C154.736 77.9787 155.351 76.837 155.087 75.6953C154.912 76.4857 154.297 77.2761 153.242 77.8909Z" fill="white"/>
<path d="M125.658 101.428L124.164 102.307V100.55L125.658 99.6719V101.428Z" fill="white"/>
<path d="M128.909 99.5846L127.328 100.463V98.7064L128.909 97.8281V99.5846Z" fill="white"/>
<path d="M132.07 97.7369L130.488 98.6152V96.8587L132.07 95.9805V97.7369Z" fill="white"/>
<path d="M129.435 102.835L127.941 103.713V101.956L129.435 101.078V102.835Z" fill="white"/>
<path d="M132.247 101.165L130.754 102.043V100.286L132.247 99.4961V101.165Z" fill="white"/>
<path d="M142.261 91.8561L140.68 92.7344V90.9779L142.261 90.1875V91.8561Z" fill="white"/>
<path d="M150.958 86.8502L149.465 87.7284V85.972L150.958 85.0938V86.8502Z" fill="white"/>
<path d="M135.236 95.8952L133.742 96.7734V95.1048L135.236 94.2266V95.8952Z" fill="white"/>
<path d="M229.757 181.873C228 181.873 226.331 181.522 225.013 180.731L192.946 162.201C191.629 161.41 190.926 160.356 190.926 159.302C190.926 158.161 191.629 157.107 192.946 156.404L224.837 137.874C227.473 136.381 231.778 136.381 234.413 137.874L266.48 156.404C267.798 157.195 268.5 158.249 268.5 159.302C268.5 160.444 267.798 161.498 266.48 162.201L234.589 180.731C233.271 181.522 231.514 181.873 229.757 181.873ZM229.581 137.347C228 137.347 226.331 137.698 225.101 138.401L193.21 156.931C192.068 157.546 191.453 158.424 191.453 159.302C191.453 160.181 192.068 161.059 193.21 161.674L225.277 180.204C227.736 181.609 231.778 181.609 234.238 180.204L266.128 161.674C267.271 161.059 267.886 160.181 267.886 159.302C267.886 158.424 267.271 157.546 266.128 156.931L234.062 138.401C232.832 137.698 231.251 137.347 229.581 137.347Z" fill="#0990D7"/>
<path d="M268.323 149.205V133.836L248.907 136.383L234.412 127.952C231.864 126.459 227.735 126.459 225.187 127.952L222.903 129.357L191.363 133.572V149.117V149.205C191.363 150.171 192.066 151.049 193.296 151.752L225.363 170.282C227.91 171.775 232.039 171.775 234.587 170.282L266.478 151.752C267.708 151.049 268.323 150.083 268.411 149.205H268.323Z" fill="url(#paint12_linear_4747_198730)"/>
<path d="M266.39 131.111L234.323 112.581C231.775 111.088 227.646 111.088 225.099 112.581L193.208 131.111C190.66 132.604 190.66 134.976 193.208 136.469L225.274 154.999C227.822 156.492 231.951 156.492 234.499 154.999L266.39 136.469C268.937 134.976 268.937 132.517 266.39 131.111Z" fill="url(#paint13_radial_4747_198730)"/>
<path d="M266.391 135.504L234.5 154.035C231.952 155.528 227.823 155.528 225.275 154.035L193.209 135.504C192.155 134.889 191.54 134.099 191.364 133.309C191.1 134.45 191.715 135.592 193.209 136.47L225.275 155.001C227.823 156.494 231.952 156.494 234.5 155.001L266.391 136.47C267.884 135.592 268.499 134.45 268.236 133.309C268.148 134.099 267.533 134.889 266.391 135.504Z" fill="white"/>
<path d="M238.894 159.042L237.312 159.92V158.163L238.894 157.285V159.042Z" fill="white"/>
<path d="M242.058 157.198L240.477 158.076V156.32L242.058 155.441V157.198Z" fill="white"/>
<path d="M245.22 155.35L243.727 156.228V154.472L245.22 153.594V155.35Z" fill="white"/>
<path d="M242.583 160.448L241.09 161.326V159.57L242.583 158.691V160.448Z" fill="white"/>
<path d="M245.396 158.78L243.902 159.658V157.902L245.396 157.023V158.78Z" fill="white"/>
<path d="M255.409 149.467L253.828 150.346V148.589L255.409 147.711V149.467Z" fill="white"/>
<path d="M264.107 144.463L262.613 145.342V143.585L264.107 142.707V144.463Z" fill="white"/>
<path d="M248.384 153.51L246.891 154.389V152.632L248.384 151.754V153.51Z" fill="white"/>
<path opacity="0.4" d="M227.998 147.094L206.474 134.623C205.595 134.096 205.683 133.218 206.738 132.691L227.822 120.572C228.877 119.957 230.37 119.957 231.249 120.396L252.773 132.867C253.651 133.394 253.564 134.272 252.509 134.799L231.424 146.919C230.458 147.533 228.877 147.621 227.998 147.094Z" fill="#00436B"/>
<path d="M219.566 160.618L201.732 150.343C201.293 150.079 200.941 149.464 200.941 148.85V147.532C200.941 147.005 201.293 146.742 201.732 146.917L219.566 157.193C220.006 157.456 220.357 158.071 220.357 158.686V160.003C220.357 160.618 220.006 160.793 219.566 160.618Z" fill="white"/>
<path d="M268.323 120.4V105.031L248.907 107.578L234.412 99.1471C231.864 97.6541 227.735 97.6541 225.187 99.1471L222.903 100.552L191.363 104.768V120.312V120.4C191.363 121.366 192.066 122.245 193.296 122.947L225.363 141.478C227.91 142.971 232.039 142.971 234.587 141.478L266.478 122.947C267.708 122.245 268.323 121.278 268.411 120.4H268.323Z" fill="url(#paint14_linear_4747_198730)"/>
<path d="M266.39 102.221L234.323 83.6901C231.775 82.1971 227.646 82.1971 225.099 83.6901L193.208 102.221C190.66 103.714 190.66 106.085 193.208 107.578L225.274 126.109C227.822 127.602 231.951 127.602 234.499 126.109L266.39 107.578C268.937 106.085 268.937 103.714 266.39 102.221Z" fill="url(#paint15_radial_4747_198730)"/>
<path opacity="0.4" d="M251.19 103.363L232.477 92.561C230.984 91.6828 228.612 91.6828 227.118 92.561L208.581 103.363C207.088 104.241 207.088 105.647 208.581 106.437L227.294 117.239C228.787 118.118 231.159 118.118 232.653 117.239L251.19 106.437C252.684 105.647 252.684 104.241 251.19 103.363Z" fill="#00436B"/>
<path d="M266.391 106.699L234.5 125.23C231.952 126.723 227.823 126.723 225.275 125.23L193.209 106.699C192.155 106.085 191.54 105.294 191.364 104.504C191.1 105.646 191.715 106.787 193.209 107.666L225.275 126.196C227.823 127.689 231.952 127.689 234.5 126.196L266.391 107.666C267.884 106.787 268.499 105.646 268.236 104.504C268.148 105.294 267.533 106.085 266.391 106.699Z" fill="white"/>
<path d="M238.894 130.237L237.312 131.115V129.359L238.894 128.48V130.237Z" fill="white"/>
<path d="M242.058 128.393L240.477 129.271V127.515L242.058 126.637V128.393Z" fill="white"/>
<path d="M245.22 126.546L243.727 127.424V125.667L245.22 124.789V126.546Z" fill="white"/>
<path d="M242.583 131.643L241.09 132.521V130.765L242.583 129.887V131.643Z" fill="white"/>
<path d="M245.396 129.975L243.902 130.853V129.097L245.396 128.219V129.975Z" fill="white"/>
<path d="M255.409 120.663L253.828 121.541V119.784L255.409 118.906V120.663Z" fill="white"/>
<path d="M264.107 115.659L262.613 116.537V114.781L264.107 113.902V115.659Z" fill="white"/>
<path d="M248.384 124.706L246.891 125.584V123.827L248.384 122.949V124.706Z" fill="white"/>
<path d="M268.323 91.5917V76.2226L248.907 78.7695L234.412 70.3385C231.864 68.8455 227.735 68.8455 225.187 70.3385L222.903 71.7437L191.363 75.9592V91.5038V91.5917C191.363 92.5577 192.066 93.4359 193.296 94.1385L225.363 112.669C227.91 114.162 232.039 114.162 234.587 112.669L266.478 94.1385C267.708 93.4359 268.323 92.4699 268.411 91.5917H268.323Z" fill="url(#paint16_linear_4747_198730)"/>
<path d="M266.39 73.4121L234.323 54.8815C231.775 53.3885 227.646 53.3885 225.099 54.8815L193.208 73.4121C190.66 74.9051 190.66 77.2763 193.208 78.7693L225.274 97.3C227.822 98.793 231.951 98.793 234.499 97.3L266.39 78.7693C268.937 77.2763 268.937 74.9051 266.39 73.4121Z" fill="url(#paint17_radial_4747_198730)"/>
<path d="M266.391 77.8049L234.5 96.3356C231.952 97.8286 227.823 97.8286 225.275 96.3356L193.209 77.8049C192.155 77.1902 191.54 76.3998 191.364 75.6094C191.1 76.7511 191.715 77.8928 193.209 78.771L225.275 97.3017C227.823 98.7946 231.952 98.7946 234.5 97.3017L266.391 78.771C267.884 77.8928 268.499 76.7511 268.236 75.6094C268.148 76.4876 267.533 77.1902 266.391 77.8049Z" fill="white"/>
<path d="M238.894 101.428L237.312 102.307V100.55L238.894 99.6719V101.428Z" fill="white"/>
<path d="M242.058 99.5846L240.477 100.463V98.7064L242.058 97.8281V99.5846Z" fill="white"/>
<path d="M245.22 97.7369L243.727 98.6152V96.8587L245.22 95.9805V97.7369Z" fill="white"/>
<path d="M242.583 102.747L241.09 103.625V101.869L242.583 101.078V102.747Z" fill="white"/>
<path d="M245.396 101.167L243.902 102.045V100.288L245.396 99.4102V101.167Z" fill="white"/>
<path d="M255.409 91.8541L253.828 92.7323V90.9759L255.409 90.0977V91.8541Z" fill="white"/>
<path d="M264.107 86.8502L262.613 87.7284V85.972L264.107 85.0938V86.8502Z" fill="white"/>
<path d="M248.384 95.8971L246.891 96.7753V95.0189L248.384 94.1406V95.8971Z" fill="white"/>
<path d="M173.093 214.721C171.336 214.721 169.667 214.369 168.349 213.579L136.282 195.048C134.965 194.258 134.262 193.204 134.262 192.15C134.262 191.008 134.965 189.955 136.282 189.252L168.173 170.721C170.809 169.228 175.114 169.228 177.749 170.721L209.816 189.252C211.134 190.042 211.836 191.096 211.836 192.15C211.836 193.292 211.134 194.346 209.816 195.048L177.925 213.579C176.519 214.369 174.85 214.721 173.093 214.721ZM172.917 170.107C171.336 170.107 169.667 170.458 168.437 171.16L136.546 189.691C135.404 190.306 134.789 191.184 134.789 192.062C134.789 192.941 135.404 193.819 136.546 194.434L168.612 212.964C171.072 214.369 175.114 214.369 177.574 212.964L209.464 194.434C210.606 193.819 211.221 192.941 211.221 192.062C211.221 191.184 210.606 190.306 209.464 189.691L177.398 171.248C176.168 170.458 174.499 170.107 172.917 170.107Z" fill="#0990D7"/>
<path opacity="0.2" d="M201.644 190.042L176.518 175.552C174.497 174.41 171.246 174.41 169.314 175.552L144.363 190.042C142.342 191.184 142.342 193.028 144.363 194.258L169.489 208.749C171.51 209.89 174.76 209.89 176.693 208.749L201.644 194.258C203.664 193.028 203.664 191.184 201.644 190.042Z" fill="#0990D7"/>
<path d="M211.659 181.967V166.598L192.243 169.145L177.747 160.713C175.2 159.221 171.071 159.221 168.523 160.713L166.239 162.119L134.699 166.334V181.879V181.967C134.699 182.933 135.402 183.811 136.632 184.514L168.699 203.044C171.246 204.537 175.375 204.537 177.923 203.044L209.814 184.514C211.044 183.811 211.659 182.845 211.747 181.967H211.659Z" fill="url(#paint18_linear_4747_198730)"/>
<path d="M209.726 163.873L177.659 145.342C175.111 143.849 170.982 143.849 168.434 145.342L136.544 163.873C133.996 165.366 133.996 167.737 136.544 169.23L168.61 187.761C171.158 189.254 175.287 189.254 177.835 187.761L209.726 169.23C212.273 167.737 212.273 165.366 209.726 163.873Z" fill="url(#paint19_radial_4747_198730)"/>
<path d="M209.727 168.266L177.836 186.797C175.288 188.29 171.159 188.29 168.611 186.797L136.545 168.266C135.491 167.651 134.876 166.861 134.7 166.07C134.436 167.212 135.051 168.354 136.545 169.232L168.611 187.763C171.159 189.256 175.288 189.256 177.836 187.763L209.727 169.232C211.22 168.354 211.835 167.212 211.572 166.07C211.396 166.861 210.781 167.651 209.727 168.266Z" fill="white"/>
<path d="M182.138 191.799L180.645 192.678V190.921L182.138 190.043V191.799Z" fill="white"/>
<path d="M185.302 189.956L183.809 190.834V189.077L185.302 188.199V189.956Z" fill="white"/>
<path d="M188.55 188.198L186.969 189.076V187.32L188.55 186.441V188.198Z" fill="white"/>
<path d="M185.915 193.206L184.422 194.084V192.327L185.915 191.449V193.206Z" fill="white"/>
<path d="M188.728 191.624L187.234 192.502V190.745L188.728 189.867V191.624Z" fill="white"/>
<path d="M198.654 182.315L197.16 183.193V181.437L198.654 180.559V182.315Z" fill="white"/>
<path d="M207.439 177.221L205.945 178.1V176.343L207.439 175.465V177.221Z" fill="white"/>
<path d="M191.714 186.354L190.133 187.232V185.476L191.714 184.598V186.354Z" fill="white"/>
<path opacity="0.4" d="M171.334 179.942L149.81 167.471C148.931 166.944 149.019 166.066 150.074 165.539L171.158 153.419C172.213 152.805 173.706 152.805 174.585 153.244L196.109 165.715C196.987 166.242 196.899 167.12 195.845 167.647L174.76 179.766C173.794 180.381 172.213 180.381 171.334 179.942Z" fill="#00436B"/>
<path d="M162.902 193.38L145.068 183.104C144.629 182.841 144.277 182.226 144.277 181.611V180.294C144.277 179.767 144.629 179.504 145.068 179.679L162.902 189.954C163.342 190.218 163.693 190.833 163.693 191.447V192.765C163.605 193.38 163.254 193.643 162.902 193.38Z" fill="white"/>
<path d="M211.659 153.158V137.789L192.243 140.336L177.747 131.905C175.2 130.412 171.071 130.412 168.523 131.905L166.239 133.31L134.699 137.526V153.07V153.158C134.699 154.124 135.402 155.002 136.632 155.705L168.699 174.236C171.246 175.729 175.375 175.729 177.923 174.236L209.814 155.705C211.044 155.002 211.659 154.036 211.747 153.158H211.659Z" fill="url(#paint20_linear_4747_198730)"/>
<path d="M209.726 135.064L177.659 116.534C175.111 115.041 170.982 115.041 168.434 116.534L136.544 135.064C133.996 136.557 133.996 138.929 136.544 140.422L168.61 158.952C171.158 160.445 175.287 160.445 177.835 158.952L209.726 140.422C212.273 138.929 212.273 136.557 209.726 135.064Z" fill="url(#paint21_radial_4747_198730)"/>
<path opacity="0.4" d="M194.44 136.207L175.727 125.405C174.234 124.527 171.862 124.527 170.368 125.405L151.831 136.207C150.338 137.085 150.338 138.49 151.831 139.281L170.544 150.083C172.037 150.961 174.409 150.961 175.903 150.083L194.44 139.281C195.934 138.403 195.934 136.997 194.44 136.207Z" fill="#00436B"/>
<path d="M209.727 139.457L177.836 157.988C175.288 159.481 171.159 159.481 168.611 157.988L136.545 139.457C135.491 138.843 134.876 138.052 134.7 137.262C134.436 138.403 135.051 139.545 136.545 140.423L168.611 158.954C171.159 160.447 175.288 160.447 177.836 158.954L209.727 140.423C211.22 139.545 211.835 138.403 211.572 137.262C211.396 138.052 210.781 138.843 209.727 139.457Z" fill="white"/>
<path d="M182.138 162.995L180.645 163.873V162.117L182.138 161.238V162.995Z" fill="white"/>
<path d="M185.302 161.151L183.809 162.029V160.273L185.302 159.395V161.151Z" fill="white"/>
<path d="M188.55 159.303L186.969 160.182V158.425L188.55 157.547V159.303Z" fill="white"/>
<path d="M185.915 164.401L184.422 165.279V163.523L185.915 162.645V164.401Z" fill="white"/>
<path d="M188.728 162.819L187.234 163.697V161.941L188.728 161.062V162.819Z" fill="white"/>
<path d="M198.654 153.51L197.16 154.389V152.632L198.654 151.754V153.51Z" fill="white"/>
<path d="M207.439 148.417L205.945 149.295V147.538L207.439 146.66V148.417Z" fill="white"/>
<path d="M191.714 157.549L190.133 158.428V156.671L191.714 155.793V157.549Z" fill="white"/>
<path d="M211.659 124.353V108.984L192.243 111.531L177.747 103.1C175.2 101.607 171.071 101.607 168.523 103.1L166.239 104.505L134.699 108.721V124.266V124.353C134.699 125.319 135.402 126.198 136.632 126.9L168.699 145.431C171.246 146.924 175.375 146.924 177.923 145.431L209.814 126.9C211.044 126.198 211.659 125.232 211.747 124.353H211.659Z" fill="url(#paint22_linear_4747_198730)"/>
<path d="M209.726 106.26L177.659 87.7291C175.111 86.2361 170.982 86.2361 168.434 87.7291L136.544 106.26C133.996 107.753 133.996 110.124 136.544 111.617L168.61 130.148C171.158 131.641 175.287 131.641 177.835 130.148L209.726 111.529C212.273 110.124 212.273 107.665 209.726 106.26Z" fill="url(#paint23_radial_4747_198730)"/>
<path d="M209.727 110.651L177.836 129.181C175.288 130.674 171.159 130.674 168.611 129.181L136.545 110.651C135.491 110.036 134.876 109.245 134.7 108.455C134.436 109.597 135.051 110.738 136.545 111.617L168.611 130.147C171.159 131.64 175.288 131.64 177.836 130.147L209.727 111.529C211.22 110.651 211.835 109.509 211.572 108.367C211.396 109.245 210.781 110.036 209.727 110.651Z" fill="white"/>
<path d="M182.138 134.186L180.645 135.064V133.308L182.138 132.43V134.186Z" fill="white"/>
<path d="M185.302 132.342L183.809 133.221V131.464L185.302 130.586V132.342Z" fill="white"/>
<path d="M188.55 130.495L186.969 131.373V129.617L188.55 128.738V130.495Z" fill="white"/>
<path d="M185.915 135.592L184.422 136.471V134.714L185.915 133.836V135.592Z" fill="white"/>
<path d="M188.728 133.924L187.234 134.803V133.046L188.728 132.168V133.924Z" fill="white"/>
<path d="M198.654 124.612L197.16 125.49V123.734L198.654 122.855V124.612Z" fill="white"/>
<path d="M207.439 119.608L205.945 120.486V118.73L207.439 117.852V119.608Z" fill="white"/>
<path d="M191.714 128.653L190.133 129.531V127.775L191.714 126.984V128.653Z" fill="white"/>
<path d="M249.772 171.507L249.465 172.039L304.624 203.875L304.931 203.343L249.772 171.507Z" fill="#0990D7"/>
<path d="M328.066 190.398L310.407 180.211C308.826 179.245 306.629 178.63 304.433 178.454L285.545 176.961C283.173 176.786 280.976 176.171 279.307 175.205L261.648 165.105L261.912 164.578L279.571 174.766C281.152 175.732 283.348 176.346 285.545 176.522L304.433 178.015C306.805 178.191 309.001 178.805 310.671 179.772L328.329 189.959L328.066 190.398Z" fill="#0990D7"/>
<path d="M281.239 217.447L263.581 207.259C261.824 206.293 260.769 204.976 260.418 203.571L257.87 192.681C257.607 191.451 256.552 190.222 254.971 189.343L237.312 179.156L237.576 178.629L255.235 188.816C256.992 189.782 258.046 191.1 258.397 192.505L260.945 203.395C261.209 204.625 262.263 205.854 263.844 206.732L281.503 216.92L281.239 217.447Z" fill="#0990D7"/>
<path d="M292.924 210.685L274.124 199.883C273.157 199.356 272.367 198.654 271.84 197.951L264.284 188.203C263.757 187.588 263.054 186.973 262.176 186.446L243.375 175.644L243.639 175.117L262.439 185.919C263.406 186.446 264.196 187.149 264.723 187.852L272.279 197.6C272.806 198.215 273.509 198.829 274.387 199.356L293.188 210.159L292.924 210.685Z" fill="#0990D7"/>
<path d="M316.381 197.159L297.58 186.357C296.701 185.83 295.647 185.391 294.505 185.128L277.637 180.736C276.407 180.385 275.353 179.946 274.387 179.419L255.586 168.617L255.849 168.09L274.65 178.892C275.529 179.419 276.583 179.858 277.725 180.122L294.593 184.513C295.823 184.864 296.877 185.303 297.843 185.83L316.644 196.632L316.381 197.159Z" fill="#0990D7"/>
<path d="M84.0111 164.247L27 197.098L27.3071 197.63L84.3182 164.78L84.0111 164.247Z" fill="#0990D7"/>
<path d="M92.1244 169.017L35.1133 201.867L35.4204 202.4L92.4315 169.55L92.1244 169.017Z" fill="#0990D7"/>
<path d="M100.265 173.669L43.2539 206.52L43.561 207.052L100.572 174.202L100.265 173.669Z" fill="#0990D7"/>
<path d="M108.453 178.396L51.4414 211.246L51.7485 211.779L108.76 178.928L108.453 178.396Z" fill="#0990D7"/>
<defs>
<linearGradient id="paint0_linear_4747_198730" x1="130.246" y1="116.475" x2="184.535" y2="116.475" gradientUnits="userSpaceOnUse">
<stop stop-color="#3AB6FF"/>
<stop offset="0.1297" stop-color="#3AB6FF"/>
<stop offset="0.8476" stop-color="#0079C1"/>
<stop offset="1" stop-color="#0079C1"/>
</linearGradient>
<radialGradient id="paint1_radial_4747_198730" cx="0" cy="0" r="1" gradientUnits="userSpaceOnUse" gradientTransform="translate(120.621 75.7782) scale(121.239 121.196)">
<stop stop-color="#0AACF0"/>
<stop offset="0.1396" stop-color="#0AA1E8"/>
<stop offset="0.4033" stop-color="#0981D1"/>
<stop offset="0.76" stop-color="#0079C1"/>
<stop offset="1" stop-color="#0079C1"/>
</radialGradient>
<linearGradient id="paint2_linear_4747_198730" x1="130.246" y1="87.6598" x2="184.535" y2="87.6598" gradientUnits="userSpaceOnUse">
<stop stop-color="#0AACF0"/>
<stop offset="0.1297" stop-color="#0999E2"/>
<stop offset="0.8476" stop-color="#0079C1"/>
<stop offset="1" stop-color="#0079C1"/>
</linearGradient>
<radialGradient id="paint3_radial_4747_198730" cx="0" cy="0" r="1" gradientUnits="userSpaceOnUse" gradientTransform="translate(120.621 46.9645) scale(121.239 121.196)">
<stop stop-color="#0AACF0"/>
<stop offset="0.1396" stop-color="#0AA1E8"/>
<stop offset="0.76" stop-color="#0079C1"/>
<stop offset="1" stop-color="#0079C1"/>
</radialGradient>
<linearGradient id="paint4_linear_4747_198730" x1="130.246" y1="58.8403" x2="184.535" y2="58.8403" gradientUnits="userSpaceOnUse">
<stop stop-color="#0ABAF0"/>
<stop offset="0.1297" stop-color="#0999E2"/>
<stop offset="0.8476" stop-color="#0079C1"/>
<stop offset="1" stop-color="#0079C1"/>
</linearGradient>
<radialGradient id="paint5_radial_4747_198730" cx="0" cy="0" r="1" gradientUnits="userSpaceOnUse" gradientTransform="translate(120.621 18.145) scale(121.239 121.196)">
<stop stop-color="#0AACF0"/>
<stop offset="0.1396" stop-color="#0AA1E8"/>
<stop offset="0.76" stop-color="#0079C1"/>
<stop offset="1" stop-color="#0079C1"/>
</radialGradient>
<linearGradient id="paint6_linear_4747_198730" x1="73.5592" y1="149.264" x2="127.848" y2="149.264" gradientUnits="userSpaceOnUse">
<stop stop-color="#0AACF0"/>
<stop offset="0.1297" stop-color="#0999E2"/>
<stop offset="0.8476" stop-color="#0079C1"/>
<stop offset="1" stop-color="#0079C1"/>
</linearGradient>
<radialGradient id="paint7_radial_4747_198730" cx="0" cy="0" r="1" gradientUnits="userSpaceOnUse" gradientTransform="translate(63.9321 108.569) scale(121.239 121.196)">
<stop stop-color="#0AACF0"/>
<stop offset="0.1396" stop-color="#0AA1E8"/>
<stop offset="0.4033" stop-color="#0981D1"/>
<stop offset="0.76" stop-color="#0079C1"/>
<stop offset="1" stop-color="#0079C1"/>
</radialGradient>
<linearGradient id="paint8_linear_4747_198730" x1="73.5592" y1="120.45" x2="127.848" y2="120.45" gradientUnits="userSpaceOnUse">
<stop stop-color="#3AB6FF"/>
<stop offset="0.1297" stop-color="#3AB6FF"/>
<stop offset="0.8476" stop-color="#0079C1"/>
<stop offset="1" stop-color="#0079C1"/>
</linearGradient>
<radialGradient id="paint9_radial_4747_198730" cx="0" cy="0" r="1" gradientUnits="userSpaceOnUse" gradientTransform="translate(63.9321 79.7531) scale(121.239 121.196)">
<stop stop-color="#3AB6FF"/>
<stop offset="0.1396" stop-color="#3AB6FF"/>
<stop offset="0.76" stop-color="#0079C1"/>
<stop offset="1" stop-color="#0079C1"/>
</radialGradient>
<linearGradient id="paint10_linear_4747_198730" x1="73.5592" y1="91.6307" x2="127.848" y2="91.6307" gradientUnits="userSpaceOnUse">
<stop stop-color="#0AACF0"/>
<stop offset="0.1297" stop-color="#0999E2"/>
<stop offset="0.8476" stop-color="#0079C1"/>
<stop offset="1" stop-color="#0079C1"/>
</linearGradient>
<radialGradient id="paint11_radial_4747_198730" cx="0" cy="0" r="1" gradientUnits="userSpaceOnUse" gradientTransform="translate(63.9321 50.9335) scale(121.239 121.196)">
<stop stop-color="#0AACF0"/>
<stop offset="0.1396" stop-color="#0AA1E8"/>
<stop offset="0.76" stop-color="#0079C1"/>
<stop offset="1" stop-color="#0079C1"/>
</radialGradient>
<linearGradient id="paint12_linear_4747_198730" x1="186.725" y1="149.234" x2="241.014" y2="149.234" gradientUnits="userSpaceOnUse">
<stop stop-color="#0AACF0"/>
<stop offset="0.1297" stop-color="#0999E2"/>
<stop offset="0.8476" stop-color="#0079C1"/>
<stop offset="1" stop-color="#0079C1"/>
</linearGradient>
<radialGradient id="paint13_radial_4747_198730" cx="0" cy="0" r="1" gradientUnits="userSpaceOnUse" gradientTransform="translate(177.097 108.536) scale(121.239 121.196)">
<stop stop-color="#0AACF0"/>
<stop offset="0.1396" stop-color="#0AA1E8"/>
<stop offset="0.76" stop-color="#0079C1"/>
<stop offset="1" stop-color="#2A49A9"/>
<stop offset="1" stop-color="#0079C1"/>
</radialGradient>
<linearGradient id="paint14_linear_4747_198730" x1="186.725" y1="120.418" x2="241.014" y2="120.418" gradientUnits="userSpaceOnUse">
<stop stop-color="#0AACF0"/>
<stop offset="0.1297" stop-color="#0999E2"/>
<stop offset="0.8476" stop-color="#0079C1"/>
<stop offset="1" stop-color="#0079C1"/>
</linearGradient>
<radialGradient id="paint15_radial_4747_198730" cx="0" cy="0" r="1" gradientUnits="userSpaceOnUse" gradientTransform="translate(177.097 79.7227) scale(121.239 121.196)">
<stop stop-color="#0AACF0"/>
<stop offset="0.1396" stop-color="#0AA1E8"/>
<stop offset="0.4033" stop-color="#0981D1"/>
<stop offset="0.76" stop-color="#0079C1"/>
<stop offset="1" stop-color="#0079C1"/>
</radialGradient>
<linearGradient id="paint16_linear_4747_198730" x1="186.725" y1="91.5984" x2="241.014" y2="91.5984" gradientUnits="userSpaceOnUse">
<stop stop-color="#0AACF0"/>
<stop offset="0.1297" stop-color="#0999E2"/>
<stop offset="0.8476" stop-color="#0079C1"/>
<stop offset="1" stop-color="#0079C1"/>
</linearGradient>
<radialGradient id="paint17_radial_4747_198730" cx="0" cy="0" r="1" gradientUnits="userSpaceOnUse" gradientTransform="translate(177.097 50.9031) scale(121.239 121.196)">
<stop stop-color="#0AACF0"/>
<stop offset="0.1396" stop-color="#0AA1E8"/>
<stop offset="0.4033" stop-color="#0981D1"/>
<stop offset="0.76" stop-color="#0079C1"/>
<stop offset="1" stop-color="#0079C1"/>
</radialGradient>
<linearGradient id="paint18_linear_4747_198730" x1="130.038" y1="182.024" x2="184.327" y2="182.024" gradientUnits="userSpaceOnUse">
<stop stop-color="#0AACF0"/>
<stop offset="0.1297" stop-color="#0999E2"/>
<stop offset="0.8476" stop-color="#0079C1"/>
<stop offset="1" stop-color="#0079C1"/>
</linearGradient>
<radialGradient id="paint19_radial_4747_198730" cx="0" cy="0" r="1" gradientUnits="userSpaceOnUse" gradientTransform="translate(120.41 141.327) scale(121.239 121.196)">
<stop stop-color="#3AB6FF"/>
<stop offset="0.76" stop-color="#0079C1"/>
<stop offset="1" stop-color="#0079C1"/>
</radialGradient>
<linearGradient id="paint20_linear_4747_198730" x1="130.038" y1="153.204" x2="184.327" y2="153.204" gradientUnits="userSpaceOnUse">
<stop stop-color="#0AACF0"/>
<stop offset="0.1297" stop-color="#0999E2"/>
<stop offset="0.8476" stop-color="#0079C1"/>
<stop offset="1" stop-color="#0079C1"/>
</linearGradient>
<radialGradient id="paint21_radial_4747_198730" cx="0" cy="0" r="1" gradientUnits="userSpaceOnUse" gradientTransform="translate(120.41 112.507) scale(121.239 121.196)">
<stop stop-color="#0AACF0"/>
<stop offset="0.1396" stop-color="#0AA1E8"/>
<stop offset="0.4033" stop-color="#0981D1"/>
<stop offset="0.76" stop-color="#0079C1"/>
<stop offset="1" stop-color="#0079C1"/>
</radialGradient>
<linearGradient id="paint22_linear_4747_198730" x1="130.038" y1="124.389" x2="184.327" y2="124.389" gradientUnits="userSpaceOnUse">
<stop stop-color="#0AACF0"/>
<stop offset="0.1297" stop-color="#0999E2"/>
<stop offset="0.8476" stop-color="#0079C1"/>
<stop offset="1" stop-color="#0079C1"/>
</linearGradient>
<radialGradient id="paint23_radial_4747_198730" cx="0" cy="0" r="1" gradientUnits="userSpaceOnUse" gradientTransform="translate(120.41 83.6916) scale(121.239 121.196)">
<stop stop-color="#0AACF0"/>
<stop offset="0.447917" stop-color="#0AA1E8"/>
<stop offset="0.76" stop-color="#0079C1"/>
<stop offset="1" stop-color="#2A49A9"/>
<stop offset="1" stop-color="#0079C1"/>
</radialGradient>
</defs>
</svg>
