<svg width="46" height="46" viewBox="0 0 46 46" fill="none" xmlns="http://www.w3.org/2000/svg">
<path d="M44.3332 20.3339C43.681 15.6411 41.504 11.2929 38.1375 7.95917C34.7711 4.6254 30.4019 2.49097 25.703 1.88466C21.0041 1.27835 16.2362 2.2338 12.1337 4.60384C8.03125 6.97388 4.82183 10.627 2.99984 15.0005M1.6665 4.33385V15.0005H12.3332M1.6665 25.6672C2.31866 30.3599 4.49565 34.7081 7.86213 38.0419C11.2286 41.3756 15.5978 43.5101 20.2967 44.1164C24.9956 44.7227 29.7635 43.7672 33.866 41.3972C37.9684 39.0272 41.1778 35.374 42.9998 31.0005M44.3332 41.6672V31.0005H33.6665M25.6665 23.0005C25.6665 24.4733 24.4726 25.6672 22.9998 25.6672C21.5271 25.6672 20.3332 24.4733 20.3332 23.0005C20.3332 21.5278 21.5271 20.3339 22.9998 20.3339C24.4726 20.3339 25.6665 21.5278 25.6665 23.0005Z" stroke="#0079C1" stroke-width="1.5" stroke-linecap="round" stroke-linejoin="round"/>
</svg>
