<svg width="50" height="46" viewBox="0 0 50 46" fill="none" xmlns="http://www.w3.org/2000/svg">
<path d="M44.9995 24.5258L24.9995 44.3338L4.9995 24.5258C3.68032 23.2421 2.64121 21.6992 1.94763 19.9942C1.25404 18.2892 0.920998 16.459 0.969467 14.619C1.01794 12.7789 1.44687 10.9688 2.22925 9.3027C3.01164 7.63657 4.13053 6.15048 5.51546 4.93802C6.9004 3.72555 8.52138 2.81298 10.2763 2.25775C12.0313 1.70253 13.8822 1.5167 15.7125 1.71194C17.5428 1.90719 19.3128 2.47929 20.9112 3.39222C22.5095 4.30515 23.9015 5.53914 24.9995 7.01647C26.1023 5.54986 27.4959 4.32666 29.0931 3.42342C30.6903 2.52017 32.4568 1.95634 34.282 1.76719C36.1072 1.57805 37.9517 1.76767 39.7002 2.32418C41.4487 2.8807 43.0636 3.79213 44.4436 5.00144C45.8237 6.21075 46.9393 7.6919 47.7206 9.35218C48.5019 11.0125 48.9321 12.8162 48.9843 14.6504C49.0365 16.4846 48.7095 18.3098 48.0239 20.0118C47.3382 21.7138 46.3086 23.256 44.9995 24.5418M24.9995 7.00047L16.2182 15.7818C15.7182 16.2819 15.4374 16.96 15.4374 17.6671C15.4374 18.3742 15.7182 19.0524 16.2182 19.5525L17.6662 21.0005C19.5062 22.8405 22.4928 22.8405 24.3328 21.0005L26.9995 18.3338C28.5908 16.7425 30.7491 15.8485 32.9995 15.8485C35.2499 15.8485 37.4082 16.7425 38.9995 18.3338L44.9995 24.3338M26.3328 32.3338L31.6662 37.6671M32.9995 25.6671L38.3328 31.0005" stroke="#0079C1" stroke-width="1.5" stroke-linecap="round" stroke-linejoin="round"/>
</svg>
