<svg width="50" height="50" viewBox="0 0 50 50" fill="none" xmlns="http://www.w3.org/2000/svg">
<path d="M38.1307 22.6855C37.6729 20.0884 36.4553 17.6854 34.6318 15.7804C32.8083 13.8753 30.4609 12.5538 27.8863 11.9829C25.3118 11.412 22.6257 11.6173 20.1679 12.573C17.71 13.5287 15.5908 15.1917 14.0781 17.3518C12.5654 19.5119 11.7272 22.0721 11.6696 24.7086C11.612 27.345 12.3374 29.9394 13.7543 32.1636C15.1711 34.3877 17.2156 36.1418 19.6294 37.204C22.0431 38.2661 24.7176 38.5887 27.3147 38.1308M1 25C1 29.7467 2.40758 34.3869 5.04473 38.3337C7.68188 42.2805 11.4302 45.3566 15.8156 47.1731C20.201 48.9896 25.0266 49.4649 29.6822 48.5388C34.3377 47.6128 38.6141 45.327 41.9706 41.9706C45.327 38.6141 47.6128 34.3377 48.5388 29.6822C49.4649 25.0266 48.9896 20.201 47.1731 15.8156C45.3566 11.4302 42.2805 7.68188 38.3337 5.04473C34.3869 2.40758 29.7467 1 25 1M27.6667 25C27.6667 26.4728 26.4728 27.6667 25 27.6667C23.5272 27.6667 22.3333 26.4728 22.3333 25C22.3333 23.5272 23.5272 22.3333 25 22.3333C26.4728 22.3333 27.6667 23.5272 27.6667 25Z" stroke="#0079C1" stroke-width="1.5" stroke-linecap="round" stroke-linejoin="round"/>
</svg>
