<svg width="41" height="40" viewBox="0 0 41 40" fill="none" xmlns="http://www.w3.org/2000/svg">
<path d="M23.584 5V11.6667C23.584 12.1087 23.7596 12.5326 24.0721 12.8452C24.3847 13.1577 24.8086 13.3333 25.2507 13.3333H31.9173M23.584 5H11.9173C11.0333 5 10.1854 5.35119 9.56029 5.97631C8.93517 6.60143 8.58398 7.44928 8.58398 8.33333V31.6667C8.58398 32.5507 8.93517 33.3986 9.56029 34.0237C10.1854 34.6488 11.0333 35 11.9173 35H28.584C29.468 35 30.3159 34.6488 30.941 34.0237C31.5661 33.3986 31.9173 32.5507 31.9173 31.6667L31.9173 13.3333M23.584 5L31.9173 13.3333M15.2507 15H16.9173M15.2507 21.666H25.2507M15.2507 28.334H25.2507" stroke="white" stroke-width="1.5" stroke-linecap="round" stroke-linejoin="round"/>
</svg>
