<svg width="64" height="64" viewBox="0 0 64 64" fill="none" xmlns="http://www.w3.org/2000/svg">
<path d="M32 21.3333V32L37.3333 37.3333M8.1333 29.3335C8.73088 23.467 11.4673 18.0258 15.8206 14.0481C20.1738 10.0704 25.8392 7.83454 31.7356 7.76719C37.6321 7.69984 43.347 9.80568 47.79 13.6829C52.233 17.5602 55.093 22.9375 55.8244 28.7888C56.5558 34.6401 55.1074 40.5559 51.7556 45.4076C48.4037 50.2592 43.383 53.707 37.6514 55.0931C31.9197 56.4793 25.8784 55.7068 20.68 52.923C15.4815 50.1393 11.4899 45.5391 9.46663 40.0002M8.1333 53.3335V40.0002H21.4666" stroke="#0079C1" stroke-width="1.5" stroke-linecap="round" stroke-linejoin="round"/>
</svg>
