<svg width="16" height="16" viewBox="0 0 16 16" fill="none" stroke="#0079C1" xmlns="http://www.w3.org/2000/svg">
<path d="M3.66801 9.31544L3.66832 9.31513L6.25398 6.73055C6.87428 6.11038 7.93157 6.10991 8.55167 6.73072L8.55146 6.73051L8.19794 7.0841L8.55171 6.73076L8.94914 7.1281L8.94918 7.12814C8.97402 7.15298 9.01313 7.15241 9.03695 7.12854L9.03735 7.12814C9.06193 7.10356 9.06197 7.0642 9.03747 7.03957C9.03743 7.03953 9.03739 7.03949 9.03735 7.03945L8.64055 6.64332L8.64003 6.64281C8.3087 6.31107 7.8707 6.12981 7.40264 6.12981C6.93469 6.12981 6.49708 6.31097 6.16552 6.64187L3.66801 9.31544ZM3.66801 9.31544C3.03484 9.94945 3.03519 10.9785 3.66777 11.6128L3.66854 11.6136L4.06593 12.0103C4.68696 12.6313 5.74452 12.6307 6.36441 12.0101L7.58569 10.7895L7.58572 10.7895C7.61072 10.7645 7.64989 10.7652 7.67363 10.789L7.67452 10.7899C7.69826 10.8135 7.69893 10.8526 7.67405 10.8775L6.45247 12.0983L6.4524 12.0984C6.12134 12.4293 5.68372 12.611 5.21534 12.611C4.7467 12.611 4.30934 12.4298 3.97795 12.098L3.97718 12.0973L3.58015 11.7015C3.58004 11.7014 3.57993 11.7013 3.57981 11.7011C2.89834 11.0189 2.89864 9.9084 3.58002 9.22716L3.58004 9.22714L6.16526 6.64213L3.66801 9.31544ZM12.3307 6.04516L12.3302 6.04567L9.74521 8.62934C9.74518 8.62938 9.74515 8.62941 9.74512 8.62944C9.12511 9.25083 8.06742 9.25085 7.44745 8.63019C7.42261 8.60552 7.38344 8.60605 7.35962 8.6296C7.33438 8.6552 7.33509 8.69388 7.3592 8.71819C7.69098 9.04969 8.12794 9.23106 8.59597 9.23106C9.06421 9.23106 9.50205 9.04945 9.83388 8.71863C9.83394 8.71857 9.834 8.71851 9.83406 8.71845L12.4184 6.13373L12.4185 6.13368C12.7498 5.80244 12.9306 5.36506 12.9306 4.89694C12.9306 4.42799 12.7497 3.9908 12.4187 3.66037L12.4182 3.65983L12.0209 3.26192L12.3307 6.04516ZM12.3307 6.04516C12.636 5.7391 12.8058 5.32993 12.8058 4.8969C12.8058 4.46363 12.6363 4.05405 12.3303 3.74816C12.3302 3.74813 12.3302 3.74811 12.3302 3.74808L11.9331 3.35098C11.933 3.35089 11.9329 3.35079 11.9328 3.3507C11.6263 3.04362 11.2167 2.87395 10.7832 2.87395C10.3502 2.87395 9.94069 3.04368 9.6343 3.35058C9.63417 3.35071 9.63404 3.35085 9.6339 3.35098L8.51799 4.46614L8.5174 4.46673M12.3307 6.04516L8.5174 4.46673M8.5174 4.46673C8.49292 4.49127 8.45415 4.49137 8.42949 4.46666L8.42909 4.46626M8.5174 4.46673L8.42909 4.46626M8.42909 4.46626C8.4054 4.44256 8.40472 4.40316 8.42966 4.3782C8.42966 4.3782 8.42967 4.37819 8.42968 4.37818L9.54611 3.26192L9.54631 3.26172M8.42909 4.46626L9.54631 3.26172M9.54631 3.26172C9.87711 2.93058 10.315 2.74927 10.7832 2.74927M9.54631 3.26172L10.7832 2.74927M10.7832 2.74927C11.2517 2.74927 11.6892 2.93041 12.0206 3.26163L10.7832 2.74927Z"/>
</svg>
