<svg width="20" height="20" viewBox="0 0 20 20" fill="#6A7E95" xmlns="http://www.w3.org/2000/svg">
<path d="M10 18L9.52794 18.5828C9.80317 18.8057 10.1968 18.8057 10.4721 18.5828L10 18ZM15.25 8.29659C15.25 10.442 13.9004 12.6925 12.4212 14.4877C11.696 15.3677 10.9689 16.1037 10.4225 16.6197C10.1498 16.8773 9.92334 17.079 9.7663 17.2152C9.68781 17.2833 9.62676 17.335 9.58604 17.3691C9.56568 17.3861 9.55042 17.3987 9.54061 17.4068C9.53571 17.4108 9.53217 17.4137 9.53005 17.4155C9.52898 17.4163 9.52827 17.4169 9.52792 17.4172C9.52774 17.4174 9.52766 17.4174 9.52766 17.4174C9.52766 17.4174 9.52773 17.4174 9.52773 17.4174C9.52783 17.4173 9.52794 17.4172 10 18C10.4721 18.5828 10.4722 18.5827 10.4724 18.5825C10.4725 18.5824 10.4727 18.5823 10.4729 18.5821C10.4733 18.5818 10.4737 18.5815 10.4743 18.581C10.4754 18.5801 10.4768 18.5789 10.4787 18.5774C10.4823 18.5745 10.4874 18.5703 10.4938 18.565C10.5067 18.5544 10.5251 18.5391 10.5487 18.5194C10.5959 18.4799 10.6638 18.4225 10.7493 18.3482C10.9204 18.1998 11.1627 17.9839 11.4525 17.7102C12.0311 17.1637 12.804 16.3819 13.5788 15.4416C15.0996 13.5959 16.75 10.9947 16.75 8.29659H15.25ZM10 18C10.4721 17.4172 10.4722 17.4173 10.4723 17.4174C10.4723 17.4174 10.4723 17.4174 10.4723 17.4174C10.4723 17.4174 10.4723 17.4174 10.4721 17.4172C10.4717 17.4169 10.471 17.4163 10.47 17.4155C10.4678 17.4137 10.4643 17.4108 10.4594 17.4068C10.4496 17.3987 10.4343 17.3861 10.414 17.3691C10.3732 17.335 10.3122 17.2833 10.2337 17.2152C10.0767 17.079 9.8502 16.8773 9.57749 16.6197C9.03111 16.1037 8.30397 15.3677 7.57882 14.4877C6.0996 12.6925 4.75 10.442 4.75 8.29659H3.25C3.25 10.9947 4.9004 13.5959 6.42118 15.4416C7.19603 16.3819 7.96889 17.1637 8.54751 17.7102C8.8373 17.9839 9.07959 18.1998 9.25067 18.3482C9.33625 18.4225 9.4041 18.4799 9.45127 18.5194C9.47486 18.5391 9.49329 18.5544 9.50619 18.565C9.51264 18.5703 9.51771 18.5745 9.52135 18.5774C9.52317 18.5789 9.52463 18.5801 9.52573 18.581C9.52628 18.5815 9.52674 18.5818 9.52711 18.5821C9.5273 18.5823 9.5275 18.5824 9.52759 18.5825C9.52778 18.5827 9.52794 18.5828 10 18ZM4.75 8.29659C4.75 7.2057 5.0663 5.79623 5.87615 4.68076C6.66088 3.59989 7.93713 2.75 10 2.75V1.25C7.44748 1.25 5.72374 2.33752 4.66232 3.7995C3.62601 5.22689 3.25 6.96572 3.25 8.29659H4.75ZM10 2.75C12.0629 2.75 13.3391 3.59989 14.1239 4.68076C14.9337 5.79623 15.25 7.2057 15.25 8.29659H16.75C16.75 6.96572 16.374 5.22689 15.3377 3.7995C14.2763 2.33752 12.5525 1.25 10 1.25V2.75ZM11.75 7.99998C11.75 8.96648 10.9665 9.74998 9.99999 9.74998V11.25C11.7949 11.25 13.25 9.79491 13.25 7.99998H11.75ZM9.99999 9.74998C9.03349 9.74998 8.24999 8.96648 8.24999 7.99998H6.74999C6.74999 9.79491 8.20507 11.25 9.99999 11.25V9.74998ZM8.24999 7.99998C8.24999 7.03348 9.03349 6.24998 9.99999 6.24998V4.74998C8.20507 4.74998 6.74999 6.20505 6.74999 7.99998H8.24999ZM9.99999 6.24998C10.9665 6.24998 11.75 7.03348 11.75 7.99998H13.25C13.25 6.20505 11.7949 4.74998 9.99999 4.74998V6.24998Z"/>
</svg>
