<svg width="20" height="20" viewBox="0 0 20 20" fill="none" stroke="#6A7E95" xmlns="http://www.w3.org/2000/svg">
<path d="M5.83339 9.99989C5.83339 8.89482 6.27238 7.83501 7.05378 7.05361C7.83518 6.27221 8.89499 5.83322 10.0001 5.83322M10 14.1667C11.1051 14.1667 12.1649 13.7277 12.9463 12.9463C13.7277 12.1649 14.1667 11.1051 14.1667 10M17.5 10C17.5 14.1421 14.1421 17.5 10 17.5C5.85786 17.5 2.5 14.1421 2.5 10C2.5 5.85786 5.85786 2.5 10 2.5C14.1421 2.5 17.5 5.85786 17.5 10ZM10 10.75C10.4142 10.75 10.75 10.4142 10.75 10C10.75 9.58579 10.4142 9.25 10 9.25C9.58579 9.25 9.25 9.58579 9.25 10C9.25 10.4142 9.58579 10.75 10 10.75Z" stroke-width="1.5" stroke-linecap="round" stroke-linejoin="round"/>
</svg>
