<svg width="20" height="20" viewBox="0 0 20 20" fill="none" stroke="#6A7E95" xmlns="http://www.w3.org/2000/svg">
<path d="M11 4V6.66667C11 6.84348 11.0702 7.01305 11.1953 7.13807C11.3203 7.2631 11.4899 7.33333 11.6667 7.33333H14.3333M11 4H6.33333C5.97971 4 5.64057 4.14048 5.39052 4.39052C5.14048 4.64057 5 4.97971 5 5.33333V14.6667C5 15.0203 5.14048 15.3594 5.39052 15.6095C5.64057 15.8595 5.97971 16 6.33333 16H13C13.3536 16 13.6928 15.8595 13.9428 15.6095C14.1929 15.3594 14.3333 15.0203 14.3333 14.6667L14.3333 7.33333M11 4L14.3333 7.33333M7.66667 8H8.33333M7.66667 10.6664H11.6667M7.66667 13.3336H11.6667" stroke-width="1.5" stroke-linecap="round" stroke-linejoin="round"/>
</svg>
