<svg width="72" height="73" viewBox="0 0 72 73" fill="none" xmlns="http://www.w3.org/2000/svg">
<path d="M42 9.5V21.5C42 22.2956 42.3161 23.0587 42.8787 23.6213C43.4413 24.1839 44.2044 24.5 45 24.5H57M42 9.5H21C19.4087 9.5 17.8826 10.1321 16.7574 11.2574C15.6321 12.3826 15 13.9087 15 15.5V57.5C15 59.0913 15.6321 60.6174 16.7574 61.7426C17.8826 62.8679 19.4087 63.5 21 63.5H51C52.5913 63.5 54.1174 62.8679 55.2426 61.7426C56.3679 60.6174 57 59.0913 57 57.5L57 24.5M42 9.5L57 24.5M27 27.5H30M27 39.4988H45M27 51.5012H45" stroke="#0079C1" stroke-width="1.5" stroke-linecap="round" stroke-linejoin="round"/>
</svg>
