<svg width="200" height="54" viewBox="0 0 200 54" fill="none" xmlns="http://www.w3.org/2000/svg">
<path d="M33.6637 41.2291L26.0505 41.229C24.8224 41.229 23.617 41.5608 22.5619 42.1891L4.78906 52.7725L5.33522 53.6902L18.9055 49.8222C20.1214 49.4756 21.3794 49.2999 22.6437 49.2999L37.0705 49.3002C38.3347 49.3002 39.5928 49.4759 40.8084 49.8225L54.3786 53.6904L54.9249 52.7728L37.1523 42.1893C36.097 41.5609 34.8917 41.2291 33.6637 41.2291Z" fill="black"/>
<path d="M20.2272 32.9841L24.4164 26.0392C25.0576 24.9763 25.3964 23.7586 25.3964 22.5173V0.561572L24.3278 0.561703L20.6526 16.5116C20.3309 17.9078 19.7912 19.2447 19.0531 20.4728L12.1864 31.9016C11.621 32.8427 10.9438 33.7122 10.1698 34.4912L0 44.7244L0.542921 45.6367L17.8758 35.3216C18.84 34.7477 19.6477 33.9449 20.2272 32.9841Z" fill="black"/>
<path d="M47.5225 31.9008L40.6557 20.472C39.9178 19.2438 39.3781 17.9069 39.0563 16.5108L35.3811 0.560989L34.3125 0.560857V22.5164C34.3125 23.7578 34.6513 24.9754 35.2924 26.0383L39.4818 32.9831C40.0612 33.9439 40.869 34.7469 41.8332 35.3207L59.1659 45.6357L59.709 44.7235L49.5391 34.4902C48.7652 33.7114 48.088 32.8419 47.5225 31.9008Z" fill="black"/>
<path d="M104.597 18.4733L102.121 20.9491C101.337 21.7384 100.896 22.807 100.898 23.9202V30.001C100.896 31.115 101.338 32.1842 102.126 32.9721L104.607 35.4281C105.394 36.2184 106.464 36.6605 107.578 36.6562H120.725V31.7341H108.346C108.049 31.7341 107.764 31.6167 107.553 31.4072L106.162 30.0157C105.954 29.8048 105.836 29.5202 105.835 29.2235V24.6779C105.836 24.3822 105.953 24.0994 106.162 23.8905L107.553 22.4941C107.764 22.2847 108.049 22.1673 108.346 22.1673H120.725V17.2453H107.568C106.454 17.2409 105.384 17.683 104.597 18.4733Z" fill="black"/>
<path d="M166.204 26.0476C166.204 26.3433 166.086 26.626 165.877 26.835L165.184 27.5331C164.974 27.7427 164.689 27.8599 164.392 27.8599H153.765V22.1605H164.392C164.689 22.1605 164.974 22.2779 165.184 22.4873L165.877 23.1856C166.086 23.3946 166.204 23.6777 166.204 23.973V26.0476ZM168.121 18.4714C167.334 17.6822 166.264 17.2406 165.15 17.2434H148.809V36.6543H153.731V32.7822H165.12C166.234 32.785 167.304 32.3433 168.091 31.5539L169.873 29.7764C170.658 28.987 171.098 27.9184 171.096 26.8052V23.2004C171.102 22.0996 170.673 21.041 169.903 20.2541L168.121 18.4714Z" fill="black"/>
<path d="M125.07 22.1655H132.414V36.6543H137.336V22.1655H144.684V17.2435H125.07V22.1655Z" fill="black"/>
<path d="M81.8268 27.6081L84.3423 22.6217C84.4844 22.3394 84.7737 22.1611 85.0901 22.1611H86.3428C86.6588 22.1621 86.9476 22.3398 87.0907 22.6217L89.6061 27.6081H81.8268ZM87.7393 17.2688H83.6937C82.3745 17.2643 81.1668 18.0091 80.579 19.1901L71.75 36.6549H77.2664L79.341 32.5597H92.0869L94.1666 36.6797H99.678L90.8539 19.1901C90.2606 18.0141 89.0565 17.2713 87.7393 17.2688Z" fill="black"/>
<path d="M182.175 27.6081L184.696 22.6217C184.837 22.3385 185.127 22.1596 185.444 22.1611H186.691C187.008 22.1596 187.298 22.3385 187.439 22.6217L189.95 27.6081H182.175ZM191.193 19.1901C190.605 18.0106 189.4 17.2664 188.083 17.2688H184.032C182.715 17.2713 181.511 18.0141 180.918 19.1901L172.094 36.6797H177.605L179.699 32.5597H192.445L194.525 36.6797H200.002L191.193 19.1901Z" fill="black"/>
</svg>
