<svg width="56" height="56" viewBox="0 0 56 56" fill="none" xmlns="http://www.w3.org/2000/svg">
<path d="M32.666 7V16.3333C32.666 16.9522 32.9118 17.5457 33.3494 17.9832C33.787 18.4208 34.3805 18.6667 34.9993 18.6667H44.3327M32.666 7H16.3327C15.095 7 13.908 7.49167 13.0329 8.36683C12.1577 9.242 11.666 10.429 11.666 11.6667V44.3333C11.666 45.571 12.1577 46.758 13.0329 47.6332C13.908 48.5083 15.095 49 16.3327 49H39.666C40.9037 49 42.0907 48.5083 42.9658 47.6332C43.841 46.758 44.3327 45.571 44.3327 44.3333L44.3327 18.6667M32.666 7L44.3327 18.6667M20.9993 21H23.3327M20.9993 30.3324H34.9993M20.9993 39.6676H34.9993" stroke="#0079C1" stroke-width="1.5" stroke-linecap="round" stroke-linejoin="round"/>
</svg>
