<svg width="20" height="20" viewBox="0 0 20 20" fill="none" xmlns="http://www.w3.org/2000/svg">
<path d="M16.0002 8C15.6607 7.15072 15.1627 6.37897 14.5353 5.72896C13.9078 5.07895 13.1629 4.56334 12.3431 4.21155C11.5233 3.85977 10.6446 3.67871 9.75722 3.67871C8.86986 3.67871 7.99118 3.85977 7.17136 4.21155C6.35155 4.56334 5.60664 5.07895 4.97918 5.72896C4.35171 6.37897 3.85398 7.15065 3.5144 7.99993M16.0002 8L16.5002 4.5M16.0002 8L12.7135 7.99993" stroke="#0079C1" stroke-width="1.5" stroke-linecap="round" stroke-linejoin="round"/>
<path d="M4.0002 12.5001C4.33978 13.3494 4.83751 14.121 5.46497 14.771C6.09243 15.421 6.83734 15.9367 7.65716 16.2884C8.47698 16.6402 9.35565 16.8213 10.243 16.8213C11.1304 16.8213 12.0091 16.6402 12.8289 16.2884C13.6487 15.9367 14.3936 15.421 15.0211 14.771C15.6485 14.121 16.1463 13.3494 16.4858 12.5001M4.0002 12.5001L3.5 16M4.0002 12.5001L7.28675 12.5001" stroke="#0079C1" stroke-width="1.5" stroke-linecap="round" stroke-linejoin="round"/>
</svg>
