<svg width="16" height="16" viewBox="0 0 16 16" fill="#6A7E95" xmlns="http://www.w3.org/2000/svg">
<path fill-rule="evenodd" clip-rule="evenodd" d="M8 2.75C5.10051 2.75 2.75 5.10051 2.75 8C2.75 10.8995 5.10051 13.25 8 13.25C10.8995 13.25 13.25 10.8995 13.25 8C13.25 5.10051 10.8995 2.75 8 2.75ZM1.25 8C1.25 4.27208 4.27208 1.25 8 1.25C11.7279 1.25 14.75 4.27208 14.75 8C14.75 11.7279 11.7279 14.75 8 14.75C4.27208 14.75 1.25 11.7279 1.25 8ZM6.5832 8C6.5832 7.58579 6.91899 7.25 7.3332 7.25H7.99987C8.41408 7.25 8.74987 7.58579 8.74987 8V9.92124C9.12487 9.9627 9.41654 10.2806 9.41654 10.6667C9.41654 11.0809 9.08075 11.4167 8.66654 11.4167H7.99987C7.58566 11.4167 7.24987 11.0809 7.24987 10.6667V8.74542C6.87487 8.70397 6.5832 8.38605 6.5832 8ZM8 6.4C8.44183 6.4 8.8 6.04183 8.8 5.6C8.8 5.15817 8.44183 4.8 8 4.8C7.55817 4.8 7.2 5.15817 7.2 5.6C7.2 6.04183 7.55817 6.4 8 6.4Z" />
</svg>
