<svg width="20" height="20" viewBox="0 0 20 20" fill="#6A7E95" xmlns="http://www.w3.org/2000/svg">
<path fill-rule="evenodd" clip-rule="evenodd" d="M10 3.625C5.89595 3.625 2.39613 6.18133 1.16583 9.75592C1.11139 9.91409 1.11139 10.0859 1.16583 10.2441C2.39613 13.8187 5.89595 16.375 10 16.375C14.1041 16.375 17.6039 13.8187 18.8342 10.2441C18.8886 10.0859 18.8886 9.91409 18.8342 9.75592C17.6039 6.18133 14.1041 3.625 10 3.625ZM10 14.875C6.61804 14.875 3.7638 12.8297 2.67318 10C3.7638 7.1703 6.61804 5.125 10 5.125C13.382 5.125 16.2362 7.1703 17.3268 10C16.2362 12.8297 13.382 14.875 10 14.875ZM7.625 10C7.625 8.68832 8.68832 7.625 10 7.625C11.3117 7.625 12.375 8.68832 12.375 10C12.375 11.3117 11.3117 12.375 10 12.375C8.68832 12.375 7.625 11.3117 7.625 10ZM10 6.125C7.8599 6.125 6.125 7.8599 6.125 10C6.125 12.1401 7.8599 13.875 10 13.875C12.1401 13.875 13.875 12.1401 13.875 10C13.875 7.8599 12.1401 6.125 10 6.125Z"/>
</svg>
