<svg width="240" height="241" viewBox="0 0 240 241" fill="none" xmlns="http://www.w3.org/2000/svg">
<path d="M139.674 137.254C136.331 140.944 131.969 143.561 127.139 144.773C122.309 145.985 117.228 145.738 112.539 144.063C107.849 142.388 103.761 139.361 100.791 135.364C97.8218 131.367 96.1037 126.579 95.8542 121.605C95.6048 116.632 96.8352 111.696 99.39 107.422C101.945 103.148 105.709 99.7265 110.208 97.591C114.706 95.4555 119.737 94.7014 124.664 95.4239C129.591 96.1465 134.193 98.3134 137.889 101.651C140.35 103.867 142.35 106.548 143.773 109.539C145.195 112.53 146.013 115.773 146.179 119.081C146.345 122.389 145.856 125.698 144.74 128.816C143.623 131.935 141.902 134.802 139.674 137.254Z" fill="url(#paint0_radial_7718_2044)"/>
<path d="M127.583 34.0534C129.667 36.1367 131.639 38.2573 133.387 40.3778C139.471 47.6361 144.483 55.7295 148.268 64.4109C154.239 65.5245 160.318 65.9489 166.386 65.6758H167.465H168.432C185.008 64.1611 200.479 56.7097 211.997 44.6934L213.522 43.1308C211.215 40.3778 208.872 37.6992 206.305 35.1322C185.815 14.7149 158.663 2.35205 129.81 0.302834C100.957 -1.74639 72.3296 6.65489 49.1599 23.9714C85.9907 6.03963 111.549 18.391 127.583 34.0534Z" fill="url(#paint1_linear_7718_2044)"/>
<path d="M42.3146 156.302C43.0586 153.437 43.9143 150.684 44.8444 148.117C48.1065 139.228 52.616 130.848 58.2374 123.228C56.2251 117.506 53.5533 112.038 50.276 106.934L49.6807 106.003L49.1227 105.222C39.5773 91.7564 25.5194 82.1601 9.50168 78.1758L7.38111 77.5433C6.15342 80.8916 5.03734 84.277 4.07006 87.7741C-3.384 115.718 -0.5361 145.411 12.0935 171.428C24.7231 197.445 46.2914 218.051 72.8581 229.48C38.8175 206.414 36.6969 177.991 42.3146 156.302Z" fill="url(#paint2_linear_7718_2044)"/>
<path d="M191.163 169.211C188.298 169.993 185.471 170.625 182.755 171.109C173.43 172.723 163.922 172.999 154.518 171.927C150.583 176.481 147.188 181.475 144.399 186.808C144.399 187.143 144.064 187.441 143.915 187.775C143.764 188.066 143.627 188.364 143.506 188.668C136.545 203.674 135.224 220.685 139.786 236.586C139.786 237.292 140.195 237.999 140.418 238.706C143.915 238.074 147.45 237.404 150.947 236.474C178.824 228.931 203.066 211.629 219.262 187.718C235.457 163.807 242.53 134.876 239.192 106.19C236.216 147.224 212.666 163.222 191.163 169.211Z" fill="url(#paint3_linear_7718_2044)"/>
<path d="M48.9738 23.9713C31.3364 36.2942 17.5481 53.3587 9.20397 73.1907C21.6102 75.8102 33.1034 81.6634 42.5181 90.157C51.9329 98.6505 58.9345 109.482 62.8132 121.554C66.1243 119.434 76.3179 111.361 83.1632 89.1879C91.4594 62.3646 107.159 42.5727 127.583 33.9417C127.583 34.0533 101.727 -2.74029 48.9738 23.9713Z" fill="url(#paint4_linear_7718_2044)"/>
<path d="M131.787 217.091C131.773 199.117 138.504 181.792 150.649 168.542L150.835 168.281C148.343 165.64 139.674 159.167 117.353 164.226C90.1574 170.439 59.9487 169.732 42.3146 156.302C42.3146 156.302 23.3411 197.225 72.8581 229.405C92.3181 238.522 113.962 241.94 135.284 239.264C132.91 232.115 131.728 224.624 131.787 217.091Z" fill="url(#paint5_linear_7718_2044)"/>
<path d="M216.461 47.1488C209.8 54.7196 201.605 60.7876 192.42 64.9503C183.235 69.1129 173.271 71.2751 163.186 71.2934C157.873 71.2745 152.575 70.7136 147.375 69.6193H147.115C146.073 73.3396 145.255 83.9424 160.322 100.163C179.407 120.773 193.804 147.262 191.163 169.248C191.163 169.248 235.806 165.268 239.192 106.227C237.348 84.7822 229.467 64.2986 216.461 47.1488Z" fill="url(#paint6_linear_7718_2044)"/>
<defs>
<radialGradient id="paint0_radial_7718_2044" cx="0" cy="0" r="1" gradientUnits="userSpaceOnUse" gradientTransform="translate(113.144 102.572) scale(35.3713 35.3713)">
<stop stop-color="#4495D1"/>
<stop offset="1" stop-color="#15256D"/>
</radialGradient>
<linearGradient id="paint1_linear_7718_2044" x1="86.5118" y1="8.14964" x2="192.369" y2="50.766" gradientUnits="userSpaceOnUse">
<stop stop-color="#4495D1"/>
<stop offset="1" stop-color="#15256D"/>
</linearGradient>
<linearGradient id="paint2_linear_7718_2044" x1="40.5062" y1="204.957" x2="24.5206" y2="91.9838" gradientUnits="userSpaceOnUse">
<stop stop-color="#4495D1"/>
<stop offset="1" stop-color="#15256D"/>
</linearGradient>
<linearGradient id="paint3_linear_7718_2044" x1="234.225" y1="146.496" x2="144.39" y2="216.863" gradientUnits="userSpaceOnUse">
<stop stop-color="#4495D1"/>
<stop offset="1" stop-color="#15256D"/>
</linearGradient>
<linearGradient id="paint4_linear_7718_2044" x1="44.1374" y1="89.1507" x2="91.7198" y2="16.1215" gradientUnits="userSpaceOnUse">
<stop stop-color="#4495D1"/>
<stop offset="1" stop-color="#15256D"/>
</linearGradient>
<linearGradient id="paint5_linear_7718_2044" x1="134.168" y1="193.244" x2="48.8251" y2="201.95" gradientUnits="userSpaceOnUse">
<stop stop-color="#4495D1"/>
<stop offset="1" stop-color="#15256D"/>
</linearGradient>
<linearGradient id="paint6_linear_7718_2044" x1="189.117" y1="69.8053" x2="206.491" y2="157.641" gradientUnits="userSpaceOnUse">
<stop stop-color="#4495D1"/>
<stop offset="1" stop-color="#15256D"/>
</linearGradient>
</defs>
</svg>
