<svg width="40" height="40" viewBox="0 0 40 40" fill="none" xmlns="http://www.w3.org/2000/svg">
<path d="M10.0013 13.3333C11.8423 13.3333 13.3346 11.8409 13.3346 10C13.3346 8.15905 11.8423 6.66667 10.0013 6.66667C8.16035 6.66667 6.66797 8.15905 6.66797 10C6.66797 11.8409 8.16035 13.3333 10.0013 13.3333ZM10.0013 13.3333V26.6667C10.0013 27.5507 10.3525 28.3986 10.9776 29.0237C11.6027 29.6488 12.4506 30 13.3346 30H21.668M30.0013 26.6667C28.1604 26.6667 26.668 28.1591 26.668 30C26.668 31.8409 28.1604 33.3333 30.0013 33.3333C31.8423 33.3333 33.3346 31.8409 33.3346 30C33.3346 28.1591 31.8423 26.6667 30.0013 26.6667ZM30.0013 26.6667V13.3333C30.0013 12.4493 29.6501 11.6014 29.025 10.9763C28.3999 10.3512 27.552 10 26.668 10H18.3346M18.3346 10L23.3346 15M18.3346 10L23.3346 5M21.668 30L16.668 25M21.668 30L16.668 35" stroke="#0079C1" stroke-width="1.5" stroke-linecap="round" stroke-linejoin="round"/>
</svg>
