<svg width="48" height="48" viewBox="0 0 48 48" fill="none" xmlns="http://www.w3.org/2000/svg">
<path d="M22.8057 30.8597C22.8057 29.522 23.8901 28.4375 25.2279 28.4375H41.5777C42.9155 28.4375 43.9999 29.522 43.9999 30.8597V38.7319C43.9999 40.0696 42.9155 41.1541 41.5777 41.1541H25.2279C23.8901 41.1541 22.8057 40.0696 22.8057 38.7319V30.8597Z" fill="#0079C1"/>
<rect x="22.8057" y="24.8027" width="21.1943" height="9.68881" rx="2.4222" fill="#003A5C"/>
<path d="M37.3394 24.8032C37.3394 24.3261 37.2454 23.8536 37.0628 23.4128C36.8802 22.972 36.6126 22.5715 36.2752 22.2341C35.9378 21.8967 35.5373 21.6291 35.0965 21.4465C34.6556 21.2639 34.1832 21.1699 33.7061 21.1699C33.2289 21.1699 32.7565 21.2639 32.3157 21.4465C31.8748 21.6291 31.4743 21.8967 31.1369 22.2341C30.7995 22.5715 30.5319 22.972 30.3493 23.4128C30.1667 23.8536 30.0728 24.3261 30.0728 24.8032H31.7547C31.7547 24.547 31.8052 24.2932 31.9032 24.0565C32.0013 23.8197 32.145 23.6046 32.3262 23.4234C32.5074 23.2422 32.7226 23.0985 32.9593 23.0004C33.1961 22.9023 33.4498 22.8519 33.7061 22.8519C33.9623 22.8519 34.2161 22.9023 34.4528 23.0004C34.6896 23.0985 34.9047 23.2422 35.0859 23.4234C35.2671 23.6046 35.4108 23.8197 35.5089 24.0565C35.6069 24.2932 35.6574 24.547 35.6574 24.8032H37.3394Z" fill="#0079C1"/>
<rect x="31.1694" y="30.9629" width="4.56191" height="2.02752" rx="1.01376" fill="#0079C1"/>
<g filter="url(#filter0_b_8110_233537)">
<path fill-rule="evenodd" clip-rule="evenodd" d="M26.3944 16.1738C26.3944 20.7722 22.7537 24.4999 18.2627 24.4999C13.7717 24.4999 10.131 20.7722 10.131 16.1738C10.131 11.5754 13.7717 7.84766 18.2627 7.84766C22.7537 7.84766 26.3944 11.5754 26.3944 16.1738ZM4.22802 38.7401C5.35078 31.841 11.2077 26.582 18.2643 26.582C25.3209 26.582 31.1778 31.841 32.3006 38.7401C32.5154 40.0605 31.4103 41.1527 30.0725 41.1527H6.45606C5.11831 41.1527 4.01315 40.0605 4.22802 38.7401Z" fill="#D5E8F1" fill-opacity="0.7"/>
</g>
<defs>
<filter id="filter0_b_8110_233537" x="1.7928" y="5.43929" width="32.9432" height="38.1214" filterUnits="userSpaceOnUse" color-interpolation-filters="sRGB">
<feFlood flood-opacity="0" result="BackgroundImageFix"/>
<feGaussianBlur in="BackgroundImageFix" stdDeviation="1.20418"/>
<feComposite in2="SourceAlpha" operator="in" result="effect1_backgroundBlur_8110_233537"/>
<feBlend mode="normal" in="SourceGraphic" in2="effect1_backgroundBlur_8110_233537" result="shape"/>
</filter>
</defs>
</svg>
