<svg width="65" height="64" viewBox="0 0 65 64" fill="none" xmlns="http://www.w3.org/2000/svg">
<path d="M21.6667 13.3333H16.3333C14.9188 13.3333 13.5623 13.8952 12.5621 14.8954C11.5619 15.8956 11 17.2522 11 18.6667V50.6667C11 52.0812 11.5619 53.4377 12.5621 54.4379C13.5623 55.4381 14.9188 56 16.3333 56H31.5253M21.6667 13.3333C21.6667 16.2789 24.0545 18.6667 27 18.6667H32.3333C35.2789 18.6667 37.6667 16.2789 37.6667 13.3333M21.6667 13.3333C21.6667 10.3878 24.0545 8 27 8H32.3333C35.2789 8 37.6667 10.3878 37.6667 13.3333M48.3333 32V18.6667C48.3333 17.2522 47.7714 15.8956 46.7712 14.8954C45.771 13.8952 44.4145 13.3333 43 13.3333H37.6667M21.6667 29.3333H32.3333M21.6667 40H29.6667M49.6667 52L56.3333 58.6667M51 46.6667C51 50.3486 48.0152 53.3333 44.3333 53.3333C40.6514 53.3333 37.6667 50.3486 37.6667 46.6667C37.6667 42.9848 40.6514 40 44.3333 40C48.0152 40 51 42.9848 51 46.6667Z" stroke="#0079C1" stroke-width="1.5" stroke-linecap="round" stroke-linejoin="round"/>
</svg>
