<svg width="64" height="64" viewBox="0 0 64 64" fill="none" xmlns="http://www.w3.org/2000/svg">
<path d="M47.4671 52.8466L41.6751 55.8812C41.5032 55.9707 41.3098 56.0106 41.1165 55.9966C40.9233 55.9825 40.7377 55.915 40.5806 55.8016C40.4235 55.6882 40.301 55.5333 40.2268 55.3543C40.1526 55.1753 40.1296 54.9792 40.1604 54.7879L41.2671 48.3586L36.5817 43.8066C36.4419 43.6714 36.3429 43.4996 36.296 43.3108C36.2491 43.122 36.2562 42.9239 36.3166 42.739C36.3769 42.554 36.488 42.3898 36.6372 42.265C36.7864 42.1402 36.9677 42.0599 37.1604 42.0332L43.6351 41.0946L46.5311 35.2466C46.6177 35.0724 46.7512 34.9258 46.9165 34.8234C47.0819 34.7209 47.2725 34.6667 47.4671 34.6667C47.6616 34.6667 47.8522 34.7209 48.0176 34.8234C48.183 34.9258 48.3164 35.0724 48.4031 35.2466L51.2991 41.0946L57.7737 42.0332C57.9658 42.0609 58.1464 42.1417 58.2949 42.2666C58.4435 42.3915 58.5541 42.5555 58.6143 42.74C58.6745 42.9245 58.6819 43.1222 58.6356 43.3107C58.5893 43.4992 58.4912 43.6709 58.3524 43.8066L53.6671 48.3586L54.7711 54.7852C54.8042 54.9769 54.7829 55.174 54.7097 55.3541C54.6364 55.5343 54.5141 55.6903 54.3566 55.8045C54.1992 55.9186 54.0128 55.9863 53.8188 55.9999C53.6248 56.0135 53.4309 55.9723 53.2591 55.8812L47.4671 52.8466Z" stroke="#0079C1" stroke-width="1.5" stroke-linecap="round" stroke-linejoin="round"/>
<path d="M16.5337 52.8466L10.7417 55.8812C10.5698 55.9707 10.3765 56.0106 10.1832 55.9966C9.98994 55.9825 9.8044 55.915 9.64728 55.8016C9.49017 55.6882 9.36767 55.5333 9.29346 55.3543C9.21925 55.1753 9.19626 54.9792 9.22704 54.7879L10.3337 48.3586L5.64837 43.8066C5.50853 43.6714 5.40951 43.4996 5.36262 43.3108C5.31573 43.122 5.32287 42.9239 5.38321 42.739C5.44355 42.554 5.55466 42.3898 5.70387 42.265C5.85308 42.1402 6.03437 42.0599 6.22704 42.0332L12.7017 41.0946L15.5977 35.2466C15.6843 35.0724 15.8178 34.9258 15.9832 34.8234C16.1485 34.7209 16.3392 34.6667 16.5337 34.6667C16.7282 34.6667 16.9189 34.7209 17.0842 34.8234C17.2496 34.9258 17.3831 35.0724 17.4697 35.2466L20.3657 41.0946L26.8404 42.0332C27.0325 42.0609 27.213 42.1417 27.3616 42.2666C27.5101 42.3915 27.6208 42.5555 27.681 42.74C27.7412 42.9245 27.7486 43.1222 27.7023 43.3107C27.656 43.4992 27.5579 43.6709 27.419 43.8066L22.7337 48.3586L23.8377 54.7852C23.8708 54.9769 23.8496 55.174 23.7763 55.3541C23.7031 55.5343 23.5808 55.6903 23.4233 55.8045C23.2658 55.9186 23.0795 55.9863 22.8855 55.9999C22.6915 56.0135 22.4975 55.9723 22.3257 55.8812L16.5337 52.8466Z" stroke="#0079C1" stroke-width="1.5" stroke-linecap="round" stroke-linejoin="round"/>
<path d="M32.0004 26.1799L26.2084 29.2146C26.0365 29.304 25.8432 29.344 25.6499 29.3299C25.4567 29.3158 25.2711 29.2483 25.114 29.1349C24.9569 29.0215 24.8344 28.8666 24.7602 28.6876C24.686 28.5086 24.663 28.3125 24.6938 28.1212L25.8004 21.6919L21.1151 17.1399C20.9752 17.0047 20.8762 16.8329 20.8293 16.6441C20.7824 16.4554 20.7896 16.2572 20.8499 16.0723C20.9103 15.8874 21.0214 15.7232 21.1706 15.5984C21.3198 15.4736 21.5011 15.3933 21.6938 15.3666L28.1684 14.4279L31.0644 8.5799C31.151 8.40573 31.2845 8.25917 31.4499 8.15672C31.6152 8.05428 31.8059 8 32.0004 8C32.1949 8 32.3856 8.05428 32.551 8.15672C32.7163 8.25917 32.8498 8.40573 32.9364 8.5799L35.8324 14.4279L42.3071 15.3666C42.4992 15.3942 42.6797 15.475 42.8283 15.6C42.9768 15.7249 43.0875 15.8888 43.1477 16.0733C43.2079 16.2579 43.2153 16.4555 43.169 16.644C43.1227 16.8325 43.0246 17.0043 42.8858 17.1399L38.2004 21.6919L39.3044 28.1186C39.3376 28.3102 39.3163 28.5073 39.243 28.6875C39.1698 28.8676 39.0475 29.0237 38.89 29.1378C38.7325 29.2519 38.5462 29.3196 38.3522 29.3332C38.1582 29.3468 37.9642 29.3057 37.7924 29.2146L32.0004 26.1799Z" stroke="#0079C1" stroke-width="1.5" stroke-linecap="round" stroke-linejoin="round"/>
</svg>
