<svg width="64" height="64" viewBox="0 0 64 64" fill="none" xmlns="http://www.w3.org/2000/svg">
<path d="M8 56V50.6667C8 47.8377 9.12381 45.1246 11.1242 43.1242C13.1246 41.1238 15.8377 40 18.6667 40H29.3333C32.1623 40 34.8754 41.1238 36.8758 43.1242C38.8762 45.1246 40 47.8377 40 50.6667V56M42.6667 8.34668C44.9611 8.93415 46.9948 10.2685 48.447 12.1395C49.8993 14.0105 50.6876 16.3116 50.6876 18.68C50.6876 21.0485 49.8993 23.3496 48.447 25.2205C46.9948 27.0915 44.9611 28.4259 42.6667 29.0133M56 56.0001V50.6667C55.9865 48.3125 55.1944 46.0289 53.7474 44.1718C52.3003 42.3147 50.2795 40.9886 48 40.4001M34.6667 18.6667C34.6667 24.5577 29.891 29.3333 24 29.3333C18.109 29.3333 13.3333 24.5577 13.3333 18.6667C13.3333 12.7756 18.109 8 24 8C29.891 8 34.6667 12.7756 34.6667 18.6667Z" stroke="#0079C1" stroke-width="1.5" stroke-linecap="round" stroke-linejoin="round"/>
</svg>
