<svg width="41" height="40" viewBox="0 0 41 40" fill="none" xmlns="http://www.w3.org/2000/svg">
<path d="M20.668 20C21.5885 20 22.3347 19.2538 22.3347 18.3333C22.3347 17.4129 21.5885 16.6667 20.668 16.6667C19.7475 16.6667 19.0013 17.4129 19.0013 18.3333C19.0013 19.2538 19.7475 20 20.668 20ZM20.668 20V24.1667M20.668 4C24.3067 7.67391 29.0558 9.58678 33.9091 9.33333C34.6157 12.0765 34.8319 14.9537 34.5449 17.7941C34.2578 20.6345 33.4734 23.38 32.2382 25.8676C31.0031 28.3552 29.3423 30.534 27.3547 32.2746C25.367 34.0152 23.0931 35.2821 20.668 36C18.2428 35.2821 15.9689 34.0152 13.9813 32.2746C11.9936 30.534 10.3329 28.3552 9.09769 25.8676C7.86251 23.38 7.07809 20.6345 6.79106 17.7941C6.50402 14.9537 6.72023 12.0765 7.42683 9.33333C12.2801 9.58678 17.0293 7.67391 20.668 4Z" stroke="#0079C1" stroke-width="1.5" stroke-linecap="round" stroke-linejoin="round"/>
</svg>
