<svg width="40" height="40" viewBox="0 0 40 40" fill="none" xmlns="http://www.w3.org/2000/svg">
<path d="M23.332 5V11.6667C23.332 12.1087 23.5076 12.5326 23.8202 12.8452C24.1327 13.1577 24.5567 13.3333 24.9987 13.3333H31.6654M23.332 5H11.6654C10.7813 5 9.93346 5.35119 9.30834 5.97631C8.68322 6.60143 8.33203 7.44928 8.33203 8.33333V31.6667C8.33203 32.5507 8.68322 33.3986 9.30834 34.0237C9.93346 34.6488 10.7813 35 11.6654 35H28.332C29.2161 35 30.0639 34.6488 30.6891 34.0237C31.3142 33.3986 31.6654 32.5507 31.6654 31.6667L31.6654 13.3333M23.332 5L31.6654 13.3333M14.9987 15H16.6654M14.9987 21.666H24.9987M14.9987 28.334H24.9987" stroke="#0079C1" stroke-width="1.5" stroke-linecap="round" stroke-linejoin="round"/>
</svg>
