<svg width="64" height="64" viewBox="0 0 64 64" fill="none" xmlns="http://www.w3.org/2000/svg">
<path d="M47.4666 52.8466L41.6746 55.8812C41.5027 55.9707 41.3093 56.0106 41.1161 55.9966C40.9228 55.9825 40.7373 55.915 40.5801 55.8016C40.423 55.6882 40.3005 55.5333 40.2263 55.3543C40.1521 55.1753 40.1291 54.9792 40.1599 54.7879L41.2666 48.3586L36.5812 43.8066C36.4414 43.6714 36.3424 43.4996 36.2955 43.3108C36.2486 43.122 36.2557 42.9239 36.3161 42.739C36.3764 42.554 36.4875 42.3898 36.6367 42.265C36.7859 42.1402 36.9672 42.0599 37.1599 42.0332L43.6346 41.0946L46.5306 35.2466C46.6172 35.0724 46.7507 34.9258 46.916 34.8234C47.0814 34.7209 47.272 34.6667 47.4666 34.6667C47.6611 34.6667 47.8518 34.7209 48.0171 34.8234C48.1825 34.9258 48.316 35.0724 48.4026 35.2466L51.2986 41.0946L57.7732 42.0332C57.9653 42.0609 58.1459 42.1417 58.2944 42.2666C58.443 42.3915 58.5536 42.5555 58.6138 42.74C58.6741 42.9245 58.6814 43.1222 58.6351 43.3107C58.5888 43.4992 58.4907 43.6709 58.3519 43.8066L53.6666 48.3586L54.7706 54.7852C54.8037 54.9769 54.7824 55.174 54.7092 55.3541C54.6359 55.5343 54.5136 55.6903 54.3561 55.8045C54.1987 55.9186 54.0124 55.9863 53.8183 55.9999C53.6243 56.0135 53.4304 55.9723 53.2586 55.8812L47.4666 52.8466Z" stroke="#0079C1" stroke-width="1.5" stroke-linecap="round" stroke-linejoin="round"/>
<path d="M16.5332 52.8466L10.7412 55.8812C10.5693 55.9707 10.376 56.0106 10.1827 55.9966C9.98945 55.9825 9.80391 55.915 9.64679 55.8016C9.48968 55.6882 9.36718 55.5333 9.29297 55.3543C9.21876 55.1753 9.19577 54.9792 9.22655 54.7879L10.3332 48.3586L5.64789 43.8066C5.50804 43.6714 5.40902 43.4996 5.36213 43.3108C5.31524 43.122 5.32238 42.9239 5.38272 42.739C5.44306 42.554 5.55418 42.3898 5.70338 42.265C5.85259 42.1402 6.03388 42.0599 6.22655 42.0332L12.7012 41.0946L15.5972 35.2466C15.6838 35.0724 15.8173 34.9258 15.9827 34.8234C16.148 34.7209 16.3387 34.6667 16.5332 34.6667C16.7277 34.6667 16.9184 34.7209 17.0838 34.8234C17.2491 34.9258 17.3826 35.0724 17.4692 35.2466L20.3652 41.0946L26.8399 42.0332C27.032 42.0609 27.2125 42.1417 27.3611 42.2666C27.5096 42.3915 27.6203 42.5555 27.6805 42.74C27.7407 42.9245 27.7481 43.1222 27.7018 43.3107C27.6555 43.4992 27.5574 43.6709 27.4185 43.8066L22.7332 48.3586L23.8372 54.7852C23.8704 54.9769 23.8491 55.174 23.7758 55.3541C23.7026 55.5343 23.5803 55.6903 23.4228 55.8045C23.2653 55.9186 23.079 55.9863 22.885 55.9999C22.691 56.0135 22.497 55.9723 22.3252 55.8812L16.5332 52.8466Z" stroke="#0079C1" stroke-width="1.5" stroke-linecap="round" stroke-linejoin="round"/>
<path d="M31.9999 26.1799L26.2079 29.2146C26.036 29.304 25.8427 29.344 25.6494 29.3299C25.4562 29.3158 25.2706 29.2483 25.1135 29.1349C24.9564 29.0215 24.8339 28.8666 24.7597 28.6876C24.6855 28.5086 24.6625 28.3125 24.6933 28.1212L25.7999 21.6919L21.1146 17.1399C20.9748 17.0047 20.8757 16.8329 20.8288 16.6441C20.782 16.4554 20.7891 16.2572 20.8494 16.0723C20.9098 15.8874 21.0209 15.7232 21.1701 15.5984C21.3193 15.4736 21.5006 15.3933 21.6933 15.3666L28.1679 14.4279L31.0639 8.5799C31.1505 8.40573 31.284 8.25917 31.4494 8.15672C31.6147 8.05428 31.8054 8 31.9999 8C32.1945 8 32.3851 8.05428 32.5505 8.15672C32.7158 8.25917 32.8493 8.40573 32.9359 8.5799L35.8319 14.4279L42.3066 15.3666C42.4987 15.3942 42.6792 15.475 42.8278 15.6C42.9764 15.7249 43.087 15.8888 43.1472 16.0733C43.2074 16.2579 43.2148 16.4555 43.1685 16.644C43.1222 16.8325 43.0241 17.0043 42.8853 17.1399L38.1999 21.6919L39.3039 28.1186C39.3371 28.3102 39.3158 28.5073 39.2425 28.6875C39.1693 28.8676 39.047 29.0237 38.8895 29.1378C38.732 29.2519 38.5457 29.3196 38.3517 29.3332C38.1577 29.3468 37.9638 29.3057 37.7919 29.2146L31.9999 26.1799Z" stroke="#0079C1" stroke-width="1.5" stroke-linecap="round" stroke-linejoin="round"/>
</svg>
