<svg width="64" height="64" viewBox="0 0 64 64" fill="none" xmlns="http://www.w3.org/2000/svg">
<path d="M32 56C45.2548 56 56 45.2548 56 32C56 18.7452 45.2548 8 32 8C18.7452 8 8 18.7452 8 32C8 45.2548 18.7452 56 32 56Z" stroke="#0079C1" stroke-width="1.5" stroke-linecap="round" stroke-linejoin="round"/>
<path d="M32 21.3333C33.4728 21.3333 34.6667 20.1394 34.6667 18.6667C34.6667 17.1939 33.4728 16 32 16C30.5272 16 29.3333 17.1939 29.3333 18.6667C29.3333 20.1394 30.5272 21.3333 32 21.3333Z" stroke="#0079C1" stroke-width="1.5" stroke-linecap="round" stroke-linejoin="round"/>
<path d="M24 34.6667V32C24 31.2928 24.281 30.6145 24.781 30.1144C25.2811 29.6143 25.9594 29.3333 26.6667 29.3333H37.3333C38.0406 29.3333 38.7189 29.6143 39.219 30.1144C39.719 30.6145 40 31.2928 40 32V34.6667C40 35.3739 39.719 36.0522 39.219 36.5523C38.7189 37.0524 38.0406 37.3333 37.3333 37.3333H36L34.6667 48H29.3333L28 37.3333H26.6667C25.9594 37.3333 25.2811 37.0524 24.781 36.5523C24.281 36.0522 24 35.3739 24 34.6667Z" stroke="#0079C1" stroke-width="1.5" stroke-linecap="round" stroke-linejoin="round"/>
</svg>
