<svg width="355" height="237" viewBox="0 0 355 237" fill="none" xmlns="http://www.w3.org/2000/svg">
<path d="M241.733 160.48C241.085 160.48 240.307 160.22 239.529 159.831L191.542 132.207C188.689 130.521 186.484 126.241 186.484 122.48V31.695C186.484 29.62 187.133 28.0637 188.43 27.4152C189.467 26.7667 190.764 26.8964 192.061 27.6746L240.047 55.299C242.901 56.985 245.105 61.2649 245.105 65.026V155.811C245.105 157.886 244.457 159.442 243.16 160.09C242.771 160.35 242.382 160.48 241.733 160.48ZM240.047 159.183C241.085 159.831 242.122 159.831 242.901 159.442C243.808 158.923 244.457 157.626 244.457 155.811V65.026C244.457 61.5243 242.382 57.5038 239.788 55.9475L191.672 28.323C190.635 27.6746 189.597 27.6746 188.819 28.0637C187.911 28.5824 187.263 29.8793 187.263 31.695V122.48C187.263 125.981 189.338 130.002 191.931 131.558L240.047 159.183Z" fill="#7BC7EF"/>
<path d="M114.372 160.48C113.853 160.48 113.334 160.35 112.945 160.09C111.778 159.442 111 157.756 111 155.811V65.026C111 61.2649 113.334 56.8554 116.058 55.299L164.044 27.6746C165.341 26.8964 166.638 26.7667 167.676 27.4152C168.843 28.0637 169.621 29.7497 169.621 31.695V122.48C169.621 126.241 167.286 130.65 164.563 132.207L116.577 159.831C115.799 160.35 115.02 160.48 114.372 160.48ZM166.249 27.8043C165.73 27.8043 165.082 27.934 164.563 28.323L116.577 55.9475C113.983 57.5038 111.908 61.5243 111.908 65.026V155.811C111.908 157.626 112.427 158.923 113.464 159.442C114.242 159.831 115.28 159.831 116.317 159.183L164.304 131.558C166.897 130.002 168.972 125.981 168.972 122.48V31.695C168.972 29.8793 168.454 28.5824 167.416 28.0637C166.897 27.934 166.508 27.8043 166.249 27.8043Z" fill="#7BC7EF"/>
<path d="M176.886 211.317C174.552 211.317 172.217 210.798 170.531 209.761L127.474 184.86C125.658 183.822 124.75 182.396 124.75 180.969C124.75 179.413 125.788 178.116 127.474 177.078L170.402 152.177C173.903 150.102 179.74 150.102 183.241 152.177L226.299 177.078C228.115 178.116 229.023 179.542 229.023 180.969C229.023 182.525 227.985 183.822 226.299 184.86L183.371 209.761C181.426 210.798 179.091 211.317 176.886 211.317ZM176.627 151.399C174.422 151.399 172.217 151.918 170.661 152.826L127.733 177.727C126.177 178.635 125.398 179.802 125.398 180.969C125.398 182.136 126.177 183.304 127.733 184.211L170.791 209.112C174.163 211.058 179.48 211.058 182.852 209.112L225.78 184.211C227.337 183.304 228.115 182.136 228.115 180.969C228.115 179.802 227.207 178.635 225.78 177.727L182.593 152.826C180.907 151.788 178.832 151.399 176.627 151.399Z" fill="#7BC7EF"/>
<path d="M228.764 167.354V146.733L202.696 150.234L183.112 138.951C179.74 137.006 174.164 137.006 170.662 138.951L167.679 140.897L125.27 146.603V167.484V167.613C125.27 168.91 126.177 170.077 127.863 171.115L170.921 196.016C174.293 197.961 179.87 197.961 183.372 196.016L226.3 171.115C227.856 169.948 228.634 168.651 228.764 167.354Z" fill="url(#paint0_linear_4747_198965)"/>
<path d="M226.169 142.84L182.981 117.94C179.609 115.994 174.032 115.994 170.531 117.94L127.732 142.97C124.36 144.916 124.36 148.158 127.732 150.103L170.79 175.004C174.162 176.95 179.739 176.95 183.24 175.004L226.169 150.103C229.541 148.028 229.541 144.916 226.169 142.84Z" fill="url(#paint1_radial_4747_198965)"/>
<path d="M226.168 148.807L183.24 173.708C179.868 175.653 174.291 175.653 170.789 173.708L127.731 148.807C126.305 148.029 125.527 146.991 125.267 145.824C125.008 147.381 125.786 148.937 127.731 149.974L170.789 174.875C174.161 176.821 179.738 176.821 183.24 174.875L226.168 149.974C228.113 148.807 229.021 147.251 228.632 145.824C228.373 146.991 227.594 148.029 226.168 148.807Z" fill="white"/>
<path d="M189.075 180.448L187 181.745V179.281L189.075 178.113V180.448Z" fill="white"/>
<path d="M193.356 177.987L191.281 179.284V176.82L193.356 175.652V177.987Z" fill="white"/>
<path d="M197.634 175.522L195.559 176.819V174.355L197.634 173.188V175.522Z" fill="white"/>
<path d="M194.134 182.397L192.059 183.564V181.23L194.134 180.062V182.397Z" fill="white"/>
<path d="M197.895 180.19L195.82 181.357V179.023L197.895 177.855V180.19Z" fill="white"/>
<path d="M211.251 167.741L209.176 168.909V166.445L211.251 165.277V167.741Z" fill="white"/>
<path d="M223.056 160.866L220.98 162.033V159.698L223.056 158.531V160.866Z" fill="white"/>
<path d="M201.915 173.057L199.84 174.354V171.89L201.915 170.723V173.057Z" fill="white"/>
<path opacity="0.4" d="M174.55 164.498L145.499 147.767C144.332 147.119 144.461 145.952 145.888 145.173L174.291 128.832C175.587 128.054 177.663 127.924 178.83 128.702L207.881 145.433C209.048 146.081 208.918 147.248 207.492 148.027L179.089 164.368C177.663 165.016 175.717 165.146 174.55 164.498Z" fill="#073A58"/>
<path d="M163.14 182.655L139.147 168.778C138.628 168.389 138.109 167.611 138.109 166.832V165.017C138.109 164.239 138.628 163.849 139.147 164.239L163.14 178.116C163.659 178.505 164.178 179.283 164.178 180.061V181.877C164.048 182.525 163.659 182.914 163.14 182.655Z" fill="white"/>
<path d="M228.761 128.577V107.956L202.563 111.328L182.979 100.045C179.607 98.0996 174.031 98.0996 170.529 100.045L167.546 101.99L125.137 107.697V128.577V128.707C125.137 130.004 126.045 131.171 127.731 132.209L170.788 157.11C174.16 159.055 179.737 159.055 183.239 157.11L226.167 132.079C227.853 131.171 228.631 129.874 228.761 128.577Z" fill="url(#paint2_linear_4747_198965)"/>
<path d="M226.169 104.063L182.981 79.1622C179.609 77.2168 174.032 77.2168 170.531 79.1622L127.732 104.193C124.36 106.138 124.36 109.38 127.732 111.326L170.79 136.227C174.162 138.172 179.739 138.172 183.24 136.227L226.169 111.326C229.541 109.251 229.541 106.138 226.169 104.063Z" fill="url(#paint3_radial_4747_198965)"/>
<path opacity="0.4" d="M205.549 105.62L180.518 91.0942C178.573 89.9269 175.33 89.9269 173.255 91.0942L148.225 105.62C146.279 106.787 146.279 108.603 148.225 109.77L173.385 124.295C175.33 125.463 178.573 125.463 180.648 124.295L205.678 109.77C207.624 108.603 207.624 106.787 205.549 105.62Z" fill="#073A58"/>
<path d="M226.164 110.03L183.236 134.931C179.864 136.876 174.287 136.876 170.785 134.931L127.727 110.03C126.301 109.252 125.523 108.214 125.263 107.047C125.004 108.603 125.782 110.159 127.727 111.197L170.785 136.098C174.157 138.043 179.734 138.043 183.236 136.098L226.164 111.327C228.109 110.159 229.017 108.603 228.628 107.177C228.369 108.214 227.59 109.252 226.164 110.03Z" fill="white"/>
<path d="M189.075 141.67L187 142.967V140.503L189.075 139.336V141.67Z" fill="white"/>
<path d="M193.356 139.209L191.281 140.506V138.042L193.356 136.875V139.209Z" fill="white"/>
<path d="M197.634 136.745L195.559 138.042V135.577L197.634 134.41V136.745Z" fill="white"/>
<path d="M194.134 143.62L192.059 144.787V142.452L194.134 141.285V143.62Z" fill="white"/>
<path d="M197.895 141.413L195.82 142.58V140.245L197.895 139.078V141.413Z" fill="white"/>
<path d="M211.251 128.964L209.176 130.131V127.667L211.251 126.5V128.964Z" fill="white"/>
<path d="M223.056 122.088L220.98 123.256V120.921L223.056 119.754V122.088Z" fill="white"/>
<path d="M201.915 134.28L199.84 135.577V133.113L201.915 131.945V134.28Z" fill="white"/>
<path d="M228.764 89.7992V69.1781L202.696 72.6798L183.112 61.3965C179.74 59.4512 174.164 59.4512 170.662 61.3965L167.679 63.3419L125.27 69.0484V89.9288V90.0585C125.27 91.3555 126.177 92.5227 127.863 93.5602L170.921 118.461C174.293 120.407 179.87 120.407 183.372 118.461L226.3 93.5602C227.856 92.393 228.634 91.0961 228.764 89.7992Z" fill="url(#paint4_linear_4747_198965)"/>
<path d="M226.169 65.2857L182.981 40.3848C179.609 38.4394 174.032 38.4394 170.531 40.3848L127.732 65.4154C124.36 67.3608 124.36 70.6031 127.732 72.5485L170.79 97.4494C174.162 99.3948 179.739 99.3948 183.24 97.4494L226.169 72.5485C229.541 70.4734 229.541 67.3608 226.169 65.2857Z" fill="url(#paint5_radial_4747_198965)"/>
<path d="M226.168 71.2525L183.24 96.1534C179.868 98.0988 174.291 98.0988 170.789 96.1534L127.731 71.2525C126.305 70.4743 125.527 69.4368 125.267 68.2695C125.008 69.8258 125.786 71.3821 127.731 72.4197L170.789 97.3206C174.161 99.266 179.738 99.266 183.24 97.3206L226.168 72.4197C228.113 71.2525 229.021 69.6961 228.632 68.2695C228.373 69.4368 227.594 70.4743 226.168 71.2525Z" fill="white"/>
<path d="M189.075 103.023L187 104.19V101.726L189.075 100.559V103.023Z" fill="white"/>
<path d="M193.356 100.432L191.281 101.729V99.2649L193.356 98.0977V100.432Z" fill="white"/>
<path d="M197.634 97.9673L195.559 99.2642V96.8L197.634 95.6328V97.9673Z" fill="white"/>
<path d="M194.134 104.842L192.059 106.01V103.675L194.134 102.508V104.842Z" fill="white"/>
<path d="M197.895 102.635L195.82 103.802V101.468L197.895 100.301V102.635Z" fill="white"/>
<path d="M211.251 90.1868L209.176 91.354V88.8899L211.251 87.7227V90.1868Z" fill="white"/>
<path d="M223.056 83.311L220.98 84.4783V82.1438L223.056 80.9766V83.311Z" fill="white"/>
<path d="M201.915 95.5024L199.84 96.7994V94.3352L201.915 93.168V95.5024Z" fill="white"/>
<path d="M163.14 144.658L139.147 130.911C138.628 130.522 138.109 129.743 138.109 128.965V127.15C138.109 126.371 138.628 125.982 139.147 126.371L163.14 140.248C163.659 140.638 164.178 141.416 164.178 142.194V144.01C164.048 144.658 163.659 145.047 163.14 144.658Z" fill="white"/>
<path d="M163.14 106.787L139.147 92.9098C138.628 92.5208 138.109 91.7426 138.109 90.9644V89.2784C138.109 88.5003 138.628 88.1112 139.147 88.5003L163.14 102.248C163.659 102.637 164.178 103.415 164.178 104.193V106.009C164.048 106.787 163.659 107.176 163.14 106.787Z" fill="white"/>
<defs>
<linearGradient id="paint0_linear_4747_198965" x1="118.921" y1="167.325" x2="191.95" y2="167.325" gradientUnits="userSpaceOnUse">
<stop stop-color="#63CDFF"/>
<stop offset="0.1297" stop-color="#63CDFF"/>
<stop offset="0.791667" stop-color="#0079C1"/>
<stop offset="1" stop-color="#0079C1"/>
</linearGradient>
<radialGradient id="paint1_radial_4747_198965" cx="0" cy="0" r="1" gradientUnits="userSpaceOnUse" gradientTransform="translate(105.969 112.561) scale(163.089 163.089)">
<stop stop-color="#63CDFF"/>
<stop offset="0.1396" stop-color="#63CDFF"/>
<stop offset="0.4033" stop-color="#0981D1"/>
<stop offset="0.76" stop-color="#0079C1"/>
<stop offset="1" stop-color="#0079C1"/>
</radialGradient>
<linearGradient id="paint2_linear_4747_198965" x1="118.918" y1="128.548" x2="191.947" y2="128.548" gradientUnits="userSpaceOnUse">
<stop stop-color="#3AB6FF"/>
<stop offset="0.1297" stop-color="#3AB6FF"/>
<stop offset="0.5466" stop-color="#0079C1"/>
<stop offset="0.8476" stop-color="#0079C1"/>
<stop offset="1" stop-color="#0079C1"/>
</linearGradient>
<radialGradient id="paint3_radial_4747_198965" cx="0" cy="0" r="1" gradientUnits="userSpaceOnUse" gradientTransform="translate(105.969 73.7845) scale(163.089 163.089)">
<stop stop-color="#0AACF0"/>
<stop offset="0.0001" stop-color="#3AB6FF"/>
<stop offset="0.1396" stop-color="#3AB6FF"/>
<stop offset="0.265625" stop-color="#239DE9"/>
<stop offset="0.4033" stop-color="#0079C1"/>
<stop offset="0.76" stop-color="#0079C1"/>
<stop offset="1" stop-color="#0079C1"/>
</radialGradient>
<linearGradient id="paint4_linear_4747_198965" x1="118.921" y1="89.7708" x2="191.95" y2="89.7708" gradientUnits="userSpaceOnUse">
<stop stop-color="#63CDFF"/>
<stop offset="0.1297" stop-color="#63CDFF"/>
<stop offset="0.8476" stop-color="#0079C1"/>
<stop offset="0.911458" stop-color="#0079C1"/>
</linearGradient>
<radialGradient id="paint5_radial_4747_198965" cx="0" cy="0" r="1" gradientUnits="userSpaceOnUse" gradientTransform="translate(105.969 35.0075) scale(163.089 163.089)">
<stop offset="0.0001" stop-color="#3AB6FF"/>
<stop offset="0.1396" stop-color="#3AB6FF"/>
<stop offset="0.76" stop-color="#0079C1"/>
<stop offset="1" stop-color="#0079C1"/>
</radialGradient>
</defs>
</svg>
