<svg width="355" height="237" viewBox="0 0 355 237" fill="none" xmlns="http://www.w3.org/2000/svg">
<g clip-path="url(#clip0_4747_199093)">
<path d="M116.848 74.1306C112.263 74.1306 109.784 72.1476 108.297 70.2886C104.207 64.8353 105.694 55.2921 109.164 49.0952C111.271 45.501 114.989 40.6675 121.558 38.5605C139.033 33.4791 159.359 30.8764 180.056 31.0003C182.907 31.0003 185.634 31.1243 188.484 31.2482C197.904 32.1158 205.588 37.8169 207.942 45.8728C209.802 52.1937 207.819 58.3906 202.861 62.1087C197.532 66.1986 191.211 66.0747 188.484 66.0747C185.758 65.9508 182.907 65.8268 180.056 65.8268C159.359 65.7029 139.157 68.3056 121.682 73.387C119.823 73.8828 118.212 74.1306 116.848 74.1306ZM121.682 39.3041C115.361 41.2871 111.767 45.8728 109.784 49.467C106.438 55.54 104.95 64.7114 108.792 69.9168C111.271 73.2631 115.733 74.2546 121.434 72.8913C139.033 67.8098 159.235 65.2071 180.056 65.3311C182.907 65.3311 185.758 65.455 188.484 65.5789C191.087 65.5789 197.284 65.5789 202.365 61.7369C207.075 58.1427 208.81 52.1937 207.075 46.2447C204.968 38.3126 197.656 32.7354 188.484 31.9918C185.758 31.8679 182.907 31.7439 180.056 31.7439C159.359 31.62 139.281 34.2227 121.682 39.3041Z" fill="#0990D7"/>
<path d="M177.208 206.002C174.977 206.002 172.746 205.506 171.011 204.515L129.739 180.718C128.004 179.727 127.137 178.364 127.137 177C127.137 175.513 128.128 174.274 129.739 173.282L170.763 149.362C174.109 147.379 179.686 147.379 183.033 149.362L224.304 173.158C226.039 174.15 226.907 175.513 226.907 176.876C226.907 178.364 225.915 179.603 224.304 180.595L183.404 204.515C181.669 205.506 179.438 206.002 177.208 206.002ZM177.084 148.619C174.977 148.619 172.87 149.114 171.382 149.982L130.359 173.902C128.872 174.769 128.128 175.885 128.128 177C128.128 178.116 128.996 179.231 130.359 180.099L171.63 203.895C174.853 205.754 179.934 205.754 183.157 203.895L224.18 179.975C225.667 179.107 226.411 177.992 226.411 176.876C226.411 175.761 225.543 174.646 224.18 173.778L182.785 149.982C181.174 149.114 179.191 148.619 177.084 148.619Z" fill="#0990D7"/>
<path d="M226.907 163.86V144.03L201.871 147.376L183.157 136.594C179.811 134.734 174.605 134.734 171.259 136.594L168.284 138.453L127.633 143.906V163.984V164.108C127.633 165.347 128.5 166.462 130.112 167.454L171.383 191.25C174.729 193.109 179.935 193.109 183.281 191.25L224.304 167.33C226.039 166.463 226.907 165.223 226.907 163.86Z" fill="url(#paint0_linear_4747_199093)"/>
<path d="M224.429 140.56L183.158 116.64C179.811 114.781 174.606 114.781 171.26 116.64L130.236 140.56C126.89 142.419 126.89 145.518 130.236 147.377L171.508 171.173C174.854 173.032 180.059 173.032 183.406 171.173L224.429 147.253C227.775 145.518 227.775 142.419 224.429 140.56Z" fill="url(#paint1_radial_4747_199093)"/>
<path d="M224.43 146.14L183.406 170.06C180.06 171.919 174.855 171.919 171.508 170.06L130.237 146.264C128.874 145.52 128.006 144.404 127.882 143.413C127.634 144.9 128.378 146.388 130.237 147.503L171.508 171.299C174.855 173.158 180.06 173.158 183.406 171.299L224.43 147.379C226.289 146.264 227.156 144.776 226.784 143.289C226.661 144.405 225.917 145.396 224.43 146.14Z" fill="white"/>
<path d="M188.983 176.504L187 177.62V175.389L188.983 174.273V176.504Z" fill="white"/>
<path d="M193.073 174.149L191.09 175.264V173.033L193.073 171.918V174.149Z" fill="white"/>
<path d="M197.163 171.793L195.18 172.909V170.678L197.163 169.562V171.793Z" fill="white"/>
<path d="M193.819 178.363L191.836 179.478V177.247L193.819 176.008V178.363Z" fill="white"/>
<path d="M197.413 176.254L195.43 177.37V175.139L197.413 174.023V176.254Z" fill="white"/>
<path d="M210.299 164.235L208.316 165.35V163.119L210.299 162.004V164.235Z" fill="white"/>
<path d="M221.581 157.788L219.598 158.904V156.673L221.581 155.434V157.788Z" fill="white"/>
<path d="M201.253 169.438L199.27 170.553V168.322L201.253 167.207V169.438Z" fill="white"/>
<path opacity="0.4" d="M174.976 161.135L147.214 145.147C146.098 144.527 146.222 143.412 147.586 142.544L174.728 126.928C176.091 126.185 177.95 126.061 179.19 126.804L206.952 142.792C208.067 143.412 207.943 144.527 206.58 145.395L179.438 161.011C178.074 161.755 176.215 161.879 174.976 161.135Z" fill="#100447"/>
<path d="M164.068 178.487L141.14 165.226C140.644 164.854 140.148 164.11 140.148 163.367V161.632C140.148 160.888 140.644 160.516 141.14 160.888L164.068 174.149C164.564 174.521 165.06 175.265 165.06 176.008V177.744C165.06 178.487 164.688 178.859 164.068 178.487Z" fill="white"/>
<path d="M226.907 126.801V106.971L201.871 110.318L183.157 99.5349C179.811 97.6759 174.605 97.6759 171.259 99.5349L168.284 101.394L127.633 106.847V126.925V127.049C127.633 128.288 128.5 129.404 130.112 130.395L171.383 154.191C174.729 156.051 179.935 156.051 183.281 154.191L224.428 130.148C226.039 129.28 226.907 128.041 226.907 126.801Z" fill="url(#paint2_linear_4747_199093)"/>
<path d="M224.429 103.378L183.158 79.5818C179.811 77.7227 174.606 77.7227 171.26 79.5818L130.236 103.378C126.89 105.237 126.89 108.335 130.236 110.194L171.508 133.99C174.854 135.85 180.059 135.85 183.406 133.99L224.429 110.07C227.775 108.335 227.775 105.237 224.429 103.378Z" fill="url(#paint3_radial_4747_199093)"/>
<path opacity="0.4" d="M204.846 104.862L180.802 90.9811C178.943 89.8657 175.844 89.8657 173.861 90.9811L149.941 104.862C148.082 105.978 148.082 107.713 149.941 108.828L173.985 122.709C175.844 123.825 178.943 123.825 180.926 122.709L204.846 108.828C206.705 107.713 206.705 105.978 204.846 104.862Z" fill="#100447"/>
<path d="M224.43 109.08L183.406 132.876C180.06 134.735 174.855 134.735 171.508 132.876L130.237 109.08C128.874 108.336 128.006 107.221 127.882 106.229C127.634 107.717 128.378 109.204 130.237 110.319L171.508 134.115C174.855 135.974 180.06 135.974 183.406 134.115L224.43 110.195C226.289 109.08 227.156 107.593 226.784 106.105C226.661 107.221 225.917 108.212 224.43 109.08Z" fill="white"/>
<path d="M188.983 139.446L187 140.561V138.33L188.983 137.215V139.446Z" fill="white"/>
<path d="M193.073 137.089L191.09 138.205V135.974L193.073 134.734V137.089Z" fill="white"/>
<path d="M197.163 134.734L195.18 135.849V133.618L197.163 132.379V134.734Z" fill="white"/>
<path d="M193.819 141.18L191.836 142.296V140.065L193.819 138.949V141.18Z" fill="white"/>
<path d="M197.413 139.075L195.43 140.19V137.959L197.413 136.844V139.075Z" fill="white"/>
<path d="M210.299 127.175L208.316 128.291V125.936L210.299 124.82V127.175Z" fill="white"/>
<path d="M221.581 120.606L219.598 121.721V119.49L221.581 118.375V120.606Z" fill="white"/>
<path d="M201.253 132.382L199.27 133.498V131.267L201.253 130.027V132.382Z" fill="white"/>
<path d="M226.907 89.6215V69.7915L201.871 73.1378L183.157 62.3552C179.811 60.4962 174.605 60.4962 171.259 62.3552L168.284 64.2143L127.633 69.6676V89.7455V89.8694C127.633 91.1088 128.5 92.2242 130.112 93.2157L171.383 117.012C174.729 118.871 179.935 118.871 183.281 117.012L224.304 93.0918C226.039 92.1003 226.907 90.9848 226.907 89.6215Z" fill="url(#paint4_linear_4747_199093)"/>
<path d="M224.429 66.3221L183.158 42.4021C179.811 40.543 174.606 40.543 171.26 42.4021L130.236 66.3221C126.89 68.1811 126.89 71.2796 130.236 73.1387L171.508 96.9347C174.854 98.7938 180.059 98.7938 183.406 96.9347L224.429 73.1387C227.775 71.2796 227.775 68.1811 224.429 66.3221Z" fill="url(#paint5_radial_4747_199093)"/>
<path d="M224.429 66.3221L183.158 42.4021C179.811 40.543 174.606 40.543 171.26 42.4021L130.236 66.3221C126.89 68.1811 126.89 71.2796 130.236 73.1387L171.508 96.9347C174.854 98.7938 180.059 98.7938 183.406 96.9347L224.429 73.1387C227.775 71.2796 227.775 68.1811 224.429 66.3221Z" fill="url(#paint6_radial_4747_199093)"/>
<path d="M224.43 71.9013L183.406 95.8213C180.06 97.6804 174.855 97.6804 171.508 95.8213L130.237 72.0253C128.874 71.2817 128.006 70.1662 127.882 69.1747C127.634 70.662 128.378 72.1492 130.237 73.2647L171.508 97.0607C174.855 98.9198 180.06 98.9198 183.406 97.0607L224.43 73.1407C226.289 72.0253 227.156 70.538 226.784 69.0508C226.661 70.1662 225.917 71.1577 224.43 71.9013Z" fill="white"/>
<path d="M188.983 102.266L187 103.381V101.151L188.983 100.035V102.266Z" fill="white"/>
<path d="M193.073 99.9106L191.09 101.026V98.7951L193.073 97.6797V99.9106Z" fill="white"/>
<path d="M197.163 97.5551L195.18 98.6705V96.4397L197.163 95.3242V97.5551Z" fill="white"/>
<path d="M193.819 104.124L191.836 105.24V102.885L193.819 101.77V104.124Z" fill="white"/>
<path d="M197.413 102.016L195.43 103.131V100.901L197.413 99.7852V102.016Z" fill="white"/>
<path d="M210.299 89.9965L208.316 91.1119V88.8811L210.299 87.7656V89.9965Z" fill="white"/>
<path d="M221.581 83.5501L219.598 84.6656V82.3108L221.581 81.1953V83.5501Z" fill="white"/>
<path d="M201.253 95.1996L199.27 96.3151V94.0842L201.253 92.9688V95.1996Z" fill="white"/>
<path opacity="0.6" d="M184.518 144.654C181.791 144.778 179.065 144.778 176.338 144.778C154.773 144.654 134.819 141.431 118.211 136.226C101.604 131.764 100.612 149.24 106.437 159.898C110.527 167.582 116.104 169.689 118.211 170.433C134.819 175.638 154.773 178.737 176.338 178.985C179.065 178.985 181.791 178.985 184.518 178.861C204.1 177.373 209.181 158.659 200.01 149.859C197.531 147.504 192.698 144.654 184.518 144.654Z" fill="url(#paint7_linear_4747_199093)"/>
<g opacity="0.3">
<path d="M285.651 123.335L285.403 122.715C285.155 122.219 284.783 121.352 284.412 120.36C280.817 109.702 270.159 100.159 253.675 92.5983C242.273 86.1536 239.422 76.7343 238.802 73.0162C238.059 68.5544 238.926 62.3576 242.645 59.0112C245.371 56.6564 249.213 56.1607 253.923 57.6479C270.531 65.3321 281.313 75.1231 285.031 85.9057C285.775 89.0042 286.395 91.359 286.395 102.142V120.36C286.395 121.972 286.395 122.096 285.899 122.839L285.651 123.335ZM239.546 72.8923C240.166 76.4864 242.892 85.6578 254.047 91.9787C270.654 99.6628 281.437 109.454 285.031 120.236C285.279 120.856 285.403 121.352 285.651 121.848C285.651 121.6 285.651 121.228 285.651 120.484V102.142C285.651 91.4829 285.031 89.1281 284.288 86.1536C280.693 75.6189 270.035 65.9517 253.675 58.3915C249.337 57.0282 245.743 57.4 243.14 59.6309C239.67 62.7294 238.803 68.6784 239.546 72.8923Z" fill="#0990D7"/>
<path d="M70.7436 128.419H70V94.212C70 93.9641 70 93.5923 70 93.3444C70.2479 87.6433 72.3548 82.0661 76.4448 76.8607L76.5687 76.7368C77.3123 75.9931 78.4278 74.8777 79.5432 74.7538C81.0305 74.5059 82.2698 75.2495 83.3853 76.8607C86.7316 82.19 86.4837 97.6822 77.0644 111.563C71.6112 118.876 71.2394 123.089 70.7436 128.419ZM80.039 75.3734C79.915 75.3734 79.7911 75.3734 79.6671 75.3734C78.7996 75.4974 77.8081 76.4889 77.1884 77.1086L77.0644 77.2325C73.0984 82.314 70.9915 87.7672 70.8676 93.2205C70.8676 93.4683 70.8676 93.8402 70.8676 94.088V122.594C71.6112 119.247 72.9745 115.777 76.5687 110.944C85.7401 97.4343 86.1119 82.314 82.8895 77.1086C82.1459 76.241 81.2783 75.3734 80.039 75.3734Z" fill="#0990D7"/>
</g>
<path d="M78.5517 146.261C77.6841 146.261 76.4448 145.765 75.2054 144.03C70.7436 137.957 70.2479 132.008 70 128.414V94.207H70.7436C70.7436 99.4124 72.4788 104.494 75.7011 109.327C83.0135 121.349 83.881 133.371 83.2613 138.453C82.7656 142.667 81.1544 145.641 79.1714 146.137C78.9235 146.261 78.7996 146.261 78.5517 146.261ZM70.7436 100.156V128.414C70.9915 131.884 71.3633 137.709 75.7011 143.534C76.4448 144.526 77.6841 145.765 78.9235 145.393C80.6586 144.898 82.022 142.171 82.5177 138.329C83.1374 133.247 82.2698 121.597 75.0814 109.699C72.9745 106.601 71.4873 103.378 70.7436 100.156Z" fill="#0990D7"/>
<path d="M178.198 179.352C177.579 179.352 176.959 179.352 176.339 179.352C155.518 179.228 135.316 176.254 118.089 170.8C115.982 169.933 110.28 167.826 106.067 160.142C102.596 153.697 101.233 144.03 105.447 138.7C107.306 136.346 111.024 133.991 118.336 135.974C135.564 141.427 155.518 144.278 176.339 144.526C179.066 144.526 181.793 144.526 184.519 144.402C184.643 144.402 184.767 144.402 184.767 144.402C192.947 144.402 197.657 147.376 200.259 149.731C204.473 153.821 205.836 160.39 203.729 166.339C201.003 173.775 193.814 178.608 184.519 179.352C182.412 179.352 180.305 179.352 178.198 179.352ZM113.379 135.85C110.157 135.85 107.678 136.965 106.067 139.072C102.101 144.154 103.464 153.449 106.81 159.77C110.9 167.33 116.353 169.313 118.46 170.181C135.564 175.634 155.642 178.484 176.463 178.732C179.19 178.732 181.916 178.732 184.643 178.608C193.691 177.989 200.631 173.279 203.234 166.091C205.341 160.39 203.977 154.193 199.887 150.227C197.409 147.872 192.699 145.021 184.643 145.021C181.916 145.145 179.19 145.145 176.463 145.145C155.642 145.021 135.44 142.047 118.212 136.594C116.477 136.098 114.866 135.85 113.379 135.85Z" fill="#0990D7"/>
<path d="M246.24 166.836C242.894 166.836 240.167 165.597 238.184 163.242C234.466 158.657 234.342 150.353 237.936 143.536C242.026 135.852 248.347 132.506 250.702 131.142C267.805 123.83 279.084 114.411 283.545 103.876C284.041 102.885 284.413 102.017 284.785 101.521L284.909 101.397L285.776 101.273L285.9 101.521C286.148 102.389 286.272 102.761 286.396 106.851V117.385C286.272 132.258 285.404 134.984 284.289 138.455C279.703 149.237 268.301 158.781 251.074 166.093C249.339 166.589 247.727 166.836 246.24 166.836ZM285.404 102.265C285.033 102.761 284.785 103.38 284.289 104.248C279.703 114.907 268.301 124.45 251.074 131.886C248.719 133.125 242.522 136.348 238.556 143.908C235.086 150.477 235.086 158.409 238.68 162.747C240.539 164.977 244.133 167.332 250.826 165.349C267.805 158.037 279.208 148.618 283.669 138.083C284.785 134.737 285.652 132.01 285.652 117.261V106.727C285.652 103.628 285.652 102.761 285.404 102.265Z" fill="#0990D7"/>
</g>
<g clip-path="url(#clip1_4747_199093)">
<path d="M167.842 71.8032L161.565 67.9922C157.468 65.5047 157.468 61.4718 161.565 58.9843C165.662 56.4969 172.305 56.4969 176.402 58.9843L182.679 62.7953L184.961 61.4095L178.685 57.5985C173.327 54.3457 164.64 54.3457 159.283 57.5985C153.925 60.8514 153.925 66.1252 159.283 69.378L165.56 73.189L167.842 71.8032Z" fill="white" fill-opacity="0.9"/>
<path d="M165.56 70.415L163.277 71.8008L165.56 73.1866L167.842 71.8008L165.56 70.415Z" fill="#0DA3FC"/>
<path d="M182.681 60.0204L180.398 61.4062L182.681 62.7921L184.963 61.4062L182.681 60.0204Z" fill="#0DA3FC"/>
<path d="M165.56 74.5733L176.687 81.3293C178.017 82.1363 180 82.4165 181.761 82.017C185.24 81.2276 188.994 79.7468 192.38 77.6914C195.765 75.636 198.204 73.3563 199.504 71.2442C200.162 70.1752 199.701 68.9709 198.372 68.164L187.244 61.408C185.984 60.6426 183.94 60.6426 182.679 61.408L165.56 71.8017C164.299 72.567 164.299 73.8079 165.56 74.5733Z" fill="#0DA3FC"/>
<path d="M183.82 69.7236C182.381 68.8499 179.921 68.9735 178.771 70.0947C178.15 70.7 178.143 71.4953 178.753 72.105C179.49 72.8419 180.775 73.1471 181.985 73.0424C182.223 73.0218 182.465 73.0581 182.635 73.1615L184.33 74.1905C184.898 74.5356 185.814 74.6198 186.466 74.3344C187.298 73.9709 187.367 73.2625 186.673 72.8417L184.906 71.7687C184.743 71.6697 184.685 71.5289 184.719 71.3904C184.863 70.7996 184.569 70.1784 183.82 69.7236Z" fill="white"/>
<path d="M185.133 79.9696C183.754 80.1372 182.011 79.711 180.682 78.9041L169.554 72.1481C168.294 71.3828 167.971 70.3378 168.834 69.8141L165.56 71.8017C164.299 72.567 164.299 73.808 165.56 74.5733L176.687 81.3293C178.017 82.1363 180 82.4165 181.761 82.0169C185.24 81.2276 188.994 79.7468 192.38 77.6914C192.494 77.622 192.598 77.5505 192.71 77.4807C190.443 78.8056 187.765 79.6495 185.133 79.9696Z" fill="#0DA3FC"/>
</g>
<defs>
<linearGradient id="paint0_linear_4747_199093" x1="121.823" y1="163.909" x2="191.745" y2="163.909" gradientUnits="userSpaceOnUse">
<stop stop-color="#0AACF0"/>
<stop offset="0.1297" stop-color="#0999E2"/>
<stop offset="0.5466" stop-color="#0079C1"/>
<stop offset="0.8476" stop-color="#0079C1"/>
<stop offset="1" stop-color="#0079C1"/>
</linearGradient>
<radialGradient id="paint1_radial_4747_199093" cx="0" cy="0" r="1" gradientUnits="userSpaceOnUse" gradientTransform="translate(109.426 111.479) scale(156.148 156.148)">
<stop stop-color="#0AACF0"/>
<stop offset="0.1396" stop-color="#0AA1E8"/>
<stop offset="0.4033" stop-color="#0981D1"/>
<stop offset="0.76" stop-color="#0079C1"/>
<stop offset="1" stop-color="#0079C1"/>
</radialGradient>
<linearGradient id="paint2_linear_4747_199093" x1="121.823" y1="126.781" x2="191.745" y2="126.781" gradientUnits="userSpaceOnUse">
<stop stop-color="#0AACF0"/>
<stop offset="0.1297" stop-color="#0999E2"/>
<stop offset="0.5466" stop-color="#0079C1"/>
<stop offset="0.8476" stop-color="#0079C1"/>
<stop offset="1" stop-color="#0079C1"/>
</linearGradient>
<radialGradient id="paint3_radial_4747_199093" cx="0" cy="0" r="1" gradientUnits="userSpaceOnUse" gradientTransform="translate(109.426 74.3501) scale(156.148 156.148)">
<stop stop-color="#0AACF0"/>
<stop offset="0.1396" stop-color="#0AA1E8"/>
<stop offset="0.4033" stop-color="#0981D1"/>
<stop offset="0.76" stop-color="#0079C1"/>
<stop offset="1" stop-color="#0079C1"/>
</radialGradient>
<linearGradient id="paint4_linear_4747_199093" x1="121.823" y1="89.6546" x2="191.745" y2="89.6546" gradientUnits="userSpaceOnUse">
<stop stop-color="#0AACF0"/>
<stop offset="0.1297" stop-color="#0999E2"/>
<stop offset="0.5466" stop-color="#0079C1"/>
<stop offset="0.8476" stop-color="#0079C1"/>
<stop offset="1" stop-color="#0079C1"/>
</linearGradient>
<radialGradient id="paint5_radial_4747_199093" cx="0" cy="0" r="1" gradientUnits="userSpaceOnUse" gradientTransform="translate(109.426 37.2242) scale(156.148 156.148)">
<stop stop-color="#0AACF0"/>
<stop offset="0.1396" stop-color="#0AA1E8"/>
<stop offset="0.4033" stop-color="#0981D1"/>
<stop offset="0.71875" stop-color="#0079C1"/>
<stop offset="1" stop-color="#0079C1"/>
</radialGradient>
<radialGradient id="paint6_radial_4747_199093" cx="0" cy="0" r="1" gradientUnits="userSpaceOnUse" gradientTransform="translate(109.289 37.2634) scale(156.34 155.852)">
<stop stop-color="#0AACF0"/>
<stop offset="0.1396" stop-color="#0AA1E8"/>
<stop offset="0.4033" stop-color="#0981D1"/>
<stop offset="0.76" stop-color="#0079C1"/>
<stop offset="1" stop-color="#0079C1"/>
</radialGradient>
<linearGradient id="paint7_linear_4747_199093" x1="209.249" y1="164.423" x2="114.613" y2="156.149" gradientUnits="userSpaceOnUse">
<stop stop-color="#0079C1"/>
<stop offset="1" stop-color="#2A4FA9" stop-opacity="0"/>
</linearGradient>
<clipPath id="clip0_4747_199093">
<rect width="216.519" height="175" fill="white" transform="translate(70 31)"/>
</clipPath>
<clipPath id="clip1_4747_199093">
<rect width="38.7194" height="38.7194" fill="white" transform="matrix(0.854789 -0.518975 0.854789 0.518975 142.734 67.6445)"/>
</clipPath>
</defs>
</svg>
