<svg width="40" height="40" viewBox="0 0 40 40" fill="none" xmlns="http://www.w3.org/2000/svg">
<path d="M6.66797 13.3346V10.0013C6.66797 9.11725 7.01916 8.2694 7.64428 7.64428C8.2694 7.01916 9.11725 6.66797 10.0013 6.66797H13.3346M6.66797 26.668V30.0013C6.66797 30.8854 7.01916 31.7332 7.64428 32.3583C8.2694 32.9834 9.11725 33.3346 10.0013 33.3346H13.3346M26.668 6.66797H30.0013C30.8854 6.66797 31.7332 7.01916 32.3583 7.64428C32.9834 8.2694 33.3346 9.11725 33.3346 10.0013V13.3346M26.668 33.3346H30.0013C30.8854 33.3346 31.7332 32.9834 32.3583 32.3583C32.9834 31.7332 33.3346 30.8854 33.3346 30.0013V26.668M16.668 18.3346V15.0013C16.668 14.1172 17.0192 13.2694 17.6443 12.6443C18.2694 12.0192 19.1172 11.668 20.0013 11.668C20.8854 11.668 21.7332 12.0192 22.3583 12.6443C22.9834 13.2694 23.3346 14.1172 23.3346 15.0013V18.3346M15.0013 18.3346H25.0013C25.9218 18.3346 26.668 19.0808 26.668 20.0013V25.0013C26.668 25.9218 25.9218 26.668 25.0013 26.668H15.0013C14.0808 26.668 13.3346 25.9218 13.3346 25.0013V20.0013C13.3346 19.0808 14.0808 18.3346 15.0013 18.3346Z" stroke="#0079C1" stroke-width="1.5" stroke-linecap="round" stroke-linejoin="round"/>
</svg>
