<svg width="40" height="40" viewBox="0 0 40 40" fill="none" xmlns="http://www.w3.org/2000/svg">
<path d="M6.66797 13.3346V10.0013C6.66797 9.11725 7.01916 8.2694 7.64428 7.64428C8.2694 7.01916 9.11725 6.66797 10.0013 6.66797H13.3346M6.66797 26.668V30.0013C6.66797 30.8854 7.01916 31.7332 7.64428 32.3583C8.2694 32.9834 9.11725 33.3346 10.0013 33.3346H13.3346M26.668 6.66797H30.0013C30.8854 6.66797 31.7332 7.01916 32.3583 7.64428C32.9834 8.2694 33.3346 9.11725 33.3346 10.0013V13.3346M26.668 33.3346H30.0013C30.8854 33.3346 31.7332 32.9834 32.3583 32.3583C32.9834 31.7332 33.3346 30.8854 33.3346 30.0013V26.668M15.8346 25.0013C16.3778 25.5556 17.026 25.996 17.7415 26.2967C18.457 26.5973 19.2252 26.7522 20.0013 26.7522C20.7774 26.7522 21.5456 26.5973 22.2611 26.2967C22.9766 25.996 23.6248 25.5556 24.168 25.0013M15.4013 17.2013C15.4013 17.864 14.864 18.4013 14.2013 18.4013C13.5386 18.4013 13.0013 17.864 13.0013 17.2013C13.0013 16.5386 13.5386 16.0013 14.2013 16.0013C14.864 16.0013 15.4013 16.5386 15.4013 17.2013ZM27.0014 17.2013C27.0014 17.864 26.4642 18.4013 25.8014 18.4013C25.1387 18.4013 24.6014 17.864 24.6014 17.2013C24.6014 16.5385 25.1387 16.0013 25.8014 16.0013C26.4642 16.0013 27.0014 16.5385 27.0014 17.2013Z" stroke="#0079C1" stroke-width="1.5" stroke-linecap="round"/>
</svg>
