<svg width="72" height="72" viewBox="0 0 72 72" fill="none" xmlns="http://www.w3.org/2000/svg">
<path d="M36 9C43.0075 15.1997 52.1534 18.4277 61.5 18C62.8608 22.629 63.2771 27.4844 62.7244 32.2775C62.1716 37.0707 60.661 41.7038 58.2822 45.9016C55.9035 50.0994 52.7052 53.7761 48.8774 56.7134C45.0496 59.6507 40.6704 61.7886 36 63C31.3296 61.7886 26.9504 59.6507 23.1226 56.7134C19.2948 53.7761 16.0965 50.0994 13.7178 45.9016C11.339 41.7038 9.82839 37.0707 9.27562 32.2775C8.72284 27.4844 9.13921 22.629 10.5 18C19.8466 18.4277 28.9925 15.1997 36 9Z" stroke="#0079C1" stroke-width="1.5" stroke-linecap="round" stroke-linejoin="round"/>
</svg>
