<svg width="72" height="72" viewBox="0 0 72 72" fill="none" xmlns="http://www.w3.org/2000/svg">
<path d="M42 45V51C42 51.7956 41.6839 52.5587 41.1213 53.1213C40.5587 53.6839 39.7956 54 39 54H18L9 63V33C9 32.2043 9.31607 31.4413 9.87868 30.8787C10.4413 30.3161 11.2044 30 12 30H18M63 42L54 33H33C32.2043 33 31.4413 32.6839 30.8787 32.1213C30.3161 31.5587 30 30.7956 30 30V12C30 11.2044 30.3161 10.4413 30.8787 9.87868C31.4413 9.31607 32.2043 9 33 9H60C60.7956 9 61.5587 9.31607 62.1213 9.87868C62.6839 10.4413 63 11.2044 63 12V42Z" stroke="#0079C1" stroke-width="1.5" stroke-linecap="round" stroke-linejoin="round"/>
</svg>
