<svg width="483" height="388" viewBox="0 0 483 388" fill="none" xmlns="http://www.w3.org/2000/svg">
<g opacity="0.4">
<circle cx="280.5" cy="194.5" r="280" fill="url(#paint0_radial_8306_252077)"/>
<circle cx="280.5" cy="194.5" r="280" fill="url(#paint1_linear_8306_252077)" fill-opacity="0.05"/>
<circle cx="280.5" cy="194.5" r="280" stroke="url(#paint2_linear_8306_252077)"/>
</g>
<ellipse cx="280" cy="194.5" rx="177" ry="176.5" fill="url(#paint3_radial_8306_252077)"/>
<ellipse cx="280" cy="194.5" rx="177" ry="176.5" fill="url(#paint4_linear_8306_252077)" fill-opacity="0.05"/>
<path d="M275.294 96.2321C277.135 92.6091 278.055 90.7976 279.295 90.2132C280.375 89.7046 281.625 89.7046 282.705 90.2132C283.945 90.7976 284.865 92.6091 286.706 96.2321L312.198 146.414C312.739 147.479 313.01 148.011 313.399 148.427C313.744 148.794 314.155 149.094 314.61 149.309C315.125 149.552 315.715 149.646 316.895 149.835L372.327 158.691C376.311 159.328 378.303 159.646 379.239 160.643C380.053 161.51 380.439 162.695 380.292 163.875C380.123 165.231 378.701 166.662 375.856 169.523L336.156 209.457C335.318 210.3 334.899 210.721 334.627 211.218C334.386 211.658 334.23 212.14 334.167 212.638C334.096 213.2 334.188 213.787 334.372 214.962L343.121 270.681C343.749 274.684 344.064 276.686 343.402 277.885C342.827 278.929 341.815 279.662 340.644 279.884C339.299 280.139 337.494 279.217 333.886 277.372L283.912 251.833C282.846 251.288 282.312 251.016 281.751 250.908C281.255 250.813 280.745 250.813 280.249 250.908C279.688 251.016 279.154 251.288 278.088 251.833L228.114 277.372C224.506 279.217 222.701 280.139 221.356 279.884C220.185 279.662 219.173 278.929 218.598 277.885C217.936 276.686 218.251 274.684 218.879 270.681L227.628 214.962C227.812 213.787 227.904 213.2 227.833 212.638C227.77 212.14 227.614 211.658 227.373 211.218C227.101 210.721 226.682 210.3 225.844 209.457L186.144 169.523C183.299 166.662 181.877 165.231 181.708 163.875C181.561 162.695 181.947 161.51 182.761 160.643C183.697 159.646 185.689 159.328 189.673 158.691L245.105 149.835C246.285 149.646 246.875 149.552 247.39 149.309C247.845 149.094 248.256 148.794 248.601 148.427C248.99 148.011 249.261 147.479 249.802 146.414L275.294 96.2321Z" fill="url(#paint5_linear_8306_252077)"/>
<path d="M275.294 96.2321C277.135 92.6091 278.055 90.7976 279.295 90.2132C280.375 89.7046 281.625 89.7046 282.705 90.2132C283.945 90.7976 284.865 92.6091 286.706 96.2321L312.198 146.414C312.739 147.479 313.01 148.011 313.399 148.427C313.744 148.794 314.155 149.094 314.61 149.309C315.125 149.552 315.715 149.646 316.895 149.835L372.327 158.691C376.311 159.328 378.303 159.646 379.239 160.643C380.053 161.51 380.439 162.695 380.292 163.875C380.123 165.231 378.701 166.662 375.856 169.523L336.156 209.457C335.318 210.3 334.899 210.721 334.627 211.218C334.386 211.658 334.23 212.14 334.167 212.638C334.096 213.2 334.188 213.787 334.372 214.962L343.121 270.681C343.749 274.684 344.064 276.686 343.402 277.885C342.827 278.929 341.815 279.662 340.644 279.884C339.299 280.139 337.494 279.217 333.886 277.372L283.912 251.833C282.846 251.288 282.312 251.016 281.751 250.908C281.255 250.813 280.745 250.813 280.249 250.908C279.688 251.016 279.154 251.288 278.088 251.833L228.114 277.372C224.506 279.217 222.701 280.139 221.356 279.884C220.185 279.662 219.173 278.929 218.598 277.885C217.936 276.686 218.251 274.684 218.879 270.681L227.628 214.962C227.812 213.787 227.904 213.2 227.833 212.638C227.77 212.14 227.614 211.658 227.373 211.218C227.101 210.721 226.682 210.3 225.844 209.457L186.144 169.523C183.299 166.662 181.877 165.231 181.708 163.875C181.561 162.695 181.947 161.51 182.761 160.643C183.697 159.646 185.689 159.328 189.673 158.691L245.105 149.835C246.285 149.646 246.875 149.552 247.39 149.309C247.845 149.094 248.256 148.794 248.601 148.427C248.99 148.011 249.261 147.479 249.802 146.414L275.294 96.2321Z" fill="url(#paint6_linear_8306_252077)" fill-opacity="0.05"/>
<path d="M275.74 96.4586C276.665 94.6382 277.343 93.3041 277.943 92.3493C278.547 91.3885 279.023 90.894 279.508 90.6656L279.295 90.2132L279.508 90.6656C280.453 90.2205 281.547 90.2205 282.492 90.6656L282.705 90.2132L282.492 90.6656C282.977 90.894 283.453 91.3885 284.057 92.3493C284.657 93.3041 285.335 94.6382 286.26 96.4586L311.753 146.64L311.791 146.715C312.295 147.708 312.596 148.301 313.034 148.768C313.422 149.182 313.884 149.519 314.397 149.761C314.977 150.035 315.632 150.14 316.732 150.315L316.816 150.329L372.248 159.185C374.25 159.505 375.717 159.74 376.803 160.017C377.895 160.295 378.508 160.595 378.874 160.985C379.587 161.744 379.925 162.78 379.796 163.813C379.73 164.344 379.411 164.948 378.692 165.816C377.978 166.679 376.931 167.733 375.502 169.171L335.802 209.104L335.742 209.164C334.961 209.95 334.495 210.418 334.188 210.978C333.917 211.473 333.742 212.015 333.671 212.575C333.591 213.208 333.693 213.861 333.865 214.956L333.878 215.039L342.627 270.758C342.943 272.77 343.174 274.244 343.246 275.367C343.319 276.496 343.223 277.175 342.964 277.644C342.461 278.557 341.576 279.198 340.551 279.392C340.025 279.492 339.35 279.372 338.3 278.951C337.256 278.532 335.926 277.854 334.113 276.927L284.14 251.388L284.064 251.349C283.07 250.841 282.477 250.538 281.845 250.417C281.287 250.31 280.713 250.31 280.155 250.417C279.523 250.538 278.93 250.841 277.936 251.349L277.86 251.388L227.887 276.927C226.074 277.854 224.744 278.532 223.7 278.951C222.65 279.372 221.975 279.492 221.449 279.392C220.424 279.198 219.539 278.557 219.036 277.644C218.777 277.175 218.681 276.496 218.754 275.367C218.826 274.244 219.057 272.77 219.373 270.758L228.122 215.039L228.135 214.956C228.307 213.861 228.409 213.208 228.329 212.575C228.258 212.015 228.083 211.473 227.812 210.978C227.505 210.418 227.039 209.95 226.258 209.164L226.198 209.104L186.498 169.171C185.069 167.733 184.022 166.679 183.308 165.816C182.589 164.948 182.27 164.344 182.204 163.813C182.075 162.78 182.413 161.744 183.126 160.985C183.492 160.595 184.105 160.295 185.197 160.017C186.283 159.74 187.75 159.505 189.752 159.185L245.184 150.329L245.268 150.315C246.368 150.14 247.023 150.035 247.603 149.761C248.116 149.519 248.578 149.182 248.966 148.768C249.404 148.301 249.705 147.709 250.209 146.716L250.247 146.64L275.74 96.4586Z" stroke="white" stroke-opacity="0.05"/>
<defs>
<radialGradient id="paint0_radial_8306_252077" cx="0" cy="0" r="1" gradientUnits="userSpaceOnUse" gradientTransform="translate(281 195) rotate(-159.54) scale(313.261 437.043)">
<stop stop-color="#45B0EF" stop-opacity="0.6"/>
<stop offset="0.989583" stop-color="white" stop-opacity="0.47"/>
</radialGradient>
<linearGradient id="paint1_linear_8306_252077" x1="203.43" y1="-84.9025" x2="105.5" y2="-47.3825" gradientUnits="userSpaceOnUse">
<stop stop-color="white"/>
<stop offset="1" stop-color="white" stop-opacity="0"/>
</linearGradient>
<linearGradient id="paint2_linear_8306_252077" x1="28.5" y1="37" x2="173" y2="210" gradientUnits="userSpaceOnUse">
<stop stop-color="white" stop-opacity="0.91"/>
<stop offset="1" stop-color="white" stop-opacity="0"/>
</linearGradient>
<radialGradient id="paint3_radial_8306_252077" cx="0" cy="0" r="1" gradientUnits="userSpaceOnUse" gradientTransform="translate(280 195) rotate(90) scale(237.5 255.547)">
<stop offset="0.526042" stop-color="#45B0EF" stop-opacity="0.6"/>
<stop offset="1" stop-color="white" stop-opacity="0.6"/>
</radialGradient>
<linearGradient id="paint4_linear_8306_252077" x1="231.368" y1="18.6906" x2="169.617" y2="42.4162" gradientUnits="userSpaceOnUse">
<stop stop-color="white"/>
<stop offset="1" stop-color="white" stop-opacity="0"/>
</linearGradient>
<linearGradient id="paint5_linear_8306_252077" x1="206.351" y1="85.4286" x2="400.943" y2="144.765" gradientUnits="userSpaceOnUse">
<stop stop-color="white" stop-opacity="0.6"/>
<stop offset="1" stop-color="#45B0EF" stop-opacity="0.6"/>
</linearGradient>
<linearGradient id="paint6_linear_8306_252077" x1="251.051" y1="85.4284" x2="212.952" y2="99.9588" gradientUnits="userSpaceOnUse">
<stop stop-color="white"/>
<stop offset="1" stop-color="white" stop-opacity="0"/>
</linearGradient>
</defs>
</svg>
