<svg width="40" height="40" viewBox="0 0 40 40" fill="none" xmlns="http://www.w3.org/2000/svg">
<path d="M8.33333 26.6667C6.49238 26.6667 5 28.1591 5 30C5 31.8409 6.49238 33.3333 8.33333 33.3333C10.1743 33.3333 11.6667 31.8409 11.6667 30C11.6667 28.1591 10.1743 26.6667 8.33333 26.6667ZM8.33333 26.6667V18.3333C8.33333 16.1232 9.21131 14.0036 10.7741 12.4408C12.3369 10.878 14.4565 10 16.6667 10H21.6667M31.6667 13.3333C33.5076 13.3333 35 11.8409 35 10C35 8.15905 33.5076 6.66667 31.6667 6.66667C29.8257 6.66667 28.3333 8.15905 28.3333 10C28.3333 11.8409 29.8257 13.3333 31.6667 13.3333ZM31.6667 13.3333V21.6667C31.6667 23.8768 30.7887 25.9964 29.2259 27.5592C27.6631 29.122 25.5435 30 23.3333 30H18.3333M18.3333 30L23.3333 25M18.3333 30L23.3333 35M21.6667 10L16.6667 5M21.6667 10L16.6667 15" stroke="#0079C1" stroke-width="1.5" stroke-linecap="round" stroke-linejoin="round"/>
</svg>
