<svg width="26" height="31" viewBox="0 0 26 31" fill="none" xmlns="http://www.w3.org/2000/svg">
<g filter="url(#filter0_b_8166_202681)">
<path fill-rule="evenodd" clip-rule="evenodd" d="M6.52564 0.0078125C5.31751 0.0078125 4.33814 0.98719 4.33814 2.19531V10.9892H2.80176C1.59363 10.9892 0.614258 11.9685 0.614258 13.1767C0.614258 14.3848 1.59363 15.3642 2.80176 15.3642H4.33814V18.3047H2.80176C1.59363 18.3047 0.614258 19.2841 0.614258 20.4922C0.614258 21.7003 1.59363 22.6797 2.80176 22.6797H4.33814V27.8185C4.33814 29.0266 5.31751 30.006 6.52564 30.006C7.73376 30.006 8.71314 29.0266 8.71314 27.8185V22.6797H17.6973C18.9054 22.6797 19.8848 21.7003 19.8848 20.4922C19.8848 19.2841 18.9054 18.3047 17.6973 18.3047H8.71314V15.3642H17.6973C19.7469 15.3642 21.7199 14.5642 23.1805 13.1285C24.6423 11.6916 25.4706 9.73461 25.4706 7.68599C25.4706 5.63737 24.6423 3.6804 23.1805 2.24347C21.7199 0.807792 19.7469 0.0078125 17.6973 0.0078125H6.52564ZM17.6973 10.9892H8.71314V4.38281H17.6973C18.6106 4.38281 19.4791 4.73979 20.1136 5.36352C20.7469 5.98599 21.0956 6.82218 21.0956 7.68599C21.0956 8.5498 20.7469 9.38599 20.1136 10.0085C19.4791 10.6322 18.6106 10.9892 17.6973 10.9892Z" fill="#D5E8F1" fill-opacity="0.7"/>
</g>
<defs>
<filter id="filter0_b_8166_202681" x="-7.38574" y="-7.99219" width="40.8564" height="46" filterUnits="userSpaceOnUse" color-interpolation-filters="sRGB">
<feFlood flood-opacity="0" result="BackgroundImageFix"/>
<feGaussianBlur in="BackgroundImageFix" stdDeviation="4"/>
<feComposite in2="SourceAlpha" operator="in" result="effect1_backgroundBlur_8166_202681"/>
<feBlend mode="normal" in="SourceGraphic" in2="effect1_backgroundBlur_8166_202681" result="shape"/>
</filter>
</defs>
</svg>
