<svg width="30" height="50" viewBox="0 0 30 50" fill="none" xmlns="http://www.w3.org/2000/svg">
<path d="M28.333 1V3.66667M28.333 3.66667C28.3063 12.6053 23.853 19.728 14.9784 25.0373C6.10368 30.344 23.8744 19.6907 14.9997 25C6.12502 30.3067 1.67435 37.432 1.64502 46.3707V49.0373M28.333 3.66667H1.6665M28.333 49.0373V46.3707C28.3063 37.432 23.853 30.3093 14.9784 25C6.10368 19.6933 23.8744 30.3467 14.9997 25.0373C6.12502 19.728 1.67435 12.6053 1.64502 3.66667V1M1.6665 46.3333H28.3332M4.33317 14.3333H25.6665M4.33317 35.6667H25.6665" stroke="#0079C1" stroke-width="1.5" stroke-linecap="round" stroke-linejoin="round"/>
</svg>
