<svg width="45" height="46" viewBox="0 0 45 46" fill="none" xmlns="http://www.w3.org/2000/svg">
<path d="M1.33398 12.3346V7.0013C1.33398 5.58681 1.89589 4.23026 2.89608 3.23007C3.89628 2.22987 5.25283 1.66797 6.66732 1.66797H12.0007M1.33398 33.668V39.0013C1.33398 40.4158 1.89589 41.7723 2.89608 42.7725C3.89628 43.7727 5.25283 44.3346 6.66732 44.3346H12.0007M33.334 1.66797H38.6673C40.0818 1.66797 41.4384 2.22987 42.4386 3.23007C43.4387 4.23026 44.0006 5.58681 44.0006 7.0013V12.3346M33.334 44.3346H38.6673C40.0818 44.3346 41.4384 43.7727 42.4386 42.7725C43.4387 41.7723 44.0006 40.4158 44.0006 39.0013V33.668M22.6673 23.0013H22.6406M9.33398 23.0013C18.222 10.556 27.1126 10.556 36.0006 23.0013C27.1126 35.4466 18.222 35.4466 9.33398 23.0013Z" stroke="#0079C1" stroke-width="1.5" stroke-linecap="round" stroke-linejoin="round"/>
</svg>
