<svg width="72" height="72" viewBox="0 0 72 72" fill="none" xmlns="http://www.w3.org/2000/svg">
<path d="M42 9V21C42 21.7956 42.3161 22.5587 42.8787 23.1213C43.4413 23.6839 44.2044 24 45 24H57M42 9H21C19.4087 9 17.8826 9.63214 16.7574 10.7574C15.6321 11.8826 15 13.4087 15 15V57C15 58.5913 15.6321 60.1174 16.7574 61.2426C17.8826 62.3679 19.4087 63 21 63H51C52.5913 63 54.1174 62.3679 55.2426 61.2426C56.3679 60.1174 57 58.5913 57 57L57 24M42 9L57 24M27 27H30M27 38.9988H45M27 51.0012H45" stroke="#0079C1" stroke-width="1.5" stroke-linecap="round" stroke-linejoin="round"/>
</svg>
