<svg width="345" height="107" viewBox="0 0 345 107" fill="none" xmlns="http://www.w3.org/2000/svg">
<g clip-path="url(#clip0_6290_201418)">
<path d="M30.6918 44.7852H36.5752L47.7356 84.547H42.8833L39.6686 73.1692H27.1739L24.2625 84.547H19.4102L30.6918 44.7852ZM33.6032 47.9927H33.4819L28.205 69.1749H38.6981L33.6032 47.9927Z" fill="#0079C0"/>
<path d="M55.6191 71.9604C55.6191 77.8309 57.2568 81.5226 63.1402 81.5226C67.6286 81.5226 70.722 79.586 70.722 74.8654C70.722 69.7212 68.2958 68.4502 64.232 66.9372L58.3486 64.7585C54.7093 63.3665 51.9193 60.6431 51.9193 54.2885C51.9193 47.9338 56.2863 44 62.7763 44C69.6909 44 73.8153 47.9338 74.1186 55.1963H69.7515C69.7515 50.8388 67.568 47.9338 63.1402 47.9338C58.2273 47.9338 56.529 50.8993 56.529 54.2279C56.529 57.8592 57.4994 59.4932 60.0469 60.401L66.4156 62.7613C72.7236 65.1216 75.3317 68.8739 75.3317 74.1391C75.3317 81.6437 70.6613 85.3959 63.0189 85.3959C55.3765 85.3959 51.1914 80.4333 51.1914 71.8999L55.6191 71.9604Z" fill="#0079C0"/>
<path d="M92.4968 84.547H88.0691V48.7795H77.6973V44.7852H102.747V48.7795H92.4362L92.4968 84.547Z" fill="#0079C0"/>
<path d="M112.148 84.547H107.721V44.7852H119.852C126.827 44.7852 131.436 48.1743 131.436 55.6183C131.436 60.1573 128.828 64.1517 124.219 64.7569V64.8779C128.404 65.3621 131.012 68.9933 131.012 73.8955C131.012 82.1867 131.74 82.4893 132.346 83.6998V84.6076H127.858C126.948 82.0052 126.584 79.7054 126.584 75.4085C126.584 70.1432 124.279 67.1172 119.306 67.1172H112.148V84.547ZM112.148 63.0623H119.852C122.945 63.0623 126.827 61.6098 126.827 55.7999C126.827 50.0504 123.551 48.7795 119.67 48.7795H112.148V63.0623Z" fill="#0079C0"/>
<path d="M148.36 44.7852H154.243L165.404 84.547H160.551L157.397 73.1692H144.842L141.93 84.6076H137.078L148.36 44.7852ZM151.211 47.9927H151.089L145.812 69.1749H156.305L151.211 47.9927Z" fill="#0079C0"/>
<path d="M190.635 80.6132H206.89V84.6076H186.207V44.7852H190.635V80.6132Z" fill="#0079C0"/>
<path d="M216.717 84.547H212.289V44.7852H216.717V84.547Z" fill="#0079C0"/>
<path d="M232.001 44.7852L243.283 77.3451C243.768 78.7371 244.192 79.887 244.678 81.7026H244.86C244.799 80.2501 244.678 78.7371 244.678 77.2846V44.7852H249.105V84.547H241.827L230.727 52.7133C230.06 50.7767 229.514 48.7795 229.211 46.7823H229.09C229.15 48.7795 229.211 50.8372 229.211 52.8344V84.547H224.783V44.7852H232.001Z" fill="#0079C0"/>
<path d="M261.662 44.7852V73.4113C261.662 76.4978 262.087 81.521 269.183 81.521C276.28 81.521 276.704 76.4978 276.704 73.4113V44.7852H281.132V74.9848C281.132 82.0657 276.401 85.4548 269.183 85.4548C261.965 85.4548 257.234 82.0657 257.234 74.9848V44.7852H261.662Z" fill="#0079C0"/>
<path d="M291.988 44.7852L300.358 60.2784L308.667 44.7852H313.58L302.966 64.1517L313.884 84.6076H308.849L300.358 67.9645L291.745 84.6076H286.832L297.81 64.1517L287.075 44.7852H291.988Z" fill="#0079C0"/>
<path d="M325.348 20.8808H188.27C187.057 20.8808 186.026 21.8492 186.026 23.1201C186.026 24.3305 186.996 25.3593 188.27 25.3593H325.348C333.718 25.3593 340.572 32.1376 340.572 40.5499V87.3927C340.572 95.7445 333.779 102.583 325.348 102.583H233.154H19.6519C11.2816 102.583 4.42774 95.805 4.4884 87.3927V40.4894C4.4884 32.1376 11.2816 25.3593 19.6519 25.2988H156.851C158.064 25.2988 159.095 24.3305 159.095 23.0596C159.095 21.8492 158.125 20.8203 156.851 20.8203H19.6519C8.79483 20.8808 0 29.6563 0 40.4894V87.3322C0 98.1653 8.79483 106.941 19.6519 106.941H233.154H325.348C336.205 106.941 345 98.1653 345 87.3322V40.4894C345 29.6563 336.205 20.8808 325.348 20.8808Z" fill="#0079C0"/>
<path d="M189.786 13.7381L178.079 11.741L173.652 2.36029L172.499 0L166.919 11.6804L155.213 13.6776L163.583 22.7557L161.703 35.586L172.499 29.655L183.296 35.586L181.355 22.7557L188.148 15.3722L189.786 13.7381ZM179.899 22.211L181.476 32.9231L172.439 28.0209L163.462 32.9231L165.039 22.211L158.064 14.6459L167.829 12.9514L172.439 3.2681L177.048 12.9514L186.814 14.6459L179.899 22.211Z" fill="#0079C0"/>
<path d="M165.889 24.1482L169.164 28.5662L170.559 27.7794L165.161 16.6437L172.258 26.8716L172.5 26.7506L174.987 28.082L169.528 16.099L178.808 30.2002L180.082 30.866L179.9 29.5345L173.895 15.5543L179.051 23.7245L178.748 21.8484L180.325 20.1538L178.262 14.9491L180.931 19.4881L184.752 15.3122L176.382 13.9202L172.5 5.75L168.618 13.9202L160.248 15.3122L166.253 21.8484L165.889 24.1482Z" fill="#0079C0"/>
<path d="M165.585 26.5078L164.918 30.8653L167.162 29.6549L165.585 26.5078Z" fill="#0079C0"/>
<path d="M326.743 49.8063C326.743 52.6508 324.438 55.0111 321.527 55.0111C318.676 55.0111 316.311 52.7113 316.311 49.8063C316.311 46.9619 318.615 44.6016 321.527 44.6016C321.527 44.6016 321.527 44.6016 321.587 44.6016C324.378 44.6621 326.743 46.9619 326.743 49.8063ZM317.099 49.8063C317.099 52.2271 319.101 54.2243 321.527 54.2243C323.953 54.2243 325.955 52.2271 325.955 49.8063C325.955 47.3855 323.953 45.3883 321.527 45.3883C319.101 45.3883 317.099 47.3855 317.099 49.8063ZM319.586 46.9013H322.133C323.104 46.9013 324.196 47.2039 324.196 48.4749C324.196 49.7458 323.286 50.0484 322.376 50.0484L324.135 52.7113H323.286L321.648 50.0484H320.374V52.7113H319.647L319.586 46.9013ZM320.314 49.5037H322.012C322.558 49.5037 323.407 49.3827 323.407 48.4143C323.407 47.5671 322.619 47.446 321.891 47.446H320.253V49.5037H320.314Z" fill="#0079C0"/>
</g>
<defs>
<clipPath id="clip0_6290_201418">
<rect width="345" height="107" fill="white"/>
</clipPath>
</defs>
</svg>
