<svg width="345" height="136" viewBox="0 0 345 136" fill="none" xmlns="http://www.w3.org/2000/svg">
<g clip-path="url(#clip0_6792_211960)">
<path d="M338.234 105.373H287.477V98.75H345.001C345.008 102.408 341.975 105.373 338.234 105.373Z" fill="black"/>
<path d="M57.184 136.001H10.1615C4.55243 136.001 0 131.55 0 126.066V108.701C0 103.217 4.55243 98.7656 10.1615 98.7656H57.184C57.184 102.424 54.1514 105.389 50.4096 105.389H10.1615C8.29424 105.389 6.77436 106.875 6.77436 108.701V114.072H57.184C62.7931 114.072 67.3455 118.523 67.3455 124.007V126.066C67.3455 131.55 62.7931 136.001 57.184 136.001ZM6.77436 120.695V126.066C6.77436 127.892 8.29424 129.378 10.1615 129.378H57.184C59.0513 129.378 60.5711 127.892 60.5711 126.066V124.007C60.5711 122.181 59.0513 120.695 57.184 120.695H6.77436Z" fill="black"/>
<path d="M212.372 135.986H158.576C152.966 135.986 148.414 131.535 148.414 126.05V108.685C148.414 103.201 152.966 98.75 158.576 98.75H212.372C212.372 102.408 209.34 105.373 205.598 105.373H158.576C156.708 105.373 155.188 106.859 155.188 108.685V126.05C155.188 127.876 156.708 129.362 158.576 129.362H212.372V135.986Z" fill="black"/>
<path d="M282.062 135.986H228.265C222.656 135.986 218.104 131.535 218.104 126.05V108.685C218.104 103.201 222.656 98.75 228.265 98.75H282.062V105.373H228.265C226.398 105.373 224.878 106.859 224.878 108.685V126.05C224.878 127.876 226.398 129.362 228.265 129.362H275.287C279.029 129.362 282.062 132.327 282.062 135.986Z" fill="black"/>
<path d="M319.632 102.062H312.857V136.001H319.632V102.062Z" fill="black"/>
<path d="M81.8564 136H75.082V108.685C75.082 103.208 79.6417 98.75 85.2436 98.75H132.266C137.868 98.75 142.428 103.208 142.428 108.685V110.744C142.428 116.221 137.868 120.68 132.266 120.68H81.8564V136ZM81.8564 114.056H132.266C134.133 114.056 135.653 112.57 135.653 110.744V108.685C135.653 106.859 134.133 105.373 132.266 105.373H85.2436C83.3763 105.373 81.8564 106.859 81.8564 108.685V114.056Z" fill="black"/>
<path d="M202.152 114.055H148.84V120.678H202.152V114.055Z" fill="black"/>
<path d="M215.476 40.1094H194.683C193.59 42.487 192.28 45.1123 190.76 47.8367H215.484C222.54 47.8367 228.28 52.9246 228.28 59.1801C228.28 65.4356 222.54 70.5234 215.484 70.5234H157.627C152.575 74.3659 142.768 76.9558 137.166 78.2508H215.484C226.897 78.2508 236.183 69.6955 236.183 59.1801C236.176 48.6576 226.89 40.1094 215.476 40.1094Z" fill="#68ACFF"/>
<path d="M184.225 26.239C184.116 26.5929 174.556 57.0635 154.522 67.1615C151.048 68.6192 147.386 69.9 144.773 70.176C131.188 71.6054 121.425 67.9186 117.922 59.4624C115.186 52.8602 117.285 45.055 122.916 40.9012C126.614 38.1697 130.262 37.3843 133.244 37.3843C137.195 37.3843 139.982 38.7712 140.163 38.8632C141.321 39.4788 142.71 39.4859 143.876 38.8915C145.041 38.2971 145.83 37.172 145.974 35.8982C145.982 35.8275 146.836 28.7228 151.055 21.604C156.505 12.3977 164.843 7.72735 175.837 7.72735C186.186 7.72735 193.098 12.2067 197.535 16.9973H207.479C201.899 8.71096 191.672 0 175.837 0C152.351 0 142.044 17.8111 138.983 30.3292C134.076 29.1828 126.151 28.829 118.153 34.7377C109.721 40.9649 106.544 52.5842 110.604 62.3708C113.072 68.322 119.34 74.167 127.07 76.5942C130.667 77.6981 134.698 78.2713 139.07 78.2713C141.219 78.2713 143.456 78.1298 145.757 77.8538C159.111 76.2262 171.342 67.0624 181.134 51.3459C186.237 43.1444 189.414 35.2543 190.876 31.2208H224.343C228.656 31.2208 232.159 27.8383 232.239 23.642H186.997C185.68 23.9746 184.623 24.937 184.225 26.239Z" fill="#1B58FF"/>
</g>
<defs>
<clipPath id="clip0_6792_211960">
<rect width="345" height="136" fill="white"/>
</clipPath>
</defs>
</svg>
