<svg width="200" height="35" viewBox="0 0 200 35" fill="none" xmlns="http://www.w3.org/2000/svg">
<g clip-path="url(#clip0_7705_2042)">
<path d="M36.8412 11.4871C35.5884 10.1591 33.7997 9.36885 31.5834 9.36885C26.5743 9.36885 23.5692 13.3893 23.5692 18.272C23.5692 23.1548 26.5743 27.1742 31.5834 27.1742C33.8018 27.1742 35.5904 26.3849 36.8412 25.056V26.9226H40.279V1.79465H36.8412V11.4871ZM32.0111 23.7625C28.8978 23.7625 27.2881 21.2496 27.2881 18.27C27.2881 15.2904 28.8624 12.7826 32.0111 12.7826C35.1233 12.7826 36.6976 15.2955 36.6976 18.2751C36.6976 21.2546 35.0859 23.7645 32.0111 23.7645V23.7625ZM52.2032 12.7826C54.0283 12.7826 55.3518 13.6439 56.1395 14.9364L59.2881 13.4288C57.8928 10.988 55.3882 9.37088 52.2032 9.37088C47.1951 9.37088 43.7957 13.3913 43.7957 18.2741C43.7957 23.1568 47.1951 27.1762 52.2032 27.1762C55.3882 27.1762 57.8928 25.5612 59.2881 23.1183L56.1395 21.6087C55.3518 22.9002 54.0283 23.7625 52.2032 23.7625C49.0909 23.7625 47.4095 21.2496 47.4095 18.27C47.4095 15.2904 49.0909 12.7826 52.2032 12.7826ZM62.3144 26.9257H65.7128V9.62044H62.3174L62.3144 26.9257ZM64.0333 6.96755C64.4245 6.96413 64.8061 6.84484 65.13 6.62464C65.4539 6.40445 65.7057 6.09316 65.8539 5.72986C66.0021 5.36656 66.04 4.96743 65.963 4.58257C65.8859 4.19771 65.6972 3.84428 65.4206 3.56663C65.144 3.28898 64.7919 3.09949 64.4083 3.02195C64.0248 2.94441 63.6269 2.98227 63.2648 3.13078C62.9026 3.27928 62.5922 3.53182 62.3726 3.85669C62.153 4.18156 62.0339 4.56428 62.0303 4.95682C62.0292 5.22103 62.0803 5.48284 62.1807 5.7271C62.2811 5.97137 62.4287 6.19326 62.615 6.37995C62.8014 6.56663 63.0228 6.71441 63.2664 6.81474C63.51 6.91508 63.771 6.96598 64.0343 6.9645L64.0333 6.96755Z" fill="#0283E3"/>
<path d="M88.181 9.36885C85.8908 9.36885 84.1022 10.4107 82.9232 12.2094C81.811 10.3428 79.9909 9.36885 77.5916 9.36885C75.9101 9.36885 74.5865 9.97755 73.5471 10.9849V9.62045H70.1487V26.9226H73.5481V17.2667C73.5481 14.0355 74.9434 12.7796 77.0536 12.7796C79.0577 12.7796 80.6674 14.1075 80.6674 17.4818V26.9226H84.0668V17.2667C84.0668 14.0355 85.5693 12.7796 87.6805 12.7796C89.6482 12.7796 91.1507 14.1075 91.1507 17.4818V26.9226H94.5885V17.1591C94.5855 12.1739 92.2599 9.36885 88.181 9.36885ZM105.586 9.33334C101.114 9.33334 99.0385 12.2754 98.6098 14.4667L101.687 15.1129C102.192 13.2818 103.619 12.456 105.336 12.3849C106.803 12.2774 108.735 13.0312 108.484 14.7183C108.305 15.9357 106.41 16.0817 104.191 16.656C100.652 17.5893 98.2872 18.5946 97.8939 22.0054C97.5723 24.846 99.7543 27.5333 103.798 27.1793C106.48 26.9277 107.943 25.6362 108.592 24.8825V26.9277H111.955V15.6871C111.955 11.0925 109.201 9.33334 105.586 9.33334ZM108.595 19.528C108.595 22.256 106.018 23.9441 104.266 24.0871C102.366 24.2312 101.719 23.5129 101.618 22.7246C101.511 22.0429 101.69 20.5709 104.766 19.7826C107.057 19.2084 108.595 18.7773 108.595 18.7773V19.528ZM124.004 9.36885C123.174 9.3635 122.352 9.52971 121.588 9.85714C120.825 10.1846 120.137 10.6662 119.567 11.272V9.62045H116.169V26.9226H119.567V17.2667C119.567 14.0355 121.25 12.7796 123.36 12.7796C125.364 12.7796 126.974 14.1075 126.974 17.4818V26.9226H130.373V17.1591C130.373 12.1739 128.048 9.36885 124.004 9.36885ZM141.335 9.33334C136.863 9.33334 134.788 12.2754 134.358 14.4667L137.435 15.1129C137.94 13.2818 139.367 12.456 141.084 12.3849C142.551 12.2774 144.483 13.0312 144.233 14.7183C144.054 15.9357 142.158 16.0817 139.939 16.656C136.4 17.5893 134.035 18.5946 133.642 22.0054C133.321 24.846 135.503 27.5333 139.546 27.1793C142.23 26.9277 143.692 25.6362 144.34 24.8825V26.9277H147.703V15.6871C147.703 11.0925 144.948 9.33334 141.335 9.33334ZM144.34 19.528C144.34 22.256 141.764 23.9441 140.011 24.0871C138.114 24.2312 137.47 23.5129 137.363 22.7226C137.256 22.0409 137.435 20.5689 140.512 19.7806C142.802 19.2064 144.34 18.7752 144.34 18.7752V19.528ZM164.318 11.4871C163.066 10.1591 161.277 9.36885 159.06 9.36885C154.051 9.36885 151.046 13.3893 151.046 18.272C151.046 23.1548 154.051 27.1742 159.06 27.1742C161.278 27.1742 163.067 26.3849 164.318 25.056V25.5632C164.318 29.5836 162.171 31.5933 159.345 31.5933C157.52 31.5933 155.838 30.66 154.98 29.26L152.117 31.1267C153.59 33.456 156.447 35 159.454 35C163.854 35 167.754 32.4516 167.754 25.2355V9.62045H164.317L164.318 11.4871ZM159.487 23.7625C156.375 23.7625 154.765 21.2496 154.765 18.27C154.765 15.2904 156.34 12.7826 159.487 12.7826C162.601 12.7826 164.175 15.2955 164.175 18.2751C164.175 21.2546 162.565 23.7645 159.487 23.7645V23.7625ZM179.575 9.36885C174.566 9.36885 171.275 13.3893 171.275 18.272C171.275 23.1548 174.673 27.1742 179.683 27.1742C182.867 27.1742 185.336 25.5591 186.731 23.1162L183.62 21.6087C182.833 22.9002 181.51 23.7625 179.685 23.7625C177.18 23.7625 175.606 22.1464 175.105 19.9926H187.126C187.227 19.4234 187.275 18.8461 187.269 18.268C187.265 13.3913 184.582 9.36885 179.575 9.36885ZM175.025 16.7645C175.494 14.5073 176.997 12.7826 179.575 12.7826C182.154 12.7826 183.403 14.5073 183.761 16.7675L175.025 16.7645ZM198.603 9.33334C197.773 9.32804 196.95 9.49418 196.187 9.82143C195.424 10.1487 194.736 10.63 194.166 11.2355V9.62045H190.767V26.9226H194.166V17.2667C194.166 14.0355 195.885 12.7796 197.959 12.7796C198.424 12.7693 198.887 12.8549 199.319 13.0312L199.963 9.48045C199.514 9.39451 199.059 9.34531 198.603 9.33334Z" fill="#ACDCFF"/>
<path d="M17.0748 10.1165H0.569205C0.428014 10.1169 0.292732 10.1734 0.193067 10.2738C0.0937391 10.3746 0.0378228 10.5104 0.0373545 10.6522V16.3871C0.0370856 16.529 0.0929367 16.6652 0.192649 16.7658C0.292362 16.8664 0.427788 16.9232 0.569205 16.9238H17.0748C17.2162 16.9232 17.3516 16.8664 17.4513 16.7658C17.551 16.6652 17.6069 16.529 17.6066 16.3871V10.6522C17.6064 10.5101 17.5505 10.3738 17.4509 10.2728C17.3512 10.1724 17.216 10.1159 17.0748 10.1155V10.1165ZM17.0748 19.6528H0.569205C0.430143 19.6573 0.298378 19.7163 0.202167 19.8171C0.100224 19.9199 0.0425038 20.0586 0.041399 20.2036V25.9264C0.0543706 26.0543 0.111196 26.1737 0.202167 26.2642C0.300118 26.3645 0.433306 26.4224 0.573249 26.4255H17.0748C17.2147 26.4224 17.3479 26.3645 17.4458 26.2642C17.4987 26.2148 17.5405 26.1546 17.5682 26.0877C17.5961 26.021 17.6092 25.949 17.6066 25.8767V20.2036C17.6088 20.1314 17.5956 20.0596 17.5678 19.9929C17.5401 19.9263 17.4985 19.8663 17.4458 19.8171C17.3481 19.7164 17.2148 19.6584 17.0748 19.6558V19.6528Z" fill="#0283E3"/>
</g>
<defs>
<clipPath id="clip0_7705_2042">
<rect width="200" height="35" fill="white"/>
</clipPath>
</defs>
</svg>
