<svg width="210" height="34" viewBox="0 0 210 34" fill="none" xmlns="http://www.w3.org/2000/svg">
<path d="M14.4547 1.1497L27.9349 9.03333V24.8006L14.4547 32.6842L0.974475 24.7185V9.03333L14.4547 1.1497ZM14.4547 0L0 8.45848V25.2933L14.4547 33.7518L28.9094 25.2933V8.45848L14.4547 0Z" fill="#00AAFF"/>
<path d="M24.0369 23.5692H4.79102V24.9653H24.0369V23.5692Z" fill="#00AAFF"/>
<path d="M4.79102 22.3374H24.0369V9.03375H4.79102V22.3374ZM22.6564 20.9413H15.1042V10.4298H22.6564V20.9413ZM6.17152 10.4298H13.7237V20.9413H6.17152V10.4298Z" fill="#00AAFF"/>
<path d="M36.6245 8.62326H55.4644V10.512H47.1001V25.1296H44.9888V10.512H36.6245V8.62326Z" fill="#00AAFF"/>
<path d="M74.5475 8.62238V10.5112H59.5243V15.9312H71.6241V17.8199H59.5243V23.2399H74.5475V25.1287H57.413V8.62238H74.5475Z" fill="#00AAFF"/>
<path d="M96.149 11.4148V16.26C96.149 16.9991 95.8242 17.656 95.2557 18.2309C94.6061 18.8057 93.8752 19.0521 93.0632 19.0521H90.2209L96.149 25.2112H93.388L87.5411 19.0521H80.6386C80.4762 19.0521 80.1514 19.0521 79.5829 18.97V25.2112H77.4716V8.70483H93.1444C94.0376 8.70483 94.7685 8.9512 95.3369 9.52605C95.8242 10.0188 96.149 10.6757 96.149 11.4148ZM80.4762 17.1633H92.982C93.2256 17.1633 93.4692 17.0812 93.7128 16.9169C93.8752 16.7527 94.0376 16.5063 94.0376 16.26V11.4148C94.0376 11.1685 93.9564 10.9221 93.7128 10.7579C93.5504 10.5936 93.3068 10.5115 92.982 10.5115H80.4762C80.2326 10.5115 79.989 10.5936 79.7453 10.7579C79.5829 10.9221 79.4205 11.1685 79.4205 11.4148V16.26C79.4205 16.5063 79.5017 16.6706 79.7453 16.9169C79.989 17.0812 80.2326 17.1633 80.4762 17.1633Z" fill="#00AAFF"/>
<path d="M109.628 16.8345L117.424 8.62238H120.347V25.1287H118.236V10.7575L109.628 19.7087L101.02 10.7575V25.2108H98.9091V8.62238H101.832L109.628 16.8345Z" fill="#00AAFF"/>
<path d="M123.19 25.2117V8.62326H125.302V25.1296H123.19V25.2117Z" fill="#00AAFF"/>
<path d="M128.957 8.62326H144.629C145.523 8.62326 146.254 8.86962 146.822 9.44447C147.472 10.0193 147.715 10.5942 147.715 11.4154V22.4196C147.715 23.1587 147.39 23.8157 146.822 24.3905C146.172 24.9654 145.442 25.2117 144.629 25.2117H128.957V8.62326ZM145.604 22.4196V11.4154C145.604 11.169 145.523 10.9227 145.279 10.7584C145.117 10.5942 144.873 10.512 144.548 10.512H132.042C131.799 10.512 131.555 10.5942 131.312 10.7584C131.149 10.9227 130.987 11.169 130.987 11.4154V22.4196C130.987 22.666 131.068 22.9123 131.312 23.0766C131.474 23.2408 131.718 23.3229 132.042 23.3229H144.548C144.792 23.3229 145.035 23.2408 145.279 23.0766C145.523 22.8302 145.604 22.666 145.604 22.4196Z" fill="#00AAFF"/>
<path d="M167.854 8.62326V10.512H152.831V15.932H164.93V17.8208H152.831V23.2408H167.854V25.1296H150.638V8.62326H167.854Z" fill="#00AAFF"/>
<path d="M189.373 11.415V12.072H187.262V11.415C187.262 11.1687 187.18 11.0044 186.937 10.7581C186.774 10.5938 186.531 10.5117 186.206 10.5117H173.7C173.456 10.5117 173.213 10.5938 172.969 10.7581C172.807 10.9223 172.644 11.1687 172.644 11.415V15.1105C172.644 15.3569 172.726 15.5211 172.969 15.7675C173.132 15.9317 173.375 16.0138 173.7 16.0138H186.206C187.099 16.0138 187.83 16.2602 188.398 16.835C189.048 17.4099 189.292 17.9847 189.292 18.8059V22.4193C189.292 23.1584 188.967 23.8153 188.398 24.3902C187.749 24.965 187.018 25.2114 186.206 25.2114H173.7C172.807 25.2114 172.076 24.965 171.508 24.3902C170.858 23.8153 170.614 23.1584 170.614 22.4193V21.7623H172.726V22.4193C172.726 22.6656 172.807 22.912 173.05 23.0762C173.213 23.2405 173.456 23.3226 173.781 23.3226H186.287C186.531 23.3226 186.774 23.2405 187.018 23.0762C187.18 22.912 187.343 22.6656 187.343 22.4193V18.7238C187.343 18.4775 187.262 18.3132 187.018 18.0669C186.856 17.9026 186.612 17.8205 186.287 17.8205H173.7C172.807 17.8205 172.076 17.5741 171.508 16.9993C170.858 16.4244 170.614 15.8496 170.614 15.0284V11.3329C170.614 10.5938 170.939 9.93686 171.508 9.36201C172.157 8.78717 172.888 8.5408 173.7 8.5408H186.287C187.18 8.5408 187.911 8.78717 188.48 9.36201C189.048 10.019 189.373 10.676 189.373 11.415Z" fill="#00AAFF"/>
<path d="M207.32 8.62238H210L202.123 16.9166L210 25.2108H207.239L200.255 17.9021H194.165V25.2108H192.053V8.62238H194.165V15.9312H200.255L207.32 8.62238Z" fill="#00AAFF"/>
</svg>
