<svg width="237" height="41" viewBox="0 0 237 41" fill="none" xmlns="http://www.w3.org/2000/svg">
<g clip-path="url(#clip0_7705_2047)">
<path d="M38.1821 25.2726L32.8955 11.2696H28.6167L36.2934 31.5379H40.111L47.7889 11.2696H43.5113L38.1821 25.2726ZM72.1493 10.9749C69.4651 10.9749 67.3666 12.1954 65.9842 14.3025C64.6801 12.1158 62.546 10.9749 59.7326 10.9749C57.7609 10.9749 56.209 11.688 54.9902 12.868V11.2696H51.0054V31.5379H54.9914V20.2267C54.9914 16.4416 56.6275 14.9703 59.1018 14.9703C61.4517 14.9703 63.3392 16.526 63.3392 20.4786V31.5379H67.3251V20.2267C67.3251 16.4416 69.0869 14.9703 71.5624 14.9703C73.8696 14.9703 75.6314 16.526 75.6314 20.4786V31.5379H79.6624V20.1007C79.6588 14.2609 76.932 10.9749 72.1493 10.9749Z" fill="#0283E3"/>
<path d="M105.887 10.9749C103.201 10.9749 101.104 12.1954 99.7215 14.3025C98.4173 12.1158 96.2832 10.9749 93.471 10.9749C91.4994 10.9749 89.9462 11.688 88.7286 12.8681V11.2697H84.7427V31.5379H88.7275V20.2267C88.7275 16.4416 90.3636 14.9704 92.8391 14.9704C95.1889 14.9704 97.0764 16.526 97.0764 20.4786V31.5379H101.061V20.2267C101.061 16.4416 102.824 14.9704 105.298 14.9704C107.606 14.9704 109.369 16.526 109.369 20.4786V31.5379H113.4V20.1007C113.395 14.2609 110.668 10.9749 105.887 10.9749ZM126.294 10.9333C121.05 10.9333 118.617 14.3797 118.114 16.9467L121.721 17.7037C122.314 15.5586 123.987 14.5913 126.001 14.5081C127.72 14.3821 129.986 15.2651 129.693 17.2414C129.483 18.6675 127.259 18.8386 124.658 19.5113C120.508 20.6046 117.737 21.7823 117.275 25.7777C116.897 29.1053 119.457 32.2533 124.197 31.8386C127.343 31.5439 129.058 30.031 129.819 29.148V31.5439H133.762V18.3763C133.762 12.994 130.534 10.9333 126.294 10.9333ZM129.822 22.8756C129.822 26.0713 126.802 28.0488 124.746 28.2163C122.519 28.3851 121.76 27.5437 121.642 26.6203C121.516 25.8205 121.725 24.0961 125.334 23.1739C128.018 22.5013 129.822 21.9962 129.822 21.9962V22.8756ZM147.891 10.9749C146.917 10.9685 145.953 11.1632 145.058 11.5467C144.163 11.9303 143.356 12.4946 142.689 13.2044V11.2697H138.704V31.5379H142.689V20.2267C142.689 16.4416 144.66 14.9704 147.136 14.9704C149.484 14.9704 151.373 16.526 151.373 20.4786V31.5379H155.358V20.1007C155.358 14.2609 152.631 10.9749 147.891 10.9749ZM168.212 10.9333C162.967 10.9333 160.534 14.3797 160.031 16.9467L163.639 17.7037C164.232 15.5586 165.904 14.5913 167.918 14.5081C169.638 14.3821 171.903 15.2651 171.61 17.2414C171.4 18.6675 169.176 18.8386 166.576 19.5113C162.426 20.6046 159.653 21.7823 159.192 25.7777C158.814 29.1053 161.373 32.2533 166.113 31.8386C169.26 31.5439 170.98 30.031 171.736 29.148V31.5439H175.679V18.3763C175.679 12.994 172.448 10.9333 168.212 10.9333ZM171.736 22.8756C171.736 26.0713 168.715 28.0488 166.659 28.2163C164.436 28.3851 163.681 27.5437 163.555 26.6191C163.429 25.8193 163.639 24.0949 167.247 23.1727C169.931 22.5001 171.736 21.995 171.736 21.995V22.8756ZM195.16 13.4563C193.692 11.9007 191.594 10.9749 188.995 10.9749C183.123 10.9749 179.598 15.6846 179.598 21.4044C179.598 27.1242 183.123 31.8326 188.995 31.8326C191.597 31.8326 193.694 30.9081 195.16 29.3513V29.9455C195.16 34.6551 192.643 37.0093 189.329 37.0093C187.194 37.0093 185.218 35.916 184.212 34.276L180.855 36.4627C182.581 39.1913 185.931 41 189.458 41C194.617 41 199.19 38.0147 199.19 29.5616V11.2697H195.159L195.16 13.4563ZM189.497 27.836C185.848 27.836 183.959 24.8924 183.959 21.402C183.959 17.9117 185.805 14.9739 189.497 14.9739C193.146 14.9739 194.992 17.9176 194.992 21.408C194.992 24.8983 193.105 27.8384 189.497 27.8384V27.836ZM213.051 10.9749C207.178 10.9749 203.319 15.6846 203.319 21.4044C203.319 27.1242 207.305 31.8326 213.177 31.8326C216.911 31.8326 219.805 29.9407 221.442 27.079L217.793 25.3131C216.87 26.8259 215.318 27.836 213.178 27.836C210.242 27.836 208.396 25.9429 207.808 23.4199H221.904C222.023 22.7533 222.079 22.0769 222.072 21.3996C222.068 15.687 218.921 10.9749 213.051 10.9749ZM207.716 19.6384C208.266 16.9942 210.028 14.9739 213.051 14.9739C216.074 14.9739 217.54 16.9942 217.959 19.642L207.716 19.6384ZM235.362 10.9333C234.388 10.927 233.424 11.1215 232.529 11.5049C231.634 11.8883 230.827 12.4522 230.159 13.1616V11.2697H226.173V31.5379H230.159V20.2267C230.159 16.4416 232.175 14.9704 234.606 14.9704C235.152 14.9583 235.694 15.0586 236.2 15.2651L236.955 11.1057C236.429 11.0044 235.897 10.9467 235.362 10.9333Z" fill="#ACDCFF"/>
<path d="M24.7966 19.9474C24.6326 19.7946 24.417 19.7097 24.1932 19.7097H8.74846C8.63687 19.7124 8.52981 19.7545 8.44613 19.8285C8.37077 19.9053 8.32823 20.0085 8.32757 20.1161V30.649C8.33133 30.8725 8.42193 31.0856 8.5801 31.2432C8.73777 31.4001 8.95073 31.4884 9.1729 31.4892H24.1481C24.3693 31.4914 24.5823 31.406 24.7409 31.2515C24.8986 31.094 24.9881 30.8805 24.9899 30.6573V20.5558C24.9997 20.3402 24.9296 20.1286 24.7931 19.9616L24.7966 19.9474ZM16.456 17.7667C16.5382 17.692 16.6033 17.6004 16.6469 17.4981C16.6909 17.3957 16.7132 17.2852 16.7121 17.1736V12.1289C16.7095 12.0225 16.6853 11.9178 16.6409 11.8211C16.5977 11.7239 16.5347 11.6369 16.456 11.5656C16.3785 11.488 16.2867 11.4263 16.1857 11.3837C16.0853 11.3408 15.977 11.3198 15.8679 11.3219H0.889162C0.780079 11.3198 0.671778 11.3408 0.571423 11.3837C0.470226 11.4259 0.378354 11.4877 0.301108 11.5656C0.219213 11.64 0.154134 11.7312 0.110227 11.8329C0.0657268 11.9356 0.0435002 12.0466 0.0450197 12.1586V23.9107C0.043251 24.0219 0.0654953 24.1322 0.110227 24.234C0.153759 24.3369 0.218855 24.4293 0.301108 24.5049C0.378789 24.582 0.47057 24.6433 0.571423 24.6856C0.672181 24.7273 0.78015 24.7487 0.889162 24.7485H5.88169C5.99185 24.749 6.10099 24.7275 6.20277 24.6853C6.30454 24.643 6.39691 24.5809 6.47449 24.5025C6.62864 24.3436 6.71386 24.13 6.71161 23.9083V18.8659C6.71119 18.7556 6.73213 18.6462 6.77326 18.5439C6.81466 18.4417 6.87592 18.3488 6.95347 18.2705C7.02983 18.1921 7.12142 18.1302 7.2226 18.0887C7.32337 18.0458 7.43206 18.0247 7.54152 18.0269H15.8679C15.9786 18.028 16.0881 18.0053 16.1892 17.9604C16.2912 17.916 16.3822 17.8499 16.456 17.7667Z" fill="#0283E3"/>
</g>
<defs>
<clipPath id="clip0_7705_2047">
<rect width="237" height="41" fill="white"/>
</clipPath>
</defs>
</svg>
