<svg width="199" height="32" viewBox="0 0 199 32" fill="none" xmlns="http://www.w3.org/2000/svg">
<path d="M23.9908 15.5742H0.790547L12.379 27.2178L23.9908 15.5742Z" fill="#27ACE3"/>
<path d="M12.6081 28.0051C12.4523 28.1617 12.1999 28.1609 12.045 28.0051L7.83177 23.768L0.635613 31.9882H24.0525L16.8438 23.7537L12.6081 28.0051Z" fill="#27ACE3"/>
<path fill-rule="evenodd" clip-rule="evenodd" d="M98.049 8.88043L98.3564 5.48488H90.6121V31.3693H98.3564V21.1496C98.3564 18.6396 98.4288 17.0354 98.5854 16.3429C98.7362 15.6436 99.1485 15.1043 99.8091 14.7115C100.476 14.3187 101.516 14.1257 102.935 14.1257V5.01842C100.803 5.1581 99.1735 6.44995 98.049 8.88043ZM86.3006 7.86794C85.6267 7.02222 84.6654 6.33651 83.4159 5.8108C82.1731 5.28509 80.6821 5.01842 78.942 5.01842C76.8745 5.01842 75.1744 5.43154 73.8466 6.25016C72.5189 7.06879 71.5967 8.15408 71.0861 9.50604C70.5755 10.858 70.3206 12.7348 70.3206 15.1382V21.7761C70.3206 23.9729 70.458 25.6178 70.7388 26.7158C71.0203 27.8146 71.4909 28.7526 72.1515 29.5247C72.8054 30.2976 73.7283 30.8766 74.9187 31.2627C76.109 31.6487 77.5543 31.8358 79.2685 31.8358C80.7987 31.8358 82.1598 31.6157 83.3435 31.1636C84.5213 30.7175 85.4893 30.0182 86.2414 29.0802C87.0003 28.1346 87.4909 27.123 87.7192 26.0377C87.9482 24.9524 88.0657 23.2415 88.0657 20.9177V14.5795C88.0657 12.7416 87.9416 11.3769 87.6933 10.4787C87.4393 9.58562 86.9811 8.71365 86.3006 7.86794ZM80.3222 24.5655C80.3222 25.677 80.2506 26.4093 80.0998 26.7488C79.9566 27.0815 79.655 27.255 79.191 27.255C78.7462 27.255 78.4455 27.0688 78.2948 26.6955C78.1382 26.3289 78.059 25.5306 78.059 24.3056V12.6282C78.059 11.2965 78.1382 10.4643 78.2948 10.1181C78.4447 9.77186 78.7529 9.59916 79.211 9.59916C79.6683 9.59916 79.9699 9.77271 80.1132 10.1181C80.2498 10.4643 80.3222 11.2965 80.3222 12.6282V24.5655ZM59.0895 22.2019L58.2065 10.2053C57.7359 4.1871 57.441 0.71874 57.3235 -0.207397H48.9312C47.7409 8.72721 47.0012 15.9441 46.7071 21.4425L45.8633 10.8106L45.0387 -0.207397H37.2028L40.8071 31.3693H50.8279C52.0058 22.9808 52.7513 17.4679 53.0712 14.8317C53.7709 21.0032 54.5822 26.516 55.5043 31.3693H65.5843L69.1686 -0.207397H61.326C60.2798 7.09588 59.5343 14.5727 59.0895 22.2019ZM175.901 6.43048C174.574 5.49164 172.604 5.01927 169.981 5.01927C167.796 5.01927 166.024 5.43239 164.657 6.26456C163.29 7.09673 162.38 8.06181 161.922 9.1471C161.471 10.2324 161.242 11.7765 161.242 13.7744V15.5115H168.509V12.8017C168.509 11.3566 168.568 10.4652 168.699 10.1189C168.823 9.77271 169.15 9.60001 169.673 9.60001C170.137 9.60001 170.465 9.80656 170.66 10.2188C170.857 10.6252 170.962 11.5107 170.962 12.8618C170.962 13.9403 170.87 14.6523 170.694 15.0053C170.511 15.3583 169.15 16.0373 166.612 17.0557C164.23 17.9877 162.746 18.8072 162.144 19.5124C161.542 20.2108 161.241 21.5297 161.241 23.4667V25.5966C161.241 28.2066 161.811 29.9039 162.935 30.6768C164.067 31.4489 165.31 31.8349 166.664 31.8349C167.704 31.8349 168.594 31.608 169.339 31.1424C170.085 30.6828 170.699 29.9903 171.17 29.065V31.3685H178.699V18.3797C178.699 14.0986 178.568 11.2762 178.3 9.90477C178.034 8.53419 177.236 7.37524 175.901 6.43048ZM170.963 24.3852C170.963 25.683 170.883 26.4889 170.74 26.7954C170.589 27.1018 170.275 27.255 169.791 27.255C169.282 27.255 168.934 27.062 168.764 26.6692C168.594 26.2764 168.509 25.4112 168.509 24.0728C168.509 22.9071 168.607 22.0089 168.803 21.3833C168.999 20.7568 169.718 19.9848 170.962 19.0595L170.963 24.3852ZM157.972 1.83619C157.383 1.17672 156.494 0.671329 155.31 0.318313C154.132 -0.0347024 152.439 -0.207397 150.24 -0.207397H142.116V31.3693H150.188V18.6531H152.353C154.113 18.6531 155.538 18.4068 156.631 17.9141C157.724 17.4146 158.476 16.7094 158.889 15.7833C159.293 14.8648 159.497 13.3934 159.497 11.3761V8.62646C159.497 6.6489 159.392 5.19112 159.183 4.24551C158.973 3.30752 158.568 2.50243 157.972 1.83619ZM152.752 10.3848C152.752 11.5496 152.608 12.3217 152.32 12.695C152.033 13.0616 151.522 13.2478 150.777 13.2478C150.614 13.2478 150.417 13.2411 150.188 13.2275V5.19196C151.235 5.19196 151.921 5.35874 152.255 5.68466C152.589 6.00466 152.752 6.70985 152.752 7.78837V10.3848ZM191.234 -0.207397V7.12212C190.58 6.42286 189.855 5.89715 189.056 5.54413C188.258 5.19112 187.382 5.01842 186.42 5.01842C185.184 5.01842 184.117 5.33164 183.222 5.96402C182.325 6.5964 181.756 7.32868 181.508 8.16085C181.26 8.99302 181.135 10.4042 181.135 12.3886V24.5054C181.135 26.4161 181.26 27.7943 181.508 28.6392C181.756 29.4849 182.32 30.2307 183.202 30.8698C184.085 31.5158 185.125 31.8349 186.329 31.8349C187.218 31.8349 188.075 31.6419 188.893 31.2491C189.711 30.8631 190.489 30.2772 191.234 29.4984V31.3693H198.973V-0.207397H191.234ZM191.234 23.9788C191.234 25.4171 191.149 26.3289 190.986 26.6955C190.816 27.0679 190.482 27.255 189.986 27.255C189.554 27.255 189.259 27.0883 189.109 26.7556C188.953 26.4229 188.873 25.7304 188.873 24.6781V12.0025C188.873 10.9841 188.958 10.3314 189.115 10.0385C189.272 9.74561 189.586 9.59916 190.044 9.59916C190.514 9.59916 190.835 9.76593 190.993 10.0919C191.156 10.4178 191.234 11.0502 191.234 12.0025V23.9788ZM121.328 5.48488H114.814L112.4 13.054V-0.207397H104.655V31.3693H112.4V20.0982L114.814 31.3693H122.265L118.182 15.8044L121.328 5.48488ZM134.339 16.2497C132.652 15.4108 131.54 14.7649 130.996 14.3196C130.453 13.8802 130.126 13.4739 130.015 13.1014C129.91 12.7348 129.852 12.149 129.852 11.3575C129.852 10.7716 129.962 10.3323 130.179 10.0394C130.395 9.74646 130.722 9.60001 131.159 9.60001C131.696 9.60001 132.03 9.76001 132.161 10.0792C132.297 10.3992 132.363 11.1577 132.363 12.3564V13.7541H139.225V12.2565C139.225 10.9579 139.159 9.99958 139.022 9.38667C138.891 8.77376 138.505 8.11514 137.871 7.39641C137.243 6.68445 136.333 6.11133 135.149 5.67196C133.972 5.23937 132.533 5.01927 130.852 5.01927C129.151 5.01927 127.66 5.28593 126.378 5.81842C125.089 6.3509 124.181 7.11027 123.643 8.0889C123.107 9.0743 122.839 10.5989 122.839 12.6629C122.839 14.1206 123.087 15.3795 123.584 16.4377C124.081 17.5027 125.468 18.6811 127.744 19.9797C130.452 21.517 131.956 22.4364 132.25 22.7488C132.532 23.062 132.669 23.8341 132.669 25.0726C132.669 25.9649 132.558 26.5575 132.342 26.8368C132.126 27.117 131.74 27.2567 131.191 27.2567C130.681 27.2567 130.341 27.0502 130.171 26.6311C129.994 26.218 129.909 25.313 129.909 23.9213V22.2832H123.047V23.5285C123.047 25.6855 123.308 27.3033 123.832 28.3683C124.355 29.4332 125.316 30.279 126.716 30.9046C128.116 31.5234 129.803 31.8366 131.767 31.8366C133.546 31.8366 135.063 31.5505 136.319 30.9714C137.575 30.3924 138.478 29.567 139.014 28.4944C139.55 27.4226 139.818 25.8311 139.818 23.7274C139.818 21.8362 139.464 20.4055 138.764 19.4133C138.061 18.4271 136.589 17.3689 134.339 16.2497ZM28.5614 1.89461V7.83069H33.4985L28.5614 1.89461ZM27.8534 8.22265V1.51366H15.2587V14.6785H24.8705C25.0695 14.6785 25.232 14.8436 25.232 15.0434V16.0584H30.6697V16.8178H25.232V19.2864H30.6697V20.0457H25.232V26.7657H33.7676V8.62816H28.2516C28.0333 8.62731 27.8534 8.44614 27.8534 8.22265ZM30.6689 13.589H20.0367V12.8296H30.6689V13.589Z" fill="#186CB4"/>
<path d="M24.4773 31.3431V16.0906L17.3703 23.2254L24.4773 31.3431Z" fill="#27ACE3"/>
<path d="M-0.0124512 15.8806V31.5945L7.30366 23.2381L-0.0124512 15.8806Z" fill="#27ACE3"/>
</svg>
