<svg width="40" height="40" viewBox="0 0 40 40" fill="none" xmlns="http://www.w3.org/2000/svg">
<path d="M28.3333 28.3339V28.3506M21.6667 28.3339V28.3506M25 21.6673V18.3339M19.5833 14.5838C20.2006 13.7236 21.0138 13.0227 21.9557 12.5392C22.8977 12.0558 23.9412 11.8036 25 11.8036C26.0588 11.8036 27.1023 12.0558 28.0443 12.5392C28.9862 13.0227 29.7994 13.7236 30.4167 14.5838M14.1667 10.834C15.4011 9.11345 17.0276 7.7117 18.9115 6.74474C20.7954 5.77779 22.8825 5.27344 25 5.27344C27.1175 5.27344 29.2046 5.77779 31.0885 6.74474C32.9724 7.7117 34.5989 9.11345 35.8333 10.834M8.33333 21.6673H31.6667C33.5076 21.6673 35 23.1597 35 25.0006V31.6673C35 33.5082 33.5076 35.0006 31.6667 35.0006H8.33333C6.49238 35.0006 5 33.5082 5 31.6673V25.0006C5 23.1597 6.49238 21.6673 8.33333 21.6673Z" stroke="#0079C1" stroke-width="1.5" stroke-linecap="round" stroke-linejoin="round"/>
</svg>
