<svg width="64" height="64" viewBox="0 0 64 64" fill="none" xmlns="http://www.w3.org/2000/svg">
<path d="M31.9996 31.9984C33.4724 31.9984 34.6663 30.8045 34.6663 29.3318C34.6663 27.859 33.4724 26.6651 31.9996 26.6651C30.5269 26.6651 29.333 27.859 29.333 29.3318C29.333 30.8045 30.5269 31.9984 31.9996 31.9984ZM31.9996 31.9984V38.6651M31.9996 6.39844C37.8216 12.2767 45.4201 15.3373 53.1854 14.9318C54.316 19.3208 54.6619 23.9244 54.2027 28.469C53.7434 33.0136 52.4883 37.4065 50.512 41.3866C48.5357 45.3667 45.8785 48.8529 42.6983 51.6378C39.5181 54.4228 35.8798 56.4498 31.9996 57.5984C28.1194 56.4498 24.4811 54.4228 21.3009 51.6378C18.1207 48.8529 15.4635 45.3667 13.4872 41.3866C11.5109 37.4065 10.2558 33.0136 9.79655 28.469C9.33729 23.9244 9.68322 19.3208 10.8138 14.9318C18.5791 15.3373 26.1777 12.2767 31.9996 6.39844Z" stroke="white" stroke-width="1.5" stroke-linecap="round" stroke-linejoin="round"/>
</svg>
