<svg width="64" height="64" viewBox="0 0 64 64" fill="none" xmlns="http://www.w3.org/2000/svg">
<path d="M32 18.6667C34.9455 18.6667 37.3333 16.2789 37.3333 13.3333C37.3333 10.3878 34.9455 8 32 8C29.0545 8 26.6667 10.3878 26.6667 13.3333C26.6667 16.2789 29.0545 18.6667 32 18.6667ZM32 18.6667V29.3333M32 29.3333C27.5817 29.3333 24 32.9151 24 37.3333C24 41.7516 27.5817 45.3333 32 45.3333C36.4183 45.3333 40 41.7516 40 37.3333C40 32.9151 36.4183 29.3333 32 29.3333ZM17.8667 47.4668L25.3334 42.1335M46.1333 47.4668L38.6667 42.1335M18.6667 50.6667C18.6667 53.6122 16.2789 56 13.3333 56C10.3878 56 8 53.6122 8 50.6667C8 47.7211 10.3878 45.3333 13.3333 45.3333C16.2789 45.3333 18.6667 47.7211 18.6667 50.6667ZM56 50.6667C56 53.6122 53.6122 56 50.6667 56C47.7211 56 45.3333 53.6122 45.3333 50.6667C45.3333 47.7211 47.7211 45.3333 50.6667 45.3333C53.6122 45.3333 56 47.7211 56 50.6667Z" stroke="white" stroke-width="1.5" stroke-linecap="round" stroke-linejoin="round"/>
</svg>
