<svg width="65" height="64" viewBox="0 0 65 64" fill="none" xmlns="http://www.w3.org/2000/svg">
<path d="M11.332 21.3346V16.0013C11.332 14.5868 11.8939 13.2303 12.8941 12.2301C13.8943 11.2299 15.2509 10.668 16.6654 10.668H21.9987M11.332 42.668V48.0013C11.332 49.4158 11.8939 50.7723 12.8941 51.7725C13.8943 52.7727 15.2509 53.3346 16.6654 53.3346H21.9987M43.332 10.668H48.6654C50.0798 10.668 51.4364 11.2299 52.4366 12.2301C53.4368 13.2303 53.9987 14.5868 53.9987 16.0013V21.3346M43.332 53.3346H48.6654C50.0798 53.3346 51.4364 52.7727 52.4366 51.7725C53.4368 50.7723 53.9987 49.4158 53.9987 48.0013V42.668M25.9987 40.0013C26.8677 40.8882 27.905 41.5928 29.0497 42.0739C30.1944 42.5549 31.4237 42.8027 32.6654 42.8027C33.9071 42.8027 35.1363 42.5549 36.281 42.0739C37.4258 41.5928 38.463 40.8882 39.332 40.0013M25.3054 27.5213C25.3054 28.5817 24.4458 29.4413 23.3854 29.4413C22.325 29.4413 21.4654 28.5817 21.4654 27.5213C21.4654 26.4609 22.325 25.6013 23.3854 25.6013C24.4458 25.6013 25.3054 26.4609 25.3054 27.5213ZM43.8655 27.5212C43.8655 28.5816 43.0059 29.4412 41.9455 29.4412C40.8852 29.4412 40.0255 28.5816 40.0255 27.5212C40.0255 26.4609 40.8852 25.6012 41.9455 25.6012C43.0059 25.6012 43.8655 26.4609 43.8655 27.5212Z" stroke="#0079C1" stroke-width="1.5" stroke-linecap="round"/>
</svg>
