<svg width="40" height="40" viewBox="0 0 40 40" fill="none" xmlns="http://www.w3.org/2000/svg">
<path d="M6.66667 34.9982C8.57833 28.2982 9.97167 21.6199 10 14.9982H20C20.0283 21.6199 21.4217 28.2982 23.3333 34.9982M20.8333 21.6649H28.3333C28.375 26.0182 29.8233 30.4915 31.6667 34.9982M15 8.33161C15.3786 7.80412 15.88 7.37673 16.4607 7.08635C17.0415 6.79598 17.6842 6.65134 18.3333 6.66494C18.9825 6.65134 19.6252 6.79598 20.206 7.08635C20.7867 7.37673 21.288 7.80412 21.6667 8.33161C22.0453 8.85909 22.5466 9.28648 23.1274 9.57686C23.7081 9.86724 24.3508 10.0119 25 9.99827C25.6492 10.0119 26.2919 9.86724 26.8726 9.57686C27.4534 9.28648 27.9547 8.85909 28.3333 8.33161C28.7119 7.80412 29.2133 7.37673 29.794 7.08635C30.3748 6.79598 31.0175 6.65134 31.6667 6.66494C32.3158 6.65134 32.9585 6.79598 33.5393 7.08635C34.12 7.37673 34.6214 7.80412 35 8.33161M5 34.9982H36.6667" stroke="#0079C1" stroke-width="1.5" stroke-linecap="round" stroke-linejoin="round"/>
</svg>
