<svg width="456" height="550" viewBox="0 0 456 550" fill="none" xmlns="http://www.w3.org/2000/svg">
<path d="M394 32C394 20.799 394 15.1984 391.82 10.9202C389.903 7.15695 386.843 4.09734 383.08 2.17987C378.802 0 373.201 0 362 0H81C69.799 0 64.1984 0 59.9202 2.17987C56.157 4.09734 53.0973 7.15695 51.1799 10.9202C49 15.1984 49 20.799 49 32V628H394V32Z" fill="#6A7E95"/>
<path d="M270 185C270 173.799 270 168.198 267.82 163.92C265.903 160.157 262.843 157.097 259.08 155.18C254.802 153 249.201 153 238 153H32C20.799 153 15.1984 153 10.9202 155.18C7.15695 157.097 4.09735 160.157 2.17987 163.92C0 168.198 0 173.799 0 185V608H270V185Z" fill="#AFB8BF"/>
</svg>
