<?xml version="1.0" standalone="no"?>
<!DOCTYPE svg PUBLIC "-//W3C//DTD SVG 1.1//EN" "http://www.w3.org/Graphics/SVG/1.1/DTD/svg11.dtd" >
<svg xmlns="http://www.w3.org/2000/svg" xmlns:xlink="http://www.w3.org/1999/xlink" version="1.1">
<metadata>
Created by FontForge 20201107 at Thu Dec 24 09:04:23 2020
 By Unknown
Copyright (c) 2020 JSC RPA RusBITech. All rights reserved.
</metadata>
<defs>
<font id="PTAstraFact-Italic" horiz-adv-x="620" >
  <font-face 
    font-family="PT Astra Fact"
    font-weight="400"
    font-style="italic"
    font-stretch="normal"
    units-per-em="1000"
    panose-1="2 11 5 3 4 5 4 9 2 4"
    ascent="800"
    descent="-200"
    x-height="545"
    cap-height="727"
    bbox="-429 -240.231 1186 1000"
    underline-thickness="50"
    underline-position="-100"
    slope="-13"
    unicode-range="U+000D-FEFF"
  />
<missing-glyph horiz-adv-x="500" 
d="M442 8v496h-384v-496h384zM50 512h400v-512h-400v512z" />
    <glyph glyph-name="fi" unicode="fi" horiz-adv-x="655" 
d="M172 465h-110l18 80h111l17 75q6 24 15.5 56.5t32.5 62.5t64.5 50.5t111.5 20.5q30 0 63 -9l-18 -82q-11 5 -26 8t-32 3q-36 0 -57.5 -10t-34 -27.5t-19.5 -41t-13 -51.5l-13 -55h348l-125 -545h-92l107 465h-256l-107 -465h-92zM680 700q0 -25 -16.5 -41.5t-41.5 -16.5
t-41.5 16.5t-16.5 41.5t16.5 41.5t41.5 16.5t41.5 -16.5t16.5 -41.5z" />
    <glyph glyph-name="fl" unicode="fl" horiz-adv-x="655" 
d="M172 465h-110l18 80h111l10 45q26 114 96.5 167t190.5 53q21 0 49 -2.5t60 -7.5h92l-184 -800h-92l166 720q-21 4 -46 7t-54 3q-35 0 -64.5 -5t-53.5 -20.5t-41.5 -45t-28.5 -78.5l-8 -36h152l-18 -80h-153l-107 -465h-92z" />
    <glyph glyph-name=".notdef" horiz-adv-x="500" 
d="M442 8v496h-384v-496h384zM50 512h400v-512h-400v512z" />
    <glyph glyph-name=".null" horiz-adv-x="0" 
 />
    <glyph glyph-name="uni000D" unicode="&#xd;" horiz-adv-x="290" 
 />
    <glyph glyph-name="space" unicode=" " horiz-adv-x="290" 
 />
    <glyph glyph-name="exclam" unicode="!" horiz-adv-x="420" 
d="M259 727h108l-131 -517h-84zM232 60q0 -32 -19 -50.5t-53 -18.5t-53 18.5t-19 50.5t19 50.5t53 18.5t53 -18.5t19 -50.5z" />
    <glyph glyph-name="quotedbl" unicode="&#x22;" horiz-adv-x="470" 
d="M203 727h90l-68 -250h-70zM383 727h90l-68 -250h-70z" />
    <glyph glyph-name="numbersign" unicode="#" horiz-adv-x="680" 
d="M188 511l51 216h80l-52 -216h147l52 216h80l-52 -216h105l-7 -80h-116l-33 -135h107l-7 -80h-119l-50 -216h-80l50 216h-147l-50 -216h-80l50 216h-104l7 80h117l31 135h-106l7 80h119zM217 296h147l32 135h-147z" />
    <glyph glyph-name="dollar" unicode="$" horiz-adv-x="580" 
d="M195 -10q-51 1 -98.5 14t-79.5 35l21 92q11 -9 29 -18.5t41 -17.5t51.5 -13.5t61.5 -5.5q96 0 140 40t44 102q0 23 -5 39.5t-18.5 31t-37.5 28t-63 29.5l-24 10q-62 26 -96.5 63.5t-34.5 98.5q0 45 17.5 82t49 65t76 45.5t97.5 23.5l24 103h66l-23 -100q38 -1 78 -11.5
t66 -22.5l-21 -90q-30 15 -71.5 26.5t-87.5 11.5q-82 0 -125 -32.5t-43 -86.5q0 -18 5.5 -32.5t19 -28t37.5 -27.5t61 -31l24 -11q72 -32 102.5 -70.5t30.5 -92.5q0 -51 -18 -93.5t-51 -74t-78.5 -51.5t-99.5 -26l-24 -104h-66z" />
    <glyph glyph-name="percent" unicode="%" horiz-adv-x="850" 
d="M260 381q-72 0 -109 41t-37 104q0 47 15.5 86t43.5 66.5t68 43t90 15.5q76 0 110.5 -40t34.5 -100q0 -47 -15 -86.5t-43.5 -68t-68.5 -45t-89 -16.5zM275 443q24 0 46.5 9.5t39 28t26.5 45t10 60.5q0 40 -17 64.5t-62 24.5q-24 0 -46.5 -8.5t-40 -26t-27.5 -45t-10 -65.5
q0 -45 22.5 -66t58.5 -21zM754 727h82l-704 -727h-82zM560 -10q-72 0 -109 41t-37 104q0 47 15.5 86t43.5 66.5t68 43t90 15.5q76 0 110.5 -40t34.5 -100q0 -47 -15 -86.5t-43.5 -68t-68.5 -45t-89 -16.5zM575 52q24 0 46.5 9.5t39 28t26.5 45t10 60.5q0 40 -17 64.5
t-62 24.5q-24 0 -46.5 -8.5t-40 -26t-27.5 -45t-10 -65.5q0 -45 22.5 -66t58.5 -21z" />
    <glyph glyph-name="ampersand" unicode="&#x26;" horiz-adv-x="770" 
d="M363 441q21 8 47.5 20.5t50.5 30.5t40 42t16 55q0 36 -26 52t-60 16q-44 0 -74 -27.5t-30 -78.5q0 -30 10.5 -59.5t25.5 -50.5zM310 341q-26 -9 -52.5 -22.5t-47.5 -32.5t-34.5 -44t-13.5 -57q0 -24 9 -44.5t26.5 -36.5t42.5 -25t57 -9q54 0 94 16t66 41zM674 0h-128
l-48 69q-48 -41 -101 -60t-126 -19q-50 0 -89.5 15t-67 40.5t-42 59t-14.5 69.5q0 47 17.5 83.5t47 63.5t68 47t81.5 34q-17 29 -32 61t-15 74q0 49 17.5 86.5t48 63t72 38t90.5 12.5q31 0 61 -7.5t53.5 -24t37.5 -42t14 -60.5q0 -44 -20 -78t-51.5 -60t-70.5 -46t-77 -35
l126 -183q12 15 24 35.5t21.5 45t16.5 51.5t10 54h100q-17 -86 -52.5 -149.5t-72.5 -101.5z" />
    <glyph glyph-name="quotesingle" unicode="'" horiz-adv-x="290" 
d="M203 727h90l-68 -250h-70z" />
    <glyph glyph-name="parenleft" unicode="(" horiz-adv-x="365" 
d="M59 195q0 88 22 170t62.5 157.5t97.5 145t127 132.5h102q-64 -57 -122 -121.5t-101.5 -138t-69.5 -156.5t-26 -177q0 -112 28 -202t69 -165h-94q-46 83 -70.5 172t-24.5 183z" />
    <glyph glyph-name="parenright" unicode=")" horiz-adv-x="365" 
d="M323 445q0 -89 -22 -170.5t-62.5 -157t-97.5 -145t-127 -132.5h-102q64 57 122 121.5t101.5 138t69.5 156.5t26 177q0 112 -28 202t-69 165h94q46 -83 70.5 -172t24.5 -183z" />
    <glyph glyph-name="asterisk" unicode="*" horiz-adv-x="550" 
d="M378 347l-71 123h-14l-71 -123l-75 49l98 111l-3 11l-142 30l28 86l132 -59l10 8l-15 144h90l-13 -145l8 -7l132 59l28 -86l-142 -30l-4 -12l99 -110z" />
    <glyph glyph-name="plus" unicode="+" 
d="M292 321h-207v86h207v207h86v-207h207v-86h-207v-207h-86v207z" />
    <glyph glyph-name="comma" unicode="," horiz-adv-x="310" 
d="M-20 -122q50 19 83.5 44t50.5 68q-32 -1 -48 15t-16 41q0 37 23.5 60t61.5 23q28 0 49 -18t21 -55q0 -29 -11 -63.5t-35.5 -67t-64 -60.5t-97.5 -45z" />
    <glyph glyph-name="hyphen" unicode="-" horiz-adv-x="540" 
d="M438 250h-350l18 80h350z" />
    <glyph glyph-name="period" unicode="." horiz-adv-x="312" 
d="M192 60q0 -32 -19 -50.5t-53 -18.5t-53 18.5t-19 50.5t19 50.5t53 18.5t53 -18.5t19 -50.5z" />
    <glyph glyph-name="slash" unicode="/" horiz-adv-x="495" 
d="M527 800h90l-626 -960h-90z" />
    <glyph glyph-name="zero" unicode="0" horiz-adv-x="690" 
d="M297 76q43 0 79.5 19.5t65 52t50 76t35.5 92t21 99t7 97.5q0 74 -33 106.5t-95 32.5q-44 0 -80.5 -20t-64.5 -53.5t-48.5 -77.5t-33.5 -92.5t-19.5 -98t-6.5 -94.5q0 -71 32 -105t91 -34zM278 -10q-98 0 -151.5 55.5t-53.5 159.5q0 52 9 112t27.5 119t48 113.5t70.5 96
t94 66.5t120 25q104 0 159.5 -54t55.5 -163q0 -51 -8.5 -110.5t-27 -118.5t-48 -113.5t-71.5 -96t-97.5 -66.5t-126.5 -25z" />
    <glyph glyph-name="one" unicode="1" horiz-adv-x="475" 
d="M290 610l-128 -69l-30 74l205 112h76l-168 -727h-96z" />
    <glyph glyph-name="two" unicode="2" horiz-adv-x="610" 
d="M16 90l165 116q63 45 110 80.5t80.5 65t54.5 54t33 47t16.5 44t4.5 45.5q0 48 -38 78.5t-104 30.5q-48 0 -93.5 -12.5t-90.5 -35.5l22 94q42 19 91.5 29.5t95.5 10.5q50 0 91 -12.5t69.5 -36t44 -55.5t15.5 -71q0 -48 -13.5 -89t-52.5 -87.5t-109 -103t-182 -134.5
l-85 -59v-3h344l-20 -86h-470z" />
    <glyph glyph-name="three" unicode="3" horiz-adv-x="615" 
d="M195 -10q-55 0 -100.5 9t-88.5 27l21 90q35 -19 78 -29.5t89 -10.5q103 0 163.5 39t60.5 112q0 53 -42.5 80.5t-130.5 27.5h-76l20 86h70q115 0 165.5 32.5t50.5 100.5q0 43 -36.5 70t-108.5 27q-44 0 -89.5 -9.5t-88.5 -26.5l21 92q45 14 92.5 22t97.5 8
q107 0 162 -44.5t55 -116.5q0 -82 -51.5 -133t-143.5 -67l-1 -2q68 -10 101.5 -46t33.5 -91q0 -56 -24.5 -101.5t-68 -78t-103 -50t-128.5 -17.5z" />
    <glyph glyph-name="four" unicode="4" horiz-adv-x="670" 
d="M433 253l86 376h-2l-357 -376h273zM413 167h-384l18 80l455 480h136l-109 -474h95l-20 -86h-95l-39 -167h-96z" />
    <glyph glyph-name="five" unicode="5" horiz-adv-x="615" 
d="M200 -10q-41 0 -87 8.5t-79 23.5l21 90q42 -20 82.5 -28t74.5 -8q57 0 99.5 13t70.5 35.5t42 54t14 67.5q0 31 -12.5 55t-35 40.5t-54 24.5t-68.5 8q-35 0 -73 -5.5t-75 -16.5l108 375h399l-20 -86h-316l-55 -193q26 5 46.5 6t43.5 1q50 0 90 -14.5t68 -40t43 -60
t15 -74.5q0 -65 -23 -116t-67 -86.5t-107.5 -54.5t-144.5 -19z" />
    <glyph glyph-name="six" unicode="6" 
d="M282 76q39 0 74.5 13.5t62 38t42.5 58.5t16 75q0 53 -34.5 82t-91.5 29q-38 0 -71.5 -11t-60 -29t-43.5 -41t-23 -48q-5 -23 -5 -42q0 -27 9.5 -50t27 -39.5t42.5 -26t55 -9.5zM266 -10q-59 0 -101 19t-68.5 50.5t-39 73t-12.5 85.5q0 99 24.5 192t77.5 166t136 117
t200 44q30 0 67.5 -5.5t65.5 -17.5l-22 -92q-28 15 -64.5 22t-68.5 7q-67 0 -118.5 -22t-88.5 -60t-60.5 -89.5t-35.5 -110.5q35 38 87.5 63.5t132.5 25.5q43 0 80 -12t64.5 -35t43 -57t15.5 -78q0 -62 -23.5 -114t-65.5 -90.5t-100 -60t-126 -21.5z" />
    <glyph glyph-name="seven" unicode="7" horiz-adv-x="560" 
d="M472 641h-363l20 86h469l-18 -76l-431 -651h-101z" />
    <glyph glyph-name="eight" unicode="8" horiz-adv-x="650" 
d="M264 -10q-47 0 -88.5 11.5t-73 33.5t-50 54.5t-18.5 73.5q0 44 17 79t46.5 62t69 46.5t85.5 31.5q-52 26 -82.5 62t-30.5 87q0 49 20.5 87.5t58 64.5t88.5 40t113 14q44 0 84 -9.5t70 -28t47.5 -46t17.5 -62.5q0 -38 -11 -68.5t-34 -55.5t-59 -45t-85 -38
q61 -26 94.5 -63.5t33.5 -90.5q0 -57 -23.5 -101.5t-65 -75t-99 -47t-125.5 -16.5zM286 76q41 0 76 9t61 26.5t40.5 43.5t14.5 59q0 27 -13 47.5t-34 36.5t-48.5 27.5t-57.5 20.5q-33 -8 -66.5 -21t-61 -32.5t-45 -46t-17.5 -60.5q0 -45 37 -77.5t114 -32.5zM376 416
q47 19 78 36.5t49.5 35.5t26 36t7.5 38q0 43 -37 66t-105 23q-75 0 -117 -30t-42 -78q0 -24 11.5 -43.5t31 -35t45 -27.5t52.5 -21z" />
    <glyph glyph-name="nine" unicode="9" horiz-adv-x="655" 
d="M190 -10q-33 0 -70.5 7t-62.5 18l21 92q25 -14 58 -22.5t78 -8.5q63 0 112.5 19.5t87 56.5t63 90t40.5 120q-32 -46 -86.5 -71.5t-134.5 -25.5q-43 0 -80 13t-64.5 38t-43.5 61t-16 82q0 57 24.5 107.5t66.5 88.5t98.5 60t120.5 22q61 0 104 -18.5t70.5 -50t40 -73.5
t12.5 -89q0 -43 -6.5 -98t-23.5 -112.5t-48 -112.5t-79.5 -98t-118 -69t-163.5 -26zM325 351q43 0 80 13.5t64 37t42.5 55.5t15.5 70q0 57 -34.5 90.5t-103.5 33.5q-42 0 -77.5 -12.5t-61.5 -36.5t-40.5 -58.5t-14.5 -77.5q0 -56 36 -85.5t94 -29.5z" />
    <glyph glyph-name="colon" unicode=":" horiz-adv-x="310" 
d="M192 60q0 -32 -19 -50.5t-53 -18.5t-53 18.5t-19 50.5t19 50.5t53 18.5t53 -18.5t19 -50.5zM277 484q0 -32 -19 -50.5t-53 -18.5t-53 18.5t-19 50.5t19 50.5t53 18.5t53 -18.5t19 -50.5z" />
    <glyph glyph-name="semicolon" unicode=";" horiz-adv-x="310" 
d="M-20 -122q50 19 83.5 44t50.5 68q-32 -1 -48 15t-16 41q0 37 23.5 60t61.5 23q28 0 49 -18t21 -55q0 -29 -11 -63.5t-35.5 -67t-64 -60.5t-97.5 -45zM267 484q0 -32 -19 -50.5t-53 -18.5t-53 18.5t-19 50.5t19 50.5t53 18.5t53 -18.5t19 -50.5z" />
    <glyph glyph-name="less" unicode="&#x3c;" 
d="M85 328v72l500 214v-90l-385 -158v-2l385 -158v-92z" />
    <glyph glyph-name="equal" unicode="=" 
d="M85 307h500v-86h-500v86zM85 507h500v-86h-500v86z" />
    <glyph glyph-name="greater" unicode="&#x3e;" 
d="M85 204l385 158v2l-385 158v92l500 -214v-72l-500 -214v90z" />
    <glyph glyph-name="question" unicode="?" horiz-adv-x="510" 
d="M242 210h-96l5 23q9 43 33 75t54.5 57t63 46t60 43t45 47.5t17.5 60.5q0 22 -10 38.5t-28 28t-42 17t-51 5.5q-49 0 -92 -13.5t-75 -30.5l22 96q60 23 103 28.5t75 5.5q44 0 81 -10t64 -29t42.5 -46.5t15.5 -63.5q0 -53 -18.5 -90t-47.5 -64.5t-63.5 -48.5t-65.5 -43
t-55 -48.5t-32 -63.5zM232 60q0 -32 -19 -50.5t-53 -18.5t-53 18.5t-19 50.5t19 50.5t53 18.5t53 -18.5t19 -50.5z" />
    <glyph glyph-name="at" unicode="@" horiz-adv-x="980" 
d="M431 -146q-84 0 -151 25t-114 70.5t-72.5 110t-25.5 143.5q0 104 38 193t106 154.5t162 103t207 37.5q76 0 139 -22.5t107 -62t68.5 -93.5t24.5 -116q0 -70 -23.5 -130.5t-64 -105t-94 -70t-112.5 -25.5q-21 0 -35.5 6t-23.5 16t-12.5 22.5t-3.5 25.5h-1
q-29 -35 -69 -52.5t-87 -17.5q-32 0 -57.5 12.5t-43.5 32.5t-27.5 45.5t-9.5 52.5q0 51 19.5 99.5t55 86.5t85 61t109.5 23q45 0 76.5 -17.5t43.5 -43.5h2l27 55h76l-106 -253q-3 -8 -9 -25t-6 -28q0 -12 9 -19.5t21 -7.5q37 0 70.5 19.5t59 53t40.5 79t15 98.5
q0 50 -20 91.5t-57 71.5t-88.5 47t-115.5 17q-95 0 -172 -31t-132 -85t-85 -128t-30 -160q0 -62 19 -114t56 -90t92.5 -59.5t129.5 -21.5q50 0 95.5 6t92.5 26l-18 -74q-14 -7 -35.5 -12.5t-46 -10t-50 -7t-48.5 -2.5zM428 140q39 0 71 15t54.5 40.5t34.5 58.5t12 69
q0 37 -25 59.5t-65 22.5q-45 0 -76.5 -18.5t-51 -46t-28.5 -58.5t-9 -56q0 -35 21.5 -60.5t61.5 -25.5z" />
    <glyph glyph-name="A" unicode="A" horiz-adv-x="690" 
d="M488 192h-323l-119 -192h-101l459 727h89l122 -727h-96zM218 278h257l-48 347h-2z" />
    <glyph glyph-name="B" unicode="B" horiz-adv-x="665" 
d="M150 86h140q53 0 90 7.5t60.5 24.5t34.5 45t11 69q0 103 -156 103h-123zM226 415h119q56 0 94 10t61 28t33 42.5t10 54.5q0 91 -123 91h-142zM130 0h-96l168 727h252q51 0 88 -11t60.5 -31.5t34.5 -48.5t11 -61q0 -87 -49 -136.5t-137 -60.5v-3q34 -5 58 -18t39 -32.5
t22 -43.5t7 -49q0 -36 -12 -76.5t-46 -75t-94 -57.5t-157 -23h-149z" />
    <glyph glyph-name="C" unicode="C" horiz-adv-x="670" 
d="M538 16q-15 -6 -37.5 -11t-45.5 -8.5t-45 -5t-37 -1.5q-73 0 -129 21.5t-94.5 60.5t-58 93t-19.5 120q0 83 28.5 164t84.5 145t140 103.5t194 39.5q27 0 53.5 -3.5t49.5 -8t41 -9.5t27 -9l-20 -88q-16 8 -38 14t-45 10t-43.5 6t-33.5 2q-89 0 -152 -30t-103.5 -80.5
t-59.5 -116.5t-19 -137q0 -99 53.5 -155t175.5 -56q32 0 70.5 5.5t83.5 22.5z" />
    <glyph glyph-name="D" unicode="D" horiz-adv-x="770" 
d="M151 86h104q105 0 177 30t116 80t63.5 115t19.5 135q0 49 -12 85.5t-38.5 61t-70 36.5t-106.5 12h-125zM133 0h-98l168 727h225q81 0 138.5 -19t95 -53.5t55 -83t17.5 -106.5q0 -110 -33.5 -196.5t-96.5 -146t-154 -91t-205 -31.5h-112z" />
    <glyph glyph-name="E" unicode="E" horiz-adv-x="595" 
d="M465 0h-333h-97l168 727h430l-20 -86h-334l-51 -223h304l-20 -86h-304l-57 -246h334z" />
    <glyph glyph-name="F" unicode="F" horiz-adv-x="550" 
d="M131 0h-96l168 727h410l-20 -86h-314l-51 -220h299l-20 -86h-299z" />
    <glyph glyph-name="G" unicode="G" horiz-adv-x="740" 
d="M570 290h-168l20 86h165h95l-79 -342q-42 -20 -98.5 -32t-121.5 -12q-68 0 -125 18.5t-98.5 55t-64.5 91t-23 125.5q0 89 29 171.5t87 146t143.5 101.5t199.5 38q26 0 53.5 -3t52 -7t44.5 -9.5t32 -9.5l-21 -90q-18 9 -41 15.5t-47 10.5t-47.5 5.5t-42.5 1.5
q-84 0 -147.5 -27.5t-106 -76t-63.5 -115.5t-21 -146q0 -47 12.5 -85.5t40 -66.5t70.5 -43t105 -15q11 0 26.5 0.5t32 2.5t32.5 4.5t29 7.5z" />
    <glyph glyph-name="H" unicode="H" horiz-adv-x="780" 
d="M615 0h-96l77 335h-388l-77 -335h-96l168 727h96l-71 -306h388l71 306h96z" />
    <glyph glyph-name="I" unicode="I" horiz-adv-x="296" 
d="M131 0h-96l168 727h96z" />
    <glyph glyph-name="J" unicode="J" horiz-adv-x="425" 
d="M-7 92q17 -7 39 -11.5t41 -4.5q29 0 50.5 5t38 18t27.5 35.5t19 56.5l124 536h96l-128 -553q-23 -98 -77 -141t-150 -43q-13 0 -28 1.5t-29 4.5t-25 6t-17 6z" />
    <glyph glyph-name="K" unicode="K" horiz-adv-x="680" 
d="M222 395l410 332h126l-439 -347l291 -380h-114l-281 365l-84 -365h-96l168 727h96z" />
    <glyph glyph-name="L" unicode="L" horiz-adv-x="570" 
d="M465 0h-430l168 727h96l-148 -641h334z" />
    <glyph glyph-name="M" unicode="M" horiz-adv-x="900" 
d="M735 0h-96l148 640h-2l-314 -490h-100l-90 490h-2l-148 -640h-96l168 727h153l87 -480l301 480h159z" />
    <glyph glyph-name="N" unicode="N" horiz-adv-x="780" 
d="M615 0h-109l-234 604h-2l-139 -604h-96l168 727h119l226 -593h2l137 593h96z" />
    <glyph glyph-name="O" unicode="O" horiz-adv-x="820" 
d="M359 76q79 0 140.5 33.5t102.5 88.5t62.5 125t21.5 143q0 86 -48 135.5t-143 49.5q-83 0 -142.5 -33.5t-98.5 -88t-57.5 -123.5t-18.5 -139q0 -42 11 -77.5t33 -60.5t56 -39t81 -14zM345 -10q-66 0 -116.5 20.5t-84.5 56t-51.5 83t-17.5 101.5q0 90 28.5 177.5t84 156
t138.5 110.5t191 42q133 0 201 -70t68 -191q0 -90 -29 -177.5t-85 -156t-138 -110.5t-189 -42z" />
    <glyph glyph-name="P" unicode="P" horiz-adv-x="625" 
d="M213 354h115q63 0 103.5 15.5t64 40.5t32.5 57t9 65q0 54 -33 81.5t-110 27.5h-115zM131 0h-96l168 727h220q217 0 217 -176q0 -133 -82 -208t-254 -75h-111z" />
    <glyph glyph-name="Q" unicode="Q" horiz-adv-x="820" 
d="M344 -10q-66 0 -116.5 20.5t-84.5 56t-51.5 83t-17.5 101.5q0 90 28.5 177.5t84 156t138.5 110.5t191 42q133 0 201 -70t68 -191q0 -77 -20.5 -151.5t-61 -137.5t-99.5 -111t-137 -70l140 -136h-128l-120 120h-6.5h-8.5zM358 76q79 0 140.5 33.5t102.5 88.5t62.5 125
t21.5 143q0 86 -48 135.5t-143 49.5q-83 0 -142.5 -33.5t-98.5 -88t-57.5 -123.5t-18.5 -139q0 -42 11 -77.5t33 -60.5t56 -39t81 -14z" />
    <glyph glyph-name="R" unicode="R" horiz-adv-x="660" 
d="M203 727h227q53 0 91.5 -11.5t63 -32.5t36.5 -50t12 -64q0 -40 -10.5 -78.5t-35 -70.5t-65 -55.5t-101.5 -32.5l139 -332h-104l-137 322h-114l-74 -322h-96zM225 408h137q81 0 123.5 33t42.5 108q0 43 -28.5 67.5t-95.5 24.5h-125z" />
    <glyph glyph-name="S" unicode="S" horiz-adv-x="580" 
d="M38 129q11 -9 30 -18t43 -17t52.5 -13t58.5 -5q94 0 138.5 38t44.5 106q0 23 -6.5 40.5t-21 32t-38.5 27.5t-59 27l-22 9q-61 25 -96.5 63.5t-35.5 97.5q0 49 20.5 90t58.5 69.5t92 44.5t120 16q47 0 90 -10t70 -23l-21 -90q-30 15 -74 26t-90 11q-82 0 -122.5 -32.5
t-40.5 -87.5q0 -17 4.5 -31t18 -27t37.5 -27t63 -32l24 -11q72 -32 102.5 -72t30.5 -91q0 -57 -21.5 -103.5t-60.5 -79t-94 -50t-121 -17.5q-60 0 -111.5 13.5t-83.5 33.5z" />
    <glyph glyph-name="T" unicode="T" horiz-adv-x="590" 
d="M278 0h-96l148 641h-227l20 86h550l-20 -86h-227z" />
    <glyph glyph-name="U" unicode="U" horiz-adv-x="750" 
d="M667 727h95l-98 -426q-20 -85 -48 -144.5t-70 -96.5t-99.5 -53.5t-135.5 -16.5q-50 0 -92 12.5t-72.5 36.5t-47.5 59t-17 80q0 15 1 31t3.5 37t7.5 47.5t13 61.5l85 372h97l-87 -375q-11 -49 -16.5 -91.5t-5.5 -65.5q0 -32 12 -55t32 -37t47 -20.5t57 -6.5q54 0 92.5 11
t66.5 38t47.5 71.5t35.5 112.5z" />
    <glyph glyph-name="V" unicode="V" horiz-adv-x="670" 
d="M113 727h98l78 -637h2l372 637h100l-434 -727h-118z" />
    <glyph glyph-name="W" unicode="W" horiz-adv-x="960" 
d="M123 727h94l12 -619h2l287 619h125l5 -619h2l301 619h92l-357 -727h-120l-7 626h-2l-293 -626h-120z" />
    <glyph glyph-name="X" unicode="X" horiz-adv-x="650" 
d="M471 0l-134 308l-267 -308h-118l343 378l-154 349h108l117 -285l243 285h113l-311 -347l166 -380h-106z" />
    <glyph glyph-name="Y" unicode="Y" horiz-adv-x="645" 
d="M305 0h-96l69 300l-170 427h105l130 -336l285 336h115l-369 -427z" />
    <glyph glyph-name="Z" unicode="Z" horiz-adv-x="610" 
d="M505 0h-530l20 86l535 555h-396l20 86h514l-20 -86l-535 -555h412z" />
    <glyph glyph-name="bracketleft" unicode="[" horiz-adv-x="365" 
d="M223 -160h-134h-86l222 960h220l-17 -70h-134l-189 -820h134z" />
    <glyph glyph-name="backslash" unicode="\" horiz-adv-x="520" 
d="M143 800h84l178 -960h-84z" />
    <glyph glyph-name="bracketright" unicode="]" horiz-adv-x="365" 
d="M158 -160h-86h-134l16 70h134l189 820h-134l17 70h220z" />
    <glyph glyph-name="asciicircum" unicode="^" horiz-adv-x="610" 
d="M570 380h-94l-147 267l-147 -267h-92l198 347h84z" />
    <glyph glyph-name="underscore" unicode="_" horiz-adv-x="500" 
d="M385 -215h-500l16 70h500z" />
    <glyph glyph-name="grave" unicode="`" horiz-adv-x="260" 
d="M-45 770h130l90 -140h-84z" />
    <glyph glyph-name="a" unicode="a" horiz-adv-x="669" 
d="M555 545h88l-126 -545h-92l19 79h-2q-44 -46 -92 -67t-109 -21q-52 0 -89.5 17.5t-62 47t-36 68t-11.5 79.5q0 61 18.5 123.5t57.5 113t99 82.5t143 32q40 0 69.5 -8t51 -20.5t34.5 -27.5t20 -29h2zM357 474q-53 0 -93 -20.5t-68 -56t-42 -82t-14 -98.5q0 -65 32 -105.5
t97 -40.5q57 0 99.5 23t71 60.5t43 83.5t14.5 93q0 30 -9.5 56.5t-27.5 45.5t-44 30t-59 11z" />
    <glyph glyph-name="b" unicode="b" horiz-adv-x="670" 
d="M108 0h-88l185 800h92l-77 -331h2q37 45 88.5 65t120.5 20q96 0 146 -49t50 -150q0 -76 -22.5 -142.5t-64.5 -115.5t-103 -77.5t-138 -28.5q-62 0 -104.5 20t-65.5 65h-3zM298 71q49 0 85 14.5t62 37.5t42.5 52t26 58t13 55.5t3.5 44.5q0 39 -9.5 66t-27 43.5t-42 24
t-55.5 7.5q-51 0 -93.5 -21.5t-72.5 -58t-46.5 -84.5t-16.5 -101q0 -68 34 -103t97 -35z" />
    <glyph glyph-name="c" unicode="c" horiz-adv-x="550" 
d="M434 14q-29 -11 -70 -17t-84 -6q-54 0 -97.5 14t-75 41t-48.5 66t-17 88q0 80 24 145t69.5 111.5t112.5 72t153 25.5q35 0 72.5 -6t70.5 -19l-19 -82q-12 7 -30 12t-37.5 8.5t-39.5 5t-36 1.5q-67 0 -113.5 -21t-75 -56t-41 -80t-12.5 -93q0 -73 43.5 -113t129.5 -40
q35 0 72.5 7t66.5 18z" />
    <glyph glyph-name="d" unicode="d" horiz-adv-x="670" 
d="M613 800h92l-185 -800h-88l18 76h-2q-37 -40 -86.5 -62.5t-114.5 -22.5q-49 0 -87 16.5t-64.5 44.5t-40 65.5t-13.5 79.5q0 75 21 140t62 113t101 76t139 28q63 0 108 -21.5t62 -63.5h2zM363 474q-57 0 -99.5 -20.5t-70 -55.5t-41.5 -82.5t-14 -101.5q0 -68 37.5 -105.5
t101.5 -37.5q56 0 98 23t69.5 60.5t41.5 84t14 93.5q0 65 -37 103.5t-100 38.5z" />
    <glyph glyph-name="e" unicode="e" horiz-adv-x="606" 
d="M466 30q-26 -15 -72.5 -27t-106.5 -12q-61 0 -107 16.5t-76.5 45.5t-46 68t-15.5 83q0 76 23.5 140.5t67 111t104 72.5t135.5 26q42 0 78 -9t63 -26.5t42.5 -44t15.5 -61.5q0 -16 -3.5 -34.5t-15 -37.5t-32.5 -36.5t-55.5 -31.5t-85.5 -23t-121 -10q-25 -1 -58 0.5
t-59 3.5q-5 -48 5 -81t32.5 -53.5t56.5 -29.5t77 -9q58 0 99.5 12t73.5 28zM158 318q33 -3 61 -4t55 -1q68 0 109 9t62.5 23t28.5 30.5t7 30.5q0 28 -28 48t-91 20q-79 0 -130.5 -41t-73.5 -115z" />
    <glyph glyph-name="f" unicode="f" horiz-adv-x="380" 
d="M417 465h-153l-107 -465h-92l107 465h-110l18 80h111l17 75q4 15 8.5 35t13.5 41t23.5 41.5t37.5 36.5t55.5 26t77.5 10q14 0 34.5 -2.5t36.5 -6.5l-18 -82q-11 5 -29 8t-32 3q-36 0 -57 -10t-33 -27.5t-18.5 -41t-12.5 -51.5l-13 -55h153z" />
    <glyph glyph-name="g" unicode="g" horiz-adv-x="670" 
d="M558 545h88l-120 -520q-30 -128 -105 -191t-211 -63q-29 0 -59 3t-57.5 8.5t-51 13t-39.5 16.5l19 84q12 -7 30.5 -15t42.5 -14.5t53 -11t61 -4.5q52 0 89.5 10t64 31t43 53t26.5 75l17 75h-1q-46 -55 -99.5 -75t-107.5 -20q-49 0 -86.5 15.5t-63 42.5t-38.5 64t-13 80
q0 73 22 137t64 112t104 75.5t143 27.5q59 0 103.5 -20t61.5 -67h2zM357 474q-55 0 -96 -20t-68 -55.5t-40.5 -82.5t-13.5 -101q0 -65 32 -100t97 -35q54 0 97 21t73 56t46 81.5t16 96.5q0 66 -38.5 102.5t-104.5 36.5z" />
    <glyph glyph-name="h" unicode="h" horiz-adv-x="655" 
d="M510 0h-92l61 264q6 27 11 57.5t5 51.5q0 50 -27.5 75.5t-78.5 25.5q-89 0 -141.5 -56.5t-77.5 -165.5l-58 -252h-92l185 800h92l-79 -341h2q38 50 91.5 72.5t110.5 22.5q39 0 70.5 -10.5t54 -30t34.5 -47.5t11 -64q0 -17 -2.5 -36t-5.5 -37t-6 -34.5t-6 -28.5z" />
    <glyph glyph-name="i" unicode="i" horiz-adv-x="262" 
d="M112 0h-92l126 545h92zM278 700q0 -25 -16.5 -41.5t-41.5 -16.5t-41.5 16.5t-16.5 41.5t16.5 41.5t41.5 16.5t41.5 -16.5t16.5 -41.5z" />
    <glyph glyph-name="j" unicode="j" horiz-adv-x="260" 
d="M-145 -147q10 -2 20 -4.5t22 -2.5q23 0 40.5 5t31 17.5t24 35.5t18.5 59l9 37l125 545h93l-130 -561q-15 -64 -33.5 -106t-44 -67t-60.5 -35t-82 -10q-12 0 -24 2t-27 5zM282 700q0 -25 -16.5 -41.5t-41.5 -16.5t-41.5 16.5t-16.5 41.5t16.5 41.5t41.5 16.5t41.5 -16.5
t16.5 -41.5z" />
    <glyph glyph-name="k" unicode="k" horiz-adv-x="575" 
d="M185 315l298 230h118l-323 -243l227 -302h-107l-218 295l-68 -295h-92l185 800h92z" />
    <glyph glyph-name="l" unicode="l" horiz-adv-x="262" 
d="M112 0h-92l185 800h92z" />
    <glyph glyph-name="m" unicode="m" horiz-adv-x="925" 
d="M780 0h-92l71 308q1 6 3.5 17.5t4 24.5t3 25t1.5 19q-1 42 -23 61t-60 19q-74 0 -115 -49t-64 -150l-63 -275h-92l68 295q2 10 4.5 23t4.5 26.5t3.5 25.5t1.5 21q0 39 -22 61t-63 22q-72 0 -112.5 -51t-63.5 -148l-63 -275h-92l126 545h88l-19 -81h3q30 43 73 66.5
t98 23.5q57 0 91.5 -25t43.5 -79q28 46 78.5 75t115.5 29t107 -33.5t43 -99.5q0 -8 -2 -23.5t-4.5 -32.5t-5.5 -33.5t-5 -26.5z" />
    <glyph glyph-name="n" unicode="n" horiz-adv-x="655" 
d="M510 0h-92l61 264q6 27 11 58t5 51q0 101 -106 101q-89 0 -141.5 -56.5t-77.5 -165.5l-58 -252h-92l125 545h89l-20 -86h2q38 50 93.5 72.5t112.5 22.5q79 0 125.5 -40t44.5 -112q-1 -34 -6.5 -66.5t-10.5 -56.5z" />
    <glyph glyph-name="o" unicode="o" horiz-adv-x="640" 
d="M271 71q59 0 102.5 25.5t71.5 66t41.5 90.5t13.5 98q0 61 -32 92t-104 31q-57 0 -99.5 -24t-71 -63.5t-42.5 -90t-14 -103.5q1 -63 35.5 -92.5t98.5 -29.5zM253 -9q-54 0 -93.5 14t-66 39.5t-39.5 60.5t-13 76q0 67 21.5 134t64 120t106.5 86t150 33q108 0 161 -48
t51 -142q0 -69 -22.5 -136t-66 -119.5t-107.5 -85t-146 -32.5z" />
    <glyph glyph-name="p" unicode="p" horiz-adv-x="670" 
d="M60 -225h-92l178 770h88l-18 -76h2q40 42 89.5 63.5t115.5 21.5q53 0 91.5 -14t64 -39.5t37.5 -61t12 -77.5q0 -67 -20 -133.5t-60.5 -119t-102 -85.5t-143.5 -33q-27 0 -53 4.5t-48.5 15t-40 27.5t-27.5 42h-3zM305 71q64 0 108 29t70 71t37.5 88.5t11.5 81.5
q0 27 -6.5 51t-22.5 42t-43 29t-68 11q-49 0 -90.5 -20.5t-71.5 -56t-47 -82.5t-17 -100q0 -24 7.5 -49.5t24 -46.5t43 -34.5t64.5 -13.5z" />
    <glyph glyph-name="q" unicode="q" horiz-adv-x="670" 
d="M558 545h88l-178 -770h-92l70 301h-2q-32 -42 -85.5 -63.5t-114.5 -21.5q-52 0 -90 17.5t-63 47t-37.5 68t-12.5 79.5q0 61 19 123.5t58.5 113t100.5 82.5t144 32q40 0 69.5 -8t51 -20.5t34.5 -27.5t20 -29h2zM360 474q-53 0 -94 -20.5t-69 -56t-43 -82t-15 -98.5
q0 -65 34 -105.5t99 -40.5q57 0 99.5 23t71 60.5t43 83.5t14.5 93q0 30 -9.5 56.5t-27.5 45.5t-44 30t-59 11z" />
    <glyph glyph-name="r" unicode="r" horiz-adv-x="410" 
d="M112 0h-92l126 545h88l-20 -86h2q30 48 72 71.5t100 23.5q14 0 33.5 -3t33.5 -8l-19 -84q-14 7 -31.5 10t-34.5 3q-58 0 -94 -23.5t-57 -56.5t-30.5 -67t-14.5 -55z" />
    <glyph glyph-name="s" unicode="s" horiz-adv-x="475" 
d="M20 111q31 -18 69 -29t86 -11q37 0 61.5 9t39.5 22.5t21 30t6 32.5q0 24 -16.5 40t-41.5 29t-54.5 25t-54.5 27.5t-41.5 38t-16.5 56.5q0 78 59 125.5t173 47.5q20 0 41 -2t40.5 -6t35.5 -8.5t26 -8.5l-19 -82q-29 14 -64 20.5t-64 6.5q-71 0 -100 -21.5t-29 -51.5
q0 -24 16.5 -39.5t41.5 -27.5t54 -24t54 -28.5t41.5 -40.5t16.5 -60q0 -88 -61.5 -139t-184.5 -51q-40 0 -82 10.5t-72 25.5z" />
    <glyph glyph-name="t" unicode="t" horiz-adv-x="415" 
d="M421 465h-157l-58 -248q-2 -6 -4 -17.5t-4 -24.5t-3.5 -26t-1.5 -22q0 -26 16 -41t55 -15q20 0 39 3.5t37 11.5l-19 -82q-19 -6 -43 -9.5t-47 -3.5q-37 0 -63 8.5t-42 23.5t-23 35.5t-7 44.5q0 20 5.5 51.5t12.5 60.5l58 250h-115l18 80h115l27 115l100 33l-35 -148h157z
" />
    <glyph glyph-name="u" unicode="u" horiz-adv-x="655" 
d="M141 545h92l-59 -257q-2 -9 -5 -25t-6 -34t-5 -34.5t-2 -26.5q0 -52 29 -74.5t78 -22.5q89 0 140.5 54t77.5 168l58 252h92l-126 -545h-88l20 86h-2q-22 -28 -47 -46t-51.5 -29t-53.5 -15.5t-53 -4.5q-47 0 -79 13.5t-51.5 36t-28.5 50.5t-9 57q0 15 1.5 33t4.5 36t6 35
t6 29z" />
    <glyph glyph-name="v" unicode="v" horiz-adv-x="530" 
d="M71 545h91l58 -455h2l266 455h93l-327 -545h-108z" />
    <glyph glyph-name="w" unicode="w" horiz-adv-x="800" 
d="M76 545h90l7 -447h2l231 447h107l27 -447h2l214 447h90l-272 -545h-107l-28 448h-2l-234 -448h-107z" />
    <glyph glyph-name="x" unicode="x" horiz-adv-x="540" 
d="M465 0h-102l-102 214l-203 -214h-113l282 285l-127 260h102l91 -194l176 194h107l-248 -260z" />
    <glyph glyph-name="y" unicode="y" horiz-adv-x="550" 
d="M15 -233q-20 0 -39 3.5t-32 8.5l19 82q11 -5 25.5 -9.5t31.5 -4.5q23 0 41.5 6t35 19t32 34t32.5 51l17 29l-107 559h92l81 -452h2l263 452h92l-332 -558q-38 -63 -67.5 -105.5t-58 -68t-59 -36t-69.5 -10.5z" />
    <glyph glyph-name="z" unicode="z" horiz-adv-x="510" 
d="M405 0h-430l20 86l400 379h-303l19 80h415l-20 -86l-401 -379h318z" />
    <glyph glyph-name="braceleft" unicode="{" horiz-adv-x="365" 
d="M203 -160q-57 0 -90.5 28t-33.5 78q0 17 3.5 39t8.5 43l23 101q1 5 3.5 15.5t5 23t4.5 25.5t2 22q0 63 -73 70l16 70q52 2 79.5 27.5t38.5 76.5l44 191q17 71 59 110.5t116 39.5h56l-16 -70h-36q-74 0 -93 -82l-47 -203q-14 -59 -48 -90.5t-78 -39.5v-2
q34 -11 51.5 -35.5t17.5 -59.5q0 -8 -2 -21.5t-5 -27t-5.5 -25t-3.5 -15.5l-27 -115q-5 -20 -6.5 -34t-1.5 -22q0 -24 16 -36t42 -12h36l-16 -70h-40z" />
    <glyph glyph-name="bar" unicode="|" horiz-adv-x="296" 
d="M216 -155h-86v955h86v-955z" />
    <glyph glyph-name="braceright" unicode="}" horiz-adv-x="365" 
d="M-66 -90h30q80 0 99 82l47 203q10 45 38 80.5t87 49.5v2q-32 11 -50.5 31.5t-18.5 55.5q0 11 2.5 28t4.5 25l36 155q2 9 5.5 26t3.5 32q0 50 -55 50h-40l17 70h51q55 0 85 -27.5t29 -78.5q0 -5 -1 -15t-2.5 -20.5t-3.5 -20.5t-3 -16l-35 -149q-2 -10 -4.5 -25.5
t-2.5 -23.5q0 -62 74 -69l-16 -70q-56 -3 -82 -30t-36 -74l-44 -191q-17 -71 -62.5 -110.5t-123.5 -39.5h-45z" />
    <glyph glyph-name="asciitilde" unicode="~" 
d="M580 361q-18 -34 -55.5 -56t-79.5 -22q-35 0 -65 12t-56 26t-50.5 26t-48.5 12t-49.5 -13t-47.5 -49l-38 70q18 34 55.5 56t79.5 22q35 0 65 -12t56 -26t50.5 -26t48.5 -12t49.5 13t47.5 49z" />
    <glyph glyph-name="uni00A0" unicode="&#xa0;" horiz-adv-x="300" 
 />
    <glyph glyph-name="exclamdown" unicode="&#xa1;" horiz-adv-x="420" 
d="M158.031 -181.911h-107.986l130.984 516.937h83.9893zM185.028 485.008q0 31.9961 18.998 50.4932q18.9971 18.498 52.9932 18.498t52.9932 -18.498q18.998 -18.4971 18.998 -50.4932t-18.998 -50.4941q-18.9971 -18.498 -52.9932 -18.498t-52.9932 18.498
q-18.998 18.498 -18.998 50.4941z" />
    <glyph glyph-name="cent" unicode="&#xa2;" horiz-adv-x="550" 
d="M217 -3q-81 14 -128 66.5t-47 136.5q0 73 20 134t58.5 106.5t95 74t129.5 36.5l26 111h72l-25 -108q32 -2 64.5 -8t61.5 -17l-19 -82q-12 7 -30 12t-37.5 8.5t-39.5 5t-36 1.5q-67 0 -113.5 -21t-75 -56t-41 -80t-12.5 -93q0 -73 43.5 -113t129.5 -40q35 0 72.5 7
t66.5 18l-18 -82q-27 -11 -66 -16.5t-80 -6.5l-25 -108h-72z" />
    <glyph glyph-name="sterling" unicode="&#xa3;" horiz-adv-x="610" 
d="M30 86h100l59 256h-100l18 76h100l15 66q29 127 101.5 190t200.5 63q32 0 67 -6.5t61 -15.5l-21 -88q-29 11 -60 17.5t-67 6.5q-80 0 -123 -40t-62 -121l-17 -72h185l-18 -76h-184l-59 -256h284l-20 -86h-480z" />
    <glyph glyph-name="currency" unicode="&#xa4;" 
d="M562 408q0 -50 -19.5 -94.5t-52.5 -79.5l57 -73l-64 -54l-57 74q-32 -20 -69.5 -31t-77.5 -11q-31 0 -60.5 10.5t-54.5 30.5l-86 -69l-46 58l84 69q-20 38 -20 87q0 42 21.5 90t60.5 89l-55 71l64 53l56 -73q30 17 65 27.5t74 10.5q32 0 62 -11t56 -33l86 71l45 -59
l-86 -71q17 -36 17 -82zM296 211q36 0 70.5 13.5t61.5 38t43.5 58t16.5 74.5q0 27 -9 50t-25 40t-39 26.5t-50 9.5q-38 0 -73.5 -15t-62.5 -40t-43 -58.5t-16 -69.5q0 -27 9.5 -50t26 -40t39.5 -27t51 -10z" />
    <glyph glyph-name="yen" unicode="&#xa5;" horiz-adv-x="640" 
d="M339 156l-36 -156h-96l36 156h-152l18 76h152l16 70h-152l17 76h112l-121 349h106l106 -335l254 335h114l-275 -349h104l-17 -76h-152l-16 -70h152l-18 -76h-152z" />
    <glyph glyph-name="brokenbar" unicode="&#xa6;" horiz-adv-x="297" 
d="M216 -160h-86v400h86v-400zM216 400h-86v400h86v-400z" />
    <glyph glyph-name="section" unicode="&#xa7;" horiz-adv-x="610" 
d="M204 -125q-22 0 -47 3.5t-49 9t-45.5 13t-36.5 15.5l19 91q41 -24 84 -35t84 -11q76 0 108.5 27.5t32.5 64.5q0 15 -5 26t-17 21.5t-32 21.5t-50 26l-59 29q-96 48 -96 127q0 48 32.5 86.5t87.5 67.5q-16 13 -33 35t-17 56q0 42 17 77t48.5 59.5t77 38t101.5 13.5
q21 0 43 -2.5t43.5 -7t40.5 -10t34 -11.5l-21 -90q-35 17 -75 26t-78 9q-61 0 -95 -21t-34 -65q0 -23 22.5 -44t76.5 -47l50 -25q21 -10 41 -22.5t35.5 -28.5t25.5 -36t10 -45q0 -19 -6 -39.5t-19.5 -41.5t-36 -42.5t-55.5 -40.5q21 -17 32.5 -38.5t11.5 -51.5
q0 -41 -18 -75t-51 -59.5t-79 -39.5t-103 -14zM358 185q11 9 22.5 21.5t21 27t15.5 31.5t6 35q0 23 -13.5 44.5t-54.5 42.5l-78 39q-33 -20 -55.5 -49t-22.5 -62q0 -30 19 -50t66 -42z" />
    <glyph glyph-name="dieresis" unicode="&#xa8;" horiz-adv-x="370" 
d="M350 700q0 -25 -16 -41t-41 -16t-41 16t-16 41t16 41t41 16t41 -16t16 -41zM134 700q0 -25 -16 -41t-41 -16t-41 16t-16 41t16 41t41 16t41 -16t16 -41z" />
    <glyph glyph-name="copyright" unicode="&#xa9;" horiz-adv-x="900" 
d="M496 157q-95 0 -148.5 55t-53.5 152q0 47 13.5 85.5t39 65.5t61.5 41.5t81 14.5q30 0 59.5 -3.5t53.5 -11.5v-68q-20 8 -47 12.5t-55 4.5q-63 0 -95.5 -36.5t-32.5 -104.5q0 -66 33.5 -103.5t96.5 -37.5q25 0 53.5 5t48.5 13v-68q-23 -8 -48.5 -12t-59.5 -4zM475 -10
q-78 0 -146 29t-118.5 79.5t-79.5 118.5t-29 146t29 146t79.5 118.5t118.5 79.5t146 29t146 -29t118.5 -79.5t79.5 -118.5t29 -146t-29 -146t-79.5 -118.5t-118.5 -79.5t-146 -29zM474 52q64 0 121 24.5t99.5 67t67 99t24.5 120.5t-24.5 120.5t-67 99t-99.5 67t-121 24.5
t-120.5 -24.5t-98.5 -67t-66.5 -99t-24.5 -120.5t24.5 -120.5t66.5 -99t98.5 -67t120.5 -24.5z" />
    <glyph glyph-name="ordfeminine" unicode="&#xaa;" horiz-adv-x="400" 
d="M331 524q-18 2 -36 2.5t-31 0.5q-35 0 -56.5 -5t-33 -13t-15.5 -19.5t-4 -23.5q0 -17 14 -30.5t45 -13.5q50 0 77.5 26t35.5 60zM374 364h-72l13 59h-1q-12 -14 -24.5 -26t-28.5 -20.5t-36.5 -13.5t-47.5 -5q-51 0 -79.5 28.5t-28.5 68.5q0 54 45.5 90t145.5 36
q20 0 41.5 -0.5t41.5 -2.5l3 10q2 7 3 16t1 14q0 22 -17.5 33.5t-57.5 11.5q-33 0 -66.5 -6.5t-59.5 -17.5l16 68q26 9 60.5 14.5t76.5 5.5q69 0 99 -24t30 -69q0 -13 -2.5 -29t-6.5 -33z" />
    <glyph glyph-name="guillemotleft" unicode="&#xab;" horiz-adv-x="670" 
d="M294 505h98l-206 -219l106 -211h-98l-112 215zM564 505h98l-206 -219l106 -211h-98l-112 215z" />
    <glyph glyph-name="logicalnot" unicode="&#xac;" 
d="M491 321h-406v86h500v-260h-94v174z" />
    <glyph glyph-name="uni00AD" unicode="&#xad;" horiz-adv-x="540" 
d="M438 250h-350l18 80h350z" />
    <glyph glyph-name="registered" unicode="&#xae;" horiz-adv-x="900" 
d="M475 -10q-78 0 -146 29t-118.5 79.5t-79.5 118.5t-29 146t29 146t79.5 118.5t118.5 79.5t146 29t146 -29t118.5 -79.5t79.5 -118.5t29 -146t-29 -146t-79.5 -118.5t-118.5 -79.5t-146 -29zM474 52q64 0 121 24.5t99.5 67t67 99t24.5 120.5t-24.5 120.5t-67 99t-99.5 67
t-121 24.5t-120.5 -24.5t-98.5 -67t-66.5 -99t-24.5 -120.5t24.5 -120.5t66.5 -99t98.5 -67t120.5 -24.5zM403 394h70q11 0 23 2.5t22.5 9t17 18.5t6.5 30t-6 29t-16 17t-22 7.5t-24 1.5h-71v-115zM653 163h-86l-114 175h-49v-175h-76v402h165q13 0 34.5 -2.5t42 -13.5
t35.5 -34t15 -63q0 -42 -27 -70t-62 -34z" />
    <glyph glyph-name="macron" unicode="&#xaf;" horiz-adv-x="350" 
d="M125 737h310l-17 -74h-310z" />
    <glyph glyph-name="degree" unicode="&#xb0;" horiz-adv-x="420" 
d="M385 587q0 -31 -12 -58.5t-32 -47.5t-47.5 -32t-58.5 -12t-58.5 12t-47.5 32t-32 47.5t-12 58.5t12 58.5t32 47.5t47.5 32t58.5 12t58.5 -12t47.5 -32t32 -47.5t12 -58.5zM323 587q0 37 -25.5 62.5t-62.5 25.5t-62.5 -25.5t-25.5 -62.5t25.5 -62.5t62.5 -25.5t62.5 25.5
t25.5 62.5z" />
    <glyph glyph-name="plusminus" unicode="&#xb1;" 
d="M292 396h-207v86h207v157h86v-157h207v-86h-207v-157h-86v157zM85 175h500v-86h-500v86z" />
    <glyph glyph-name="twosuperior" unicode="&#xb2;" horiz-adv-x="410" 
d="M87 443l116 75q53 34 83.5 57.5t45.5 41.5t19 32.5t4 31.5q0 26 -20 42.5t-58 16.5q-26 0 -57 -6.5t-64 -20.5l16 74q37 14 69.5 18.5t65.5 4.5q70 0 107.5 -30.5t37.5 -77.5q0 -27 -8 -51t-32.5 -51.5t-69 -60.5t-116.5 -78l-40 -25l-1 -2h215l-16 -70h-315z" />
    <glyph glyph-name="threesuperior" unicode="&#xb3;" horiz-adv-x="410" 
d="M187 354q-34 0 -68 6t-57 16l17 72q20 -10 51.5 -17t64.5 -7q123 0 123 82q0 54 -99 54h-55l15 62h50q62 0 89.5 20t27.5 49q0 23 -23.5 36t-63.5 13q-31 0 -58 -6t-54 -17l16 74q32 10 65.5 14.5t65.5 4.5q70 0 108 -26.5t38 -69.5q0 -45 -25.5 -76t-90.5 -47v-2
q83 -12 83 -83q0 -33 -17 -61t-46.5 -48.5t-69.5 -31.5t-87 -11z" />
    <glyph glyph-name="acute" unicode="&#xb4;" horiz-adv-x="260" 
d="M104 630h-86l90 140h132z" />
    <glyph glyph-name="mu" unicode="&#xb5;" horiz-adv-x="660" 
d="M146 545h92l-61 -264q-2 -9 -5 -23.5t-5.5 -29.5t-4.5 -29t-2 -21q0 -56 27.5 -81.5t73.5 -25.5q85 0 142.5 57.5t82.5 164.5l58 252h92l-126 -545h-88l20 86h-2q-42 -50 -93.5 -72.5t-110.5 -22.5q-79 0 -111 50h-2l-63 -266h-92z" />
    <glyph glyph-name="mu" unicode="&#x3bc;" horiz-adv-x="660" 
d="M146 545h92l-61 -264q-2 -9 -5 -23.5t-5.5 -29.5t-4.5 -29t-2 -21q0 -56 27.5 -81.5t73.5 -25.5q85 0 142.5 57.5t82.5 164.5l58 252h92l-126 -545h-88l20 86h-2q-42 -50 -93.5 -72.5t-110.5 -22.5q-79 0 -111 50h-2l-63 -266h-92z" />
    <glyph glyph-name="paragraph" unicode="&#xb6;" horiz-adv-x="595" 
d="M265 371q-89 0 -137 48.5t-48 124.5q0 45 13.5 76t34.5 51.5t47 31.5t51.5 16.5t47.5 6.5t35 1h211v-952h-70v888h-113v-888h-72v596z" />
    <glyph glyph-name="periodcentered" unicode="&#xb7;" horiz-adv-x="280" 
d="M166 269q-32 0 -50.5 17.5t-18.5 47.5t18.5 47.5t50.5 17.5t49.5 -17.5t17.5 -47.5t-17.5 -47.5t-49.5 -17.5z" />
    <glyph glyph-name="cedilla" unicode="&#xb8;" horiz-adv-x="260" 
d="M-17 -162q18 -9 34 -13.5t42 -4.5q28 0 47.5 13t19.5 36q0 17 -14.5 26t-40.5 9q-8 0 -19 -0.5t-18 -2.5l42 114h60l-22 -61q48 -2 72.5 -23t24.5 -56q0 -26 -12 -47t-32.5 -36t-47.5 -23.5t-57 -8.5q-35 0 -56.5 5t-36.5 13z" />
    <glyph glyph-name="onesuperior" unicode="&#xb9;" horiz-adv-x="410" 
d="M287 699l-101 -57l-28 63l172 95h70l-101 -436h-90z" />
    <glyph glyph-name="ordmasculine" unicode="&#xba;" horiz-adv-x="440" 
d="M253 422q35 0 60.5 14.5t42.5 38t25.5 53.5t8.5 62q0 72 -82 72q-34 0 -59.5 -14t-42.5 -37.5t-25.5 -53t-8.5 -59.5q0 -39 21.5 -57.5t59.5 -18.5zM238 358q-76 0 -113 34t-37 91q0 51 17 95.5t47.5 77t74 51.5t96.5 19q76 0 113 -34.5t37 -90.5q0 -51 -17 -95.5
t-48 -77t-74.5 -51.5t-95.5 -19z" />
    <glyph glyph-name="guillemotright" unicode="&#xbb;" horiz-adv-x="670" 
d="M109 75h-97l208 221l-109 209h97l114 -215zM379 75h-97l208 221l-109 209h97l114 -215z" />
    <glyph glyph-name="onequarter" unicode="&#xbc;" horiz-adv-x="920" 
d="M747 747h82l-649 -767h-82zM252 627l-101 -57l-28 63l172 95h70l-101 -436h-90zM686 162l44 191h-2l-179 -191h137zM670 92h-225l15 67l265 278h115l-64 -275h55l-16 -70h-55l-21 -91h-90z" />
    <glyph glyph-name="onehalf" unicode="&#xbd;" horiz-adv-x="920" 
d="M503 80l116 75q53 34 83.5 57.5t45.5 41.5t19 32.5t4 31.5q0 26 -20 42.5t-58 16.5q-26 0 -57 -6.5t-64 -20.5l16 74q37 14 69.5 18.5t65.5 4.5q70 0 107.5 -30.5t37.5 -77.5q0 -27 -8 -51t-32.5 -51.5t-69 -60.5t-116.5 -78l-40 -25l-1 -2h215l-16 -70h-315zM725 747h82
l-649 -767h-82zM251 627l-101 -57l-28 63l172 95h70l-101 -436h-90z" />
    <glyph glyph-name="threequarters" unicode="&#xbe;" horiz-adv-x="920" 
d="M161 282q-34 0 -68 6t-57 16l17 72q20 -10 51.5 -17t64.5 -7q123 0 123 82q0 54 -99 54h-55l15 62h50q62 0 89.5 20t27.5 49q0 23 -23.5 36t-63.5 13q-31 0 -58 -6t-54 -17l16 74q32 10 65.5 14.5t65.5 4.5q70 0 108 -26.5t38 -69.5q0 -45 -25.5 -76t-90.5 -47v-2
q83 -12 83 -83q0 -33 -17 -61t-46.5 -48.5t-69.5 -31.5t-87 -11zM769 747h82l-649 -767h-82zM686 162l44 191h-2l-179 -191h137zM670 92h-225l15 67l265 278h115l-64 -275h55l-16 -70h-55l-21 -91h-90z" />
    <glyph glyph-name="questiondown" unicode="&#xbf;" horiz-adv-x="510" 
d="M266.029 335.025h95.9883l-4.99902 -22.9971q-8.99902 -42.9951 -32.9961 -74.9912t-54.4932 -56.9922q-30.4961 -24.9971 -62.9922 -45.9951q-32.4961 -20.9971 -59.9932 -42.9941q-27.4961 -21.9971 -44.9941 -47.4941t-17.498 -60.4932q0 -21.9971 9.99902 -38.4951
q9.99805 -16.498 27.9961 -27.9961q17.998 -11.499 41.9951 -16.998q23.9971 -5.5 50.9941 -5.5q48.9932 0 91.9883 13.499q42.9951 13.498 74.9912 30.4961l-21.998 -95.9883q-59.9922 -22.9971 -102.987 -28.4971q-42.9941 -5.49902 -74.9902 -5.49902
q-43.9951 0 -80.9902 9.99902t-63.9922 28.9961q-26.9971 18.998 -42.4951 46.4941q-15.498 27.4971 -15.498 63.4932q0 52.9932 18.498 89.9883q18.498 36.9961 47.4941 64.4922q28.9961 27.4971 63.4922 48.4941q34.4961 20.998 65.4922 42.9951t54.9932 48.4941
q23.9971 26.4961 31.9961 63.4922zM276.028 485.008q0 31.9961 18.998 50.4932q18.9971 18.498 52.9932 18.498t52.9932 -18.498q18.998 -18.4971 18.998 -50.4932t-18.998 -50.4941q-18.9971 -18.498 -52.9932 -18.498t-52.9932 18.498q-18.998 18.498 -18.998 50.4941z
" />
    <glyph glyph-name="Agrave" unicode="&#xc0;" horiz-adv-x="690" 
d="M488 192h-323l-119 -192h-101l459 727h89l122 -727h-96zM218 278h257l-48 347h-2zM539 790h-88l-132 140h134z" />
    <glyph glyph-name="Aacute" unicode="&#xc1;" horiz-adv-x="690" 
d="M488 192h-323l-119 -192h-101l459 727h89l122 -727h-96zM218 278h257l-48 347h-2zM498 790h-88l86 140h134z" />
    <glyph glyph-name="Acircumflex" unicode="&#xc2;" horiz-adv-x="690" 
d="M488 192h-323l-119 -192h-101l459 727h89l122 -727h-96zM218 278h257l-48 347h-2zM637 790h-91l-62 81l-100 -81h-97l152 140h110z" />
    <glyph glyph-name="Atilde" unicode="&#xc3;" horiz-adv-x="690" 
d="M488 192h-323l-119 -192h-101l459 727h89l122 -727h-96zM218 278h257l-48 347h-2zM661 916q-4 -49 -32 -79t-73 -30q-26 0 -47.5 8t-39 17t-32 17t-27.5 8q-11 0 -23.5 -10t-16.5 -40l-69 15q4 49 32 79t73 30q26 0 47.5 -8t39 -17t32 -17t27.5 -8q11 0 23.5 10t16.5 40z
" />
    <glyph glyph-name="Adieresis" unicode="&#xc4;" horiz-adv-x="690" 
d="M488 192h-323l-119 -192h-101l459 727h89l122 -727h-96zM218 278h257l-48 347h-2zM653 860q0 -26 -16 -42t-42 -16t-42 16t-16 42t16 42t42 16t42 -16t16 -42zM419 860q0 -26 -16 -42t-42 -16t-42 16t-16 42t16 42t42 16t42 -16t16 -42z" />
    <glyph glyph-name="Aring" unicode="&#xc5;" horiz-adv-x="690" 
d="M488 192h-323l-119 -192h-101l459 727h89l122 -727h-96zM218 278h257l-48 347h-2zM467 808q26 0 45.5 17t19.5 43q0 18 -11.5 31t-31.5 13q-27 0 -45.5 -18t-18.5 -42q0 -18 11.5 -31t30.5 -13zM456 752q-40 0 -64 26.5t-24 64.5q0 26 11 49t30 40t43.5 26.5t50.5 9.5
q39 0 63 -26.5t24 -64.5q0 -26 -11 -49t-29.5 -40t-43 -26.5t-50.5 -9.5z" />
    <glyph glyph-name="AE" unicode="&#xc6;" horiz-adv-x="1020" 
d="M524 278l82 354h-4l-307 -354h229zM581 727h465l-20 -86h-322l-51 -223h300l-20 -86h-300l-57 -246h330l-20 -86h-330h-96l44 192h-280l-168 -192h-111z" />
    <glyph glyph-name="Ccedilla" unicode="&#xc7;" horiz-adv-x="670" 
d="M222 -162q18 -9 34 -13.5t42 -4.5q28 0 47.5 13t19.5 36q0 17 -14.5 26t-40.5 9q-8 0 -19 -0.5t-18 -2.5l34 94q-57 9 -101 34t-73.5 62.5t-45 86.5t-15.5 107q0 83 28.5 164t84.5 145t140 103.5t194 39.5q27 0 53.5 -3.5t49.5 -8t41 -9.5t27 -9l-20 -88q-16 8 -38 14
t-45 10t-43.5 6t-33.5 2q-89 0 -152 -30t-103.5 -80.5t-59.5 -116.5t-19 -137q0 -99 53.5 -155t175.5 -56q32 0 70.5 5.5t83.5 22.5l-21 -88q-15 -6 -37.5 -11t-45.5 -8.5t-45 -5t-37 -1.5h-7l-13 -36q48 -2 72.5 -23t24.5 -56q0 -26 -12 -47t-32.5 -36t-47.5 -23.5
t-57 -8.5q-35 0 -56.5 5t-36.5 13z" />
    <glyph glyph-name="Egrave" unicode="&#xc8;" horiz-adv-x="595" 
d="M465 0h-333h-97l168 727h430l-20 -86h-334l-51 -223h304l-20 -86h-304l-57 -246h334zM509 790h-88l-132 140h134z" />
    <glyph glyph-name="Eacute" unicode="&#xc9;" horiz-adv-x="595" 
d="M465 0h-333h-97l168 727h430l-20 -86h-334l-51 -223h304l-20 -86h-304l-57 -246h334zM453 790h-88l86 140h134z" />
    <glyph glyph-name="Ecircumflex" unicode="&#xca;" horiz-adv-x="595" 
d="M465 0h-333h-97l168 727h430l-20 -86h-334l-51 -223h304l-20 -86h-304l-57 -246h334zM607 790h-91l-62 81l-100 -81h-97l152 140h110z" />
    <glyph glyph-name="Edieresis" unicode="&#xcb;" horiz-adv-x="595" 
d="M465 0h-333h-97l168 727h430l-20 -86h-334l-51 -223h304l-20 -86h-304l-57 -246h334zM623 860q0 -26 -16 -42t-42 -16t-42 16t-16 42t16 42t42 16t42 -16t16 -42zM389 860q0 -26 -16 -42t-42 -16t-42 16t-16 42t16 42t42 16t42 -16t16 -42z" />
    <glyph glyph-name="Iacute" unicode="&#xcd;" horiz-adv-x="296" 
d="M131 0h-96l168 727h96zM303 790h-88l86 140h134z" />
    <glyph glyph-name="Icircumflex" unicode="&#xce;" horiz-adv-x="296" 
d="M131 0h-96l168 727h96zM441 790h-91l-62 81l-100 -81h-97l152 140h110z" />
    <glyph glyph-name="Igrave" unicode="&#xcc;" horiz-adv-x="296" 
d="M131 0h-96l168 727h96zM342 790h-88l-132 140h134z" />
    <glyph glyph-name="Idieresis" unicode="&#xcf;" horiz-adv-x="296" 
d="M131 0h-96l168 727h96zM456 860q0 -26 -16 -42t-42 -16t-42 16t-16 42t16 42t42 16t42 -16t16 -42zM222 860q0 -26 -16 -42t-42 -16t-42 16t-16 42t16 42t42 16t42 -16t16 -42z" />
    <glyph glyph-name="Eth" unicode="&#xd0;" horiz-adv-x="785" 
d="M50 0l76 332h-94l20 86h94l72 309h225q81 0 138.5 -19t95 -53.5t55 -83t17.5 -106.5q0 -110 -33.5 -196.5t-96.5 -146t-154 -91t-205 -31.5h-113h-97zM242 418h200l-20 -86h-200l-56 -246h104q105 0 177 30t116 80t63.5 115t19.5 135q0 49 -12 85.5t-38.5 61t-70 36.5
t-106.5 12h-125z" />
    <glyph glyph-name="Ntilde" unicode="&#xd1;" horiz-adv-x="780" 
d="M615 0h-109l-234 604h-2l-139 -604h-96l168 727h119l226 -593h2l137 593h96zM706 916q-4 -49 -32 -79t-73 -30q-26 0 -47.5 8t-39 17t-32 17t-27.5 8q-11 0 -23.5 -10t-16.5 -40l-69 15q4 49 32 79t73 30q26 0 47.5 -8t39 -17t32 -17t27.5 -8q11 0 23.5 10t16.5 40z" />
    <glyph glyph-name="Ograve" unicode="&#xd2;" horiz-adv-x="820" 
d="M359 76q79 0 140.5 33.5t102.5 88.5t62.5 125t21.5 143q0 86 -48 135.5t-143 49.5q-83 0 -142.5 -33.5t-98.5 -88t-57.5 -123.5t-18.5 -139q0 -42 11 -77.5t33 -60.5t56 -39t81 -14zM345 -10q-66 0 -116.5 20.5t-84.5 56t-51.5 83t-17.5 101.5q0 90 28.5 177.5t84 156
t138.5 110.5t191 42q133 0 201 -70t68 -191q0 -90 -29 -177.5t-85 -156t-138 -110.5t-189 -42zM604 790h-88l-132 140h134z" />
    <glyph glyph-name="Oacute" unicode="&#xd3;" horiz-adv-x="820" 
d="M359 76q79 0 140.5 33.5t102.5 88.5t62.5 125t21.5 143q0 86 -48 135.5t-143 49.5q-83 0 -142.5 -33.5t-98.5 -88t-57.5 -123.5t-18.5 -139q0 -42 11 -77.5t33 -60.5t56 -39t81 -14zM345 -10q-66 0 -116.5 20.5t-84.5 56t-51.5 83t-17.5 101.5q0 90 28.5 177.5t84 156
t138.5 110.5t191 42q133 0 201 -70t68 -191q0 -90 -29 -177.5t-85 -156t-138 -110.5t-189 -42zM563 790h-88l86 140h134z" />
    <glyph glyph-name="Ocircumflex" unicode="&#xd4;" horiz-adv-x="820" 
d="M359 76q79 0 140.5 33.5t102.5 88.5t62.5 125t21.5 143q0 86 -48 135.5t-143 49.5q-83 0 -142.5 -33.5t-98.5 -88t-57.5 -123.5t-18.5 -139q0 -42 11 -77.5t33 -60.5t56 -39t81 -14zM345 -10q-66 0 -116.5 20.5t-84.5 56t-51.5 83t-17.5 101.5q0 90 28.5 177.5t84 156
t138.5 110.5t191 42q133 0 201 -70t68 -191q0 -90 -29 -177.5t-85 -156t-138 -110.5t-189 -42zM702 790h-91l-62 81l-100 -81h-97l152 140h110z" />
    <glyph glyph-name="Otilde" unicode="&#xd5;" horiz-adv-x="820" 
d="M359 76q79 0 140.5 33.5t102.5 88.5t62.5 125t21.5 143q0 86 -48 135.5t-143 49.5q-83 0 -142.5 -33.5t-98.5 -88t-57.5 -123.5t-18.5 -139q0 -42 11 -77.5t33 -60.5t56 -39t81 -14zM345 -10q-66 0 -116.5 20.5t-84.5 56t-51.5 83t-17.5 101.5q0 90 28.5 177.5t84 156
t138.5 110.5t191 42q133 0 201 -70t68 -191q0 -90 -29 -177.5t-85 -156t-138 -110.5t-189 -42zM726 916q-4 -49 -32 -79t-73 -30q-26 0 -47.5 8t-39 17t-32 17t-27.5 8q-11 0 -23.5 -10t-16.5 -40l-69 15q4 49 32 79t73 30q26 0 47.5 -8t39 -17t32 -17t27.5 -8q11 0 23.5 10
t16.5 40z" />
    <glyph glyph-name="Odieresis" unicode="&#xd6;" horiz-adv-x="820" 
d="M359 76q79 0 140.5 33.5t102.5 88.5t62.5 125t21.5 143q0 86 -48 135.5t-143 49.5q-83 0 -142.5 -33.5t-98.5 -88t-57.5 -123.5t-18.5 -139q0 -42 11 -77.5t33 -60.5t56 -39t81 -14zM345 -10q-66 0 -116.5 20.5t-84.5 56t-51.5 83t-17.5 101.5q0 90 28.5 177.5t84 156
t138.5 110.5t191 42q133 0 201 -70t68 -191q0 -90 -29 -177.5t-85 -156t-138 -110.5t-189 -42zM718 860q0 -26 -16 -42t-42 -16t-42 16t-16 42t16 42t42 16t42 -16t16 -42zM484 860q0 -26 -16 -42t-42 -16t-42 16t-16 42t16 42t42 16t42 -16t16 -42z" />
    <glyph glyph-name="multiply" unicode="&#xd7;" 
d="M115 202l162 162l-162 162l58 58l162 -162l162 162l58 -58l-162 -162l162 -162l-58 -58l-162 162l-162 -162z" />
    <glyph glyph-name="Oslash" unicode="&#xd8;" horiz-adv-x="820" 
d="M345 -10q-60 0 -107 17t-81 47l-87 -86l-43 39l92 91q-44 65 -44 153q0 90 28.5 177.5t84 156t138.5 110.5t191 42q62 0 109 -16t81 -45l83 81l44 -39l-88 -86q40 -65 40 -156q0 -90 -29 -177.5t-85 -156t-138 -110.5t-189 -42zM178 267q0 -27 4 -51t13 -44l439 432
q-50 47 -139 47q-83 0 -142.5 -33.5t-98.5 -88t-57.5 -123.5t-18.5 -139zM359 76q79 0 140.5 33.5t102.5 88.5t62.5 125t21.5 143q0 51 -18 90l-441 -433q47 -47 132 -47z" />
    <glyph glyph-name="Ugrave" unicode="&#xd9;" horiz-adv-x="750" 
d="M667 727h95l-98 -426q-20 -85 -48 -144.5t-70 -96.5t-99.5 -53.5t-135.5 -16.5q-50 0 -92 12.5t-72.5 36.5t-47.5 59t-17 80q0 15 1 31t3.5 37t7.5 47.5t13 61.5l85 372h97l-87 -375q-11 -49 -16.5 -91.5t-5.5 -65.5q0 -32 12 -55t32 -37t47 -20.5t57 -6.5q54 0 92.5 11
t66.5 38t47.5 71.5t35.5 112.5zM601 790h-88l-132 140h134z" />
    <glyph glyph-name="Uacute" unicode="&#xda;" horiz-adv-x="750" 
d="M667 727h95l-98 -426q-20 -85 -48 -144.5t-70 -96.5t-99.5 -53.5t-135.5 -16.5q-50 0 -92 12.5t-72.5 36.5t-47.5 59t-17 80q0 15 1 31t3.5 37t7.5 47.5t13 61.5l85 372h97l-87 -375q-11 -49 -16.5 -91.5t-5.5 -65.5q0 -32 12 -55t32 -37t47 -20.5t57 -6.5q54 0 92.5 11
t66.5 38t47.5 71.5t35.5 112.5zM515 790h-88l86 140h134z" />
    <glyph glyph-name="Ucircumflex" unicode="&#xdb;" horiz-adv-x="750" 
d="M667 727h95l-98 -426q-20 -85 -48 -144.5t-70 -96.5t-99.5 -53.5t-135.5 -16.5q-50 0 -92 12.5t-72.5 36.5t-47.5 59t-17 80q0 15 1 31t3.5 37t7.5 47.5t13 61.5l85 372h97l-87 -375q-11 -49 -16.5 -91.5t-5.5 -65.5q0 -32 12 -55t32 -37t47 -20.5t57 -6.5q54 0 92.5 11
t66.5 38t47.5 71.5t35.5 112.5zM669 790h-91l-62 81l-100 -81h-97l152 140h110z" />
    <glyph glyph-name="Udieresis" unicode="&#xdc;" horiz-adv-x="750" 
d="M667 727h95l-98 -426q-20 -85 -48 -144.5t-70 -96.5t-99.5 -53.5t-135.5 -16.5q-50 0 -92 12.5t-72.5 36.5t-47.5 59t-17 80q0 15 1 31t3.5 37t7.5 47.5t13 61.5l85 372h97l-87 -375q-11 -49 -16.5 -91.5t-5.5 -65.5q0 -32 12 -55t32 -37t47 -20.5t57 -6.5q54 0 92.5 11
t66.5 38t47.5 71.5t35.5 112.5zM675 860q0 -26 -16 -42t-42 -16t-42 16t-16 42t16 42t42 16t42 -16t16 -42zM441 860q0 -26 -16 -42t-42 -16t-42 16t-16 42t16 42t42 16t42 -16t16 -42z" />
    <glyph glyph-name="Yacute" unicode="&#xdd;" horiz-adv-x="645" 
d="M305 0h-96l69 300l-170 427h105l130 -336l285 336h115l-369 -427zM453 790h-88l86 140h134z" />
    <glyph glyph-name="Thorn" unicode="&#xde;" horiz-adv-x="626" 
d="M191 256h110q62 0 102.5 12.5t64.5 34.5t34 52.5t10 66.5q0 49 -33 75.5t-108 26.5h-118zM132 0h-96l168 727h96l-27 -117h127q108 0 161.5 -43.5t53.5 -125.5q0 -128 -81 -199.5t-248 -71.5h-115z" />
    <glyph glyph-name="germandbls" unicode="&#xdf;" horiz-adv-x="665" 
d="M225 87q43 -16 98 -16q42 0 76.5 12.5t60 38t39.5 64.5t14 93q0 33 -10 54.5t-28.5 34t-44 17.5t-56.5 5h-58l19 80h48q34 0 65 8t54.5 27t37.5 50.5t14 77.5q0 44 -32.5 70.5t-87.5 26.5q-48 0 -80.5 -12.5t-55 -37t-37 -62t-26.5 -87.5l-123 -531h-92l119 515
q16 72 40 127t61 92.5t90.5 56.5t129.5 19q39 0 74 -10t61 -31t41 -52t15 -73q0 -74 -38 -128t-126 -81l-1 -3q53 -12 88 -47t35 -94q0 -60 -17 -114t-53 -95.5t-93 -66t-138 -24.5q-29 0 -55 4t-47 10z" />
    <glyph glyph-name="agrave" unicode="&#xe0;" horiz-adv-x="669" 
d="M555 545h88l-126 -545h-92l19 79h-2q-44 -46 -92 -67t-109 -21q-52 0 -89.5 17.5t-62 47t-36 68t-11.5 79.5q0 61 18.5 123.5t57.5 113t99 82.5t143 32q40 0 69.5 -8t51 -20.5t34.5 -27.5t20 -29h2zM357 474q-53 0 -93 -20.5t-68 -56t-42 -82t-14 -98.5q0 -65 32 -105.5
t97 -40.5q57 0 99.5 23t71 60.5t43 83.5t14.5 93q0 30 -9.5 56.5t-27.5 45.5t-44 30t-59 11zM232 770h130l90 -140h-84z" />
    <glyph glyph-name="aacute" unicode="&#xe1;" horiz-adv-x="669" 
d="M555 545h88l-126 -545h-92l19 79h-2q-44 -46 -92 -67t-109 -21q-52 0 -89.5 17.5t-62 47t-36 68t-11.5 79.5q0 61 18.5 123.5t57.5 113t99 82.5t143 32q40 0 69.5 -8t51 -20.5t34.5 -27.5t20 -29h2zM357 474q-53 0 -93 -20.5t-68 -56t-42 -82t-14 -98.5q0 -65 32 -105.5
t97 -40.5q57 0 99.5 23t71 60.5t43 83.5t14.5 93q0 30 -9.5 56.5t-27.5 45.5t-44 30t-59 11zM414 630h-86l90 140h132z" />
    <glyph glyph-name="acircumflex" unicode="&#xe2;" horiz-adv-x="669" 
d="M555 545h88l-126 -545h-92l19 79h-2q-44 -46 -92 -67t-109 -21q-52 0 -89.5 17.5t-62 47t-36 68t-11.5 79.5q0 61 18.5 123.5t57.5 113t99 82.5t143 32q40 0 69.5 -8t51 -20.5t34.5 -27.5t20 -29h2zM357 474q-53 0 -93 -20.5t-68 -56t-42 -82t-14 -98.5q0 -65 32 -105.5
t97 -40.5q57 0 99.5 23t71 60.5t43 83.5t14.5 93q0 30 -9.5 56.5t-27.5 45.5t-44 30t-59 11zM550 630h-88l-65 85l-105 -85h-92l152 140h110z" />
    <glyph glyph-name="atilde" unicode="&#xe3;" horiz-adv-x="669" 
d="M555 545h88l-126 -545h-92l19 79h-2q-44 -46 -92 -67t-109 -21q-52 0 -89.5 17.5t-62 47t-36 68t-11.5 79.5q0 61 18.5 123.5t57.5 113t99 82.5t143 32q40 0 69.5 -8t51 -20.5t34.5 -27.5t20 -29h2zM357 474q-53 0 -93 -20.5t-68 -56t-42 -82t-14 -98.5q0 -65 32 -105.5
t97 -40.5q57 0 99.5 23t71 60.5t43 83.5t14.5 93q0 30 -9.5 56.5t-27.5 45.5t-44 30t-59 11zM566 745q-4 -49 -31 -77t-69 -28q-26 0 -47.5 8t-39 17t-32 17t-27.5 8q-11 0 -23.5 -10t-16.5 -40l-64 15q4 49 31 77t69 28q26 0 47.5 -8t39 -17t32 -17t27.5 -8q11 0 23.5 10
t16.5 40z" />
    <glyph glyph-name="adieresis" unicode="&#xe4;" horiz-adv-x="669" 
d="M555 545h88l-126 -545h-92l19 79h-2q-44 -46 -92 -67t-109 -21q-52 0 -89.5 17.5t-62 47t-36 68t-11.5 79.5q0 61 18.5 123.5t57.5 113t99 82.5t143 32q40 0 69.5 -8t51 -20.5t34.5 -27.5t20 -29h2zM357 474q-53 0 -93 -20.5t-68 -56t-42 -82t-14 -98.5q0 -65 32 -105.5
t97 -40.5q57 0 99.5 23t71 60.5t43 83.5t14.5 93q0 30 -9.5 56.5t-27.5 45.5t-44 30t-59 11zM576 700q0 -25 -16 -41t-41 -16t-41 16t-16 41t16 41t41 16t41 -16t16 -41zM360 700q0 -25 -16 -41t-41 -16t-41 16t-16 41t16 41t41 16t41 -16t16 -41z" />
    <glyph glyph-name="aring" unicode="&#xe5;" horiz-adv-x="669" 
d="M555 545h88l-126 -545h-92l19 79h-2q-44 -46 -92 -67t-109 -21q-52 0 -89.5 17.5t-62 47t-36 68t-11.5 79.5q0 61 18.5 123.5t57.5 113t99 82.5t143 32q40 0 69.5 -8t51 -20.5t34.5 -27.5t20 -29h2zM357 474q-53 0 -93 -20.5t-68 -56t-42 -82t-14 -98.5q0 -65 32 -105.5
t97 -40.5q57 0 99.5 23t71 60.5t43 83.5t14.5 93q0 30 -9.5 56.5t-27.5 45.5t-44 30t-59 11zM400 648q27 0 46 17t19 43q0 18 -13 31t-32 13q-26 0 -44 -17.5t-18 -40.5q0 -18 11 -32t31 -14zM389 594q-40 0 -63 26.5t-23 62.5q0 26 11 48.5t29 39t41.5 26t48.5 9.5
q39 0 63.5 -25.5t24.5 -63.5q0 -26 -10 -48.5t-28 -39t-42 -26t-52 -9.5z" />
    <glyph glyph-name="ae" unicode="&#xe6;" horiz-adv-x="963" 
d="M823 30q-26 -15 -72.5 -27t-106.5 -12q-85 0 -139.5 30t-81.5 80q-26 -34 -54.5 -55.5t-58.5 -33.5t-62.5 -16.5t-67.5 -4.5q-38 0 -69 12t-53.5 32.5t-34.5 47.5t-12 57q0 185 290 185q32 0 64.5 -2.5t55.5 -4.5l5 21q2 8 5 24.5t3 27.5q0 15 -5.5 29.5t-20.5 26.5
t-40 19.5t-62 7.5q-94 0 -170 -36l19 86q42 16 87 23t96 7q72 0 112 -18t63 -58q42 36 96.5 56t119.5 20q42 0 78 -9t63 -26.5t42.5 -44t15.5 -61.5q0 -16 -3.5 -34.5t-15 -37.5t-32.5 -36.5t-55.5 -31.5t-85.5 -23t-121 -10q-25 -1 -58.5 0.5t-58.5 3.5q-5 -48 5 -81
t32.5 -53.5t56.5 -29.5t77 -9q58 0 99.5 12t73.5 28zM406 250q-29 3 -60.5 4t-48.5 1q-65 0 -102 -10.5t-56 -26.5t-24 -34t-5 -34q0 -12 5 -25.5t17 -25.5t32 -20t49 -8q74 0 121.5 37.5t62.5 104.5zM515 318q33 -3 61 -4t55 -1q68 0 109 9t62.5 23t28.5 30.5t7 30.5
q0 28 -28 48t-91 20q-79 0 -130.5 -41t-73.5 -115z" />
    <glyph glyph-name="ccedilla" unicode="&#xe7;" horiz-adv-x="550" 
d="M138 -162q18 -9 34 -13.5t42 -4.5q28 0 47.5 13t19.5 36q0 17 -14.5 26t-40.5 9q-8 0 -19 -0.5t-18 -2.5l34 95q-84 13 -132.5 66t-48.5 138q0 80 24 145t69.5 111.5t112.5 72t153 25.5q35 0 72.5 -6t70.5 -19l-19 -82q-12 7 -30 12t-37.5 8.5t-39.5 5t-36 1.5
q-67 0 -113.5 -21t-75 -56t-41 -80t-12.5 -93q0 -73 43.5 -113t129.5 -40q35 0 72.5 7t66.5 18l-18 -82q-29 -11 -69.5 -17t-82.5 -6l-13 -37q48 -2 72.5 -23t24.5 -56q0 -26 -12 -47t-32.5 -36t-47.5 -23.5t-57 -8.5q-35 0 -56.5 5t-36.5 13z" />
    <glyph glyph-name="egrave" unicode="&#xe8;" horiz-adv-x="606" 
d="M466 30q-26 -15 -72.5 -27t-106.5 -12q-61 0 -107 16.5t-76.5 45.5t-46 68t-15.5 83q0 76 23.5 140.5t67 111t104 72.5t135.5 26q42 0 78 -9t63 -26.5t42.5 -44t15.5 -61.5q0 -16 -3.5 -34.5t-15 -37.5t-32.5 -36.5t-55.5 -31.5t-85.5 -23t-121 -10q-25 -1 -58 0.5
t-59 3.5q-5 -48 5 -81t32.5 -53.5t56.5 -29.5t77 -9q58 0 99.5 12t73.5 28zM158 318q33 -3 61 -4t55 -1q68 0 109 9t62.5 23t28.5 30.5t7 30.5q0 28 -28 48t-91 20q-79 0 -130.5 -41t-73.5 -115zM247 770h130l90 -140h-84z" />
    <glyph glyph-name="eacute" unicode="&#xe9;" horiz-adv-x="606" 
d="M466 30q-26 -15 -72.5 -27t-106.5 -12q-61 0 -107 16.5t-76.5 45.5t-46 68t-15.5 83q0 76 23.5 140.5t67 111t104 72.5t135.5 26q42 0 78 -9t63 -26.5t42.5 -44t15.5 -61.5q0 -16 -3.5 -34.5t-15 -37.5t-32.5 -36.5t-55.5 -31.5t-85.5 -23t-121 -10q-25 -1 -58 0.5
t-59 3.5q-5 -48 5 -81t32.5 -53.5t56.5 -29.5t77 -9q58 0 99.5 12t73.5 28zM158 318q33 -3 61 -4t55 -1q68 0 109 9t62.5 23t28.5 30.5t7 30.5q0 28 -28 48t-91 20q-79 0 -130.5 -41t-73.5 -115zM419 630h-86l90 140h132z" />
    <glyph glyph-name="ecircumflex" unicode="&#xea;" horiz-adv-x="606" 
d="M466 30q-26 -15 -72.5 -27t-106.5 -12q-61 0 -107 16.5t-76.5 45.5t-46 68t-15.5 83q0 76 23.5 140.5t67 111t104 72.5t135.5 26q42 0 78 -9t63 -26.5t42.5 -44t15.5 -61.5q0 -16 -3.5 -34.5t-15 -37.5t-32.5 -36.5t-55.5 -31.5t-85.5 -23t-121 -10q-25 -1 -58 0.5
t-59 3.5q-5 -48 5 -81t32.5 -53.5t56.5 -29.5t77 -9q58 0 99.5 12t73.5 28zM158 318q33 -3 61 -4t55 -1q68 0 109 9t62.5 23t28.5 30.5t7 30.5q0 28 -28 48t-91 20q-79 0 -130.5 -41t-73.5 -115zM565 630h-88l-65 85l-105 -85h-92l152 140h110z" />
    <glyph glyph-name="edieresis" unicode="&#xeb;" horiz-adv-x="606" 
d="M466 30q-26 -15 -72.5 -27t-106.5 -12q-61 0 -107 16.5t-76.5 45.5t-46 68t-15.5 83q0 76 23.5 140.5t67 111t104 72.5t135.5 26q42 0 78 -9t63 -26.5t42.5 -44t15.5 -61.5q0 -16 -3.5 -34.5t-15 -37.5t-32.5 -36.5t-55.5 -31.5t-85.5 -23t-121 -10q-25 -1 -58 0.5
t-59 3.5q-5 -48 5 -81t32.5 -53.5t56.5 -29.5t77 -9q58 0 99.5 12t73.5 28zM158 318q33 -3 61 -4t55 -1q68 0 109 9t62.5 23t28.5 30.5t7 30.5q0 28 -28 48t-91 20q-79 0 -130.5 -41t-73.5 -115zM571 700q0 -25 -16 -41t-41 -16t-41 16t-16 41t16 41t41 16t41 -16t16 -41z
M355 700q0 -25 -16 -41t-41 -16t-41 16t-16 41t16 41t41 16t41 -16t16 -41z" />
    <glyph glyph-name="igrave" unicode="&#xec;" horiz-adv-x="262" 
d="M112 0h-92l126 545h92zM68 770h130l90 -140h-84z" />
    <glyph glyph-name="iacute" unicode="&#xed;" horiz-adv-x="262" 
d="M112 0h-92l126 545h92zM248 630h-86l90 140h132z" />
    <glyph glyph-name="icircumflex" unicode="&#xee;" horiz-adv-x="262" 
d="M112 0h-92l126 545h92zM387 630h-88l-65 85l-105 -85h-92l152 140h110z" />
    <glyph glyph-name="idieresis" unicode="&#xef;" horiz-adv-x="262" 
d="M112 0h-92l126 545h92zM392 700q0 -25 -16 -41t-41 -16t-41 16t-16 41t16 41t41 16t41 -16t16 -41zM176 700q0 -25 -16 -41t-41 -16t-41 16t-16 41t16 41t41 16t41 -16t16 -41z" />
    <glyph glyph-name="eth" unicode="&#xf0;" horiz-adv-x="650" 
d="M509 690q51 -56 74 -125.5t23 -142.5q0 -80 -20 -157.5t-62 -138.5t-108 -98t-159 -37q-108 0 -162 49t-54 140q0 67 21.5 132.5t63 117t103 83.5t141.5 32q34 0 68.5 -9t61.5 -43h4q-12 93 -78 156l-133 -65l-25 56l103 51q-30 17 -64.5 28.5t-73.5 16.5l58 74
q51 -12 93 -31t76 -45l136 67l24 -57zM275 71q54 0 92 17.5t63.5 45t40 61t21.5 64t9 55t2 34.5q0 60 -33 88.5t-104 28.5q-56 0 -98 -22.5t-71 -60t-43.5 -86t-14.5 -101.5q0 -67 36.5 -95.5t99.5 -28.5z" />
    <glyph glyph-name="ntilde" unicode="&#xf1;" horiz-adv-x="655" 
d="M510 0h-92l61 264q6 27 11 58t5 51q0 101 -106 101q-89 0 -141.5 -56.5t-77.5 -165.5l-58 -252h-92l125 545h89l-20 -86h2q38 50 93.5 72.5t112.5 22.5q79 0 125.5 -40t44.5 -112q-1 -34 -6.5 -66.5t-10.5 -56.5zM601 745q-4 -49 -31 -77t-69 -28q-26 0 -47.5 8t-39 17
t-32 17t-27.5 8q-11 0 -23.5 -10t-16.5 -40l-64 15q4 49 31 77t69 28q26 0 47.5 -8t39 -17t32 -17t27.5 -8q11 0 23.5 10t16.5 40z" />
    <glyph glyph-name="ograve" unicode="&#xf2;" horiz-adv-x="640" 
d="M271 71q59 0 102.5 25.5t71.5 66t41.5 90.5t13.5 98q0 61 -32 92t-104 31q-57 0 -99.5 -24t-71 -63.5t-42.5 -90t-14 -103.5q1 -63 35.5 -92.5t98.5 -29.5zM253 -9q-54 0 -93.5 14t-66 39.5t-39.5 60.5t-13 76q0 67 21.5 134t64 120t106.5 86t150 33q108 0 161 -48
t51 -142q0 -69 -22.5 -136t-66 -119.5t-107.5 -85t-146 -32.5zM257 770h130l90 -140h-84z" />
    <glyph glyph-name="oacute" unicode="&#xf3;" horiz-adv-x="640" 
d="M271 71q59 0 102.5 25.5t71.5 66t41.5 90.5t13.5 98q0 61 -32 92t-104 31q-57 0 -99.5 -24t-71 -63.5t-42.5 -90t-14 -103.5q1 -63 35.5 -92.5t98.5 -29.5zM253 -9q-54 0 -93.5 14t-66 39.5t-39.5 60.5t-13 76q0 67 21.5 134t64 120t106.5 86t150 33q108 0 161 -48
t51 -142q0 -69 -22.5 -136t-66 -119.5t-107.5 -85t-146 -32.5zM450 630h-86l90 140h132z" />
    <glyph glyph-name="ocircumflex" unicode="&#xf4;" horiz-adv-x="640" 
d="M271 71q59 0 102.5 25.5t71.5 66t41.5 90.5t13.5 98q0 61 -32 92t-104 31q-57 0 -99.5 -24t-71 -63.5t-42.5 -90t-14 -103.5q1 -63 35.5 -92.5t98.5 -29.5zM253 -9q-54 0 -93.5 14t-66 39.5t-39.5 60.5t-13 76q0 67 21.5 134t64 120t106.5 86t150 33q108 0 161 -48
t51 -142q0 -69 -22.5 -136t-66 -119.5t-107.5 -85t-146 -32.5zM575 630h-88l-65 85l-105 -85h-92l152 140h110z" />
    <glyph glyph-name="otilde" unicode="&#xf5;" horiz-adv-x="640" 
d="M271 71q59 0 102.5 25.5t71.5 66t41.5 90.5t13.5 98q0 61 -32 92t-104 31q-57 0 -99.5 -24t-71 -63.5t-42.5 -90t-14 -103.5q1 -63 35.5 -92.5t98.5 -29.5zM253 -9q-54 0 -93.5 14t-66 39.5t-39.5 60.5t-13 76q0 67 21.5 134t64 120t106.5 86t150 33q108 0 161 -48
t51 -142q0 -69 -22.5 -136t-66 -119.5t-107.5 -85t-146 -32.5zM591 745q-4 -49 -31 -77t-69 -28q-26 0 -47.5 8t-39 17t-32 17t-27.5 8q-11 0 -23.5 -10t-16.5 -40l-64 15q4 49 31 77t69 28q26 0 47.5 -8t39 -17t32 -17t27.5 -8q11 0 23.5 10t16.5 40z" />
    <glyph glyph-name="odieresis" unicode="&#xf6;" horiz-adv-x="640" 
d="M271 71q59 0 102.5 25.5t71.5 66t41.5 90.5t13.5 98q0 61 -32 92t-104 31q-57 0 -99.5 -24t-71 -63.5t-42.5 -90t-14 -103.5q1 -63 35.5 -92.5t98.5 -29.5zM253 -9q-54 0 -93.5 14t-66 39.5t-39.5 60.5t-13 76q0 67 21.5 134t64 120t106.5 86t150 33q108 0 161 -48
t51 -142q0 -69 -22.5 -136t-66 -119.5t-107.5 -85t-146 -32.5zM581 700q0 -25 -16 -41t-41 -16t-41 16t-16 41t16 41t41 16t41 -16t16 -41zM365 700q0 -25 -16 -41t-41 -16t-41 16t-16 41t16 41t41 16t41 -16t16 -41z" />
    <glyph glyph-name="divide" unicode="&#xf7;" 
d="M336 109q-34 0 -53 18.5t-19 51.5t19 51.5t53 18.5t53 -18.5t19 -51.5t-19 -51.5t-53 -18.5zM86 407h500v-86h-500v86zM336 479q-34 0 -53 18.5t-19 51.5t19 51.5t53 18.5t53 -18.5t19 -51.5t-19 -51.5t-53 -18.5z" />
    <glyph glyph-name="oslash" unicode="&#xf8;" horiz-adv-x="640" 
d="M253 -9q-87 0 -139 37l-58 -57l-41 40l58 57q-17 23 -24.5 52t-7.5 61q0 67 21.5 134t64 120t106.5 86t150 33q91 0 145 -37l58 57l41 -40l-59 -58q27 -45 27 -112q0 -69 -22.5 -136t-66 -119.5t-107.5 -85t-146 -32.5zM137 193q0 -31 9 -53l314 310q-33 24 -96 24
q-57 0 -99.5 -24t-71 -63.5t-42.5 -90t-14 -103.5zM271 71q59 0 102.5 25.5t71.5 66t41.5 90.5t13.5 98q0 14 -2 27t-5 24l-312 -308q32 -23 90 -23z" />
    <glyph glyph-name="ugrave" unicode="&#xf9;" horiz-adv-x="655" 
d="M141 545h92l-59 -257q-2 -9 -5 -25t-6 -34t-5 -34.5t-2 -26.5q0 -52 29 -74.5t78 -22.5q89 0 140.5 54t77.5 168l58 252h92l-126 -545h-88l20 86h-2q-22 -28 -47 -46t-51.5 -29t-53.5 -15.5t-53 -4.5q-47 0 -79 13.5t-51.5 36t-28.5 50.5t-9 57q0 15 1.5 33t4.5 36t6 35
t6 29zM262 770h130l90 -140h-84z" />
    <glyph glyph-name="uacute" unicode="&#xfa;" horiz-adv-x="655" 
d="M141 545h92l-59 -257q-2 -9 -5 -25t-6 -34t-5 -34.5t-2 -26.5q0 -52 29 -74.5t78 -22.5q89 0 140.5 54t77.5 168l58 252h92l-126 -545h-88l20 86h-2q-22 -28 -47 -46t-51.5 -29t-53.5 -15.5t-53 -4.5q-47 0 -79 13.5t-51.5 36t-28.5 50.5t-9 57q0 15 1.5 33t4.5 36t6 35
t6 29zM441 630h-86l90 140h132z" />
    <glyph glyph-name="ucircumflex" unicode="&#xfb;" horiz-adv-x="655" 
d="M141 545h92l-59 -257q-2 -9 -5 -25t-6 -34t-5 -34.5t-2 -26.5q0 -52 29 -74.5t78 -22.5q89 0 140.5 54t77.5 168l58 252h92l-126 -545h-88l20 86h-2q-22 -28 -47 -46t-51.5 -29t-53.5 -15.5t-53 -4.5q-47 0 -79 13.5t-51.5 36t-28.5 50.5t-9 57q0 15 1.5 33t4.5 36t6 35
t6 29zM580 630h-88l-65 85l-105 -85h-92l152 140h110z" />
    <glyph glyph-name="udieresis" unicode="&#xfc;" horiz-adv-x="655" 
d="M141 545h92l-59 -257q-2 -9 -5 -25t-6 -34t-5 -34.5t-2 -26.5q0 -52 29 -74.5t78 -22.5q89 0 140.5 54t77.5 168l58 252h92l-126 -545h-88l20 86h-2q-22 -28 -47 -46t-51.5 -29t-53.5 -15.5t-53 -4.5q-47 0 -79 13.5t-51.5 36t-28.5 50.5t-9 57q0 15 1.5 33t4.5 36t6 35
t6 29zM586 700q0 -25 -16 -41t-41 -16t-41 16t-16 41t16 41t41 16t41 -16t16 -41zM370 700q0 -25 -16 -41t-41 -16t-41 16t-16 41t16 41t41 16t41 -16t16 -41z" />
    <glyph glyph-name="yacute" unicode="&#xfd;" horiz-adv-x="550" 
d="M15 -233q-20 0 -39 3.5t-32 8.5l19 82q11 -5 25.5 -9.5t31.5 -4.5q23 0 41.5 6t35 19t32 34t32.5 51l17 29l-107 559h92l81 -452h2l263 452h92l-332 -558q-38 -63 -67.5 -105.5t-58 -68t-59 -36t-69.5 -10.5zM372 630h-86l90 140h132z" />
    <glyph glyph-name="thorn" unicode="&#xfe;" horiz-adv-x="670" 
d="M60 -225h-92l237 1025h92l-77 -331h2q40 42 87.5 63.5t113.5 21.5q53 0 91.5 -14t64 -39.5t37.5 -61t12 -77.5q0 -67 -20 -133.5t-60.5 -119t-102 -85.5t-143.5 -33q-27 0 -53 4.5t-48.5 15t-40 27.5t-27.5 42h-3zM305 71q64 0 108 29t70 71t37.5 88.5t11.5 81.5
q0 27 -6.5 51t-22.5 42t-43 29t-68 11q-49 0 -90.5 -20.5t-71.5 -56t-47 -82.5t-17 -100q0 -24 7.5 -49.5t24 -46.5t43 -34.5t64.5 -13.5z" />
    <glyph glyph-name="ydieresis" unicode="&#xff;" horiz-adv-x="550" 
d="M15 -233q-20 0 -39 3.5t-32 8.5l19 82q11 -5 25.5 -9.5t31.5 -4.5q23 0 41.5 6t35 19t32 34t32.5 51l17 29l-107 559h92l81 -452h2l263 452h92l-332 -558q-38 -63 -67.5 -105.5t-58 -68t-59 -36t-69.5 -10.5zM540 700q0 -25 -16 -41t-41 -16t-41 16t-16 41t16 41t41 16
t41 -16t16 -41zM324 700q0 -25 -16 -41t-41 -16t-41 16t-16 41t16 41t41 16t41 -16t16 -41z" />
    <glyph glyph-name="Amacron" unicode="&#x100;" horiz-adv-x="690" 
d="M488 192h-323l-119 -192h-101l459 727h89l122 -727h-96zM218 278h257l-48 347h-2zM322 897h330l-17 -74h-330z" />
    <glyph glyph-name="amacron" unicode="&#x101;" horiz-adv-x="669" 
d="M555 545h88l-126 -545h-92l19 79h-2q-44 -46 -92 -67t-109 -21q-52 0 -89.5 17.5t-62 47t-36 68t-11.5 79.5q0 61 18.5 123.5t57.5 113t99 82.5t143 32q40 0 69.5 -8t51 -20.5t34.5 -27.5t20 -29h2zM357 474q-53 0 -93 -20.5t-68 -56t-42 -82t-14 -98.5q0 -65 32 -105.5
t97 -40.5q57 0 99.5 23t71 60.5t43 83.5t14.5 93q0 30 -9.5 56.5t-27.5 45.5t-44 30t-59 11zM275 737h310l-17 -74h-310z" />
    <glyph glyph-name="Abreve" unicode="&#x102;" horiz-adv-x="690" 
d="M488 192h-323l-119 -192h-101l459 727h89l122 -727h-96zM218 278h257l-48 347h-2zM661 914q-27 -60 -80 -94t-119 -34t-102 35.5t-39 92.5l74 20q4 -38 22.5 -56t56.5 -18t65.5 18t47.5 56z" />
    <glyph glyph-name="abreve" unicode="&#x103;" horiz-adv-x="669" 
d="M555 545h88l-126 -545h-92l19 79h-2q-44 -46 -92 -67t-109 -21q-52 0 -89.5 17.5t-62 47t-36 68t-11.5 79.5q0 61 18.5 123.5t57.5 113t99 82.5t143 32q40 0 69.5 -8t51 -20.5t34.5 -27.5t20 -29h2zM357 474q-53 0 -93 -20.5t-68 -56t-42 -82t-14 -98.5q0 -65 32 -105.5
t97 -40.5q57 0 99.5 23t71 60.5t43 83.5t14.5 93q0 30 -9.5 56.5t-27.5 45.5t-44 30t-59 11zM394 622q-32 0 -58 10t-44.5 28.5t-28 43.5t-8.5 55l75 19q0 -80 78 -80t116 80l71 -19q-26 -62 -79.5 -99.5t-121.5 -37.5z" />
    <glyph glyph-name="Aogonek" unicode="&#x104;" horiz-adv-x="690" 
d="M482 -240q-50 0 -77.5 24.5t-27.5 60.5q0 42 32.5 84.5t108.5 76.5l-30 186h-323l-119 -192h-101l459 727h89l122 -727q-76 -31 -107.5 -63.5t-31.5 -67.5q0 -17 12.5 -29t38.5 -12q36 0 61 11l-14 -64q-42 -15 -92 -15zM218 278h257l-48 347h-2z" />
    <glyph glyph-name="aogonek" unicode="&#x105;" horiz-adv-x="669" 
d="M384 -240q-50 0 -77.5 24.5t-27.5 60.5q0 43 34 86.5t114 77.5l17 70h-2q-44 -46 -92 -67t-109 -21q-52 0 -89.5 17.5t-62 47t-36 68t-11.5 79.5q0 61 18.5 123.5t57.5 113t99 82.5t143 32q40 0 69.5 -8t51 -20.5t34.5 -27.5t20 -29h2l18 76h88l-126 -545
q-76 -31 -107.5 -63.5t-31.5 -67.5q0 -17 12.5 -29t38.5 -12q36 0 61 11l-14 -64q-42 -15 -92 -15zM357 474q-53 0 -93 -20.5t-68 -56t-42 -82t-14 -98.5q0 -65 32 -105.5t97 -40.5q57 0 99.5 23t71 60.5t43 83.5t14.5 93q0 30 -9.5 56.5t-27.5 45.5t-44 30t-59 11z" />
    <glyph glyph-name="Cacute" unicode="&#x106;" horiz-adv-x="670" 
d="M538 16q-15 -6 -37.5 -11t-45.5 -8.5t-45 -5t-37 -1.5q-73 0 -129 21.5t-94.5 60.5t-58 93t-19.5 120q0 83 28.5 164t84.5 145t140 103.5t194 39.5q27 0 53.5 -3.5t49.5 -8t41 -9.5t27 -9l-20 -88q-16 8 -38 14t-45 10t-43.5 6t-33.5 2q-89 0 -152 -30t-103.5 -80.5
t-59.5 -116.5t-19 -137q0 -99 53.5 -155t175.5 -56q32 0 70.5 5.5t83.5 22.5zM543 790h-88l86 140h134z" />
    <glyph glyph-name="cacute" unicode="&#x107;" horiz-adv-x="550" 
d="M434 14q-29 -11 -70 -17t-84 -6q-54 0 -97.5 14t-75 41t-48.5 66t-17 88q0 80 24 145t69.5 111.5t112.5 72t153 25.5q35 0 72.5 -6t70.5 -19l-19 -82q-12 7 -30 12t-37.5 8.5t-39.5 5t-36 1.5q-67 0 -113.5 -21t-75 -56t-41 -80t-12.5 -93q0 -73 43.5 -113t129.5 -40
q35 0 72.5 7t66.5 18zM446 630h-86l90 140h132z" />
    <glyph glyph-name="Ccircumflex" unicode="&#x108;" horiz-adv-x="670" 
d="M538 16q-15 -6 -37.5 -11t-45.5 -8.5t-45 -5t-37 -1.5q-73 0 -129 21.5t-94.5 60.5t-58 93t-19.5 120q0 83 28.5 164t84.5 145t140 103.5t194 39.5q27 0 53.5 -3.5t49.5 -8t41 -9.5t27 -9l-20 -88q-16 8 -38 14t-45 10t-43.5 6t-33.5 2q-89 0 -152 -30t-103.5 -80.5
t-59.5 -116.5t-19 -137q0 -99 53.5 -155t175.5 -56q32 0 70.5 5.5t83.5 22.5zM717 790h-91l-62 81l-100 -81h-97l152 140h110z" />
    <glyph glyph-name="ccircumflex" unicode="&#x109;" horiz-adv-x="550" 
d="M434 14q-29 -11 -70 -17t-84 -6q-54 0 -97.5 14t-75 41t-48.5 66t-17 88q0 80 24 145t69.5 111.5t112.5 72t153 25.5q35 0 72.5 -6t70.5 -19l-19 -82q-12 7 -30 12t-37.5 8.5t-39.5 5t-36 1.5q-67 0 -113.5 -21t-75 -56t-41 -80t-12.5 -93q0 -73 43.5 -113t129.5 -40
q35 0 72.5 7t66.5 18zM585 630h-88l-65 85l-105 -85h-92l152 140h110z" />
    <glyph glyph-name="Cdotaccent" unicode="&#x10a;" horiz-adv-x="670" 
d="M538 16q-15 -6 -37.5 -11t-45.5 -8.5t-45 -5t-37 -1.5q-73 0 -129 21.5t-94.5 60.5t-58 93t-19.5 120q0 83 28.5 164t84.5 145t140 103.5t194 39.5q27 0 53.5 -3.5t49.5 -8t41 -9.5t27 -9l-20 -88q-16 8 -38 14t-45 10t-43.5 6t-33.5 2q-89 0 -152 -30t-103.5 -80.5
t-59.5 -116.5t-19 -137q0 -99 53.5 -155t175.5 -56q32 0 70.5 5.5t83.5 22.5zM559 796q-29 0 -46.5 17.5t-17.5 46.5t17.5 46.5t46.5 17.5t46.5 -17.5t17.5 -46.5t-17.5 -46.5t-46.5 -17.5z" />
    <glyph glyph-name="cdotaccent" unicode="&#x10b;" horiz-adv-x="550" 
d="M434 14q-29 -11 -70 -17t-84 -6q-54 0 -97.5 14t-75 41t-48.5 66t-17 88q0 80 24 145t69.5 111.5t112.5 72t153 25.5q35 0 72.5 -6t70.5 -19l-19 -82q-12 7 -30 12t-37.5 8.5t-39.5 5t-36 1.5q-67 0 -113.5 -21t-75 -56t-41 -80t-12.5 -93q0 -73 43.5 -113t129.5 -40
q35 0 72.5 7t66.5 18zM484 700q0 -25 -16.5 -41.5t-41.5 -16.5t-41.5 16.5t-16.5 41.5t16.5 41.5t41.5 16.5t41.5 -16.5t16.5 -41.5z" />
    <glyph glyph-name="Ccaron" unicode="&#x10c;" horiz-adv-x="670" 
d="M538 16q-15 -6 -37.5 -11t-45.5 -8.5t-45 -5t-37 -1.5q-73 0 -129 21.5t-94.5 60.5t-58 93t-19.5 120q0 83 28.5 164t84.5 145t140 103.5t194 39.5q27 0 53.5 -3.5t49.5 -8t41 -9.5t27 -9l-20 -88q-16 8 -38 14t-45 10t-43.5 6t-33.5 2q-89 0 -152 -30t-103.5 -80.5
t-59.5 -116.5t-19 -137q0 -99 53.5 -155t175.5 -56q32 0 70.5 5.5t83.5 22.5zM598 790h-110l-88 140h90l62 -81l100 81h98z" />
    <glyph glyph-name="ccaron" unicode="&#x10d;" horiz-adv-x="550" 
d="M434 14q-29 -11 -70 -17t-84 -6q-54 0 -97.5 14t-75 41t-48.5 66t-17 88q0 80 24 145t69.5 111.5t112.5 72t153 25.5q35 0 72.5 -6t70.5 -19l-19 -82q-12 7 -30 12t-37.5 8.5t-39.5 5t-36 1.5q-67 0 -113.5 -21t-75 -56t-41 -80t-12.5 -93q0 -73 43.5 -113t129.5 -40
q35 0 72.5 7t66.5 18zM466 630h-110l-88 140h86l65 -85l105 85h94z" />
    <glyph glyph-name="Dcaron" unicode="&#x10e;" horiz-adv-x="770" 
d="M151 86h104q105 0 177 30t116 80t63.5 115t19.5 135q0 49 -12 85.5t-38.5 61t-70 36.5t-106.5 12h-125zM133 0h-98l168 727h225q81 0 138.5 -19t95 -53.5t55 -83t17.5 -106.5q0 -110 -33.5 -196.5t-96.5 -146t-154 -91t-205 -31.5h-112zM498 790h-110l-88 140h90l62 -81
l100 81h98z" />
    <glyph glyph-name="dcaron" unicode="&#x10f;" horiz-adv-x="760" 
d="M613 800h92l-185 -800h-88l18 76h-2q-37 -40 -86.5 -62.5t-114.5 -22.5q-49 0 -87 16.5t-64.5 44.5t-40 65.5t-13.5 79.5q0 75 21 140t62 113t101 76t139 28q63 0 108 -21.5t62 -63.5h2zM363 474q-57 0 -99.5 -20.5t-70 -55.5t-41.5 -82.5t-14 -101.5q0 -68 37.5 -105.5
t101.5 -37.5q56 0 98 23t69.5 60.5t41.5 84t14 93.5q0 65 -37 103.5t-100 38.5zM791 800h103l-83 -220h-72z" />
    <glyph glyph-name="Dcroat" unicode="&#x110;" horiz-adv-x="785" 
d="M50 0l76 332h-94l20 86h94l72 309h225q81 0 138.5 -19t95 -53.5t55 -83t17.5 -106.5q0 -110 -33.5 -196.5t-96.5 -146t-154 -91t-205 -31.5h-113h-97zM242 418h200l-20 -86h-200l-56 -246h104q105 0 177 30t116 80t63.5 115t19.5 135q0 49 -12 85.5t-38.5 61t-70 36.5
t-106.5 12h-125z" />
    <glyph glyph-name="dcroat" unicode="&#x111;" horiz-adv-x="670" 
d="M343 705h248l22 95h92l-22 -95h95l-16 -70h-95l-147 -635h-88l18 76h-2q-37 -40 -86.5 -62.5t-114.5 -22.5q-49 0 -87 16.5t-64.5 44.5t-40 65.5t-13.5 79.5q0 75 21 140t62 113t101 76t139 28q63 0 108 -21.5t62 -63.5h2l38 166h-248zM363 474q-57 0 -99.5 -20.5
t-70 -55.5t-41.5 -82.5t-14 -101.5q0 -68 37.5 -105.5t101.5 -37.5q56 0 98 23t69.5 60.5t41.5 84t14 93.5q0 65 -37 103.5t-100 38.5z" />
    <glyph glyph-name="Emacron" unicode="&#x112;" horiz-adv-x="595" 
d="M465 0h-333h-97l168 727h430l-20 -86h-334l-51 -223h304l-20 -86h-304l-57 -246h334zM292 897h330l-17 -74h-330z" />
    <glyph glyph-name="emacron" unicode="&#x113;" horiz-adv-x="606" 
d="M466 30q-26 -15 -72.5 -27t-106.5 -12q-61 0 -107 16.5t-76.5 45.5t-46 68t-15.5 83q0 76 23.5 140.5t67 111t104 72.5t135.5 26q42 0 78 -9t63 -26.5t42.5 -44t15.5 -61.5q0 -16 -3.5 -34.5t-15 -37.5t-32.5 -36.5t-55.5 -31.5t-85.5 -23t-121 -10q-25 -1 -58 0.5
t-59 3.5q-5 -48 5 -81t32.5 -53.5t56.5 -29.5t77 -9q58 0 99.5 12t73.5 28zM158 318q33 -3 61 -4t55 -1q68 0 109 9t62.5 23t28.5 30.5t7 30.5q0 28 -28 48t-91 20q-79 0 -130.5 -41t-73.5 -115zM260 737h310l-17 -74h-310z" />
    <glyph glyph-name="Edotaccent" unicode="&#x116;" horiz-adv-x="595" 
d="M465 0h-333h-97l168 727h430l-20 -86h-334l-51 -223h304l-20 -86h-304l-57 -246h334zM449 796q-29 0 -46.5 17.5t-17.5 46.5t17.5 46.5t46.5 17.5t46.5 -17.5t17.5 -46.5t-17.5 -46.5t-46.5 -17.5z" />
    <glyph glyph-name="edotaccent" unicode="&#x117;" horiz-adv-x="606" 
d="M466 30q-26 -15 -72.5 -27t-106.5 -12q-61 0 -107 16.5t-76.5 45.5t-46 68t-15.5 83q0 76 23.5 140.5t67 111t104 72.5t135.5 26q42 0 78 -9t63 -26.5t42.5 -44t15.5 -61.5q0 -16 -3.5 -34.5t-15 -37.5t-32.5 -36.5t-55.5 -31.5t-85.5 -23t-121 -10q-25 -1 -58 0.5
t-59 3.5q-5 -48 5 -81t32.5 -53.5t56.5 -29.5t77 -9q58 0 99.5 12t73.5 28zM158 318q33 -3 61 -4t55 -1q68 0 109 9t62.5 23t28.5 30.5t7 30.5q0 28 -28 48t-91 20q-79 0 -130.5 -41t-73.5 -115zM464 700q0 -25 -16.5 -41.5t-41.5 -16.5t-41.5 16.5t-16.5 41.5t16.5 41.5
t41.5 16.5t41.5 -16.5t16.5 -41.5z" />
    <glyph glyph-name="Eogonek" unicode="&#x118;" horiz-adv-x="595" 
d="M332 -240q-50 0 -77.5 24.5t-27.5 60.5q0 41 29.5 81.5t98.5 73.5h-223h-97l168 727h430l-20 -86h-334l-51 -223h304l-20 -86h-304l-57 -246h334l-20 -86q-76 -31 -107.5 -63.5t-31.5 -67.5q0 -17 12.5 -29t38.5 -12q36 0 61 11l-14 -64q-42 -15 -92 -15z" />
    <glyph glyph-name="eogonek" unicode="&#x119;" horiz-adv-x="606" 
d="M466 30q-5 -3 -10.5 -6t-11.5 -5h1q-78 -35 -124 -75t-46 -75q0 -17 12.5 -29t38.5 -12q36 0 61 11l-14 -64q-42 -15 -92 -15t-77.5 24.5t-27.5 60.5q0 82 126 146h-15q-61 0 -107 16.5t-76.5 45.5t-46 68t-15.5 83q0 76 23.5 140.5t67 111t104 72.5t135.5 26q42 0 78 -9
t63 -26.5t42.5 -44t15.5 -61.5q0 -16 -3.5 -34.5t-15 -37.5t-32.5 -36.5t-55.5 -31.5t-85.5 -23t-121 -10q-25 -1 -58 0.5t-59 3.5q-5 -48 5 -81t32.5 -53.5t56.5 -29.5t77 -9q58 0 99.5 12t73.5 28zM158 318q33 -3 61 -4t55 -1q68 0 109 9t62.5 23t28.5 30.5t7 30.5
q0 28 -28 48t-91 20q-79 0 -130.5 -41t-73.5 -115z" />
    <glyph glyph-name="Ecaron" unicode="&#x11a;" horiz-adv-x="595" 
d="M465 0h-333h-97l168 727h430l-20 -86h-334l-51 -223h304l-20 -86h-304l-57 -246h334zM488 790h-110l-88 140h90l62 -81l100 81h98z" />
    <glyph glyph-name="ecaron" unicode="&#x11b;" horiz-adv-x="606" 
d="M466 30q-26 -15 -72.5 -27t-106.5 -12q-61 0 -107 16.5t-76.5 45.5t-46 68t-15.5 83q0 76 23.5 140.5t67 111t104 72.5t135.5 26q42 0 78 -9t63 -26.5t42.5 -44t15.5 -61.5q0 -16 -3.5 -34.5t-15 -37.5t-32.5 -36.5t-55.5 -31.5t-85.5 -23t-121 -10q-25 -1 -58 0.5
t-59 3.5q-5 -48 5 -81t32.5 -53.5t56.5 -29.5t77 -9q58 0 99.5 12t73.5 28zM158 318q33 -3 61 -4t55 -1q68 0 109 9t62.5 23t28.5 30.5t7 30.5q0 28 -28 48t-91 20q-79 0 -130.5 -41t-73.5 -115zM446 630h-110l-88 140h86l65 -85l105 85h94z" />
    <glyph glyph-name="Gcircumflex" unicode="&#x11c;" horiz-adv-x="740" 
d="M570 290h-168l20 86h165h95l-79 -342q-42 -20 -98.5 -32t-121.5 -12q-68 0 -125 18.5t-98.5 55t-64.5 91t-23 125.5q0 89 29 171.5t87 146t143.5 101.5t199.5 38q26 0 53.5 -3t52 -7t44.5 -9.5t32 -9.5l-21 -90q-18 9 -41 15.5t-47 10.5t-47.5 5.5t-42.5 1.5
q-84 0 -147.5 -27.5t-106 -76t-63.5 -115.5t-21 -146q0 -47 12.5 -85.5t40 -66.5t70.5 -43t105 -15q11 0 26.5 0.5t32 2.5t32.5 4.5t29 7.5zM717 790h-91l-62 81l-100 -81h-97l152 140h110z" />
    <glyph glyph-name="gcircumflex" unicode="&#x11d;" horiz-adv-x="670" 
d="M558 545h88l-120 -520q-30 -128 -105 -191t-211 -63q-29 0 -59 3t-57.5 8.5t-51 13t-39.5 16.5l19 84q12 -7 30.5 -15t42.5 -14.5t53 -11t61 -4.5q52 0 89.5 10t64 31t43 53t26.5 75l17 75h-1q-46 -55 -99.5 -75t-107.5 -20q-49 0 -86.5 15.5t-63 42.5t-38.5 64t-13 80
q0 73 22 137t64 112t104 75.5t143 27.5q59 0 103.5 -20t61.5 -67h2zM357 474q-55 0 -96 -20t-68 -55.5t-40.5 -82.5t-13.5 -101q0 -65 32 -100t97 -35q54 0 97 21t73 56t46 81.5t16 96.5q0 66 -38.5 102.5t-104.5 36.5zM570 630h-88l-65 85l-105 -85h-92l152 140h110z" />
    <glyph glyph-name="Gbreve" unicode="&#x11e;" horiz-adv-x="740" 
d="M570 290h-168l20 86h165h95l-79 -342q-42 -20 -98.5 -32t-121.5 -12q-68 0 -125 18.5t-98.5 55t-64.5 91t-23 125.5q0 89 29 171.5t87 146t143.5 101.5t199.5 38q26 0 53.5 -3t52 -7t44.5 -9.5t32 -9.5l-21 -90q-18 9 -41 15.5t-47 10.5t-47.5 5.5t-42.5 1.5
q-84 0 -147.5 -27.5t-106 -76t-63.5 -115.5t-21 -146q0 -47 12.5 -85.5t40 -66.5t70.5 -43t105 -15q11 0 26.5 0.5t32 2.5t32.5 4.5t29 7.5zM741 914q-27 -60 -80 -94t-119 -34t-102 35.5t-39 92.5l74 20q4 -38 22.5 -56t56.5 -18t65.5 18t47.5 56z" />
    <glyph glyph-name="gbreve" unicode="&#x11f;" horiz-adv-x="670" 
d="M558 545h88l-120 -520q-30 -128 -105 -191t-211 -63q-29 0 -59 3t-57.5 8.5t-51 13t-39.5 16.5l19 84q12 -7 30.5 -15t42.5 -14.5t53 -11t61 -4.5q52 0 89.5 10t64 31t43 53t26.5 75l17 75h-1q-46 -55 -99.5 -75t-107.5 -20q-49 0 -86.5 15.5t-63 42.5t-38.5 64t-13 80
q0 73 22 137t64 112t104 75.5t143 27.5q59 0 103.5 -20t61.5 -67h2zM357 474q-55 0 -96 -20t-68 -55.5t-40.5 -82.5t-13.5 -101q0 -65 32 -100t97 -35q54 0 97 21t73 56t46 81.5t16 96.5q0 66 -38.5 102.5t-104.5 36.5zM394 622q-32 0 -58 10t-44.5 28.5t-28 43.5t-8.5 55
l75 19q0 -80 78 -80t116 80l71 -19q-26 -62 -79.5 -99.5t-121.5 -37.5z" />
    <glyph glyph-name="Gdotaccent" unicode="&#x120;" horiz-adv-x="740" 
d="M570 290h-168l20 86h165h95l-79 -342q-42 -20 -98.5 -32t-121.5 -12q-68 0 -125 18.5t-98.5 55t-64.5 91t-23 125.5q0 89 29 171.5t87 146t143.5 101.5t199.5 38q26 0 53.5 -3t52 -7t44.5 -9.5t32 -9.5l-21 -90q-18 9 -41 15.5t-47 10.5t-47.5 5.5t-42.5 1.5
q-84 0 -147.5 -27.5t-106 -76t-63.5 -115.5t-21 -146q0 -47 12.5 -85.5t40 -66.5t70.5 -43t105 -15q11 0 26.5 0.5t32 2.5t32.5 4.5t29 7.5zM559 796q-29 0 -46.5 17.5t-17.5 46.5t17.5 46.5t46.5 17.5t46.5 -17.5t17.5 -46.5t-17.5 -46.5t-46.5 -17.5z" />
    <glyph glyph-name="gdotaccent" unicode="&#x121;" horiz-adv-x="670" 
d="M558 545h88l-120 -520q-30 -128 -105 -191t-211 -63q-29 0 -59 3t-57.5 8.5t-51 13t-39.5 16.5l19 84q12 -7 30.5 -15t42.5 -14.5t53 -11t61 -4.5q52 0 89.5 10t64 31t43 53t26.5 75l17 75h-1q-46 -55 -99.5 -75t-107.5 -20q-49 0 -86.5 15.5t-63 42.5t-38.5 64t-13 80
q0 73 22 137t64 112t104 75.5t143 27.5q59 0 103.5 -20t61.5 -67h2zM357 474q-55 0 -96 -20t-68 -55.5t-40.5 -82.5t-13.5 -101q0 -65 32 -100t97 -35q54 0 97 21t73 56t46 81.5t16 96.5q0 66 -38.5 102.5t-104.5 36.5zM469 700q0 -25 -16.5 -41.5t-41.5 -16.5t-41.5 16.5
t-16.5 41.5t16.5 41.5t41.5 16.5t41.5 -16.5t16.5 -41.5z" />
    <glyph glyph-name="Gcommaaccent" unicode="&#x122;" horiz-adv-x="740" 
d="M570 290h-168l20 86h165h95l-79 -342q-42 -20 -98.5 -32t-121.5 -12q-68 0 -125 18.5t-98.5 55t-64.5 91t-23 125.5q0 89 29 171.5t87 146t143.5 101.5t199.5 38q26 0 53.5 -3t52 -7t44.5 -9.5t32 -9.5l-21 -90q-18 9 -41 15.5t-47 10.5t-47.5 5.5t-42.5 1.5
q-84 0 -147.5 -27.5t-106 -76t-63.5 -115.5t-21 -146q0 -47 12.5 -85.5t40 -66.5t70.5 -43t105 -15q11 0 26.5 0.5t32 2.5t32.5 4.5t29 7.5zM259 -190q39 -2 60 10.5t26 32.5q-15 -4 -30 -4q-26 0 -40 12t-14 31q0 26 20.5 42t60.5 16q35 0 56 -18t21 -45q0 -58 -46.5 -94
t-125.5 -33z" />
    <glyph glyph-name="gcommaaccent" unicode="&#x123;" horiz-adv-x="670" 
d="M558 545h88l-120 -520q-30 -128 -105 -191t-211 -63q-29 0 -59 3t-57.5 8.5t-51 13t-39.5 16.5l19 84q12 -7 30.5 -15t42.5 -14.5t53 -11t61 -4.5q52 0 89.5 10t64 31t43 53t26.5 75l17 75h-1q-46 -55 -99.5 -75t-107.5 -20q-49 0 -86.5 15.5t-63 42.5t-38.5 64t-13 80
q0 73 22 137t64 112t104 75.5t143 27.5q59 0 103.5 -20t61.5 -67h2zM357 474q-55 0 -96 -20t-68 -55.5t-40.5 -82.5t-13.5 -101q0 -65 32 -100t97 -35q54 0 97 21t73 56t46 81.5t16 96.5q0 66 -38.5 102.5t-104.5 36.5zM484.999 744.977q-38.9951 2 -59.9922 -10.498
q-20.998 -12.499 -25.9971 -32.4961q14.998 3.99902 29.9961 3.99902q25.9971 0 39.9951 -11.998q13.998 -11.999 13.998 -30.9971q0 -25.9961 -20.4971 -41.9941q-20.498 -15.998 -60.4922 -15.998q-34.9961 0 -55.9941 17.998q-20.9971 17.9971 -20.9971 44.9941
q0 57.9932 46.4941 93.9883q46.4951 35.9961 125.485 32.9961z" />
    <glyph glyph-name="Hcircumflex" unicode="&#x124;" horiz-adv-x="780" 
d="M615 0h-96l77 335h-388l-77 -335h-96l168 727h96l-71 -306h388l71 306h96zM682 790h-91l-62 81l-100 -81h-97l152 140h110z" />
    <glyph glyph-name="hcircumflex" unicode="&#x125;" horiz-adv-x="655" 
d="M510 0h-92l61 264q6 27 11 57.5t5 51.5q0 50 -27.5 75.5t-78.5 25.5q-89 0 -141.5 -56.5t-77.5 -165.5l-58 -252h-92l185 800h92l-79 -341h2q38 50 91.5 72.5t110.5 22.5q39 0 70.5 -10.5t54 -30t34.5 -47.5t11 -64q0 -17 -2.5 -36t-5.5 -37t-6 -34.5t-6 -28.5zM438 850
h-88l-65 85l-105 -85h-92l152 140h110z" />
    <glyph glyph-name="Hbar" unicode="&#x126;" horiz-adv-x="780" 
d="M755 607h85l-17 -76h-86l-122 -531h-96l77 335h-388l-77 -335h-96l122 531h-84l17 76h85l28 120h96l-28 -120h388l28 120h96zM253 531l-25 -110h388l25 110h-388z" />
    <glyph glyph-name="hbar" unicode="&#x127;" horiz-adv-x="675" 
d="M530 0h-92l61 264q6 27 11 57.5t5 51.5q0 50 -27.5 75.5t-78.5 25.5q-89 0 -141.5 -56.5t-77.5 -165.5l-58 -252h-92l147 635h-105l16 70h105l22 95h92l-22 -95h238l-16 -70h-238l-41 -176h2q38 50 91.5 72.5t110.5 22.5q39 0 70.5 -10.5t54 -30t34.5 -47.5t11 -64
q0 -17 -2.5 -36t-5.5 -37t-6 -34.5t-6 -28.5z" />
    <glyph glyph-name="Imacron" unicode="&#x12a;" horiz-adv-x="296" 
d="M131 0h-96l168 727h96zM126 897h330l-17 -74h-330z" />
    <glyph glyph-name="imacron" unicode="&#x12b;" horiz-adv-x="262" 
d="M112 0h-92l126 545h92zM82 737h310l-17 -74h-310z" />
    <glyph glyph-name="Iogonek" unicode="&#x12e;" horiz-adv-x="296" 
d="M-2 -240q-50 0 -77.5 24.5t-27.5 60.5q0 43 33 86t109 76l168 720h96l-168 -727q-76 -31 -107.5 -63.5t-31.5 -67.5q0 -17 12.5 -29t38.5 -12q36 0 61 11l-14 -64q-42 -15 -92 -15z" />
    <glyph glyph-name="iogonek" unicode="&#x12f;" horiz-adv-x="262" 
d="M-21 -240q-50 0 -77.5 24.5t-27.5 60.5q0 44 34 87t112 77l126 536h92l-126 -545q-76 -31 -107.5 -63.5t-31.5 -67.5q0 -17 12.5 -29t38.5 -12q36 0 61 11l-14 -64q-42 -15 -92 -15zM278 700q0 -25 -16.5 -41.5t-41.5 -16.5t-41.5 16.5t-16.5 41.5t16.5 41.5t41.5 16.5
t41.5 -16.5t16.5 -41.5z" />
    <glyph glyph-name="Idotaccent" unicode="&#x130;" horiz-adv-x="296" 
d="M131 0h-96l168 727h96zM282 796q-29 0 -46.5 17.5t-17.5 46.5t17.5 46.5t46.5 17.5t46.5 -17.5t17.5 -46.5t-17.5 -46.5t-46.5 -17.5z" />
    <glyph glyph-name="dotlessi" unicode="&#x131;" horiz-adv-x="262" 
d="M112 0h-92l126 545h92z" />
    <glyph glyph-name="Jcircumflex" unicode="&#x134;" horiz-adv-x="425" 
d="M-7 92q17 -7 39 -11.5t41 -4.5q29 0 50.5 5t38 18t27.5 35.5t19 56.5l124 536h96l-128 -553q-23 -98 -77 -141t-150 -43q-13 0 -28 1.5t-29 4.5t-25 6t-17 6zM569 790h-91l-62 81l-100 -81h-97l152 140h110z" />
    <glyph glyph-name="jcircumflex" unicode="&#x135;" horiz-adv-x="262" 
d="M-145 -147q10 -2 20 -4.5t22 -2.5q23 0 40.5 5t31 17.5t24 35.5t18.5 59l9 37l125 545h93l-130 -561q-15 -64 -33.5 -106t-44 -67t-60.5 -35t-82 -10q-12 0 -24 2t-27 5zM387 630h-88l-65 85l-105 -85h-92l152 140h110z" />
    <glyph glyph-name="Kcommaaccent" unicode="&#x136;" horiz-adv-x="680" 
d="M222 395l410 332h126l-439 -347l291 -380h-114l-281 365l-84 -365h-96l168 727h96zM179 -190q39 -2 60 10.5t26 32.5q-15 -4 -30 -4q-26 0 -40 12t-14 31q0 26 20.5 42t60.5 16q35 0 56 -18t21 -45q0 -58 -46.5 -94t-125.5 -33z" />
    <glyph glyph-name="kcommaaccent" unicode="&#x137;" horiz-adv-x="575" 
d="M185 315l298 230h118l-323 -243l227 -302h-107l-218 295l-68 -295h-92l185 800h92zM138 -190q39 -2 60 10.5t26 32.5q-15 -4 -30 -4q-26 0 -40 12t-14 31q0 26 20.5 42t60.5 16q35 0 56 -18t21 -45q0 -58 -46.5 -94t-125.5 -33z" />
    <glyph glyph-name="Lacute" unicode="&#x139;" horiz-adv-x="570" 
d="M465 0h-430l168 727h96l-148 -641h334zM303 790h-88l86 140h134z" />
    <glyph glyph-name="lacute" unicode="&#x13a;" horiz-adv-x="262" 
d="M112 0h-92l185 800h92zM301 860h-88l86 140h134z" />
    <glyph glyph-name="Lcommaaccent" unicode="&#x13b;" horiz-adv-x="570" 
d="M465 0h-430l168 727h96l-148 -641h334zM142 -190q39 -2 60 10.5t26 32.5q-15 -4 -30 -4q-26 0 -40 12t-14 31q0 26 20.5 42t60.5 16q35 0 56 -18t21 -45q0 -58 -46.5 -94t-125.5 -33z" />
    <glyph glyph-name="lcommaaccent" unicode="&#x13c;" horiz-adv-x="262" 
d="M112 0h-92l185 800h92zM-40 -190q39 -2 60 10.5t26 32.5q-15 -4 -30 -4q-26 0 -40 12t-14 31q0 26 20.5 42t60.5 16q35 0 56 -18t21 -45q0 -58 -46.5 -94t-125.5 -33z" />
    <glyph glyph-name="Lcaron" unicode="&#x13d;" horiz-adv-x="570" 
d="M465 0h-430l168 727h96l-148 -641h334zM483 727h103l-83 -220h-72z" />
    <glyph glyph-name="lcaron" unicode="&#x13e;" horiz-adv-x="350" 
d="M112 0h-92l185 800h92zM381 800h103l-83 -220h-72z" />
    <glyph glyph-name="Ldot" unicode="&#x13f;" horiz-adv-x="571" 
d="M465 0h-430l168 727h96l-148 -641h334zM466 341q-32 0 -50.5 17.5t-18.5 47.5t18.5 47.5t50.5 17.5t49.5 -17.5t17.5 -47.5t-17.5 -47.5t-49.5 -17.5z" />
    <glyph glyph-name="ldot" unicode="&#x140;" horiz-adv-x="399" 
d="M112 0h-92l185 800h92zM358 335q-32 0 -50.5 17.5t-18.5 47.5t18.5 47.5t50.5 17.5t49.5 -17.5t17.5 -47.5t-17.5 -47.5t-49.5 -17.5z" />
    <glyph glyph-name="Lslash" unicode="&#x141;" horiz-adv-x="570" 
d="M465 0h-430l62 268l-113 -60l19 85l113 61l87 373h96l-73 -315l199 106l-19 -85l-199 -106h-1l-55 -241h334z" />
    <glyph glyph-name="lslash" unicode="&#x142;" horiz-adv-x="262" 
d="M227 496l113 59l-19 -81l-112 -59l-1 -1l-96 -414h-92l83 358l-112 -59l18 81l113 60l83 360h92z" />
    <glyph glyph-name="Nacute" unicode="&#x143;" horiz-adv-x="780" 
d="M615 0h-109l-234 604h-2l-139 -604h-96l168 727h119l226 -593h2l137 593h96zM543 790h-88l86 140h134z" />
    <glyph glyph-name="nacute" unicode="&#x144;" horiz-adv-x="655" 
d="M510 0h-92l61 264q6 27 11 58t5 51q0 101 -106 101q-89 0 -141.5 -56.5t-77.5 -165.5l-58 -252h-92l125 545h89l-20 -86h2q38 50 93.5 72.5t112.5 22.5q79 0 125.5 -40t44.5 -112q-1 -34 -6.5 -66.5t-10.5 -56.5zM447 630h-86l90 140h132z" />
    <glyph glyph-name="Ncommaaccent" unicode="&#x145;" horiz-adv-x="780" 
d="M615 0h-109l-234 604h-2l-139 -604h-96l168 727h119l226 -593h2l137 593h96zM218 -190q39 -2 60 10.5t26 32.5q-15 -4 -30 -4q-26 0 -40 12t-14 31q0 26 20.5 42t60.5 16q35 0 56 -18t21 -45q0 -58 -46.5 -94t-125.5 -33z" />
    <glyph glyph-name="ncommaaccent" unicode="&#x146;" horiz-adv-x="655" 
d="M510 0h-92l61 264q6 27 11 58t5 51q0 101 -106 101q-89 0 -141.5 -56.5t-77.5 -165.5l-58 -252h-92l125 545h89l-20 -86h2q38 50 93.5 72.5t112.5 22.5q79 0 125.5 -40t44.5 -112q-1 -34 -6.5 -66.5t-10.5 -56.5zM158 -190q39 -2 60 10.5t26 32.5q-15 -4 -30 -4
q-26 0 -40 12t-14 31q0 26 20.5 42t60.5 16q35 0 56 -18t21 -45q0 -58 -46.5 -94t-125.5 -33z" />
    <glyph glyph-name="Ncaron" unicode="&#x147;" horiz-adv-x="780" 
d="M615 0h-109l-234 604h-2l-139 -604h-96l168 727h119l226 -593h2l137 593h96zM563 790h-110l-88 140h90l62 -81l100 81h98z" />
    <glyph glyph-name="ncaron" unicode="&#x148;" horiz-adv-x="655" 
d="M510 0h-92l61 264q6 27 11 58t5 51q0 101 -106 101q-89 0 -141.5 -56.5t-77.5 -165.5l-58 -252h-92l125 545h89l-20 -86h2q38 50 93.5 72.5t112.5 22.5q79 0 125.5 -40t44.5 -112q-1 -34 -6.5 -66.5t-10.5 -56.5zM466 630h-110l-88 140h86l65 -85l105 85h94z" />
    <glyph glyph-name="Omacron" unicode="&#x14c;" horiz-adv-x="820" 
d="M359 76q79 0 140.5 33.5t102.5 88.5t62.5 125t21.5 143q0 86 -48 135.5t-143 49.5q-83 0 -142.5 -33.5t-98.5 -88t-57.5 -123.5t-18.5 -139q0 -42 11 -77.5t33 -60.5t56 -39t81 -14zM345 -10q-66 0 -116.5 20.5t-84.5 56t-51.5 83t-17.5 101.5q0 90 28.5 177.5t84 156
t138.5 110.5t191 42q133 0 201 -70t68 -191q0 -90 -29 -177.5t-85 -156t-138 -110.5t-189 -42zM387 897h330l-17 -74h-330z" />
    <glyph glyph-name="omacron" unicode="&#x14d;" horiz-adv-x="640" 
d="M271 71q59 0 102.5 25.5t71.5 66t41.5 90.5t13.5 98q0 61 -32 92t-104 31q-57 0 -99.5 -24t-71 -63.5t-42.5 -90t-14 -103.5q1 -63 35.5 -92.5t98.5 -29.5zM253 -9q-54 0 -93.5 14t-66 39.5t-39.5 60.5t-13 76q0 67 21.5 134t64 120t106.5 86t150 33q108 0 161 -48
t51 -142q0 -69 -22.5 -136t-66 -119.5t-107.5 -85t-146 -32.5zM270 737h310l-17 -74h-310z" />
    <glyph glyph-name="Ohungarumlaut" unicode="&#x150;" horiz-adv-x="820" 
d="M359 76q79 0 140.5 33.5t102.5 88.5t62.5 125t21.5 143q0 86 -48 135.5t-143 49.5q-83 0 -142.5 -33.5t-98.5 -88t-57.5 -123.5t-18.5 -139q0 -42 11 -77.5t33 -60.5t56 -39t81 -14zM345 -10q-66 0 -116.5 20.5t-84.5 56t-51.5 83t-17.5 101.5q0 90 28.5 177.5t84 156
t138.5 110.5t191 42q133 0 201 -70t68 -191q0 -90 -29 -177.5t-85 -156t-138 -110.5t-189 -42zM814 930l-142 -140h-88l96 140h134zM624 930l-142 -140h-88l96 140h134z" />
    <glyph glyph-name="ohungarumlaut" unicode="&#x151;" horiz-adv-x="640" 
d="M271 71q59 0 102.5 25.5t71.5 66t41.5 90.5t13.5 98q0 61 -32 92t-104 31q-57 0 -99.5 -24t-71 -63.5t-42.5 -90t-14 -103.5q1 -63 35.5 -92.5t98.5 -29.5zM253 -9q-54 0 -93.5 14t-66 39.5t-39.5 60.5t-13 76q0 67 21.5 134t64 120t106.5 86t150 33q108 0 161 -48
t51 -142q0 -69 -22.5 -136t-66 -119.5t-107.5 -85t-146 -32.5zM543 630h-84l90 140h130zM353 630h-84l90 140h130z" />
    <glyph glyph-name="OE" unicode="&#x152;" horiz-adv-x="1005" 
d="M349 -10q-65 0 -116 19.5t-86.5 55.5t-54.5 87t-19 114q0 41 8.5 92t29 103.5t54 102t82.5 88t115 62t153 23.5q27 0 52.5 -2.5t48.5 -7.5h427l-20 -86h-334l-51 -223h304l-20 -86h-304l-57 -246h334l-20 -86h-427q-23 -5 -48.5 -7.5t-50.5 -2.5zM379 76q47 0 86 10
l128 555q-20 5 -45.5 7.5t-52.5 2.5q-80 0 -139.5 -31.5t-99.5 -83.5t-60 -120t-20 -141q0 -100 51.5 -149.5t151.5 -49.5z" />
    <glyph glyph-name="oe" unicode="&#x153;" horiz-adv-x="1042" 
d="M902 30q-26 -15 -72.5 -27t-106.5 -12q-86 0 -140 30.5t-80 84.5q-44 -52 -106.5 -83.5t-143.5 -31.5q-54 0 -93.5 14t-66 39.5t-39.5 60.5t-13 76q0 67 21.5 134t64 120t106.5 86t150 33q74 0 121.5 -23t73.5 -78l-1 -2q44 48 101 75.5t130 27.5q42 0 78 -9t63 -26.5
t42.5 -44t15.5 -61.5q0 -16 -3.5 -34.5t-15 -37.5t-32.5 -36.5t-55.5 -31.5t-85.5 -23t-121 -10q-25 -1 -58 0.5t-59 3.5q-5 -48 5 -81t32.5 -53.5t56.5 -29.5t77 -9q58 0 99.5 12t73.5 28zM271 71q59 0 102.5 25.5t71.5 66t41.5 90.5t13.5 98q0 61 -32 92t-104 31
q-57 0 -99.5 -24t-71 -63.5t-42.5 -90t-14 -103.5q1 -63 35.5 -92.5t98.5 -29.5zM594 318q33 -3 61 -4t55 -1q68 0 109 9t62.5 23t28.5 30.5t7 30.5q0 28 -28 48t-91 20q-79 0 -130.5 -41t-73.5 -115z" />
    <glyph glyph-name="Racute" unicode="&#x154;" horiz-adv-x="660" 
d="M203 727h227q53 0 91.5 -11.5t63 -32.5t36.5 -50t12 -64q0 -40 -10.5 -78.5t-35 -70.5t-65 -55.5t-101.5 -32.5l139 -332h-104l-137 322h-114l-74 -322h-96zM225 408h137q81 0 123.5 33t42.5 108q0 43 -28.5 67.5t-95.5 24.5h-125zM444 790h-88l86 140h134z" />
    <glyph glyph-name="racute" unicode="&#x155;" horiz-adv-x="410" 
d="M112 0h-92l126 545h88l-20 -86h2q30 48 72 71.5t100 23.5q14 0 33.5 -3t33.5 -8l-19 -84q-14 7 -31.5 10t-34.5 3q-58 0 -94 -23.5t-57 -56.5t-30.5 -67t-14.5 -55zM346 630h-86l90 140h132z" />
    <glyph glyph-name="Rcommaaccent" unicode="&#x156;" horiz-adv-x="660" 
d="M203 727h227q53 0 91.5 -11.5t63 -32.5t36.5 -50t12 -64q0 -40 -10.5 -78.5t-35 -70.5t-65 -55.5t-101.5 -32.5l139 -332h-104l-137 322h-114l-74 -322h-96zM225 408h137q81 0 123.5 33t42.5 108q0 43 -28.5 67.5t-95.5 24.5h-125zM179 -190q39 -2 60 10.5t26 32.5
q-15 -4 -30 -4q-26 0 -40 12t-14 31q0 26 20.5 42t60.5 16q35 0 56 -18t21 -45q0 -58 -46.5 -94t-125.5 -33z" />
    <glyph glyph-name="rcommaaccent" unicode="&#x157;" horiz-adv-x="410" 
d="M112 0h-92l126 545h88l-20 -86h2q30 48 72 71.5t100 23.5q14 0 33.5 -3t33.5 -8l-19 -84q-14 7 -31.5 10t-34.5 3q-58 0 -94 -23.5t-57 -56.5t-30.5 -67t-14.5 -55zM-40 -190q39 -2 60 10.5t26 32.5q-15 -4 -30 -4q-26 0 -40 12t-14 31q0 26 20.5 42t60.5 16q35 0 56 -18
t21 -45q0 -58 -46.5 -94t-125.5 -33z" />
    <glyph glyph-name="Rcaron" unicode="&#x158;" horiz-adv-x="660" 
d="M203 727h227q53 0 91.5 -11.5t63 -32.5t36.5 -50t12 -64q0 -40 -10.5 -78.5t-35 -70.5t-65 -55.5t-101.5 -32.5l139 -332h-104l-137 322h-114l-74 -322h-96zM225 408h137q81 0 123.5 33t42.5 108q0 43 -28.5 67.5t-95.5 24.5h-125zM488 790h-110l-88 140h90l62 -81
l100 81h98z" />
    <glyph glyph-name="rcaron" unicode="&#x159;" horiz-adv-x="410" 
d="M112 0h-92l126 545h88l-20 -86h2q30 48 72 71.5t100 23.5q14 0 33.5 -3t33.5 -8l-19 -84q-14 7 -31.5 10t-34.5 3q-58 0 -94 -23.5t-57 -56.5t-30.5 -67t-14.5 -55zM366 630h-110l-88 140h86l65 -85l105 85h94z" />
    <glyph glyph-name="Sacute" unicode="&#x15a;" horiz-adv-x="580" 
d="M38 129q11 -9 30 -18t43 -17t52.5 -13t58.5 -5q94 0 138.5 38t44.5 106q0 23 -6.5 40.5t-21 32t-38.5 27.5t-59 27l-22 9q-61 25 -96.5 63.5t-35.5 97.5q0 49 20.5 90t58.5 69.5t92 44.5t120 16q47 0 90 -10t70 -23l-21 -90q-30 15 -74 26t-90 11q-82 0 -122.5 -32.5
t-40.5 -87.5q0 -17 4.5 -31t18 -27t37.5 -27t63 -32l24 -11q72 -32 102.5 -72t30.5 -91q0 -57 -21.5 -103.5t-60.5 -79t-94 -50t-121 -17.5q-60 0 -111.5 13.5t-83.5 33.5zM443 790h-88l86 140h134z" />
    <glyph glyph-name="sacute" unicode="&#x15b;" horiz-adv-x="475" 
d="M20 111q31 -18 69 -29t86 -11q37 0 61.5 9t39.5 22.5t21 30t6 32.5q0 24 -16.5 40t-41.5 29t-54.5 25t-54.5 27.5t-41.5 38t-16.5 56.5q0 78 59 125.5t173 47.5q20 0 41 -2t40.5 -6t35.5 -8.5t26 -8.5l-19 -82q-29 14 -64 20.5t-64 6.5q-71 0 -100 -21.5t-29 -51.5
q0 -24 16.5 -39.5t41.5 -27.5t54 -24t54 -28.5t41.5 -40.5t16.5 -60q0 -88 -61.5 -139t-184.5 -51q-40 0 -82 10.5t-72 25.5zM327 630h-86l90 140h132z" />
    <glyph glyph-name="Scircumflex" unicode="&#x15c;" horiz-adv-x="580" 
d="M38 129q11 -9 30 -18t43 -17t52.5 -13t58.5 -5q94 0 138.5 38t44.5 106q0 23 -6.5 40.5t-21 32t-38.5 27.5t-59 27l-22 9q-61 25 -96.5 63.5t-35.5 97.5q0 49 20.5 90t58.5 69.5t92 44.5t120 16q47 0 90 -10t70 -23l-21 -90q-30 15 -74 26t-90 11q-82 0 -122.5 -32.5
t-40.5 -87.5q0 -17 4.5 -31t18 -27t37.5 -27t63 -32l24 -11q72 -32 102.5 -72t30.5 -91q0 -57 -21.5 -103.5t-60.5 -79t-94 -50t-121 -17.5q-60 0 -111.5 13.5t-83.5 33.5zM587 790h-91l-62 81l-100 -81h-97l152 140h110z" />
    <glyph glyph-name="scircumflex" unicode="&#x15d;" horiz-adv-x="475" 
d="M20 111q31 -18 69 -29t86 -11q37 0 61.5 9t39.5 22.5t21 30t6 32.5q0 24 -16.5 40t-41.5 29t-54.5 25t-54.5 27.5t-41.5 38t-16.5 56.5q0 78 59 125.5t173 47.5q20 0 41 -2t40.5 -6t35.5 -8.5t26 -8.5l-19 -82q-29 14 -64 20.5t-64 6.5q-71 0 -100 -21.5t-29 -51.5
q0 -24 16.5 -39.5t41.5 -27.5t54 -24t54 -28.5t41.5 -40.5t16.5 -60q0 -88 -61.5 -139t-184.5 -51q-40 0 -82 10.5t-72 25.5zM465 630h-88l-65 85l-105 -85h-92l152 140h110z" />
    <glyph glyph-name="Scedilla" unicode="&#x15e;" horiz-adv-x="580" 
d="M93 -162q18 -9 34 -13.5t42 -4.5q28 0 47.5 13t19.5 36q0 17 -14.5 26t-40.5 9q-8 0 -19 -0.5t-18 -2.5l33 91q-50 4 -91.5 16t-68.5 29l21 92q11 -9 30 -18t43 -17t52.5 -13t58.5 -5q94 0 138.5 38t44.5 106q0 23 -6.5 40.5t-21 32t-38.5 27.5t-59 27l-22 9
q-61 25 -96.5 63.5t-35.5 97.5q0 49 20.5 90t58.5 69.5t92 44.5t120 16q47 0 90 -10t70 -23l-21 -90q-30 15 -74 26t-90 11q-82 0 -122.5 -32.5t-40.5 -87.5q0 -17 4.5 -31t18 -27t37.5 -27t63 -32l24 -11q72 -32 102.5 -72t30.5 -91q0 -55 -19.5 -99.5t-55.5 -76.5t-86 -51
t-111 -22l-13 -37q48 -2 72.5 -23t24.5 -56q0 -26 -12 -47t-32.5 -36t-47.5 -23.5t-57 -8.5q-35 0 -56.5 5t-36.5 13z" />
    <glyph glyph-name="scedilla" unicode="&#x15f;" horiz-adv-x="475" 
d="M48 -162q18 -9 34 -13.5t42 -4.5q28 0 47.5 13t19.5 36q0 17 -14.5 26t-40.5 9q-8 0 -19 -0.5t-18 -2.5l33 91q-35 3 -70 12.5t-61 22.5l19 84q31 -18 69 -29t86 -11q37 0 61.5 9t39.5 22.5t21 30t6 32.5q0 24 -16.5 40t-41.5 29t-54.5 25t-54.5 27.5t-41.5 38
t-16.5 56.5q0 78 59 125.5t173 47.5q20 0 41 -2t40.5 -6t35.5 -8.5t26 -8.5l-19 -82q-29 14 -64 20.5t-64 6.5q-71 0 -100 -21.5t-29 -51.5q0 -24 16.5 -39.5t41.5 -27.5t54 -24t54 -28.5t41.5 -40.5t16.5 -60q0 -81 -52 -131t-156 -58l-14 -38q48 -2 72.5 -23t24.5 -56
q0 -26 -12 -47t-32.5 -36t-47.5 -23.5t-57 -8.5q-35 0 -56.5 5t-36.5 13z" />
    <glyph glyph-name="Scaron" unicode="&#x160;" horiz-adv-x="580" 
d="M38 129q11 -9 30 -18t43 -17t52.5 -13t58.5 -5q94 0 138.5 38t44.5 106q0 23 -6.5 40.5t-21 32t-38.5 27.5t-59 27l-22 9q-61 25 -96.5 63.5t-35.5 97.5q0 49 20.5 90t58.5 69.5t92 44.5t120 16q47 0 90 -10t70 -23l-21 -90q-30 15 -74 26t-90 11q-82 0 -122.5 -32.5
t-40.5 -87.5q0 -17 4.5 -31t18 -27t37.5 -27t63 -32l24 -11q72 -32 102.5 -72t30.5 -91q0 -57 -21.5 -103.5t-60.5 -79t-94 -50t-121 -17.5q-60 0 -111.5 13.5t-83.5 33.5zM468 790h-110l-88 140h90l62 -81l100 81h98z" />
    <glyph glyph-name="scaron" unicode="&#x161;" horiz-adv-x="475" 
d="M20 111q31 -18 69 -29t86 -11q37 0 61.5 9t39.5 22.5t21 30t6 32.5q0 24 -16.5 40t-41.5 29t-54.5 25t-54.5 27.5t-41.5 38t-16.5 56.5q0 78 59 125.5t173 47.5q20 0 41 -2t40.5 -6t35.5 -8.5t26 -8.5l-19 -82q-29 14 -64 20.5t-64 6.5q-71 0 -100 -21.5t-29 -51.5
q0 -24 16.5 -39.5t41.5 -27.5t54 -24t54 -28.5t41.5 -40.5t16.5 -60q0 -88 -61.5 -139t-184.5 -51q-40 0 -82 10.5t-72 25.5zM366 630h-110l-88 140h86l65 -85l105 85h94z" />
    <glyph glyph-name="Tcedilla" unicode="&#x162;" horiz-adv-x="590" 
d="M113 -162q18 -9 34 -13.5t42 -4.5q28 0 47.5 13t19.5 36q0 17 -14.5 26t-40.5 9q-8 0 -19 -0.5t-18 -2.5l36 99h-18l148 641h-227l20 86h550l-20 -86h-227l-148 -641h-18l-16 -46q48 -2 72.5 -23t24.5 -56q0 -26 -12 -47t-32.5 -36t-47.5 -23.5t-57 -8.5q-35 0 -56.5 5
t-36.5 13z" />
    <glyph glyph-name="tcedilla" unicode="&#x163;" horiz-adv-x="415" 
d="M84 -162q18 -9 34 -13.5t42 -4.5q28 0 47.5 13t19.5 36q0 17 -14.5 26t-40.5 9q-8 0 -19 -0.5t-18 -2.5l36 98q-41 11 -58 39.5t-17 64.5q0 20 5.5 51.5t12.5 60.5l58 250h-115l18 80h115l27 115l100 33l-35 -148h157l-18 -80h-157l-58 -248q-2 -6 -4 -17.5t-4 -24.5
t-3.5 -26t-1.5 -22q0 -26 16 -41t55 -15q20 0 39 3.5t37 11.5l-19 -82q-19 -6 -43 -9.5t-47 -3.5h-3l-13 -37q48 -2 72.5 -23t24.5 -56q0 -26 -12 -47t-32.5 -36t-47.5 -23.5t-57 -8.5q-35 0 -56.5 5t-36.5 13z" />
    <glyph glyph-name="Tcaron" unicode="&#x164;" horiz-adv-x="590" 
d="M278 0h-96l148 641h-227l20 86h550l-20 -86h-227zM468 790h-110l-88 140h90l62 -81l100 81h98z" />
    <glyph glyph-name="tcaron" unicode="&#x165;" horiz-adv-x="452" 
d="M421 465h-157l-58 -248q-2 -6 -4 -17.5t-4 -24.5t-3.5 -26t-1.5 -22q0 -26 16 -41t55 -15q20 0 39 3.5t37 11.5l-19 -82q-19 -6 -43 -9.5t-47 -3.5q-37 0 -63 8.5t-42 23.5t-23 35.5t-7 44.5q0 20 5.5 51.5t12.5 60.5l58 250h-115l18 80h115l27 115l100 33l-35 -148h157z
M415 810h103l-83 -220h-72z" />
    <glyph glyph-name="Umacron" unicode="&#x16a;" horiz-adv-x="750" 
d="M667 727h95l-98 -426q-20 -85 -48 -144.5t-70 -96.5t-99.5 -53.5t-135.5 -16.5q-50 0 -92 12.5t-72.5 36.5t-47.5 59t-17 80q0 15 1 31t3.5 37t7.5 47.5t13 61.5l85 372h97l-87 -375q-11 -49 -16.5 -91.5t-5.5 -65.5q0 -32 12 -55t32 -37t47 -20.5t57 -6.5q54 0 92.5 11
t66.5 38t47.5 71.5t35.5 112.5zM354 897h330l-17 -74h-330z" />
    <glyph glyph-name="umacron" unicode="&#x16b;" horiz-adv-x="655" 
d="M141 545h92l-59 -257q-2 -9 -5 -25t-6 -34t-5 -34.5t-2 -26.5q0 -52 29 -74.5t78 -22.5q89 0 140.5 54t77.5 168l58 252h92l-126 -545h-88l20 86h-2q-22 -28 -47 -46t-51.5 -29t-53.5 -15.5t-53 -4.5q-47 0 -79 13.5t-51.5 36t-28.5 50.5t-9 57q0 15 1.5 33t4.5 36t6 35
t6 29zM275 737h310l-17 -74h-310z" />
    <glyph glyph-name="Ubreve" unicode="&#x16c;" horiz-adv-x="750" 
d="M667 727h95l-98 -426q-20 -85 -48 -144.5t-70 -96.5t-99.5 -53.5t-135.5 -16.5q-50 0 -92 12.5t-72.5 36.5t-47.5 59t-17 80q0 15 1 31t3.5 37t7.5 47.5t13 61.5l85 372h97l-87 -375q-11 -49 -16.5 -91.5t-5.5 -65.5q0 -32 12 -55t32 -37t47 -20.5t57 -6.5q54 0 92.5 11
t66.5 38t47.5 71.5t35.5 112.5zM693 914q-27 -60 -80 -94t-119 -34t-102 35.5t-39 92.5l74 20q4 -38 22.5 -56t56.5 -18t65.5 18t47.5 56z" />
    <glyph glyph-name="ubreve" unicode="&#x16d;" horiz-adv-x="655" 
d="M141 545h92l-59 -257q-2 -9 -5 -25t-6 -34t-5 -34.5t-2 -26.5q0 -52 29 -74.5t78 -22.5q89 0 140.5 54t77.5 168l58 252h92l-126 -545h-88l20 86h-2q-22 -28 -47 -46t-51.5 -29t-53.5 -15.5t-53 -4.5q-47 0 -79 13.5t-51.5 36t-28.5 50.5t-9 57q0 15 1.5 33t4.5 36t6 35
t6 29zM404 622q-32 0 -58 10t-44.5 28.5t-28 43.5t-8.5 55l75 19q0 -80 78 -80t116 80l71 -19q-26 -62 -79.5 -99.5t-121.5 -37.5z" />
    <glyph glyph-name="Uring" unicode="&#x16e;" horiz-adv-x="750" 
d="M667 727h95l-98 -426q-20 -85 -48 -144.5t-70 -96.5t-99.5 -53.5t-135.5 -16.5q-50 0 -92 12.5t-72.5 36.5t-47.5 59t-17 80q0 15 1 31t3.5 37t7.5 47.5t13 61.5l85 372h97l-87 -375q-11 -49 -16.5 -91.5t-5.5 -65.5q0 -32 12 -55t32 -37t47 -20.5t57 -6.5q54 0 92.5 11
t66.5 38t47.5 71.5t35.5 112.5zM499 808q26 0 45.5 17t19.5 43q0 18 -11.5 31t-31.5 13q-27 0 -45.5 -18t-18.5 -42q0 -18 11.5 -31t30.5 -13zM488 752q-40 0 -64 26.5t-24 64.5q0 26 11 49t30 40t43.5 26.5t50.5 9.5q39 0 63 -26.5t24 -64.5q0 -26 -11 -49t-29.5 -40
t-43 -26.5t-50.5 -9.5z" />
    <glyph glyph-name="uring" unicode="&#x16f;" horiz-adv-x="655" 
d="M141 545h92l-59 -257q-2 -9 -5 -25t-6 -34t-5 -34.5t-2 -26.5q0 -52 29 -74.5t78 -22.5q89 0 140.5 54t77.5 168l58 252h92l-126 -545h-88l20 86h-2q-22 -28 -47 -46t-51.5 -29t-53.5 -15.5t-53 -4.5q-47 0 -79 13.5t-51.5 36t-28.5 50.5t-9 57q0 15 1.5 33t4.5 36t6 35
t6 29zM410 648q27 0 46 17t19 43q0 18 -13 31t-32 13q-26 0 -44 -17.5t-18 -40.5q0 -18 11 -32t31 -14zM399 594q-40 0 -63 26.5t-23 62.5q0 26 11 48.5t29 39t41.5 26t48.5 9.5q39 0 63.5 -25.5t24.5 -63.5q0 -26 -10 -48.5t-28 -39t-42 -26t-52 -9.5z" />
    <glyph glyph-name="Uhungarumlaut" unicode="&#x170;" horiz-adv-x="750" 
d="M667 727h95l-98 -426q-20 -85 -48 -144.5t-70 -96.5t-99.5 -53.5t-135.5 -16.5q-50 0 -92 12.5t-72.5 36.5t-47.5 59t-17 80q0 15 1 31t3.5 37t7.5 47.5t13 61.5l85 372h97l-87 -375q-11 -49 -16.5 -91.5t-5.5 -65.5q0 -32 12 -55t32 -37t47 -20.5t57 -6.5q54 0 92.5 11
t66.5 38t47.5 71.5t35.5 112.5zM771 930l-142 -140h-88l96 140h134zM581 930l-142 -140h-88l96 140h134z" />
    <glyph glyph-name="uhungarumlaut" unicode="&#x171;" horiz-adv-x="655" 
d="M141 545h92l-59 -257q-2 -9 -5 -25t-6 -34t-5 -34.5t-2 -26.5q0 -52 29 -74.5t78 -22.5q89 0 140.5 54t77.5 168l58 252h92l-126 -545h-88l20 86h-2q-22 -28 -47 -46t-51.5 -29t-53.5 -15.5t-53 -4.5q-47 0 -79 13.5t-51.5 36t-28.5 50.5t-9 57q0 15 1.5 33t4.5 36t6 35
t6 29zM548 630h-84l90 140h130zM358 630h-84l90 140h130z" />
    <glyph glyph-name="Uogonek" unicode="&#x172;" horiz-adv-x="750" 
d="M667 727h95l-98 -426q-29 -127 -79 -197t-135 -96q-72 -30 -109.5 -67.5t-37.5 -71.5q0 -17 12.5 -29t38.5 -12q36 0 61 11l-14 -64q-42 -15 -92 -15t-77.5 24.5t-27.5 60.5q0 38 30 75.5t93 69.5h-16q-50 0 -92 12.5t-72.5 36.5t-47.5 59t-17 80q0 15 1 31t3.5 37
t7.5 47.5t13 61.5l85 372h97l-87 -375q-11 -49 -16.5 -91.5t-5.5 -65.5q0 -32 12 -55t32 -37t47 -20.5t57 -6.5q54 0 92.5 11t66.5 38t47.5 71.5t35.5 112.5z" />
    <glyph glyph-name="uogonek" unicode="&#x173;" horiz-adv-x="655" 
d="M372 -240q-50 0 -77.5 24.5t-27.5 60.5q0 44 35 88t117 78l18 75h-2q-22 -28 -47 -46t-51.5 -29t-53.5 -15.5t-53 -4.5q-47 0 -79 13.5t-51.5 36t-28.5 50.5t-9 57q0 15 1.5 33t4.5 36t6 35t6 29l61 264h92l-59 -257q-2 -9 -5 -25t-6 -34t-5 -34.5t-2 -26.5
q0 -52 29 -74.5t78 -22.5q89 0 140.5 54t77.5 168l58 252h92l-126 -545q-76 -31 -107.5 -63.5t-31.5 -67.5q0 -17 12.5 -29t38.5 -12q36 0 61 11l-14 -64q-42 -15 -92 -15z" />
    <glyph glyph-name="Ydieresis" unicode="&#x178;" horiz-adv-x="645" 
d="M305 0h-96l69 300l-170 427h105l130 -336l285 336h115l-369 -427zM619 860q0 -26 -16 -42t-42 -16t-42 16t-16 42t16 42t42 16t42 -16t16 -42zM385 860q0 -26 -16 -42t-42 -16t-42 16t-16 42t16 42t42 16t42 -16t16 -42z" />
    <glyph glyph-name="Zacute" unicode="&#x179;" horiz-adv-x="610" 
d="M505 0h-530l20 86l535 555h-396l20 86h514l-20 -86l-535 -555h412zM443 790h-88l86 140h134z" />
    <glyph glyph-name="zacute" unicode="&#x17a;" horiz-adv-x="510" 
d="M405 0h-430l20 86l400 379h-303l19 80h415l-20 -86l-401 -379h318zM369 630h-86l90 140h132z" />
    <glyph glyph-name="Zdotaccent" unicode="&#x17b;" horiz-adv-x="610" 
d="M505 0h-530l20 86l535 555h-396l20 86h514l-20 -86l-535 -555h412zM422 796q-29 0 -46.5 17.5t-17.5 46.5t17.5 46.5t46.5 17.5t46.5 -17.5t17.5 -46.5t-17.5 -46.5t-46.5 -17.5z" />
    <glyph glyph-name="zdotaccent" unicode="&#x17c;" horiz-adv-x="510" 
d="M405 0h-430l20 86l400 379h-303l19 80h415l-20 -86l-401 -379h318zM394 700q0 -25 -16.5 -41.5t-41.5 -16.5t-41.5 16.5t-16.5 41.5t16.5 41.5t41.5 16.5t41.5 -16.5t16.5 -41.5z" />
    <glyph glyph-name="Zcaron" unicode="&#x17d;" horiz-adv-x="610" 
d="M505 0h-530l20 86l535 555h-396l20 86h514l-20 -86l-535 -555h412zM481 790h-110l-88 140h90l62 -81l100 81h98z" />
    <glyph glyph-name="zcaron" unicode="&#x17e;" horiz-adv-x="510" 
d="M405 0h-430l20 86l400 379h-303l19 80h415l-20 -86l-401 -379h318zM396 630h-110l-88 140h86l65 -85l105 85h94z" />
    <glyph glyph-name="uni018F" unicode="&#x18f;" horiz-adv-x="725" 
d="M84 388h500q5 23 7.5 43.5t2.5 40.5q0 36 -10 68t-34 57t-63.5 39.5t-98.5 14.5q-52 0 -96 -7t-89 -24l20 90q25 8 48 13.5t46.5 8.5t48.5 4t54 1q141 0 208.5 -68.5t67.5 -195.5q0 -41 -9 -92.5t-29 -105.5t-51.5 -105t-77 -91t-105.5 -64.5t-136 -24.5
q-106 0 -167.5 60.5t-61.5 167.5q0 29 4 62t12 69zM166 302q-4 -22 -6 -39.5t-2 -35.5q0 -68 34.5 -109.5t114.5 -41.5q54 0 95.5 19t73 50.5t53 72t35.5 84.5h-398z" />
    <glyph glyph-name="florin" unicode="&#x192;" horiz-adv-x="540" 
d="M17 -233q-13 0 -24 1.5t-23 3.5l17 80q20 -5 35 -5q52 0 80 28t42 95l105 495h-113l17 80h113l16 76q21 99 72.5 143.5t143.5 44.5q16 0 31 -1.5t36 -4.5l-17 -80q-7 2 -20.5 4t-29.5 2q-30 0 -51 -6t-35.5 -21t-24.5 -40.5t-18 -64.5l-11 -52h152l-17 -80h-152
l-102 -480q-13 -60 -31 -101.5t-44.5 -67.5t-62.5 -37.5t-84 -11.5z" />
    <glyph glyph-name="uni01DD" unicode="&#x1dd;" horiz-adv-x="588" 
d="M138 527q14 5 57.5 16t103.5 11q72 0 119.5 -16.5t75.5 -45.5t39 -68t11 -83q0 -76 -23.5 -140.5t-67 -111t-104 -72.5t-135.5 -26q-42 0 -78 9t-63 27t-42.5 44.5t-15.5 61.5q0 25 9 56.5t41 59t93.5 46t167.5 18.5q25 0 59 -1t60 -3q5 48 -3 79.5t-28.5 50.5t-53.5 27
t-76 8q-58 0 -96.5 -10t-68.5 -22zM428 235q-33 3 -58 4t-52 1q-68 0 -110 -10t-65 -25t-30.5 -32t-7.5 -31q0 -29 28 -50t91 -21q79 0 130.5 45t73.5 119z" />
    <glyph glyph-name="Gcaron" unicode="&#x1e6;" horiz-adv-x="740" 
d="M570 290h-168l20 86h165h95l-79 -342q-42 -20 -98.5 -32t-121.5 -12q-68 0 -125 18.5t-98.5 55t-64.5 91t-23 125.5q0 89 29 171.5t87 146t143.5 101.5t199.5 38q26 0 53.5 -3t52 -7t44.5 -9.5t32 -9.5l-21 -90q-18 9 -41 15.5t-47 10.5t-47.5 5.5t-42.5 1.5
q-84 0 -147.5 -27.5t-106 -76t-63.5 -115.5t-21 -146q0 -47 12.5 -85.5t40 -66.5t70.5 -43t105 -15q11 0 26.5 0.5t32 2.5t32.5 4.5t29 7.5zM598 790h-110l-88 140h90l62 -81l100 81h98z" />
    <glyph glyph-name="gcaron" unicode="&#x1e7;" horiz-adv-x="670" 
d="M558 545h88l-120 -520q-30 -128 -105 -191t-211 -63q-29 0 -59 3t-57.5 8.5t-51 13t-39.5 16.5l19 84q12 -7 30.5 -15t42.5 -14.5t53 -11t61 -4.5q52 0 89.5 10t64 31t43 53t26.5 75l17 75h-1q-46 -55 -99.5 -75t-107.5 -20q-49 0 -86.5 15.5t-63 42.5t-38.5 64t-13 80
q0 73 22 137t64 112t104 75.5t143 27.5q59 0 103.5 -20t61.5 -67h2zM357 474q-55 0 -96 -20t-68 -55.5t-40.5 -82.5t-13.5 -101q0 -65 32 -100t97 -35q54 0 97 21t73 56t46 81.5t16 96.5q0 66 -38.5 102.5t-104.5 36.5zM451 630h-110l-88 140h86l65 -85l105 85h94z" />
    <glyph glyph-name="Scommaaccent" unicode="&#x218;" horiz-adv-x="580" 
d="M38 129q11 -9 30 -18t43 -17t52.5 -13t58.5 -5q94 0 138.5 38t44.5 106q0 23 -6.5 40.5t-21 32t-38.5 27.5t-59 27l-22 9q-61 25 -96.5 63.5t-35.5 97.5q0 49 20.5 90t58.5 69.5t92 44.5t120 16q47 0 90 -10t70 -23l-21 -90q-30 15 -74 26t-90 11q-82 0 -122.5 -32.5
t-40.5 -87.5q0 -17 4.5 -31t18 -27t37.5 -27t63 -32l24 -11q72 -32 102.5 -72t30.5 -91q0 -57 -21.5 -103.5t-60.5 -79t-94 -50t-121 -17.5q-60 0 -111.5 13.5t-83.5 33.5zM123 -190q39 -2 60 10.5t26 32.5q-15 -4 -30 -4q-26 0 -40 12t-14 31q0 26 20.5 42t60.5 16
q35 0 56 -18t21 -45q0 -58 -46.5 -94t-125.5 -33z" />
    <glyph glyph-name="scommaaccent" unicode="&#x219;" horiz-adv-x="475" 
d="M20 111q31 -18 69 -29t86 -11q37 0 61.5 9t39.5 22.5t21 30t6 32.5q0 24 -16.5 40t-41.5 29t-54.5 25t-54.5 27.5t-41.5 38t-16.5 56.5q0 78 59 125.5t173 47.5q20 0 41 -2t40.5 -6t35.5 -8.5t26 -8.5l-19 -82q-29 14 -64 20.5t-64 6.5q-71 0 -100 -21.5t-29 -51.5
q0 -24 16.5 -39.5t41.5 -27.5t54 -24t54 -28.5t41.5 -40.5t16.5 -60q0 -88 -61.5 -139t-184.5 -51q-40 0 -82 10.5t-72 25.5zM78 -190q39 -2 60 10.5t26 32.5q-15 -4 -30 -4q-26 0 -40 12t-14 31q0 26 20.5 42t60.5 16q35 0 56 -18t21 -45q0 -58 -46.5 -94t-125.5 -33z" />
    <glyph glyph-name="Tcommaaccent" unicode="&#x21a;" horiz-adv-x="590" 
d="M278 0h-96l148 641h-227l20 86h550l-20 -86h-227zM124 -190q39 -2 60 10.5t26 32.5q-15 -4 -30 -4q-26 0 -40 12t-14 31q0 26 20.5 42t60.5 16q35 0 56 -18t21 -45q0 -58 -46.5 -94t-125.5 -33z" />
    <glyph glyph-name="tcommaaccent" unicode="&#x21b;" horiz-adv-x="415" 
d="M421 465h-157l-58 -248q-2 -6 -4 -17.5t-4 -24.5t-3.5 -26t-1.5 -22q0 -26 16 -41t55 -15q20 0 39 3.5t37 11.5l-19 -82q-19 -6 -43 -9.5t-47 -3.5q-37 0 -63 8.5t-42 23.5t-23 35.5t-7 44.5q0 20 5.5 51.5t12.5 60.5l58 250h-115l18 80h115l27 115l100 33l-35 -148h157z
M98 -190q39 -2 60 10.5t26 32.5q-15 -4 -30 -4q-26 0 -40 12t-14 31q0 26 20.5 42t60.5 16q35 0 56 -18t21 -45q0 -58 -46.5 -94t-125.5 -33z" />
    <glyph glyph-name="uni0237" unicode="&#x237;" horiz-adv-x="262" 
d="M-145 -147q10 -2 20 -4.5t22 -2.5q23 0 40.5 5t31 17.5t24 35.5t18.5 59l9 37l125 545h93l-130 -561q-15 -64 -33.5 -106t-44 -67t-60.5 -35t-82 -10q-12 0 -24 2t-27 5z" />
    <glyph glyph-name="uni0259" unicode="&#x259;" horiz-adv-x="588" 
d="M138 527q14 5 57.5 16t103.5 11q72 0 119.5 -16.5t75.5 -45.5t39 -68t11 -83q0 -76 -23.5 -140.5t-67 -111t-104 -72.5t-135.5 -26q-42 0 -78 9t-63 27t-42.5 44.5t-15.5 61.5q0 25 9 56.5t41 59t93.5 46t167.5 18.5q25 0 59 -1t60 -3q5 48 -3 79.5t-28.5 50.5t-53.5 27
t-76 8q-58 0 -96.5 -10t-68.5 -22zM428 235q-33 3 -58 4t-52 1q-68 0 -110 -10t-65 -25t-30.5 -32t-7.5 -31q0 -29 28 -50t91 -21q79 0 130.5 45t73.5 119z" />
    <glyph glyph-name="afii57929" unicode="&#x2bc;" horiz-adv-x="245" 
d="M102 727h103l-83 -220h-72z" />
    <glyph glyph-name="circumflex" unicode="&#x2c6;" horiz-adv-x="390" 
d="M450 630h-88l-65 85l-105 -85h-92l152 140h110z" />
    <glyph glyph-name="caron" unicode="&#x2c7;" horiz-adv-x="390" 
d="M331 630h-110l-88 140h86l65 -85l105 85h94z" />
    <glyph glyph-name="breve" unicode="&#x2d8;" horiz-adv-x="380" 
d="M269 622q-32 0 -58 10t-44.5 28.5t-28 43.5t-8.5 55l75 19q0 -80 78 -80t116 80l71 -19q-26 -62 -79.5 -99.5t-121.5 -37.5z" />
    <glyph glyph-name="dotaccent" unicode="&#x2d9;" horiz-adv-x="258" 
d="M187 700q0 -25 -16.5 -41.5t-41.5 -16.5t-41.5 16.5t-16.5 41.5t16.5 41.5t41.5 16.5t41.5 -16.5t16.5 -41.5z" />
    <glyph glyph-name="ring" unicode="&#x2da;" horiz-adv-x="252" 
d="M211 648q27 0 46 17t19 43q0 18 -13 31t-32 13q-26 0 -44 -17.5t-18 -40.5q0 -18 11 -32t31 -14zM200 594q-40 0 -63 26.5t-23 62.5q0 26 11 48.5t29 39t41.5 26t48.5 9.5q39 0 63.5 -25.5t24.5 -63.5q0 -26 -10 -48.5t-28 -39t-42 -26t-52 -9.5z" />
    <glyph glyph-name="ogonek" unicode="&#x2db;" horiz-adv-x="250" 
d="M97 -240q-50 0 -77.5 24.5t-27.5 60.5q0 23 9.5 47t30.5 46.5t54.5 43.5t81.5 38l62 -20q-76 -31 -107.5 -63.5t-31.5 -67.5q0 -17 12.5 -29t38.5 -12q36 0 61 11l-14 -64q-42 -15 -92 -15z" />
    <glyph glyph-name="tilde" unicode="&#x2dc;" horiz-adv-x="390" 
d="M370 745q-4 -49 -31 -77t-69 -28q-26 0 -47.5 8t-39 17t-32 17t-27.5 8q-11 0 -23.5 -10t-16.5 -40l-64 15q4 49 31 77t69 28q26 0 47.5 -8t39 -17t32 -17t27.5 -8q11 0 23.5 10t16.5 40z" />
    <glyph glyph-name="hungarumlaut" unicode="&#x2dd;" horiz-adv-x="450" 
d="M294 630h-84l90 140h130zM104 630h-84l90 140h130z" />
    <glyph glyph-name="acutecomb" unicode="&#x301;" horiz-adv-x="0" 
d="M-121 630h-86l90 140h132z" />
    <glyph glyph-name="uni0394" unicode="&#x394;" horiz-adv-x="700" 
d="M330 727h90l295 -727h-680zM589 86l-213 534h-2l-213 -534h428z" />
    <glyph glyph-name="uni0394" unicode="&#x2206;" horiz-adv-x="700" 
d="M330 727h90l295 -727h-680zM589 86l-213 534h-2l-213 -534h428z" />
    <glyph glyph-name="uni03A9" unicode="&#x3a9;" horiz-adv-x="800" 
d="M425 651q-54 0 -97.5 -16.5t-74 -46.5t-47 -73t-16.5 -96q0 -89 50 -147.5t138 -70.5v-201h-288v86h200v53q-94 26 -147 100t-53 180q0 74 23 133t66.5 100t105.5 63t140 22t140 -22t105.5 -63t66.5 -100t23 -133q0 -106 -53 -180t-147 -100v-53h200v-86h-288v201
q88 12 138 70.5t50 147.5q0 53 -16.5 96t-47 73t-74 46.5t-97.5 16.5z" />
    <glyph glyph-name="uni03A9" unicode="&#x2126;" horiz-adv-x="800" 
d="M425 651q-54 0 -97.5 -16.5t-74 -46.5t-47 -73t-16.5 -96q0 -89 50 -147.5t138 -70.5v-201h-288v86h200v53q-94 26 -147 100t-53 180q0 74 23 133t66.5 100t105.5 63t140 22t140 -22t105.5 -63t66.5 -100t23 -133q0 -106 -53 -180t-147 -100v-53h200v-86h-288v201
q88 12 138 70.5t50 147.5q0 53 -16.5 96t-47 73t-74 46.5t-97.5 16.5z" />
    <glyph glyph-name="pi" unicode="&#x3c0;" horiz-adv-x="700" 
d="M186 465q-53 0 -91 -30l-23 73q11 6 26 12.5t36 12t49 9t65 3.5h473l-19 -80h-85l-71 -310q-2 -9 -5.5 -26.5t-3.5 -23.5q0 -30 31 -30q5 0 15.5 1t18.5 4l-20 -86q-14 -2 -25.5 -3.5t-28.5 -1.5q-16 0 -32 4t-28.5 13.5t-20.5 24t-8 35.5q0 11 2.5 31t7.5 41l76 327
h-247l-107 -465h-92z" />
    <glyph glyph-name="afii10023" unicode="&#x401;" horiz-adv-x="595" 
d="M465 0h-333h-97l168 727h430l-20 -86h-334l-51 -223h304l-20 -86h-304l-57 -246h334zM623 860q0 -26 -16 -42t-42 -16t-42 16t-16 42t16 42t42 16t42 -16t16 -42zM389 860q0 -26 -16 -42t-42 -16t-42 16t-16 42t16 42t42 16t42 -16t16 -42z" />
    <glyph glyph-name="afii10051" unicode="&#x402;" horiz-adv-x="792" 
d="M231 0h-96l148 641h-180l20 86h502l-20 -86h-226l-49 -214q93 36 181 36q48 0 87 -12t67 -35t43.5 -56t15.5 -75q0 -65 -21.5 -119.5t-60.5 -93.5t-95 -60.5t-125 -21.5q-22 0 -45 4t-37 8l20 86q15 -5 34.5 -8.5t38.5 -3.5q49 0 84.5 14t58.5 39t34 60.5t11 78.5
q0 53 -38.5 81t-107.5 28q-88 0 -166 -39z" />
    <glyph glyph-name="afii10052" unicode="&#x403;" horiz-adv-x="530" 
d="M131 0h-96l168 727h410l-20 -86h-314zM458 790h-88l86 140h134z" />
    <glyph glyph-name="afii10053" unicode="&#x404;" horiz-adv-x="670" 
d="M538 16q-15 -6 -37.5 -11t-45.5 -8.5t-45 -5t-37 -1.5q-73 0 -129 21t-94.5 59.5t-58 93t-19.5 121.5q0 83 28.5 164t84.5 145t140 103.5t194 39.5q27 0 53.5 -3t49.5 -7.5t41 -9t27 -8.5l-20 -88q-16 8 -38 13.5t-45 9.5t-43.5 5.5t-33.5 1.5q-68 0 -121 -18t-92 -49
t-64.5 -74t-39.5 -92h309l-20 -86h-304q-1 -11 -1.5 -22.5t-0.5 -22.5q0 -101 53.5 -156t175.5 -55q32 0 70.5 5.5t83.5 22.5z" />
    <glyph glyph-name="afii10054" unicode="&#x405;" horiz-adv-x="580" 
d="M38 129q11 -9 30 -18t43 -17t52.5 -13t58.5 -5q94 0 138.5 38t44.5 106q0 23 -6.5 40.5t-21 32t-38.5 27.5t-59 27l-22 9q-61 25 -96.5 63.5t-35.5 97.5q0 49 20.5 90t58.5 69.5t92 44.5t120 16q47 0 90 -10t70 -23l-21 -90q-30 15 -74 26t-90 11q-82 0 -122.5 -32.5
t-40.5 -87.5q0 -17 4.5 -31t18 -27t37.5 -27t63 -32l24 -11q72 -32 102.5 -72t30.5 -91q0 -57 -21.5 -103.5t-60.5 -79t-94 -50t-121 -17.5q-60 0 -111.5 13.5t-83.5 33.5z" />
    <glyph glyph-name="afii10055" unicode="&#x406;" horiz-adv-x="296" 
d="M131 0h-96l168 727h96z" />
    <glyph glyph-name="afii10056" unicode="&#x407;" horiz-adv-x="296" 
d="M131 0h-96l168 727h96zM434 860q0 -26 -16 -42t-42 -16t-42 16t-16 42t16 42t42 16t42 -16t16 -42zM237 859q0 -26 -16 -42t-42 -16t-42 16t-16 42t16 42t42 16t42 -16t16 -42z" />
    <glyph glyph-name="afii10057" unicode="&#x408;" horiz-adv-x="425" 
d="M-7 92q17 -7 39 -11.5t41 -4.5q29 0 50.5 5t38 18t27.5 35.5t19 56.5l124 536h96l-128 -553q-23 -98 -77 -141t-150 -43q-13 0 -28 1.5t-29 4.5t-25 6t-17 6z" />
    <glyph glyph-name="afii10058" unicode="&#x409;" horiz-adv-x="1050" 
d="M469 0l148 641h-237q-43 -183 -81 -308t-79 -201t-90.5 -109t-114.5 -33q-18 0 -41 5l21 92q9 -2 16.5 -3.5t17.5 -1.5q37 0 70 33.5t65.5 109.5t62.5 183.5t59 231.5q10 42 20 87h332h95l-71 -306h82q21 0 47 -1t53 -6t53 -15t46 -28t32 -46t12 -68q0 -65 -19 -109
t-49 -72.5t-67.5 -44t-75.5 -22.5t-72 -8t-57 -1h-178zM585 86h82q19 0 42.5 0.5t47.5 4.5t47 13t40.5 26t28.5 43.5t11 66.5q0 36 -16 55.5t-40 28t-52 10t-52 1.5h-82z" />
    <glyph glyph-name="afii10059" unicode="&#x40a;" horiz-adv-x="1080" 
d="M499 0l77 335h-368l-77 -335h-96l168 727h96l-71 -306h368l71 306h96l-71 -306h82q21 0 47 -1t53 -6t53 -15t46 -28t32 -46t12 -68q0 -65 -19 -109t-49 -72.5t-67.5 -44t-75.5 -22.5t-72 -8t-57 -1h-178zM615 86h82q19 0 42.5 0.5t47.5 4.5t47 13t40.5 26t28.5 43.5
t11 66.5q0 36 -16 55.5t-40 28t-52 10t-52 1.5h-82z" />
    <glyph glyph-name="afii10060" unicode="&#x40b;" horiz-adv-x="765" 
d="M283 641h-180l20 86h506l-20 -86h-230l-47 -205q29 9 70 18t92 9q59 0 98 -13.5t62.5 -35t32.5 -47.5t9 -51q0 -11 -2.5 -26.5t-5.5 -32t-6 -31t-5 -22.5l-47 -204h-96l46 201q2 8 4.5 19.5t4.5 24t3.5 23.5t1.5 19q0 17 -6 33.5t-22 29.5t-43.5 21t-70.5 8
q-41 0 -74.5 -7t-64.5 -18l-82 -354h-96z" />
    <glyph glyph-name="afii10061" unicode="&#x40c;" horiz-adv-x="680" 
d="M222 395l410 332h126l-439 -347l291 -380h-114l-281 365l-84 -365h-96l168 727h96zM508 790h-88l86 140h134z" />
    <glyph glyph-name="afii10062" unicode="&#x40e;" 
d="M62 92q32 -16 64 -16q33 0 61.5 17.5t58.5 60.5l14 20l-167 553h102l135 -457l283 457h99l-379 -589q-27 -41 -52 -69.5t-50.5 -46t-52 -25t-57.5 -7.5q-23 0 -43 5t-35 13zM632 921q-22 -66 -73 -99.5t-127 -33.5q-38 0 -64.5 10t-43.5 28t-24.5 42t-7.5 53l80 11
q-2 -35 16.5 -53.5t59.5 -18.5q42 0 69.5 17t41.5 55z" />
    <glyph glyph-name="afii10145" unicode="&#x40f;" horiz-adv-x="750" 
d="M264 0h-229l168 727h96l-148 -641h358l148 641h96l-168 -727h-229l-37 -160h-92z" />
    <glyph glyph-name="afii10017" unicode="&#x410;" horiz-adv-x="690" 
d="M488 192h-323l-119 -192h-101l459 727h89l122 -727h-96zM218 278h257l-48 347h-2z" />
    <glyph glyph-name="afii10018" unicode="&#x411;" horiz-adv-x="635" 
d="M151 86h124q64 0 102.5 15.5t59.5 39.5t27.5 52.5t6.5 54.5q0 49 -31 71.5t-85 22.5h-145zM131 0h-96l168 727h425l-20 -86h-329l-51 -213h146q93 0 147 -42t54 -125q0 -75 -27 -125.5t-72 -80.5t-102.5 -42.5t-118.5 -12.5h-124z" />
    <glyph glyph-name="afii10019" unicode="&#x412;" horiz-adv-x="665" 
d="M150 86h140q53 0 90 7.5t60.5 24.5t34.5 45t11 69q0 103 -156 103h-123zM226 415h119q56 0 94 10t61 28t33 42.5t10 54.5q0 91 -123 91h-142zM130 0h-96l168 727h252q51 0 88 -11t60.5 -31.5t34.5 -48.5t11 -61q0 -87 -49 -136.5t-137 -60.5v-3q34 -5 58 -18t39 -32.5
t22 -43.5t7 -49q0 -36 -12 -76.5t-46 -75t-94 -57.5t-157 -23h-149z" />
    <glyph glyph-name="afii10020" unicode="&#x413;" horiz-adv-x="530" 
d="M131 0h-96l168 727h410l-20 -86h-314z" />
    <glyph glyph-name="afii10021" unicode="&#x414;" horiz-adv-x="765" 
d="M628 -160h-92l37 160h-515l-37 -160h-92l57 246h77q45 66 79.5 130.5t63.5 138.5t55 164.5t53 207.5h429l-148 -641h90zM499 86l128 555h-241q-39 -171 -95.5 -311t-125.5 -244h334z" />
    <glyph glyph-name="afii10022" unicode="&#x415;" horiz-adv-x="595" 
d="M465 0h-333h-97l168 727h430l-20 -86h-334l-51 -223h304l-20 -86h-304l-57 -246h334z" />
    <glyph glyph-name="afii10024" unicode="&#x416;" horiz-adv-x="930" 
d="M439 376l-377 -376h-122l406 388l-218 339h104l209 -340l79 340h96l-79 -340l355 340h116l-375 -340l227 -387h-105l-220 376l-87 -376h-96z" />
    <glyph glyph-name="afii10025" unicode="&#x417;" horiz-adv-x="605" 
d="M23 124q35 -21 84.5 -34.5t97.5 -13.5q61 0 103 10t68 29t38 47.5t12 66.5q0 103 -155 103h-84l20 86h63q108 0 158.5 35t50.5 108q0 43 -36.5 66.5t-103.5 23.5q-49 0 -95.5 -10t-91.5 -26l21 92q52 17 100.5 23.5t100.5 6.5q107 0 158.5 -44t51.5 -115q0 -79 -50 -128
t-130 -70v-4q63 -10 94 -46t31 -89q0 -117 -81.5 -184t-254.5 -67q-31 0 -60.5 3.5t-54.5 9.5t-44.5 13.5t-31.5 15.5z" />
    <glyph glyph-name="afii10026" unicode="&#x418;" horiz-adv-x="770" 
d="M605 0h-96l135 582h-2l-500 -582h-107l168 727h96l-135 -582h2l500 582h107z" />
    <glyph glyph-name="afii10027" unicode="&#x419;" horiz-adv-x="770" 
d="M605 0h-96l135 582h-2l-500 -582h-107l168 727h96l-135 -582h2l500 582h107zM702 921q-22 -66 -73 -99.5t-127 -33.5q-38 0 -64.5 10t-43.5 28t-24.5 42t-7.5 53l80 11q-2 -35 16.5 -53.5t59.5 -18.5q42 0 69.5 17t41.5 55z" />
    <glyph glyph-name="afii10028" unicode="&#x41a;" horiz-adv-x="680" 
d="M222 395l410 332h126l-439 -347l291 -380h-114l-281 365l-84 -365h-96l168 727h96z" />
    <glyph glyph-name="afii10029" unicode="&#x41b;" horiz-adv-x="750" 
d="M585 0h-96l148 641h-257q-43 -183 -81 -308t-79 -201t-90.5 -109t-114.5 -33q-18 0 -41 5l21 92q9 -2 16.5 -3.5t17.5 -1.5q37 0 70 33.5t65.5 109.5t67 199t74.5 303h93h354z" />
    <glyph glyph-name="afii10030" unicode="&#x41c;" horiz-adv-x="900" 
d="M735 0h-96l148 640h-2l-314 -490h-100l-90 490h-2l-148 -640h-96l168 727h153l87 -480l301 480h159z" />
    <glyph glyph-name="afii10031" unicode="&#x41d;" horiz-adv-x="780" 
d="M615 0h-96l77 335h-388l-77 -335h-96l168 727h96l-71 -306h388l71 306h96z" />
    <glyph glyph-name="afii10032" unicode="&#x41e;" horiz-adv-x="820" 
d="M359 76q79 0 140.5 33.5t102.5 88.5t62.5 125t21.5 143q0 86 -48 135.5t-143 49.5q-83 0 -142.5 -33.5t-98.5 -88t-57.5 -123.5t-18.5 -139q0 -42 11 -77.5t33 -60.5t56 -39t81 -14zM345 -10q-66 0 -116.5 20.5t-84.5 56t-51.5 83t-17.5 101.5q0 90 28.5 177.5t84 156
t138.5 110.5t191 42q133 0 201 -70t68 -191q0 -90 -29 -177.5t-85 -156t-138 -110.5t-189 -42z" />
    <glyph glyph-name="afii10033" unicode="&#x41f;" horiz-adv-x="750" 
d="M585 0h-96l148 641h-358l-148 -641h-96l168 727h550z" />
    <glyph glyph-name="afii10034" unicode="&#x420;" horiz-adv-x="625" 
d="M213 354h115q63 0 103.5 15.5t64 40.5t32.5 57t9 65q0 54 -33 81.5t-110 27.5h-115zM131 0h-96l168 727h220q217 0 217 -176q0 -133 -82 -208t-254 -75h-111z" />
    <glyph glyph-name="afii10035" unicode="&#x421;" horiz-adv-x="670" 
d="M538 16q-15 -6 -37.5 -11t-45.5 -8.5t-45 -5t-37 -1.5q-73 0 -129 21.5t-94.5 60.5t-58 93t-19.5 120q0 83 28.5 164t84.5 145t140 103.5t194 39.5q27 0 53.5 -3.5t49.5 -8t41 -9.5t27 -9l-20 -88q-16 8 -38 14t-45 10t-43.5 6t-33.5 2q-89 0 -152 -30t-103.5 -80.5
t-59.5 -116.5t-19 -137q0 -99 53.5 -155t175.5 -56q32 0 70.5 5.5t83.5 22.5z" />
    <glyph glyph-name="afii10036" unicode="&#x422;" horiz-adv-x="590" 
d="M278 0h-96l148 641h-227l20 86h550l-20 -86h-227z" />
    <glyph glyph-name="afii10037" unicode="&#x423;" 
d="M62 92q32 -16 64 -16q33 0 61.5 17.5t58.5 60.5l14 20l-167 553h102l135 -457l283 457h99l-379 -589q-27 -41 -52 -69.5t-50.5 -46t-52 -25t-57.5 -7.5q-23 0 -43 5t-35 13z" />
    <glyph glyph-name="afii10038" unicode="&#x424;" horiz-adv-x="880" 
d="M461 163h16q70 0 120.5 20t83 55.5t48 83.5t15.5 104q0 69 -40.5 106t-133.5 37h-16zM365 163l93 406h-20q-76 0 -126.5 -23.5t-80.5 -60.5t-42.5 -83t-12.5 -91q0 -66 40.5 -107t131.5 -41h17zM421 -10h-96l21 89h-17q-126 0 -190.5 59.5t-64.5 163.5q0 83 28 148.5
t79 110.5t122.5 68.5t157.5 23.5h17l20 84h96l-20 -84h16q127 0 191.5 -55.5t64.5 -159.5q0 -81 -26.5 -147t-76.5 -113.5t-122 -73t-163 -25.5h-16z" />
    <glyph glyph-name="afii10039" unicode="&#x425;" horiz-adv-x="650" 
d="M471 0l-134 308l-267 -308h-118l343 378l-154 349h108l117 -285l243 285h113l-311 -347l166 -380h-106z" />
    <glyph glyph-name="afii10040" unicode="&#x426;" horiz-adv-x="765" 
d="M628 -160h-92l37 160h-538l168 727h96l-148 -641h348l148 641h96l-148 -641h90z" />
    <glyph glyph-name="afii10041" unicode="&#x427;" horiz-adv-x="670" 
d="M505 0h-96l71 306q-40 -11 -76.5 -20t-88.5 -9q-45 0 -82 10.5t-64 30.5t-41.5 48.5t-14.5 64.5q0 20 4.5 46.5t12.5 62.5l43 187h96l-46 -200q-4 -17 -8 -40.5t-4 -37.5q0 -45 36.5 -65.5t98.5 -20.5q45 0 84 7.5t69 19.5l78 337h96z" />
    <glyph glyph-name="afii10042" unicode="&#x428;" horiz-adv-x="980" 
d="M815 0h-780l168 727h96l-148 -641h246l148 641h96l-148 -641h246l148 641h96z" />
    <glyph glyph-name="afii10043" unicode="&#x429;" horiz-adv-x="1005" 
d="M868 -160h-92l37 160h-778l168 727h96l-148 -641h247l148 641h96l-148 -641h245l148 641h96l-148 -641h90z" />
    <glyph glyph-name="afii10044" unicode="&#x42a;" horiz-adv-x="715" 
d="M125 0l148 641h-170l20 86h171h95l-63 -274h89q31 0 73 -5t79.5 -23t63.5 -53.5t26 -95.5q0 -70 -19.5 -117.5t-50 -78.5t-69.5 -47t-77.5 -23.5t-73 -8.5t-57.5 -1h-185zM241 86h89q28 0 67 2.5t73.5 18.5t59 50.5t24.5 99.5q0 37 -15.5 58.5t-39 33t-51.5 15t-53 3.5
h-89z" />
    <glyph glyph-name="afii10045" unicode="&#x42b;" horiz-adv-x="880" 
d="M715 0h-96l168 727h96zM151 86h81q28 0 67 2.5t73.5 18.5t59 50.5t24.5 99.5q0 37 -15.5 58.5t-39 33t-51.5 15t-53 3.5h-81zM35 0l168 727h96l-63 -274h81q31 0 73 -5t79.5 -23t63.5 -53.5t26 -95.5q0 -70 -19.5 -117.5t-50 -78.5t-69.5 -47t-77.5 -23.5t-73 -8.5
t-57.5 -1h-177z" />
    <glyph glyph-name="afii10046" unicode="&#x42c;" horiz-adv-x="625" 
d="M151 86h89q28 0 67 2.5t73.5 18.5t59 50.5t24.5 99.5q0 37 -15.5 58.5t-39 33t-51.5 15t-53 3.5h-89zM35 0l168 727h96l-63 -274h89q31 0 73 -5t79.5 -23t63.5 -53.5t26 -95.5q0 -70 -19.5 -117.5t-50 -78.5t-69.5 -47t-77.5 -23.5t-73 -8.5t-57.5 -1h-185z" />
    <glyph glyph-name="afii10047" unicode="&#x42d;" horiz-adv-x="680" 
d="M217 418h324q6 30 6 57q0 87 -54 131.5t-162 44.5q-50 0 -100.5 -10t-85.5 -24l19 88q34 14 89 23t111 9q143 0 213.5 -65.5t70.5 -193.5q0 -114 -31.5 -204.5t-93.5 -153.5t-153.5 -96.5t-212.5 -33.5q-41 0 -80 7.5t-71 21.5l20 86q28 -12 71 -20.5t85 -8.5
q138 0 222 59t118 197h-325z" />
    <glyph glyph-name="afii10048" unicode="&#x42e;" horiz-adv-x="1060" 
d="M590 -10q-66 0 -114.5 19.5t-81 54t-48 81t-15.5 100.5q0 43 6 87h-129l-77 -332h-96l168 727h96l-71 -309h129q20 64 55 122t86 101.5t117 69.5t147 26q132 0 198 -70t66 -191q0 -90 -28 -177.5t-83 -156t-136.5 -110.5t-188.5 -42zM604 76q79 0 139.5 33.5t101 88.5
t61 125t20.5 143q0 86 -45.5 135.5t-140.5 49.5q-83 0 -141.5 -36t-96 -93t-55 -126t-17.5 -135q0 -85 40.5 -135t133.5 -50z" />
    <glyph glyph-name="afii10049" unicode="&#x42f;" horiz-adv-x="665" 
d="M86 0h-116l274 310q-54 18 -87.5 58t-33.5 106q0 62 23 109.5t65.5 79.5t101.5 48t131 16h224l-168 -727h-96l67 291h-129zM491 377l61 264h-143q-40 0 -73.5 -9.5t-58 -29t-38 -49t-13.5 -69.5q0 -53 38.5 -80t108.5 -27h118z" />
    <glyph glyph-name="afii10065" unicode="&#x430;" horiz-adv-x="669" 
d="M555 545h88l-126 -545h-92l19 79h-2q-44 -46 -92 -67t-109 -21q-52 0 -89.5 17.5t-62 47t-36 68t-11.5 79.5q0 61 18.5 123.5t57.5 113t99 82.5t143 32q40 0 69.5 -8t51 -20.5t34.5 -27.5t20 -29h2zM357 474q-53 0 -93 -20.5t-68 -56t-42 -82t-14 -98.5q0 -65 32 -105.5
t97 -40.5q57 0 99.5 23t71 60.5t43 83.5t14.5 93q0 30 -9.5 56.5t-27.5 45.5t-44 30t-59 11z" />
    <glyph glyph-name="afii10066" unicode="&#x431;" horiz-adv-x="655" 
d="M172 423q38 60 98.5 91t145.5 31q97 0 145.5 -46t48.5 -147q0 -74 -25 -139.5t-69.5 -115t-106.5 -78t-136 -28.5q-59 0 -100.5 15t-67.5 43.5t-38 69.5t-12 93q0 47 13 107.5t33 120t44 111t45 81.5q34 48 70 77t78 46t91 24.5t108 11.5q30 2 59 5.5t60 11.5l-20 -86
q-14 -4 -27 -7t-28 -5.5t-33 -4.5t-41 -3q-72 -4 -124 -18t-90.5 -45t-67 -83t-55.5 -133h2zM150 216q0 -32 6.5 -59t22.5 -46t41 -29.5t63 -10.5q57 0 100 22t72.5 59t44 84t14.5 98q0 64 -33.5 97.5t-104.5 33.5q-66 0 -109.5 -24t-69.5 -61t-36.5 -80.5t-10.5 -83.5z" />
    <glyph glyph-name="afii10067" unicode="&#x432;" horiz-adv-x="585" 
d="M186 320h121q24 0 49.5 2.5t45.5 12t33 28t13 50.5q0 33 -25 42.5t-71 9.5h-133zM130 80h149q64 0 100.5 20.5t36.5 76.5q0 22 -9.5 35.5t-25 21t-35.5 10t-41 2.5h-136zM112 0h-92l126 545h214q92 0 139.5 -27.5t47.5 -89.5q0 -60 -36.5 -96t-96.5 -50v-2q46 -8 71 -32
t25 -66q0 -52 -17.5 -87t-50.5 -56t-79 -30t-103 -9h-148z" />
    <glyph glyph-name="afii10068" unicode="&#x433;" horiz-adv-x="465" 
d="M112 0h-92l126 545h366l-19 -80h-274z" />
    <glyph glyph-name="afii10069" unicode="&#x434;" horiz-adv-x="660" 
d="M525 -150h-88l35 150h-424l-35 -150h-88l53 230h63q31 37 56.5 80.5t48 98.5t43 125t41.5 161h370l-107 -465h85zM401 80l89 385h-196q-14 -62 -31.5 -119t-38.5 -106.5t-44 -90.5t-46 -69h267z" />
    <glyph glyph-name="afii10070" unicode="&#x435;" horiz-adv-x="606" 
d="M466 30q-26 -15 -72.5 -27t-106.5 -12q-61 0 -107 16.5t-76.5 45.5t-46 68t-15.5 83q0 76 23.5 140.5t67 111t104 72.5t135.5 26q42 0 78 -9t63 -26.5t42.5 -44t15.5 -61.5q0 -16 -3.5 -34.5t-15 -37.5t-32.5 -36.5t-55.5 -31.5t-85.5 -23t-121 -10q-25 -1 -58 0.5
t-59 3.5q-5 -48 5 -81t32.5 -53.5t56.5 -29.5t77 -9q58 0 99.5 12t73.5 28zM158 318q33 -3 61 -4t55 -1q68 0 109 9t62.5 23t28.5 30.5t7 30.5q0 28 -28 48t-91 20q-79 0 -130.5 -41t-73.5 -115z" />
    <glyph glyph-name="afii10072" unicode="&#x436;" horiz-adv-x="780" 
d="M439 293l267 252h110l-287 -258l181 -287h-106l-170 273l-63 -273h-92l63 273l-288 -273h-114l315 287l-176 258h102l166 -252l58 252h92z" />
    <glyph glyph-name="afii10073" unicode="&#x437;" horiz-adv-x="530" 
d="M343 282q112 -17 112 -102q0 -89 -75.5 -139t-215.5 -50q-53 0 -95 10t-87 32l19 84q38 -20 83 -33t96 -13q98 0 139.5 27t41.5 78q0 70 -144 70h-70l17 74h76q33 0 61 5.5t49 16t33 27t12 37.5q0 34 -30.5 51t-101.5 17q-16 0 -36.5 -2t-43 -6t-45 -9.5t-43.5 -12.5
l19 84q42 13 89.5 19.5t92.5 6.5q103 0 150.5 -31.5t47.5 -90.5q0 -33 -13.5 -58.5t-35 -43.5t-48.5 -29t-54 -17v-2z" />
    <glyph glyph-name="afii10074" unicode="&#x438;" horiz-adv-x="650" 
d="M20 0l126 545h92l-95 -408h2l392 408h89l-126 -545h-92l94 408h-2l-393 -408h-87z" />
    <glyph glyph-name="afii10075" unicode="&#x439;" horiz-adv-x="650" 
d="M20 0l126 545h92l-95 -408h2l392 408h89l-126 -545h-92l94 408h-2l-393 -408h-87zM612 765q-20 -67 -75.5 -103.5t-132.5 -36.5q-32 0 -59 9.5t-46 27.5t-29 44t-8 59l79 10q-2 -37 18.5 -57.5t61.5 -20.5q42 0 71.5 20t44.5 58z" />
    <glyph glyph-name="afii10076" unicode="&#x43a;" horiz-adv-x="575" 
d="M180 293l305 252h121l-329 -257l228 -288h-112l-218 273l-63 -273h-92l126 545h92z" />
    <glyph glyph-name="afii10077" unicode="&#x43b;" horiz-adv-x="630" 
d="M15 -9q-11 0 -26.5 1.5t-24.5 3.5l20 86q15 -5 34 -5q30 0 55 23t49.5 77.5t50 144.5t56.5 223h92h285l-126 -545h-92l108 465h-195q-30 -128 -59.5 -218t-63.5 -147t-74 -83t-89 -26z" />
    <glyph glyph-name="afii10078" unicode="&#x43c;" horiz-adv-x="750" 
d="M726 545l-126 -545h-92l100 435l-230 -335h-90l-77 328l-99 -428h-92l126 545h125l79 -362l246 362h130z" />
    <glyph glyph-name="afii10079" unicode="&#x43d;" horiz-adv-x="650" 
d="M498 0h-92l56 243h-292l-56 -243h-92l126 545h92l-51 -222h292l51 222h92z" />
    <glyph glyph-name="afii10080" unicode="&#x43e;" horiz-adv-x="640" 
d="M271 71q59 0 102.5 25.5t71.5 66t41.5 90.5t13.5 98q0 61 -32 92t-104 31q-57 0 -99.5 -24t-71 -63.5t-42.5 -90t-14 -103.5q1 -63 35.5 -92.5t98.5 -29.5zM253 -9q-54 0 -93.5 14t-66 39.5t-39.5 60.5t-13 76q0 67 21.5 134t64 120t106.5 86t150 33q108 0 161 -48
t51 -142q0 -69 -22.5 -136t-66 -119.5t-107.5 -85t-146 -32.5z" />
    <glyph glyph-name="afii10081" unicode="&#x43f;" horiz-adv-x="640" 
d="M487 0h-92l107 465h-282l-107 -465h-92l126 545h466z" />
    <glyph glyph-name="afii10082" unicode="&#x440;" horiz-adv-x="670" 
d="M60 -225h-92l178 770h88l-18 -76h2q40 42 89.5 63.5t115.5 21.5q53 0 91.5 -14t64 -39.5t37.5 -61t12 -77.5q0 -67 -20 -133.5t-60.5 -119t-102 -85.5t-143.5 -33q-27 0 -53 4.5t-48.5 15t-40 27.5t-27.5 42h-3zM305 71q64 0 108 29t70 71t37.5 88.5t11.5 81.5
q0 27 -6.5 51t-22.5 42t-43 29t-68 11q-49 0 -90.5 -20.5t-71.5 -56t-47 -82.5t-17 -100q0 -24 7.5 -49.5t24 -46.5t43 -34.5t64.5 -13.5z" />
    <glyph glyph-name="afii10083" unicode="&#x441;" horiz-adv-x="550" 
d="M434 14q-29 -11 -70 -17t-84 -6q-54 0 -97.5 14t-75 41t-48.5 66t-17 88q0 80 24 145t69.5 111.5t112.5 72t153 25.5q35 0 72.5 -6t70.5 -19l-19 -82q-12 7 -30 12t-37.5 8.5t-39.5 5t-36 1.5q-67 0 -113.5 -21t-75 -56t-41 -80t-12.5 -93q0 -73 43.5 -113t129.5 -40
q35 0 72.5 7t66.5 18z" />
    <glyph glyph-name="afii10084" unicode="&#x442;" horiz-adv-x="500" 
d="M231 0h-92l107 465h-195l18 80h482l-18 -80h-195z" />
    <glyph glyph-name="afii10085" unicode="&#x443;" horiz-adv-x="550" 
d="M15 -233q-20 0 -39 3.5t-32 8.5l19 82q11 -5 25.5 -9.5t31.5 -4.5q23 0 41.5 6t35 19t32 34t32.5 51l17 29l-107 559h92l81 -452h2l263 452h92l-332 -558q-38 -63 -67.5 -105.5t-58 -68t-59 -36t-69.5 -10.5z" />
    <glyph glyph-name="afii10086" unicode="&#x444;" horiz-adv-x="800" 
d="M287 -7q-11 -1 -21.5 -1.5t-20.5 -0.5q-97 0 -150 47.5t-53 141.5q0 35 7.5 76t23.5 82.5t42 80.5t63 69t86 48t112 18q10 0 20 -1l20 -2l58 249h92l-58 -249l22 2t21 1q106 0 155 -46t49 -141q0 -33 -7.5 -73.5t-23.5 -82.5t-41.5 -81.5t-62.5 -70.5t-85.5 -49.5
t-110.5 -18.5q-11 0 -22.5 0.5t-22.5 1.5l-49 -213h-92zM398 472q-9 1 -18.5 1.5t-22.5 0.5q-44 0 -77 -14t-57.5 -37t-40.5 -53t-26 -61t-14 -61.5t-4 -54.5q0 -58 32.5 -90t102.5 -32h16t16 1zM397 72q10 -1 22.5 -1h22.5q48 0 83 18t59 46t39 61.5t23 64t10.5 54
t2.5 31.5q0 66 -32.5 97t-105.5 31q-7 0 -15 -0.5t-16 -1.5z" />
    <glyph glyph-name="afii10087" unicode="&#x445;" horiz-adv-x="540" 
d="M465 0h-102l-102 214l-203 -214h-113l282 285l-127 260h102l91 -194l176 194h107l-248 -260z" />
    <glyph glyph-name="afii10088" unicode="&#x446;" horiz-adv-x="665" 
d="M530 -150h-88l35 150h-457l126 545h92l-108 -465h276l108 465h92l-108 -465h85z" />
    <glyph glyph-name="afii10089" unicode="&#x447;" horiz-adv-x="585" 
d="M435 0h-92l51 219q-35 -12 -68 -18t-71 -6q-39 0 -72 9t-57 26t-37.5 40t-13.5 52q0 17 2.5 41.5t8.5 50.5l30 131h92l-27 -115q-1 -5 -3 -15.5t-3.5 -21.5t-3 -21.5t-1.5 -15.5q0 -38 29 -59.5t85 -21.5q34 0 66.5 5.5t61.5 16.5l57 248h92z" />
    <glyph glyph-name="afii10090" unicode="&#x448;" horiz-adv-x="860" 
d="M710 0h-690l126 545h92l-108 -465h207l108 465h92l-108 -465h207l108 465h92z" />
    <glyph glyph-name="afii10091" unicode="&#x449;" horiz-adv-x="895" 
d="M760 -150h-88l35 150h-687l126 545h92l-108 -465h207l108 465h92l-108 -465h207l108 465h92l-108 -465h85z" />
    <glyph glyph-name="afii10092" unicode="&#x44a;" horiz-adv-x="640" 
d="M95 0l107 465h-155l18 80h155h92l-44 -194h113q42 0 77.5 -8.5t61 -26t40 -44.5t14.5 -64q0 -56 -21 -95t-56 -64.5t-81.5 -37t-97.5 -11.5h-223zM205 80h119q82 0 117 30t35 90q0 44 -32 57.5t-83 13.5h-111z" />
    <glyph glyph-name="afii10093" unicode="&#x44b;" horiz-adv-x="770" 
d="M620 0h-92l126 545h92zM130 80h108q82 0 117 30t35 90q0 44 -32 57.5t-83 13.5h-100zM20 0l126 545h92l-45 -194h102q42 0 77.5 -8.5t61 -26t40 -44.5t14.5 -64q0 -56 -21 -95t-56 -64.5t-81.5 -37t-97.5 -11.5h-212z" />
    <glyph glyph-name="afii10094" unicode="&#x44c;" horiz-adv-x="565" 
d="M130 80h119q82 0 117 30t35 90q0 44 -32 57.5t-83 13.5h-111zM20 0l126 545h92l-45 -194h113q42 0 77.5 -8.5t61 -26t40 -44.5t14.5 -64q0 -56 -21 -95t-56 -64.5t-81.5 -37t-97.5 -11.5h-223z" />
    <glyph glyph-name="afii10095" unicode="&#x44d;" horiz-adv-x="545" 
d="M4 97q26 -11 60.5 -18.5t75.5 -7.5q52 0 91.5 9t69.5 29.5t51 53t35 80.5h-256l19 80h252q8 81 -32.5 116t-140.5 35q-42 0 -81.5 -10t-60.5 -18l18 82q23 9 62.5 17.5t93.5 8.5q123 0 181.5 -53t58.5 -150q0 -84 -25.5 -151t-74 -113.5t-119 -71t-159.5 -24.5
q-38 0 -73 7.5t-64 18.5l18 80v0z" />
    <glyph glyph-name="afii10096" unicode="&#x44e;" horiz-adv-x="860" 
d="M476 -9q-54 0 -92.5 14.5t-64 40t-37.5 60t-12 75.5q0 15 1 30.5t3 31.5h-106l-56 -243h-92l126 545h92l-51 -222h107q16 47 43.5 89t66 73.5t89 50t113.5 18.5q108 0 157 -48t49 -142q0 -69 -21.5 -136t-64 -119.5t-105.5 -85t-145 -32.5zM494 71q59 0 101.5 25.5
t69.5 66t39.5 90.5t12.5 98q0 61 -29 92t-101 31q-57 0 -98.5 -24t-69 -63.5t-40.5 -90t-13 -103.5q0 -122 128 -122z" />
    <glyph glyph-name="afii10097" unicode="&#x44f;" horiz-adv-x="590" 
d="M286 208l-197 -208h-109l211 221q-20 5 -39 15.5t-33.5 25.5t-23.5 35t-9 45q0 52 19.5 90t53.5 63t80 37.5t100 12.5h227l-126 -545h-92l48 208h-110zM414 288l41 177h-126q-73 0 -110 -25.5t-37 -80.5q0 -40 32 -55.5t85 -15.5h115z" />
    <glyph glyph-name="afii10071" unicode="&#x451;" horiz-adv-x="606" 
d="M466 30q-26 -15 -72.5 -27t-106.5 -12q-61 0 -107 16.5t-76.5 45.5t-46 68t-15.5 83q0 76 23.5 140.5t67 111t104 72.5t135.5 26q42 0 78 -9t63 -26.5t42.5 -44t15.5 -61.5q0 -16 -3.5 -34.5t-15 -37.5t-32.5 -36.5t-55.5 -31.5t-85.5 -23t-121 -10q-25 -1 -58 0.5
t-59 3.5q-5 -48 5 -81t32.5 -53.5t56.5 -29.5t77 -9q58 0 99.5 12t73.5 28zM158 318q33 -3 61 -4t55 -1q68 0 109 9t62.5 23t28.5 30.5t7 30.5q0 28 -28 48t-91 20q-79 0 -130.5 -41t-73.5 -115zM571 700q0 -25 -16 -41t-41 -16t-41 16t-16 41t16 41t41 16t41 -16t16 -41z
M355 700q0 -25 -16 -41t-41 -16t-41 16t-16 41t16 41t41 16t41 -16t16 -41z" />
    <glyph glyph-name="afii10099" unicode="&#x452;" horiz-adv-x="675" 
d="M517 635h-238l-41 -176h2q34 47 85 71t116 24q79 0 126 -40.5t47 -138.5q0 -102 -27 -193.5t-73 -165t-106 -125t-127 -75.5l-57 46q54 19 106 62t93 105t66 141.5t25 172.5q0 60 -25 95.5t-85 35.5q-86 0 -137.5 -56t-74.5 -158l-60 -260h-92l147 635h-105l16 70h105
l22 95h92l-22 -95h238z" />
    <glyph glyph-name="afii10100" unicode="&#x453;" horiz-adv-x="465" 
d="M112 0h-92l126 545h366l-19 -80h-274zM388 630h-86l90 140h132z" />
    <glyph glyph-name="afii10101" unicode="&#x454;" horiz-adv-x="540" 
d="M428 14q-29 -11 -67 -17t-81 -6q-54 0 -97.5 14t-75 41t-48.5 66t-17 88q0 80 24 145t69.5 111.5t112.5 72t153 25.5q72 0 137 -25l-19 -82q-25 14 -64.5 20.5t-72.5 6.5q-50 0 -87.5 -11.5t-65.5 -32t-46.5 -48t-28.5 -59.5h250l-18 -80h-246v-19q0 -73 43.5 -113
t129.5 -40q35 0 69.5 7t63.5 18z" />
    <glyph glyph-name="afii10102" unicode="&#x455;" horiz-adv-x="475" 
d="M20 111q31 -18 69 -29t86 -11q37 0 61.5 9t39.5 22.5t21 30t6 32.5q0 24 -16.5 40t-41.5 29t-54.5 25t-54.5 27.5t-41.5 38t-16.5 56.5q0 78 59 125.5t173 47.5q20 0 41 -2t40.5 -6t35.5 -8.5t26 -8.5l-19 -82q-29 14 -64 20.5t-64 6.5q-71 0 -100 -21.5t-29 -51.5
q0 -24 16.5 -39.5t41.5 -27.5t54 -24t54 -28.5t41.5 -40.5t16.5 -60q0 -88 -61.5 -139t-184.5 -51q-40 0 -82 10.5t-72 25.5z" />
    <glyph glyph-name="afii10103" unicode="&#x456;" horiz-adv-x="263" 
d="M112 0h-92l126 545h92zM278 700q0 -25 -16.5 -41.5t-41.5 -16.5t-41.5 16.5t-16.5 41.5t16.5 41.5t41.5 16.5t41.5 -16.5t16.5 -41.5z" />
    <glyph glyph-name="afii10104" unicode="&#x457;" horiz-adv-x="262" 
d="M112 0h-92l126 545h92zM367 700q0 -25 -16 -41t-41 -16t-41 16t-16 41t16 41t41 16t41 -16t16 -41zM187 700q0 -25 -16 -41t-41 -16t-41 16t-16 41t16 41t41 16t41 -16t16 -41z" />
    <glyph glyph-name="afii10105" unicode="&#x458;" horiz-adv-x="262" 
d="M-145 -147q10 -2 20 -4.5t22 -2.5q23 0 40.5 5t31 17.5t24 35.5t18.5 59l9 37l125 545h93l-130 -561q-15 -64 -33.5 -106t-44 -67t-60.5 -35t-82 -10q-12 0 -24 2t-27 5zM282 700q0 -25 -16.5 -41.5t-41.5 -16.5t-41.5 16.5t-16.5 41.5t16.5 41.5t41.5 16.5t41.5 -16.5
t16.5 -41.5z" />
    <glyph glyph-name="afii10106" unicode="&#x459;" horiz-adv-x="913" 
d="M388 0l108 465h-195q-30 -128 -59.5 -218t-63.5 -147t-74 -83t-89 -26q-11 0 -26.5 1.5t-24.5 3.5l20 86q15 -5 34 -5q30 0 55 23t49.5 77.5t46 130.5t41.5 158q9 37 19 79h285h92l-49 -212h97q89 0 141 -34.5t52 -108.5q0 -52 -21 -88.5t-55.5 -59t-80 -32.5t-94.5 -10
h-208zM499 80h103q82 0 114.5 26t32.5 78q0 22 -8.5 35.5t-23.5 21t-36.5 10t-46.5 2.5h-95z" />
    <glyph glyph-name="afii10107" unicode="&#x45a;" horiz-adv-x="913" 
d="M389 0l58 253h-277l-58 -253h-92l126 545h92l-49 -212h277l49 212h92l-50 -212h97q89 0 141 -34.5t52 -108.5q0 -52 -21 -88.5t-55.5 -59t-80 -32.5t-94.5 -10h-207zM499 80h103q82 0 114.5 26t32.5 78q0 22 -8.5 35.5t-23.5 21t-36.5 10t-46.5 2.5h-95z" />
    <glyph glyph-name="afii10108" unicode="&#x45b;" horiz-adv-x="675" 
d="M530 0h-92l61 264q6 27 11 57.5t5 51.5q0 50 -27.5 75.5t-78.5 25.5q-89 0 -141.5 -56.5t-77.5 -165.5l-58 -252h-92l147 635h-105l16 70h105l22 95h92l-22 -95h238l-16 -70h-238l-41 -176h2q38 50 91.5 72.5t110.5 22.5q39 0 70.5 -10.5t54 -30t34.5 -47.5t11 -64
q0 -17 -2.5 -36t-5.5 -37t-6 -34.5t-6 -28.5z" />
    <glyph glyph-name="afii10109" unicode="&#x45c;" horiz-adv-x="575" 
d="M180 293l305 252h121l-329 -257l228 -288h-112l-218 273l-63 -273h-92l126 545h92zM406 630h-86l90 140h132z" />
    <glyph glyph-name="afii10110" unicode="&#x45e;" horiz-adv-x="550" 
d="M15 -233q-20 0 -39 3.5t-32 8.5l19 82q11 -5 25.5 -9.5t31.5 -4.5q23 0 41.5 6t35 19t32 34t32.5 51l17 29l-107 559h92l81 -452h2l263 452h92l-332 -558q-38 -63 -67.5 -105.5t-58 -68t-59 -36t-69.5 -10.5zM566 765q-20 -67 -75.5 -103.5t-132.5 -36.5q-32 0 -59 9.5
t-46 27.5t-29 44t-8 59l79 10q-2 -37 18.5 -57.5t61.5 -20.5q42 0 71.5 20t44.5 58z" />
    <glyph glyph-name="afii10193" unicode="&#x45f;" horiz-adv-x="640" 
d="M211 0h-191l126 545h92l-108 -465h286l108 465h92l-126 -545h-191l-35 -150h-88z" />
    <glyph glyph-name="afii10146" unicode="&#x462;" horiz-adv-x="720" 
d="M140 0l125 545h-184l20 86h184l25 106h96l-25 -106h205l-20 -86h-204l-26 -112h81q31 0 73 -3t79.5 -19t63.5 -50t26 -95q0 -67 -19 -113t-49.5 -75.5t-68 -45.5t-75.5 -23t-72.5 -8t-57.5 -1h-177zM256 86h81q19 0 42.5 0.5t48 4.5t47.5 13.5t41 27t29 45.5t11 70
q0 36 -15.5 56.5t-39 30t-51.5 11.5t-53 2h-81z" />
    <glyph glyph-name="afii10194" unicode="&#x463;" horiz-adv-x="649" 
d="M104 0l107 465h-164l18 80h164l59 255h92l-59 -255h204l-18 -80h-204l-26 -114h113q42 0 77.5 -8.5t61 -26t40 -44.5t14.5 -64q0 -56 -21 -95t-56 -64.5t-81.5 -37t-97.5 -11.5h-223zM214 80h119q82 0 117 30t35 90q0 44 -32 57.5t-83 13.5h-111z" />
    <glyph glyph-name="afii10147" unicode="&#x472;" horiz-adv-x="820" 
d="M345 -10q-66 0 -116.5 20.5t-84.5 56t-51.5 83t-17.5 101.5q0 90 28.5 177.5t84 156t138.5 110.5t191 42q133 0 201 -70t68 -191q0 -90 -29 -177.5t-85 -156t-138 -110.5t-189 -42zM495 651q-63 0 -112.5 -20t-86.5 -53.5t-62 -79t-39 -96.5h486q2 16 3.5 31.5t1.5 32.5
q0 86 -48 135.5t-143 49.5zM359 76q60 0 109.5 19.5t88 53.5t66 79.5t42.5 97.5h-484q-3 -30 -3 -59q0 -42 11 -77.5t33 -60.5t56 -39t81 -14z" />
    <glyph glyph-name="afii10195" unicode="&#x473;" horiz-adv-x="640" 
d="M253 -9q-54 0 -93.5 14t-66 39.5t-39.5 60.5t-13 76q0 67 21.5 134t64 120t106.5 86t150 33q108 0 161 -48t51 -142q0 -69 -22.5 -136t-66 -119.5t-107.5 -85t-146 -32.5zM364 474q-41 0 -74.5 -13t-60 -35.5t-45 -52.5t-30.5 -65h343q3 21 3 43q0 61 -32 92t-104 31z
M271 71q42 0 76 13.5t60 36t45 53t30 64.5h-343q-1 -11 -1.5 -22.5t-0.5 -22.5q1 -63 35.5 -92.5t98.5 -29.5z" />
    <glyph glyph-name="afii10148" unicode="&#x474;" horiz-adv-x="755" 
d="M329 0h-118l-98 727h98l78 -637h2l274 474q28 49 53 82.5t50.5 53.5t53.5 28.5t64 8.5q30 0 58 -7l-20 -86q-28 7 -48 7q-13 0 -26.5 -2.5t-28 -11.5t-30 -26t-31.5 -45z" />
    <glyph glyph-name="afii10196" unicode="&#x475;" horiz-adv-x="590" 
d="M71 545h91l58 -455h2l175 303q21 36 40 66t41.5 51t51 32.5t67.5 11.5q10 0 20.5 -1t25.5 -5l-19 -80q-12 3 -20.5 4.5t-18.5 1.5q-35 0 -55.5 -22t-42.5 -59l-233 -393h-108z" />
    <glyph glyph-name="afii10050" unicode="&#x490;" horiz-adv-x="520" 
d="M203 727h308l31 135h92l-51 -221h-304l-148 -641h-96z" />
    <glyph glyph-name="afii10098" unicode="&#x491;" horiz-adv-x="465" 
d="M112 0h-92l126 545h278l30 130h88l-49 -210h-274z" />
    <glyph glyph-name="uni0492" unicode="&#x492;" horiz-adv-x="565" 
d="M149 342h-110l20 86h110l69 299h410l-20 -86h-314l-49 -213h209l-20 -86h-209l-79 -342h-96z" />
    <glyph glyph-name="uni0493" unicode="&#x493;" horiz-adv-x="485" 
d="M25 305h85l56 240h370l-19 -80h-278l-37 -160h179l-18 -80h-179l-52 -225h-92l52 225h-85z" />
    <glyph glyph-name="uni0496" unicode="&#x496;" horiz-adv-x="970" 
d="M439 376l-377 -376h-122l406 388l-218 339h104l209 -340l79 340h96l-79 -340l355 340h116l-375 -340l173 -301h94l-57 -246h-92l37 160h-37l-216 376l-87 -376h-96z" />
    <glyph glyph-name="uni0497" unicode="&#x497;" horiz-adv-x="805" 
d="M439 293l267 252h110l-287 -258l127 -207h87l-53 -230h-88l35 150h-37l-166 273l-63 -273h-92l63 273l-288 -273h-114l315 287l-176 258h102l166 -252l58 252h92z" />
    <glyph glyph-name="uni0498" unicode="&#x498;" horiz-adv-x="605" 
d="M23 124q35 -21 84.5 -34.5t97.5 -13.5q61 0 103 10t68 29t38 47.5t12 66.5q0 103 -155 103h-84l20 86h63q108 0 158.5 35t50.5 108q0 43 -36.5 66.5t-103.5 23.5q-49 0 -95.5 -10t-91.5 -26l21 92q52 17 100.5 23.5t100.5 6.5q107 0 158.5 -44t51.5 -115q0 -79 -50 -128
t-130 -70v-4q63 -10 94 -46t31 -89q0 -107 -66.5 -172t-207.5 -76l-36 -153h-92l35 151q-54 3 -97 15t-63 26z" />
    <glyph glyph-name="uni0499" unicode="&#x499;" horiz-adv-x="530" 
d="M343 282q112 -17 112 -102q0 -81 -61.5 -129.5t-176.5 -57.5l-33 -143h-88l33 142q-41 3 -75.5 13t-71.5 28l19 84q38 -20 83 -33t96 -13q98 0 139.5 27t41.5 78q0 70 -144 70h-70l17 74h76q33 0 61 5.5t49 16t33 27t12 37.5q0 34 -30.5 51t-101.5 17q-16 0 -36.5 -2
t-43 -6t-45 -9.5t-43.5 -12.5l19 84q42 13 89.5 19.5t92.5 6.5q103 0 150.5 -31.5t47.5 -90.5q0 -33 -13.5 -58.5t-35 -43.5t-48.5 -29t-54 -17v-2z" />
    <glyph glyph-name="uni049A" unicode="&#x49a;" horiz-adv-x="705" 
d="M222 395l410 332h126l-439 -347l225 -294h91l-57 -246h-92l37 160h-31l-277 365l-84 -365h-96l168 727h96z" />
    <glyph glyph-name="uni049B" unicode="&#x49b;" horiz-adv-x="585" 
d="M180 293l305 252h121l-329 -257l162 -208h89l-53 -230h-88l35 150h-33l-214 273l-63 -273h-92l126 545h92z" />
    <glyph glyph-name="uni049C" unicode="&#x49c;" horiz-adv-x="780" 
d="M203 727h96l-70 -302h56l30 129h76l-30 -129h20l353 302h124l-413 -342l265 -385h-116l-231 343h-21l-30 -129h-76l30 129h-56l-79 -343h-96z" />
    <glyph glyph-name="uni049D" unicode="&#x49d;" horiz-adv-x="655" 
d="M146 545h92l-51 -222h55l23 100h62l-23 -100h15l251 222h116l-307 -258l206 -287h-109l-167 243h-24l-23 -100h-62l23 100h-55l-56 -243h-92z" />
    <glyph glyph-name="uni04A0" unicode="&#x4a0;" horiz-adv-x="765" 
d="M717 727h126l-439 -347l291 -380h-114l-281 365l-84 -365h-96l148 641h-165l20 86h261l-77 -332z" />
    <glyph glyph-name="uni04A1" unicode="&#x4a1;" horiz-adv-x="645" 
d="M65 545h242l-58 -252l305 252h121l-329 -257l228 -288h-112l-218 273l-63 -273h-92l107 465h-149z" />
    <glyph glyph-name="uni04A2" unicode="&#x4a2;" horiz-adv-x="805" 
d="M613 0h-94l77 335h-388l-77 -335h-96l168 727h96l-71 -306h388l71 306h96l-148 -641h90l-57 -246h-92z" />
    <glyph glyph-name="uni04A3" unicode="&#x4a3;" horiz-adv-x="685" 
d="M497 0h-89l56 243h-296l-56 -243h-92l126 545h92l-51 -222h296l51 222h92l-108 -465h85l-53 -230h-88z" />
    <glyph glyph-name="uni04AA" unicode="&#x4aa;" horiz-adv-x="670" 
d="M538 16q-15 -6 -35.5 -10.5t-43 -8t-44 -5.5t-37.5 -2l-33 -150h-92l35 159q-106 23 -161 98.5t-55 187.5q0 83 28.5 164t84.5 145t140 103.5t194 39.5q27 0 53.5 -3.5t49.5 -8t41 -9.5t27 -9l-20 -88q-16 8 -38 14t-45 10t-43.5 6t-33.5 2q-89 0 -152 -30t-103.5 -80.5
t-59.5 -116.5t-19 -137q0 -99 53.5 -155t175.5 -56q32 0 70.5 5.5t83.5 22.5z" />
    <glyph glyph-name="uni04AB" unicode="&#x4ab;" horiz-adv-x="550" 
d="M434 14q-24 -10 -57.5 -15t-68.5 -7l-33 -142h-88l34 146q-83 14 -131 66.5t-48 137.5q0 80 24 145t69.5 111.5t112.5 72t153 25.5q35 0 72.5 -6t70.5 -19l-19 -82q-12 7 -30 12t-37.5 8.5t-39.5 5t-36 1.5q-67 0 -113.5 -21t-75 -56t-41 -80t-12.5 -93q0 -73 43.5 -113
t129.5 -40q35 0 72.5 7t66.5 18z" />
    <glyph glyph-name="uni04AE" unicode="&#x4ae;" horiz-adv-x="645" 
d="M305 0h-96l69 300l-170 427h105l130 -336l285 336h115l-369 -427z" />
    <glyph glyph-name="uni04AF" unicode="&#x4af;" horiz-adv-x="530" 
d="M154 1l-83 544h90l60 -445l266 445h94l-335 -545l-52 -225h-92z" />
    <glyph glyph-name="uni04B0" unicode="&#x4b0;" horiz-adv-x="645" 
d="M262 231h-184l20 86h174l-164 410h105l130 -336l285 336h115l-355 -410h174l-20 -86h-184l-53 -231h-96z" />
    <glyph glyph-name="uni04B1" unicode="&#x4b1;" horiz-adv-x="530" 
d="M136 -80h-156l18 80h156l1 1l-84 544h90l61 -445l265 445h94l-335 -545h156l-18 -80h-156l-33 -145h-92z" />
    <glyph glyph-name="uni04B2" unicode="&#x4b2;" horiz-adv-x="675" 
d="M503 0h-37l-130 308l-267 -308h-118l343 378l-154 349h108l117 -285l243 285h113l-311 -347l125 -294h80l-57 -246h-92z" />
    <glyph glyph-name="uni04B3" unicode="&#x4b3;" horiz-adv-x="560" 
d="M423 80h80l-53 -230h-88l35 150h-38l-98 214l-203 -214h-113l282 285l-127 260h102l91 -194l176 194h107l-248 -260z" />
    <glyph glyph-name="uni04B6" unicode="&#x4b6;" horiz-adv-x="695" 
d="M525 86h90l-57 -246h-92l37 160h-94l71 306q-40 -11 -76.5 -20t-88.5 -9q-45 0 -82 10.5t-64 30.5t-41.5 48.5t-14.5 64.5q0 20 4.5 46.5t12.5 62.5l43 187h96l-46 -200q-4 -17 -8 -40.5t-4 -37.5q0 -45 36.5 -65.5t98.5 -20.5q45 0 84 7.5t69 19.5l78 337h96z" />
    <glyph glyph-name="uni04B7" unicode="&#x4b7;" 
d="M454 80h85l-53 -230h-88l34 150h-89l51 219q-35 -12 -68 -18t-71 -6q-39 0 -72 9t-57 26t-37.5 40t-13.5 52q0 17 2.5 41.5t8.5 50.5l30 131h92l-27 -115q-1 -5 -3 -15.5t-3.5 -21.5t-3 -21.5t-1.5 -15.5q0 -38 29 -59.5t85 -21.5q34 0 66.5 5.5t61.5 16.5l57 248h92z
" />
    <glyph glyph-name="uni04B8" unicode="&#x4b8;" horiz-adv-x="670" 
d="M505 0h-96l71 304q-32 -9 -60 -16t-63 -10l-28 -123h-76l28 123q-78 8 -123 47.5t-45 105.5q0 20 4.5 46.5t12.5 62.5l43 187h96l-46 -200q-4 -17 -8 -40.5t-4 -37.5q0 -36 23.5 -56.5t66.5 -26.5l30 129h76l-30 -131q35 2 66 8t56 16l78 339h96z" />
    <glyph glyph-name="uni04B9" unicode="&#x4b9;" horiz-adv-x="585" 
d="M435 0h-92l51 217q-26 -9 -50 -13t-50 -6l-22 -98h-72l23 98q-66 7 -107 40t-41 84q0 17 2.5 41.5t8.5 50.5l30 131h92l-27 -115q-1 -5 -3 -15.5t-3.5 -21.5t-3 -21.5t-1.5 -15.5q0 -30 17 -50t54 -28l24 102h72l-25 -105q26 2 51.5 6.5t48.5 13.5l57 250h92z" />
    <glyph glyph-name="uni04BA" unicode="&#x4ba;" horiz-adv-x="665" 
d="M203 727h96l-67 -289q32 11 73 18t82 7q55 0 94 -11t64.5 -30.5t37.5 -46t12 -57.5q0 -21 -3.5 -45.5t-7.5 -41.5l-54 -231h-96l53 230q2 7 5 27t3 35q0 17 -7.5 32.5t-24.5 27t-44 18.5t-66 7q-77 0 -140 -23l-82 -354h-96z" />
    <glyph glyph-name="uni04BB" unicode="&#x4bb;" horiz-adv-x="655" 
d="M510 0h-92l61 264q6 27 11 57.5t5 51.5q0 50 -27.5 75.5t-78.5 25.5q-89 0 -141.5 -56.5t-77.5 -165.5l-58 -252h-92l185 800h92l-79 -341h2q38 50 91.5 72.5t110.5 22.5q39 0 70.5 -10.5t54 -30t34.5 -47.5t11 -64q0 -17 -2.5 -36t-5.5 -37t-6 -34.5t-6 -28.5z" />
    <glyph glyph-name="uni04C0" unicode="&#x4c0;" horiz-adv-x="296" 
d="M131 0h-96l168 727h96z" />
    <glyph glyph-name="uni04CF" unicode="&#x4cf;" horiz-adv-x="262" 
d="M112 0h-92l185 800h92z" />
    <glyph glyph-name="uni04D8" unicode="&#x4d8;" horiz-adv-x="725" 
d="M84 388h500q5 23 7.5 43.5t2.5 40.5q0 36 -10 68t-34 57t-63.5 39.5t-98.5 14.5q-52 0 -96 -7t-89 -24l20 90q25 8 48 13.5t46.5 8.5t48.5 4t54 1q141 0 208.5 -68.5t67.5 -195.5q0 -41 -9 -92.5t-29 -105.5t-51.5 -105t-77 -91t-105.5 -64.5t-136 -24.5
q-106 0 -167.5 60.5t-61.5 167.5q0 29 4 62t12 69zM166 302q-4 -22 -6 -39.5t-2 -35.5q0 -68 34.5 -109.5t114.5 -41.5q54 0 95.5 19t73 50.5t53 72t35.5 84.5h-398z" />
    <glyph glyph-name="afii10846" unicode="&#x4d9;" horiz-adv-x="588" 
d="M138 527q14 5 57.5 16t103.5 11q72 0 119.5 -16.5t75.5 -45.5t39 -68t11 -83q0 -76 -23.5 -140.5t-67 -111t-104 -72.5t-135.5 -26q-42 0 -78 9t-63 27t-42.5 44.5t-15.5 61.5q0 25 9 56.5t41 59t93.5 46t167.5 18.5q25 0 59 -1t60 -3q5 48 -3 79.5t-28.5 50.5t-53.5 27
t-76 8q-58 0 -96.5 -10t-68.5 -22zM428 235q-33 3 -58 4t-52 1q-68 0 -110 -10t-65 -25t-30.5 -32t-7.5 -31q0 -29 28 -50t91 -21q79 0 130.5 45t73.5 119z" />
    <glyph glyph-name="uni04E2" unicode="&#x4e2;" horiz-adv-x="770" 
d="M605 0h-96l135 582h-2l-500 -582h-107l168 727h96l-135 -582h2l500 582h107zM362 897h330l-17 -74h-330z" />
    <glyph glyph-name="uni04E3" unicode="&#x4e3;" horiz-adv-x="650" 
d="M20 0l126 545h92l-95 -408h2l392 408h89l-126 -545h-92l94 408h-2l-393 -408h-87zM275 737h310l-17 -74h-310z" />
    <glyph glyph-name="uni04E8" unicode="&#x4e8;" horiz-adv-x="820" 
d="M345 -10q-66 0 -116.5 20.5t-84.5 56t-51.5 83t-17.5 101.5q0 90 28.5 177.5t84 156t138.5 110.5t191 42q133 0 201 -70t68 -191q0 -90 -29 -177.5t-85 -156t-138 -110.5t-189 -42zM495 651q-63 0 -112.5 -20t-86.5 -53.5t-62 -79t-39 -96.5h486q2 16 3.5 31.5t1.5 32.5
q0 86 -48 135.5t-143 49.5zM359 76q60 0 109.5 19.5t88 53.5t66 79.5t42.5 97.5h-484q-3 -30 -3 -59q0 -42 11 -77.5t33 -60.5t56 -39t81 -14z" />
    <glyph glyph-name="uni04E9" unicode="&#x4e9;" horiz-adv-x="640" 
d="M253 -9q-54 0 -93.5 14t-66 39.5t-39.5 60.5t-13 76q0 67 21.5 134t64 120t106.5 86t150 33q108 0 161 -48t51 -142q0 -69 -22.5 -136t-66 -119.5t-107.5 -85t-146 -32.5zM364 474q-41 0 -74.5 -13t-60 -35.5t-45 -52.5t-30.5 -65h343q3 21 3 43q0 61 -32 92t-104 31z
M271 71q42 0 76 13.5t60 36t45 53t30 64.5h-343q-1 -11 -1.5 -22.5t-0.5 -22.5q1 -63 35.5 -92.5t98.5 -29.5z" />
    <glyph glyph-name="uni04EE" unicode="&#x4ee;" 
d="M62 92q32 -16 64 -16q33 0 61.5 17.5t58.5 60.5l14 20l-167 553h102l135 -457l283 457h99l-379 -589q-27 -41 -52 -69.5t-50.5 -46t-52 -25t-57.5 -7.5q-23 0 -43 5t-35 13zM292 897h330l-17 -74h-330z" />
    <glyph glyph-name="uni04EF" unicode="&#x4ef;" horiz-adv-x="550" 
d="M15 -233q-20 0 -39 3.5t-32 8.5l19 82q11 -5 25.5 -9.5t31.5 -4.5q23 0 41.5 6t35 19t32 34t32.5 51l17 29l-107 559h92l81 -452h2l263 452h92l-332 -558q-38 -63 -67.5 -105.5t-58 -68t-59 -36t-69.5 -10.5zM229 737h310l-17 -74h-310z" />
    <glyph glyph-name="uni1E9E" unicode="&#x1e9e;" horiz-adv-x="710" 
d="M150 500q3 15 9 38t18 49.5t31.5 53t50.5 48t75 35t104 13.5q73 0 136.5 -28t105.5 -80l-205 -206q75 -4 120 -45.5t45 -111.5q0 -61 -21.5 -112t-62 -87.5t-98 -56.5t-129.5 -20q-25 0 -49.5 4.5t-41.5 9.5l20 87q15 -6 38.5 -10.5t58.5 -4.5q48 0 83 14.5t58 39t34 57
t11 67.5q0 57 -38 82t-119 25h-30l12 50l191 196q-23 22 -59 33t-73 11q-53 0 -86 -15.5t-51.5 -38t-27 -49t-13.5 -47.5l-116 -501h-96z" />
    <glyph glyph-name="uni2010" unicode="&#x2010;" horiz-adv-x="540" 
d="M438 250h-350l18 80h350z" />
    <glyph glyph-name="uni2011" unicode="&#x2011;" horiz-adv-x="540" 
d="M438 250h-350l18 80h350z" />
    <glyph glyph-name="figuredash" unicode="&#x2012;" 
d="M69 410h540l-18 -80h-540z" />
    <glyph glyph-name="endash" unicode="&#x2013;" horiz-adv-x="720" 
d="M71 330h600l-18 -80h-600z" />
    <glyph glyph-name="emdash" unicode="&#x2014;" horiz-adv-x="900" 
d="M71 330h780l-18 -80h-780z" />
    <glyph glyph-name="quoteleft" unicode="&#x2018;" horiz-adv-x="330" 
d="M359 679q-50 -19 -83.5 -44t-50.5 -68q32 1 48 -15t16 -41q0 -37 -23.5 -60t-61.5 -23q-28 0 -49 18t-21 55q0 29 11 63.5t35.5 67t64 60.5t97.5 45z" />
    <glyph glyph-name="quoteright" unicode="&#x2019;" horiz-adv-x="330" 
d="M110 486q50 19 83.5 44t50.5 68q-32 -1 -48 15t-16 41q0 37 23.5 60t61.5 23q28 0 49 -18t21 -55q0 -29 -11 -63.5t-35.5 -67t-64 -60.5t-97.5 -45z" />
    <glyph glyph-name="quotesinglbase" unicode="&#x201a;" horiz-adv-x="330" 
d="M-30 -122q50 19 83.5 44t50.5 68q-32 -1 -48 15t-16 41q0 37 23.5 60t61.5 23q28 0 49 -18t21 -55q0 -29 -11 -63.5t-35.5 -67t-64 -60.5t-97.5 -45z" />
    <glyph glyph-name="quotedblleft" unicode="&#x201c;" horiz-adv-x="580" 
d="M359 679q-50 -19 -83.5 -44t-50.5 -68q32 1 48 -15t16 -41q0 -37 -23.5 -60t-61.5 -23q-28 0 -49 18t-21 55q0 29 11 63.5t35.5 67t64 60.5t97.5 45zM609 679q-50 -19 -83.5 -44t-50.5 -68q32 1 48 -15t16 -41q0 -37 -23.5 -60t-61.5 -23q-28 0 -49 18t-21 55
q0 29 11 63.5t35.5 67t64 60.5t97.5 45z" />
    <glyph glyph-name="quotedblright" unicode="&#x201d;" horiz-adv-x="580" 
d="M110 486q50 19 83.5 44t50.5 68q-32 -1 -48 15t-16 41q0 37 23.5 60t61.5 23q28 0 49 -18t21 -55q0 -29 -11 -63.5t-35.5 -67t-64 -60.5t-97.5 -45zM360 486q50 19 83.5 44t50.5 68q-32 -1 -48 15t-16 41q0 37 23.5 60t61.5 23q28 0 49 -18t21 -55q0 -29 -11 -63.5
t-35.5 -67t-64 -60.5t-97.5 -45z" />
    <glyph glyph-name="quotedblbase" unicode="&#x201e;" horiz-adv-x="580" 
d="M-30 -122q50 19 83.5 44t50.5 68q-32 -1 -48 15t-16 41q0 37 23.5 60t61.5 23q28 0 49 -18t21 -55q0 -29 -11 -63.5t-35.5 -67t-64 -60.5t-97.5 -45zM220 -122q50 19 83.5 44t50.5 68q-32 -1 -48 15t-16 41q0 37 23.5 60t61.5 23q28 0 49 -18t21 -55q0 -29 -11 -63.5
t-35.5 -67t-64 -60.5t-97.5 -45z" />
    <glyph glyph-name="dagger" unicode="&#x2020;" horiz-adv-x="570" 
d="M281 465h-184l18 80h184l42 182h92l-42 -182h184l-18 -80h-184l-107 -465h-92z" />
    <glyph glyph-name="daggerdbl" unicode="&#x2021;" horiz-adv-x="570" 
d="M216 182h-184l18 80h184l47 203h-184l19 80h184l42 182h92l-42 -182h184l-19 -80h-184l-47 -203h184l-18 -80h-184l-42 -182h-92z" />
    <glyph glyph-name="bullet" unicode="&#x2022;" horiz-adv-x="500" 
d="M275 189q-31 0 -57.5 11t-46 30.5t-30.5 46t-11 57.5t11 57.5t30.5 46t46 30.5t57.5 11t57.5 -11t46 -30.5t30.5 -46t11 -57.5t-11 -57.5t-30.5 -46t-46 -30.5t-57.5 -11z" />
    <glyph glyph-name="ellipsis" unicode="&#x2026;" horiz-adv-x="892" 
d="M192 60q0 -32 -19 -50.5t-53 -18.5t-53 18.5t-19 50.5t19 50.5t53 18.5t53 -18.5t19 -50.5zM482 60q0 -32 -19 -50.5t-53 -18.5t-53 18.5t-19 50.5t19 50.5t53 18.5t53 -18.5t19 -50.5zM772 60q0 -32 -19 -50.5t-53 -18.5t-53 18.5t-19 50.5t19 50.5t53 18.5t53 -18.5
t19 -50.5z" />
    <glyph glyph-name="perthousand" unicode="&#x2030;" horiz-adv-x="1260" 
d="M260 381q-72 0 -109 41t-37 104q0 47 15.5 86t43.5 66.5t68 43t90 15.5q76 0 110.5 -40t34.5 -100q0 -47 -15 -86.5t-43.5 -68t-68.5 -45t-89 -16.5zM275 443q24 0 46.5 9.5t39 28t26.5 45t10 60.5q0 40 -17 64.5t-62 24.5q-24 0 -46.5 -8.5t-40 -26t-27.5 -45t-10 -65.5
q0 -45 22.5 -66t58.5 -21zM754 727h82l-704 -727h-82zM560 -10q-72 0 -109 41t-37 104q0 47 15.5 86t43.5 66.5t68 43t90 15.5q76 0 110.5 -40t34.5 -100q0 -47 -15 -86.5t-43.5 -68t-68.5 -45t-89 -16.5zM575 52q24 0 46.5 9.5t39 28t26.5 45t10 60.5q0 40 -17 64.5
t-62 24.5q-24 0 -46.5 -8.5t-40 -26t-27.5 -45t-10 -65.5q0 -45 22.5 -66t58.5 -21zM970 -10q-72 0 -109 41t-37 104q0 47 15.5 86t43.5 66.5t68 43t90 15.5q76 0 110.5 -40t34.5 -100q0 -47 -15 -86.5t-43.5 -68t-68.5 -45t-89 -16.5zM985 52q24 0 46.5 9.5t39 28t26.5 45
t10 60.5q0 40 -17 64.5t-62 24.5q-24 0 -46.5 -8.5t-40 -26t-27.5 -45t-10 -65.5q0 -45 22.5 -66t58.5 -21z" />
    <glyph glyph-name="guilsinglleft" unicode="&#x2039;" horiz-adv-x="400" 
d="M294 505h98l-206 -219l106 -211h-98l-112 215z" />
    <glyph glyph-name="guilsinglright" unicode="&#x203a;" horiz-adv-x="400" 
d="M109 75h-97l208 221l-109 209h97l114 -215z" />
    <glyph glyph-name="fraction" unicode="&#x2044;" horiz-adv-x="180" 
d="M392 747h82l-649 -767h-82z" />
    <glyph glyph-name="uni2070" unicode="&#x2070;" horiz-adv-x="410" 
d="M240 424q28 0 48 17.5t34 44.5t22.5 58.5t13.5 59.5t6.5 48t1.5 24q0 34 -13.5 49t-41.5 15q-24 0 -42 -13.5t-32 -35.5t-24 -49.5t-16 -55t-9 -52.5t-3 -42q0 -35 14.5 -51.5t40.5 -16.5zM222 354q-62 0 -95.5 34.5t-33.5 100.5q0 20 4 52t13.5 67.5t26.5 71.5t43 65
t62.5 47t85.5 18q130 0 130 -130q0 -18 -3.5 -48.5t-13 -67t-26 -74t-42.5 -67.5t-63.5 -49.5t-87.5 -19.5z" />
    <glyph glyph-name="uni2074" unicode="&#x2074;" horiz-adv-x="410" 
d="M301 525l44 191h-2l-179 -191h137zM285 455h-225l15 67l265 278h115l-64 -275h55l-16 -70h-55l-21 -91h-90z" />
    <glyph glyph-name="uni2075" unicode="&#x2075;" horiz-adv-x="410" 
d="M198 354q-27 0 -60.5 6t-55.5 17l18 74q32 -17 55.5 -22t52.5 -5q54 0 81.5 26t27.5 65q0 26 -20 43t-61 17q-30 0 -54 -4.5t-47 -11.5l67 241h251l-16 -70h-184l-27 -94q8 2 24 3.5t35 1.5q56 0 91.5 -30t35.5 -82q0 -41 -15.5 -73.5t-44 -55t-68 -34.5t-86.5 -12z" />
    <glyph glyph-name="uni2076" unicode="&#x2076;" horiz-adv-x="410" 
d="M247 424q45 0 70 27.5t25 69.5q0 26 -18.5 42.5t-48.5 16.5q-43 0 -68 -25t-25 -68q0 -29 18 -46t47 -17zM235 354q-64 0 -101.5 39.5t-37.5 111.5q0 59 16 114t49 97.5t82.5 68t117.5 25.5q23 0 46.5 -5t42.5 -13l-16 -72q-21 11 -43 15.5t-42 4.5q-63 0 -104.5 -36.5
t-56.5 -103.5q20 23 51.5 34.5t69.5 11.5q55 0 89 -32t34 -83q0 -40 -14.5 -72.5t-40.5 -56t-62 -36t-80 -12.5z" />
    <glyph glyph-name="uni2077" unicode="&#x2077;" horiz-adv-x="410" 
d="M365 728h-211l17 72h304l-13 -56l-253 -380h-93z" />
    <glyph glyph-name="uni2078" unicode="&#x2078;" horiz-adv-x="410" 
d="M288 620q34 16 54.5 36.5t20.5 43.5q0 17 -14 28.5t-43 11.5q-37 0 -55.5 -18t-18.5 -40q0 -20 16.5 -36t39.5 -26zM264 564q-15 -6 -31 -13t-28.5 -17.5t-21 -23.5t-8.5 -31q0 -20 15 -37.5t50 -17.5q38 0 63.5 18t25.5 52q0 26 -20.5 44t-44.5 26zM348 595
q72 -32 72 -95q0 -33 -14.5 -60t-40 -46t-61 -29.5t-78.5 -10.5q-64 0 -104 30t-40 79q0 25 10 45.5t27 37t40.5 28t49.5 19.5q-33 17 -50 40t-17 49q0 60 51 94t132 34q63 0 98 -27.5t35 -66.5q0 -22 -9 -40.5t-24.5 -33.5t-35.5 -26.5t-41 -20.5z" />
    <glyph glyph-name="uni2079" unicode="&#x2079;" horiz-adv-x="410" 
d="M302 740q-18 0 -34.5 -6t-30 -17.5t-21.5 -29t-8 -39.5q0 -28 16 -45.5t44 -17.5q17 0 34 5t31 16t23 28.5t9 43.5q0 27 -15.5 44.5t-47.5 17.5zM188 354q-24 0 -50 5.5t-48 14.5l17 72q23 -13 49 -17.5t43 -4.5q63 0 104.5 35.5t55.5 104.5q-17 -18 -47 -31.5t-75 -13.5
q-24 0 -45.5 8t-38.5 23t-27 36.5t-10 48.5q0 39 15 71t41.5 55t62 36t76.5 13q66 0 104 -38t38 -110q0 -68 -17 -124.5t-50.5 -97.5t-83 -63.5t-114.5 -22.5z" />
    <glyph glyph-name="uni207A" unicode="&#x207a;" horiz-adv-x="410" 
d="M235 547h-115v70h115v115h70v-115h115v-70h-115v-115h-70v115z" />
    <glyph glyph-name="uni207B" unicode="&#x207b;" horiz-adv-x="410" 
d="M120 617h300v-70h-300v70z" />
    <glyph glyph-name="uni207C" unicode="&#x207c;" horiz-adv-x="410" 
d="M115 677h300v-70h-300v70zM115 557h300v-70h-300v70z" />
    <glyph glyph-name="uni207D" unicode="&#x207d;" horiz-adv-x="250" 
d="M380 865q-41 -34 -76.5 -74t-61.5 -85t-40.5 -94t-14.5 -101q0 -59 16.5 -113t45.5 -99h-86q-29 41 -45 93.5t-16 106.5q0 49 10 96t32 92.5t57 89.5t85 88h94v0z" />
    <glyph glyph-name="uni207E" unicode="&#x207e;" horiz-adv-x="250" 
d="M9 299q41 34 76.5 74t61.5 85t40.5 94t14.5 101q0 59 -16.5 113t-45.5 99h86q29 -41 45 -93.5t16 -106.5q0 -98 -42 -188.5t-142 -177.5h-94v0z" />
    <glyph glyph-name="uni2080" unicode="&#x2080;" horiz-adv-x="410" 
d="M134 -39q28 0 48 17.5t34 44.5t22.5 58.5t13.5 59.5t6.5 48t1.5 24q0 34 -13.5 49t-41.5 15q-24 0 -42 -13.5t-32 -35.5t-24 -49.5t-16 -55t-9 -52.5t-3 -42q0 -35 14.5 -51.5t40.5 -16.5zM116 -109q-62 0 -95.5 34.5t-33.5 100.5q0 20 4 52t13.5 67.5t26.5 71.5t43 65
t62.5 47t85.5 18q130 0 130 -130q0 -18 -3.5 -48.5t-13 -67t-26 -74t-42.5 -67.5t-63.5 -49.5t-87.5 -19.5z" />
    <glyph glyph-name="uni2081" unicode="&#x2081;" horiz-adv-x="410" 
d="M181 236l-101 -57l-28 63l172 95h70l-101 -436h-90z" />
    <glyph glyph-name="uni2082" unicode="&#x2082;" horiz-adv-x="410" 
d="M-19 -20l116 75q53 34 83.5 57.5t45.5 41.5t19 32.5t4 31.5q0 26 -20 42.5t-58 16.5q-26 0 -57 -6.5t-64 -20.5l16 74q37 14 69.5 18.5t65.5 4.5q70 0 107.5 -30.5t37.5 -77.5q0 -27 -8 -51t-32.5 -51.5t-69 -60.5t-116.5 -78l-40 -25l-1 -2h215l-16 -70h-315z" />
    <glyph glyph-name="uni2083" unicode="&#x2083;" horiz-adv-x="410" 
d="M81 -109q-34 0 -68 6t-57 16l17 72q20 -10 51.5 -17t64.5 -7q123 0 123 82q0 54 -99 54h-55l15 62h50q62 0 89.5 20t27.5 49q0 23 -23.5 36t-63.5 13q-31 0 -58 -6t-54 -17l16 74q32 10 65.5 14.5t65.5 4.5q70 0 108 -26.5t38 -69.5q0 -45 -25.5 -76t-90.5 -47v-2
q83 -12 83 -83q0 -33 -17 -61t-46.5 -48.5t-69.5 -31.5t-87 -11z" />
    <glyph glyph-name="uni2084" unicode="&#x2084;" horiz-adv-x="410" 
d="M195 62l44 191h-2l-179 -191h137zM179 -8h-225l15 67l265 278h115l-64 -275h55l-16 -70h-55l-21 -91h-90z" />
    <glyph glyph-name="uni2085" unicode="&#x2085;" horiz-adv-x="410" 
d="M91 -109q-27 0 -60.5 6t-55.5 17l18 74q32 -17 55.5 -22t52.5 -5q54 0 81.5 26t27.5 65q0 26 -20 43t-61 17q-30 0 -54 -4.5t-47 -11.5l67 241h251l-16 -70h-184l-27 -94q8 2 24 3.5t35 1.5q56 0 91.5 -30t35.5 -82q0 -41 -15.5 -73.5t-44 -55t-68 -34.5t-86.5 -12z" />
    <glyph glyph-name="uni2086" unicode="&#x2086;" horiz-adv-x="410" 
d="M141 -39q45 0 70 27.5t25 69.5q0 26 -18.5 42.5t-48.5 16.5q-43 0 -68 -25t-25 -68q0 -29 18 -46t47 -17zM129 -109q-64 0 -101.5 39.5t-37.5 111.5q0 59 16 114t49 97.5t82.5 68t117.5 25.5q23 0 46.5 -5t42.5 -13l-16 -72q-21 11 -43 15.5t-42 4.5q-63 0 -104.5 -36.5
t-56.5 -103.5q20 23 51.5 34.5t69.5 11.5q55 0 89 -32t34 -83q0 -40 -14.5 -72.5t-40.5 -56t-62 -36t-80 -12.5z" />
    <glyph glyph-name="uni2087" unicode="&#x2087;" horiz-adv-x="410" 
d="M255 247h-211l17 72h304l-13 -56l-253 -380h-93z" />
    <glyph glyph-name="uni2088" unicode="&#x2088;" horiz-adv-x="410" 
d="M182 157q34 16 54.5 36.5t20.5 43.5q0 17 -14 28.5t-43 11.5q-37 0 -55.5 -18t-18.5 -40q0 -20 16.5 -36t39.5 -26zM158 101q-15 -6 -31 -13t-28.5 -17.5t-21 -23.5t-8.5 -31q0 -20 15 -37.5t50 -17.5q38 0 63.5 18t25.5 52q0 26 -20.5 44t-44.5 26zM242 132
q72 -32 72 -95q0 -33 -14.5 -60t-40 -46t-61 -29.5t-78.5 -10.5q-64 0 -104 30t-40 79q0 25 10 45.5t27 37t40.5 28t49.5 19.5q-33 17 -50 40t-17 49q0 60 51 94t132 34q63 0 98 -27.5t35 -66.5q0 -22 -9 -40.5t-24.5 -33.5t-35.5 -26.5t-41 -20.5z" />
    <glyph glyph-name="uni2089" unicode="&#x2089;" horiz-adv-x="410" 
d="M193 277q-18 0 -34.5 -6t-30 -17.5t-21.5 -29t-8 -39.5q0 -28 16 -45.5t44 -17.5q17 0 34 5t31 16t23 28.5t9 43.5q0 27 -15.5 44.5t-47.5 17.5zM79 -109q-24 0 -50 5.5t-48 14.5l17 72q23 -13 49 -17.5t43 -4.5q63 0 104.5 35.5t55.5 104.5q-17 -18 -47 -31.5t-75 -13.5
q-24 0 -45.5 8t-38.5 23t-27 36.5t-10 48.5q0 39 15 71t41.5 55t62 36t76.5 13q66 0 104 -38t38 -110q0 -68 -17 -124.5t-50.5 -97.5t-83 -63.5t-114.5 -22.5z" />
    <glyph glyph-name="uni208A" unicode="&#x208a;" horiz-adv-x="410" 
d="M125 66h-115v70h115v115h70v-115h115v-70h-115v-115h-70v115z" />
    <glyph glyph-name="uni208B" unicode="&#x208b;" horiz-adv-x="410" 
d="M10 136h300v-70h-300v70z" />
    <glyph glyph-name="uni208C" unicode="&#x208c;" horiz-adv-x="410" 
d="M5 196h300v-70h-300v70zM5 76h300v-70h-300v70z" />
    <glyph glyph-name="uni208D" unicode="&#x208d;" horiz-adv-x="250" 
d="M270 384q-41 -34 -76.5 -74t-61.5 -85t-40.5 -94t-14.5 -101q0 -59 16.5 -113t45.5 -99h-86q-29 41 -45 93.5t-16 106.5q0 49 10 96t32 92.5t57 89.5t85 88h94v0z" />
    <glyph glyph-name="uni208E" unicode="&#x208e;" horiz-adv-x="250" 
d="M-101 -182q41 34 76.5 74t61.5 85t40.5 94t14.5 101q0 59 -16.5 113t-45.5 99h86q29 -41 45 -93.5t16 -106.5q0 -98 -42 -188.5t-142 -177.5h-94v0z" />
    <glyph glyph-name="Euro" unicode="&#x20ac;" horiz-adv-x="650" 
d="M549 16q-33 -14 -72 -20t-87 -6q-59 0 -108.5 19t-84.5 54t-54 84.5t-17 111.5h-91l35 76h64q3 19 8 36l10 34h-81l34 76h73q57 128 156 192t225 64q54 0 90.5 -9t61.5 -18l-38 -82q-16 6 -34 10.5t-35.5 7.5t-33.5 4t-27 1q-91 0 -156.5 -41t-107.5 -129h324l-34 -76
h-317q-5 -14 -10 -33.5t-7 -36.5h302l-35 -76h-274q-1 -94 53 -138.5t143 -44.5q32 0 66 5.5t79 22.5z" />
    <glyph glyph-name="uni20B4" unicode="&#x20b4;" 
d="M297 -10q-108 0 -164.5 40.5t-56.5 105.5q0 39 16.5 73t39.5 56h-74l20 70h133l100 70h-217l15 70h300q27 19 44 35t26 29.5t12 26t3 26.5q0 28 -28.5 43.5t-70.5 15.5q-49 0 -92 -7t-91 -23l21 92q43 11 91 17.5t88 6.5q89 0 138.5 -32t49.5 -92q0 -42 -18 -73.5
t-55 -64.5h72l-15 -70h-147l-98 -70h229l-20 -70h-305q-29 -23 -47 -49t-18 -61q0 -37 33 -58t100 -21q49 0 96.5 9.5t79.5 22.5l-21 -92q-38 -12 -82.5 -19t-86.5 -7z" />
    <glyph glyph-name="uni20B8" unicode="&#x20b8;" horiz-adv-x="590" 
d="M123 727h550l-17 -76h-550zM303 505h-231l18 76h550l-18 -76h-227l-117 -505h-92z" />
    <glyph glyph-name="uni20BD" unicode="&#x20bd;" horiz-adv-x="650" 
d="M265 388h102q97 0 147.5 37t50.5 115q0 50 -33 75.5t-106 25.5h-102zM429 166h-215l-38 -166h-96l38 166h-90l18 76h90l16 70h-90l17 76h90l79 339h205q110 0 162.5 -44.5t52.5 -122.5q0 -125 -81 -186.5t-230 -61.5h-109l-16 -70h215z" />
    <glyph glyph-name="afii61352" unicode="&#x2116;" horiz-adv-x="1095" 
d="M759 302h274l-16 -70h-274zM203 727h130l194 -599h2l138 599h96l-168 -727h-120l-201 610h-2l-141 -610h-96zM914 379q-32 0 -53.5 9.5t-35 26t-19.5 38t-6 45.5q0 41 11 83.5t34.5 77t59.5 56.5t86 22q33 0 55.5 -8.5t37 -23.5t21 -35t6.5 -44q0 -43 -12.5 -87
t-37.5 -79.5t-62 -58t-85 -22.5zM928 443q27 0 46.5 19t32 46t18.5 57t6 53t-10.5 39t-39.5 16q-27 0 -46.5 -18t-31.5 -44.5t-17.5 -56t-5.5 -52.5q0 -24 10 -41.5t38 -17.5z" />
    <glyph glyph-name="uni2117" unicode="&#x2117;" horiz-adv-x="900" 
d="M433 378h69q10 0 22 2t22.5 9t17.5 19.5t7 33.5t-6 34.5t-15.5 20.5t-21 9.5t-21.5 2.5h-74v-131zM433 163h-76v402h157q11 0 33.5 -2.5t45 -14t39.5 -35.5t17 -67q0 -32 -12 -55.5t-32 -38.5t-46 -22.5t-53 -7.5h-73v-159zM475 -10q-78 0 -146 29t-118.5 79.5
t-79.5 118.5t-29 146t29 146t79.5 118.5t118.5 79.5t146 29t146 -29t118.5 -79.5t79.5 -118.5t29 -146t-29 -146t-79.5 -118.5t-118.5 -79.5t-146 -29zM474 52q64 0 121 24.5t99.5 67t67 99t24.5 120.5t-24.5 120.5t-67 99t-99.5 67t-121 24.5t-120.5 -24.5t-98.5 -67
t-66.5 -99t-24.5 -120.5t24.5 -120.5t66.5 -99t98.5 -67t120.5 -24.5z" />
    <glyph glyph-name="trademark" unicode="&#x2122;" horiz-adv-x="990" 
d="M222 661h-147v66h370v-66h-147v-354h-76v354zM515 727h104l122 -290h2l120 290h102v-420h-76v313h-2l-115 -263h-64l-115 263h-2v-313h-76v420z" />
    <glyph glyph-name="onethird" unicode="&#x2153;" horiz-adv-x="920" 
d="M252 627l-101 -57l-28 63l172 95h70l-101 -436h-90zM738 747h82l-649 -767h-82zM623 -9q-34 0 -68 6t-57 16l17 72q20 -10 51.5 -17t64.5 -7q123 0 123 82q0 54 -99 54h-55l15 62h50q62 0 89.5 20t27.5 49q0 23 -23.5 36t-63.5 13q-31 0 -58 -6t-54 -17l16 74
q32 10 65.5 14.5t65.5 4.5q70 0 108 -26.5t38 -69.5q0 -45 -25.5 -76t-90.5 -47v-2q83 -12 83 -83q0 -33 -17 -61t-46.5 -48.5t-69.5 -31.5t-87 -11z" />
    <glyph glyph-name="twothirds" unicode="&#x2154;" horiz-adv-x="920" 
d="M51 371l116 75q53 34 83.5 57.5t45.5 41.5t19 32.5t4 31.5q0 26 -20 42.5t-58 16.5q-26 0 -57 -6.5t-64 -20.5l16 74q37 14 69.5 18.5t65.5 4.5q70 0 107.5 -30.5t37.5 -77.5q0 -27 -8 -51t-32.5 -51.5t-69 -60.5t-116.5 -78l-40 -25l-1 -2h215l-16 -70h-315zM768 747h82
l-649 -767h-82zM643 -9q-34 0 -68 6t-57 16l17 72q20 -10 51.5 -17t64.5 -7q123 0 123 82q0 54 -99 54h-55l15 62h50q62 0 89.5 20t27.5 49q0 23 -23.5 36t-63.5 13q-31 0 -58 -6t-54 -17l16 74q32 10 65.5 14.5t65.5 4.5q70 0 108 -26.5t38 -69.5q0 -45 -25.5 -76
t-90.5 -47v-2q83 -12 83 -83q0 -33 -17 -61t-46.5 -48.5t-69.5 -31.5t-87 -11z" />
    <glyph glyph-name="oneeighth" unicode="&#x215b;" horiz-adv-x="920" 
d="M251 627l-101 -57l-28 63l172 95h70l-101 -436h-90zM742 747h82l-649 -767h-82zM719 257q34 16 54.5 36.5t20.5 43.5q0 17 -14 28.5t-43 11.5q-37 0 -55.5 -18t-18.5 -40q0 -20 16.5 -36t39.5 -26zM695 201q-15 -6 -31 -13t-28.5 -17.5t-21 -23.5t-8.5 -31
q0 -20 15 -37.5t50 -17.5q38 0 63.5 18t25.5 52q0 26 -20.5 44t-44.5 26zM779 232q72 -32 72 -95q0 -33 -14.5 -60t-40 -46t-61 -29.5t-78.5 -10.5q-64 0 -104 30t-40 79q0 25 10 45.5t27 37t40.5 28t49.5 19.5q-33 17 -50 40t-17 49q0 60 51 94t132 34q63 0 98 -27.5
t35 -66.5q0 -22 -9 -40.5t-24.5 -33.5t-35.5 -26.5t-41 -20.5z" />
    <glyph glyph-name="threeeighths" unicode="&#x215c;" horiz-adv-x="920" 
d="M146 282q-34 0 -68 6t-57 16l17 72q20 -10 51.5 -17t64.5 -7q123 0 123 82q0 54 -99 54h-55l15 62h50q62 0 89.5 20t27.5 49q0 23 -23.5 36t-63.5 13q-31 0 -58 -6t-54 -17l16 74q32 10 65.5 14.5t65.5 4.5q70 0 108 -26.5t38 -69.5q0 -45 -25.5 -76t-90.5 -47v-2
q83 -12 83 -83q0 -33 -17 -61t-46.5 -48.5t-69.5 -31.5t-87 -11zM744 747h82l-649 -767h-82zM724 257q34 16 54.5 36.5t20.5 43.5q0 17 -14 28.5t-43 11.5q-37 0 -55.5 -18t-18.5 -40q0 -20 16.5 -36t39.5 -26zM700 201q-15 -6 -31 -13t-28.5 -17.5t-21 -23.5t-8.5 -31
q0 -20 15 -37.5t50 -17.5q38 0 63.5 18t25.5 52q0 26 -20.5 44t-44.5 26zM784 232q72 -32 72 -95q0 -33 -14.5 -60t-40 -46t-61 -29.5t-78.5 -10.5q-64 0 -104 30t-40 79q0 25 10 45.5t27 37t40.5 28t49.5 19.5q-33 17 -50 40t-17 49q0 60 51 94t132 34q63 0 98 -27.5
t35 -66.5q0 -22 -9 -40.5t-24.5 -33.5t-35.5 -26.5t-41 -20.5z" />
    <glyph glyph-name="fiveeighths" unicode="&#x215d;" horiz-adv-x="920" 
d="M167 282q-27 0 -60.5 6t-55.5 17l18 74q32 -17 55.5 -22t52.5 -5q54 0 81.5 26t27.5 65q0 26 -20 43t-61 17q-30 0 -54 -4.5t-47 -11.5l67 241h251l-16 -70h-184l-27 -94q8 2 24 3.5t35 1.5q56 0 91.5 -30t35.5 -82q0 -41 -15.5 -73.5t-44 -55t-68 -34.5t-86.5 -12z
M754 747h82l-649 -767h-82zM709 257q34 16 54.5 36.5t20.5 43.5q0 17 -14 28.5t-43 11.5q-37 0 -55.5 -18t-18.5 -40q0 -20 16.5 -36t39.5 -26zM685 201q-15 -6 -31 -13t-28.5 -17.5t-21 -23.5t-8.5 -31q0 -20 15 -37.5t50 -17.5q38 0 63.5 18t25.5 52q0 26 -20.5 44
t-44.5 26zM769 232q72 -32 72 -95q0 -33 -14.5 -60t-40 -46t-61 -29.5t-78.5 -10.5q-64 0 -104 30t-40 79q0 25 10 45.5t27 37t40.5 28t49.5 19.5q-33 17 -50 40t-17 49q0 60 51 94t132 34q63 0 98 -27.5t35 -66.5q0 -22 -9 -40.5t-24.5 -33.5t-35.5 -26.5t-41 -20.5z" />
    <glyph glyph-name="seveneighths" unicode="&#x215e;" horiz-adv-x="920" 
d="M325 656h-211l17 72h304l-13 -56l-253 -380h-93zM722 747h82l-649 -767h-82zM704 257q34 16 54.5 36.5t20.5 43.5q0 17 -14 28.5t-43 11.5q-37 0 -55.5 -18t-18.5 -40q0 -20 16.5 -36t39.5 -26zM680 201q-15 -6 -31 -13t-28.5 -17.5t-21 -23.5t-8.5 -31q0 -20 15 -37.5
t50 -17.5q38 0 63.5 18t25.5 52q0 26 -20.5 44t-44.5 26zM764 232q72 -32 72 -95q0 -33 -14.5 -60t-40 -46t-61 -29.5t-78.5 -10.5q-64 0 -104 30t-40 79q0 25 10 45.5t27 37t40.5 28t49.5 19.5q-33 17 -50 40t-17 49q0 60 51 94t132 34q63 0 98 -27.5t35 -66.5
q0 -22 -9 -40.5t-24.5 -33.5t-35.5 -26.5t-41 -20.5z" />
    <glyph glyph-name="arrowleft" unicode="&#x2190;" horiz-adv-x="850" 
d="M105 364l235 235h108l-195 -195h542v-80h-542l195 -195h-108z" />
    <glyph glyph-name="arrowup" unicode="&#x2191;" horiz-adv-x="850" 
d="M410 579l-195 -195v108l235 235l235 -235v-108l-195 195v-579h-80v579z" />
    <glyph glyph-name="arrowright" unicode="&#x2192;" horiz-adv-x="850" 
d="M647 324h-542v80h542l-195 195h108l235 -235l-235 -235h-108z" />
    <glyph glyph-name="arrowdown" unicode="&#x2193;" horiz-adv-x="850" 
d="M215 234v109l195 -195v579h80v-579l195 195v-109l-235 -234z" />
    <glyph glyph-name="arrowboth" unicode="&#x2194;" horiz-adv-x="850" 
d="M428 129h-108l-235 235l235 235h108l-195 -195h434l-195 195h108l235 -235l-235 -235h-108l195 195h-434z" />
    <glyph glyph-name="arrowupdn" unicode="&#x2195;" horiz-adv-x="850" 
d="M215 234v109l195 -195v431l-195 -195v108l235 235l235 -235v-108l-195 195v-431l195 195v-109l-235 -234z" />
    <glyph glyph-name="uni2196" unicode="&#x2196;" horiz-adv-x="850" 
d="M266 495v-273l-76 76v328h329l76 -76h-272l392 -392l-56 -56z" />
    <glyph glyph-name="uni2197" unicode="&#x2197;" horiz-adv-x="850" 
d="M190 158l392 392h-272l76 76h329v-328l-76 -76v273l-393 -393z" />
    <glyph glyph-name="uni2198" unicode="&#x2198;" horiz-adv-x="850" 
d="M305 178h272l-392 392l56 56l393 -393v273l76 -76v-328h-329z" />
    <glyph glyph-name="uni2199" unicode="&#x2199;" horiz-adv-x="850" 
d="M595 178l-76 -76h-329v328l76 76v-273l393 393l56 -56l-392 -392h272z" />
    <glyph glyph-name="partialdiff" unicode="&#x2202;" horiz-adv-x="645" 
d="M345 71q86 0 128.5 48t42.5 154q0 105 -40 153t-131 48q-83 0 -127 -47.5t-44 -153.5q0 -107 46.5 -154.5t124.5 -47.5zM346 -9q-131 0 -198.5 72.5t-67.5 209.5q0 133 66.5 207t184.5 74q34 0 70 -9.5t71 -43.5l3 2q-21 57 -59.5 98t-84 69t-93.5 44t-88 22l40 74
q123 -20 204 -75t129 -130t67.5 -162t19.5 -170q0 -61 -17 -112.5t-50.5 -89t-83 -59t-113.5 -21.5z" />
    <glyph glyph-name="product" unicode="&#x220f;" horiz-adv-x="750" 
d="M125 727h550v-952h-96v866h-358v-866h-96v952z" />
    <glyph glyph-name="summation" unicode="&#x2211;" horiz-adv-x="572" 
d="M65 -139l281 396l-281 384v86h500v-86h-384l279 -381l-283 -399h398v-86h-510v86z" />
    <glyph glyph-name="minus" unicode="&#x2212;" 
d="M85 407h500v-86h-500v86z" />
    <glyph glyph-name="uni2215" unicode="&#x2215;" 
d="M547 727h98l-534 -727h-98z" />
    <glyph glyph-name="radical" unicode="&#x221a;" horiz-adv-x="730" 
d="M148 408h-83v80h170l156 -468h2l148 810h194v-72h-127l-171 -913h-100z" />
    <glyph glyph-name="infinity" unicode="&#x221e;" horiz-adv-x="780" 
d="M365 369l-59 56q-14 13 -28.5 21t-35.5 8t-36 -8t-24.5 -20t-13.5 -27t-4 -30q0 -39 22.5 -61t51.5 -22q19 0 40 9.5t41 28.5zM466 368l56 -54q14 -14 29.5 -21t37.5 -7q21 0 35.5 7t23.5 19t13.5 26.5t4.5 29.5q0 41 -22.5 63.5t-51.5 22.5q-20 0 -42 -9.5t-42 -31.5z
M355 259q-26 -26 -56 -36.5t-62 -10.5q-40 0 -68.5 14.5t-46.5 37.5t-26 50.5t-8 54.5q0 25 8 53.5t26 51.5t46.5 38.5t68.5 15.5q27 0 58.5 -11t60.5 -40l59 -59l62 65q23 23 53.5 34t62.5 11q39 0 67.5 -14t46.5 -36.5t26.5 -51t8.5 -57.5q0 -25 -8 -52.5t-26 -51
t-46.5 -38.5t-68.5 -15q-28 0 -59.5 10.5t-59.5 38.5l-59 59z" />
    <glyph glyph-name="integral" unicode="&#x222b;" horiz-adv-x="540" 
d="M15 -235q-25 0 -45 4l19 86q20 -4 37 -4q24 0 41 5.5t29.5 18.5t21 34t15.5 53l143 663q10 49 27.5 84.5t43 58t60 33t80.5 10.5q17 0 32.5 -1.5t35.5 -4.5l-19 -86q-7 2 -20 4t-31 2q-52 0 -79 -27t-40 -91l-136 -630q-13 -60 -30 -100.5t-42 -65.5t-60 -35.5t-83 -10.5
z" />
    <glyph glyph-name="approxequal" unicode="&#x2248;" 
d="M580 261q-18 -34 -55.5 -56t-79.5 -22q-35 0 -65 12t-56 26t-50.5 26t-48.5 12t-49.5 -13t-47.5 -49l-38 70q18 34 55.5 56t79.5 22q35 0 65 -12t56 -26t50.5 -26t48.5 -12t49.5 13t47.5 49zM580 461q-18 -34 -55.5 -56t-79.5 -22q-35 0 -65 12t-56 26t-50.5 26t-48.5 12
t-49.5 -13t-47.5 -49l-38 70q18 34 55.5 56t79.5 22q35 0 65 -12t56 -26t50.5 -26t48.5 -12t49.5 13t47.5 49z" />
    <glyph glyph-name="notequal" unicode="&#x2260;" 
d="M213 221h-128v86h179l66 114h-245v86h296l68 117h76l-68 -117h128v-86h-179l-66 -114h245v-86h-296l-68 -117h-76z" />
    <glyph glyph-name="lessequal" unicode="&#x2264;" 
d="M85 179h500v-86h-500v86zM85 400v72l500 184v-88l-380 -130v-2l380 -130v-90z" />
    <glyph glyph-name="greaterequal" unicode="&#x2265;" 
d="M85 179h500v-86h-500v86zM85 304l380 130v2l-380 130v90l500 -184v-72l-500 -184v88z" />
    <glyph glyph-name="lozenge" unicode="&#x25ca;" horiz-adv-x="690" 
d="M542 364l-172 225l-172 -225l172 -226zM85 364l285 373l285 -373l-285 -374z" />
    <glyph glyph-name="uniF400" unicode="&#xf400;" horiz-adv-x="0" 
d="M-265 630h-86l90 140h132z" />
    <glyph glyph-name="uniF401" unicode="&#xf401;" horiz-adv-x="0" 
d="M-341 790h-88l86 140h134z" />
    <glyph glyph-name="uniF406" unicode="&#xf406;" horiz-adv-x="380" 
d="M506 914q-27 -60 -80 -94t-119 -34t-102 35.5t-39 92.5l74 20q4 -38 22.5 -56t56.5 -18t65.5 18t47.5 56z" />
    <glyph glyph-name="uniF407" unicode="&#xf407;" horiz-adv-x="260" 
d="M-17 -162q18 -9 34 -13.5t42 -4.5q28 0 47.5 13t19.5 36q0 17 -14.5 26t-40.5 9q-8 0 -19 -0.5t-18 -2.5l42 114h60l-22 -61q48 -2 72.5 -23t24.5 -56q0 -26 -12 -47t-32.5 -36t-47.5 -23.5t-57 -8.5q-35 0 -56.5 5t-36.5 13z" />
    <glyph glyph-name="uniF408" unicode="&#xf408;" horiz-adv-x="390" 
d="M487 790h-91l-62 81l-100 -81h-97l152 140h110z" />
    <glyph glyph-name="uniF409" unicode="&#xf409;" horiz-adv-x="200" 
d="M-7 -190q39 -2 60 10.5t26 32.5q-15 -4 -30 -4q-26 0 -40 12t-14 31q0 26 20.5 42t60.5 16q35 0 56 -18t21 -45q0 -58 -46.5 -94t-125.5 -33z" />
    <glyph glyph-name="uniF40A" unicode="&#xf40a;" horiz-adv-x="245" 
d="M102 727h103l-83 -220h-72z" />
    <glyph glyph-name="uniF40B" unicode="&#xf40b;" horiz-adv-x="170" 
d="M85 796q-29 0 -46.5 17.5t-17.5 46.5t17.5 46.5t46.5 17.5t46.5 -17.5t17.5 -46.5t-17.5 -46.5t-46.5 -17.5z" />
    <glyph glyph-name="uniF40C" unicode="&#xf40c;" horiz-adv-x="256" 
d="M250 808q26 0 45.5 17t19.5 43q0 18 -11.5 31t-31.5 13q-27 0 -45.5 -18t-18.5 -42q0 -18 11.5 -31t30.5 -13zM239 752q-40 0 -64 26.5t-24 64.5q0 26 11 49t30 40t43.5 26.5t50.5 9.5q39 0 63 -26.5t24 -64.5q0 -26 -11 -49t-29.5 -40t-43 -26.5t-50.5 -9.5z" />
    <glyph glyph-name="uniF40D" unicode="&#xf40d;" horiz-adv-x="400" 
d="M380 916q-4 -49 -32 -79t-73 -30q-26 0 -47.5 8t-39 17t-32 17t-27.5 8q-11 0 -23.5 -10t-16.5 -40l-69 15q4 49 32 79t73 30q26 0 47.5 -8t39 -17t32 -17t27.5 -8q11 0 23.5 10t16.5 40z" />
    <glyph glyph-name="uniF40E" unicode="&#xf40e;" horiz-adv-x="250" 
d="M97 -240q-50 0 -77.5 24.5t-27.5 60.5q0 23 9.5 47t30.5 46.5t54.5 43.5t81.5 38l62 -20q-76 -31 -107.5 -63.5t-31.5 -67.5q0 -17 12.5 -29t38.5 -12q36 0 61 11l-14 -64q-42 -15 -92 -15z" />
    <glyph glyph-name="zero.tab" unicode="&#xf4e0;" 
d="M263 76q43 0 79.5 19.5t65 52t50 76t35.5 92t21 99t7 97.5q0 74 -33 106.5t-95 32.5q-44 0 -80.5 -20t-64.5 -53.5t-48.5 -77.5t-33.5 -92.5t-19.5 -98t-6.5 -94.5q0 -71 32 -105t91 -34zM244 -10q-98 0 -151.5 55.5t-53.5 159.5q0 52 9 112t27.5 119t48 113.5t70.5 96
t94 66.5t120 25q104 0 159.5 -54t55.5 -163q0 -51 -8.5 -110.5t-27 -118.5t-48 -113.5t-71.5 -96t-97.5 -66.5t-126.5 -25z" />
    <glyph glyph-name="one.tab" unicode="&#xf4e1;" 
d="M375 610l-128 -69l-30 74l205 112h76l-168 -727h-96z" />
    <glyph glyph-name="two.tab" unicode="&#xf4e2;" 
d="M36 90l165 116q63 45 110 80.5t80.5 65t54.5 54t33 47t16.5 44t4.5 45.5q0 48 -38 78.5t-104 30.5q-48 0 -93.5 -12.5t-90.5 -35.5l22 94q42 19 91.5 29.5t95.5 10.5q50 0 91 -12.5t69.5 -36t44 -55.5t15.5 -71q0 -48 -13.5 -89t-52.5 -87.5t-109 -103t-182 -134.5
l-85 -59v-3h344l-20 -86h-470z" />
    <glyph glyph-name="three.tab" unicode="&#xf4e3;" 
d="M205 -10q-55 0 -100.5 9t-88.5 27l21 90q35 -19 78 -29.5t89 -10.5q103 0 163.5 39t60.5 112q0 53 -42.5 80.5t-130.5 27.5h-76l20 86h70q115 0 165.5 32.5t50.5 100.5q0 43 -36.5 70t-108.5 27q-44 0 -89.5 -9.5t-88.5 -26.5l21 92q45 14 92.5 22t97.5 8
q107 0 162 -44.5t55 -116.5q0 -82 -51.5 -133t-143.5 -67l-1 -2q68 -10 101.5 -46t33.5 -91q0 -56 -24.5 -101.5t-68 -78t-103 -50t-128.5 -17.5z" />
    <glyph glyph-name="four.tab" unicode="&#xf4e4;" 
d="M409 253l86 376h-2l-357 -376h273zM389 167h-384l18 80l455 480h136l-109 -474h95l-20 -86h-95l-39 -167h-96z" />
    <glyph glyph-name="five.tab" unicode="&#xf4e5;" 
d="M196 -10q-41 0 -87 8.5t-79 23.5l21 90q42 -20 82.5 -28t74.5 -8q57 0 99.5 13t70.5 35.5t42 54t14 67.5q0 31 -12.5 55t-35 40.5t-54 24.5t-68.5 8q-35 0 -73 -5.5t-75 -16.5l108 375h399l-20 -86h-316l-55 -193q26 5 46.5 6t43.5 1q50 0 90 -14.5t68 -40t43 -60
t15 -74.5q0 -65 -23 -116t-67 -86.5t-107.5 -54.5t-144.5 -19z" />
    <glyph glyph-name="six.tab" unicode="&#xf4e6;" 
d="M282 76q39 0 74.5 13.5t62 38t42.5 58.5t16 75q0 53 -34.5 82t-91.5 29q-38 0 -71.5 -11t-60 -29t-43.5 -41t-23 -48q-5 -23 -5 -42q0 -27 9.5 -50t27 -39.5t42.5 -26t55 -9.5zM266 -10q-59 0 -101 19t-68.5 50.5t-39 73t-12.5 85.5q0 99 24.5 192t77.5 166t136 117
t200 44q30 0 67.5 -5.5t65.5 -17.5l-22 -92q-28 15 -64.5 22t-68.5 7q-67 0 -118.5 -22t-88.5 -60t-60.5 -89.5t-35.5 -110.5q35 38 87.5 63.5t132.5 25.5q43 0 80 -12t64.5 -35t43 -57t15.5 -78q0 -62 -23.5 -114t-65.5 -90.5t-100 -60t-126 -21.5z" />
    <glyph glyph-name="seven.tab" unicode="&#xf4e7;" 
d="M512 641h-363l20 86h469l-18 -76l-431 -651h-101z" />
    <glyph glyph-name="eight.tab" unicode="&#xf4e8;" 
d="M250 -10q-47 0 -88.5 11.5t-73 33.5t-50 54.5t-18.5 73.5q0 44 17 79t46.5 62t69 46.5t85.5 31.5q-52 26 -82.5 62t-30.5 87q0 49 20.5 87.5t58 64.5t88.5 40t113 14q44 0 84 -9.5t70 -28t47.5 -46t17.5 -62.5q0 -38 -11 -68.5t-34 -55.5t-59 -45t-85 -38
q61 -26 94.5 -63.5t33.5 -90.5q0 -57 -23.5 -101.5t-65 -75t-99 -47t-125.5 -16.5zM272 76q41 0 76 9t61 26.5t40.5 43.5t14.5 59q0 27 -13 47.5t-34 36.5t-48.5 27.5t-57.5 20.5q-33 -8 -66.5 -21t-61 -32.5t-45 -46t-17.5 -60.5q0 -45 37 -77.5t114 -32.5zM362 416
q47 19 78 36.5t49.5 35.5t26 36t7.5 38q0 43 -37 66t-105 23q-75 0 -117 -30t-42 -78q0 -24 11.5 -43.5t31 -35t45 -27.5t52.5 -21z" />
    <glyph glyph-name="nine.tab" unicode="&#xf4e9;" 
d="M176 -10q-33 0 -70.5 7t-62.5 18l21 92q25 -14 58 -22.5t78 -8.5q63 0 112.5 19.5t87 56.5t63 90t40.5 120q-32 -46 -86.5 -71.5t-134.5 -25.5q-43 0 -80 13t-64.5 38t-43.5 61t-16 82q0 57 24.5 107.5t66.5 88.5t98.5 60t120.5 22q61 0 104 -18.5t70.5 -50t40 -73.5
t12.5 -89q0 -43 -6.5 -98t-23.5 -112.5t-48 -112.5t-79.5 -98t-118 -69t-163.5 -26zM311 351q43 0 80 13.5t64 37t42.5 55.5t15.5 70q0 57 -34.5 90.5t-103.5 33.5q-42 0 -77.5 -12.5t-61.5 -36.5t-40.5 -58.5t-14.5 -77.5q0 -56 36 -85.5t94 -29.5z" />
    <glyph glyph-name="dollar.tab" unicode="&#xf4ec;" 
d="M210 -10q-51 1 -98.5 14t-79.5 35l21 92q11 -9 29 -18.5t41 -17.5t51.5 -13.5t61.5 -5.5q96 0 140 40t44 102q0 23 -5 39.5t-18.5 31t-37.5 28t-63 29.5l-24 10q-62 26 -96.5 63.5t-34.5 98.5q0 45 17.5 82t49 65t76 45.5t97.5 23.5l24 103h66l-23 -100q38 -1 78 -11.5
t66 -22.5l-21 -90q-30 15 -71.5 26.5t-87.5 11.5q-82 0 -125 -32.5t-43 -86.5q0 -18 5.5 -32.5t19 -28t37.5 -27.5t61 -31l24 -11q72 -32 102.5 -70.5t30.5 -92.5q0 -51 -18 -93.5t-51 -74t-78.5 -51.5t-99.5 -26l-24 -104h-66z" />
    <glyph glyph-name="Euro.tab" unicode="&#xf4ed;" 
d="M535 16q-33 -14 -72 -20t-87 -6q-59 0 -108.5 19t-84.5 54t-54 84.5t-17 111.5h-91l35 76h64q3 19 8 36l10 34h-81l34 76h73q57 128 156 192t225 64q54 0 90.5 -9t61.5 -18l-38 -82q-16 6 -34 10.5t-35.5 7.5t-33.5 4t-27 1q-91 0 -156.5 -41t-107.5 -129h324l-34 -76
h-317q-5 -14 -10 -33.5t-7 -36.5h302l-35 -76h-274q-1 -94 53 -138.5t143 -44.5q32 0 66 5.5t79 22.5z" />
    <glyph glyph-name="cent.tab" unicode="&#xf4ee;" 
d="M252 -3q-81 14 -128 66.5t-47 136.5q0 73 20 134t58.5 106.5t95 74t129.5 36.5l26 111h72l-25 -108q32 -2 64.5 -8t61.5 -17l-19 -82q-12 7 -30 12t-37.5 8.5t-39.5 5t-36 1.5q-67 0 -113.5 -21t-75 -56t-41 -80t-12.5 -93q0 -73 43.5 -113t129.5 -40q35 0 72.5 7
t66.5 18l-18 -82q-27 -11 -66 -16.5t-80 -6.5l-25 -108h-72z" />
    <glyph glyph-name="sterling.tab" unicode="&#xf4ef;" 
d="M26 86h100l59 256h-100l18 76h100l15 66q29 127 101.5 190t200.5 63q32 0 67 -6.5t61 -15.5l-21 -88q-29 11 -60 17.5t-67 6.5q-80 0 -123 -40t-62 -121l-17 -72h185l-18 -76h-184l-59 -256h284l-20 -86h-480z" />
    <glyph glyph-name="yen.tab" unicode="&#xf4fa;" 
d="M330 156l-36 -156h-96l36 156h-152l18 76h152l16 70h-152l17 76h112l-121 349h106l106 -335l254 335h114l-275 -349h104l-17 -76h-152l-16 -70h152l-18 -76h-152z" />
    <glyph glyph-name="florin.tab" unicode="&#xf4fb;" 
d="M38 -233q-13 0 -24 1.5t-23 3.5l17 80q20 -5 35 -5q52 0 80 28t42 95l105 495h-113l17 80h113l16 76q21 99 72.5 143.5t143.5 44.5q16 0 31 -1.5t36 -4.5l-17 -80q-7 2 -20.5 4t-29.5 2q-30 0 -51 -6t-35.5 -21t-24.5 -40.5t-18 -64.5l-11 -52h152l-17 -80h-152
l-102 -480q-13 -60 -31 -101.5t-44.5 -67.5t-62.5 -37.5t-84 -11.5z" />
    <glyph glyph-name="uni20B4.tab" unicode="&#xf4fc;" 
d="M297 -10q-108 0 -164.5 40.5t-56.5 105.5q0 39 16.5 73t39.5 56h-74l20 70h133l100 70h-217l15 70h300q27 19 44 35t26 29.5t12 26t3 26.5q0 28 -28.5 43.5t-70.5 15.5q-49 0 -92 -7t-91 -23l21 92q43 11 91 17.5t88 6.5q89 0 138.5 -32t49.5 -92q0 -42 -18 -73.5
t-55 -64.5h72l-15 -70h-147l-98 -70h229l-20 -70h-305q-29 -23 -47 -49t-18 -61q0 -37 33 -58t100 -21q49 0 96.5 9.5t79.5 22.5l-21 -92q-38 -12 -82.5 -19t-86.5 -7z" />
    <glyph glyph-name="uni20BD.tab" unicode="&#xf4fd;" 
d="M251 388h102q97 0 147.5 37t50.5 115q0 50 -33 75.5t-106 25.5h-102zM415 166h-215l-38 -166h-96l38 166h-90l18 76h90l16 70h-90l17 76h90l79 339h205q110 0 162.5 -44.5t52.5 -122.5q0 -125 -81 -186.5t-230 -61.5h-109l-16 -70h215z" />
    <glyph glyph-name="uni20B8.tab" unicode="&#xf5f3;" 
d="M138 727h550l-17 -76h-550zM318 505h-231l18 76h550l-18 -76h-227l-117 -505h-92z" />
    <glyph glyph-name="uniF643" unicode="&#xf643;" 
d="M261 76q63 0 105 27.5t68 68.5t37 88.5t11 87.5q0 63 -33.5 92t-96.5 29q-62 0 -104.5 -28.5t-68 -70.5t-36.5 -89t-11 -83q0 -64 33.5 -93t95.5 -29zM242 -10q-100 0 -155.5 52t-55.5 145q0 59 20 124t61.5 119t106 89.5t153.5 35.5q106 0 159 -51.5t53 -148.5
q0 -33 -7.5 -73t-24.5 -80.5t-43.5 -78.5t-64.5 -67.5t-88.5 -47.5t-113.5 -18z" />
    <glyph glyph-name="uniF644" unicode="&#xf644;" 
d="M327 426l-131 -72l-32 76l209 115h78l-126 -545h-96z" />
    <glyph glyph-name="uniF645" unicode="&#xf645;" 
d="M27 95l217 115q67 35 108.5 60.5t64.5 46.5t31 40t8 41q0 33 -34 52t-101 19q-55 0 -104.5 -13t-93.5 -33l21 94q31 12 58.5 19.5t53.5 11.5t52 5.5t55 1.5q43 0 79.5 -9.5t63 -27.5t41.5 -43t15 -55q0 -44 -13.5 -76.5t-46 -62.5t-87.5 -61.5t-138 -73.5l-115 -58v-2
h343l-20 -86h-480z" />
    <glyph glyph-name="uniF646" unicode="&#xf646;" 
d="M159 -191q-55 0 -100.5 9t-88.5 27l21 90q35 -19 78 -29.5t89 -10.5q103 0 163.5 39t60.5 112q0 53 -42.5 80.5t-130.5 27.5h-76l20 86h70q115 0 165.5 32.5t50.5 100.5q0 43 -36.5 70t-108.5 27q-44 0 -89.5 -9.5t-88.5 -26.5l21 92q45 14 92.5 22t97.5 8
q107 0 162 -44.5t55 -116.5q0 -82 -51.5 -133t-143.5 -67l-1 -2q68 -10 101.5 -46t33.5 -91q0 -56 -24.5 -101.5t-68 -78t-103 -50t-128.5 -17.5z" />
    <glyph glyph-name="uniF647" unicode="&#xf647;" 
d="M366 86l85 370h-2l-358 -370h275zM346 0h-386l19 81l450 464h139l-106 -459h98l-20 -86h-98l-42 -182h-96z" />
    <glyph glyph-name="uniF648" unicode="&#xf648;" 
d="M153 -191q-41 0 -87 8.5t-79 23.5l21 90q42 -20 82.5 -28t74.5 -8q57 0 99.5 13t70.5 35.5t42 54t14 67.5q0 31 -12.5 55t-35 40.5t-54 24.5t-68.5 8q-35 0 -73 -5.5t-75 -16.5l108 375h399l-20 -86h-316l-55 -193q26 5 46.5 6t43.5 1q50 0 90 -14.5t68 -40t43 -60
t15 -74.5q0 -65 -23 -116t-67 -86.5t-107.5 -54.5t-144.5 -19z" />
    <glyph glyph-name="uniF649" unicode="&#xf649;" 
d="M282 76q39 0 74.5 13.5t62 38t42.5 58.5t16 75q0 53 -34.5 82t-91.5 29q-38 0 -71.5 -11t-60 -29t-43.5 -41t-23 -48q-5 -23 -5 -42q0 -27 9.5 -50t27 -39.5t42.5 -26t55 -9.5zM266 -10q-59 0 -101 19t-68.5 50.5t-39 73t-12.5 85.5q0 99 24.5 192t77.5 166t136 117
t200 44q30 0 67.5 -5.5t65.5 -17.5l-22 -92q-28 15 -64.5 22t-68.5 7q-67 0 -118.5 -22t-88.5 -60t-60.5 -89.5t-35.5 -110.5q35 38 87.5 63.5t132.5 25.5q43 0 80 -12t64.5 -35t43 -57t15.5 -78q0 -62 -23.5 -114t-65.5 -90.5t-100 -60t-126 -21.5z" />
    <glyph glyph-name="uniF64A" unicode="&#xf64a;" 
d="M466 460h-363l20 86h469l-18 -76l-431 -651h-101z" />
    <glyph glyph-name="uniF64B" unicode="&#xf64b;" 
d="M250 -10q-47 0 -88.5 11.5t-73 33.5t-50 54.5t-18.5 73.5q0 44 17 79t46.5 62t69 46.5t85.5 31.5q-52 26 -82.5 62t-30.5 87q0 49 20.5 87.5t58 64.5t88.5 40t113 14q44 0 84 -9.5t70 -28t47.5 -46t17.5 -62.5q0 -38 -11 -68.5t-34 -55.5t-59 -45t-85 -38
q61 -26 94.5 -63.5t33.5 -90.5q0 -57 -23.5 -101.5t-65 -75t-99 -47t-125.5 -16.5zM272 76q41 0 76 9t61 26.5t40.5 43.5t14.5 59q0 27 -13 47.5t-34 36.5t-48.5 27.5t-57.5 20.5q-33 -8 -66.5 -21t-61 -32.5t-45 -46t-17.5 -60.5q0 -45 37 -77.5t114 -32.5zM362 416
q47 19 78 36.5t49.5 35.5t26 36t7.5 38q0 43 -37 66t-105 23q-75 0 -117 -30t-42 -78q0 -24 11.5 -43.5t31 -35t45 -27.5t52.5 -21z" />
    <glyph glyph-name="uniF64C" unicode="&#xf64c;" 
d="M134 -191q-33 0 -70.5 7t-62.5 18l21 92q25 -14 58 -22.5t78 -8.5q63 0 112.5 19.5t87 56.5t63 90t40.5 120q-32 -46 -86.5 -71.5t-134.5 -25.5q-43 0 -80 13t-64.5 38t-43.5 61t-16 82q0 57 24.5 107.5t66.5 88.5t98.5 60t120.5 22q61 0 104 -18.5t70.5 -50t40 -73.5
t12.5 -89q0 -43 -6.5 -98t-23.5 -112.5t-48 -112.5t-79.5 -98t-118 -69t-163.5 -26zM269 170q43 0 80 13.5t64 37t42.5 55.5t15.5 70q0 57 -34.5 90.5t-103.5 33.5q-42 0 -77.5 -12.5t-61.5 -36.5t-40.5 -58.5t-14.5 -77.5q0 -56 36 -85.5t94 -29.5z" />
    <glyph glyph-name="zero.denominator" unicode="&#xf655;" horiz-adv-x="410" 
d="M157 61q28 0 48 17.5t34 44.5t22.5 58.5t13.5 59.5t6.5 48t1.5 24q0 34 -13.5 49t-41.5 15q-24 0 -42 -13.5t-32 -35.5t-24 -49.5t-16 -55t-9 -52.5t-3 -42q0 -35 14.5 -51.5t40.5 -16.5zM139 -9q-62 0 -95.5 34.5t-33.5 100.5q0 20 4 52t13.5 67.5t26.5 71.5t43 65
t62.5 47t85.5 18q130 0 130 -130q0 -18 -3.5 -48.5t-13 -67t-26 -74t-42.5 -67.5t-63.5 -49.5t-87.5 -19.5z" />
    <glyph glyph-name="one.denominator" unicode="&#xf656;" horiz-adv-x="410" 
d="M204 336l-101 -57l-28 63l172 95h70l-101 -436h-90z" />
    <glyph glyph-name="two.denominator" unicode="&#xf657;" horiz-adv-x="410" 
d="M4 80l116 75q53 34 83.5 57.5t45.5 41.5t19 32.5t4 31.5q0 26 -20 42.5t-58 16.5q-26 0 -57 -6.5t-64 -20.5l16 74q37 14 69.5 18.5t65.5 4.5q70 0 107.5 -30.5t37.5 -77.5q0 -27 -8 -51t-32.5 -51.5t-69 -60.5t-116.5 -78l-40 -25l-1 -2h215l-16 -70h-315z" />
    <glyph glyph-name="three.denominator" unicode="&#xf658;" horiz-adv-x="410" 
d="M104 -9q-34 0 -68 6t-57 16l17 72q20 -10 51.5 -17t64.5 -7q123 0 123 82q0 54 -99 54h-55l15 62h50q62 0 89.5 20t27.5 49q0 23 -23.5 36t-63.5 13q-31 0 -58 -6t-54 -17l16 74q32 10 65.5 14.5t65.5 4.5q70 0 108 -26.5t38 -69.5q0 -45 -25.5 -76t-90.5 -47v-2
q83 -12 83 -83q0 -33 -17 -61t-46.5 -48.5t-69.5 -31.5t-87 -11z" />
    <glyph glyph-name="four.denominator" unicode="&#xf659;" horiz-adv-x="410" 
d="M218 162l44 191h-2l-179 -191h137zM202 92h-225l15 67l265 278h115l-64 -275h55l-16 -70h-55l-21 -91h-90z" />
    <glyph glyph-name="five.denominator" unicode="&#xf65a;" horiz-adv-x="410" 
d="M115 -9q-27 0 -60.5 6t-55.5 17l18 74q32 -17 55.5 -22t52.5 -5q54 0 81.5 26t27.5 65q0 26 -20 43t-61 17q-30 0 -54 -4.5t-47 -11.5l67 241h251l-16 -70h-184l-27 -94q8 2 24 3.5t35 1.5q56 0 91.5 -30t35.5 -82q0 -41 -15.5 -73.5t-44 -55t-68 -34.5t-86.5 -12z" />
    <glyph glyph-name="six.denominator" unicode="&#xf65b;" horiz-adv-x="410" 
d="M164 61q45 0 70 27.5t25 69.5q0 26 -18.5 42.5t-48.5 16.5q-43 0 -68 -25t-25 -68q0 -29 18 -46t47 -17zM152 -9q-64 0 -101.5 39.5t-37.5 111.5q0 59 16 114t49 97.5t82.5 68t117.5 25.5q23 0 46.5 -5t42.5 -13l-16 -72q-21 11 -43 15.5t-42 4.5q-63 0 -104.5 -36.5
t-56.5 -103.5q20 23 51.5 34.5t69.5 11.5q55 0 89 -32t34 -83q0 -40 -14.5 -72.5t-40.5 -56t-62 -36t-80 -12.5z" />
    <glyph glyph-name="seven.denominator" unicode="&#xf65c;" horiz-adv-x="410" 
d="M282 365h-211l17 72h304l-13 -56l-253 -380h-93z" />
    <glyph glyph-name="eight.denominator" unicode="&#xf65d;" horiz-adv-x="410" 
d="M207 257q34 16 54.5 36.5t20.5 43.5q0 17 -14 28.5t-43 11.5q-37 0 -55.5 -18t-18.5 -40q0 -20 16.5 -36t39.5 -26zM183 201q-15 -6 -31 -13t-28.5 -17.5t-21 -23.5t-8.5 -31q0 -20 15 -37.5t50 -17.5q38 0 63.5 18t25.5 52q0 26 -20.5 44t-44.5 26zM267 232
q72 -32 72 -95q0 -33 -14.5 -60t-40 -46t-61 -29.5t-78.5 -10.5q-64 0 -104 30t-40 79q0 25 10 45.5t27 37t40.5 28t49.5 19.5q-33 17 -50 40t-17 49q0 60 51 94t132 34q63 0 98 -27.5t35 -66.5q0 -22 -9 -40.5t-24.5 -33.5t-35.5 -26.5t-41 -20.5z" />
    <glyph glyph-name="nine.denominator" unicode="&#xf65e;" horiz-adv-x="410" 
d="M219 377q-18 0 -34.5 -6t-30 -17.5t-21.5 -29t-8 -39.5q0 -28 16 -45.5t44 -17.5q17 0 34 5t31 16t23 28.5t9 43.5q0 27 -15.5 44.5t-47.5 17.5zM105 -9q-24 0 -50 5.5t-48 14.5l17 72q23 -13 49 -17.5t43 -4.5q63 0 104.5 35.5t55.5 104.5q-17 -18 -47 -31.5t-75 -13.5
q-24 0 -45.5 8t-38.5 23t-27 36.5t-10 48.5q0 39 15 71t41.5 55t62 36t76.5 13q66 0 104 -38t38 -110q0 -68 -17 -124.5t-50.5 -97.5t-83 -63.5t-114.5 -22.5z" />
    <glyph glyph-name="zero.numerator" unicode="&#xf661;" horiz-adv-x="410" 
d="M224 352q28 0 48 17.5t34 44.5t22.5 58.5t13.5 59.5t6.5 48t1.5 24q0 34 -13.5 49t-41.5 15q-24 0 -42 -13.5t-32 -35.5t-24 -49.5t-16 -55t-9 -52.5t-3 -42q0 -35 14.5 -51.5t40.5 -16.5zM206 282q-62 0 -95.5 34.5t-33.5 100.5q0 20 4 52t13.5 67.5t26.5 71.5t43 65
t62.5 47t85.5 18q130 0 130 -130q0 -18 -3.5 -48.5t-13 -67t-26 -74t-42.5 -67.5t-63.5 -49.5t-87.5 -19.5z" />
    <glyph glyph-name="one.numerator" unicode="&#xf662;" horiz-adv-x="410" 
d="M271 627l-101 -57l-28 63l172 95h70l-101 -436h-90z" />
    <glyph glyph-name="two.numerator" unicode="&#xf663;" horiz-adv-x="410" 
d="M71 371l116 75q53 34 83.5 57.5t45.5 41.5t19 32.5t4 31.5q0 26 -20 42.5t-58 16.5q-26 0 -57 -6.5t-64 -20.5l16 74q37 14 69.5 18.5t65.5 4.5q70 0 107.5 -30.5t37.5 -77.5q0 -27 -8 -51t-32.5 -51.5t-69 -60.5t-116.5 -78l-40 -25l-1 -2h215l-16 -70h-315z" />
    <glyph glyph-name="three.numerator" unicode="&#xf664;" horiz-adv-x="410" 
d="M171 282q-34 0 -68 6t-57 16l17 72q20 -10 51.5 -17t64.5 -7q123 0 123 82q0 54 -99 54h-55l15 62h50q62 0 89.5 20t27.5 49q0 23 -23.5 36t-63.5 13q-31 0 -58 -6t-54 -17l16 74q32 10 65.5 14.5t65.5 4.5q70 0 108 -26.5t38 -69.5q0 -45 -25.5 -76t-90.5 -47v-2
q83 -12 83 -83q0 -33 -17 -61t-46.5 -48.5t-69.5 -31.5t-87 -11z" />
    <glyph glyph-name="four.numerator" unicode="&#xf665;" horiz-adv-x="410" 
d="M285 453l44 191h-2l-179 -191h137zM269 383h-225l15 67l265 278h115l-64 -275h55l-16 -70h-55l-21 -91h-90z" />
    <glyph glyph-name="five.numerator" unicode="&#xf666;" horiz-adv-x="410" 
d="M182 282q-27 0 -60.5 6t-55.5 17l18 74q32 -17 55.5 -22t52.5 -5q54 0 81.5 26t27.5 65q0 26 -20 43t-61 17q-30 0 -54 -4.5t-47 -11.5l67 241h251l-16 -70h-184l-27 -94q8 2 24 3.5t35 1.5q56 0 91.5 -30t35.5 -82q0 -41 -15.5 -73.5t-44 -55t-68 -34.5t-86.5 -12z" />
    <glyph glyph-name="six.numerator" unicode="&#xf667;" horiz-adv-x="410" 
d="M231 352q45 0 70 27.5t25 69.5q0 26 -18.5 42.5t-48.5 16.5q-43 0 -68 -25t-25 -68q0 -29 18 -46t47 -17zM219 282q-64 0 -101.5 39.5t-37.5 111.5q0 59 16 114t49 97.5t82.5 68t117.5 25.5q23 0 46.5 -5t42.5 -13l-16 -72q-21 11 -43 15.5t-42 4.5q-63 0 -104.5 -36.5
t-56.5 -103.5q20 23 51.5 34.5t69.5 11.5q55 0 89 -32t34 -83q0 -40 -14.5 -72.5t-40.5 -56t-62 -36t-80 -12.5z" />
    <glyph glyph-name="seven.numerator" unicode="&#xf668;" horiz-adv-x="410" 
d="M349 656h-211l17 72h304l-13 -56l-253 -380h-93z" />
    <glyph glyph-name="eight.numerator" unicode="&#xf669;" horiz-adv-x="410" 
d="M272 548q34 16 54.5 36.5t20.5 43.5q0 17 -14 28.5t-43 11.5q-37 0 -55.5 -18t-18.5 -40q0 -20 16.5 -36t39.5 -26zM248 492q-15 -6 -31 -13t-28.5 -17.5t-21 -23.5t-8.5 -31q0 -20 15 -37.5t50 -17.5q38 0 63.5 18t25.5 52q0 26 -20.5 44t-44.5 26zM332 523
q72 -32 72 -95q0 -33 -14.5 -60t-40 -46t-61 -29.5t-78.5 -10.5q-64 0 -104 30t-40 79q0 25 10 45.5t27 37t40.5 28t49.5 19.5q-33 17 -50 40t-17 49q0 60 51 94t132 34q63 0 98 -27.5t35 -66.5q0 -22 -9 -40.5t-24.5 -33.5t-35.5 -26.5t-41 -20.5z" />
    <glyph glyph-name="nine.numerator" unicode="&#xf66a;" horiz-adv-x="410" 
d="M283 668q-18 0 -34.5 -6t-30 -17.5t-21.5 -29t-8 -39.5q0 -28 16 -45.5t44 -17.5q17 0 34 5t31 16t23 28.5t9 43.5q0 27 -15.5 44.5t-47.5 17.5zM169 282q-24 0 -50 5.5t-48 14.5l17 72q23 -13 49 -17.5t43 -4.5q63 0 104.5 35.5t55.5 104.5q-17 -18 -47 -31.5t-75 -13.5
q-24 0 -45.5 8t-38.5 23t-27 36.5t-10 48.5q0 39 15 71t41.5 55t62 36t76.5 13q66 0 104 -38t38 -110q0 -68 -17 -124.5t-50.5 -97.5t-83 -63.5t-114.5 -22.5z" />
    <glyph glyph-name="uniF6BA" unicode="&#xf6ba;" horiz-adv-x="540" 
d="M456 330h-350l18 80h350z" />
    <glyph glyph-name="uniF6BB" unicode="&#xf6bb;" horiz-adv-x="720" 
d="M89 410h600l-18 -80h-600z" />
    <glyph glyph-name="uniF6BC" unicode="&#xf6bc;" horiz-adv-x="900" 
d="M89 410h780l-18 -80h-780z" />
    <glyph glyph-name="uniF6C3" unicode="&#xf6c3;" horiz-adv-x="200" 
d="M-7 -190q39 -2 60 10.5t26 32.5q-15 -4 -30 -4q-26 0 -40 12t-14 31q0 26 20.5 42t60.5 16q35 0 56 -18t21 -45q0 -58 -46.5 -94t-125.5 -33z" />
    <glyph glyph-name="uniF6C9" unicode="&#xf6c9;" horiz-adv-x="260" 
d="M108 790h-88l86 140h134z" />
    <glyph glyph-name="uniF6CA" unicode="&#xf6ca;" horiz-adv-x="392" 
d="M369 790h-110l-88 140h90l62 -81l100 81h98z" />
    <glyph glyph-name="uniF6CB" unicode="&#xf6cb;" horiz-adv-x="390" 
d="M370 860q0 -26 -16 -42t-42 -16t-42 16t-16 42t16 42t42 16t42 -16t16 -42zM136 860q0 -26 -16 -42t-42 -16t-42 16t-16 42t16 42t42 16t42 -16t16 -42z" />
    <glyph glyph-name="uniF6CE" unicode="&#xf6ce;" horiz-adv-x="260" 
d="M240 790h-88l-132 140h134z" />
    <glyph glyph-name="uniF6CF" unicode="&#xf6cf;" horiz-adv-x="461" 
d="M440 930l-142 -140h-88l96 140h134zM250 930l-142 -140h-88l96 140h134z" />
    <glyph glyph-name="uniF6D0" unicode="&#xf6d0;" horiz-adv-x="370" 
d="M162 897h330l-17 -74h-330z" />
    <glyph glyph-name="uniF6D1" unicode="&#xf6d1;" horiz-adv-x="380" 
d="M507 921q-22 -66 -73 -99.5t-127 -33.5q-38 0 -64.5 10t-43.5 28t-24.5 42t-7.5 53l80 11q-2 -35 16.5 -53.5t59.5 -18.5q42 0 69.5 17t41.5 55z" />
    <glyph glyph-name="uniF6D4" unicode="&#xf6d4;" horiz-adv-x="390" 
d="M482 765q-20 -67 -75.5 -103.5t-132.5 -36.5q-32 0 -59 9.5t-46 27.5t-29 44t-8 59l79 10q-2 -37 18.5 -57.5t61.5 -20.5q42 0 71.5 20t44.5 58z" />
    <glyph glyph-name="uniF730" unicode="&#xf730;" horiz-adv-x="640" 
d="M271 76q63 0 105 27.5t68 68.5t37 88.5t11 87.5q0 63 -33.5 92t-96.5 29q-62 0 -104.5 -28.5t-68 -70.5t-36.5 -89t-11 -83q0 -64 33.5 -93t95.5 -29zM252 -10q-100 0 -155.5 52t-55.5 145q0 59 20 124t61.5 119t106 89.5t153.5 35.5q106 0 159 -51.5t53 -148.5
q0 -33 -7.5 -73t-24.5 -80.5t-43.5 -78.5t-64.5 -67.5t-88.5 -47.5t-113.5 -18z" />
    <glyph glyph-name="uniF731" unicode="&#xf731;" horiz-adv-x="400" 
d="M238 426l-131 -72l-32 76l209 115h78l-126 -545h-96z" />
    <glyph glyph-name="uniF732" unicode="&#xf732;" horiz-adv-x="600" 
d="M27 95l217 115q67 35 108.5 60.5t64.5 46.5t31 40t8 41q0 33 -34 52t-101 19q-55 0 -104.5 -13t-93.5 -33l21 94q31 12 58.5 19.5t53.5 11.5t52 5.5t55 1.5q43 0 79.5 -9.5t63 -27.5t41.5 -43t15 -55q0 -44 -13.5 -76.5t-46 -62.5t-87.5 -61.5t-138 -73.5l-115 -58v-2
h343l-20 -86h-480z" />
    <glyph glyph-name="uniF733" unicode="&#xf733;" horiz-adv-x="555" 
d="M121 -201q-55 0 -100.5 9t-88.5 27l21 90q35 -19 78 -29.5t89 -10.5q103 0 163.5 39t60.5 112q0 53 -42.5 80.5t-130.5 27.5h-76l20 86h70q115 0 165.5 32.5t50.5 100.5q0 43 -36.5 70t-108.5 27q-44 0 -89.5 -9.5t-88.5 -26.5l21 92q45 14 92.5 22t97.5 8
q107 0 162 -44.5t55 -116.5q0 -82 -51.5 -133t-143.5 -67l-1 -2q68 -10 101.5 -46t33.5 -91q0 -56 -24.5 -101.5t-68 -78t-103 -50t-128.5 -17.5z" />
    <glyph glyph-name="uniF734" unicode="&#xf734;" horiz-adv-x="630" 
d="M371 86l85 370h-2l-358 -370h275zM351 0h-386l19 81l450 464h139l-106 -459h98l-20 -86h-98l-42 -182h-96z" />
    <glyph glyph-name="uniF735" unicode="&#xf735;" horiz-adv-x="570" 
d="M134 -191q-41 0 -87 8.5t-79 23.5l21 90q42 -20 82.5 -28t74.5 -8q57 0 99.5 13t70.5 35.5t42 54t14 67.5q0 31 -12.5 55t-35 40.5t-54 24.5t-68.5 8q-35 0 -73 -5.5t-75 -16.5l108 375h399l-20 -86h-316l-55 -193q26 5 46.5 6t43.5 1q50 0 90 -14.5t68 -40t43 -60
t15 -74.5q0 -65 -23 -116t-67 -86.5t-107.5 -54.5t-144.5 -19z" />
    <glyph glyph-name="uniF736" unicode="&#xf736;" horiz-adv-x="645" 
d="M297 76q39 0 74.5 13.5t62 38t42.5 58.5t16 75q0 53 -34.5 82t-91.5 29q-38 0 -71.5 -11t-60 -29t-43.5 -41t-23 -48q-5 -23 -5 -42q0 -27 9.5 -50t27 -39.5t42.5 -26t55 -9.5zM281 -10q-59 0 -101 19t-68.5 50.5t-39 73t-12.5 85.5q0 99 24.5 192t77.5 166t136 117
t200 44q30 0 67.5 -5.5t65.5 -17.5l-22 -92q-28 15 -64.5 22t-68.5 7q-67 0 -118.5 -22t-88.5 -60t-60.5 -89.5t-35.5 -110.5q35 38 87.5 63.5t132.5 25.5q43 0 80 -12t64.5 -35t43 -57t15.5 -78q0 -62 -23.5 -114t-65.5 -90.5t-100 -60t-126 -21.5z" />
    <glyph glyph-name="uniF737" unicode="&#xf737;" horiz-adv-x="515" 
d="M419 452h-363l20 86h469l-18 -76l-431 -651h-101z" />
    <glyph glyph-name="uniF738" unicode="&#xf738;" horiz-adv-x="650" 
d="M264 -10q-47 0 -88.5 11.5t-73 33.5t-50 54.5t-18.5 73.5q0 44 17 79t46.5 62t69 46.5t85.5 31.5q-52 26 -82.5 62t-30.5 87q0 49 20.5 87.5t58 64.5t88.5 40t113 14q44 0 84 -9.5t70 -28t47.5 -46t17.5 -62.5q0 -38 -11 -68.5t-34 -55.5t-59 -45t-85 -38
q61 -26 94.5 -63.5t33.5 -90.5q0 -57 -23.5 -101.5t-65 -75t-99 -47t-125.5 -16.5zM286 76q41 0 76 9t61 26.5t40.5 43.5t14.5 59q0 27 -13 47.5t-34 36.5t-48.5 27.5t-57.5 20.5q-33 -8 -66.5 -21t-61 -32.5t-45 -46t-17.5 -60.5q0 -45 37 -77.5t114 -32.5zM376 416
q47 19 78 36.5t49.5 35.5t26 36t7.5 38q0 43 -37 66t-105 23q-75 0 -117 -30t-42 -78q0 -24 11.5 -43.5t31 -35t45 -27.5t52.5 -21z" />
    <glyph glyph-name="uniF739" unicode="&#xf739;" horiz-adv-x="641" 
d="M143 -200q-33 0 -70.5 7t-62.5 18l21 92q25 -14 58 -22.5t78 -8.5q63 0 112.5 19.5t87 56.5t63 90t40.5 120q-32 -46 -86.5 -71.5t-134.5 -25.5q-43 0 -80 13t-64.5 38t-43.5 61t-16 82q0 57 24.5 107.5t66.5 88.5t98.5 60t120.5 22q61 0 104 -18.5t70.5 -50t40 -73.5
t12.5 -89q0 -43 -6.5 -98t-23.5 -112.5t-48 -112.5t-79.5 -98t-118 -69t-163.5 -26zM278 161q43 0 80 13.5t64 37t42.5 55.5t15.5 70q0 57 -34.5 90.5t-103.5 33.5q-42 0 -77.5 -12.5t-61.5 -36.5t-40.5 -58.5t-14.5 -77.5q0 -56 36 -85.5t94 -29.5z" />
    <glyph glyph-name="uniFEFF" unicode="&#xfeff;" horiz-adv-x="0" 
 />
    <glyph glyph-name="zero.slash" horiz-adv-x="690" 
d="M278 -10q-98 0 -151.5 55.5t-53.5 159.5q0 52 9 112t27.5 119t48 113.5t70.5 96t94 66.5t120 25q104 0 159.5 -54t55.5 -163q0 -51 -8.5 -110.5t-27 -118.5t-48 -113.5t-71.5 -96t-97.5 -66.5t-126.5 -25zM522 618q-33 33 -95 33q-44 0 -80.5 -20t-64.5 -53.5
t-48.5 -77.5t-33.5 -92.5t-19.5 -98t-6.5 -94.5v-19l360 407q-5 9 -12 15zM297 76q43 0 79.5 19.5t65 52t50 76t35.5 92t21 99t7 97.5v9l-356 -403l7 -8q32 -34 91 -34z" />
    <glyph glyph-name="zero.slash.tab" 
d="M244 -10q-98 0 -151.5 55.5t-53.5 159.5q0 52 9 112t27.5 119t48 113.5t70.5 96t94 66.5t120 25q104 0 159.5 -54t55.5 -163q0 -51 -8.5 -110.5t-27 -118.5t-48 -113.5t-71.5 -96t-97.5 -66.5t-126.5 -25zM488 618q-33 33 -95 33q-44 0 -80.5 -20t-64.5 -53.5
t-48.5 -77.5t-33.5 -92.5t-19.5 -98t-6.5 -94.5v-19l360 407q-5 9 -12 15zM263 76q43 0 79.5 19.5t65 52t50 76t35.5 92t21 99t7 97.5v9l-356 -403l7 -8q32 -34 91 -34z" />
    </font>
</defs>
</svg>
