<?xml version="1.0" standalone="no"?>
<!DOCTYPE svg PUBLIC "-//W3C//DTD SVG 1.1//EN" "http://www.w3.org/Graphics/SVG/1.1/DTD/svg11.dtd" >
<svg xmlns="http://www.w3.org/2000/svg" xmlns:xlink="http://www.w3.org/1999/xlink" version="1.1">
<metadata>
Created by FontForge 20201107 at Thu Dec 24 09:22:45 2020
 By Unknown
Copyright (c) 2020 JSC RPA RusBITech. All rights reserved.
</metadata>
<defs>
<font id="PTAstraFact" horiz-adv-x="620" >
  <font-face 
    font-family="PT Astra Fact"
    font-weight="400"
    font-stretch="normal"
    units-per-em="1000"
    panose-1="2 11 5 3 4 5 4 2 2 4"
    ascent="800"
    descent="-200"
    x-height="545"
    cap-height="727"
    bbox="-429 -240 1205 991"
    underline-thickness="50"
    underline-position="-100"
    unicode-range="U+000D-FEFF"
  />
<missing-glyph horiz-adv-x="500" 
d="M442 8v496h-384v-496h384zM50 512h400v-512h-400v512z" />
    <glyph glyph-name="fi" unicode="fi" horiz-adv-x="655" 
d="M130 465h-110v80h110v75q0 24 3 56.5t20 62.5t53.5 50.5t103.5 20.5q15 0 31.5 -1.5t33.5 -3.5v-82q-8 3 -25 5t-34 2q-35 0 -54 -10t-28 -27.5t-10.5 -41t-1.5 -51.5v-55h348v-545h-92v465h-256v-465h-92v465zM582 700q0 -25 -16.5 -41.5t-41.5 -16.5t-41.5 16.5
t-16.5 41.5t16.5 41.5t41.5 16.5t41.5 -16.5t16.5 -41.5z" />
    <glyph glyph-name="fl" unicode="fl" horiz-adv-x="655" 
d="M130 465h-110v80h110v45q0 57 17 98.5t47.5 68.5t74 40t97.5 13q21 0 49.5 -2.5t62.5 -7.5h92v-800h-92v720q-22 4 -47.5 7t-54.5 3q-31 0 -59 -5t-49 -20.5t-33.5 -45t-12.5 -78.5v-36h153v-80h-153v-465h-92v465z" />
    <glyph glyph-name=".notdef" horiz-adv-x="500" 
d="M442 8v496h-384v-496h384zM50 512h400v-512h-400v512z" />
    <glyph glyph-name=".null" horiz-adv-x="0" 
 />
    <glyph glyph-name="uni000D" unicode="&#xd;" horiz-adv-x="290" 
 />
    <glyph glyph-name="space" unicode=" " horiz-adv-x="290" 
 />
    <glyph glyph-name="exclam" unicode="!" horiz-adv-x="420" 
d="M156 727h108l-12 -517h-84zM210 -9q-34 0 -53 18.5t-19 50.5t19 50.5t53 18.5t53 -18.5t19 -50.5t-19 -50.5t-53 -18.5z" />
    <glyph glyph-name="quotedbl" unicode="&#x22;" horiz-adv-x="470" 
d="M100 727h90l-10 -250h-70zM280 727h90l-10 -250h-70z" />
    <glyph glyph-name="numbersign" unicode="#" horiz-adv-x="680" 
d="M209 511l32 216h80l-33 -216h147l33 216h80l-33 -216h105v-80h-116l-21 -135h107v-80h-119l-32 -216h-80l32 216h-147l-32 -216h-80l32 216h-104v80h117l19 135h-106v80h119zM257 296h147l20 135h-147z" />
    <glyph glyph-name="dollar" unicode="$" horiz-adv-x="580" 
d="M262 -10q-57 0 -104 12.5t-84 32.5v92q13 -9 33.5 -18t45 -16.5t53 -12t57.5 -4.5q83 0 120 31.5t37 88.5q0 31 -9 52.5t-28 37.5t-48 28.5t-69 27.5l-25 9q-41 15 -73 32.5t-53.5 41t-33 54t-11.5 72.5q0 77 50.5 124t141.5 59v103h66v-100q39 0 80 -7.5t70 -19.5v-90
q-34 15 -77 23t-89 8q-142 0 -142 -100q0 -21 7 -38t24 -32t46 -30t74 -33l26 -11q49 -20 82.5 -40.5t53.5 -45t28.5 -53.5t8.5 -65q0 -89 -52 -142t-140 -67v-104h-66v100z" />
    <glyph glyph-name="percent" unicode="%" horiz-adv-x="850" 
d="M233 381q-90 0 -134 48t-44 130q0 80 45 129t133 49q92 0 135 -47t43 -131q0 -39 -11.5 -71.5t-34 -56t-55.5 -37t-77 -13.5zM233 443q50 0 75 28t25 88q0 61 -24.5 88.5t-75.5 27.5q-45 0 -72.5 -27.5t-27.5 -88.5t28 -88.5t72 -27.5zM653 727h78l-536 -727h-78z
M617 -10q-90 0 -134 48t-44 130q0 80 45 129t133 49q92 0 135 -47t43 -131q0 -39 -11.5 -71.5t-34 -56t-55.5 -37t-77 -13.5zM617 52q50 0 75 28t25 88q0 61 -24.5 88.5t-75.5 27.5q-45 0 -72.5 -27.5t-27.5 -88.5t28 -88.5t72 -27.5z" />
    <glyph glyph-name="ampersand" unicode="&#x26;" horiz-adv-x="770" 
d="M330 441q17 8 37.5 20.5t38 29t29 36.5t11.5 44q0 48 -25 67t-66 19q-38 0 -64.5 -22.5t-26.5 -69.5q0 -37 21 -67.5t45 -56.5zM296 341q-26 -15 -46.5 -29t-35 -30.5t-22 -37t-7.5 -47.5q0 -59 39.5 -93t104.5 -34q27 0 50.5 6.5t42.5 16t33.5 21t23.5 21.5zM730 0h-132
l-63 71q-41 -42 -92.5 -61.5t-124.5 -19.5q-56 0 -99 14.5t-73 41t-45.5 63t-15.5 81.5q0 41 10.5 73t30.5 57.5t50 45t68 36.5q-15 18 -29.5 36t-25.5 38t-18 42.5t-7 48.5q0 43 15 75t41 53t62 31.5t78 10.5q36 0 70 -9t59.5 -28.5t41 -50t15.5 -74.5q0 -35 -14.5 -64.5
t-38 -53t-53 -42t-60.5 -31.5l155 -175q22 34 30 75t12 103h100q-4 -44 -10.5 -78.5t-16 -63t-22 -53t-28.5 -48.5z" />
    <glyph glyph-name="quotesingle" unicode="'" horiz-adv-x="290" 
d="M100 727h90l-10 -250h-70z" />
    <glyph glyph-name="parenleft" unicode="(" horiz-adv-x="365" 
d="M70 320q0 140 47.5 260.5t134.5 219.5h98q-41 -49 -76 -102t-60.5 -112t-39.5 -125t-14 -141q0 -71 14 -137t39.5 -126t60 -114t76.5 -103h-98q-87 99 -134.5 219.5t-47.5 260.5z" />
    <glyph glyph-name="parenright" unicode=")" horiz-adv-x="365" 
d="M205 320q0 75 -14 141t-39.5 125t-60.5 112t-76 102h98q86 -99 134 -219.5t48 -260.5t-48 -260.5t-134 -219.5h-98q41 49 76 103t60.5 114t39.5 126t14 137z" />
    <glyph glyph-name="asterisk" unicode="*" horiz-adv-x="550" 
d="M353 347l-71 123h-14l-71 -123l-75 49l98 111l-3 11l-142 30l28 86l132 -59l10 8l-15 144h90l-13 -145l8 -7l132 59l28 -86l-142 -30l-4 -12l99 -110z" />
    <glyph glyph-name="plus" unicode="+" 
d="M267 321h-207v86h207v207h86v-207h207v-86h-207v-207h-86v207z" />
    <glyph glyph-name="comma" unicode="," horiz-adv-x="310" 
d="M53 -122q45 19 73 44t35 68q-37 -1 -57.5 18.5t-20.5 51.5t19.5 50.5t53.5 18.5q36 0 59.5 -25t23.5 -79q0 -30 -8 -61t-26.5 -58.5t-48.5 -50t-73 -35.5z" />
    <glyph glyph-name="hyphen" unicode="-" horiz-adv-x="540" 
d="M445 250h-350v80h350v-80z" />
    <glyph glyph-name="period" unicode="." horiz-adv-x="310" 
d="M227 60q0 -32 -19 -50.5t-53 -18.5t-53 18.5t-19 50.5t19 50.5t53 18.5t53 -18.5t19 -50.5z" />
    <glyph glyph-name="slash" unicode="/" horiz-adv-x="495" 
d="M409 800h86l-404 -960h-86z" />
    <glyph glyph-name="zero" unicode="0" horiz-adv-x="690" 
d="M345 76q44 0 76 15t53 49.5t31 89t10 134.5q0 82 -10.5 137t-31.5 88.5t-53 47.5t-75 14q-39 0 -70.5 -14t-53.5 -47t-34 -88.5t-12 -137.5q0 -81 11.5 -136.5t33 -89t53 -48t72.5 -14.5zM345 -10q-130 0 -200 90t-70 284q0 98 18.5 168.5t53.5 116t85 67t113 21.5
q139 0 204.5 -88.5t65.5 -284.5q0 -101 -17.5 -172t-52 -116t-85 -65.5t-115.5 -20.5z" />
    <glyph glyph-name="one" unicode="1" horiz-adv-x="475" 
d="M214 615l-114 -71l-45 71l179 112h76v-727h-96v615z" />
    <glyph glyph-name="two" unicode="2" horiz-adv-x="610" 
d="M50 90l138 116q64 54 108.5 97.5t72 81t39.5 71t12 66.5q0 63 -39 96t-118 33q-48 0 -93 -12.5t-90 -35.5v90q49 23 95.5 33.5t92.5 10.5q58 0 105 -14.5t79.5 -42t50 -67t17.5 -88.5q0 -42 -14.5 -82.5t-47 -85t-85 -95.5t-129.5 -114l-72 -59v-3h358v-86h-480v90z" />
    <glyph glyph-name="three" unicode="3" horiz-adv-x="615" 
d="M262 -10q-55 0 -102.5 8.5t-94.5 25.5v90q81 -38 173 -38q91 0 141.5 35t50.5 98q0 65 -48 95.5t-150 30.5h-76v86h70q97 0 141.5 28.5t44.5 89.5q0 54 -42.5 83t-118.5 29q-44 0 -90 -9.5t-86 -26.5v90q84 32 184 32q125 0 189 -48.5t64 -141.5q0 -67 -39 -109.5
t-112 -55.5v-2q84 -11 126.5 -55t42.5 -117q0 -50 -19 -90t-54.5 -68.5t-85 -44t-109.5 -15.5z" />
    <glyph glyph-name="four" unicode="4" horiz-adv-x="670" 
d="M439 253v387h-2l-277 -387h279zM439 167h-384v80l344 480h136v-474h95v-86h-95v-167h-96v167z" />
    <glyph glyph-name="five" unicode="5" horiz-adv-x="615" 
d="M258 -10q-41 0 -84 6.5t-79 20.5v90q49 -18 81 -24.5t66 -6.5q98 0 150.5 40.5t52.5 113.5q0 143 -177 143q-35 0 -81 -6t-84 -20l22 380h399v-86h-316l-11 -193q29 6 50 8.5t47 2.5q118 0 184.5 -59t66.5 -165q0 -118 -75 -181.5t-212 -63.5z" />
    <glyph glyph-name="six" unicode="6" 
d="M330 76q70 0 112.5 38t42.5 113q0 72 -44 108.5t-111 36.5q-38 0 -69 -11t-53 -29t-34 -41t-12 -48q0 -35 11 -65t32 -53t52.5 -36t72.5 -13zM326 -10q-84 0 -137.5 31t-84.5 80t-42.5 110.5t-11.5 123.5q0 85 17 158.5t56.5 127.5t104.5 85t161 31q32 0 64 -4t62 -15
v-92q-31 12 -62.5 18.5t-66.5 6.5q-64 0 -110.5 -22t-76 -60t-43.5 -89.5t-14 -110.5q13 18 31 34.5t41.5 28.5t54 19t70.5 7q50 0 94.5 -13t78.5 -41t53.5 -71t19.5 -103q0 -56 -19.5 -100.5t-54 -75.5t-82 -47.5t-103.5 -16.5z" />
    <glyph glyph-name="seven" unicode="7" horiz-adv-x="560" 
d="M392 641h-362v86h465v-76l-281 -651h-98z" />
    <glyph glyph-name="eight" unicode="8" horiz-adv-x="650" 
d="M328 -10q-56 0 -104.5 12.5t-85 37.5t-57.5 63.5t-21 89.5q0 75 43.5 119.5t121.5 67.5q-70 31 -108 72.5t-38 109.5q0 42 17.5 74.5t50 55t78 34t101.5 11.5q51 0 95 -9.5t76.5 -30t51 -52.5t18.5 -77q0 -68 -35.5 -109t-105.5 -71q90 -29 127 -73.5t37 -117.5
q0 -48 -18.5 -86t-53 -65t-83 -41.5t-107.5 -14.5zM333 76q72 0 116.5 31.5t44.5 91.5q0 33 -15.5 56.5t-41 40t-58.5 28.5t-69 22q-30 -10 -57.5 -22.5t-49 -30t-34.5 -39.5t-13 -51q0 -55 43.5 -91t133.5 -36zM345 416q71 31 98.5 65.5t27.5 71.5q0 27 -11 45.5t-31 30
t-47.5 17t-61.5 5.5q-72 0 -108.5 -27t-36.5 -69q0 -29 14 -50t37 -37.5t54 -29t65 -22.5z" />
    <glyph glyph-name="nine" unicode="9" horiz-adv-x="655" 
d="M247 -10q-33 0 -65 4t-62 15v92q31 -12 63 -18.5t69 -6.5q63 0 108.5 19.5t75 56.5t43.5 90t14 120q-24 -41 -71 -69t-126 -28q-50 0 -95 13.5t-78.5 42t-53 72.5t-19.5 104q0 56 19.5 100.5t54 75.5t82 47.5t103.5 16.5q84 0 137.5 -28.5t84.5 -76.5t42.5 -111.5
t11.5 -133.5q0 -85 -17 -157.5t-56.5 -126t-104 -83.5t-160.5 -30zM305 351q38 0 69.5 11t53.5 29.5t34 43.5t12 53q0 74 -42.5 118.5t-125.5 44.5q-70 0 -113 -38t-43 -113q0 -72 43 -110.5t112 -38.5z" />
    <glyph glyph-name="colon" unicode=":" horiz-adv-x="310" 
d="M227 60q0 -32 -19 -50.5t-53 -18.5t-53 18.5t-19 50.5t19 50.5t53 18.5t53 -18.5t19 -50.5zM227 484q0 -32 -19 -50.5t-53 -18.5t-53 18.5t-19 50.5t19 50.5t53 18.5t53 -18.5t19 -50.5z" />
    <glyph glyph-name="semicolon" unicode=";" horiz-adv-x="310" 
d="M53 -122q45 19 73 44t35 68q-37 -1 -57.5 18.5t-20.5 51.5t19.5 50.5t53.5 18.5q36 0 59.5 -25t23.5 -79q0 -30 -8 -61t-26.5 -58.5t-48.5 -50t-73 -35.5zM227 484q0 -32 -19 -50.5t-53 -18.5t-53 18.5t-19 50.5t19 50.5t53 18.5t53 -18.5t19 -50.5z" />
    <glyph glyph-name="less" unicode="&#x3c;" 
d="M60 328v72l500 214v-90l-385 -158v-2l385 -158v-92z" />
    <glyph glyph-name="equal" unicode="=" 
d="M60 307h500v-86h-500v86zM60 507h500v-86h-500v86z" />
    <glyph glyph-name="greater" unicode="&#x3e;" 
d="M60 204l385 158v2l-385 158v92l500 -214v-72l-500 -214v90z" />
    <glyph glyph-name="question" unicode="?" horiz-adv-x="510" 
d="M258 210h-96v23q0 38 14.5 68t36.5 54.5t48 45.5t48 43t36.5 46t14.5 54q0 26 -11.5 46t-31 33.5t-45.5 20.5t-55 7q-24 0 -45 -2.5t-40.5 -8t-39.5 -14t-42 -19.5v92q50 24 99 31t81 7q51 0 93 -11.5t72.5 -34t47.5 -57t17 -79.5t-15 -77t-37.5 -57.5t-48.5 -46.5
t-48.5 -42.5t-37.5 -45.5t-15 -56v-20zM210 -9q-34 0 -53 18.5t-19 50.5t19 50.5t53 18.5t53 -18.5t19 -50.5t-19 -50.5t-53 -18.5z" />
    <glyph glyph-name="at" unicode="@" horiz-adv-x="980" 
d="M531 -146q-106 0 -189 28t-140 82t-87 132t-30 178q0 93 30.5 169.5t85 131.5t131 85.5t169.5 30.5q89 0 161.5 -24.5t124.5 -69.5t80 -108.5t28 -141.5q0 -62 -16.5 -113.5t-46.5 -88.5t-71.5 -58t-90.5 -21q-90 0 -90 70h-1q-29 -35 -65 -52.5t-83 -17.5q-35 0 -64 12
t-50 34t-32.5 52.5t-11.5 67.5q0 56 16 101.5t45 78t70.5 50t91.5 17.5q91 0 118 -61h2l14 55h76l-47 -253q-2 -7 -5 -24t-3 -25q0 -31 37 -31q29 0 53.5 15.5t42 43t27.5 65.5t10 83q0 63 -22.5 113t-64 85t-101 53.5t-133.5 18.5q-78 0 -141.5 -24t-107.5 -69t-68 -109
t-24 -143q0 -165 95 -254.5t269 -89.5q50 0 100.5 9t79.5 23v-74q-13 -7 -33 -12.5t-43 -10t-48 -7t-48 -2.5zM461 140q62 0 97.5 47t35.5 128q0 42 -26.5 66t-73.5 24q-39 0 -65 -14t-42 -36t-23 -50.5t-7 -56.5q0 -52 27 -80t77 -28z" />
    <glyph glyph-name="A" unicode="A" horiz-adv-x="690" 
d="M505 192h-323l-75 -192h-97l291 727h89l290 -727h-100zM215 278h257l-128 347h-2z" />
    <glyph glyph-name="B" unicode="B" horiz-adv-x="665" 
d="M196 415h119q46 0 78 9.5t51.5 25t28 37t8.5 45.5q0 33 -8 54t-25.5 33t-44.5 17t-65 5h-142v-226zM196 86h140q83 0 123.5 25.5t40.5 94.5t-44.5 99t-136.5 30h-123v-249zM100 0v727h252q63 0 106.5 -12t70.5 -35.5t39.5 -57.5t12.5 -78q0 -69 -35 -108.5t-105 -54.5v-3
q39 -2 68.5 -16.5t49.5 -36.5t30.5 -50.5t10.5 -59.5q0 -44 -12.5 -83t-42.5 -68.5t-80 -46.5t-125 -17h-240z" />
    <glyph glyph-name="C" unicode="C" horiz-adv-x="670" 
d="M600 16q-30 -14 -72 -20t-99 -6q-171 0 -265 91.5t-94 278.5t94.5 282t277.5 95q54 0 93 -6.5t65 -14.5v-88q-18 6 -39 10.5t-41.5 7.5t-38.5 4t-31 1q-75 0 -128 -17t-87 -52.5t-49.5 -89.5t-15.5 -128q0 -143 70 -215.5t213 -72.5q32 0 69 5.5t78 22.5v-88z" />
    <glyph glyph-name="D" unicode="D" horiz-adv-x="770" 
d="M196 86h109q82 0 138 18t91 53.5t50.5 88.5t15.5 124q0 72 -12.5 123.5t-44.5 84.5t-86 48t-136 15h-125v-555zM100 0v727h234q103 0 173.5 -23t113 -68t61 -110t18.5 -149q0 -377 -385 -377h-215z" />
    <glyph glyph-name="E" unicode="E" horiz-adv-x="595" 
d="M530 0h-430v727h430v-86h-334v-223h304v-86h-304v-246h334v-86z" />
    <glyph glyph-name="F" unicode="F" horiz-adv-x="550" 
d="M196 0h-96v727h410v-86h-314v-220h299v-86h-299v-335z" />
    <glyph glyph-name="G" unicode="G" horiz-adv-x="740" 
d="M568 290h-168v86h260v-344q-38 -20 -93 -31t-120 -11q-180 0 -278.5 91t-98.5 273q0 193 100 288t285 95q53 0 92.5 -6t65.5 -14v-90q-36 13 -82.5 18.5t-84.5 5.5q-138 0 -207 -69.5t-69 -219.5q0 -142 72 -214t218 -72q22 0 53 3.5t55 9.5v201z" />
    <glyph glyph-name="H" unicode="H" horiz-adv-x="780" 
d="M680 0h-96v335h-388v-335h-96v727h96v-306h388v306h96v-727z" />
    <glyph glyph-name="I" unicode="I" horiz-adv-x="296" 
d="M196 0h-96v727h96v-727z" />
    <glyph glyph-name="J" unicode="J" horiz-adv-x="425" 
d="M35 86q20 -5 40.5 -7.5t38.5 -2.5q64 0 89.5 26t25.5 89v536h96v-553q0 -184 -192 -184q-26 0 -54.5 3.5t-43.5 8.5v84z" />
    <glyph glyph-name="K" unicode="K" horiz-adv-x="680" 
d="M196 395l332 332h126l-353 -342l374 -385h-132l-347 365v-365h-96v727h96v-332z" />
    <glyph glyph-name="L" unicode="L" horiz-adv-x="570" 
d="M530 0h-430v727h96v-641h334v-86z" />
    <glyph glyph-name="M" unicode="M" horiz-adv-x="900" 
d="M800 0h-96v640h-2l-201 -490h-100l-203 490h-2v-640h-96v727h156l198 -480l190 480h156v-727z" />
    <glyph glyph-name="N" unicode="N" horiz-adv-x="780" 
d="M680 0h-120l-362 604h-2v-604h-96v727h130l352 -593h2v593h96v-727z" />
    <glyph glyph-name="O" unicode="O" horiz-adv-x="820" 
d="M410 76q118 0 179 74t61 214q0 147 -59.5 217t-180.5 70q-122 0 -181 -69.5t-59 -217.5q0 -139 62 -213.5t178 -74.5zM410 -10q-81 0 -144.5 25t-107 73t-66 117.5t-22.5 158.5q0 88 23 157.5t66.5 117.5t107 73t143.5 25q81 0 144 -25t106.5 -72.5t66.5 -117t23 -158.5
t-23 -158.5t-66.5 -117.5t-107 -73t-143.5 -25z" />
    <glyph glyph-name="P" unicode="P" horiz-adv-x="625" 
d="M196 354h115q47 0 79.5 9t52.5 27t28.5 45t8.5 64q0 38 -8.5 65t-28.5 44t-52.5 25t-79.5 8h-115v-287zM196 0h-96v727h220q132 0 196 -53.5t64 -172.5q0 -114 -65.5 -173.5t-203.5 -59.5h-115v-268z" />
    <glyph glyph-name="Q" unicode="Q" horiz-adv-x="820" 
d="M426 -10h-16q-81 0 -144.5 25t-107 73t-66 117.5t-22.5 158.5q0 88 23 157.5t66.5 117.5t107 73t143.5 25q81 0 144 -25t106.5 -72.5t66.5 -117t23 -158.5q0 -140 -56 -231.5t-161 -124.5l163 -138h-132zM410 76q118 0 179 74t61 214q0 148 -59.5 217.5t-180.5 69.5
q-122 0 -181 -69.5t-59 -217.5q0 -139 62 -213.5t178 -74.5z" />
    <glyph glyph-name="R" unicode="R" horiz-adv-x="660" 
d="M100 727h227q127 0 183.5 -50t56.5 -140q0 -85 -35.5 -136t-117.5 -69l206 -332h-109l-201 322h-114v-322h-96v727zM196 408h137q64 0 99 27t35 93q0 55 -33 84t-113 29h-125v-233z" />
    <glyph glyph-name="S" unicode="S" horiz-adv-x="580" 
d="M74 127q13 -9 33.5 -18t45 -16.5t53 -12t57.5 -4.5q83 0 120 31.5t37 88.5q0 31 -9 52.5t-28 37.5t-48 28.5t-69 27.5l-25 9q-41 15 -73 32.5t-53.5 41t-33 54t-11.5 72.5q0 88 66.5 137t181.5 49q47 0 88.5 -7t71.5 -20v-90q-34 15 -77 23t-89 8q-142 0 -142 -100
q0 -21 7 -38t24 -32t46 -30t74 -33l26 -11q49 -20 82.5 -40.5t53.5 -45t28.5 -53.5t8.5 -65q0 -51 -18 -91t-51 -67t-79 -41t-103 -14q-59 0 -108 12t-87 33v92z" />
    <glyph glyph-name="T" unicode="T" horiz-adv-x="590" 
d="M343 0h-96v641h-227v86h550v-86h-227v-641z" />
    <glyph glyph-name="U" unicode="U" horiz-adv-x="750" 
d="M564 727h96v-426q0 -81 -15.5 -140t-49.5 -97t-88 -56t-132 -18q-73 0 -126.5 17t-89 54.5t-52.5 96.5t-17 143v426h96v-418q0 -61 9.5 -105t31.5 -72.5t58.5 -42t89.5 -13.5q58 0 95 14t58 42.5t28.5 72.5t7.5 104v418z" />
    <glyph glyph-name="V" unicode="V" horiz-adv-x="670" 
d="M10 727h102l225 -637h2l225 637h96l-266 -727h-118z" />
    <glyph glyph-name="W" unicode="W" horiz-adv-x="960" 
d="M20 727h99l155 -619h2l144 619h120l148 -619h2l158 619h92l-189 -727h-120l-152 626h-2l-148 -626h-120z" />
    <glyph glyph-name="X" unicode="X" horiz-adv-x="650" 
d="M520 0l-197 308l-199 -308h-114l256 378l-231 349h115l175 -285l181 285h109l-230 -347l255 -380h-120z" />
    <glyph glyph-name="Y" unicode="Y" horiz-adv-x="645" 
d="M370 0h-96v300l-269 427h112l208 -336l207 336h108l-270 -427v-300z" />
    <glyph glyph-name="Z" unicode="Z" horiz-adv-x="610" 
d="M570 0h-530v86l417 555h-406v86h514v-86l-417 -555h422v-86z" />
    <glyph glyph-name="bracketleft" unicode="[" horiz-adv-x="365" 
d="M325 -160h-220v960h220v-70h-134v-820h134v-70z" />
    <glyph glyph-name="backslash" unicode="\" horiz-adv-x="520" 
d="M20 800h90l400 -960h-90z" />
    <glyph glyph-name="bracketright" unicode="]" horiz-adv-x="365" 
d="M260 -160h-220v70h134v820h-134v70h220v-960z" />
    <glyph glyph-name="asciicircum" unicode="^" horiz-adv-x="610" 
d="M545 380h-94l-147 267l-147 -267h-92l198 347h84z" />
    <glyph glyph-name="underscore" unicode="_" horiz-adv-x="500" 
d="M500 -215h-500v70h500v-70z" />
    <glyph glyph-name="grave" unicode="`" horiz-adv-x="260" 
d="M20 770h130l90 -140h-84z" />
    <glyph glyph-name="a" unicode="a" horiz-adv-x="585" 
d="M413 250q-30 3 -59 4t-46 1q-51 0 -83.5 -6.5t-51.5 -18t-26.5 -28t-7.5 -35.5q0 -40 28 -68t93 -28q74 0 113.5 39t39.5 103v37zM505 0h-88v66h-2q-13 -15 -29.5 -28.5t-38 -24t-48.5 -16.5t-62 -6q-90 0 -141 43.5t-51 124.5q0 83 58.5 124.5t179.5 41.5
q32 0 69.5 -2.5t60.5 -4.5v33q0 15 -2 36t-15 40.5t-41 33t-80 13.5q-46 0 -93 -9.5t-82 -26.5v82q38 17 87.5 25.5t100.5 8.5q81 0 125.5 -21t64.5 -54.5t23.5 -75.5t3.5 -83v-320z" />
    <glyph glyph-name="b" unicode="b" horiz-adv-x="670" 
d="M173 0h-88v800h92v-331h2q32 46 81 65.5t111 19.5q244 0 244 -278q0 -140 -62 -212.5t-187 -72.5q-130 0 -190 85h-3v-76zM351 71q90 0 130 49.5t40 160.5q0 99 -42.5 146t-123.5 47q-85 0 -131.5 -52t-46.5 -149q0 -96 46.5 -149t127.5 -53z" />
    <glyph glyph-name="c" unicode="c" horiz-adv-x="550" 
d="M495 14q-26 -11 -67 -17t-84 -6q-141 0 -215 71.5t-74 208.5q0 138 74.5 210.5t214.5 72.5q35 0 70 -4.5t71 -15.5v-82q-35 12 -69 17t-67 5q-103 0 -151.5 -48.5t-48.5 -146.5q0 -102 51.5 -155t155.5 -53q35 0 74 7t65 18v-82z" />
    <glyph glyph-name="d" unicode="d" horiz-adv-x="670" 
d="M493 800h92v-800h-88v76h-2q-32 -40 -81 -62.5t-114 -22.5q-62 0 -108 21.5t-76.5 59.5t-45.5 90t-15 113q0 129 64.5 204t192.5 75q63 0 108.5 -21.5t70.5 -63.5h2v331zM318 474q-87 0 -128 -50t-41 -147q0 -100 43.5 -153t131.5 -53q85 0 127 52.5t42 146.5
q0 93 -42.5 148.5t-132.5 55.5z" />
    <glyph glyph-name="e" unicode="e" horiz-adv-x="615" 
d="M521 28q-23 -15 -67 -26t-104 -11q-150 0 -222.5 74t-72.5 210q0 64 17.5 115.5t51 88t81.5 56t108 19.5q69 0 117 -21t78 -58t43.5 -88t13.5 -110v-29h-416q7 -92 56.5 -134.5t154.5 -42.5q58 0 95.5 11t65.5 27v-81zM471 322q0 33 -9 60.5t-28 48t-47.5 32t-68.5 11.5
q-78 0 -119 -38.5t-50 -113.5h322z" />
    <glyph glyph-name="f" unicode="f" horiz-adv-x="380" 
d="M375 465h-153v-465h-92v465h-110v80h110v75q0 16 1 36.5t6 41.5t15.5 41t30.5 36t51 25.5t76 9.5q15 0 31.5 -1.5t33.5 -3.5v-82q-8 3 -25 5t-34 2q-35 0 -54 -10t-28 -27.5t-10.5 -41t-1.5 -51.5v-55h153v-80z" />
    <glyph glyph-name="g" unicode="g" horiz-adv-x="670" 
d="M497 545h88v-520q0 -254 -272 -254q-29 0 -58.5 2.5t-57.5 7t-52 11t-42 14.5v84q26 -14 76 -26.5t115 -12.5q104 0 151.5 40.5t47.5 128.5v75h-2q-14 -22 -35 -39.5t-46.5 -30t-53 -19t-53.5 -6.5q-127 0 -187.5 69t-60.5 205q0 137 63 208.5t194 71.5q29 0 57 -6
t52 -17t43 -27t31 -37h2v78zM313 474q-83 0 -123.5 -46.5t-40.5 -145.5q0 -202 166 -202q86 0 132 52.5t46 146.5q0 93 -45 144t-135 51z" />
    <glyph glyph-name="h" unicode="h" horiz-adv-x="655" 
d="M575 0h-92v282q0 55 -7 92t-23.5 59t-43 31.5t-65.5 9.5q-86 0 -126.5 -56.5t-40.5 -165.5v-252h-92v800h92v-341h2q31 50 79 72.5t105 22.5q110 0 161 -54.5t51 -175.5v-324z" />
    <glyph glyph-name="i" unicode="i" horiz-adv-x="263" 
d="M177 0h-92v545h92v-545zM187 700q0 -25 -16.5 -41.5t-41.5 -16.5t-41.5 16.5t-16.5 41.5t16.5 41.5t41.5 16.5t41.5 -16.5t16.5 -41.5z" />
    <glyph glyph-name="j" unicode="j" horiz-adv-x="262" 
d="M-44 -149q10 -2 20.5 -3.5t22.5 -1.5q46 0 66.5 26t20.5 91v582h92v-561q0 -60 -9 -102t-29 -67.5t-52.5 -37t-79.5 -11.5q-12 0 -24 1t-28 4v80zM190 700q0 -25 -16.5 -41.5t-41.5 -16.5t-41.5 16.5t-16.5 41.5t16.5 41.5t41.5 16.5t41.5 -16.5t16.5 -41.5z" />
    <glyph glyph-name="k" unicode="k" horiz-adv-x="575" 
d="M177 315l245 230h118l-259 -236l289 -309h-120l-273 295v-295h-92v800h92v-485z" />
    <glyph glyph-name="l" unicode="l" horiz-adv-x="262" 
d="M177 0h-92v800h92v-800z" />
    <glyph glyph-name="m" unicode="m" horiz-adv-x="925" 
d="M845 0h-92v325q0 79 -22 114t-81 35q-75 0 -107 -51t-32 -148v-275h-92v325q0 76 -24 112.5t-84 36.5q-72 0 -103 -50.5t-31 -148.5v-275h-92v545h88v-81h3q53 90 163 90q116 0 150 -104q30 53 72.5 78.5t107.5 25.5q92 0 134 -51t42 -154v-349z" />
    <glyph glyph-name="n" unicode="n" horiz-adv-x="655" 
d="M575 0h-92v282q0 55 -6.5 92t-22.5 59t-43 31.5t-67 9.5q-87 0 -127 -59.5t-40 -162.5v-252h-92v545h88v-86h2q32 53 80.5 74t106.5 21q110 0 161.5 -54t51.5 -176v-324z" />
    <glyph glyph-name="o" unicode="o" horiz-adv-x="640" 
d="M319 71q89 0 130.5 49.5t41.5 152.5q0 102 -39.5 151.5t-132.5 49.5q-170 0 -170 -201q0 -104 44.5 -153t125.5 -49zM319 -9q-134 0 -199 72.5t-65 209.5q0 132 67 206.5t197 74.5q133 0 199.5 -71.5t66.5 -209.5q0 -65 -18 -117.5t-52 -89t-83.5 -56t-112.5 -19.5z" />
    <glyph glyph-name="p" unicode="p" horiz-adv-x="670" 
d="M177 -225h-92v770h88v-76h2q64 85 195 85q65 0 111.5 -19.5t76 -55t43.5 -84.5t14 -109q0 -63 -14.5 -116.5t-44.5 -93.5t-76.5 -62.5t-110.5 -22.5q-26 0 -52.5 4t-51.5 13.5t-47 26t-38 41.5h-3v-301zM354 71q88 0 127.5 54.5t39.5 157.5q0 46 -8.5 81.5t-28.5 60
t-53 37t-83 12.5q-84 0 -127.5 -55.5t-43.5 -147.5q0 -93 44.5 -146.5t132.5 -53.5z" />
    <glyph glyph-name="q" unicode="q" horiz-adv-x="670" 
d="M497 545h88v-770h-92v301h-2q-23 -34 -70.5 -59.5t-108.5 -25.5q-67 0 -115.5 20t-80 57t-46.5 89.5t-15 116.5q0 131 61 205.5t186 74.5q40 0 71 -7.5t55 -19.5t40.5 -27t26.5 -31h2v76zM317 474q-85 0 -126.5 -49t-41.5 -145q0 -105 45 -157t126 -52q45 0 77.5 16.5
t54 44.5t31.5 65t10 79t-10 78t-31 62.5t-54.5 42t-80.5 15.5z" />
    <glyph glyph-name="r" unicode="r" horiz-adv-x="410" 
d="M177 0h-92v545h88v-86h2q22 45 59.5 70t93.5 25q14 0 33.5 -1.5t33.5 -5.5v-84q-30 9 -65 9q-57 0 -88.5 -23.5t-45.5 -56.5t-16.5 -67t-2.5 -55v-270z" />
    <glyph glyph-name="s" unicode="s" horiz-adv-x="475" 
d="M61 107q35 -18 75 -27t78 -9q61 0 89 20.5t28 64.5q0 28 -20.5 44.5t-51 29t-66.5 24t-66.5 29.5t-51 45.5t-20.5 71.5q0 72 54 113t152 41q16 0 35.5 -1.5t38 -4.5t34.5 -6.5t27 -6.5v-82q-25 10 -61.5 15.5t-68.5 5.5q-61 0 -89 -16.5t-28 -48.5q0 -28 20.5 -43.5
t51 -27.5t66.5 -23t66.5 -30t51 -49.5t20.5 -79.5q0 -79 -54.5 -122t-158.5 -43q-40 0 -78.5 8.5t-72.5 23.5v84z" />
    <glyph glyph-name="t" unicode="t" horiz-adv-x="415" 
d="M379 465h-157v-297q0 -50 17.5 -73.5t69.5 -23.5q20 0 40 3.5t36 11.5v-82q-37 -13 -91 -13q-164 0 -164 159v315h-115v80h115v115l92 33v-148h157v-80z" />
    <glyph glyph-name="u" unicode="u" horiz-adv-x="655" 
d="M80 545h92v-282q0 -55 6 -92t22 -59t43 -31.5t68 -9.5q88 0 127.5 59t39.5 163v252h92v-545h-88v86h-2q-30 -51 -80 -73t-106 -22q-112 0 -163 54.5t-51 175.5v324z" />
    <glyph glyph-name="v" unicode="v" horiz-adv-x="530" 
d="M10 545h96l163 -455h2l161 455h88l-201 -545h-108z" />
    <glyph glyph-name="w" unicode="w" horiz-adv-x="800" 
d="M15 545h94l110 -447h2l128 447h107l130 -447h2l111 447h86l-146 -545h-107l-132 448h-2l-130 -448h-107z" />
    <glyph glyph-name="x" unicode="x" horiz-adv-x="540" 
d="M530 0h-111l-151 214l-149 -214h-109l207 285l-187 260h111l136 -194l131 194h103l-184 -260z" />
    <glyph glyph-name="y" unicode="y" horiz-adv-x="550" 
d="M125 -233q-20 0 -35 2t-29 6v82q25 -10 56 -10q47 0 73 25.5t47 84.5l9 25l-236 563h96l184 -456h2l160 456h88l-203 -558q-24 -65 -45.5 -107.5t-45.5 -67.5t-53 -35t-68 -10z" />
    <glyph glyph-name="z" unicode="z" horiz-adv-x="510" 
d="M470 0h-430v86l323 379h-313v80h415v-86l-323 -379h328v-80z" />
    <glyph glyph-name="braceleft" unicode="{" horiz-adv-x="365" 
d="M289 -160q-66 0 -103 39.5t-37 110.5v191q0 95 -94 104v70q94 9 94 104v191q0 71 37 110.5t103 39.5h56v-70h-43q-67 0 -67 -82v-203q0 -23 -7.5 -43.5t-20 -37t-30 -28t-38.5 -15.5v-2q21 -4 38.5 -15.5t30 -28t20 -37.5t7.5 -43v-203q0 -82 67 -82h43v-70h-56z" />
    <glyph glyph-name="bar" unicode="|" horiz-adv-x="296" 
d="M191 -155h-86v955h86v-955z" />
    <glyph glyph-name="braceright" unicode="}" horiz-adv-x="365" 
d="M20 -90h43q67 0 67 82v203q0 22 7.5 43t20 37.5t30 28t38.5 15.5v2q-21 4 -38.5 15.5t-30 28t-20 37t-7.5 43.5v203q0 82 -67 82h-43v70h56q66 0 103 -39.5t37 -110.5v-191q0 -95 94 -104v-70q-94 -9 -94 -104v-191q0 -71 -37 -110.5t-103 -39.5h-56v70z" />
    <glyph glyph-name="asciitilde" unicode="~" 
d="M555 361q-18 -34 -55.5 -56t-79.5 -22q-35 0 -65 12t-56 26t-50.5 26t-48.5 12t-49.5 -13t-47.5 -49l-38 70q18 34 55.5 56t79.5 22q35 0 65 -12t56 -26t50.5 -26t48.5 -12t49.5 13t47.5 49z" />
    <glyph glyph-name="uni00A0" unicode="&#xa0;" horiz-adv-x="300" 
 />
    <glyph glyph-name="exclamdown" unicode="&#xa1;" horiz-adv-x="420" 
d="M264.02 -181.911h-107.987l11.999 516.937h83.9893zM210.025 553.999q33.9961 0 52.9941 -18.498q18.9971 -18.4971 18.9971 -50.4932t-18.9971 -50.4941q-18.998 -18.498 -52.9941 -18.498t-52.9932 18.498q-18.998 18.498 -18.998 50.4941t18.998 50.4932
q18.9971 18.498 52.9932 18.498z" />
    <glyph glyph-name="cent" unicode="&#xa2;" horiz-adv-x="550" 
d="M283 -5q-112 15 -170 85t-58 191q0 122 58.5 193t169.5 86v112h72v-108q32 0 66.5 -5.5t63.5 -14.5v-82q-35 12 -69 17t-67 5q-103 0 -151.5 -48.5t-48.5 -146.5q0 -102 51.5 -155t155.5 -53q35 0 74 7t65 18v-82q-22 -10 -62.5 -16.5t-77.5 -6.5v-108h-72v112z" />
    <glyph glyph-name="sterling" unicode="&#xa3;" horiz-adv-x="610" 
d="M75 86h100v256h-100v76h100v66q0 253 245 253q32 0 68 -4t62 -11v-88q-34 9 -64 13t-66 4q-149 0 -149 -161v-72h184v-76h-184v-256h284v-86h-480v86z" />
    <glyph glyph-name="currency" unicode="&#xa4;" 
d="M310 211q32 0 60 12.5t49 33.5t33.5 49t12.5 60t-12.5 60.5t-33.5 49.5t-49 33t-60 12t-60 -12.5t-49 -33.5t-33.5 -49t-12.5 -60t12.5 -60t33.5 -49t49 -33.5t60 -12.5zM496 497q14 -20 27.5 -53t13.5 -78q0 -44 -14 -77t-28 -53l75 -75l-55 -55l-75 75
q-20 -14 -52.5 -28t-77.5 -14t-78 14t-52 28l-75 -75l-55 55l75 75q-14 20 -28 52.5t-14 77.5t14 77.5t28 52.5l-75 75l55 55l75 -75q20 15 53 28.5t77 13.5q47 0 79.5 -14t50.5 -28l75 75l55 -55z" />
    <glyph glyph-name="yen" unicode="&#xa5;" horiz-adv-x="640" 
d="M368 156v-156h-96v156h-152v76h152v70h-152v76h108l-198 349h112l180 -335l180 335h108l-198 -349h108v-76h-152v-70h152v-76h-152z" />
    <glyph glyph-name="brokenbar" unicode="&#xa6;" horiz-adv-x="296" 
d="M191 -160h-86v400h86v-400zM191 400h-86v400h86v-400z" />
    <glyph glyph-name="section" unicode="&#xa7;" horiz-adv-x="610" 
d="M278 -125q-45 0 -94.5 9.5t-83.5 25.5v92q47 -22 86.5 -31.5t80.5 -9.5q67 0 102 22.5t35 64.5q0 13 -4.5 23.5t-18 21t-37.5 23t-63 29.5l-65 29q-54 24 -90 59t-36 86q0 40 23 71.5t63 60.5q-32 17 -52 48t-20 76q0 37 15.5 67t44 51t69 32.5t89.5 11.5q42 0 84 -7.5
t74 -19.5v-90q-75 31 -151 31q-55 0 -90 -17t-35 -61q0 -15 5.5 -26t18.5 -21.5t35.5 -22t57.5 -26.5l56 -25q26 -12 51.5 -25.5t46 -30.5t33 -39.5t12.5 -51.5q0 -32 -19.5 -69.5t-67.5 -71.5q32 -22 51.5 -49.5t19.5 -69.5q0 -37 -16.5 -68t-46.5 -53.5t-71.5 -35.5
t-91.5 -13zM373 196q16 15 31.5 36.5t15.5 52.5q0 29 -21 52t-76 48l-78 35q-24 -17 -39.5 -38.5t-15.5 -49.5q0 -14 5 -27t17 -25.5t32.5 -25t51.5 -25.5z" />
    <glyph glyph-name="dieresis" unicode="&#xa8;" horiz-adv-x="370" 
d="M350 700q0 -25 -16 -41t-41 -16t-41 16t-16 41t16 41t41 16t41 -16t16 -41zM134 700q0 -25 -16 -41t-41 -16t-41 16t-16 41t16 41t41 16t41 -16t16 -41z" />
    <glyph glyph-name="copyright" unicode="&#xa9;" horiz-adv-x="900" 
d="M471 157q-95 0 -148.5 55t-53.5 152q0 47 13.5 85.5t39 65.5t61.5 41.5t81 14.5q30 0 59.5 -3.5t53.5 -11.5v-68q-20 8 -47 12.5t-55 4.5q-63 0 -95.5 -36.5t-32.5 -104.5q0 -66 33.5 -103.5t96.5 -37.5q25 0 53.5 5t48.5 13v-68q-23 -8 -48.5 -12t-59.5 -4zM450 -10
q-78 0 -146 29t-118.5 79.5t-79.5 118.5t-29 146t29 146t79.5 118.5t118.5 79.5t146 29t146 -29t118.5 -79.5t79.5 -118.5t29 -146t-29 -146t-79.5 -118.5t-118.5 -79.5t-146 -29zM449 52q64 0 121 24.5t99.5 67t67 99t24.5 120.5t-24.5 120.5t-67 99t-99.5 67t-121 24.5
t-120.5 -24.5t-98.5 -67t-66.5 -99t-24.5 -120.5t24.5 -120.5t66.5 -99t98.5 -67t120.5 -24.5z" />
    <glyph glyph-name="ordfeminine" unicode="&#xaa;" horiz-adv-x="400" 
d="M275 524q-36 3 -63 3q-29 0 -48.5 -3t-31 -10t-16 -17t-4.5 -24q0 -22 17 -36.5t53 -14.5q49 0 71 26t22 60v16zM355 364h-72v59h-1q-8 -12 -18.5 -23.5t-25.5 -21t-35.5 -15t-47.5 -5.5q-60 0 -92.5 29t-32.5 80q0 56 43 85t129 29q20 0 36 -0.5t37 -2.5v20q0 31 -16 48
t-66 17q-33 0 -68 -6.5t-58 -17.5v66q24 9 59.5 15.5t77.5 6.5q44 0 73 -8.5t46.5 -26.5t24.5 -45t7 -64v-219z" />
    <glyph glyph-name="guillemotleft" unicode="&#xab;" horiz-adv-x="670" 
d="M242 505h98l-152 -215l152 -215h-98l-162 215zM512 505h98l-152 -215l152 -215h-98l-162 215z" />
    <glyph glyph-name="logicalnot" unicode="&#xac;" 
d="M466 321h-406v86h500v-260h-94v174z" />
    <glyph glyph-name="uni00AD" unicode="&#xad;" horiz-adv-x="540" 
d="M445 250h-350v80h350v-80z" />
    <glyph glyph-name="registered" unicode="&#xae;" horiz-adv-x="900" 
d="M450 -10q-78 0 -146 29t-118.5 79.5t-79.5 118.5t-29 146t29 146t79.5 118.5t118.5 79.5t146 29t146 -29t118.5 -79.5t79.5 -118.5t29 -146t-29 -146t-79.5 -118.5t-118.5 -79.5t-146 -29zM449 52q64 0 121 24.5t99.5 67t67 99t24.5 120.5t-24.5 120.5t-67 99t-99.5 67
t-121 24.5t-120.5 -24.5t-98.5 -67t-66.5 -99t-24.5 -120.5t24.5 -120.5t66.5 -99t98.5 -67t120.5 -24.5zM378 394h70q11 0 23 2.5t22.5 9t17 18.5t6.5 30t-6 29t-16 17t-22 7.5t-24 1.5h-71v-115zM628 163h-86l-114 175h-49v-175h-76v402h165q13 0 34.5 -2.5t42 -13.5
t35.5 -34t15 -63q0 -42 -27 -70t-62 -34z" />
    <glyph glyph-name="macron" unicode="&#xaf;" horiz-adv-x="350" 
d="M20 737h310v-74h-310v74z" />
    <glyph glyph-name="degree" unicode="&#xb0;" horiz-adv-x="420" 
d="M360 587q0 -31 -12 -58.5t-32 -47.5t-47.5 -32t-58.5 -12t-58.5 12t-47.5 32t-32 47.5t-12 58.5t12 58.5t32 47.5t47.5 32t58.5 12t58.5 -12t47.5 -32t32 -47.5t12 -58.5zM298 587q0 37 -25.5 62.5t-62.5 25.5t-62.5 -25.5t-25.5 -62.5t25.5 -62.5t62.5 -25.5t62.5 25.5
t25.5 62.5z" />
    <glyph glyph-name="plusminus" unicode="&#xb1;" 
d="M267 396h-207v86h207v157h86v-157h207v-86h-207v-157h-86v157zM60 175h500v-86h-500v86z" />
    <glyph glyph-name="twosuperior" unicode="&#xb2;" horiz-adv-x="410" 
d="M40 443l100 75q36 27 59.5 47.5t37.5 38t20 33t6 32.5q0 71 -92 71q-27 0 -54 -6.5t-57 -20.5v72q34 14 65.5 19.5t64.5 5.5q81 0 123 -31.5t42 -91.5q0 -27 -9.5 -52t-30.5 -51.5t-56 -56.5t-86 -66l-35 -25v-2h227v-70h-325v79z" />
    <glyph glyph-name="threesuperior" unicode="&#xb3;" horiz-adv-x="410" 
d="M170 354q-34 0 -66.5 5.5t-58.5 16.5v72q23 -11 53.5 -17.5t63.5 -6.5q103 0 103 68t-110 68h-55v62h50q105 0 105 61q0 57 -90 57q-64 0 -115 -23v72q29 10 65.5 15.5t68.5 5.5q76 0 118.5 -30t42.5 -84q0 -75 -98 -101v-2q51 -7 79.5 -35.5t28.5 -72.5
q0 -60 -50.5 -95.5t-134.5 -35.5z" />
    <glyph glyph-name="acute" unicode="&#xb4;" horiz-adv-x="260" 
d="M104 630h-84l90 140h130z" />
    <glyph glyph-name="mu" unicode="&#xb5;" horiz-adv-x="660" 
d="M85 545h92v-300q0 -91 32 -132.5t101 -41.5q85 0 129 57.5t44 164.5v252h92v-545h-88v86h-2q-29 -45 -79 -70t-109 -25q-74 0 -118 38h-2v-254h-92v770z" />
    <glyph glyph-name="mu" unicode="&#x3bc;" horiz-adv-x="660" 
d="M85 545h92v-300q0 -91 32 -132.5t101 -41.5q85 0 129 57.5t44 164.5v252h92v-545h-88v86h-2q-29 -45 -79 -70t-109 -25q-74 0 -118 38h-2v-254h-92v770z" />
    <glyph glyph-name="paragraph" unicode="&#xb6;" horiz-adv-x="595" 
d="M240 371q-89 0 -137 48.5t-48 124.5q0 45 13.5 76t34.5 51.5t47 31.5t51.5 16.5t47.5 6.5t35 1h211v-952h-70v888h-113v-888h-72v596z" />
    <glyph glyph-name="periodcentered" unicode="&#xb7;" horiz-adv-x="280" 
d="M141 269q-32 0 -50.5 17.5t-18.5 47.5t18.5 47.5t50.5 17.5t49.5 -17.5t17.5 -47.5t-17.5 -47.5t-49.5 -17.5z" />
    <glyph glyph-name="cedilla" unicode="&#xb8;" horiz-adv-x="260" 
d="M20 -162q20 -9 37 -13.5t43 -4.5q25 0 40.5 12t15.5 32q0 40 -57 40q-8 0 -19.5 -0.5t-22.5 -2.5l13 99h60l-6 -46q116 -3 116 -93q0 -45 -37 -73t-93 -28q-35 0 -54 5t-36 13v60z" />
    <glyph glyph-name="onesuperior" unicode="&#xb9;" horiz-adv-x="410" 
d="M190 701l-89 -57l-41 61l150 95h70v-436h-90v337z" />
    <glyph glyph-name="ordmasculine" unicode="&#xba;" horiz-adv-x="440" 
d="M220 422q51 0 77 28.5t26 91.5t-25 91.5t-78 28.5q-48 0 -75.5 -28.5t-27.5 -91.5q0 -64 28 -92t75 -28zM220 358q-94 0 -139.5 48t-45.5 136q0 85 47 134.5t138 49.5q94 0 139.5 -48.5t45.5 -135.5q0 -85 -47 -134.5t-138 -49.5z" />
    <glyph glyph-name="guillemotright" unicode="&#xbb;" horiz-adv-x="670" 
d="M157 75h-97l152 215l-152 215h97l163 -215zM427 75h-97l152 215l-152 215h97l163 -215z" />
    <glyph glyph-name="onequarter" unicode="&#xbc;" horiz-adv-x="920" 
d="M642 747h78l-472 -767h-78zM172 629l-89 -57l-41 61l150 95h70v-436h-90v337zM714 162v200h-2l-142 -200h144zM714 92h-225v67l200 278h115v-275h55v-70h-55v-91h-90v91z" />
    <glyph glyph-name="onehalf" unicode="&#xbd;" horiz-adv-x="920" 
d="M540 80l100 75q36 27 59.5 47.5t37.5 38t20 33t6 32.5q0 71 -92 71q-27 0 -54 -6.5t-57 -20.5v72q34 14 65.5 19.5t64.5 5.5q81 0 123 -31.5t42 -91.5q0 -27 -9.5 -52t-30.5 -51.5t-56 -56.5t-86 -66l-35 -25v-2h227v-70h-325v79zM620 747h78l-472 -767h-78zM171 629
l-89 -57l-41 61l150 95h70v-436h-90v337z" />
    <glyph glyph-name="threequarters" unicode="&#xbe;" horiz-adv-x="920" 
d="M161 282q-34 0 -66.5 5.5t-58.5 16.5v72q23 -11 53.5 -17.5t63.5 -6.5q103 0 103 68t-110 68h-55v62h50q105 0 105 61q0 57 -90 57q-64 0 -115 -23v72q29 10 65.5 15.5t68.5 5.5q76 0 118.5 -30t42.5 -84q0 -75 -98 -101v-2q51 -7 79.5 -35.5t28.5 -72.5
q0 -60 -50.5 -95.5t-134.5 -35.5zM664 747h78l-472 -767h-78zM714 162v200h-2l-142 -200h144zM714 92h-225v67l200 278h115v-275h55v-70h-55v-91h-90v91z" />
    <glyph glyph-name="questiondown" unicode="&#xbf;" horiz-adv-x="510" 
d="M253.031 335.025h95.9883v-22.9971q0 -37.9951 -14.498 -67.9912q-14.498 -29.9971 -36.4951 -54.4941q-21.998 -24.4961 -47.9941 -45.4941q-25.9971 -20.9971 -47.9941 -42.9941q-21.998 -21.998 -36.4961 -45.9951t-14.498 -53.9932q0 -25.9971 11.499 -45.9941
q11.498 -19.998 30.9961 -33.4961q19.4971 -13.498 45.4941 -20.498q25.9971 -6.99902 54.9932 -6.99902q23.9971 0 44.9951 2.5q20.9971 2.5 40.4941 7.99902q19.498 5.49902 39.4961 13.998q19.9971 8.49902 41.9941 19.498v-91.9893q-49.9941 -23.9971 -98.9873 -30.9961
q-48.9941 -6.99902 -80.9902 -6.99902q-50.9941 0 -92.9893 11.499q-41.9941 11.498 -72.4912 33.9951q-30.4961 22.498 -47.4941 56.9932q-16.9971 34.4961 -16.9971 79.4902q0 44.9951 14.998 76.9912t37.4951 57.4932q22.4971 25.4961 48.4941 46.4941
q25.9971 20.9971 48.4941 42.4941q22.4971 21.498 37.4951 45.4951t14.998 55.9932v19.9971zM301.025 553.999q33.9961 0 52.9941 -18.498q18.9971 -18.4971 18.9971 -50.4932t-18.9971 -50.4941q-18.998 -18.498 -52.9941 -18.498t-52.9932 18.498
q-18.998 18.498 -18.998 50.4941t18.998 50.4932q18.9971 18.498 52.9932 18.498z" />
    <glyph glyph-name="Agrave" unicode="&#xc0;" horiz-adv-x="690" 
d="M505 192h-323l-75 -192h-97l291 727h89l290 -727h-100zM215 278h257l-128 347h-2zM405 790h-88l-132 140h134z" />
    <glyph glyph-name="Aacute" unicode="&#xc1;" horiz-adv-x="690" 
d="M505 192h-323l-75 -192h-97l291 727h89l290 -727h-100zM215 278h257l-128 347h-2zM358 790h-88l86 140h134z" />
    <glyph glyph-name="Acircumflex" unicode="&#xc2;" horiz-adv-x="690" 
d="M505 192h-323l-75 -192h-97l291 727h89l290 -727h-100zM215 278h257l-128 347h-2zM520 790h-94l-81 81l-81 -81h-94l120 140h110z" />
    <glyph glyph-name="Atilde" unicode="&#xc3;" horiz-adv-x="690" 
d="M505 192h-323l-75 -192h-97l291 727h89l290 -727h-100zM215 278h257l-128 347h-2zM525 916q-4 -49 -32 -79t-73 -30q-26 0 -47.5 8t-39 17t-32 17t-27.5 8q-11 0 -23.5 -10t-16.5 -40l-69 15q4 49 32 79t73 30q26 0 47.5 -8t39 -17t32 -17t27.5 -8q11 0 23.5 10t16.5 40z
" />
    <glyph glyph-name="Adieresis" unicode="&#xc4;" horiz-adv-x="690" 
d="M505 192h-323l-75 -192h-97l291 727h89l290 -727h-100zM215 278h257l-128 347h-2zM520 860q0 -26 -16 -42t-42 -16t-42 16t-16 42t16 42t42 16t42 -16t16 -42zM286 860q0 -26 -16 -42t-42 -16t-42 16t-16 42t16 42t42 16t42 -16t16 -42z" />
    <glyph glyph-name="Aring" unicode="&#xc5;" horiz-adv-x="690" 
d="M505 192h-323l-75 -192h-97l291 727h89l290 -727h-100zM215 278h257l-128 347h-2zM345 808q23 0 37.5 14.5t14.5 37.5t-14.5 37.5t-37.5 14.5t-37.5 -14.5t-14.5 -37.5t14.5 -37.5t37.5 -14.5zM345 752q-46 0 -77 31t-31 77t31 77t77 31t77 -31t31 -77t-31 -77t-77 -31z
" />
    <glyph glyph-name="AE" unicode="&#xc6;" horiz-adv-x="1020" 
d="M525 278v364h-4l-236 -364h240zM478 727h477v-86h-334v-223h304v-86h-304v-246h334v-86h-430v192h-290l-124 -192h-101z" />
    <glyph glyph-name="Ccedilla" unicode="&#xc7;" horiz-adv-x="670" 
d="M415 -240q-35 0 -54 5t-36 12v61q20 -9 37 -13.5t43 -4.5q25 0 40.5 12t15.5 32q0 40 -57 40q-8 0 -19.5 -0.5t-22.5 -2.5l12 91q-146 14 -225 105t-79 263q0 187 94.5 282t277.5 95q54 0 93 -6.5t65 -14.5v-88q-18 6 -39 10.5t-41.5 7.5t-38.5 4t-31 1q-75 0 -128 -17
t-87 -52.5t-49.5 -89.5t-15.5 -128q0 -143 70 -215.5t213 -72.5q32 0 69 5.5t78 22.5v-88q-29 -14 -70.5 -20t-95.5 -6l-5 -36q116 -3 116 -93q0 -45 -36.5 -73t-93.5 -28z" />
    <glyph glyph-name="Egrave" unicode="&#xc8;" horiz-adv-x="595" 
d="M530 0h-430v727h430v-86h-334v-223h304v-86h-304v-246h334v-86zM375 790h-88l-132 140h134z" />
    <glyph glyph-name="Eacute" unicode="&#xc9;" horiz-adv-x="595" 
d="M530 0h-430v727h430v-86h-334v-223h304v-86h-304v-246h334v-86zM313 790h-88l86 140h134z" />
    <glyph glyph-name="Ecircumflex" unicode="&#xca;" horiz-adv-x="595" 
d="M530 0h-430v727h430v-86h-334v-223h304v-86h-304v-246h334v-86zM490 790h-94l-81 81l-81 -81h-94l120 140h110z" />
    <glyph glyph-name="Edieresis" unicode="&#xcb;" horiz-adv-x="595" 
d="M530 0h-430v727h430v-86h-334v-223h304v-86h-304v-246h334v-86zM490 860q0 -26 -16 -42t-42 -16t-42 16t-16 42t16 42t42 16t42 -16t16 -42zM256 860q0 -26 -16 -42t-42 -16t-42 16t-16 42t16 42t42 16t42 -16t16 -42z" />
    <glyph glyph-name="Iacute" unicode="&#xcd;" horiz-adv-x="296" 
d="M196 0h-96v727h96v-727zM168 790h-88l86 140h134z" />
    <glyph glyph-name="Icircumflex" unicode="&#xce;" horiz-adv-x="296" 
d="M196 0h-96v727h96v-727zM324 790h-94l-81 81l-81 -81h-94l120 140h110z" />
    <glyph glyph-name="Igrave" unicode="&#xcc;" horiz-adv-x="296" 
d="M196 0h-96v727h96v-727zM209 790h-88l-132 140h134z" />
    <glyph glyph-name="Idieresis" unicode="&#xcf;" horiz-adv-x="296" 
d="M196 0h-96v727h96v-727zM324 860q0 -26 -16 -42t-42 -16t-42 16t-16 42t16 42t42 16t42 -16t16 -42zM90 860q0 -26 -16 -42t-42 -16t-42 16t-16 42t16 42t42 16t42 -16t16 -42z" />
    <glyph glyph-name="Eth" unicode="&#xd0;" horiz-adv-x="785" 
d="M115 332h-95v86h95v309h234q103 0 173.5 -23t113 -68t61 -110t18.5 -149q0 -377 -385 -377h-215v332zM211 418h199v-86h-199v-246h109q82 0 138 18t91 53.5t50.5 88.5t15.5 124q0 72 -12.5 123.5t-44.5 84.5t-86 48t-136 15h-125v-223z" />
    <glyph glyph-name="Ntilde" unicode="&#xd1;" horiz-adv-x="780" 
d="M680 0h-120l-362 604h-2v-604h-96v727h130l352 -593h2v593h96v-727zM570 916q-4 -49 -32 -79t-73 -30q-26 0 -47.5 8t-39 17t-32 17t-27.5 8q-11 0 -23.5 -10t-16.5 -40l-69 15q4 49 32 79t73 30q26 0 47.5 -8t39 -17t32 -17t27.5 -8q11 0 23.5 10t16.5 40z" />
    <glyph glyph-name="Ograve" unicode="&#xd2;" horiz-adv-x="820" 
d="M410 76q118 0 179 74t61 214q0 147 -59.5 217t-180.5 70q-122 0 -181 -69.5t-59 -217.5q0 -139 62 -213.5t178 -74.5zM410 -10q-81 0 -144.5 25t-107 73t-66 117.5t-22.5 158.5q0 88 23 157.5t66.5 117.5t107 73t143.5 25q81 0 144 -25t106.5 -72.5t66.5 -117t23 -158.5
t-23 -158.5t-66.5 -117.5t-107 -73t-143.5 -25zM470 790h-88l-132 140h134z" />
    <glyph glyph-name="Oacute" unicode="&#xd3;" horiz-adv-x="820" 
d="M410 76q118 0 179 74t61 214q0 147 -59.5 217t-180.5 70q-122 0 -181 -69.5t-59 -217.5q0 -139 62 -213.5t178 -74.5zM410 -10q-81 0 -144.5 25t-107 73t-66 117.5t-22.5 158.5q0 88 23 157.5t66.5 117.5t107 73t143.5 25q81 0 144 -25t106.5 -72.5t66.5 -117t23 -158.5
t-23 -158.5t-66.5 -117.5t-107 -73t-143.5 -25zM421 790h-88l86 140h134z" />
    <glyph glyph-name="Ocircumflex" unicode="&#xd4;" horiz-adv-x="820" 
d="M410 76q118 0 179 74t61 214q0 147 -59.5 217t-180.5 70q-122 0 -181 -69.5t-59 -217.5q0 -139 62 -213.5t178 -74.5zM410 -10q-81 0 -144.5 25t-107 73t-66 117.5t-22.5 158.5q0 88 23 157.5t66.5 117.5t107 73t143.5 25q81 0 144 -25t106.5 -72.5t66.5 -117t23 -158.5
t-23 -158.5t-66.5 -117.5t-107 -73t-143.5 -25zM585 790h-94l-81 81l-81 -81h-94l120 140h110z" />
    <glyph glyph-name="Otilde" unicode="&#xd5;" horiz-adv-x="820" 
d="M410 76q118 0 179 74t61 214q0 147 -59.5 217t-180.5 70q-122 0 -181 -69.5t-59 -217.5q0 -139 62 -213.5t178 -74.5zM410 -10q-81 0 -144.5 25t-107 73t-66 117.5t-22.5 158.5q0 88 23 157.5t66.5 117.5t107 73t143.5 25q81 0 144 -25t106.5 -72.5t66.5 -117t23 -158.5
t-23 -158.5t-66.5 -117.5t-107 -73t-143.5 -25zM590 916q-4 -49 -32 -79t-73 -30q-26 0 -47.5 8t-39 17t-32 17t-27.5 8q-11 0 -23.5 -10t-16.5 -40l-69 15q4 49 32 79t73 30q26 0 47.5 -8t39 -17t32 -17t27.5 -8q11 0 23.5 10t16.5 40z" />
    <glyph glyph-name="Odieresis" unicode="&#xd6;" horiz-adv-x="820" 
d="M410 76q118 0 179 74t61 214q0 147 -59.5 217t-180.5 70q-122 0 -181 -69.5t-59 -217.5q0 -139 62 -213.5t178 -74.5zM410 -10q-81 0 -144.5 25t-107 73t-66 117.5t-22.5 158.5q0 88 23 157.5t66.5 117.5t107 73t143.5 25q81 0 144 -25t106.5 -72.5t66.5 -117t23 -158.5
t-23 -158.5t-66.5 -117.5t-107 -73t-143.5 -25zM585 860q0 -26 -16 -42t-42 -16t-42 16t-16 42t16 42t42 16t42 -16t16 -42zM351 860q0 -26 -16 -42t-42 -16t-42 16t-16 42t16 42t42 16t42 -16t16 -42z" />
    <glyph glyph-name="multiply" unicode="&#xd7;" 
d="M90 202l162 162l-162 162l58 58l162 -162l162 162l58 -58l-162 -162l162 -162l-58 -58l-162 162l-162 -162z" />
    <glyph glyph-name="Oslash" unicode="&#xd8;" horiz-adv-x="820" 
d="M410 -10q-126 0 -208 59l-62 -79l-50 37l66 84q-86 98 -86 273q0 88 23 157.5t66.5 117.5t107 73t143.5 25q125 0 207 -59l63 79l50 -37l-66 -84q42 -48 64 -116t22 -156q0 -89 -23 -158.5t-66.5 -117.5t-107 -73t-143.5 -25zM562 607q-56 44 -152 44q-122 0 -181 -69.5
t-59 -217.5q0 -120 48 -194zM410 76q118 0 179 74t61 214q0 127 -46 197l-344 -438q59 -47 150 -47z" />
    <glyph glyph-name="Ugrave" unicode="&#xd9;" horiz-adv-x="750" 
d="M564 727h96v-426q0 -81 -15.5 -140t-49.5 -97t-88 -56t-132 -18q-73 0 -126.5 17t-89 54.5t-52.5 96.5t-17 143v426h96v-418q0 -61 9.5 -105t31.5 -72.5t58.5 -42t89.5 -13.5q58 0 95 14t58 42.5t28.5 72.5t7.5 104v418zM435 790h-88l-132 140h134z" />
    <glyph glyph-name="Uacute" unicode="&#xda;" horiz-adv-x="750" 
d="M564 727h96v-426q0 -81 -15.5 -140t-49.5 -97t-88 -56t-132 -18q-73 0 -126.5 17t-89 54.5t-52.5 96.5t-17 143v426h96v-418q0 -61 9.5 -105t31.5 -72.5t58.5 -42t89.5 -13.5q58 0 95 14t58 42.5t28.5 72.5t7.5 104v418zM383 790h-88l86 140h134z" />
    <glyph glyph-name="Ucircumflex" unicode="&#xdb;" horiz-adv-x="750" 
d="M564 727h96v-426q0 -81 -15.5 -140t-49.5 -97t-88 -56t-132 -18q-73 0 -126.5 17t-89 54.5t-52.5 96.5t-17 143v426h96v-418q0 -61 9.5 -105t31.5 -72.5t58.5 -42t89.5 -13.5q58 0 95 14t58 42.5t28.5 72.5t7.5 104v418zM550 790h-94l-81 81l-81 -81h-94l120 140h110z
" />
    <glyph glyph-name="Udieresis" unicode="&#xdc;" horiz-adv-x="750" 
d="M564 727h96v-426q0 -81 -15.5 -140t-49.5 -97t-88 -56t-132 -18q-73 0 -126.5 17t-89 54.5t-52.5 96.5t-17 143v426h96v-418q0 -61 9.5 -105t31.5 -72.5t58.5 -42t89.5 -13.5q58 0 95 14t58 42.5t28.5 72.5t7.5 104v418zM550 860q0 -26 -16 -42t-42 -16t-42 16t-16 42
t16 42t42 16t42 -16t16 -42zM316 860q0 -26 -16 -42t-42 -16t-42 16t-16 42t16 42t42 16t42 -16t16 -42z" />
    <glyph glyph-name="Yacute" unicode="&#xdd;" horiz-adv-x="645" 
d="M370 0h-96v300l-269 427h112l208 -336l207 336h108l-270 -427v-300zM334 790h-88l86 140h134z" />
    <glyph glyph-name="Thorn" unicode="&#xde;" horiz-adv-x="626" 
d="M197 256h118q91 0 128.5 34t37.5 100q0 69 -37.5 101.5t-128.5 32.5h-118v-268zM197 0h-96v727h96v-117h127q130 0 193.5 -52.5t63.5 -167.5q0 -109 -65 -164.5t-201 -55.5h-118v-170z" />
    <glyph glyph-name="germandbls" unicode="&#xdf;" horiz-adv-x="665" 
d="M275 84q23 -6 45 -9.5t51 -3.5q67 0 108.5 36.5t41.5 123.5q0 49 -12.5 80t-34.5 48.5t-53 24t-68 6.5h-58v80h48q27 0 51.5 6.5t43 23t29.5 43t11 67.5q0 57 -35 88.5t-101 31.5q-50 0 -82 -16t-50.5 -43t-25.5 -63t-7 -77v-531h-92v515q0 72 13 127t44 92.5t82.5 56.5
t127.5 19q40 0 79 -10t70.5 -33.5t51 -61t19.5 -92.5q0 -66 -28.5 -109t-89.5 -63v-3q43 -5 73.5 -22t50 -43.5t28.5 -62t9 -75.5q0 -53 -14.5 -97.5t-44 -77t-73.5 -51t-104 -18.5q-29 0 -55.5 2.5t-48.5 8.5v82z" />
    <glyph glyph-name="agrave" unicode="&#xe0;" horiz-adv-x="585" 
d="M413 250q-30 3 -59 4t-46 1q-51 0 -83.5 -6.5t-51.5 -18t-26.5 -28t-7.5 -35.5q0 -40 28 -68t93 -28q74 0 113.5 39t39.5 103v37zM505 0h-88v66h-2q-13 -15 -29.5 -28.5t-38 -24t-48.5 -16.5t-62 -6q-90 0 -141 43.5t-51 124.5q0 83 58.5 124.5t179.5 41.5
q32 0 69.5 -2.5t60.5 -4.5v33q0 15 -2 36t-15 40.5t-41 33t-80 13.5q-46 0 -93 -9.5t-82 -26.5v82q38 17 87.5 25.5t100.5 8.5q81 0 125.5 -21t64.5 -54.5t23.5 -75.5t3.5 -83v-320zM135 770h130l90 -140h-84z" />
    <glyph glyph-name="aacute" unicode="&#xe1;" horiz-adv-x="585" 
d="M413 250q-30 3 -59 4t-46 1q-51 0 -83.5 -6.5t-51.5 -18t-26.5 -28t-7.5 -35.5q0 -40 28 -68t93 -28q74 0 113.5 39t39.5 103v37zM505 0h-88v66h-2q-13 -15 -29.5 -28.5t-38 -24t-48.5 -16.5t-62 -6q-90 0 -141 43.5t-51 124.5q0 83 58.5 124.5t179.5 41.5
q32 0 69.5 -2.5t60.5 -4.5v33q0 15 -2 36t-15 40.5t-41 33t-80 13.5q-46 0 -93 -9.5t-82 -26.5v82q38 17 87.5 25.5t100.5 8.5q81 0 125.5 -21t64.5 -54.5t23.5 -75.5t3.5 -83v-320zM329 630h-84l90 140h130z" />
    <glyph glyph-name="acircumflex" unicode="&#xe2;" horiz-adv-x="585" 
d="M413 250q-30 3 -59 4t-46 1q-51 0 -83.5 -6.5t-51.5 -18t-26.5 -28t-7.5 -35.5q0 -40 28 -68t93 -28q74 0 113.5 39t39.5 103v37zM505 0h-88v66h-2q-13 -15 -29.5 -28.5t-38 -24t-48.5 -16.5t-62 -6q-90 0 -141 43.5t-51 124.5q0 83 58.5 124.5t179.5 41.5
q32 0 69.5 -2.5t60.5 -4.5v33q0 15 -2 36t-15 40.5t-41 33t-80 13.5q-46 0 -93 -9.5t-82 -26.5v82q38 17 87.5 25.5t100.5 8.5q81 0 125.5 -21t64.5 -54.5t23.5 -75.5t3.5 -83v-320zM470 630h-90l-85 85l-85 -85h-90l120 140h110z" />
    <glyph glyph-name="atilde" unicode="&#xe3;" horiz-adv-x="585" 
d="M413 250q-30 3 -59 4t-46 1q-51 0 -83.5 -6.5t-51.5 -18t-26.5 -28t-7.5 -35.5q0 -40 28 -68t93 -28q74 0 113.5 39t39.5 103v37zM505 0h-88v66h-2q-13 -15 -29.5 -28.5t-38 -24t-48.5 -16.5t-62 -6q-90 0 -141 43.5t-51 124.5q0 83 58.5 124.5t179.5 41.5
q32 0 69.5 -2.5t60.5 -4.5v33q0 15 -2 36t-15 40.5t-41 33t-80 13.5q-46 0 -93 -9.5t-82 -26.5v82q38 17 87.5 25.5t100.5 8.5q81 0 125.5 -21t64.5 -54.5t23.5 -75.5t3.5 -83v-320zM470 745q-4 -49 -31 -77t-69 -28q-26 0 -47.5 8t-39 17t-32 17t-27.5 8q-11 0 -23.5 -10
t-16.5 -40l-64 15q4 49 31 77t69 28q26 0 47.5 -8t39 -17t32 -17t27.5 -8q11 0 23.5 10t16.5 40z" />
    <glyph glyph-name="adieresis" unicode="&#xe4;" horiz-adv-x="585" 
d="M413 250q-30 3 -59 4t-46 1q-51 0 -83.5 -6.5t-51.5 -18t-26.5 -28t-7.5 -35.5q0 -40 28 -68t93 -28q74 0 113.5 39t39.5 103v37zM505 0h-88v66h-2q-13 -15 -29.5 -28.5t-38 -24t-48.5 -16.5t-62 -6q-90 0 -141 43.5t-51 124.5q0 83 58.5 124.5t179.5 41.5
q32 0 69.5 -2.5t60.5 -4.5v33q0 15 -2 36t-15 40.5t-41 33t-80 13.5q-46 0 -93 -9.5t-82 -26.5v82q38 17 87.5 25.5t100.5 8.5q81 0 125.5 -21t64.5 -54.5t23.5 -75.5t3.5 -83v-320zM460 700q0 -25 -16 -41t-41 -16t-41 16t-16 41t16 41t41 16t41 -16t16 -41zM244 700
q0 -25 -16 -41t-41 -16t-41 16t-16 41t16 41t41 16t41 -16t16 -41z" />
    <glyph glyph-name="aring" unicode="&#xe5;" horiz-adv-x="585" 
d="M413 250q-30 3 -59 4t-46 1q-51 0 -83.5 -6.5t-51.5 -18t-26.5 -28t-7.5 -35.5q0 -40 28 -68t93 -28q74 0 113.5 39t39.5 103v37zM505 0h-88v66h-2q-13 -15 -29.5 -28.5t-38 -24t-48.5 -16.5t-62 -6q-90 0 -141 43.5t-51 124.5q0 83 58.5 124.5t179.5 41.5
q32 0 69.5 -2.5t60.5 -4.5v33q0 15 -2 36t-15 40.5t-41 33t-80 13.5q-46 0 -93 -9.5t-82 -26.5v82q38 17 87.5 25.5t100.5 8.5q81 0 125.5 -21t64.5 -54.5t23.5 -75.5t3.5 -83v-320zM295 648q23 0 37.5 14.5t14.5 37.5t-14.5 37.5t-37.5 14.5t-37.5 -14.5t-14.5 -37.5
t14.5 -37.5t37.5 -14.5zM295 594q-23 0 -42 8t-33.5 22.5t-22.5 33.5t-8 42q0 22 8 41.5t22.5 34t33.5 22.5t42 8q22 0 41.5 -8t34 -22.5t22.5 -34t8 -41.5q0 -23 -8 -42t-22.5 -33.5t-34 -22.5t-41.5 -8z" />
    <glyph glyph-name="ae" unicode="&#xe6;" horiz-adv-x="970" 
d="M876 28q-23 -15 -67 -26t-104 -11q-93 0 -153 27.5t-95 81.5q-24 -34 -51 -55t-55.5 -33t-57.5 -16.5t-57 -4.5q-89 0 -140 43.5t-51 124.5q0 83 58.5 124.5t179.5 41.5q32 0 69.5 -2.5t60.5 -4.5v33q0 15 -2 36t-15 40.5t-41 33t-80 13.5q-47 0 -93.5 -9.5t-81.5 -26.5
v82q38 17 87.5 25.5t100.5 8.5q82 0 124 -20.5t65 -63.5q34 40 81 62t110 22q69 0 117 -21t78 -58t43.5 -88t13.5 -110v-29h-416q7 -92 56.5 -134.5t154.5 -42.5q60 0 96.5 11t64.5 27v-81zM413 250q-30 3 -59 4t-46 1q-51 0 -83.5 -6.5t-51.5 -18t-26.5 -28t-7.5 -35.5
q0 -40 28 -68t93 -28q74 0 113.5 39t39.5 103v37zM826 322q0 33 -9 60.5t-28 48t-47.5 32t-68.5 11.5q-78 0 -119 -38.5t-50 -113.5h322z" />
    <glyph glyph-name="ccedilla" unicode="&#xe7;" horiz-adv-x="550" 
d="M320 -240q-35 0 -54 5t-36 12v61q20 -9 37 -13.5t43 -4.5q25 0 40.5 12t15.5 32q0 40 -57 40q-8 0 -19.5 -0.5t-22.5 -2.5l13 94q-110 16 -167.5 86t-57.5 190q0 138 74.5 210.5t214.5 72.5q35 0 70 -4.5t71 -15.5v-82q-35 12 -69 17t-67 5q-103 0 -151.5 -48.5
t-48.5 -146.5q0 -102 51.5 -155t155.5 -53q35 0 74 7t65 18v-82q-16 -7 -36 -11.5t-40.5 -7t-41 -3.5t-38.5 -1l-5 -37q116 -3 116 -93q0 -45 -36.5 -73t-93.5 -28z" />
    <glyph glyph-name="egrave" unicode="&#xe8;" horiz-adv-x="615" 
d="M521 28q-23 -15 -67 -26t-104 -11q-150 0 -222.5 74t-72.5 210q0 64 17.5 115.5t51 88t81.5 56t108 19.5q69 0 117 -21t78 -58t43.5 -88t13.5 -110v-29h-416q7 -92 56.5 -134.5t154.5 -42.5q58 0 95.5 11t65.5 27v-81zM471 322q0 33 -9 60.5t-28 48t-47.5 32t-68.5 11.5
q-78 0 -119 -38.5t-50 -113.5h322zM150 770h130l90 -140h-84z" />
    <glyph glyph-name="eacute" unicode="&#xe9;" horiz-adv-x="615" 
d="M521 28q-23 -15 -67 -26t-104 -11q-150 0 -222.5 74t-72.5 210q0 64 17.5 115.5t51 88t81.5 56t108 19.5q69 0 117 -21t78 -58t43.5 -88t13.5 -110v-29h-416q7 -92 56.5 -134.5t154.5 -42.5q58 0 95.5 11t65.5 27v-81zM471 322q0 33 -9 60.5t-28 48t-47.5 32t-68.5 11.5
q-78 0 -119 -38.5t-50 -113.5h322zM344 630h-84l90 140h130z" />
    <glyph glyph-name="ecircumflex" unicode="&#xea;" horiz-adv-x="615" 
d="M521 28q-23 -15 -67 -26t-104 -11q-150 0 -222.5 74t-72.5 210q0 64 17.5 115.5t51 88t81.5 56t108 19.5q69 0 117 -21t78 -58t43.5 -88t13.5 -110v-29h-416q7 -92 56.5 -134.5t154.5 -42.5q58 0 95.5 11t65.5 27v-81zM471 322q0 33 -9 60.5t-28 48t-47.5 32t-68.5 11.5
q-78 0 -119 -38.5t-50 -113.5h322zM485 630h-90l-85 85l-85 -85h-90l120 140h110z" />
    <glyph glyph-name="edieresis" unicode="&#xeb;" horiz-adv-x="615" 
d="M521 28q-23 -15 -67 -26t-104 -11q-150 0 -222.5 74t-72.5 210q0 64 17.5 115.5t51 88t81.5 56t108 19.5q69 0 117 -21t78 -58t43.5 -88t13.5 -110v-29h-416q7 -92 56.5 -134.5t154.5 -42.5q58 0 95.5 11t65.5 27v-81zM471 322q0 33 -9 60.5t-28 48t-47.5 32t-68.5 11.5
q-78 0 -119 -38.5t-50 -113.5h322zM475 700q0 -25 -16 -41t-41 -16t-41 16t-16 41t16 41t41 16t41 -16t16 -41zM259 700q0 -25 -16 -41t-41 -16t-41 16t-16 41t16 41t41 16t41 -16t16 -41z" />
    <glyph glyph-name="igrave" unicode="&#xec;" horiz-adv-x="262" 
d="M177 0h-92v545h92v-545zM-28 770h130l90 -140h-84z" />
    <glyph glyph-name="iacute" unicode="&#xed;" horiz-adv-x="262" 
d="M177 0h-92v545h92v-545zM165 630h-84l90 140h130z" />
    <glyph glyph-name="icircumflex" unicode="&#xee;" horiz-adv-x="262" 
d="M177 0h-92v545h92v-545zM307 630h-90l-85 85l-85 -85h-90l120 140h110z" />
    <glyph glyph-name="idieresis" unicode="&#xef;" horiz-adv-x="262" 
d="M177 0h-92v545h92v-545zM297 700q0 -25 -16 -41t-41 -16t-41 16t-16 41t16 41t41 16t41 -16t16 -41zM81 700q0 -25 -16 -41t-41 -16t-41 16t-16 41t16 41t41 16t41 -16t16 -41z" />
    <glyph glyph-name="eth" unicode="&#xf0;" horiz-adv-x="650" 
d="M422 692q47 -45 79 -96t52 -105t28.5 -110.5t8.5 -112.5q0 -61 -17 -112t-51 -87.5t-83.5 -57t-114.5 -20.5q-133 0 -201 70t-68 207q0 66 17.5 117.5t50.5 87t80 54t106 18.5q34 0 70 -9t71 -43l3 2q-15 38 -42.5 77.5t-79.5 77.5l-131 -62l-29 54l97 46
q-39 21 -72.5 31t-67.5 17l40 74q52 -9 99.5 -27.5t98.5 -48.5l146 69l28 -55zM323 71q86 0 128.5 45.5t42.5 151.5q0 104 -40 150.5t-131 46.5q-82 0 -127 -46t-45 -151q0 -54 12.5 -91.5t35 -61t54 -34t70.5 -10.5z" />
    <glyph glyph-name="ntilde" unicode="&#xf1;" horiz-adv-x="655" 
d="M575 0h-92v282q0 55 -6.5 92t-22.5 59t-43 31.5t-67 9.5q-87 0 -127 -59.5t-40 -162.5v-252h-92v545h88v-86h2q32 53 80.5 74t106.5 21q110 0 161.5 -54t51.5 -176v-324zM505 745q-4 -49 -31 -77t-69 -28q-26 0 -47.5 8t-39 17t-32 17t-27.5 8q-11 0 -23.5 -10t-16.5 -40
l-64 15q4 49 31 77t69 28q26 0 47.5 -8t39 -17t32 -17t27.5 -8q11 0 23.5 10t16.5 40z" />
    <glyph glyph-name="ograve" unicode="&#xf2;" horiz-adv-x="640" 
d="M319 71q89 0 130.5 49.5t41.5 152.5q0 102 -39.5 151.5t-132.5 49.5q-170 0 -170 -201q0 -104 44.5 -153t125.5 -49zM319 -9q-134 0 -199 72.5t-65 209.5q0 132 67 206.5t197 74.5q133 0 199.5 -71.5t66.5 -209.5q0 -65 -18 -117.5t-52 -89t-83.5 -56t-112.5 -19.5z
M160 770h130l90 -140h-84z" />
    <glyph glyph-name="oacute" unicode="&#xf3;" horiz-adv-x="640" 
d="M319 71q89 0 130.5 49.5t41.5 152.5q0 102 -39.5 151.5t-132.5 49.5q-170 0 -170 -201q0 -104 44.5 -153t125.5 -49zM319 -9q-134 0 -199 72.5t-65 209.5q0 132 67 206.5t197 74.5q133 0 199.5 -71.5t66.5 -209.5q0 -65 -18 -117.5t-52 -89t-83.5 -56t-112.5 -19.5z
M354 630h-84l90 140h130z" />
    <glyph glyph-name="ocircumflex" unicode="&#xf4;" horiz-adv-x="640" 
d="M319 71q89 0 130.5 49.5t41.5 152.5q0 102 -39.5 151.5t-132.5 49.5q-170 0 -170 -201q0 -104 44.5 -153t125.5 -49zM319 -9q-134 0 -199 72.5t-65 209.5q0 132 67 206.5t197 74.5q133 0 199.5 -71.5t66.5 -209.5q0 -65 -18 -117.5t-52 -89t-83.5 -56t-112.5 -19.5z
M495 630h-90l-85 85l-85 -85h-90l120 140h110z" />
    <glyph glyph-name="otilde" unicode="&#xf5;" horiz-adv-x="640" 
d="M319 71q89 0 130.5 49.5t41.5 152.5q0 102 -39.5 151.5t-132.5 49.5q-170 0 -170 -201q0 -104 44.5 -153t125.5 -49zM319 -9q-134 0 -199 72.5t-65 209.5q0 132 67 206.5t197 74.5q133 0 199.5 -71.5t66.5 -209.5q0 -65 -18 -117.5t-52 -89t-83.5 -56t-112.5 -19.5z
M495 745q-4 -49 -31 -77t-69 -28q-26 0 -47.5 8t-39 17t-32 17t-27.5 8q-11 0 -23.5 -10t-16.5 -40l-64 15q4 49 31 77t69 28q26 0 47.5 -8t39 -17t32 -17t27.5 -8q11 0 23.5 10t16.5 40z" />
    <glyph glyph-name="odieresis" unicode="&#xf6;" horiz-adv-x="640" 
d="M319 71q89 0 130.5 49.5t41.5 152.5q0 102 -39.5 151.5t-132.5 49.5q-170 0 -170 -201q0 -104 44.5 -153t125.5 -49zM319 -9q-134 0 -199 72.5t-65 209.5q0 132 67 206.5t197 74.5q133 0 199.5 -71.5t66.5 -209.5q0 -65 -18 -117.5t-52 -89t-83.5 -56t-112.5 -19.5z
M485 700q0 -25 -16 -41t-41 -16t-41 16t-16 41t16 41t41 16t41 -16t16 -41zM269 700q0 -25 -16 -41t-41 -16t-41 16t-16 41t16 41t41 16t41 -16t16 -41z" />
    <glyph glyph-name="divide" unicode="&#xf7;" 
d="M310 109q-34 0 -53 18.5t-19 51.5t19 51.5t53 18.5t53 -18.5t19 -51.5t-19 -51.5t-53 -18.5zM60 407h500v-86h-500v86zM310 479q-34 0 -53 18.5t-19 51.5t19 51.5t53 18.5t53 -18.5t19 -51.5t-19 -51.5t-53 -18.5z" />
    <glyph glyph-name="oslash" unicode="&#xf8;" horiz-adv-x="640" 
d="M320 -9q-94 0 -154 36l-44 -56l-47 37l45 57q-65 71 -65 208q0 133 67 207t198 74q92 0 154 -36l44 56l47 -37l-45 -57q65 -71 65 -207q0 -65 -18 -117.5t-51.5 -89t-83 -56t-112.5 -19.5zM421 450q-39 24 -101 24q-171 0 -171 -201q0 -84 30 -132zM320 71
q88 0 129.5 49.5t41.5 152.5q0 85 -28 134l-243 -310q39 -26 100 -26z" />
    <glyph glyph-name="ugrave" unicode="&#xf9;" horiz-adv-x="655" 
d="M80 545h92v-282q0 -55 6 -92t22 -59t43 -31.5t68 -9.5q88 0 127.5 59t39.5 163v252h92v-545h-88v86h-2q-30 -51 -80 -73t-106 -22q-112 0 -163 54.5t-51 175.5v324zM165 770h130l90 -140h-84z" />
    <glyph glyph-name="uacute" unicode="&#xfa;" horiz-adv-x="655" 
d="M80 545h92v-282q0 -55 6 -92t22 -59t43 -31.5t68 -9.5q88 0 127.5 59t39.5 163v252h92v-545h-88v86h-2q-30 -51 -80 -73t-106 -22q-112 0 -163 54.5t-51 175.5v324zM359 630h-84l90 140h130z" />
    <glyph glyph-name="ucircumflex" unicode="&#xfb;" horiz-adv-x="655" 
d="M80 545h92v-282q0 -55 6 -92t22 -59t43 -31.5t68 -9.5q88 0 127.5 59t39.5 163v252h92v-545h-88v86h-2q-30 -51 -80 -73t-106 -22q-112 0 -163 54.5t-51 175.5v324zM500 630h-90l-85 85l-85 -85h-90l120 140h110z" />
    <glyph glyph-name="udieresis" unicode="&#xfc;" horiz-adv-x="655" 
d="M80 545h92v-282q0 -55 6 -92t22 -59t43 -31.5t68 -9.5q88 0 127.5 59t39.5 163v252h92v-545h-88v86h-2q-30 -51 -80 -73t-106 -22q-112 0 -163 54.5t-51 175.5v324zM490 700q0 -25 -16 -41t-41 -16t-41 16t-16 41t16 41t41 16t41 -16t16 -41zM274 700q0 -25 -16 -41
t-41 -16t-41 16t-16 41t16 41t41 16t41 -16t16 -41z" />
    <glyph glyph-name="yacute" unicode="&#xfd;" horiz-adv-x="550" 
d="M125 -233q-20 0 -35 2t-29 6v82q25 -10 56 -10q47 0 73 25.5t47 84.5l9 25l-236 563h96l184 -456h2l160 456h88l-203 -558q-24 -65 -45.5 -107.5t-45.5 -67.5t-53 -35t-68 -10zM313 630h-84l90 140h130z" />
    <glyph glyph-name="thorn" unicode="&#xfe;" horiz-adv-x="670" 
d="M177 -225h-92v1025h92v-331h2q32 42 78.5 63.5t112.5 21.5q65 0 111.5 -19.5t76 -55t43.5 -84.5t14 -109q0 -63 -14.5 -116.5t-44.5 -93.5t-76.5 -62.5t-110.5 -22.5q-26 0 -53 4t-52 13.5t-47 26t-38 41.5h-2v-301zM354 71q88 0 127.5 54.5t39.5 157.5q0 46 -8.5 81.5
t-28.5 60t-53 37t-83 12.5q-84 0 -127.5 -55.5t-43.5 -147.5q0 -93 44.5 -146.5t132.5 -53.5z" />
    <glyph glyph-name="ydieresis" unicode="&#xff;" horiz-adv-x="550" 
d="M125 -233q-20 0 -35 2t-29 6v82q25 -10 56 -10q47 0 73 25.5t47 84.5l9 25l-236 563h96l184 -456h2l160 456h88l-203 -558q-24 -65 -45.5 -107.5t-45.5 -67.5t-53 -35t-68 -10zM444 700q0 -25 -16 -41t-41 -16t-41 16t-16 41t16 41t41 16t41 -16t16 -41zM228 700
q0 -25 -16 -41t-41 -16t-41 16t-16 41t16 41t41 16t41 -16t16 -41z" />
    <glyph glyph-name="Amacron" unicode="&#x100;" horiz-adv-x="690" 
d="M505 192h-323l-75 -192h-97l291 727h89l290 -727h-100zM215 278h257l-128 347h-2zM180 897h330v-74h-330v74z" />
    <glyph glyph-name="amacron" unicode="&#x101;" horiz-adv-x="585" 
d="M413 250q-30 3 -59 4t-46 1q-51 0 -83.5 -6.5t-51.5 -18t-26.5 -28t-7.5 -35.5q0 -40 28 -68t93 -28q74 0 113.5 39t39.5 103v37zM505 0h-88v66h-2q-13 -15 -29.5 -28.5t-38 -24t-48.5 -16.5t-62 -6q-90 0 -141 43.5t-51 124.5q0 83 58.5 124.5t179.5 41.5
q32 0 69.5 -2.5t60.5 -4.5v33q0 15 -2 36t-15 40.5t-41 33t-80 13.5q-46 0 -93 -9.5t-82 -26.5v82q38 17 87.5 25.5t100.5 8.5q81 0 125.5 -21t64.5 -54.5t23.5 -75.5t3.5 -83v-320zM140 737h310v-74h-310v74z" />
    <glyph glyph-name="Abreve" unicode="&#x102;" horiz-adv-x="690" 
d="M505 192h-323l-75 -192h-97l291 727h89l290 -727h-100zM215 278h257l-128 347h-2zM515 914q-14 -60 -59 -94t-111 -34t-111 34t-59 94l74 20q22 -74 96 -74t96 74z" />
    <glyph glyph-name="abreve" unicode="&#x103;" horiz-adv-x="585" 
d="M413 250q-30 3 -59 4t-46 1q-51 0 -83.5 -6.5t-51.5 -18t-26.5 -28t-7.5 -35.5q0 -40 28 -68t93 -28q74 0 113.5 39t39.5 103v37zM505 0h-88v66h-2q-13 -15 -29.5 -28.5t-38 -24t-48.5 -16.5t-62 -6q-90 0 -141 43.5t-51 124.5q0 83 58.5 124.5t179.5 41.5
q32 0 69.5 -2.5t60.5 -4.5v33q0 15 -2 36t-15 40.5t-41 33t-80 13.5q-46 0 -93 -9.5t-82 -26.5v82q38 17 87.5 25.5t100.5 8.5q81 0 125.5 -21t64.5 -54.5t23.5 -75.5t3.5 -83v-320zM295 622q-65 0 -111.5 37.5t-58.5 99.5l73 19q18 -80 97 -80t97 80l73 -19
q-12 -62 -58.5 -99.5t-111.5 -37.5z" />
    <glyph glyph-name="Aogonek" unicode="&#x104;" horiz-adv-x="690" 
d="M593 -240q-58 0 -90.5 26t-32.5 72q0 38 25.5 76t83.5 69l-74 189h-323l-75 -192h-97l291 727h89l290 -727q-60 -31 -88 -61t-28 -64q0 -21 14 -34t44 -13q36 0 58 14v-62q-40 -20 -87 -20zM215 278h257l-129 347z" />
    <glyph glyph-name="aogonek" unicode="&#x105;" horiz-adv-x="585" 
d="M418 -240q-58 0 -90.5 26t-32.5 72q0 41 28 80.5t94 71.5v56h-2q-13 -15 -29.5 -28.5t-38 -24t-48.5 -16.5t-62 -6q-90 0 -141 43.5t-51 124.5q0 83 58.5 124.5t179.5 41.5q32 0 69.5 -2.5t60.5 -4.5v33q0 15 -2 36t-15 40.5t-41 33t-80 13.5q-46 0 -93 -9.5t-82 -26.5
v82q38 17 87.5 25.5t100.5 8.5q81 0 125.5 -21t64.5 -54.5t23.5 -75.5t3.5 -83v-320q-60 -31 -88 -61t-28 -64q0 -21 14 -34t44 -13q36 0 58 14v-62q-40 -20 -87 -20zM413 250q-30 3 -59 4t-46 1q-51 0 -83.5 -6.5t-51.5 -18t-26.5 -28t-7.5 -35.5q0 -40 28 -68t93 -28
q74 0 113.5 39t39.5 103v37z" />
    <glyph glyph-name="Cacute" unicode="&#x106;" horiz-adv-x="670" 
d="M600 16q-30 -14 -72 -20t-99 -6q-171 0 -265 91.5t-94 278.5t94.5 282t277.5 95q54 0 93 -6.5t65 -14.5v-88q-18 6 -39 10.5t-41.5 7.5t-38.5 4t-31 1q-75 0 -128 -17t-87 -52.5t-49.5 -89.5t-15.5 -128q0 -143 70 -215.5t213 -72.5q32 0 69 5.5t78 22.5v-88zM463 790
h-88l86 140h134z" />
    <glyph glyph-name="cacute" unicode="&#x107;" horiz-adv-x="550" 
d="M495 14q-26 -11 -67 -17t-84 -6q-141 0 -215 71.5t-74 208.5q0 138 74.5 210.5t214.5 72.5q35 0 70 -4.5t71 -15.5v-82q-35 12 -69 17t-67 5q-103 0 -151.5 -48.5t-48.5 -146.5q0 -102 51.5 -155t155.5 -53q35 0 74 7t65 18v-82zM364 630h-84l90 140h130z" />
    <glyph glyph-name="Ccircumflex" unicode="&#x108;" horiz-adv-x="670" 
d="M600 16q-30 -14 -72 -20t-99 -6q-171 0 -265 91.5t-94 278.5t94.5 282t277.5 95q54 0 93 -6.5t65 -14.5v-88q-18 6 -39 10.5t-41.5 7.5t-38.5 4t-31 1q-75 0 -128 -17t-87 -52.5t-49.5 -89.5t-15.5 -128q0 -143 70 -215.5t213 -72.5q32 0 69 5.5t78 22.5v-88zM600 790
h-94l-81 81l-81 -81h-94l120 140h110z" />
    <glyph glyph-name="ccircumflex" unicode="&#x109;" horiz-adv-x="550" 
d="M495 14q-26 -11 -67 -17t-84 -6q-141 0 -215 71.5t-74 208.5q0 138 74.5 210.5t214.5 72.5q35 0 70 -4.5t71 -15.5v-82q-35 12 -69 17t-67 5q-103 0 -151.5 -48.5t-48.5 -146.5q0 -102 51.5 -155t155.5 -53q35 0 74 7t65 18v-82zM505 630h-90l-85 85l-85 -85h-90l120 140
h110z" />
    <glyph glyph-name="Cdotaccent" unicode="&#x10a;" horiz-adv-x="670" 
d="M600 16q-30 -14 -72 -20t-99 -6q-171 0 -265 91.5t-94 278.5t94.5 282t277.5 95q54 0 93 -6.5t65 -14.5v-88q-18 6 -39 10.5t-41.5 7.5t-38.5 4t-31 1q-75 0 -128 -17t-87 -52.5t-49.5 -89.5t-15.5 -128q0 -143 70 -215.5t213 -72.5q32 0 69 5.5t78 22.5v-88zM425 796
q-29 0 -46.5 17.5t-17.5 46.5t17.5 46.5t46.5 17.5t46.5 -17.5t17.5 -46.5t-17.5 -46.5t-46.5 -17.5z" />
    <glyph glyph-name="cdotaccent" unicode="&#x10b;" horiz-adv-x="550" 
d="M495 14q-26 -11 -67 -17t-84 -6q-141 0 -215 71.5t-74 208.5q0 138 74.5 210.5t214.5 72.5q35 0 70 -4.5t71 -15.5v-82q-35 12 -69 17t-67 5q-103 0 -151.5 -48.5t-48.5 -146.5q0 -102 51.5 -155t155.5 -53q35 0 74 7t65 18v-82zM388 700q0 -25 -16.5 -41.5t-41.5 -16.5
t-41.5 16.5t-16.5 41.5t16.5 41.5t41.5 16.5t41.5 -16.5t16.5 -41.5z" />
    <glyph glyph-name="Ccaron" unicode="&#x10c;" horiz-adv-x="670" 
d="M600 16q-30 -14 -72 -20t-99 -6q-171 0 -265 91.5t-94 278.5t94.5 282t277.5 95q54 0 93 -6.5t65 -14.5v-88q-18 6 -39 10.5t-41.5 7.5t-38.5 4t-31 1q-75 0 -128 -17t-87 -52.5t-49.5 -89.5t-15.5 -128q0 -143 70 -215.5t213 -72.5q32 0 69 5.5t78 22.5v-88zM480 790
h-110l-120 140h94l81 -81l81 81h94z" />
    <glyph glyph-name="ccaron" unicode="&#x10d;" horiz-adv-x="550" 
d="M495 14q-26 -11 -67 -17t-84 -6q-141 0 -215 71.5t-74 208.5q0 138 74.5 210.5t214.5 72.5q35 0 70 -4.5t71 -15.5v-82q-35 12 -69 17t-67 5q-103 0 -151.5 -48.5t-48.5 -146.5q0 -102 51.5 -155t155.5 -53q35 0 74 7t65 18v-82zM385 630h-110l-120 140h90l85 -85l85 85
h90z" />
    <glyph glyph-name="Dcaron" unicode="&#x10e;" horiz-adv-x="770" 
d="M196 86h109q82 0 138 18t91 53.5t50.5 88.5t15.5 124q0 72 -12.5 123.5t-44.5 84.5t-86 48t-136 15h-125v-555zM100 0v727h234q103 0 173.5 -23t113 -68t61 -110t18.5 -149q0 -377 -385 -377h-215zM380 790h-110l-120 140h94l81 -81l81 81h94z" />
    <glyph glyph-name="dcaron" unicode="&#x10f;" horiz-adv-x="760" 
d="M493 800h92v-800h-88v76h-2q-32 -40 -81 -62.5t-114 -22.5q-62 0 -108 21.5t-76.5 59.5t-45.5 90t-15 113q0 129 64.5 204t192.5 75q63 0 108.5 -21.5t70.5 -63.5h2v331zM318 474q-87 0 -128 -50t-41 -147q0 -100 43.5 -153t131.5 -53q85 0 127 52.5t42 146.5
q0 93 -42.5 148.5t-132.5 55.5zM697 800h103l-83 -220h-72z" />
    <glyph glyph-name="Dcroat" unicode="&#x110;" horiz-adv-x="785" 
d="M115 332h-95v86h95v309h234q103 0 173.5 -23t113 -68t61 -110t18.5 -149q0 -377 -385 -377h-215v332zM211 418h199v-86h-199v-246h109q82 0 138 18t91 53.5t50.5 88.5t15.5 124q0 72 -12.5 123.5t-44.5 84.5t-86 48t-136 15h-125v-223z" />
    <glyph glyph-name="dcroat" unicode="&#x111;" horiz-adv-x="680" 
d="M300 -9q-62 0 -108 21.5t-76.5 59.5t-45.5 90t-15 113q0 129 64.5 204t192.5 75q63 0 108.5 -21.5t70.5 -63.5h2v166h-248v70h248v95h92v-95h95v-70h-95v-635h-88v76h-2q-32 -40 -81 -62.5t-114 -22.5zM324 71q85 0 127 52.5t42 146.5q0 93 -42.5 148.5t-132.5 55.5
q-87 0 -128 -50t-41 -147q0 -100 43.5 -153t131.5 -53z" />
    <glyph glyph-name="Emacron" unicode="&#x112;" horiz-adv-x="595" 
d="M530 0h-430v727h430v-86h-334v-223h304v-86h-304v-246h334v-86zM150 897h330v-74h-330v74z" />
    <glyph glyph-name="emacron" unicode="&#x113;" horiz-adv-x="615" 
d="M521 28q-23 -15 -67 -26t-104 -11q-150 0 -222.5 74t-72.5 210q0 64 17.5 115.5t51 88t81.5 56t108 19.5q69 0 117 -21t78 -58t43.5 -88t13.5 -110v-29h-416q7 -92 56.5 -134.5t154.5 -42.5q58 0 95.5 11t65.5 27v-81zM471 322q0 33 -9 60.5t-28 48t-47.5 32t-68.5 11.5
q-78 0 -119 -38.5t-50 -113.5h322zM155 737h310v-74h-310v74z" />
    <glyph glyph-name="Edotaccent" unicode="&#x116;" horiz-adv-x="595" 
d="M530 0h-430v727h430v-86h-334v-223h304v-86h-304v-246h334v-86zM315 796q-29 0 -46.5 17.5t-17.5 46.5t17.5 46.5t46.5 17.5t46.5 -17.5t17.5 -46.5t-17.5 -46.5t-46.5 -17.5z" />
    <glyph glyph-name="edotaccent" unicode="&#x117;" horiz-adv-x="615" 
d="M521 28q-23 -15 -67 -26t-104 -11q-150 0 -222.5 74t-72.5 210q0 64 17.5 115.5t51 88t81.5 56t108 19.5q69 0 117 -21t78 -58t43.5 -88t13.5 -110v-29h-416q7 -92 56.5 -134.5t154.5 -42.5q58 0 95.5 11t65.5 27v-81zM471 322q0 33 -9 60.5t-28 48t-47.5 32t-68.5 11.5
q-78 0 -119 -38.5t-50 -113.5h322zM368 700q0 -25 -16.5 -41.5t-41.5 -16.5t-41.5 16.5t-16.5 41.5t16.5 41.5t41.5 16.5t41.5 -16.5t16.5 -41.5z" />
    <glyph glyph-name="Eogonek" unicode="&#x118;" horiz-adv-x="595" 
d="M443 -240q-58 0 -90.5 26t-32.5 72q0 38 24 74.5t79 67.5h-323v727h430v-86h-334v-223h304v-86h-304v-246h334v-86q-60 -31 -88 -61t-28 -64q0 -21 14 -34t44 -13q36 0 58 14v-62q-40 -20 -87 -20z" />
    <glyph glyph-name="eogonek" unicode="&#x119;" horiz-adv-x="615" 
d="M399 -240q-58 0 -90.5 26t-32.5 72q0 35 23 69.5t71 63.5h-20q-150 0 -222.5 74t-72.5 210q0 64 17.5 115.5t51 88t81.5 56t108 19.5q69 0 117 -21t78 -58t43.5 -88t13.5 -110v-29h-416q7 -92 56.5 -134.5t154.5 -42.5q58 0 95.5 11t65.5 27v-81q-43 -26 -72 -46.5
t-46.5 -38.5t-25 -35t-7.5 -35q0 -22 13 -33.5t45 -11.5q36 0 58 14v-62q-40 -20 -87 -20zM471 322q0 33 -9 60.5t-28 48t-47.5 32t-68.5 11.5q-78 0 -119 -38.5t-50 -113.5h322z" />
    <glyph glyph-name="Ecaron" unicode="&#x11a;" horiz-adv-x="595" 
d="M530 0h-430v727h430v-86h-334v-223h304v-86h-304v-246h334v-86zM370 790h-110l-120 140h94l81 -81l81 81h94z" />
    <glyph glyph-name="ecaron" unicode="&#x11b;" horiz-adv-x="615" 
d="M521 28q-23 -15 -67 -26t-104 -11q-150 0 -222.5 74t-72.5 210q0 64 17.5 115.5t51 88t81.5 56t108 19.5q69 0 117 -21t78 -58t43.5 -88t13.5 -110v-29h-416q7 -92 56.5 -134.5t154.5 -42.5q58 0 95.5 11t65.5 27v-81zM471 322q0 33 -9 60.5t-28 48t-47.5 32t-68.5 11.5
q-78 0 -119 -38.5t-50 -113.5h322zM365 630h-110l-120 140h90l85 -85l85 85h90z" />
    <glyph glyph-name="Gcircumflex" unicode="&#x11c;" horiz-adv-x="740" 
d="M568 290h-168v86h260v-344q-38 -20 -93 -31t-120 -11q-180 0 -278.5 91t-98.5 273q0 193 100 288t285 95q53 0 92.5 -6t65.5 -14v-90q-36 13 -82.5 18.5t-84.5 5.5q-138 0 -207 -69.5t-69 -219.5q0 -142 72 -214t218 -72q22 0 53 3.5t55 9.5v201zM600 790h-94l-81 81
l-81 -81h-94l120 140h110z" />
    <glyph glyph-name="gcircumflex" unicode="&#x11d;" horiz-adv-x="670" 
d="M497 545h88v-520q0 -254 -272 -254q-29 0 -58.5 2.5t-57.5 7t-52 11t-42 14.5v84q26 -14 76 -26.5t115 -12.5q104 0 151.5 40.5t47.5 128.5v75h-2q-14 -22 -35 -39.5t-46.5 -30t-53 -19t-53.5 -6.5q-127 0 -187.5 69t-60.5 205q0 137 63 208.5t194 71.5q29 0 57 -6
t52 -17t43 -27t31 -37h2v78zM313 474q-83 0 -123.5 -46.5t-40.5 -145.5q0 -202 166 -202q86 0 132 52.5t46 146.5q0 93 -45 144t-135 51zM490 630h-90l-85 85l-85 -85h-90l120 140h110z" />
    <glyph glyph-name="Gbreve" unicode="&#x11e;" horiz-adv-x="740" 
d="M568 290h-168v86h260v-344q-38 -20 -93 -31t-120 -11q-180 0 -278.5 91t-98.5 273q0 193 100 288t285 95q53 0 92.5 -6t65.5 -14v-90q-36 13 -82.5 18.5t-84.5 5.5q-138 0 -207 -69.5t-69 -219.5q0 -142 72 -214t218 -72q22 0 53 3.5t55 9.5v201zM595 914
q-14 -60 -59 -94t-111 -34t-111 34t-59 94l74 20q22 -74 96 -74t96 74z" />
    <glyph glyph-name="gbreve" unicode="&#x11f;" horiz-adv-x="670" 
d="M497 545h88v-520q0 -254 -272 -254q-29 0 -58.5 2.5t-57.5 7t-52 11t-42 14.5v84q26 -14 76 -26.5t115 -12.5q104 0 151.5 40.5t47.5 128.5v75h-2q-14 -22 -35 -39.5t-46.5 -30t-53 -19t-53.5 -6.5q-127 0 -187.5 69t-60.5 205q0 137 63 208.5t194 71.5q29 0 57 -6
t52 -17t43 -27t31 -37h2v78zM313 474q-83 0 -123.5 -46.5t-40.5 -145.5q0 -202 166 -202q86 0 132 52.5t46 146.5q0 93 -45 144t-135 51zM315 622q-65 0 -111.5 37.5t-58.5 99.5l73 19q18 -80 97 -80t97 80l73 -19q-12 -62 -58.5 -99.5t-111.5 -37.5z" />
    <glyph glyph-name="Gdotaccent" unicode="&#x120;" horiz-adv-x="740" 
d="M568 290h-168v86h260v-344q-38 -20 -93 -31t-120 -11q-180 0 -278.5 91t-98.5 273q0 193 100 288t285 95q53 0 92.5 -6t65.5 -14v-90q-36 13 -82.5 18.5t-84.5 5.5q-138 0 -207 -69.5t-69 -219.5q0 -142 72 -214t218 -72q22 0 53 3.5t55 9.5v201zM425 796
q-29 0 -46.5 17.5t-17.5 46.5t17.5 46.5t46.5 17.5t46.5 -17.5t17.5 -46.5t-17.5 -46.5t-46.5 -17.5z" />
    <glyph glyph-name="gdotaccent" unicode="&#x121;" horiz-adv-x="670" 
d="M497 545h88v-520q0 -254 -272 -254q-29 0 -58.5 2.5t-57.5 7t-52 11t-42 14.5v84q26 -14 76 -26.5t115 -12.5q104 0 151.5 40.5t47.5 128.5v75h-2q-14 -22 -35 -39.5t-46.5 -30t-53 -19t-53.5 -6.5q-127 0 -187.5 69t-60.5 205q0 137 63 208.5t194 71.5q29 0 57 -6
t52 -17t43 -27t31 -37h2v78zM313 474q-83 0 -123.5 -46.5t-40.5 -145.5q0 -202 166 -202q86 0 132 52.5t46 146.5q0 93 -45 144t-135 51zM373 700q0 -25 -16.5 -41.5t-41.5 -16.5t-41.5 16.5t-16.5 41.5t16.5 41.5t41.5 16.5t41.5 -16.5t16.5 -41.5z" />
    <glyph glyph-name="Gcommaaccent" unicode="&#x122;" horiz-adv-x="740" 
d="M568 290h-168v86h260v-344q-38 -20 -93 -31t-120 -11q-180 0 -278.5 91t-98.5 273q0 193 100 288t285 95q53 0 92.5 -6t65.5 -14v-90q-36 13 -82.5 18.5t-84.5 5.5q-138 0 -207 -69.5t-69 -219.5q0 -142 72 -214t218 -72q22 0 53 3.5t55 9.5v201zM366 -190q37 0 57 11.5
t20 31.5q-15 -4 -32 -4q-61 0 -61 47q0 24 22.5 39t57.5 15q38 0 59 -21t21 -58q0 -54 -37.5 -82.5t-106.5 -28.5v50z" />
    <glyph glyph-name="gcommaaccent" unicode="&#x123;" horiz-adv-x="671" 
d="M497 545h88v-520q0 -254 -272 -254q-29 0 -58.5 2.5t-57.5 7t-52 11t-42 14.5v84q26 -14 76 -26.5t115 -12.5q104 0 151.5 40.5t47.5 128.5v75h-2q-14 -22 -35 -39.5t-46.5 -30t-53 -19t-53.5 -6.5q-127 0 -187.5 69t-60.5 205q0 137 63 208.5t194 71.5q29 0 57 -6
t52 -17t43 -27t31 -37h2v78zM313 474q-83 0 -123.5 -46.5t-40.5 -145.5q0 -202 166 -202q86 0 132 52.5t46 146.5q0 93 -45 144t-135 51zM379.004 744.977q-36.9951 0 -56.9922 -11.498q-19.998 -11.499 -19.998 -31.4961q14.998 3.99902 31.9961 3.99902
q60.9922 0 60.9922 -46.9941q0 -23.9971 -22.4971 -38.9951t-57.4932 -14.998q-37.9951 0 -58.9922 20.9971q-20.998 20.9971 -20.998 57.9932q0 53.9932 37.4961 82.4902q37.4951 28.4961 106.486 28.4961v-49.9941z" />
    <glyph glyph-name="Hcircumflex" unicode="&#x124;" horiz-adv-x="780" 
d="M680 0h-96v335h-388v-335h-96v727h96v-306h388v306h96v-727zM565 790h-94l-81 81l-81 -81h-94l120 140h110z" />
    <glyph glyph-name="hcircumflex" unicode="&#x125;" horiz-adv-x="655" 
d="M575 0h-92v282q0 55 -7 92t-23.5 59t-43 31.5t-65.5 9.5q-86 0 -126.5 -56.5t-40.5 -165.5v-252h-92v800h92v-341h2q31 50 79 72.5t105 22.5q110 0 161 -54.5t51 -175.5v-324zM307 850h-90l-85 85l-85 -85h-90l120 140h110z" />
    <glyph glyph-name="Hbar" unicode="&#x126;" horiz-adv-x="820" 
d="M120 531h-85v76h85v120h96v-120h388v120h96v-120h85v-76h-85v-531h-96v335h-388v-335h-96v531zM604 421v110h-388v-110h388z" />
    <glyph glyph-name="hbar" unicode="&#x127;" horiz-adv-x="675" 
d="M105 635h-105v70h105v95h92v-95h238v-70h-238v-176h2q31 50 79 72.5t105 22.5q110 0 161 -54.5t51 -175.5v-324h-92v282q0 55 -7 92t-23.5 59t-43 31.5t-65.5 9.5q-86 0 -126.5 -56.5t-40.5 -165.5v-252h-92v635z" />
    <glyph glyph-name="Imacron" unicode="&#x12a;" horiz-adv-x="296" 
d="M196 0h-96v727h96v-727zM-16 897h330v-74h-330v74z" />
    <glyph glyph-name="imacron" unicode="&#x12b;" horiz-adv-x="262" 
d="M177 0h-92v545h92v-545zM-23 737h310v-74h-310v74z" />
    <glyph glyph-name="Iogonek" unicode="&#x12e;" horiz-adv-x="296" 
d="M109 -240q-58 0 -90.5 26t-32.5 72q0 39 26.5 77.5t87.5 70.5v721h96v-727q-60 -31 -88 -61t-28 -64q0 -21 14 -34t44 -13q36 0 58 14v-62q-40 -20 -87 -20z" />
    <glyph glyph-name="iogonek" unicode="&#x12f;" horiz-adv-x="263" 
d="M90 -240q-58 0 -90.5 26t-32.5 72q0 40 27.5 79t90.5 71v537h92v-545q-60 -31 -88 -61t-28 -64q0 -21 14 -34t44 -13q36 0 58 14v-62q-40 -20 -87 -20zM187 700q0 -25 -17 -41.5t-42 -16.5t-41.5 16.5t-16.5 41.5t16.5 41.5t41.5 16.5t42 -16.5t17 -41.5z" />
    <glyph glyph-name="Idotaccent" unicode="&#x130;" horiz-adv-x="296" 
d="M196 0h-96v727h96v-727zM148 796q-29 0 -46.5 17.5t-17.5 46.5t17.5 46.5t46.5 17.5t46.5 -17.5t17.5 -46.5t-17.5 -46.5t-46.5 -17.5z" />
    <glyph glyph-name="dotlessi" unicode="&#x131;" horiz-adv-x="262" 
d="M177 0h-92v545h92v-545z" />
    <glyph glyph-name="Jcircumflex" unicode="&#x134;" horiz-adv-x="425" 
d="M35 86q20 -5 40.5 -7.5t38.5 -2.5q64 0 89.5 26t25.5 89v536h96v-553q0 -184 -192 -184q-26 0 -54.5 3.5t-43.5 8.5v84zM452 790h-94l-81 81l-81 -81h-94l120 140h110z" />
    <glyph glyph-name="jcircumflex" unicode="&#x135;" horiz-adv-x="262" 
d="M-45 -149q10 -2 20.5 -3.5t22.5 -1.5q46 0 66.5 26t20.5 91v582h92v-561q0 -60 -9 -102t-29 -67.5t-52.5 -37t-79.5 -11.5q-12 0 -24 1t-28 4v80zM307 630h-90l-85 85l-85 -85h-90l120 140h110z" />
    <glyph glyph-name="Kcommaaccent" unicode="&#x136;" horiz-adv-x="680" 
d="M196 395l332 332h126l-353 -342l374 -385h-132l-347 365v-365h-96v727h96v-332zM286 -190q37 0 57 11.5t20 31.5q-15 -4 -32 -4q-61 0 -61 47q0 24 22.5 39t57.5 15q38 0 59 -21t21 -58q0 -54 -37.5 -82.5t-106.5 -28.5v50z" />
    <glyph glyph-name="kcommaaccent" unicode="&#x137;" horiz-adv-x="575" 
d="M177 315l245 230h118l-259 -236l289 -309h-120l-273 295v-295h-92v800h92v-485zM246 -190q37 0 57 11.5t20 31.5q-15 -4 -32 -4q-61 0 -61 47q0 24 22.5 39t57.5 15q38 0 59 -21t21 -58q0 -54 -37.5 -82.5t-106.5 -28.5v50z" />
    <glyph glyph-name="Lacute" unicode="&#x139;" horiz-adv-x="570" 
d="M530 0h-430v727h96v-641h334v-86zM186 790h-88l86 140h134z" />
    <glyph glyph-name="lacute" unicode="&#x13a;" horiz-adv-x="262" 
d="M177 0h-92v800h92v-800zM165 851h-84l90 140h130z" />
    <glyph glyph-name="Lcommaaccent" unicode="&#x13b;" horiz-adv-x="570" 
d="M530 0h-430v727h96v-641h334v-86zM252 -190q37 0 57 11.5t20 31.5q-15 -4 -32 -4q-61 0 -61 47q0 24 22.5 39t57.5 15q38 0 59 -21t21 -58q0 -54 -37.5 -82.5t-106.5 -28.5v50z" />
    <glyph glyph-name="lcommaaccent" unicode="&#x13c;" horiz-adv-x="262" 
d="M177 0h-92v800h92v-800zM67 -190q37 0 57 11.5t20 31.5q-15 -4 -32 -4q-61 0 -61 47q0 24 22.5 39t57.5 15q38 0 59 -21t21 -58q0 -54 -37.5 -82.5t-106.5 -28.5v50z" />
    <glyph glyph-name="Lcaron" unicode="&#x13d;" horiz-adv-x="570" 
d="M530 0h-430v727h96v-641h334v-86zM406 727h103l-83 -220h-72z" />
    <glyph glyph-name="lcaron" unicode="&#x13e;" horiz-adv-x="350" 
d="M177 0h-92v800h92v-800zM287 800h103l-83 -220h-72z" />
    <glyph glyph-name="Ldot" unicode="&#x13f;" horiz-adv-x="571" 
d="M530 0h-430v727h96v-641h334v-86zM437 341q-32 0 -50.5 17.5t-18.5 47.5t18.5 47.5t50.5 17.5t49.5 -17.5t17.5 -47.5t-17.5 -47.5t-49.5 -17.5z" />
    <glyph glyph-name="ldot" unicode="&#x140;" horiz-adv-x="399" 
d="M177 0h-92v800h92v-800zM331 335q-32 0 -50.5 17.5t-18.5 47.5t18.5 47.5t50.5 17.5t49.5 -17.5t17.5 -47.5t-17.5 -47.5t-49.5 -17.5z" />
    <glyph glyph-name="Lslash" unicode="&#x141;" horiz-adv-x="610" 
d="M140 273l-100 -61v81l100 61v373h96v-315l174 106v-81l-174 -106v-245h334v-86h-430v273z" />
    <glyph glyph-name="lslash" unicode="&#x142;" horiz-adv-x="350" 
d="M129 365l-99 -60v75l99 60v360h92v-304l99 59v-75l-99 -59v-421h-92v365z" />
    <glyph glyph-name="Nacute" unicode="&#x143;" horiz-adv-x="780" 
d="M680 0h-120l-362 604h-2v-604h-96v727h130l352 -593h2v593h96v-727zM428 790h-88l86 140h134z" />
    <glyph glyph-name="nacute" unicode="&#x144;" horiz-adv-x="655" 
d="M575 0h-92v282q0 55 -6.5 92t-22.5 59t-43 31.5t-67 9.5q-87 0 -127 -59.5t-40 -162.5v-252h-92v545h88v-86h2q32 53 80.5 74t106.5 21q110 0 161.5 -54t51.5 -176v-324zM364 630h-84l90 140h130z" />
    <glyph glyph-name="Ncommaaccent" unicode="&#x145;" horiz-adv-x="780" 
d="M680 0h-120l-362 604h-2v-604h-96v727h130l352 -593h2v593h96v-727zM325 -190q37 0 57 11.5t20 31.5q-15 -4 -32 -4q-61 0 -61 47q0 24 22.5 39t57.5 15q38 0 59 -21t21 -58q0 -54 -37.5 -82.5t-106.5 -28.5v50z" />
    <glyph glyph-name="ncommaaccent" unicode="&#x146;" horiz-adv-x="655" 
d="M575 0h-92v282q0 55 -6.5 92t-22.5 59t-43 31.5t-67 9.5q-87 0 -127 -59.5t-40 -162.5v-252h-92v545h88v-86h2q32 53 80.5 74t106.5 21q110 0 161.5 -54t51.5 -176v-324zM266 -190q37 0 57 11.5t20 31.5q-15 -4 -32 -4q-61 0 -61 47q0 24 22.5 39t57.5 15q38 0 59 -21
t21 -58q0 -54 -37.5 -82.5t-106.5 -28.5v50z" />
    <glyph glyph-name="Ncaron" unicode="&#x147;" horiz-adv-x="780" 
d="M680 0h-120l-362 604h-2v-604h-96v727h130l352 -593h2v593h96v-727zM445 790h-110l-120 140h94l81 -81l81 81h94z" />
    <glyph glyph-name="ncaron" unicode="&#x148;" horiz-adv-x="655" 
d="M575 0h-92v282q0 55 -6.5 92t-22.5 59t-43 31.5t-67 9.5q-87 0 -127 -59.5t-40 -162.5v-252h-92v545h88v-86h2q32 53 80.5 74t106.5 21q110 0 161.5 -54t51.5 -176v-324zM385 630h-110l-120 140h90l85 -85l85 85h90z" />
    <glyph glyph-name="Omacron" unicode="&#x14c;" horiz-adv-x="820" 
d="M410 76q118 0 179 74t61 214q0 147 -59.5 217t-180.5 70q-122 0 -181 -69.5t-59 -217.5q0 -139 62 -213.5t178 -74.5zM410 -10q-81 0 -144.5 25t-107 73t-66 117.5t-22.5 158.5q0 88 23 157.5t66.5 117.5t107 73t143.5 25q81 0 144 -25t106.5 -72.5t66.5 -117t23 -158.5
t-23 -158.5t-66.5 -117.5t-107 -73t-143.5 -25zM245 897h330v-74h-330v74z" />
    <glyph glyph-name="omacron" unicode="&#x14d;" horiz-adv-x="640" 
d="M319 71q89 0 130.5 49.5t41.5 152.5q0 102 -39.5 151.5t-132.5 49.5q-170 0 -170 -201q0 -104 44.5 -153t125.5 -49zM319 -9q-134 0 -199 72.5t-65 209.5q0 132 67 206.5t197 74.5q133 0 199.5 -71.5t66.5 -209.5q0 -65 -18 -117.5t-52 -89t-83.5 -56t-112.5 -19.5z
M165 737h310v-74h-310v74z" />
    <glyph glyph-name="Ohungarumlaut" unicode="&#x150;" horiz-adv-x="820" 
d="M410 76q118 0 179 74t61 214q0 147 -59.5 217t-180.5 70q-122 0 -181 -69.5t-59 -217.5q0 -139 62 -213.5t178 -74.5zM410 -10q-81 0 -144.5 25t-107 73t-66 117.5t-22.5 158.5q0 88 23 157.5t66.5 117.5t107 73t143.5 25q81 0 144 -25t106.5 -72.5t66.5 -117t23 -158.5
t-23 -158.5t-66.5 -117.5t-107 -73t-143.5 -25zM681 930l-142 -140h-88l96 140h134zM491 930l-142 -140h-88l96 140h134z" />
    <glyph glyph-name="ohungarumlaut" unicode="&#x151;" horiz-adv-x="640" 
d="M319 71q89 0 130.5 49.5t41.5 152.5q0 102 -39.5 151.5t-132.5 49.5q-170 0 -170 -201q0 -104 44.5 -153t125.5 -49zM319 -9q-134 0 -199 72.5t-65 209.5q0 132 67 206.5t197 74.5q133 0 199.5 -71.5t66.5 -209.5q0 -65 -18 -117.5t-52 -89t-83.5 -56t-112.5 -19.5z
M447 630h-84l90 140h130zM257 630h-84l90 140h130z" />
    <glyph glyph-name="OE" unicode="&#x152;" horiz-adv-x="1005" 
d="M414 -10q-80 0 -143.5 23t-108 69.5t-68.5 116.5t-24 165q0 91 23.5 161t67.5 117t107 71t142 24q27 0 53.5 -2.5t49.5 -7.5h427v-86h-334v-223h304v-86h-304v-246h334v-86h-427q-23 -5 -48.5 -7.5t-50.5 -2.5zM424 76q23 0 45 2.5t41 7.5v555q-22 5 -47.5 7.5t-52.5 2.5
q-54 0 -98.5 -16t-76 -50.5t-48.5 -89t-17 -131.5q0 -149 66.5 -218.5t187.5 -69.5z" />
    <glyph glyph-name="oe" unicode="&#x153;" horiz-adv-x="1050" 
d="M320 -9q-134 0 -199.5 72.5t-65.5 209.5q0 133 67 207t198 74q82 0 136.5 -28t83.5 -82q30 53 82 81.5t126 28.5q69 0 117 -21t78 -58t43.5 -88t13.5 -110v-29h-416q7 -92 56.5 -134.5t154.5 -42.5q58 0 95.5 11t65.5 27v-81q-23 -15 -67 -26t-104 -11q-94 0 -154.5 29.5
t-92.5 85.5q-30 -55 -84.5 -85t-133.5 -30zM320 71q88 0 129.5 49.5t41.5 152.5q0 102 -39.5 151.5t-131.5 49.5q-171 0 -171 -201q0 -104 44.5 -153t126.5 -49zM906 322q0 33 -9 60.5t-28 48t-47.5 32t-68.5 11.5q-78 0 -119 -38.5t-50 -113.5h322z" />
    <glyph glyph-name="Racute" unicode="&#x154;" horiz-adv-x="660" 
d="M100 727h227q127 0 183.5 -50t56.5 -140q0 -85 -35.5 -136t-117.5 -69l206 -332h-109l-201 322h-114v-322h-96v727zM196 408h137q64 0 99 27t35 93q0 55 -33 84t-113 29h-125v-233zM353 790h-88l86 140h134z" />
    <glyph glyph-name="racute" unicode="&#x155;" horiz-adv-x="410" 
d="M177 0h-92v545h88v-86h2q22 45 59.5 70t93.5 25q14 0 33.5 -1.5t33.5 -5.5v-84q-30 9 -65 9q-57 0 -88.5 -23.5t-45.5 -56.5t-16.5 -67t-2.5 -55v-270zM264 630h-84l90 140h130z" />
    <glyph glyph-name="Rcommaaccent" unicode="&#x156;" horiz-adv-x="660" 
d="M100 727h227q127 0 183.5 -50t56.5 -140q0 -85 -35.5 -136t-117.5 -69l206 -332h-109l-201 322h-114v-322h-96v727zM196 408h137q64 0 99 27t35 93q0 55 -33 84t-113 29h-125v-233zM286 -190q37 0 57 11.5t20 31.5q-15 -4 -32 -4q-61 0 -61 47q0 24 22.5 39t57.5 15
q38 0 59 -21t21 -58q0 -54 -37.5 -82.5t-106.5 -28.5v50z" />
    <glyph glyph-name="rcommaaccent" unicode="&#x157;" horiz-adv-x="410" 
d="M177 0h-92v545h88v-86h2q22 45 59.5 70t93.5 25q14 0 33.5 -1.5t33.5 -5.5v-84q-30 9 -65 9q-57 0 -88.5 -23.5t-45.5 -56.5t-16.5 -67t-2.5 -55v-270zM67 -190q37 0 57 11.5t20 31.5q-15 -4 -32 -4q-61 0 -61 47q0 24 22.5 39t57.5 15q38 0 59 -21t21 -58
q0 -54 -37.5 -82.5t-106.5 -28.5v50z" />
    <glyph glyph-name="Rcaron" unicode="&#x158;" horiz-adv-x="660" 
d="M100 727h227q127 0 183.5 -50t56.5 -140q0 -85 -35.5 -136t-117.5 -69l206 -332h-109l-201 322h-114v-322h-96v727zM196 408h137q64 0 99 27t35 93q0 55 -33 84t-113 29h-125v-233zM370 790h-110l-120 140h94l81 -81l81 81h94z" />
    <glyph glyph-name="rcaron" unicode="&#x159;" horiz-adv-x="410" 
d="M177 0h-92v545h88v-86h2q22 45 59.5 70t93.5 25q14 0 33.5 -1.5t33.5 -5.5v-84q-30 9 -65 9q-57 0 -88.5 -23.5t-45.5 -56.5t-16.5 -67t-2.5 -55v-270zM285 630h-110l-120 140h90l85 -85l85 85h90z" />
    <glyph glyph-name="Sacute" unicode="&#x15a;" horiz-adv-x="580" 
d="M74 127q13 -9 33.5 -18t45 -16.5t53 -12t57.5 -4.5q83 0 120 31.5t37 88.5q0 31 -9 52.5t-28 37.5t-48 28.5t-69 27.5l-25 9q-41 15 -73 32.5t-53.5 41t-33 54t-11.5 72.5q0 88 66.5 137t181.5 49q47 0 88.5 -7t71.5 -20v-90q-34 15 -77 23t-89 8q-142 0 -142 -100
q0 -21 7 -38t24 -32t46 -30t74 -33l26 -11q49 -20 82.5 -40.5t53.5 -45t28.5 -53.5t8.5 -65q0 -51 -18 -91t-51 -67t-79 -41t-103 -14q-59 0 -108 12t-87 33v92zM333 790h-88l86 140h134z" />
    <glyph glyph-name="sacute" unicode="&#x15b;" horiz-adv-x="475" 
d="M61 107q35 -18 75 -27t78 -9q61 0 89 20.5t28 64.5q0 28 -20.5 44.5t-51 29t-66.5 24t-66.5 29.5t-51 45.5t-20.5 71.5q0 72 54 113t152 41q16 0 35.5 -1.5t38 -4.5t34.5 -6.5t27 -6.5v-82q-25 10 -61.5 15.5t-68.5 5.5q-61 0 -89 -16.5t-28 -48.5q0 -28 20.5 -43.5
t51 -27.5t66.5 -23t66.5 -30t51 -49.5t20.5 -79.5q0 -79 -54.5 -122t-158.5 -43q-40 0 -78.5 8.5t-72.5 23.5v84zM275 630h-84l90 140h130z" />
    <glyph glyph-name="Scircumflex" unicode="&#x15c;" horiz-adv-x="580" 
d="M74 127q13 -9 33.5 -18t45 -16.5t53 -12t57.5 -4.5q83 0 120 31.5t37 88.5q0 31 -9 52.5t-28 37.5t-48 28.5t-69 27.5l-25 9q-41 15 -73 32.5t-53.5 41t-33 54t-11.5 72.5q0 88 66.5 137t181.5 49q47 0 88.5 -7t71.5 -20v-90q-34 15 -77 23t-89 8q-142 0 -142 -100
q0 -21 7 -38t24 -32t46 -30t74 -33l26 -11q49 -20 82.5 -40.5t53.5 -45t28.5 -53.5t8.5 -65q0 -51 -18 -91t-51 -67t-79 -41t-103 -14q-59 0 -108 12t-87 33v92zM470 790h-94l-81 81l-81 -81h-94l120 140h110z" />
    <glyph glyph-name="scircumflex" unicode="&#x15d;" horiz-adv-x="475" 
d="M61 107q35 -18 75 -27t78 -9q61 0 89 20.5t28 64.5q0 28 -20.5 44.5t-51 29t-66.5 24t-66.5 29.5t-51 45.5t-20.5 71.5q0 72 54 113t152 41q16 0 35.5 -1.5t38 -4.5t34.5 -6.5t27 -6.5v-82q-25 10 -61.5 15.5t-68.5 5.5q-61 0 -89 -16.5t-28 -48.5q0 -28 20.5 -43.5
t51 -27.5t66.5 -23t66.5 -30t51 -49.5t20.5 -79.5q0 -79 -54.5 -122t-158.5 -43q-40 0 -78.5 8.5t-72.5 23.5v84zM415 630h-90l-85 85l-85 -85h-90l120 140h110z" />
    <glyph glyph-name="Scedilla" unicode="&#x15e;" horiz-adv-x="580" 
d="M285 -240q-35 0 -54 5t-36 12v61q20 -9 37 -13.5t43 -4.5q25 0 40.5 12t15.5 32q0 40 -57 40q-8 0 -19.5 -0.5t-22.5 -2.5l12 90q-51 2 -93.5 13.5t-76.5 30.5v92q13 -9 33.5 -18t45 -16.5t53 -12t57.5 -4.5q83 0 120 31.5t37 88.5q0 31 -9 52.5t-28 37.5t-48 28.5
t-69 27.5l-25 9q-41 15 -73 32.5t-53.5 41t-33 54t-11.5 72.5q0 88 66.5 137t181.5 49q47 0 88.5 -7t71.5 -20v-90q-34 15 -77 23t-89 8q-142 0 -142 -100q0 -21 7 -38t24 -32t46 -30t74 -33l26 -11q49 -20 82.5 -40.5t53.5 -45t28.5 -53.5t8.5 -65q0 -95 -58.5 -149.5
t-157.5 -62.5l-5 -37q116 -3 116 -93q0 -45 -36.5 -73t-93.5 -28z" />
    <glyph glyph-name="scedilla" unicode="&#x15f;" horiz-adv-x="475" 
d="M240 -240q-35 0 -54 5t-36 12v61q20 -9 37 -13.5t43 -4.5q25 0 40.5 12t15.5 32q0 40 -57 40q-8 0 -19.5 -0.5t-22.5 -2.5l12 90q-36 2 -71.5 10t-66.5 22v84q35 -18 75 -27t78 -9q61 0 89 20.5t28 64.5q0 28 -20.5 44.5t-51 29t-66.5 24t-66.5 29.5t-51 45.5t-20.5 71.5
q0 72 54 113t152 41q16 0 35.5 -1.5t38 -4.5t34.5 -6.5t27 -6.5v-82q-25 10 -61.5 15.5t-68.5 5.5q-61 0 -89 -16.5t-28 -48.5q0 -28 20.5 -43.5t51 -27.5t66.5 -23t66.5 -30t51 -49.5t20.5 -79.5q0 -69 -42.5 -111t-123.5 -51l-5 -40q116 -3 116 -93q0 -45 -36.5 -73
t-93.5 -28z" />
    <glyph glyph-name="Scaron" unicode="&#x160;" horiz-adv-x="580" 
d="M74 127q13 -9 33.5 -18t45 -16.5t53 -12t57.5 -4.5q83 0 120 31.5t37 88.5q0 31 -9 52.5t-28 37.5t-48 28.5t-69 27.5l-25 9q-41 15 -73 32.5t-53.5 41t-33 54t-11.5 72.5q0 88 66.5 137t181.5 49q47 0 88.5 -7t71.5 -20v-90q-34 15 -77 23t-89 8q-142 0 -142 -100
q0 -21 7 -38t24 -32t46 -30t74 -33l26 -11q49 -20 82.5 -40.5t53.5 -45t28.5 -53.5t8.5 -65q0 -51 -18 -91t-51 -67t-79 -41t-103 -14q-59 0 -108 12t-87 33v92zM350 790h-110l-120 140h94l81 -81l81 81h94z" />
    <glyph glyph-name="scaron" unicode="&#x161;" horiz-adv-x="475" 
d="M61 107q35 -18 75 -27t78 -9q61 0 89 20.5t28 64.5q0 28 -20.5 44.5t-51 29t-66.5 24t-66.5 29.5t-51 45.5t-20.5 71.5q0 72 54 113t152 41q16 0 35.5 -1.5t38 -4.5t34.5 -6.5t27 -6.5v-82q-25 10 -61.5 15.5t-68.5 5.5q-61 0 -89 -16.5t-28 -48.5q0 -28 20.5 -43.5
t51 -27.5t66.5 -23t66.5 -30t51 -49.5t20.5 -79.5q0 -79 -54.5 -122t-158.5 -43q-40 0 -78.5 8.5t-72.5 23.5v84zM295 630h-110l-120 140h90l85 -85l85 85h90z" />
    <glyph glyph-name="Tcedilla" unicode="&#x162;" horiz-adv-x="590" 
d="M305 -240q-35 0 -54 5t-36 12v61q20 -9 37 -13.5t44 -4.5q24 0 39.5 12t15.5 32q0 40 -57 40q-8 0 -19.5 -0.5t-22.5 -2.5l14 99h-19v641h-227v86h550v-86h-227v-641h-18l-6 -46q116 -3 116 -93q0 -45 -36.5 -73t-93.5 -28z" />
    <glyph glyph-name="tcedilla" unicode="&#x163;" horiz-adv-x="415" 
d="M265 -240q-35 0 -54 5t-36 12v61q20 -9 37 -13.5t43 -4.5q25 0 40.5 12t15.5 32q0 40 -57 40q-8 0 -19.5 -0.5t-22.5 -2.5l13 99q-95 28 -95 150v315h-115v80h115v115l92 33v-148h157v-80h-157v-297q0 -50 17.5 -73.5t69.5 -23.5q20 0 40 3.5t36 11.5v-82
q-24 -8 -49.5 -10.5t-51.5 -2.5l-5 -37q116 -3 116 -93q0 -45 -36.5 -73t-93.5 -28z" />
    <glyph glyph-name="Tcaron" unicode="&#x164;" horiz-adv-x="590" 
d="M343 0h-96v641h-227v86h550v-86h-227v-641zM350 790h-110l-120 140h94l81 -81l81 81h94z" />
    <glyph glyph-name="tcaron" unicode="&#x165;" horiz-adv-x="452" 
d="M379 465h-157v-297q0 -50 17.5 -73.5t69.5 -23.5q20 0 40 3.5t36 11.5v-82q-37 -13 -91 -13q-164 0 -164 159v315h-115v80h115v115l92 33v-148h157v-80zM319 810h103l-83 -220h-72z" />
    <glyph glyph-name="Umacron" unicode="&#x16a;" horiz-adv-x="750" 
d="M564 727h96v-426q0 -81 -15.5 -140t-49.5 -97t-88 -56t-132 -18q-73 0 -126.5 17t-89 54.5t-52.5 96.5t-17 143v426h96v-418q0 -61 9.5 -105t31.5 -72.5t58.5 -42t89.5 -13.5q58 0 95 14t58 42.5t28.5 72.5t7.5 104v418zM210 897h330v-74h-330v74z" />
    <glyph glyph-name="umacron" unicode="&#x16b;" horiz-adv-x="655" 
d="M80 545h92v-282q0 -55 6 -92t22 -59t43 -31.5t68 -9.5q88 0 127.5 59t39.5 163v252h92v-545h-88v86h-2q-30 -51 -80 -73t-106 -22q-112 0 -163 54.5t-51 175.5v324zM170 737h310v-74h-310v74z" />
    <glyph glyph-name="Ubreve" unicode="&#x16c;" horiz-adv-x="750" 
d="M564 727h96v-426q0 -81 -15.5 -140t-49.5 -97t-88 -56t-132 -18q-73 0 -126.5 17t-89 54.5t-52.5 96.5t-17 143v426h96v-418q0 -61 9.5 -105t31.5 -72.5t58.5 -42t89.5 -13.5q58 0 95 14t58 42.5t28.5 72.5t7.5 104v418zM545 914q-14 -60 -59 -94t-111 -34t-111 34
t-59 94l74 20q22 -74 96 -74t96 74z" />
    <glyph glyph-name="ubreve" unicode="&#x16d;" horiz-adv-x="655" 
d="M80 545h92v-282q0 -55 6 -92t22 -59t43 -31.5t68 -9.5q88 0 127.5 59t39.5 163v252h92v-545h-88v86h-2q-30 -51 -80 -73t-106 -22q-112 0 -163 54.5t-51 175.5v324zM325 622q-65 0 -111.5 37.5t-58.5 99.5l73 19q18 -80 97 -80t97 80l73 -19q-12 -62 -58.5 -99.5
t-111.5 -37.5z" />
    <glyph glyph-name="Uring" unicode="&#x16e;" horiz-adv-x="750" 
d="M564 727h96v-426q0 -81 -15.5 -140t-49.5 -97t-88 -56t-132 -18q-73 0 -126.5 17t-89 54.5t-52.5 96.5t-17 143v426h96v-418q0 -61 9.5 -105t31.5 -72.5t58.5 -42t89.5 -13.5q58 0 95 14t58 42.5t28.5 72.5t7.5 104v418zM375 808q23 0 37.5 14.5t14.5 37.5t-14.5 37.5
t-37.5 14.5t-37.5 -14.5t-14.5 -37.5t14.5 -37.5t37.5 -14.5zM375 752q-46 0 -77 31t-31 77t31 77t77 31t77 -31t31 -77t-31 -77t-77 -31z" />
    <glyph glyph-name="uring" unicode="&#x16f;" horiz-adv-x="655" 
d="M80 545h92v-282q0 -55 6 -92t22 -59t43 -31.5t68 -9.5q88 0 127.5 59t39.5 163v252h92v-545h-88v86h-2q-30 -51 -80 -73t-106 -22q-112 0 -163 54.5t-51 175.5v324zM325 648q23 0 37.5 14.5t14.5 37.5t-14.5 37.5t-37.5 14.5t-37.5 -14.5t-14.5 -37.5t14.5 -37.5
t37.5 -14.5zM325 594q-23 0 -42 8t-33.5 22.5t-22.5 33.5t-8 42q0 22 8 41.5t22.5 34t33.5 22.5t42 8q22 0 41.5 -8t34 -22.5t22.5 -34t8 -41.5q0 -23 -8 -42t-22.5 -33.5t-34 -22.5t-41.5 -8z" />
    <glyph glyph-name="Uhungarumlaut" unicode="&#x170;" horiz-adv-x="750" 
d="M564 727h96v-426q0 -81 -15.5 -140t-49.5 -97t-88 -56t-132 -18q-73 0 -126.5 17t-89 54.5t-52.5 96.5t-17 143v426h96v-418q0 -61 9.5 -105t31.5 -72.5t58.5 -42t89.5 -13.5q58 0 95 14t58 42.5t28.5 72.5t7.5 104v418zM646 930l-142 -140h-88l96 140h134zM456 930
l-142 -140h-88l96 140h134z" />
    <glyph glyph-name="uhungarumlaut" unicode="&#x171;" horiz-adv-x="655" 
d="M80 545h92v-282q0 -55 6 -92t22 -59t43 -31.5t68 -9.5q88 0 127.5 59t39.5 163v252h92v-545h-88v86h-2q-30 -51 -80 -73t-106 -22q-112 0 -163 54.5t-51 175.5v324zM452 630h-84l90 140h130zM262 630h-84l90 140h130z" />
    <glyph glyph-name="Uogonek" unicode="&#x172;" horiz-adv-x="750" 
d="M564 727h96v-426q0 -108 -27 -176t-89 -101q-80 -43 -112.5 -79.5t-32.5 -71.5q0 -22 13.5 -33.5t45.5 -11.5q35 0 57 14v-62q-40 -20 -88 -20q-57 0 -89.5 26t-32.5 72q0 35 20 68t66 62v2h-16q-73 0 -126.5 17t-89 54.5t-52.5 96.5t-17 143v426h96v-418q0 -61 9.5 -105
t31.5 -72.5t58.5 -42t89.5 -13.5q58 0 95 14t58 42.5t28.5 72.5t7.5 104v418z" />
    <glyph glyph-name="uogonek" unicode="&#x173;" horiz-adv-x="655" 
d="M483 -240q-58 0 -90.5 26t-32.5 72q0 41 28 80.5t94 71.5v76h-2q-30 -51 -80 -73t-106 -22q-112 0 -163 54.5t-51 175.5v324h92v-282q0 -55 6 -92t22 -59t43 -31.5t68 -9.5q88 0 127.5 59t39.5 163v252h92v-545q-60 -31 -88 -61t-28 -64q0 -21 14 -34t44 -13q36 0 58 14
v-62q-40 -20 -87 -20z" />
    <glyph glyph-name="Ydieresis" unicode="&#x178;" horiz-adv-x="645" 
d="M370 0h-96v300l-269 427h112l208 -336l207 336h108l-270 -427v-300zM500 860q0 -26 -16 -42t-42 -16t-42 16t-16 42t16 42t42 16t42 -16t16 -42zM266 860q0 -26 -16 -42t-42 -16t-42 16t-16 42t16 42t42 16t42 -16t16 -42z" />
    <glyph glyph-name="Zacute" unicode="&#x179;" horiz-adv-x="610" 
d="M570 0h-530v86l417 555h-406v86h514v-86l-417 -555h422v-86zM347 790h-88l86 140h134z" />
    <glyph glyph-name="zacute" unicode="&#x17a;" horiz-adv-x="510" 
d="M470 0h-430v86l323 379h-313v80h415v-86l-323 -379h328v-80zM294 630h-84l90 140h130z" />
    <glyph glyph-name="Zdotaccent" unicode="&#x17b;" horiz-adv-x="610" 
d="M570 0h-530v86l417 555h-406v86h514v-86l-417 -555h422v-86zM308 796q-29 0 -46.5 17.5t-17.5 46.5t17.5 46.5t46.5 17.5t46.5 -17.5t17.5 -46.5t-17.5 -46.5t-46.5 -17.5z" />
    <glyph glyph-name="zdotaccent" unicode="&#x17c;" horiz-adv-x="510" 
d="M470 0h-430v86l323 379h-313v80h415v-86l-323 -379h328v-80zM318 700q0 -25 -16.5 -41.5t-41.5 -16.5t-41.5 16.5t-16.5 41.5t16.5 41.5t41.5 16.5t41.5 -16.5t16.5 -41.5z" />
    <glyph glyph-name="Zcaron" unicode="&#x17d;" horiz-adv-x="610" 
d="M570 0h-530v86l417 555h-406v86h514v-86l-417 -555h422v-86zM363 790h-110l-120 140h94l81 -81l81 81h94z" />
    <glyph glyph-name="zcaron" unicode="&#x17e;" horiz-adv-x="510" 
d="M470 0h-430v86l323 379h-313v80h415v-86l-323 -379h328v-80zM315 630h-110l-120 140h90l85 -85l85 85h90z" />
    <glyph glyph-name="uni018F" unicode="&#x18f;" horiz-adv-x="725" 
d="M60 388h500q-2 58 -14 106.5t-40 83.5t-75 54t-120 19q-54 0 -99.5 -7t-86.5 -24v86q23 8 45 14t44.5 9.5t47 5.5t53.5 2q178 0 261.5 -96.5t83.5 -280.5q0 -35 -5.5 -76.5t-18.5 -82.5t-35.5 -79t-56.5 -67.5t-80.5 -47t-108.5 -17.5q-65 0 -119.5 20.5t-93.5 64
t-60.5 110.5t-21.5 161v42zM161 302q2 -53 13.5 -95t35 -71t59 -44.5t86.5 -15.5q54 0 91 19t61 50.5t36 72t16 84.5h-398z" />
    <glyph glyph-name="florin" unicode="&#x192;" horiz-adv-x="540" 
d="M-8 -233q-13 0 -24 1.5t-23 3.5l17 80q20 -5 35 -5q52 0 80 28t42 95l105 495h-113l17 80h113l16 76q21 99 72.5 143.5t143.5 44.5q16 0 31 -1.5t36 -4.5l-17 -80q-7 2 -20.5 4t-29.5 2q-30 0 -51 -6t-35.5 -21t-24.5 -40.5t-18 -64.5l-11 -52h152l-17 -80h-152
l-102 -480q-13 -60 -31 -101.5t-44.5 -67.5t-62.5 -37.5t-84 -11.5z" />
    <glyph glyph-name="uni01DD" unicode="&#x1dd;" horiz-adv-x="615" 
d="M94 523q32 14 77 22.5t95 8.5q145 0 219.5 -72t74.5 -212q0 -64 -17.5 -115.5t-51 -88t-81.5 -56t-108 -19.5q-69 0 -117 21t-78 58t-43.5 88t-13.5 110v29h416q-8 93 -57.5 135t-150.5 42q-48 0 -90 -8.5t-74 -23.5v81zM144 223q0 -33 9 -60.5t27.5 -48t47.5 -32
t69 -11.5q78 0 119 38.5t50 113.5h-322z" />
    <glyph glyph-name="Gcaron" unicode="&#x1e6;" horiz-adv-x="740" 
d="M568 290h-168v86h260v-344q-38 -20 -93 -31t-120 -11q-180 0 -278.5 91t-98.5 273q0 193 100 288t285 95q53 0 92.5 -6t65.5 -14v-90q-36 13 -82.5 18.5t-84.5 5.5q-138 0 -207 -69.5t-69 -219.5q0 -142 72 -214t218 -72q22 0 53 3.5t55 9.5v201zM480 790h-110l-120 140
h94l81 -81l81 81h94z" />
    <glyph glyph-name="gcaron" unicode="&#x1e7;" horiz-adv-x="670" 
d="M497 545h88v-520q0 -254 -272 -254q-29 0 -58.5 2.5t-57.5 7t-52 11t-42 14.5v84q26 -14 76 -26.5t115 -12.5q104 0 151.5 40.5t47.5 128.5v75h-2q-14 -22 -35 -39.5t-46.5 -30t-53 -19t-53.5 -6.5q-127 0 -187.5 69t-60.5 205q0 137 63 208.5t194 71.5q29 0 57 -6
t52 -17t43 -27t31 -37h2v78zM313 474q-83 0 -123.5 -46.5t-40.5 -145.5q0 -202 166 -202q86 0 132 52.5t46 146.5q0 93 -45 144t-135 51zM370 630h-110l-120 140h90l85 -85l85 85h90z" />
    <glyph glyph-name="Scommaaccent" unicode="&#x218;" horiz-adv-x="580" 
d="M74 127q13 -9 33.5 -18t45 -16.5t53 -12t57.5 -4.5q83 0 120 31.5t37 88.5q0 31 -9 52.5t-28 37.5t-48 28.5t-69 27.5l-25 9q-41 15 -73 32.5t-53.5 41t-33 54t-11.5 72.5q0 88 66.5 137t181.5 49q47 0 88.5 -7t71.5 -20v-90q-34 15 -77 23t-89 8q-142 0 -142 -100
q0 -21 7 -38t24 -32t46 -30t74 -33l26 -11q49 -20 82.5 -40.5t53.5 -45t28.5 -53.5t8.5 -65q0 -51 -18 -91t-51 -67t-79 -41t-103 -14q-59 0 -108 12t-87 33v92zM232 -190q37 0 57 11.5t20 31.5q-15 -4 -32 -4q-61 0 -61 47q0 24 22.5 39t57.5 15q38 0 59 -21t21 -58
q0 -54 -37.5 -82.5t-106.5 -28.5v50z" />
    <glyph glyph-name="scommaaccent" unicode="&#x219;" horiz-adv-x="475" 
d="M61 107q35 -18 75 -27t78 -9q61 0 89 20.5t28 64.5q0 28 -20.5 44.5t-51 29t-66.5 24t-66.5 29.5t-51 45.5t-20.5 71.5q0 72 54 113t152 41q16 0 35.5 -1.5t38 -4.5t34.5 -6.5t27 -6.5v-82q-25 10 -61.5 15.5t-68.5 5.5q-61 0 -89 -16.5t-28 -48.5q0 -28 20.5 -43.5
t51 -27.5t66.5 -23t66.5 -30t51 -49.5t20.5 -79.5q0 -79 -54.5 -122t-158.5 -43q-40 0 -78.5 8.5t-72.5 23.5v84zM186 -190q37 0 57 11.5t20 31.5q-15 -4 -32 -4q-61 0 -61 47q0 24 22.5 39t57.5 15q38 0 59 -21t21 -58q0 -54 -37.5 -82.5t-106.5 -28.5v50z" />
    <glyph glyph-name="Tcommaaccent" unicode="&#x21a;" horiz-adv-x="590" 
d="M343 0h-96v641h-227v86h550v-86h-227v-641zM232 -190q37 0 57 11.5t20 31.5q-15 -4 -32 -4q-61 0 -61 47q0 24 22.5 39t57.5 15q38 0 59 -21t21 -58q0 -54 -37.5 -82.5t-106.5 -28.5v50z" />
    <glyph glyph-name="tcommaaccent" unicode="&#x21b;" horiz-adv-x="415" 
d="M379 465h-157v-297q0 -50 17.5 -73.5t69.5 -23.5q20 0 40 3.5t36 11.5v-82q-37 -13 -91 -13q-164 0 -164 159v315h-115v80h115v115l92 33v-148h157v-80zM206 -190q37 0 57 11.5t20 31.5q-15 -4 -32 -4q-61 0 -61 47q0 24 22.5 39t57.5 15q38 0 59 -21t21 -58
q0 -54 -37.5 -82.5t-106.5 -28.5v50z" />
    <glyph glyph-name="uni0237" unicode="&#x237;" horiz-adv-x="262" 
d="M-45 -149q10 -2 20.5 -3.5t22.5 -1.5q46 0 66.5 26t20.5 91v582h92v-561q0 -60 -9 -102t-29 -67.5t-52.5 -37t-79.5 -11.5q-12 0 -24 1t-28 4v80z" />
    <glyph glyph-name="uni0259" unicode="&#x259;" horiz-adv-x="615" 
d="M94 523q32 14 77 22.5t95 8.5q145 0 219.5 -72t74.5 -212q0 -64 -17.5 -115.5t-51 -88t-81.5 -56t-108 -19.5q-69 0 -117 21t-78 58t-43.5 88t-13.5 110v29h416q-8 93 -57.5 135t-150.5 42q-48 0 -90 -8.5t-74 -23.5v81zM144 223q0 -33 9 -60.5t27.5 -48t47.5 -32
t69 -11.5q78 0 119 38.5t50 113.5h-322z" />
    <glyph glyph-name="afii57929" unicode="&#x2bc;" horiz-adv-x="245" 
d="M102 727h103l-83 -220h-72z" />
    <glyph glyph-name="circumflex" unicode="&#x2c6;" horiz-adv-x="390" 
d="M370 630h-90l-85 85l-85 -85h-90l120 140h110z" />
    <glyph glyph-name="caron" unicode="&#x2c7;" horiz-adv-x="390" 
d="M250 630h-110l-120 140h90l85 -85l85 85h90z" />
    <glyph glyph-name="breve" unicode="&#x2d8;" horiz-adv-x="380" 
d="M190 622q-65 0 -111.5 37.5t-58.5 99.5l73 19q18 -80 97 -80t97 80l73 -19q-12 -62 -58.5 -99.5t-111.5 -37.5z" />
    <glyph glyph-name="dotaccent" unicode="&#x2d9;" horiz-adv-x="258" 
d="M187 700q0 -25 -16.5 -41.5t-41.5 -16.5t-41.5 16.5t-16.5 41.5t16.5 41.5t41.5 16.5t41.5 -16.5t16.5 -41.5z" />
    <glyph glyph-name="ring" unicode="&#x2da;" horiz-adv-x="252" 
d="M126 648q23 0 37.5 14.5t14.5 37.5t-14.5 37.5t-37.5 14.5t-37.5 -14.5t-14.5 -37.5t14.5 -37.5t37.5 -14.5zM126 594q-23 0 -42 8t-33.5 22.5t-22.5 33.5t-8 42q0 22 8 41.5t22.5 34t33.5 22.5t42 8q22 0 41.5 -8t34 -22.5t22.5 -34t8 -41.5q0 -23 -8 -42t-22.5 -33.5
t-34 -22.5t-41.5 -8z" />
    <glyph glyph-name="ogonek" unicode="&#x2db;" horiz-adv-x="250" 
d="M143 -240q-58 0 -90.5 26t-32.5 72q0 43 33.5 86.5t110.5 75.5l66 -20q-60 -31 -88 -61t-28 -64q0 -21 14 -34t44 -13q36 0 58 14v-62q-40 -20 -87 -20z" />
    <glyph glyph-name="tilde" unicode="&#x2dc;" horiz-adv-x="390" 
d="M370 745q-4 -49 -31 -77t-69 -28q-26 0 -47.5 8t-39 17t-32 17t-27.5 8q-11 0 -23.5 -10t-16.5 -40l-64 15q4 49 31 77t69 28q26 0 47.5 -8t39 -17t32 -17t27.5 -8q11 0 23.5 10t16.5 40z" />
    <glyph glyph-name="hungarumlaut" unicode="&#x2dd;" horiz-adv-x="450" 
d="M294 630h-84l90 140h130zM104 630h-84l90 140h130z" />
    <glyph glyph-name="acutecomb" unicode="&#x301;" horiz-adv-x="0" 
d="M-268 630h-84l90 140h130z" />
    <glyph glyph-name="uni0394" unicode="&#x394;" horiz-adv-x="700" 
d="M305 727h90l295 -727h-680zM564 86l-213 534h-2l-213 -534h428z" />
    <glyph glyph-name="uni0394" unicode="&#x2206;" horiz-adv-x="700" 
d="M305 727h90l295 -727h-680zM564 86l-213 534h-2l-213 -534h428z" />
    <glyph glyph-name="uni03A9" unicode="&#x3a9;" horiz-adv-x="800" 
d="M400 651q-54 0 -97.5 -16.5t-74 -46.5t-47 -73t-16.5 -96q0 -89 50 -147.5t138 -70.5v-201h-288v86h200v53q-94 26 -147 100t-53 180q0 74 23 133t66.5 100t105.5 63t140 22t140 -22t105.5 -63t66.5 -100t23 -133q0 -106 -53 -180t-147 -100v-53h200v-86h-288v201
q88 12 138 70.5t50 147.5q0 53 -16.5 96t-47 73t-74 46.5t-97.5 16.5z" />
    <glyph glyph-name="uni03A9" unicode="&#x2126;" horiz-adv-x="800" 
d="M400 651q-54 0 -97.5 -16.5t-74 -46.5t-47 -73t-16.5 -96q0 -89 50 -147.5t138 -70.5v-201h-288v86h200v53q-94 26 -147 100t-53 180q0 74 23 133t66.5 100t105.5 63t140 22t140 -22t105.5 -63t66.5 -100t23 -133q0 -106 -53 -180t-147 -100v-53h200v-86h-288v201
q88 12 138 70.5t50 147.5q0 53 -16.5 96t-47 73t-74 46.5t-97.5 16.5z" />
    <glyph glyph-name="pi" unicode="&#x3c0;" horiz-adv-x="700" 
d="M144 465q-27 0 -52 -9.5t-39 -20.5l-33 73q10 6 23.5 12.5t33 12t46.5 9t64 3.5h473v-80h-85v-331q0 -31 9 -45t32 -14q5 0 14.5 1t17.5 3v-86q-14 -2 -25 -3t-28 -1q-55 0 -83.5 28.5t-28.5 98.5v349h-247v-465h-92v465z" />
    <glyph glyph-name="afii10023" unicode="&#x401;" horiz-adv-x="596" 
d="M530 0h-430v727h430v-86h-334v-223h304v-86h-304v-246h334v-86zM490 860q0 -26 -16 -42t-42 -16t-42 16t-16 42t16 42t42 16t42 -16t16 -42zM256 860q0 -26 -16 -42t-42 -16t-42 16t-16 42t16 42t42 16t42 -16t16 -42z" />
    <glyph glyph-name="afii10051" unicode="&#x402;" horiz-adv-x="792" 
d="M296 0h-96v641h-180v86h506v-86h-230v-214q48 17 96 26.5t93 9.5q117 0 179.5 -60.5t62.5 -169.5q0 -115 -62.5 -179t-175.5 -64q-23 0 -46 2t-38 6v88q17 -5 36.5 -7.5t38.5 -2.5q147 0 147 157q0 144 -164 144q-43 0 -83.5 -9.5t-83.5 -29.5v-338z" />
    <glyph glyph-name="afii10052" unicode="&#x403;" horiz-adv-x="530" 
d="M196 0h-96v727h410v-86h-314v-641zM343 790h-88l86 140h134z" />
    <glyph glyph-name="afii10053" unicode="&#x404;" horiz-adv-x="670" 
d="M435 -10q-174 0 -269.5 91t-95.5 273q0 192 95 287.5t278 95.5q54 0 92.5 -6.5t64.5 -14.5v-90q-18 6 -38.5 11t-41 8t-38.5 4.5t-31 1.5q-134 0 -200.5 -57t-78.5 -176h298v-86h-300q7 -128 76.5 -192t200.5 -64q42 0 79 7t74 23v-90q-29 -13 -72.5 -19.5t-92.5 -6.5z
" />
    <glyph glyph-name="afii10054" unicode="&#x405;" horiz-adv-x="580" 
d="M74 127q13 -9 33.5 -18t45 -16.5t53 -12t57.5 -4.5q83 0 120 31.5t37 88.5q0 31 -9 52.5t-28 37.5t-48 28.5t-69 27.5l-25 9q-41 15 -73 32.5t-53.5 41t-33 54t-11.5 72.5q0 88 66.5 137t181.5 49q47 0 88.5 -7t71.5 -20v-90q-34 15 -77 23t-89 8q-142 0 -142 -100
q0 -21 7 -38t24 -32t46 -30t74 -33l26 -11q49 -20 82.5 -40.5t53.5 -45t28.5 -53.5t8.5 -65q0 -51 -18 -91t-51 -67t-79 -41t-103 -14q-59 0 -108 12t-87 33v92z" />
    <glyph glyph-name="afii10055" unicode="&#x406;" horiz-adv-x="296" 
d="M196 0h-96v727h96v-727z" />
    <glyph glyph-name="afii10056" unicode="&#x407;" horiz-adv-x="296" 
d="M196 0h-96v727h96v-727zM109 860q0 -26 -16 -42t-42 -16t-42 16t-16 42t16 42t42 16t42 -16t16 -42zM303 860q0 -26 -16 -42t-42 -16t-42 16t-16 42t16 42t42 16t42 -16t16 -42z" />
    <glyph glyph-name="afii10057" unicode="&#x408;" horiz-adv-x="425" 
d="M35 86q20 -5 40.5 -7.5t38.5 -2.5q64 0 89.5 26t25.5 89v536h96v-553q0 -184 -192 -184q-26 0 -54.5 3.5t-43.5 8.5v84z" />
    <glyph glyph-name="afii10058" unicode="&#x409;" horiz-adv-x="1050" 
d="M534 0v641h-241q0 -183 -10 -308t-34 -201t-64.5 -109t-101.5 -33q-26 0 -43 4v92q16 -4 33 -4q35 0 59 33.5t39 109t21.5 199t6.5 303.5h431v-306h90q20 0 48 -1t58.5 -7t61 -18t54 -35t38.5 -58t15 -86q0 -54 -15 -91t-39.5 -61t-55 -37t-61 -19t-58 -7t-46.5 -1h-186z
M630 86h83q25 0 56.5 2t59.5 14.5t47 39t19 74.5q0 44 -19 68t-46.5 35.5t-59 13.5t-55.5 2h-85v-249z" />
    <glyph glyph-name="afii10059" unicode="&#x40a;" horiz-adv-x="1080" 
d="M660 86h85q24 0 55.5 2t59 14.5t46.5 39t19 74.5q0 44 -19 68t-46.5 35.5t-59 13.5t-55.5 2h-85v-249zM564 0v335h-368v-335h-96v727h96v-306h368v306h96v-306h90q20 0 48 -1t58.5 -7t61 -18t54 -35t38.5 -58t15 -86q0 -54 -15 -91t-39.5 -61t-55 -37t-61 -19t-58 -7
t-46.5 -1h-186z" />
    <glyph glyph-name="afii10060" unicode="&#x40b;" horiz-adv-x="765" 
d="M200 641h-180v86h506v-86h-230v-203q37 11 75 18t89 7q59 0 99 -10.5t66 -28t40.5 -40t21 -46t7.5 -46.5t1 -42v-250h-96v230q0 25 -2.5 51.5t-18 47.5t-49 34.5t-95.5 13.5q-80 0 -138 -23v-354h-96v641z" />
    <glyph glyph-name="afii10061" unicode="&#x40c;" horiz-adv-x="680" 
d="M196 395l332 332h126l-353 -342l374 -385h-132l-347 365v-365h-96v727h96v-332zM388 790h-88l86 140h134z" />
    <glyph glyph-name="afii10062" unicode="&#x40e;" 
d="M112 90q17 -7 36 -10.5t36 -3.5q33 0 55 17t42 60l8 17l-284 557h105l228 -457l182 457h95l-249 -589q-17 -41 -35 -69.5t-39 -46t-45.5 -25t-55.5 -7.5q-44 0 -79 16v84zM485 921q-17 -133 -170 -133t-170 133l77 11q8 -38 30 -55t63 -17q42 0 64.5 17t29.5 55z" />
    <glyph glyph-name="afii10145" unicode="&#x40f;" horiz-adv-x="750" 
d="M329 0h-229v727h96v-641h358v641h96v-727h-229v-160h-92v160z" />
    <glyph glyph-name="afii10017" unicode="&#x410;" horiz-adv-x="690" 
d="M505 192h-323l-75 -192h-97l291 727h89l290 -727h-100zM215 278h257l-128 347h-2z" />
    <glyph glyph-name="afii10018" unicode="&#x411;" horiz-adv-x="635" 
d="M196 86h124q45 0 76 9t49.5 26t26.5 41t8 55q0 72 -34.5 98.5t-100.5 26.5h-149v-256zM100 0v727h425v-86h-329v-213h161q52 0 93.5 -10.5t70 -34.5t44 -63.5t15.5 -98.5q0 -62 -21.5 -104t-57.5 -68t-83 -37.5t-98 -11.5h-220z" />
    <glyph glyph-name="afii10019" unicode="&#x412;" horiz-adv-x="665" 
d="M196 415h119q46 0 78 9.5t51.5 25t28 37t8.5 45.5q0 33 -8 54t-25.5 33t-44.5 17t-65 5h-142v-226zM196 86h140q83 0 123.5 25.5t40.5 94.5t-44.5 99t-136.5 30h-123v-249zM100 0v727h252q63 0 106.5 -12t70.5 -35.5t39.5 -57.5t12.5 -78q0 -69 -35 -108.5t-105 -54.5v-3
q39 -2 68.5 -16.5t49.5 -36.5t30.5 -50.5t10.5 -59.5q0 -44 -12.5 -83t-42.5 -68.5t-80 -46.5t-125 -17h-240z" />
    <glyph glyph-name="afii10020" unicode="&#x413;" horiz-adv-x="530" 
d="M196 0h-96v727h410v-86h-314v-641z" />
    <glyph glyph-name="afii10021" unicode="&#x414;" horiz-adv-x="765" 
d="M730 -160h-92v160h-521v-160h-92v246h77q30 66 49.5 130.5t31.5 138.5t17 164.5t5 207.5h435v-641h90v-246zM544 86v555h-251q0 -171 -22.5 -311t-67.5 -244h341z" />
    <glyph glyph-name="afii10022" unicode="&#x415;" horiz-adv-x="595" 
d="M530 0h-430v727h430v-86h-334v-223h304v-86h-304v-246h334v-86z" />
    <glyph glyph-name="afii10024" unicode="&#x416;" horiz-adv-x="930" 
d="M417 376l-296 -376h-116l312 382l-291 345h114l277 -340v340h96v-340l281 340h110l-292 -341l313 -386h-117l-295 376v-376h-96v376z" />
    <glyph glyph-name="afii10025" unicode="&#x417;" horiz-adv-x="605" 
d="M60 121q40 -21 90 -33t98 -12q100 0 146 30.5t46 96.5q0 129 -181 129h-84v86h63q90 0 133.5 30t43.5 93q0 57 -36 83.5t-116 26.5q-49 0 -98.5 -9.5t-89.5 -26.5v90q48 17 95 24.5t99 7.5q128 0 187 -45.5t59 -142.5q0 -58 -36.5 -102.5t-98.5 -61.5v-4q78 -12 119 -56
t41 -114q0 -221 -283 -221q-63 0 -114 10t-83 29v92z" />
    <glyph glyph-name="afii10026" unicode="&#x418;" horiz-adv-x="770" 
d="M670 0h-96v587h-2l-365 -587h-107v727h96v-587h2l365 587h107v-727z" />
    <glyph glyph-name="afii10027" unicode="&#x419;" horiz-adv-x="770" 
d="M670 0h-96v587h-2l-365 -587h-107v727h96v-587h2l365 587h107v-727zM555 921q-17 -133 -170 -133t-170 133l77 11q8 -38 30 -55t63 -17q42 0 64.5 17t29.5 55z" />
    <glyph glyph-name="afii10028" unicode="&#x41a;" horiz-adv-x="680" 
d="M196 395l332 332h126l-353 -342l374 -385h-132l-347 365v-365h-96v727h96v-332z" />
    <glyph glyph-name="afii10029" unicode="&#x41b;" horiz-adv-x="750" 
d="M650 0h-96v641h-261q0 -183 -10 -308t-34.5 -201t-66 -109t-104.5 -33q-18 0 -38 4v92q16 -4 33 -4q35 0 59 33.5t39 109.5t21.5 199t6.5 303h451v-727z" />
    <glyph glyph-name="afii10030" unicode="&#x41c;" horiz-adv-x="900" 
d="M800 0h-96v640h-2l-201 -490h-100l-203 490h-2v-640h-96v727h156l198 -480l190 480h156v-727z" />
    <glyph glyph-name="afii10031" unicode="&#x41d;" horiz-adv-x="780" 
d="M680 0h-96v335h-388v-335h-96v727h96v-306h388v306h96v-727z" />
    <glyph glyph-name="afii10032" unicode="&#x41e;" horiz-adv-x="820" 
d="M410 76q118 0 179 74t61 214q0 147 -59.5 217t-180.5 70q-122 0 -181 -69.5t-59 -217.5q0 -139 62 -213.5t178 -74.5zM410 -10q-81 0 -144.5 25t-107 73t-66 117.5t-22.5 158.5q0 88 23 157.5t66.5 117.5t107 73t143.5 25q81 0 144 -25t106.5 -72.5t66.5 -117t23 -158.5
t-23 -158.5t-66.5 -117.5t-107 -73t-143.5 -25z" />
    <glyph glyph-name="afii10033" unicode="&#x41f;" horiz-adv-x="750" 
d="M650 0h-96v641h-358v-641h-96v727h550v-727z" />
    <glyph glyph-name="afii10034" unicode="&#x420;" horiz-adv-x="625" 
d="M196 354h115q47 0 79.5 9t52.5 27t28.5 45t8.5 64q0 38 -8.5 65t-28.5 44t-52.5 25t-79.5 8h-115v-287zM196 0h-96v727h220q132 0 196 -53.5t64 -172.5q0 -114 -65.5 -173.5t-203.5 -59.5h-115v-268z" />
    <glyph glyph-name="afii10035" unicode="&#x421;" horiz-adv-x="670" 
d="M600 16q-30 -14 -72 -20t-99 -6q-171 0 -265 91.5t-94 278.5t94.5 282t277.5 95q54 0 93 -6.5t65 -14.5v-88q-18 6 -39 10.5t-41.5 7.5t-38.5 4t-31 1q-75 0 -128 -17t-87 -52.5t-49.5 -89.5t-15.5 -128q0 -143 70 -215.5t213 -72.5q32 0 69 5.5t78 22.5v-88z" />
    <glyph glyph-name="afii10036" unicode="&#x422;" horiz-adv-x="590" 
d="M343 0h-96v641h-227v86h550v-86h-227v-641z" />
    <glyph glyph-name="afii10037" unicode="&#x423;" 
d="M112 90q17 -7 36 -10.5t36 -3.5q33 0 55 17t42 60l8 17l-284 557h105l228 -457l182 457h95l-249 -589q-17 -41 -35 -69.5t-39 -46t-45.5 -25t-55.5 -7.5q-44 0 -79 16v84z" />
    <glyph glyph-name="afii10038" unicode="&#x424;" horiz-adv-x="880" 
d="M488 165h16q116 0 166 49t50 152q0 105 -50.5 153t-165.5 48h-16v-402zM392 165v402h-17q-113 0 -164 -49t-51 -152q0 -100 51.5 -150.5t163.5 -50.5h17zM488 -10h-96v89h-17q-149 0 -232 71t-83 216q0 70 22 123.5t63.5 90t99.5 55t130 18.5h17v84h96v-84h16
q152 0 234 -70.5t82 -216.5q0 -72 -21.5 -126t-62 -89.5t-99.5 -53.5t-133 -18h-16v-89z" />
    <glyph glyph-name="afii10039" unicode="&#x425;" horiz-adv-x="650" 
d="M520 0l-197 308l-199 -308h-114l256 378l-231 349h115l175 -285l181 285h109l-230 -347l255 -380h-120z" />
    <glyph glyph-name="afii10040" unicode="&#x426;" horiz-adv-x="765" 
d="M730 -160h-92v160h-538v727h96v-641h348v641h96v-641h90v-246z" />
    <glyph glyph-name="afii10041" unicode="&#x427;" horiz-adv-x="670" 
d="M570 0h-96v302q-37 -11 -77 -18t-92 -7q-58 0 -102 11t-73.5 35.5t-44.5 63t-15 93.5v247h96v-225q0 -41 8.5 -67.5t28 -42.5t51 -22.5t77.5 -6.5q41 0 78 6t65 17v341h96v-727z" />
    <glyph glyph-name="afii10042" unicode="&#x428;" horiz-adv-x="980" 
d="M880 0h-780v727h96v-641h246v641h96v-641h246v641h96v-727z" />
    <glyph glyph-name="afii10043" unicode="&#x429;" horiz-adv-x="1005" 
d="M970 -160h-92v160h-778v727h96v-641h247v641h96v-641h245v641h96v-641h90v-246z" />
    <glyph glyph-name="afii10044" unicode="&#x42a;" horiz-adv-x="715" 
d="M286 86h89q24 0 56 2.5t60.5 16t48.5 43t20 83.5q0 51 -18.5 78.5t-46 40t-60 15t-60.5 2.5h-89v-281zM190 0v641h-170v86h266v-274h89q24 0 54 -1t62 -7t62 -19.5t54 -38t38.5 -63t14.5 -93.5q0 -57 -15.5 -96.5t-40.5 -65.5t-56.5 -40t-63 -20.5t-60.5 -7.5t-49 -1
h-185z" />
    <glyph glyph-name="afii10045" unicode="&#x42b;" horiz-adv-x="880" 
d="M196 86h77q57 0 93 10.5t57 30t29 46.5t8 60q0 36 -9 61.5t-30 41.5t-56.5 23.5t-89.5 7.5h-79v-281zM100 0v727h96v-274h81q76 0 130 -12t88 -38t49.5 -68t15.5 -102q0 -64 -20 -108.5t-57 -72t-90 -40t-120 -12.5h-173zM780 0h-96v727h96v-727z" />
    <glyph glyph-name="afii10046" unicode="&#x42c;" horiz-adv-x="625" 
d="M196 86h89q24 0 56 2.5t60.5 16t48.5 43t20 83.5q0 51 -18.5 78.5t-46 40t-60 15t-60.5 2.5h-89v-281zM100 0v727h96v-274h89q24 0 54 -1t62 -7t62 -19.5t54 -38t38.5 -63t14.5 -93.5q0 -57 -15.5 -96.5t-40.5 -65.5t-56.5 -40t-63 -20.5t-60.5 -7.5t-49 -1h-185z" />
    <glyph glyph-name="afii10047" unicode="&#x42d;" horiz-adv-x="680" 
d="M185 418h324q-5 115 -72 174t-192 59q-50 0 -96.5 -8.5t-78.5 -22.5v86q30 14 81 22.5t107 8.5q352 0 352 -361q0 -191 -97.5 -288.5t-288.5 -97.5q-41 0 -79 5t-75 16v86q30 -10 73.5 -15.5t85.5 -5.5q139 0 207.5 63.5t73.5 192.5h-325v86z" />
    <glyph glyph-name="afii10048" unicode="&#x42e;" horiz-adv-x="1060" 
d="M658 -10q-155 0 -238.5 87t-90.5 255h-133v-332h-96v727h96v-309h135q7 75 33 134.5t67 100.5t97.5 62.5t125.5 21.5q171 0 253.5 -96t82.5 -277q0 -95 -23.5 -165t-66.5 -116.5t-104.5 -69.5t-137.5 -23zM666 76q112 0 168 69.5t56 218.5q0 81 -15 136t-45 88.5t-74 48
t-102 14.5q-51 0 -93.5 -16.5t-72.5 -52t-46.5 -89.5t-16.5 -129q0 -150 62.5 -219t178.5 -69z" />
    <glyph glyph-name="afii10049" unicode="&#x42f;" horiz-adv-x="665" 
d="M145 0h-110l201 308q-32 10 -61 26t-51 40.5t-34.5 58t-12.5 77.5q0 57 19 98.5t54.5 67.5t86 38.5t112.5 12.5h216v-727h-96v291h-133zM469 377v264h-143q-64 0 -106.5 -32.5t-42.5 -98.5q0 -67 46.5 -100t127.5 -33h118z" />
    <glyph glyph-name="afii10065" unicode="&#x430;" horiz-adv-x="585" 
d="M413 250q-30 3 -59 4t-46 1q-51 0 -83.5 -6.5t-51.5 -18t-26.5 -28t-7.5 -35.5q0 -40 28 -68t93 -28q74 0 113.5 39t39.5 103v37zM505 0h-88v66h-2q-13 -15 -29.5 -28.5t-38 -24t-48.5 -16.5t-62 -6q-90 0 -141 43.5t-51 124.5q0 83 58.5 124.5t179.5 41.5
q32 0 69.5 -2.5t60.5 -4.5v33q0 15 -2 36t-15 40.5t-41 33t-80 13.5q-46 0 -93 -9.5t-82 -26.5v82q38 17 87.5 25.5t100.5 8.5q81 0 125.5 -21t64.5 -54.5t23.5 -75.5t3.5 -83v-320z" />
    <glyph glyph-name="afii10066" unicode="&#x431;" horiz-adv-x="655" 
d="M142 423q24 60 78 91t135 31q121 0 183 -69t62 -203q0 -66 -17 -118t-50 -88.5t-81.5 -56t-111.5 -19.5q-78 0 -131.5 23.5t-86.5 68t-47.5 107.5t-14.5 141q0 129 18.5 215t61 138.5t111 76.5t169.5 30q30 2 58 5.5t57 11.5v-86q-13 -4 -25.5 -7t-27 -5t-32 -4t-40.5 -4
q-74 -7 -124 -20t-80.5 -43t-45.5 -81.5t-20 -134.5h2zM159 273q0 -45 10.5 -82t33 -64t57 -41.5t81.5 -14.5q86 0 125.5 54t39.5 148q0 96 -40 144t-132 48q-50 0 -83.5 -15.5t-53.5 -42t-29 -61.5t-9 -73z" />
    <glyph glyph-name="afii10067" unicode="&#x432;" horiz-adv-x="585" 
d="M177 320h121q21 0 43 2t39 9.5t28 22t11 40.5q0 23 -7 37t-21 21.5t-34 10t-47 2.5h-133v-145zM177 80h149q54 0 84.5 16.5t30.5 62.5q0 28 -11 45.5t-29 26.5t-41 12t-47 3h-136v-166zM85 0v545h214q53 0 93 -6.5t67 -22.5t40.5 -42.5t13.5 -66.5q0 -45 -26.5 -77.5
t-73.5 -43.5v-2q60 -8 91 -40t31 -91q0 -45 -15 -74.5t-42.5 -47t-66.5 -24.5t-86 -7h-240z" />
    <glyph glyph-name="afii10068" unicode="&#x433;" horiz-adv-x="465" 
d="M177 0h-92v545h370v-80h-278v-465z" />
    <glyph glyph-name="afii10069" unicode="&#x434;" horiz-adv-x="660" 
d="M625 -150h-88v150h-424v-150h-88v230h63q22 37 38 80.5t25.5 98.5t14 125t4.5 161h370v-465h85v-230zM448 80v385h-198q0 -62 -5 -119t-14 -106.5t-22.5 -90.5t-29.5 -69h269z" />
    <glyph glyph-name="afii10070" unicode="&#x435;" horiz-adv-x="615" 
d="M521 28q-23 -15 -67 -26t-104 -11q-150 0 -222.5 74t-72.5 210q0 64 17.5 115.5t51 88t81.5 56t108 19.5q69 0 117 -21t78 -58t43.5 -88t13.5 -110v-29h-416q7 -92 56.5 -134.5t154.5 -42.5q58 0 95.5 11t65.5 27v-81zM471 322q0 33 -9 60.5t-28 48t-47.5 32t-68.5 11.5
q-78 0 -119 -38.5t-50 -113.5h322z" />
    <glyph glyph-name="afii10072" unicode="&#x436;" horiz-adv-x="780" 
d="M436 293l210 252h108l-226 -258l247 -287h-114l-225 273v-273h-92v273l-227 -273h-112l246 284l-225 261h110l208 -252v252h92v-252z" />
    <glyph glyph-name="afii10073" unicode="&#x437;" horiz-adv-x="530" 
d="M341 289q67 -10 103 -43.5t36 -88.5q0 -80 -65.5 -123t-183.5 -43q-46 0 -92 8t-99 30v84q42 -19 91.5 -30.5t92.5 -11.5q162 0 162 89q0 45 -39 65.5t-122 20.5h-70v74h76q60 0 97 21.5t37 56.5q0 42 -33 59t-114 17q-32 0 -77.5 -8t-83.5 -22v82q38 13 84.5 20.5
t91.5 7.5q119 0 172.5 -34t53.5 -111q0 -24 -10 -44t-26.5 -34.5t-37.5 -24.5t-44 -15v-2z" />
    <glyph glyph-name="afii10074" unicode="&#x438;" horiz-adv-x="650" 
d="M85 0v545h92v-414h2l297 414h89v-545h-92v414h-2l-299 -414h-87z" />
    <glyph glyph-name="afii10075" unicode="&#x439;" horiz-adv-x="650" 
d="M85 0v545h92v-414h2l297 414h89v-545h-92v414h-2l-299 -414h-87zM500 765q-7 -67 -52.5 -103.5t-122.5 -36.5q-76 0 -121.5 36.5t-53.5 103.5l77 10q6 -37 31.5 -57.5t66.5 -20.5q42 0 67 20t31 58z" />
    <glyph glyph-name="afii10076" unicode="&#x43a;" horiz-adv-x="575" 
d="M177 293l249 252h119l-267 -260l292 -285h-123l-270 273v-273h-92v545h92v-252z" />
    <glyph glyph-name="afii10077" unicode="&#x43b;" horiz-adv-x="630" 
d="M76 -9q-11 0 -23.5 0.5t-22.5 2.5v86q8 -2 14.5 -2.5t14.5 -0.5q29 0 49 23t32 77.5t17 144.5t5 223h383v-545h-92v465h-201q0 -128 -9.5 -218t-30.5 -147t-54.5 -83t-81.5 -26z" />
    <glyph glyph-name="afii10078" unicode="&#x43c;" horiz-adv-x="750" 
d="M665 545v-545h-92v435l-153 -335h-90l-153 328v-428h-92v545h131l163 -362l162 362h124z" />
    <glyph glyph-name="afii10079" unicode="&#x43d;" horiz-adv-x="650" 
d="M565 0h-92v243h-296v-243h-92v545h92v-222h296v222h92v-545z" />
    <glyph glyph-name="afii10080" unicode="&#x43e;" horiz-adv-x="640" 
d="M319 71q89 0 130.5 49.5t41.5 152.5q0 102 -39.5 151.5t-132.5 49.5q-170 0 -170 -201q0 -104 44.5 -153t125.5 -49zM319 -9q-134 0 -199 72.5t-65 209.5q0 132 67 206.5t197 74.5q133 0 199.5 -71.5t66.5 -209.5q0 -65 -18 -117.5t-52 -89t-83.5 -56t-112.5 -19.5z" />
    <glyph glyph-name="afii10081" unicode="&#x43f;" horiz-adv-x="640" 
d="M555 0h-92v465h-286v-465h-92v545h470v-545z" />
    <glyph glyph-name="afii10082" unicode="&#x440;" horiz-adv-x="670" 
d="M177 -225h-92v770h88v-76h2q64 85 195 85q65 0 111.5 -19.5t76 -55t43.5 -84.5t14 -109q0 -63 -14.5 -116.5t-44.5 -93.5t-76.5 -62.5t-110.5 -22.5q-26 0 -52.5 4t-51.5 13.5t-47 26t-38 41.5h-3v-301zM354 71q88 0 127.5 54.5t39.5 157.5q0 46 -8.5 81.5t-28.5 60
t-53 37t-83 12.5q-84 0 -127.5 -55.5t-43.5 -147.5q0 -93 44.5 -146.5t132.5 -53.5z" />
    <glyph glyph-name="afii10083" unicode="&#x441;" horiz-adv-x="550" 
d="M495 14q-26 -11 -67 -17t-84 -6q-141 0 -215 71.5t-74 208.5q0 138 74.5 210.5t214.5 72.5q35 0 70 -4.5t71 -15.5v-82q-35 12 -69 17t-67 5q-103 0 -151.5 -48.5t-48.5 -146.5q0 -102 51.5 -155t155.5 -53q35 0 74 7t65 18v-82z" />
    <glyph glyph-name="afii10084" unicode="&#x442;" horiz-adv-x="500" 
d="M296 0h-92v465h-199v80h490v-80h-199v-465z" />
    <glyph glyph-name="afii10085" unicode="&#x443;" horiz-adv-x="550" 
d="M125 -233q-20 0 -35 2t-29 6v82q25 -10 56 -10q47 0 73 25.5t47 84.5l9 25l-236 563h96l184 -456h2l160 456h88l-203 -558q-24 -65 -45.5 -107.5t-45.5 -67.5t-53 -35t-68 -10z" />
    <glyph glyph-name="afii10086" unicode="&#x444;" horiz-adv-x="800" 
d="M354 -7q-11 -1 -21.5 -1.5t-20.5 -0.5q-131 0 -194 71.5t-63 211.5q0 133 64.5 206.5t193.5 73.5q10 0 20.5 -1t20.5 -2v249h92v-249q11 1 21.5 2t20.5 1q134 0 195.5 -68.5t61.5 -208.5q0 -132 -64 -209t-194 -77q-11 0 -20.5 0.5t-20.5 1.5v-213h-92v213zM354 472
q-9 1 -18.5 1.5t-22.5 0.5q-79 0 -121.5 -46.5t-42.5 -157.5q0 -103 41.5 -151t131.5 -48h16t16 1v400zM446 72q10 -1 20.5 -1h20.5q79 0 121.5 49t42.5 160q0 103 -40 148.5t-134 45.5q-7 0 -15 -0.5t-16 -1.5v-400z" />
    <glyph glyph-name="afii10087" unicode="&#x445;" horiz-adv-x="540" 
d="M530 0h-111l-151 214l-149 -214h-109l207 285l-187 260h111l136 -194l131 194h103l-184 -260z" />
    <glyph glyph-name="afii10088" unicode="&#x446;" horiz-adv-x="665" 
d="M630 -150h-88v150h-457v545h92v-465h276v465h92v-465h85v-230z" />
    <glyph glyph-name="afii10089" unicode="&#x447;" horiz-adv-x="585" 
d="M500 0h-92v215q-33 -9 -74 -14.5t-76 -5.5q-203 0 -203 164v186h92v-160q0 -59 32.5 -84.5t104.5 -25.5q65 0 124 18v252h92v-545z" />
    <glyph glyph-name="afii10090" unicode="&#x448;" horiz-adv-x="860" 
d="M775 0h-690v545h92v-465h207v465h92v-465h207v465h92v-545z" />
    <glyph glyph-name="afii10091" unicode="&#x449;" horiz-adv-x="895" 
d="M860 -150h-88v150h-687v545h92v-465h207v465h92v-465h207v465h92v-465h85v-230z" />
    <glyph glyph-name="afii10092" unicode="&#x44a;" horiz-adv-x="640" 
d="M252 80h123q65 0 95.5 22.5t30.5 73.5q0 30 -10 48.5t-27.5 29t-42 14t-54.5 3.5h-115v-191zM160 0v465h-155v80h247v-194h117q49 0 90.5 -8t71.5 -27.5t47 -51.5t17 -80q0 -47 -16 -82t-44.5 -57.5t-66.5 -33.5t-81 -11h-227z" />
    <glyph glyph-name="afii10093" unicode="&#x44b;" horiz-adv-x="771" 
d="M177 80h107q65 0 96 22t31 74q0 30 -9.5 48.5t-27 29t-42 14t-54.5 3.5h-101v-191zM85 0v545h92v-194h102q49 0 90.5 -8t71.5 -27.5t47 -51.5t17 -80q0 -47 -16.5 -82t-44.5 -57.5t-66.5 -33.5t-81.5 -11h-211zM686 0h-92v545h92v-545z" />
    <glyph glyph-name="afii10094" unicode="&#x44c;" horiz-adv-x="565" 
d="M177 80h122q63 0 95 22.5t32 74.5q0 30 -10 48t-28 28.5t-42.5 14t-53.5 3.5h-115v-191zM85 0v545h92v-194h117q49 0 90.5 -8t71.5 -27.5t47 -51.5t17 -80q0 -47 -16.5 -82t-44.5 -57.5t-66.5 -33.5t-81.5 -11h-226z" />
    <glyph glyph-name="afii10095" unicode="&#x44d;" horiz-adv-x="545" 
d="M50 92q32 -10 65 -15.5t74 -5.5q104 0 152 41t53 131h-254v80h252q-10 81 -59.5 116t-149.5 35q-42 0 -77.5 -8.5t-55.5 -16.5v80q20 9 57 17t91 8q150 0 221 -71t71 -203q0 -143 -77.5 -216t-222.5 -73q-74 0 -140 21v80v0z" />
    <glyph glyph-name="afii10096" unicode="&#x44e;" horiz-adv-x="860" 
d="M547 -9q-124 0 -188.5 65t-72.5 187h-109v-243h-92v545h92v-222h111q12 109 76 170t177 61q134 0 199 -71.5t65 -209.5q0 -65 -17.5 -117.5t-50.5 -89t-81 -56t-109 -19.5zM541 71q87 0 128.5 49.5t41.5 152.5q0 102 -39 151.5t-131 49.5q-78 0 -120.5 -49t-42.5 -152
q0 -104 44.5 -153t118.5 -49z" />
    <glyph glyph-name="afii10097" unicode="&#x44f;" horiz-adv-x="590" 
d="M297 208l-145 -208h-107l154 217q-28 6 -51.5 18.5t-41 31.5t-27 45.5t-9.5 62.5q0 43 16.5 75t45 53t66.5 31.5t80 10.5h227v-545h-92v208h-116zM413 288v177h-126q-63 0 -93 -21.5t-30 -70.5q0 -26 9.5 -42.5t27.5 -26t42.5 -13t54.5 -3.5h115z" />
    <glyph glyph-name="afii10071" unicode="&#x451;" horiz-adv-x="615" 
d="M521 28q-23 -15 -67 -26t-104 -11q-150 0 -222.5 74t-72.5 210q0 64 17.5 115.5t51 88t81.5 56t108 19.5q69 0 117 -21t78 -58t43.5 -88t13.5 -110v-29h-416q7 -92 56.5 -134.5t154.5 -42.5q58 0 95.5 11t65.5 27v-81zM471 322q0 33 -9 60.5t-28 48t-47.5 32t-68.5 11.5
q-78 0 -119 -38.5t-50 -113.5h322zM475 700q0 -25 -16 -41t-41 -16t-41 16t-16 41t16 41t41 16t41 -16t16 -41zM259 700q0 -25 -16 -41t-41 -16t-41 16t-16 41t16 41t41 16t41 -16t16 -41z" />
    <glyph glyph-name="afii10099" unicode="&#x452;" horiz-adv-x="675" 
d="M435 635h-238v-176h2q31 50 79.5 72.5t113.5 22.5q52 0 91.5 -14.5t66.5 -47.5t41 -87.5t14 -134.5q0 -67 -7.5 -132.5t-30 -125t-63 -110t-106.5 -86.5l-63 46q55 32 89.5 71.5t54 89t26 111t6.5 136.5q0 46 -7.5 83.5t-25 64.5t-45.5 41.5t-69 14.5q-86 0 -126.5 -56
t-40.5 -158v-260h-92v635h-105v70h105v95h92v-95h238v-70z" />
    <glyph glyph-name="afii10100" unicode="&#x453;" horiz-adv-x="465" 
d="M177 0h-92v545h370v-80h-278v-465zM304 630h-84l90 140h130z" />
    <glyph glyph-name="afii10101" unicode="&#x454;" horiz-adv-x="540" 
d="M343 -9q-75 0 -129 20t-89.5 57t-52.5 90t-17 119q0 134 74 205.5t213 71.5q51 0 83.5 -7.5t54.5 -14.5v-79q-21 7 -53.5 14t-75.5 7q-86 0 -136.5 -36.5t-60.5 -114.5h241v-80h-241q11 -88 63.5 -130t141.5 -42q43 0 77.5 8t53.5 16v-79q-20 -9 -57.5 -17t-89.5 -8z" />
    <glyph glyph-name="afii10102" unicode="&#x455;" horiz-adv-x="475" 
d="M61 107q35 -18 75 -27t78 -9q61 0 89 20.5t28 64.5q0 28 -20.5 44.5t-51 29t-66.5 24t-66.5 29.5t-51 45.5t-20.5 71.5q0 72 54 113t152 41q16 0 35.5 -1.5t38 -4.5t34.5 -6.5t27 -6.5v-82q-25 10 -61.5 15.5t-68.5 5.5q-61 0 -89 -16.5t-28 -48.5q0 -28 20.5 -43.5
t51 -27.5t66.5 -23t66.5 -30t51 -49.5t20.5 -79.5q0 -79 -54.5 -122t-158.5 -43q-40 0 -78.5 8.5t-72.5 23.5v84z" />
    <glyph glyph-name="afii10103" unicode="&#x456;" horiz-adv-x="263" 
d="M177 0h-92v545h92v-545zM187 700q0 -25 -16.5 -41.5t-41.5 -16.5t-41.5 16.5t-16.5 41.5t16.5 41.5t41.5 16.5t41.5 -16.5t16.5 -41.5z" />
    <glyph glyph-name="afii10104" unicode="&#x457;" horiz-adv-x="262" 
d="M177 0h-92v545h92v-545zM101 700q0 -25 -16 -41t-41 -16t-41.5 16t-16.5 41t16.5 41t41.5 16t41 -16t16 -41zM277 700q0 -25 -16 -41t-41 -16t-41 16t-16 41t16 41t41 16t41 -16t16 -41z" />
    <glyph glyph-name="afii10105" unicode="&#x458;" horiz-adv-x="262" 
d="M-44 -149q10 -2 20.5 -3.5t22.5 -1.5q46 0 66.5 26t20.5 91v582h92v-561q0 -60 -9 -102t-29 -67.5t-52.5 -37t-79.5 -11.5q-12 0 -24 1t-28 4v80zM190 700q0 -25 -16.5 -41.5t-41.5 -16.5t-41.5 16.5t-16.5 41.5t16.5 41.5t41.5 16.5t41.5 -16.5t16.5 -41.5z" />
    <glyph glyph-name="afii10106" unicode="&#x459;" horiz-adv-x="913" 
d="M453 0v465h-201q0 -128 -9.5 -218t-30.5 -147t-54.5 -83t-81.5 -26q-11 0 -23 0.5t-23 2.5v86q8 -2 14.5 -2.5t14.5 -0.5q29 0 48.5 23t31.5 77.5t17.5 144t5.5 223.5h383v-212h108q11 0 31 -1t43.5 -5.5t48.5 -14t45.5 -27.5t33.5 -45.5t13 -67.5q0 -43 -13.5 -72
t-35 -48.5t-47 -30t-49.5 -15t-43 -5.5t-27 -1h-200zM545 80h103q15 0 36 1.5t40.5 9.5t33 26t13.5 50t-13.5 49.5t-33 25.5t-40.5 9.5t-36 1.5h-103v-173z" />
    <glyph glyph-name="afii10107" unicode="&#x45a;" horiz-adv-x="913" 
d="M453 545h92v-212h108q11 0 31 -1t43.5 -5.5t48.5 -14t45.5 -27.5t33.5 -45.5t13 -67.5q0 -43 -13.5 -72t-35 -48.5t-47 -30t-49.5 -15t-43 -5.5t-27 -1h-200v253h-276v-253h-92v545h92v-212h276v212zM545 80h103q15 0 36 1.5t40.5 9.5t33 26t13.5 50t-13.5 49.5t-33 25.5
t-40.5 9.5t-36 1.5h-103v-173z" />
    <glyph glyph-name="afii10108" unicode="&#x45b;" horiz-adv-x="675" 
d="M105 635h-105v70h105v95h92v-95h238v-70h-238v-176h2q31 50 79 72.5t105 22.5q110 0 161 -54.5t51 -175.5v-324h-92v282q0 55 -7 92t-23.5 59t-43 31.5t-65.5 9.5q-86 0 -126.5 -56.5t-40.5 -165.5v-252h-92v635z" />
    <glyph glyph-name="afii10109" unicode="&#x45c;" horiz-adv-x="575" 
d="M177 293l249 252h119l-267 -260l292 -285h-123l-270 273v-273h-92v545h92v-252zM324 630h-84l90 140h130z" />
    <glyph glyph-name="afii10110" unicode="&#x45e;" horiz-adv-x="550" 
d="M125 -233q-20 0 -35 2t-29 6v82q25 -10 56 -10q47 0 73 25.5t47 84.5l9 25l-236 563h96l184 -456h2l160 456h88l-203 -558q-24 -65 -45.5 -107.5t-45.5 -67.5t-53 -35t-68 -10zM454 765q-7 -67 -52.5 -103.5t-122.5 -36.5q-76 0 -121.5 36.5t-53.5 103.5l77 10
q6 -37 31.5 -57.5t66.5 -20.5q42 0 67 20t31 58z" />
    <glyph glyph-name="afii10193" unicode="&#x45f;" horiz-adv-x="640" 
d="M276 0h-191v545h92v-465h286v465h92v-545h-191v-150h-88v150z" />
    <glyph glyph-name="afii10146" unicode="&#x462;" horiz-adv-x="720" 
d="M205 545h-185v86h185v106h96v-106h204v-86h-204v-112h84q22 0 51.5 -1t61 -6.5t61.5 -18.5t53.5 -36.5t38 -60t14.5 -89.5q0 -55 -15.5 -93t-40.5 -62.5t-56 -38t-62 -19.5t-59 -7t-47 -1h-180v545zM385 86q22 0 53 2t59.5 15t48 40t19.5 78q0 47 -18.5 72.5t-45.5 37.5
t-58.5 14t-57.5 2h-84v-261h84z" />
    <glyph glyph-name="afii10194" unicode="&#x463;" horiz-adv-x="649" 
d="M169 465h-164v80h164v255h92v-255h204v-80h-204v-114h118q14 0 36 -1t47 -5.5t50 -14.5t45.5 -29t33.5 -48.5t13 -71.5q0 -45 -13.5 -76t-35 -51t-47.5 -31t-51 -16t-46 -6t-32 -1h-210v465zM374 80q19 0 42.5 1.5t44.5 10.5t35 28.5t14 55.5t-14 55t-35 28t-44.5 10.5
t-42.5 1.5h-113v-191h113z" />
    <glyph glyph-name="afii10147" unicode="&#x472;" horiz-adv-x="820" 
d="M410 -10q-81 0 -144.5 25t-107 73t-66 117.5t-22.5 158.5q0 88 23 157.5t66.5 117.5t107 73t143.5 25q81 0 144 -25t106.5 -72.5t66.5 -117t23 -158.5t-23 -158.5t-66.5 -117.5t-107 -73t-143.5 -25zM410 651q-114 0 -172.5 -60t-66.5 -189h478q-8 128 -67.5 188.5
t-171.5 60.5zM410 76q109 0 169.5 63.5t69.5 186.5h-478q9 -121 70.5 -185.5t168.5 -64.5z" />
    <glyph glyph-name="afii10195" unicode="&#x473;" horiz-adv-x="640" 
d="M320 -9q-134 0 -199.5 72.5t-65.5 209.5q0 133 67 207t198 74q132 0 198.5 -71.5t66.5 -209.5q0 -65 -18 -117.5t-51.5 -89t-83 -56t-112.5 -19.5zM490 308q-6 84 -46 125t-124 41q-155 0 -170 -166h340zM320 71q157 0 170 167h-340q8 -86 51.5 -126.5t118.5 -40.5z" />
    <glyph glyph-name="afii10148" unicode="&#x474;" horiz-adv-x="755" 
d="M394 0h-118l-266 727h102l225 -637h2l165 474q17 49 35 82.5t39.5 53.5t48 28.5t62.5 8.5q32 0 61 -7v-86q-29 7 -54 7q-14 0 -27 -2.5t-25.5 -11.5t-24 -26t-21.5 -45z" />
    <glyph glyph-name="afii10196" unicode="&#x475;" horiz-adv-x="590" 
d="M10 545h96l163 -455h2l105 303q12 36 24 66t29.5 51t43 32.5t65.5 11.5q10 0 20.5 -1t26.5 -5v-80q-26 6 -44 6q-19 0 -31 -5.5t-21 -16t-15 -25.5t-13 -34l-142 -393h-108z" />
    <glyph glyph-name="afii10050" unicode="&#x490;" horiz-adv-x="520" 
d="M100 727h308v135h92v-221h-304v-641h-96v727z" />
    <glyph glyph-name="afii10098" unicode="&#x491;" horiz-adv-x="465" 
d="M177 0h-92v545h282v130h88v-210h-278v-465z" />
    <glyph glyph-name="uni0492" unicode="&#x492;" horiz-adv-x="565" 
d="M135 342h-110v86h110v299h410v-86h-314v-213h209v-86h-209v-342h-96v342z" />
    <glyph glyph-name="uni0493" unicode="&#x493;" horiz-adv-x="485" 
d="M20 305h85v240h370v-80h-278v-160h179v-80h-179v-225h-92v225h-85v80z" />
    <glyph glyph-name="uni0496" unicode="&#x496;" horiz-adv-x="970" 
d="M853 0h-45l-295 376v-376h-96v376l-296 -376h-116l312 382l-292 345h114l278 -340v340h96v-340l282 340h110l-293 -341l243 -300h90v-246h-92v160z" />
    <glyph glyph-name="uni0497" unicode="&#x497;" horiz-adv-x="805" 
d="M702 0h-41l-225 273v-273h-92v273l-227 -273h-112l246 284l-226 261h110l209 -252v252h92v-252l211 252h108l-227 -258l178 -207h84v-230h-88v150z" />
    <glyph glyph-name="uni0498" unicode="&#x498;" horiz-adv-x="605" 
d="M229 -9q-57 3 -100 12.5t-69 25.5v95q40 -23 90 -35.5t98 -12.5q100 0 146 30.5t46 96.5q0 129 -181 129h-84v86h63q90 0 133.5 30t43.5 93q0 57 -36 83.5t-116 26.5q-49 0 -98.5 -9.5t-89.5 -26.5v90q48 17 95 24.5t99 7.5q128 0 187 -45.5t59 -142.5
q0 -58 -36.5 -102.5t-98.5 -61.5v-4q78 -12 119 -56t41 -114q0 -194 -219 -218v-153h-92v151z" />
    <glyph glyph-name="uni0499" unicode="&#x499;" horiz-adv-x="530" 
d="M196 -8q-38 2 -76 10t-80 25v90q42 -19 91.5 -32.5t92.5 -13.5q162 0 162 89q0 45 -39 65.5t-122 20.5h-70v74h76q60 0 97 21.5t37 56.5q0 42 -33 59t-114 17q-16 0 -36 -2t-41.5 -6t-43 -10.5t-40.5 -14.5v85q38 13 84.5 20.5t91.5 7.5q119 0 172.5 -34t53.5 -111
q0 -24 -10 -44t-26.5 -34.5t-37.5 -24.5t-44 -15v-2q67 -10 103 -43.5t36 -88.5q0 -71 -51 -112.5t-145 -51.5v-143h-88v142z" />
    <glyph glyph-name="uni049A" unicode="&#x49a;" horiz-adv-x="705" 
d="M588 0h-45l-347 365v-365h-96v727h96v-332l333 332h126l-354 -342l290 -299h89v-246h-92v160z" />
    <glyph glyph-name="uni049B" unicode="&#x49b;" horiz-adv-x="585" 
d="M487 0h-40l-270 273v-273h-92v545h92v-252l249 252h119l-267 -260l210 -205h87v-230h-88v150z" />
    <glyph glyph-name="uni049C" unicode="&#x49c;" horiz-adv-x="780" 
d="M100 727h96v-302h56v129h76v-129h18l283 302h126l-334 -342l354 -385h-132l-306 343h-9v-129h-76v129h-56v-343h-96v727z" />
    <glyph glyph-name="uni049D" unicode="&#x49d;" horiz-adv-x="655" 
d="M85 545h92v-222h55v100h62v-100h12l200 222h119l-247 -258l272 -287h-123l-218 243h-15v-100h-62v100h-55v-243h-92v545z" />
    <glyph glyph-name="uni04A0" unicode="&#x4a0;" horiz-adv-x="765" 
d="M185 641h-165v86h261v-332l333 332h126l-354 -342l374 -385h-132l-347 365v-365h-96v641z" />
    <glyph glyph-name="uni04A1" unicode="&#x4a1;" horiz-adv-x="645" 
d="M5 545h242v-252l249 252h119l-267 -260l292 -285h-123l-270 273v-273h-92v465h-150v80z" />
    <glyph glyph-name="uni04A2" unicode="&#x4a2;" horiz-adv-x="805" 
d="M678 0h-94v335h-388v-335h-96v727h96v-306h388v306h96v-641h90v-246h-92v160z" />
    <glyph glyph-name="uni04A3" unicode="&#x4a3;" horiz-adv-x="685" 
d="M562 0h-89v243h-296v-243h-92v545h92v-222h296v222h92v-465h85v-230h-88v150z" />
    <glyph glyph-name="uni04AA" unicode="&#x4aa;" horiz-adv-x="670" 
d="M354 -5q-137 19 -210.5 109t-73.5 256q0 187 94.5 282t277.5 95q54 0 92.5 -6.5t64.5 -14.5v-88q-18 6 -39 10.5t-41 7.5t-38 4t-31 1q-75 0 -128 -17t-87 -52.5t-49.5 -89.5t-15.5 -128q0 -143 70 -215.5t213 -72.5q32 0 69 5.5t78 22.5v-88q-50 -25 -154 -26v-150h-92
v155z" />
    <glyph glyph-name="uni04AB" unicode="&#x4ab;" horiz-adv-x="550" 
d="M495 16q-21 -9 -53.5 -15.5t-67.5 -8.5v-142h-88v144q-113 15 -172 85.5t-59 191.5q0 138 74.5 210.5t214.5 72.5q71 0 141 -22v-80q-35 11 -69 16.5t-67 5.5q-103 0 -151.5 -48.5t-48.5 -146.5q0 -102 51.5 -155t155.5 -53q35 0 74 7t65 18v-80z" />
    <glyph glyph-name="uni04AE" unicode="&#x4ae;" horiz-adv-x="645" 
d="M370 0h-96v300l-269 427h112l208 -336l207 336h108l-270 -427v-300z" />
    <glyph glyph-name="uni04AF" unicode="&#x4af;" horiz-adv-x="530" 
d="M219 1l-209 544h96l163 -445l163 445h88l-209 -545v-225h-92v226z" />
    <glyph glyph-name="uni04B0" unicode="&#x4b0;" horiz-adv-x="645" 
d="M274 231h-184v86h174l-259 410h112l208 -336l207 336h108l-260 -410h174v-86h-184v-231h-96v231z" />
    <glyph glyph-name="uni04B1" unicode="&#x4b1;" horiz-adv-x="530" 
d="M219 -80h-156v80h156v1l-209 544h96l163 -445l163 445h88l-209 -545h156v-80h-156v-145h-92v145z" />
    <glyph glyph-name="uni04B2" unicode="&#x4b2;" horiz-adv-x="675" 
d="M568 0h-48l-197 308l-199 -308h-114l256 378l-231 349h115l175 -285l181 285h109l-230 -347l197 -294h78v-246h-92v160z" />
    <glyph glyph-name="uni04B3" unicode="&#x4b3;" horiz-adv-x="560" 
d="M462 0h-43l-151 214l-149 -214h-109l207 285l-187 260h111l136 -194l131 194h103l-184 -260l146 -205h77v-230h-88v150z" />
    <glyph glyph-name="uni04B6" unicode="&#x4b6;" horiz-adv-x="695" 
d="M568 0h-94v302q-37 -11 -77 -18t-92 -7q-58 0 -102 11t-73.5 35.5t-44.5 63t-15 93.5v247h96v-225q0 -41 8.5 -67.5t27.5 -42.5t49.5 -22.5t74.5 -6.5q91 0 148 23v341h96v-641h90v-246h-92v160z" />
    <glyph glyph-name="uni04B7" unicode="&#x4b7;" 
d="M497 0h-89v215q-33 -9 -74 -14.5t-79 -5.5q-99 0 -149.5 41t-50.5 123v186h92v-160q0 -59 32.5 -84.5t104.5 -25.5q65 0 124 18v252h92v-465h85v-230h-88v150z" />
    <glyph glyph-name="uni04B8" unicode="&#x4b8;" horiz-adv-x="670" 
d="M474 302q-27 -8 -55.5 -14t-60.5 -9v-124h-76v123q-105 5 -158.5 51.5t-53.5 150.5v247h96v-225q0 -35 6 -59t20 -40.5t36 -25.5t54 -12v130h76v-131q32 2 62.5 7t53.5 15v341h96v-727h-96v302z" />
    <glyph glyph-name="uni04B9" unicode="&#x4b9;" horiz-adv-x="585" 
d="M408 215q-20 -5 -44.5 -9.5t-49.5 -7.5v-98h-72v95q-187 6 -187 164v186h92v-160q0 -49 22.5 -75t72.5 -32v102h72v-104q47 3 94 17v252h92v-545h-92v215z" />
    <glyph glyph-name="uni04BA" unicode="&#x4ba;" horiz-adv-x="665" 
d="M100 727h96v-289q37 11 74.5 18t88.5 7q59 0 99.5 -10.5t66.5 -28t40.5 -40t21 -46t7.5 -46.5t1 -42v-250h-96v230q0 25 -2.5 51.5t-18 47.5t-49 34.5t-95.5 13.5q-80 0 -138 -23v-354h-96v727z" />
    <glyph glyph-name="uni04BB" unicode="&#x4bb;" horiz-adv-x="655" 
d="M575 0h-92v282q0 55 -7 92t-23.5 59t-43 31.5t-65.5 9.5q-86 0 -126.5 -56.5t-40.5 -165.5v-252h-92v800h92v-341h2q31 50 79 72.5t105 22.5q110 0 161 -54.5t51 -175.5v-324z" />
    <glyph glyph-name="uni04C0" unicode="&#x4c0;" horiz-adv-x="296" 
d="M196 0h-96v727h96v-727z" />
    <glyph glyph-name="uni04CF" unicode="&#x4cf;" horiz-adv-x="262" 
d="M177 0h-92v800h92v-800z" />
    <glyph glyph-name="uni04D8" unicode="&#x4d8;" horiz-adv-x="725" 
d="M60 388h500q-2 58 -14 106.5t-40 83.5t-75 54t-120 19q-54 0 -99.5 -7t-86.5 -24v86q23 8 45 14t44.5 9.5t47 5.5t53.5 2q178 0 261.5 -96.5t83.5 -280.5q0 -35 -5.5 -76.5t-18.5 -82.5t-35.5 -79t-56.5 -67.5t-80.5 -47t-108.5 -17.5q-65 0 -119.5 20.5t-93.5 64
t-60.5 110.5t-21.5 161v42zM161 302q2 -53 13.5 -95t35 -71t59 -44.5t86.5 -15.5q54 0 91 19t61 50.5t36 72t16 84.5h-398z" />
    <glyph glyph-name="afii10846" unicode="&#x4d9;" horiz-adv-x="615" 
d="M94 523q32 14 77 22.5t95 8.5q145 0 219.5 -72t74.5 -212q0 -64 -17.5 -115.5t-51 -88t-81.5 -56t-108 -19.5q-69 0 -117 21t-78 58t-43.5 88t-13.5 110v29h416q-8 93 -57.5 135t-150.5 42q-48 0 -90 -8.5t-74 -23.5v81zM144 223q0 -33 9 -60.5t27.5 -48t47.5 -32
t69 -11.5q78 0 119 38.5t50 113.5h-322z" />
    <glyph glyph-name="uni04E2" unicode="&#x4e2;" horiz-adv-x="770" 
d="M670 0h-96v587h-2l-365 -587h-107v727h96v-587h2l365 587h107v-727zM220 897h330v-74h-330v74z" />
    <glyph glyph-name="uni04E3" unicode="&#x4e3;" horiz-adv-x="650" 
d="M85 0v545h92v-414h2l297 414h89v-545h-92v414h-2l-299 -414h-87zM170 737h310v-74h-310v74z" />
    <glyph glyph-name="uni04E8" unicode="&#x4e8;" horiz-adv-x="820" 
d="M410 -10q-81 0 -144.5 25t-107 73t-66 117.5t-22.5 158.5q0 88 23 157.5t66.5 117.5t107 73t143.5 25q81 0 144 -25t106.5 -72.5t66.5 -117t23 -158.5t-23 -158.5t-66.5 -117.5t-107 -73t-143.5 -25zM410 651q-114 0 -172.5 -60t-66.5 -189h478q-8 128 -67.5 188.5
t-171.5 60.5zM410 76q109 0 169.5 63.5t69.5 186.5h-478q9 -121 70.5 -185.5t168.5 -64.5z" />
    <glyph glyph-name="uni04E9" unicode="&#x4e9;" horiz-adv-x="640" 
d="M320 -9q-134 0 -199.5 72.5t-65.5 209.5q0 133 67 207t198 74q132 0 198.5 -71.5t66.5 -209.5q0 -65 -18 -117.5t-51.5 -89t-83 -56t-112.5 -19.5zM490 308q-6 84 -46 125t-124 41q-155 0 -170 -166h340zM320 71q157 0 170 167h-340q8 -86 51.5 -126.5t118.5 -40.5z" />
    <glyph glyph-name="uni04EE" unicode="&#x4ee;" 
d="M112 90q17 -7 36 -10.5t36 -3.5q33 0 55 17t42 60l8 17l-284 557h105l228 -457l182 457h95l-249 -589q-17 -41 -35 -69.5t-39 -46t-45.5 -25t-55.5 -7.5q-44 0 -79 16v84zM150 897h330v-74h-330v74z" />
    <glyph glyph-name="uni04EF" unicode="&#x4ef;" horiz-adv-x="550" 
d="M125 -233q-20 0 -35 2t-29 6v82q25 -10 56 -10q47 0 73 25.5t47 84.5l9 25l-236 563h96l184 -456h2l160 456h88l-203 -558q-24 -65 -45.5 -107.5t-45.5 -67.5t-53 -35t-68 -10zM124 737h310v-74h-310v74z" />
    <glyph glyph-name="uni1E9E" unicode="&#x1e9e;" horiz-adv-x="710" 
d="M100 500q0 9 1 30.5t8 47.5t22.5 54.5t43.5 51.5t71.5 38t107.5 15q73 0 131.5 -22t114.5 -71l-149 -213q94 -4 146.5 -58t52.5 -148q0 -54 -18 -97.5t-52 -74t-81.5 -47t-107.5 -16.5q-25 0 -44.5 2.5t-39.5 7.5v87q25 -6 47 -8.5t42 -2.5q158 0 158 143
q0 75 -43.5 108.5t-140.5 33.5h-30v50l144 206q-53 34 -129 34q-60 0 -92 -19t-47 -44.5t-17.5 -50t-2.5 -36.5v-501h-96v500z" />
    <glyph glyph-name="uni2010" unicode="&#x2010;" horiz-adv-x="540" 
d="M445 250h-350v80h350v-80z" />
    <glyph glyph-name="uni2011" unicode="&#x2011;" horiz-adv-x="540" 
d="M445 250h-350v80h350v-80z" />
    <glyph glyph-name="figuredash" unicode="&#x2012;" 
d="M40 410h540v-80h-540v80z" />
    <glyph glyph-name="endash" unicode="&#x2013;" horiz-adv-x="720" 
d="M60 330h600v-80h-600v80z" />
    <glyph glyph-name="emdash" unicode="&#x2014;" horiz-adv-x="900" 
d="M60 330h780v-80h-780v80z" />
    <glyph glyph-name="quoteleft" unicode="&#x2018;" horiz-adv-x="330" 
d="M267 679q-45 -19 -73 -44t-35 -68q37 1 57.5 -18.5t20.5 -51.5t-19.5 -50.5t-53.5 -18.5q-36 0 -59.5 25t-23.5 79q0 30 8 61t26.5 58.5t48.5 50t73 35.5z" />
    <glyph glyph-name="quoteright" unicode="&#x2019;" horiz-adv-x="330" 
d="M63 486q45 19 73 44t35 68q-37 -1 -57.5 18.5t-20.5 51.5t19.5 50.5t53.5 18.5q36 0 59.5 -25t23.5 -79q0 -30 -8 -61t-26.5 -58.5t-48.5 -50t-73 -35.5z" />
    <glyph glyph-name="quotesinglbase" unicode="&#x201a;" horiz-adv-x="330" 
d="M63 -122q45 19 73 44t35 68q-37 -1 -57.5 18.5t-20.5 51.5t19.5 50.5t53.5 18.5q36 0 59.5 -25t23.5 -79q0 -30 -8 -61t-26.5 -58.5t-48.5 -50t-73 -35.5z" />
    <glyph glyph-name="quotedblleft" unicode="&#x201c;" horiz-adv-x="580" 
d="M267 679q-45 -19 -73 -44t-35 -68q37 1 57.5 -18.5t20.5 -51.5t-19.5 -50.5t-53.5 -18.5q-36 0 -59.5 25t-23.5 79q0 30 8 61t26.5 58.5t48 49.5t73.5 36zM517 679q-45 -19 -73 -44t-35 -68q37 1 57.5 -18.5t20.5 -51.5t-19.5 -50.5t-53.5 -18.5q-36 0 -59.5 25t-23.5 79
q0 30 8 61t26.5 58.5t48 49.5t73.5 36z" />
    <glyph glyph-name="quotedblright" unicode="&#x201d;" horiz-adv-x="580" 
d="M63 486q45 19 73 44t35 68q-37 -1 -57.5 18.5t-20.5 51.5t19.5 50.5t53.5 18.5q36 0 59.5 -25t23.5 -79q0 -30 -8 -61t-26.5 -58.5t-48.5 -50t-73 -35.5zM313 486q45 19 73 44t35 68q-37 -1 -57.5 18.5t-20.5 51.5t19.5 50.5t53.5 18.5q36 0 59.5 -25t23.5 -79
q0 -30 -8 -61t-26.5 -58.5t-48.5 -50t-73 -35.5z" />
    <glyph glyph-name="quotedblbase" unicode="&#x201e;" horiz-adv-x="580" 
d="M63 -122q45 19 73 44t35 68q-37 -1 -57.5 18.5t-20.5 51.5t19.5 50.5t53.5 18.5q36 0 59.5 -25t23.5 -79q0 -30 -8 -61t-26.5 -58.5t-48.5 -50t-73 -35.5zM313 -122q45 19 73 44t35 68q-37 -1 -57.5 18.5t-20.5 51.5t19.5 50.5t53.5 18.5q36 0 59.5 -25t23.5 -79
q0 -30 -8 -61t-26.5 -58.5t-48.5 -50t-73 -35.5z" />
    <glyph glyph-name="dagger" unicode="&#x2020;" horiz-adv-x="570" 
d="M239 465h-184v80h184v182h92v-182h184v-80h-184v-465h-92v465z" />
    <glyph glyph-name="daggerdbl" unicode="&#x2021;" horiz-adv-x="570" 
d="M239 182h-184v80h184v203h-184v80h184v182h92v-182h184v-80h-184v-203h184v-80h-184v-182h-92v182z" />
    <glyph glyph-name="bullet" unicode="&#x2022;" horiz-adv-x="500" 
d="M250 189q-31 0 -57.5 11t-46 30.5t-30.5 46t-11 57.5t11 57.5t30.5 46t46 30.5t57.5 11t57.5 -11t46 -30.5t30.5 -46t11 -57.5t-11 -57.5t-30.5 -46t-46 -30.5t-57.5 -11z" />
    <glyph glyph-name="ellipsis" unicode="&#x2026;" horiz-adv-x="910" 
d="M237 60q0 -32 -19 -50.5t-53 -18.5t-53 18.5t-19 50.5t19 50.5t53 18.5t53 -18.5t19 -50.5zM527 60q0 -32 -19 -50.5t-53 -18.5t-53 18.5t-19 50.5t19 50.5t53 18.5t53 -18.5t19 -50.5zM817 60q0 -32 -19 -50.5t-53 -18.5t-53 18.5t-19 50.5t19 50.5t53 18.5t53 -18.5
t19 -50.5z" />
    <glyph glyph-name="perthousand" unicode="&#x2030;" horiz-adv-x="1260" 
d="M233 381q-90 0 -134 48t-44 130q0 80 45 129t133 49q92 0 135 -47t43 -131q0 -39 -11.5 -71.5t-34 -56t-55.5 -37t-77 -13.5zM233 443q50 0 75 28t25 88q0 61 -24.5 88.5t-75.5 27.5q-45 0 -72.5 -27.5t-27.5 -88.5t28 -88.5t72 -27.5zM653 727h78l-536 -727h-78z
M617 -10q-90 0 -134 48t-44 130q0 80 45 129t133 49q92 0 135 -47t43 -131q0 -39 -11.5 -71.5t-34 -56t-55.5 -37t-77 -13.5zM617 52q50 0 75 28t25 88q0 61 -24.5 88.5t-75.5 27.5q-45 0 -72.5 -27.5t-27.5 -88.5t28 -88.5t72 -27.5zM1027 -11q-90 0 -134 48t-44 130
q0 80 45 129t133 49q92 0 135 -47t43 -131q0 -39 -11.5 -71.5t-34 -56t-55.5 -37t-77 -13.5zM1027 51q50 0 75 28t25 88q0 61 -24.5 88.5t-75.5 27.5q-45 0 -72.5 -27.5t-27.5 -88.5t28 -88.5t72 -27.5z" />
    <glyph glyph-name="guilsinglleft" unicode="&#x2039;" horiz-adv-x="400" 
d="M242 505h98l-152 -215l152 -215h-98l-162 215z" />
    <glyph glyph-name="guilsinglright" unicode="&#x203a;" horiz-adv-x="400" 
d="M157 75h-97l152 215l-152 215h97l163 -215z" />
    <glyph glyph-name="fraction" unicode="&#x2044;" horiz-adv-x="180" 
d="M287 747h78l-472 -767h-78z" />
    <glyph glyph-name="uni2070" unicode="&#x2070;" horiz-adv-x="410" 
d="M205 424q42 0 60 36.5t18 121.5t-18 121.5t-60 36.5q-40 0 -59 -38.5t-19 -119.5q0 -158 78 -158zM205 354q-170 0 -170 228t170 228q88 0 129 -55t41 -173q0 -116 -41.5 -172t-128.5 -56z" />
    <glyph glyph-name="uni2074" unicode="&#x2074;" horiz-adv-x="410" 
d="M245 525v200h-2l-142 -200h144zM245 455h-225v67l200 278h115v-275h55v-70h-55v-91h-90v91z" />
    <glyph glyph-name="uni2075" unicode="&#x2075;" horiz-adv-x="410" 
d="M174 354q-27 0 -58.5 5t-55.5 16v72q19 -8 34 -12.5t28 -7t26 -3t27 -0.5q45 0 66.5 22.5t21.5 57.5t-21.5 53t-69.5 18q-23 0 -48.5 -4t-52.5 -12l11 241h251v-70h-184l-5 -94q14 4 28 6.5t33 2.5q32 0 59.5 -9t47.5 -27t31.5 -44t11.5 -60q0 -73 -50 -112t-131 -39z
" />
    <glyph glyph-name="uni2076" unicode="&#x2076;" horiz-adv-x="410" 
d="M214 424q32 0 52.5 23t20.5 60q0 35 -19.5 54t-55.5 19t-57.5 -19.5t-21.5 -55.5t21.5 -58.5t59.5 -22.5zM210 354q-84 0 -127 54t-43 163q0 118 51 178.5t152 60.5q47 0 92 -13v-72q-22 8 -45 11.5t-43 3.5q-63 0 -95 -36.5t-32 -103.5q18 21 47 33.5t67 12.5
q66 0 103.5 -36.5t37.5 -101.5q0 -70 -44.5 -112t-120.5 -42z" />
    <glyph glyph-name="uni2077" unicode="&#x2077;" horiz-adv-x="410" 
d="M267 728h-212v72h300v-56l-165 -380h-88z" />
    <glyph glyph-name="uni2078" unicode="&#x2078;" horiz-adv-x="410" 
d="M210 620q27 14 42.5 32.5t15.5 37.5q0 20 -14.5 35t-49.5 15q-32 0 -48 -15t-16 -36q0 -23 19 -40.5t51 -28.5zM199 564q-32 -14 -50.5 -31.5t-18.5 -45.5q0 -24 16.5 -43.5t58.5 -19.5q35 0 55 17t20 48q0 16 -7 28t-18.5 21t-26 15t-29.5 11zM275 597q47 -17 71 -43
t24 -66q0 -61 -45 -97.5t-120 -36.5q-34 0 -64 8.5t-52.5 24.5t-35.5 39t-13 52q0 45 25 71t70 43q-47 20 -65.5 44.5t-18.5 59.5q0 52 41.5 83t113.5 31q32 0 60 -7t49 -20.5t32.5 -33.5t11.5 -46q0 -36 -24.5 -62t-59.5 -44z" />
    <glyph glyph-name="uni2079" unicode="&#x2079;" horiz-adv-x="410" 
d="M196 740q-29 0 -50.5 -21.5t-21.5 -60.5q0 -36 20.5 -54.5t53.5 -18.5q14 0 28 3.5t25 12.5t17.5 23t6.5 35q0 35 -20.5 58t-58.5 23zM166 354q-46 0 -96 14v72q26 -9 50 -12.5t41 -3.5q63 0 96 36.5t33 103.5q-18 -21 -46 -33t-65 -12q-27 0 -53 7.5t-46.5 23.5
t-32.5 42t-12 62t12.5 65t34 49.5t51.5 31t65 10.5q85 0 128.5 -55t43.5 -161q0 -118 -52 -179t-152 -61z" />
    <glyph glyph-name="uni207A" unicode="&#x207a;" horiz-adv-x="410" 
d="M170 547h-115v70h115v115h70v-115h115v-70h-115v-115h-70v115z" />
    <glyph glyph-name="uni207B" unicode="&#x207b;" horiz-adv-x="410" 
d="M55 617h300v-70h-300v70z" />
    <glyph glyph-name="uni207C" unicode="&#x207c;" horiz-adv-x="410" 
d="M55 677h300v-70h-300v70zM55 557h300v-70h-300v70z" />
    <glyph glyph-name="uni207D" unicode="&#x207d;" horiz-adv-x="250" 
d="M155 299q-57 60 -83.5 130t-26.5 153t26.5 153t83.5 130h90q-53 -60 -85.5 -130t-32.5 -153t32.5 -153t85.5 -130h-90v0z" />
    <glyph glyph-name="uni207E" unicode="&#x207e;" horiz-adv-x="250" 
d="M5 299q53 60 85.5 130t32.5 153t-32.5 153t-85.5 130h90q57 -60 83.5 -130t26.5 -153t-26.5 -153t-83.5 -130h-90v0z" />
    <glyph glyph-name="uni2080" unicode="&#x2080;" horiz-adv-x="410" 
d="M205 -39q42 0 60 36.5t18 121.5t-18 121.5t-60 36.5q-40 0 -59 -38.5t-19 -119.5q0 -158 78 -158zM205 -109q-170 0 -170 228t170 228q88 0 129 -55t41 -173q0 -116 -41.5 -172t-128.5 -56z" />
    <glyph glyph-name="uni2081" unicode="&#x2081;" horiz-adv-x="410" 
d="M190 238l-89 -57l-41 61l150 95h70v-436h-90v337z" />
    <glyph glyph-name="uni2082" unicode="&#x2082;" horiz-adv-x="410" 
d="M40 -20l100 75q36 27 59.5 47.5t37.5 38t20 33t6 32.5q0 71 -92 71q-27 0 -54 -6.5t-57 -20.5v72q34 14 65.5 19.5t64.5 5.5q81 0 123 -31.5t42 -91.5q0 -27 -9.5 -52t-30.5 -51.5t-56 -56.5t-86 -66l-35 -25v-2h227v-70h-325v79z" />
    <glyph glyph-name="uni2083" unicode="&#x2083;" horiz-adv-x="410" 
d="M170 -109q-34 0 -66.5 5.5t-58.5 16.5v72q23 -11 53.5 -17.5t63.5 -6.5q103 0 103 68t-110 68h-55v62h50q105 0 105 61q0 57 -90 57q-64 0 -115 -23v72q29 10 65.5 15.5t68.5 5.5q76 0 118.5 -30t42.5 -84q0 -75 -98 -101v-2q51 -7 79.5 -35.5t28.5 -72.5
q0 -60 -50.5 -95.5t-134.5 -35.5z" />
    <glyph glyph-name="uni2084" unicode="&#x2084;" horiz-adv-x="410" 
d="M245 62v200h-2l-142 -200h144zM245 -8h-225v67l200 278h115v-275h55v-70h-55v-91h-90v91z" />
    <glyph glyph-name="uni2085" unicode="&#x2085;" horiz-adv-x="410" 
d="M174 -109q-27 0 -58.5 5t-55.5 16v72q19 -8 34 -12.5t28 -7t26 -3t27 -0.5q45 0 66.5 22.5t21.5 57.5t-21.5 53t-69.5 18q-23 0 -48.5 -4t-52.5 -12l11 241h251v-70h-184l-5 -94q14 4 28 6.5t33 2.5q32 0 59.5 -9t47.5 -27t31.5 -44t11.5 -60q0 -73 -50 -112t-131 -39z
" />
    <glyph glyph-name="uni2086" unicode="&#x2086;" horiz-adv-x="410" 
d="M214 -39q32 0 52.5 23t20.5 60q0 35 -19.5 54t-55.5 19t-57.5 -19.5t-21.5 -55.5t21.5 -58.5t59.5 -22.5zM210 -109q-84 0 -127 54t-43 163q0 118 51 178.5t152 60.5q47 0 92 -13v-72q-22 8 -45 11.5t-43 3.5q-63 0 -95 -36.5t-32 -103.5q18 21 47 33.5t67 12.5
q66 0 103.5 -36.5t37.5 -101.5q0 -70 -44.5 -112t-120.5 -42z" />
    <glyph glyph-name="uni2087" unicode="&#x2087;" horiz-adv-x="410" 
d="M267 247h-212v72h300v-56l-165 -380h-88z" />
    <glyph glyph-name="uni2088" unicode="&#x2088;" horiz-adv-x="410" 
d="M210 157q27 14 42.5 32.5t15.5 37.5q0 20 -14.5 35t-49.5 15q-32 0 -48 -15t-16 -36q0 -23 19 -40.5t51 -28.5zM199 101q-32 -14 -50.5 -31.5t-18.5 -45.5q0 -24 16.5 -43.5t58.5 -19.5q35 0 55 17t20 48q0 16 -7 28t-18.5 21t-26 15t-29.5 11zM275 134q47 -17 71 -43
t24 -66q0 -61 -45 -97.5t-120 -36.5q-34 0 -64 8.5t-52.5 24.5t-35.5 39t-13 52q0 45 25 71t70 43q-47 20 -65.5 44.5t-18.5 59.5q0 52 41.5 83t113.5 31q32 0 60 -7t49 -20.5t32.5 -33.5t11.5 -46q0 -36 -24.5 -62t-59.5 -44z" />
    <glyph glyph-name="uni2089" unicode="&#x2089;" horiz-adv-x="410" 
d="M194 277q-29 0 -50.5 -21.5t-21.5 -60.5q0 -36 20.5 -54.5t53.5 -18.5q14 0 28 3.5t25 12.5t17.5 23t6.5 35q0 35 -20.5 58t-58.5 23zM164 -109q-46 0 -96 14v72q26 -9 50 -12.5t41 -3.5q63 0 96 36.5t33 103.5q-18 -21 -46 -33t-65 -12q-27 0 -53 7.5t-46.5 23.5
t-32.5 42t-12 62t12.5 65t34 49.5t51.5 31t65 10.5q85 0 128.5 -55t43.5 -161q0 -118 -52 -179t-152 -61z" />
    <glyph glyph-name="uni208A" unicode="&#x208a;" horiz-adv-x="410" 
d="M170 66h-115v70h115v115h70v-115h115v-70h-115v-115h-70v115z" />
    <glyph glyph-name="uni208B" unicode="&#x208b;" horiz-adv-x="410" 
d="M55 136h300v-70h-300v70z" />
    <glyph glyph-name="uni208C" unicode="&#x208c;" horiz-adv-x="410" 
d="M55 196h300v-70h-300v70zM55 76h300v-70h-300v70z" />
    <glyph glyph-name="uni208D" unicode="&#x208d;" horiz-adv-x="250" 
d="M155 -182q-57 60 -83.5 130t-26.5 153t26.5 153t83.5 130h90q-53 -60 -85.5 -130t-32.5 -153t32.5 -153t85.5 -130h-90v0z" />
    <glyph glyph-name="uni208E" unicode="&#x208e;" horiz-adv-x="250" 
d="M5 -182q53 60 85.5 130t32.5 153t-32.5 153t-85.5 130h90q57 -60 83.5 -130t26.5 -153t-26.5 -153t-83.5 -130h-90v0z" />
    <glyph glyph-name="Euro" unicode="&#x20ac;" horiz-adv-x="650" 
d="M610 16q-30 -14 -71 -20t-98 -6q-60 0 -112 16.5t-92 50t-67.5 84t-39.5 118.5h-90l17 76h65v25q0 11 0.5 22.5t0.5 22.5h-81l17 76h75q27 128 110.5 192t209.5 64q54 0 92 -6.5t64 -14.5l-19 -82q-34 9 -70 13t-59 4q-94 0 -150.5 -41t-77.5 -129h323l-17 -76h-317
q-1 -10 -1 -20v-21v-15t1 -14h301l-17 -76h-274q22 -91 82 -137t150 -46q32 0 68 5.5t77 22.5v-88z" />
    <glyph glyph-name="uni20B4" unicode="&#x20b4;" 
d="M336 -10q-115 0 -178 43.5t-63 123.5q0 31 10 59.5t23 48.5h-63v70h133l84 70h-217v70h299q36 31 53.5 56t17.5 48q0 34 -27.5 53t-75.5 19q-99 0 -187 -30v90q41 11 92 18.5t91 7.5q207 0 207 -145q0 -27 -15.5 -60.5t-35.5 -56.5h71v-70h-147l-82 -70h229v-70h-310
q-14 -14 -25 -27.5t-16.5 -25.5t-7 -23t-1.5 -22q0 -91 151 -91q49 0 94.5 8.5t74.5 21.5v-90q-18 -6 -40.5 -10.5t-46 -8t-47.5 -5.5t-45 -2z" />
    <glyph glyph-name="uni20B8" unicode="&#x20b8;" horiz-adv-x="590" 
d="M20 727h550v-76h-550v76zM251 505h-231v76h550v-76h-227v-505h-92v505z" />
    <glyph glyph-name="uni20BD" unicode="&#x20bd;" horiz-adv-x="650" 
d="M241 388h102q84 0 123 31.5t39 98.5t-37 95t-125 28h-102v-253zM456 166h-215v-166h-96v166h-90v76h90v70h-90v76h90v339h205q133 0 194 -50t61 -159q0 -206 -255 -206h-109v-70h215v-76z" />
    <glyph glyph-name="afii61352" unicode="&#x2116;" horiz-adv-x="1095" 
d="M891 379q-42 0 -70 15.5t-45 41t-24.5 57.5t-7.5 66q0 35 6.5 67.5t23 57t45 39t72.5 14.5t72.5 -14.5t45 -39.5t23 -57t6.5 -67q0 -34 -7.5 -66t-25 -57.5t-45.5 -41t-69 -15.5zM891 443q22 0 35.5 11.5t20.5 28.5t9 37.5t2 38.5q0 19 -2 39.5t-8.5 37t-20 27
t-36.5 10.5t-36.5 -11t-20.5 -27.5t-8.5 -37t-1.5 -38.5t2 -38.5t9 -37.5t20.5 -28.5t35.5 -11.5zM754 302h274v-70h-274v70zM100 727h130l332 -593h2v593h96v-727h-120l-342 604h-2v-604h-96v727z" />
    <glyph glyph-name="uni2117" unicode="&#x2117;" horiz-adv-x="900" 
d="M408 378h69q10 0 22 2t22.5 9t17.5 19.5t7 33.5t-6 34.5t-15.5 20.5t-21 9.5t-21.5 2.5h-74v-131zM408 163h-76v402h157q11 0 33.5 -2.5t45 -14t39.5 -35.5t17 -67q0 -32 -12 -55.5t-32 -38.5t-46 -22.5t-53 -7.5h-73v-159zM450 -10q-78 0 -146 29t-118.5 79.5
t-79.5 118.5t-29 146t29 146t79.5 118.5t118.5 79.5t146 29t146 -29t118.5 -79.5t79.5 -118.5t29 -146t-29 -146t-79.5 -118.5t-118.5 -79.5t-146 -29zM449 52q64 0 121 24.5t99.5 67t67 99t24.5 120.5t-24.5 120.5t-67 99t-99.5 67t-121 24.5t-120.5 -24.5t-98.5 -67
t-66.5 -99t-24.5 -120.5t24.5 -120.5t66.5 -99t98.5 -67t120.5 -24.5z" />
    <glyph glyph-name="trademark" unicode="&#x2122;" horiz-adv-x="990" 
d="M197 661h-147v66h370v-66h-147v-354h-76v354zM490 727h104l122 -290h2l120 290h102v-420h-76v313h-2l-115 -263h-64l-115 263h-2v-313h-76v420z" />
    <glyph glyph-name="onethird" unicode="&#x2153;" horiz-adv-x="920" 
d="M172 629l-89 -57l-41 61l150 95h70v-436h-90v337zM633 747h78l-472 -767h-78zM690 -9q-34 0 -66.5 5.5t-58.5 16.5v72q23 -11 53.5 -17.5t63.5 -6.5q103 0 103 68t-110 68h-55v62h50q105 0 105 61q0 57 -90 57q-64 0 -115 -23v72q29 10 65.5 15.5t68.5 5.5
q76 0 118.5 -30t42.5 -84q0 -75 -98 -101v-2q51 -7 79.5 -35.5t28.5 -72.5q0 -60 -50.5 -95.5t-134.5 -35.5z" />
    <glyph glyph-name="twothirds" unicode="&#x2154;" horiz-adv-x="920" 
d="M21 371l100 75q36 27 59.5 47.5t37.5 38t20 33t6 32.5q0 71 -92 71q-27 0 -54 -6.5t-57 -20.5v72q34 14 65.5 19.5t64.5 5.5q81 0 123 -31.5t42 -91.5q0 -27 -9.5 -52t-30.5 -51.5t-56 -56.5t-86 -66l-35 -25v-2h227v-70h-325v79zM663 747h78l-472 -767h-78zM710 -9
q-34 0 -66.5 5.5t-58.5 16.5v72q23 -11 53.5 -17.5t63.5 -6.5q103 0 103 68t-110 68h-55v62h50q105 0 105 61q0 57 -90 57q-64 0 -115 -23v72q29 10 65.5 15.5t68.5 5.5q76 0 118.5 -30t42.5 -84q0 -75 -98 -101v-2q51 -7 79.5 -35.5t28.5 -72.5q0 -60 -50.5 -95.5
t-134.5 -35.5z" />
    <glyph glyph-name="oneeighth" unicode="&#x215b;" horiz-adv-x="920" 
d="M171 629l-89 -57l-41 61l150 95h70v-436h-90v337zM637 747h78l-472 -767h-78zM725 257q27 14 42.5 32.5t15.5 37.5q0 20 -14.5 35t-49.5 15q-32 0 -48 -15t-16 -36q0 -23 19 -40.5t51 -28.5zM714 201q-32 -14 -50.5 -31.5t-18.5 -45.5q0 -24 16.5 -43.5t58.5 -19.5
q35 0 55 17t20 48q0 16 -7 28t-18.5 21t-26 15t-29.5 11zM790 234q47 -17 71 -43t24 -66q0 -61 -45 -97.5t-120 -36.5q-34 0 -64 8.5t-52.5 24.5t-35.5 39t-13 52q0 45 25 71t70 43q-47 20 -65.5 44.5t-18.5 59.5q0 52 41.5 83t113.5 31q32 0 60 -7t49 -20.5t32.5 -33.5
t11.5 -46q0 -36 -24.5 -62t-59.5 -44z" />
    <glyph glyph-name="threeeighths" unicode="&#x215c;" horiz-adv-x="920" 
d="M146 282q-34 0 -66.5 5.5t-58.5 16.5v72q23 -11 53.5 -17.5t63.5 -6.5q103 0 103 68t-110 68h-55v62h50q105 0 105 61q0 57 -90 57q-64 0 -115 -23v72q29 10 65.5 15.5t68.5 5.5q76 0 118.5 -30t42.5 -84q0 -75 -98 -101v-2q51 -7 79.5 -35.5t28.5 -72.5
q0 -60 -50.5 -95.5t-134.5 -35.5zM639 747h78l-472 -767h-78zM730 257q27 14 42.5 32.5t15.5 37.5q0 20 -14.5 35t-49.5 15q-32 0 -48 -15t-16 -36q0 -23 19 -40.5t51 -28.5zM719 201q-32 -14 -50.5 -31.5t-18.5 -45.5q0 -24 16.5 -43.5t58.5 -19.5q35 0 55 17t20 48
q0 16 -7 28t-18.5 21t-26 15t-29.5 11zM795 234q47 -17 71 -43t24 -66q0 -61 -45 -97.5t-120 -36.5q-34 0 -64 8.5t-52.5 24.5t-35.5 39t-13 52q0 45 25 71t70 43q-47 20 -65.5 44.5t-18.5 59.5q0 52 41.5 83t113.5 31q32 0 60 -7t49 -20.5t32.5 -33.5t11.5 -46
q0 -36 -24.5 -62t-59.5 -44z" />
    <glyph glyph-name="fiveeighths" unicode="&#x215d;" horiz-adv-x="920" 
d="M160 282q-27 0 -58.5 5t-55.5 16v72q19 -8 34 -12.5t28 -7t26 -3t27 -0.5q45 0 66.5 22.5t21.5 57.5t-21.5 53t-69.5 18q-23 0 -48.5 -4t-52.5 -12l11 241h251v-70h-184l-5 -94q14 4 28 6.5t33 2.5q32 0 59.5 -9t47.5 -27t31.5 -44t11.5 -60q0 -73 -50 -112t-131 -39z
M649 747h78l-472 -767h-78zM715 257q27 14 42.5 32.5t15.5 37.5q0 20 -14.5 35t-49.5 15q-32 0 -48 -15t-16 -36q0 -23 19 -40.5t51 -28.5zM704 201q-32 -14 -50.5 -31.5t-18.5 -45.5q0 -24 16.5 -43.5t58.5 -19.5q35 0 55 17t20 48q0 16 -7 28t-18.5 21t-26 15t-29.5 11z
M780 234q47 -17 71 -43t24 -66q0 -61 -45 -97.5t-120 -36.5q-34 0 -64 8.5t-52.5 24.5t-35.5 39t-13 52q0 45 25 71t70 43q-47 20 -65.5 44.5t-18.5 59.5q0 52 41.5 83t113.5 31q32 0 60 -7t49 -20.5t32.5 -33.5t11.5 -46q0 -36 -24.5 -62t-59.5 -44z" />
    <glyph glyph-name="seveneighths" unicode="&#x215e;" horiz-adv-x="920" 
d="M244 656h-212v72h300v-56l-165 -380h-88zM617 747h78l-472 -767h-78zM710 257q27 14 42.5 32.5t15.5 37.5q0 20 -14.5 35t-49.5 15q-32 0 -48 -15t-16 -36q0 -23 19 -40.5t51 -28.5zM699 201q-32 -14 -50.5 -31.5t-18.5 -45.5q0 -24 16.5 -43.5t58.5 -19.5q35 0 55 17
t20 48q0 16 -7 28t-18.5 21t-26 15t-29.5 11zM775 234q47 -17 71 -43t24 -66q0 -61 -45 -97.5t-120 -36.5q-34 0 -64 8.5t-52.5 24.5t-35.5 39t-13 52q0 45 25 71t70 43q-47 20 -65.5 44.5t-18.5 59.5q0 52 41.5 83t113.5 31q32 0 60 -7t49 -20.5t32.5 -33.5t11.5 -46
q0 -36 -24.5 -62t-59.5 -44z" />
    <glyph glyph-name="arrowleft" unicode="&#x2190;" horiz-adv-x="850" 
d="M80 364l235 235h108l-195 -195h542v-80h-542l195 -195h-108z" />
    <glyph glyph-name="arrowup" unicode="&#x2191;" horiz-adv-x="850" 
d="M385 579l-195 -195v108l235 235l235 -235v-108l-195 195v-579h-80v579z" />
    <glyph glyph-name="arrowright" unicode="&#x2192;" horiz-adv-x="850" 
d="M622 324h-542v80h542l-195 195h108l235 -235l-235 -235h-108z" />
    <glyph glyph-name="arrowdown" unicode="&#x2193;" horiz-adv-x="850" 
d="M190 234v109l195 -195v579h80v-579l195 195v-109l-235 -234z" />
    <glyph glyph-name="arrowboth" unicode="&#x2194;" horiz-adv-x="850" 
d="M403 129h-108l-235 235l235 235h108l-195 -195h434l-195 195h108l235 -235l-235 -235h-108l195 195h-434z" />
    <glyph glyph-name="arrowupdn" unicode="&#x2195;" horiz-adv-x="850" 
d="M190 234v109l195 -195v431l-195 -195v108l235 235l235 -235v-108l-195 195v-431l195 195v-109l-235 -234z" />
    <glyph glyph-name="uni2196" unicode="&#x2196;" horiz-adv-x="850" 
d="M241 495v-273l-76 76v328h329l76 -76h-272l392 -392l-56 -56z" />
    <glyph glyph-name="uni2197" unicode="&#x2197;" horiz-adv-x="850" 
d="M165 158l392 392h-272l76 76h329v-328l-76 -76v273l-393 -393z" />
    <glyph glyph-name="uni2198" unicode="&#x2198;" horiz-adv-x="850" 
d="M280 178h272l-392 392l56 56l393 -393v273l76 -76v-328h-329z" />
    <glyph glyph-name="uni2199" unicode="&#x2199;" horiz-adv-x="850" 
d="M570 178l-76 -76h-329v328l76 76v-273l393 393l56 -56l-392 -392h272z" />
    <glyph glyph-name="partialdiff" unicode="&#x2202;" horiz-adv-x="645" 
d="M320 71q86 0 128.5 48t42.5 154q0 105 -40 153t-131 48q-83 0 -127 -47.5t-44 -153.5q0 -107 46.5 -154.5t124.5 -47.5zM321 -9q-131 0 -198.5 72.5t-67.5 209.5q0 133 66.5 207t184.5 74q34 0 70 -9.5t71 -43.5l3 2q-21 57 -59.5 98t-84 69t-93.5 44t-88 22l40 74
q123 -20 204 -75t129 -130t67.5 -162t19.5 -170q0 -61 -17 -112.5t-50.5 -89t-83 -59t-113.5 -21.5z" />
    <glyph glyph-name="product" unicode="&#x220f;" horiz-adv-x="750" 
d="M100 727h550v-952h-96v866h-358v-866h-96v952z" />
    <glyph glyph-name="summation" unicode="&#x2211;" horiz-adv-x="572" 
d="M40 -139l281 396l-281 384v86h500v-86h-384l279 -381l-283 -399h398v-86h-510v86z" />
    <glyph glyph-name="minus" unicode="&#x2212;" 
d="M60 407h500v-86h-500v86z" />
    <glyph glyph-name="uni2215" unicode="&#x2215;" 
d="M446 727h94l-366 -727h-94z" />
    <glyph glyph-name="radical" unicode="&#x221a;" horiz-adv-x="730" 
d="M123 408h-83v80h170l156 -468h2l148 810h194v-72h-127l-171 -913h-100z" />
    <glyph glyph-name="infinity" unicode="&#x221e;" horiz-adv-x="780" 
d="M340 369l-59 56q-14 13 -28.5 21t-35.5 8t-36 -8t-24.5 -20t-13.5 -27t-4 -30q0 -39 22.5 -61t51.5 -22q19 0 40 9.5t41 28.5zM441 368l56 -54q14 -14 29.5 -21t37.5 -7q21 0 35.5 7t23.5 19t13.5 26.5t4.5 29.5q0 41 -22.5 63.5t-51.5 22.5q-20 0 -42 -9.5t-42 -31.5z
M330 259q-26 -26 -56 -36.5t-62 -10.5q-40 0 -68.5 14.5t-46.5 37.5t-26 50.5t-8 54.5q0 25 8 53.5t26 51.5t46.5 38.5t68.5 15.5q27 0 58.5 -11t60.5 -40l59 -59l62 65q23 23 53.5 34t62.5 11q39 0 67.5 -14t46.5 -36.5t26.5 -51t8.5 -57.5q0 -25 -8 -52.5t-26 -51
t-46.5 -38.5t-68.5 -15q-28 0 -59.5 10.5t-59.5 38.5l-59 59z" />
    <glyph glyph-name="integral" unicode="&#x222b;" horiz-adv-x="540" 
d="M-10 -235q-25 0 -45 4l19 86q20 -4 37 -4q24 0 41 5.5t29.5 18.5t21 34t15.5 53l143 663q10 49 27.5 84.5t43 58t60 33t80.5 10.5q17 0 32.5 -1.5t35.5 -4.5l-19 -86q-7 2 -20 4t-31 2q-52 0 -79 -27t-40 -91l-136 -630q-13 -60 -30 -100.5t-42 -65.5t-60 -35.5
t-83 -10.5z" />
    <glyph glyph-name="approxequal" unicode="&#x2248;" 
d="M555 261q-18 -34 -55.5 -56t-79.5 -22q-35 0 -65 12t-56 26t-50.5 26t-48.5 12t-49.5 -13t-47.5 -49l-38 70q18 34 55.5 56t79.5 22q35 0 65 -12t56 -26t50.5 -26t48.5 -12t49.5 13t47.5 49zM555 461q-18 -34 -55.5 -56t-79.5 -22q-35 0 -65 12t-56 26t-50.5 26t-48.5 12
t-49.5 -13t-47.5 -49l-38 70q18 34 55.5 56t79.5 22q35 0 65 -12t56 -26t50.5 -26t48.5 -12t49.5 13t47.5 49z" />
    <glyph glyph-name="notequal" unicode="&#x2260;" 
d="M188 221h-128v86h179l66 114h-245v86h296l68 117h76l-68 -117h128v-86h-179l-66 -114h245v-86h-296l-68 -117h-76z" />
    <glyph glyph-name="lessequal" unicode="&#x2264;" 
d="M60 179h500v-86h-500v86zM60 400v72l500 184v-88l-380 -130v-2l380 -130v-90z" />
    <glyph glyph-name="greaterequal" unicode="&#x2265;" 
d="M60 179h500v-86h-500v86zM60 304l380 130v2l-380 130v90l500 -184v-72l-500 -184v88z" />
    <glyph glyph-name="lozenge" unicode="&#x25ca;" horiz-adv-x="690" 
d="M517 364l-172 225l-172 -225l172 -226zM60 364l285 373l285 -373l-285 -374z" />
    <glyph glyph-name="uniF400" unicode="&#xf400;" horiz-adv-x="0" 
d="M-265 630h-84l90 140h130z" />
    <glyph glyph-name="uniF401" unicode="&#xf401;" horiz-adv-x="0" 
d="M-341 790h-88l86 140h134z" />
    <glyph glyph-name="uniF406" unicode="&#xf406;" horiz-adv-x="380" 
d="M360 914q-14 -60 -59 -94t-111 -34t-111 34t-59 94l74 20q22 -74 96 -74t96 74z" />
    <glyph glyph-name="uniF407" unicode="&#xf407;" horiz-adv-x="260" 
d="M20 -162q20 -9 37 -13.5t43 -4.5q25 0 40.5 12t15.5 32q0 40 -57 40q-8 0 -19.5 -0.5t-22.5 -2.5l13 99h60l-6 -46q116 -3 116 -93q0 -45 -37 -73t-93 -28q-35 0 -54 5t-36 13v60z" />
    <glyph glyph-name="uniF408" unicode="&#xf408;" horiz-adv-x="390" 
d="M370 790h-94l-81 81l-81 -81h-94l120 140h110z" />
    <glyph glyph-name="uniF409" unicode="&#xf409;" horiz-adv-x="200" 
d="M36 -190q37 0 57 11.5t20 31.5q-15 -4 -32 -4q-61 0 -61 47q0 24 22.5 39t57.5 15q38 0 59 -21t21 -58q0 -54 -37.5 -82.5t-106.5 -28.5v50z" />
    <glyph glyph-name="uniF40A" unicode="&#xf40a;" horiz-adv-x="245" 
d="M102 727h103l-83 -220h-72z" />
    <glyph glyph-name="uniF40B" unicode="&#xf40b;" horiz-adv-x="170" 
d="M85 796q-29 0 -46.5 17.5t-17.5 46.5t17.5 46.5t46.5 17.5t46.5 -17.5t17.5 -46.5t-17.5 -46.5t-46.5 -17.5z" />
    <glyph glyph-name="uniF40C" unicode="&#xf40c;" horiz-adv-x="256" 
d="M128 808q23 0 37.5 14.5t14.5 37.5t-14.5 37.5t-37.5 14.5t-37.5 -14.5t-14.5 -37.5t14.5 -37.5t37.5 -14.5zM128 752q-46 0 -77 31t-31 77t31 77t77 31t77 -31t31 -77t-31 -77t-77 -31z" />
    <glyph glyph-name="uniF40D" unicode="&#xf40d;" horiz-adv-x="400" 
d="M380 916q-4 -49 -32 -79t-73 -30q-26 0 -47.5 8t-39 17t-32 17t-27.5 8q-11 0 -23.5 -10t-16.5 -40l-69 15q4 49 32 79t73 30q26 0 47.5 -8t39 -17t32 -17t27.5 -8q11 0 23.5 10t16.5 40z" />
    <glyph glyph-name="uniF40E" unicode="&#xf40e;" horiz-adv-x="250" 
d="M143 -240q-58 0 -90.5 26t-32.5 72q0 43 33.5 86.5t110.5 75.5l66 -20q-60 -31 -88 -61t-28 -64q0 -21 14 -34t44 -13q36 0 58 14v-62q-40 -20 -87 -20z" />
    <glyph glyph-name="zero.tab" unicode="&#xf4e0;" 
d="M311 76q44 0 76 15t53 49.5t31 89t10 134.5q0 82 -10.5 137t-31.5 88.5t-53 47.5t-75 14q-39 0 -70.5 -14t-53.5 -47t-34 -88.5t-12 -137.5q0 -81 11.5 -136.5t33 -89t53 -48t72.5 -14.5zM311 -10q-130 0 -200 90t-70 284q0 98 18.5 168.5t53.5 116t85 67t113 21.5
q139 0 204.5 -88.5t65.5 -284.5q0 -101 -17.5 -172t-52 -116t-85 -65.5t-115.5 -20.5z" />
    <glyph glyph-name="one.tab" unicode="&#xf4e1;" 
d="M299 615l-114 -71l-45 71l179 112h76v-727h-96v615z" />
    <glyph glyph-name="two.tab" unicode="&#xf4e2;" 
d="M70 90l138 116q64 54 108.5 97.5t72 81t39.5 71t12 66.5q0 63 -39 96t-118 33q-48 0 -93 -12.5t-90 -35.5v90q49 23 95.5 33.5t92.5 10.5q58 0 105 -14.5t79.5 -42t50 -67t17.5 -88.5q0 -42 -14.5 -82.5t-47 -85t-85 -95.5t-129.5 -114l-72 -59v-3h358v-86h-480v90z" />
    <glyph glyph-name="three.tab" unicode="&#xf4e3;" 
d="M272 -10q-55 0 -102.5 8.5t-94.5 25.5v90q81 -38 173 -38q91 0 141.5 35t50.5 98q0 65 -48 95.5t-150 30.5h-76v86h70q97 0 141.5 28.5t44.5 89.5q0 54 -42.5 83t-118.5 29q-44 0 -90 -9.5t-86 -26.5v90q84 32 184 32q125 0 189 -48.5t64 -141.5q0 -67 -39 -109.5
t-112 -55.5v-2q84 -11 126.5 -55t42.5 -117q0 -50 -19 -90t-54.5 -68.5t-85 -44t-109.5 -15.5z" />
    <glyph glyph-name="four.tab" unicode="&#xf4e4;" 
d="M415 253v387h-2l-277 -387h279zM415 167h-384v80l344 480h136v-474h95v-86h-95v-167h-96v167z" />
    <glyph glyph-name="five.tab" unicode="&#xf4e5;" 
d="M254 -10q-41 0 -84 6.5t-79 20.5v90q49 -18 81 -24.5t66 -6.5q98 0 150.5 40.5t52.5 113.5q0 143 -177 143q-35 0 -81 -6t-84 -20l22 380h399v-86h-316l-11 -193q29 6 50 8.5t47 2.5q118 0 184.5 -59t66.5 -165q0 -118 -75 -181.5t-212 -63.5z" />
    <glyph glyph-name="six.tab" unicode="&#xf4e6;" 
d="M330 76q70 0 112.5 38t42.5 113q0 72 -44 108.5t-111 36.5q-38 0 -69 -11t-53 -29t-34 -41t-12 -48q0 -35 11 -65t32 -53t52.5 -36t72.5 -13zM326 -10q-84 0 -137.5 31t-84.5 80t-42.5 110.5t-11.5 123.5q0 85 17 158.5t56.5 127.5t104.5 85t161 31q32 0 64 -4t62 -15
v-92q-31 12 -62.5 18.5t-66.5 6.5q-64 0 -110.5 -22t-76 -60t-43.5 -89.5t-14 -110.5q13 18 31 34.5t41.5 28.5t54 19t70.5 7q50 0 94.5 -13t78.5 -41t53.5 -71t19.5 -103q0 -56 -19.5 -100.5t-54 -75.5t-82 -47.5t-103.5 -16.5z" />
    <glyph glyph-name="seven.tab" unicode="&#xf4e7;" 
d="M432 641h-362v86h465v-76l-281 -651h-98z" />
    <glyph glyph-name="eight.tab" unicode="&#xf4e8;" 
d="M314 -10q-56 0 -104.5 12.5t-85 37.5t-57.5 63.5t-21 89.5q0 75 43.5 119.5t121.5 67.5q-70 31 -108 72.5t-38 109.5q0 42 17.5 74.5t50 55t78 34t101.5 11.5q51 0 95 -9.5t76.5 -30t51 -52.5t18.5 -77q0 -68 -35.5 -109t-105.5 -71q90 -29 127 -73.5t37 -117.5
q0 -48 -18.5 -86t-53 -65t-83 -41.5t-107.5 -14.5zM319 76q72 0 116.5 31.5t44.5 91.5q0 33 -15.5 56.5t-41 40t-58.5 28.5t-69 22q-30 -10 -57.5 -22.5t-49 -30t-34.5 -39.5t-13 -51q0 -55 43.5 -91t133.5 -36zM331 416q71 31 98.5 65.5t27.5 71.5q0 27 -11 45.5t-31 30
t-47.5 17t-61.5 5.5q-72 0 -108.5 -27t-36.5 -69q0 -29 14 -50t37 -37.5t54 -29t65 -22.5z" />
    <glyph glyph-name="nine.tab" unicode="&#xf4e9;" 
d="M233 -10q-33 0 -65 4t-62 15v92q31 -12 63 -18.5t69 -6.5q63 0 108.5 19.5t75 56.5t43.5 90t14 120q-24 -41 -71 -69t-126 -28q-50 0 -95 13.5t-78.5 42t-53 72.5t-19.5 104q0 56 19.5 100.5t54 75.5t82 47.5t103.5 16.5q84 0 137.5 -28.5t84.5 -76.5t42.5 -111.5
t11.5 -133.5q0 -85 -17 -157.5t-56.5 -126t-104 -83.5t-160.5 -30zM291 351q38 0 69.5 11t53.5 29.5t34 43.5t12 53q0 74 -42.5 118.5t-125.5 44.5q-70 0 -113 -38t-43 -113q0 -72 43 -110.5t112 -38.5z" />
    <glyph glyph-name="dollar.tab" unicode="&#xf4ec;" 
d="M277 -10q-57 0 -104 12.5t-84 32.5v92q13 -9 33.5 -18t45 -16.5t53 -12t57.5 -4.5q83 0 120 31.5t37 88.5q0 31 -9 52.5t-28 37.5t-48 28.5t-69 27.5l-25 9q-41 15 -73 32.5t-53.5 41t-33 54t-11.5 72.5q0 77 50.5 124t141.5 59v103h66v-100q39 0 80 -7.5t70 -19.5v-90
q-34 15 -77 23t-89 8q-142 0 -142 -100q0 -21 7 -38t24 -32t46 -30t74 -33l26 -11q49 -20 82.5 -40.5t53.5 -45t28.5 -53.5t8.5 -65q0 -89 -52 -142t-140 -67v-104h-66v100z" />
    <glyph glyph-name="Euro.tab" unicode="&#xf4ed;" 
d="M596 16q-30 -14 -71 -20t-98 -6q-60 0 -112 16.5t-92 50t-67.5 84t-39.5 118.5h-90l17 76h65v25q0 11 0.5 22.5t0.5 22.5h-81l17 76h75q27 128 110.5 192t209.5 64q54 0 92 -6.5t64 -14.5l-19 -82q-34 9 -70 13t-59 4q-94 0 -150.5 -41t-77.5 -129h323l-17 -76h-317
q-1 -10 -1 -20v-21v-15t1 -14h301l-17 -76h-274q22 -91 82 -137t150 -46q32 0 68 5.5t77 22.5v-88z" />
    <glyph glyph-name="cent.tab" unicode="&#xf4ee;" 
d="M318 -5q-112 15 -170 85t-58 191q0 122 58.5 193t169.5 86v112h72v-108q32 0 66.5 -5.5t63.5 -14.5v-82q-35 12 -69 17t-67 5q-103 0 -151.5 -48.5t-48.5 -146.5q0 -102 51.5 -155t155.5 -53q35 0 74 7t65 18v-82q-22 -10 -62.5 -16.5t-77.5 -6.5v-108h-72v112z" />
    <glyph glyph-name="sterling.tab" unicode="&#xf4ef;" 
d="M71 86h100v256h-100v76h100v66q0 253 245 253q32 0 68 -4t62 -11v-88q-34 9 -64 13t-66 4q-149 0 -149 -161v-72h184v-76h-184v-256h284v-86h-480v86z" />
    <glyph glyph-name="yen.tab" unicode="&#xf4fa;" 
d="M359 156v-156h-96v156h-152v76h152v70h-152v76h108l-198 349h112l180 -335l180 335h108l-198 -349h108v-76h-152v-70h152v-76h-152z" />
    <glyph glyph-name="florin.tab" unicode="&#xf4fb;" 
d="M37 -233q-13 0 -24 1.5t-23 3.5l17 80q20 -5 35 -5q52 0 80 28t42 95l105 495h-113l17 80h113l16 76q21 99 72.5 143.5t143.5 44.5q16 0 31 -1.5t36 -4.5l-17 -80q-7 2 -20.5 4t-29.5 2q-30 0 -51 -6t-35.5 -21t-24.5 -40.5t-18 -64.5l-11 -52h152l-17 -80h-152
l-102 -480q-13 -60 -31 -101.5t-44.5 -67.5t-62.5 -37.5t-84 -11.5z" />
    <glyph glyph-name="uni20B4.tab" unicode="&#xf4fc;" 
d="M336 -10q-115 0 -178 43.5t-63 123.5q0 31 10 59.5t23 48.5h-63v70h133l84 70h-217v70h299q36 31 53.5 56t17.5 48q0 34 -27.5 53t-75.5 19q-99 0 -187 -30v90q41 11 92 18.5t91 7.5q207 0 207 -145q0 -27 -15.5 -60.5t-35.5 -56.5h71v-70h-147l-82 -70h229v-70h-310
q-14 -14 -25 -27.5t-16.5 -25.5t-7 -23t-1.5 -22q0 -91 151 -91q49 0 94.5 8.5t74.5 21.5v-90q-18 -6 -40.5 -10.5t-46 -8t-47.5 -5.5t-45 -2z" />
    <glyph glyph-name="uni20BD.tab" unicode="&#xf4fd;" 
d="M227 388h102q84 0 123 31.5t39 98.5t-37 95t-125 28h-102v-253zM442 166h-215v-166h-96v166h-90v76h90v70h-90v76h90v339h205q133 0 194 -50t61 -159q0 -206 -255 -206h-109v-70h215v-76z" />
    <glyph glyph-name="uni20B8.tab" unicode="&#xf5f3;" 
d="M35 727h550v-76h-550v76zM266 505h-231v76h550v-76h-227v-505h-92v505z" />
    <glyph glyph-name="uniF643" unicode="&#xf643;" 
d="M310 76q165 0 165 195q0 103 -42 150.5t-123 47.5q-75 0 -120 -47t-45 -151q0 -102 44 -148.5t121 -46.5zM310 -10q-59 0 -107.5 17t-83.5 52t-54.5 88t-19.5 124q0 72 19 125t54 88.5t83.5 53t108.5 17.5q126 0 195.5 -70t69.5 -214q0 -74 -19.5 -127t-54.5 -87.5
t-83.5 -50.5t-107.5 -16z" />
    <glyph glyph-name="uniF644" unicode="&#xf644;" 
d="M294 430l-117 -73l-47 73l182 115h78v-545h-96v430z" />
    <glyph glyph-name="uniF645" unicode="&#xf645;" 
d="M60 95l190 117q57 35 92 60t54.5 44.5t26.5 35t7 32.5q0 85 -136 85q-55 0 -105.5 -12t-98.5 -34v90q57 24 116 33t116 9q95 0 151.5 -41t56.5 -113q0 -33 -9.5 -60.5t-35 -55.5t-72 -60.5t-119.5 -76.5l-101 -60v-2h357v-86h-490v95z" />
    <glyph glyph-name="uniF646" unicode="&#xf646;" 
d="M267 -191q-55 0 -102.5 8.5t-94.5 25.5v90q81 -38 173 -38q91 0 141.5 35t50.5 98q0 65 -48 95.5t-150 30.5h-76v86h70q97 0 141.5 28.5t44.5 89.5q0 54 -42.5 83t-118.5 29q-44 0 -90 -9.5t-86 -26.5v90q84 32 184 32q125 0 189 -48.5t64 -141.5q0 -67 -39 -109.5
t-112 -55.5v-2q84 -11 126.5 -55t42.5 -117q0 -50 -19 -90t-54.5 -68.5t-85 -44t-109.5 -15.5z" />
    <glyph glyph-name="uniF647" unicode="&#xf647;" 
d="M411 86v370h-2l-273 -370h275zM411 0h-386v81l343 464h139v-459h98v-86h-98v-182h-96v182z" />
    <glyph glyph-name="uniF648" unicode="&#xf648;" 
d="M253 -191q-41 0 -84 6.5t-79 20.5v90q49 -18 81 -24.5t66 -6.5q98 0 150.5 40.5t52.5 113.5q0 143 -177 143q-35 0 -81 -6t-84 -20l22 380h399v-86h-316l-11 -193q29 6 50 8.5t47 2.5q118 0 184.5 -59t66.5 -165q0 -118 -75 -181.5t-212 -63.5z" />
    <glyph glyph-name="uniF649" unicode="&#xf649;" 
d="M330 76q70 0 112.5 38t42.5 113q0 72 -44 108.5t-111 36.5q-38 0 -69 -11t-53 -29t-34 -41t-12 -48q0 -35 11 -65t32 -53t52.5 -36t72.5 -13zM326 -10q-84 0 -137.5 31t-84.5 80t-42.5 110.5t-11.5 123.5q0 85 17 158.5t56.5 127.5t104.5 85t161 31q32 0 64 -4t62 -15
v-92q-31 12 -62.5 18.5t-66.5 6.5q-64 0 -110.5 -22t-76 -60t-43.5 -89.5t-14 -110.5q13 18 31 34.5t41.5 28.5t54 19t70.5 7q50 0 94.5 -13t78.5 -41t53.5 -71t19.5 -103q0 -56 -19.5 -100.5t-54 -75.5t-82 -47.5t-103.5 -16.5z" />
    <glyph glyph-name="uniF64A" unicode="&#xf64a;" 
d="M427 460h-362v86h465v-76l-281 -651h-98z" />
    <glyph glyph-name="uniF64B" unicode="&#xf64b;" 
d="M314 -10q-56 0 -104.5 12.5t-85 37.5t-57.5 63.5t-21 89.5q0 75 43.5 119.5t121.5 67.5q-70 31 -108 72.5t-38 109.5q0 42 17.5 74.5t50 55t78 34t101.5 11.5q51 0 95 -9.5t76.5 -30t51 -52.5t18.5 -77q0 -68 -35.5 -109t-105.5 -71q90 -29 127 -73.5t37 -117.5
q0 -48 -18.5 -86t-53 -65t-83 -41.5t-107.5 -14.5zM319 76q72 0 116.5 31.5t44.5 91.5q0 33 -15.5 56.5t-41 40t-58.5 28.5t-69 22q-30 -10 -57.5 -22.5t-49 -30t-34.5 -39.5t-13 -51q0 -55 43.5 -91t133.5 -36zM331 416q71 31 98.5 65.5t27.5 71.5q0 27 -11 45.5t-31 30
t-47.5 17t-61.5 5.5q-72 0 -108.5 -27t-36.5 -69q0 -29 14 -50t37 -37.5t54 -29t65 -22.5z" />
    <glyph glyph-name="uniF64C" unicode="&#xf64c;" 
d="M233 -191q-33 0 -65 4t-62 15v92q31 -12 63 -18.5t69 -6.5q63 0 108.5 19.5t75 56.5t43.5 90t14 120q-24 -41 -71 -69t-126 -28q-50 0 -95 13.5t-78.5 42t-53 72.5t-19.5 104q0 56 19.5 100.5t54 75.5t82 47.5t103.5 16.5q84 0 137.5 -28.5t84.5 -76.5t42.5 -111.5
t11.5 -133.5q0 -85 -17 -157.5t-56.5 -126t-104 -83.5t-160.5 -30zM291 170q38 0 69.5 11t53.5 29.5t34 43.5t12 53q0 74 -42.5 118.5t-125.5 44.5q-70 0 -113 -38t-43 -113q0 -72 43 -110.5t112 -38.5z" />
    <glyph glyph-name="zero.denominator" unicode="&#xf655;" horiz-adv-x="410" 
d="M205 61q42 0 60 36.5t18 121.5t-18 121.5t-60 36.5q-40 0 -59 -38.5t-19 -119.5q0 -158 78 -158zM205 -9q-170 0 -170 228t170 228q88 0 129 -55t41 -173q0 -116 -41.5 -172t-128.5 -56z" />
    <glyph glyph-name="one.denominator" unicode="&#xf656;" horiz-adv-x="410" 
d="M190 338l-89 -57l-41 61l150 95h70v-436h-90v337z" />
    <glyph glyph-name="two.denominator" unicode="&#xf657;" horiz-adv-x="410" 
d="M40 80l100 75q36 27 59.5 47.5t37.5 38t20 33t6 32.5q0 71 -92 71q-27 0 -54 -6.5t-57 -20.5v72q34 14 65.5 19.5t64.5 5.5q81 0 123 -31.5t42 -91.5q0 -27 -9.5 -52t-30.5 -51.5t-56 -56.5t-86 -66l-35 -25v-2h227v-70h-325v79z" />
    <glyph glyph-name="three.denominator" unicode="&#xf658;" horiz-adv-x="410" 
d="M170 -9q-34 0 -66.5 5.5t-58.5 16.5v72q23 -11 53.5 -17.5t63.5 -6.5q103 0 103 68t-110 68h-55v62h50q105 0 105 61q0 57 -90 57q-64 0 -115 -23v72q29 10 65.5 15.5t68.5 5.5q76 0 118.5 -30t42.5 -84q0 -75 -98 -101v-2q51 -7 79.5 -35.5t28.5 -72.5
q0 -60 -50.5 -95.5t-134.5 -35.5z" />
    <glyph glyph-name="four.denominator" unicode="&#xf659;" horiz-adv-x="410" 
d="M245 162v200h-2l-142 -200h144zM245 92h-225v67l200 278h115v-275h55v-70h-55v-91h-90v91z" />
    <glyph glyph-name="five.denominator" unicode="&#xf65a;" horiz-adv-x="410" 
d="M174 -9q-27 0 -58.5 5t-55.5 16v72q19 -8 34 -12.5t28 -7t26 -3t27 -0.5q45 0 66.5 22.5t21.5 57.5t-21.5 53t-69.5 18q-23 0 -48.5 -4t-52.5 -12l11 241h251v-70h-184l-5 -94q14 4 28 6.5t33 2.5q32 0 59.5 -9t47.5 -27t31.5 -44t11.5 -60q0 -73 -50 -112t-131 -39z" />
    <glyph glyph-name="six.denominator" unicode="&#xf65b;" horiz-adv-x="410" 
d="M214 61q32 0 52.5 23t20.5 60q0 35 -19.5 54t-55.5 19t-57.5 -19.5t-21.5 -55.5t21.5 -58.5t59.5 -22.5zM210 -9q-84 0 -127 54t-43 163q0 118 51 178.5t152 60.5q47 0 92 -13v-72q-22 8 -45 11.5t-43 3.5q-63 0 -95 -36.5t-32 -103.5q18 21 47 33.5t67 12.5
q66 0 103.5 -36.5t37.5 -101.5q0 -70 -44.5 -112t-120.5 -42z" />
    <glyph glyph-name="seven.denominator" unicode="&#xf65c;" horiz-adv-x="410" 
d="M267 365h-212v72h300v-56l-165 -380h-88z" />
    <glyph glyph-name="eight.denominator" unicode="&#xf65d;" horiz-adv-x="410" 
d="M212 257q27 14 42.5 32.5t15.5 37.5q0 20 -14.5 35t-49.5 15q-32 0 -48 -15t-16 -36q0 -23 19 -40.5t51 -28.5zM201 201q-32 -14 -50.5 -31.5t-18.5 -45.5q0 -24 16.5 -43.5t58.5 -19.5q35 0 55 17t20 48q0 16 -7 28t-18.5 21t-26 15t-29.5 11zM277 234q47 -17 71 -43
t24 -66q0 -61 -45 -97.5t-120 -36.5q-34 0 -64 8.5t-52.5 24.5t-35.5 39t-13 52q0 45 25 71t70 43q-47 20 -65.5 44.5t-18.5 59.5q0 52 41.5 83t113.5 31q32 0 60 -7t49 -20.5t32.5 -33.5t11.5 -46q0 -36 -24.5 -62t-59.5 -44z" />
    <glyph glyph-name="nine.denominator" unicode="&#xf65e;" horiz-adv-x="410" 
d="M196 377q-29 0 -50.5 -21.5t-21.5 -60.5q0 -36 20.5 -54.5t53.5 -18.5q14 0 28 3.5t25 12.5t17.5 23t6.5 35q0 35 -20.5 58t-58.5 23zM166 -9q-46 0 -96 14v72q26 -9 50 -12.5t41 -3.5q63 0 96 36.5t33 103.5q-18 -21 -46 -33t-65 -12q-27 0 -53 7.5t-46.5 23.5t-32.5 42
t-12 62t12.5 65t34 49.5t51.5 31t65 10.5q85 0 128.5 -55t43.5 -161q0 -118 -52 -179t-152 -61z" />
    <glyph glyph-name="zero.numerator" unicode="&#xf661;" horiz-adv-x="410" 
d="M205 352q42 0 60 36.5t18 121.5t-18 121.5t-60 36.5q-40 0 -59 -38.5t-19 -119.5q0 -158 78 -158zM205 282q-170 0 -170 228t170 228q88 0 129 -55t41 -173q0 -116 -41.5 -172t-128.5 -56z" />
    <glyph glyph-name="one.numerator" unicode="&#xf662;" horiz-adv-x="410" 
d="M190 629l-89 -57l-41 61l150 95h70v-436h-90v337z" />
    <glyph glyph-name="two.numerator" unicode="&#xf663;" horiz-adv-x="410" 
d="M40 371l100 75q36 27 59.5 47.5t37.5 38t20 33t6 32.5q0 71 -92 71q-27 0 -54 -6.5t-57 -20.5v72q34 14 65.5 19.5t64.5 5.5q81 0 123 -31.5t42 -91.5q0 -27 -9.5 -52t-30.5 -51.5t-56 -56.5t-86 -66l-35 -25v-2h227v-70h-325v79z" />
    <glyph glyph-name="three.numerator" unicode="&#xf664;" horiz-adv-x="410" 
d="M170 282q-34 0 -66.5 5.5t-58.5 16.5v72q23 -11 53.5 -17.5t63.5 -6.5q103 0 103 68t-110 68h-55v62h50q105 0 105 61q0 57 -90 57q-64 0 -115 -23v72q29 10 65.5 15.5t68.5 5.5q76 0 118.5 -30t42.5 -84q0 -75 -98 -101v-2q51 -7 79.5 -35.5t28.5 -72.5
q0 -60 -50.5 -95.5t-134.5 -35.5z" />
    <glyph glyph-name="four.numerator" unicode="&#xf665;" horiz-adv-x="410" 
d="M245 453v200h-2l-142 -200h144zM245 383h-225v67l200 278h115v-275h55v-70h-55v-91h-90v91z" />
    <glyph glyph-name="five.numerator" unicode="&#xf666;" horiz-adv-x="410" 
d="M174 282q-27 0 -58.5 5t-55.5 16v72q19 -8 34 -12.5t28 -7t26 -3t27 -0.5q45 0 66.5 22.5t21.5 57.5t-21.5 53t-69.5 18q-23 0 -48.5 -4t-52.5 -12l11 241h251v-70h-184l-5 -94q14 4 28 6.5t33 2.5q32 0 59.5 -9t47.5 -27t31.5 -44t11.5 -60q0 -73 -50 -112t-131 -39z
" />
    <glyph glyph-name="six.numerator" unicode="&#xf667;" horiz-adv-x="410" 
d="M214 352q32 0 52.5 23t20.5 60q0 35 -19.5 54t-55.5 19t-57.5 -19.5t-21.5 -55.5t21.5 -58.5t59.5 -22.5zM210 282q-84 0 -127 54t-43 163q0 118 51 178.5t152 60.5q47 0 92 -13v-72q-22 8 -45 11.5t-43 3.5q-63 0 -95 -36.5t-32 -103.5q18 21 47 33.5t67 12.5
q66 0 103.5 -36.5t37.5 -101.5q0 -70 -44.5 -112t-120.5 -42z" />
    <glyph glyph-name="seven.numerator" unicode="&#xf668;" horiz-adv-x="410" 
d="M267 656h-212v72h300v-56l-165 -380h-88z" />
    <glyph glyph-name="eight.numerator" unicode="&#xf669;" horiz-adv-x="410" 
d="M210 548q27 14 42.5 32.5t15.5 37.5q0 20 -14.5 35t-49.5 15q-32 0 -48 -15t-16 -36q0 -23 19 -40.5t51 -28.5zM199 492q-32 -14 -50.5 -31.5t-18.5 -45.5q0 -24 16.5 -43.5t58.5 -19.5q35 0 55 17t20 48q0 16 -7 28t-18.5 21t-26 15t-29.5 11zM275 525q47 -17 71 -43
t24 -66q0 -61 -45 -97.5t-120 -36.5q-34 0 -64 8.5t-52.5 24.5t-35.5 39t-13 52q0 45 25 71t70 43q-47 20 -65.5 44.5t-18.5 59.5q0 52 41.5 83t113.5 31q32 0 60 -7t49 -20.5t32.5 -33.5t11.5 -46q0 -36 -24.5 -62t-59.5 -44z" />
    <glyph glyph-name="nine.numerator" unicode="&#xf66a;" horiz-adv-x="410" 
d="M194 668q-29 0 -50.5 -21.5t-21.5 -60.5q0 -36 20.5 -54.5t53.5 -18.5q14 0 28 3.5t25 12.5t17.5 23t6.5 35q0 35 -20.5 58t-58.5 23zM164 282q-46 0 -96 14v72q26 -9 50 -12.5t41 -3.5q63 0 96 36.5t33 103.5q-18 -21 -46 -33t-65 -12q-27 0 -53 7.5t-46.5 23.5
t-32.5 42t-12 62t12.5 65t34 49.5t51.5 31t65 10.5q85 0 128.5 -55t43.5 -161q0 -118 -52 -179t-152 -61z" />
    <glyph glyph-name="uniF6BA" unicode="&#xf6ba;" horiz-adv-x="540" 
d="M445 330h-350v80h350v-80z" />
    <glyph glyph-name="uniF6BB" unicode="&#xf6bb;" horiz-adv-x="720" 
d="M60 410h600v-80h-600v80z" />
    <glyph glyph-name="uniF6BC" unicode="&#xf6bc;" horiz-adv-x="900" 
d="M60 410h780v-80h-780v80z" />
    <glyph glyph-name="uniF6C3" unicode="&#xf6c3;" horiz-adv-x="200" 
d="M36 -190q37 0 57 11.5t20 31.5q-15 -4 -32 -4q-61 0 -61 47q0 24 22.5 39t57.5 15q38 0 59 -21t21 -58q0 -54 -37.5 -82.5t-106.5 -28.5v50z" />
    <glyph glyph-name="uniF6C9" unicode="&#xf6c9;" horiz-adv-x="260" 
d="M108 790h-88l86 140h134z" />
    <glyph glyph-name="uniF6CA" unicode="&#xf6ca;" horiz-adv-x="390" 
d="M250 790h-110l-120 140h94l81 -81l81 81h94z" />
    <glyph glyph-name="uniF6CB" unicode="&#xf6cb;" horiz-adv-x="390" 
d="M370 860q0 -26 -16 -42t-42 -16t-42 16t-16 42t16 42t42 16t42 -16t16 -42zM136 860q0 -26 -16 -42t-42 -16t-42 16t-16 42t16 42t42 16t42 -16t16 -42z" />
    <glyph glyph-name="uniF6CE" unicode="&#xf6ce;" horiz-adv-x="260" 
d="M240 790h-88l-132 140h134z" />
    <glyph glyph-name="uniF6CF" unicode="&#xf6cf;" horiz-adv-x="461" 
d="M440 930l-142 -140h-88l96 140h134zM250 930l-142 -140h-88l96 140h134z" />
    <glyph glyph-name="uniF6D0" unicode="&#xf6d0;" horiz-adv-x="370" 
d="M20 897h330v-74h-330v74z" />
    <glyph glyph-name="uniF6D1" unicode="&#xf6d1;" horiz-adv-x="380" 
d="M360 921q-17 -133 -170 -133t-170 133l77 11q8 -38 30 -55t63 -17q42 0 64.5 17t29.5 55z" />
    <glyph glyph-name="uniF6D4" unicode="&#xf6d4;" horiz-adv-x="390" 
d="M370 765q-7 -67 -52.5 -103.5t-122.5 -36.5q-76 0 -121.5 36.5t-53.5 103.5l77 10q6 -37 31.5 -57.5t66.5 -20.5q42 0 67 20t31 58z" />
    <glyph glyph-name="uniF730" unicode="&#xf730;" horiz-adv-x="640" 
d="M320 76q165 0 165 195q0 103 -42 150.5t-123 47.5q-75 0 -120 -47t-45 -151q0 -102 44 -148.5t121 -46.5zM320 -10q-59 0 -107.5 17t-83.5 52t-54.5 88t-19.5 124q0 72 19 125t54 88.5t83.5 53t108.5 17.5q126 0 195.5 -70t69.5 -214q0 -74 -19.5 -127t-54.5 -87.5
t-83.5 -50.5t-107.5 -16z" />
    <glyph glyph-name="uniF731" unicode="&#xf731;" horiz-adv-x="400" 
d="M205 430l-117 -73l-47 73l182 115h78v-545h-96v430z" />
    <glyph glyph-name="uniF732" unicode="&#xf732;" horiz-adv-x="600" 
d="M60 95l190 117q57 35 92 60t54.5 44.5t26.5 35t7 32.5q0 85 -136 85q-55 0 -105.5 -12t-98.5 -34v90q57 24 116 33t116 9q95 0 151.5 -41t56.5 -113q0 -33 -9.5 -60.5t-35 -55.5t-72 -60.5t-119.5 -76.5l-101 -60v-2h357v-86h-490v95z" />
    <glyph glyph-name="uniF733" unicode="&#xf733;" horiz-adv-x="555" 
d="M233 -201q-55 0 -102.5 8.5t-94.5 25.5v90q81 -38 173 -38q91 0 141.5 35t50.5 98q0 65 -48 95.5t-150 30.5h-76v86h70q97 0 141.5 28.5t44.5 89.5q0 54 -42.5 83t-118.5 29q-44 0 -90 -9.5t-86 -26.5v90q84 32 184 32q125 0 189 -48.5t64 -141.5q0 -67 -39 -109.5
t-112 -55.5v-2q84 -11 126.5 -55t42.5 -117q0 -50 -19 -90t-54.5 -68.5t-85 -44t-109.5 -15.5z" />
    <glyph glyph-name="uniF734" unicode="&#xf734;" horiz-adv-x="630" 
d="M416 86v370h-2l-273 -370h275zM416 0h-386v81l343 464h139v-459h98v-86h-98v-182h-96v182z" />
    <glyph glyph-name="uniF735" unicode="&#xf735;" horiz-adv-x="570" 
d="M234 -191q-41 0 -84 6.5t-79 20.5v90q49 -18 81 -24.5t66 -6.5q98 0 150.5 40.5t52.5 113.5q0 143 -177 143q-35 0 -81 -6t-84 -20l22 380h399v-86h-316l-11 -193q29 6 50 8.5t47 2.5q118 0 184.5 -59t66.5 -165q0 -118 -75 -181.5t-212 -63.5z" />
    <glyph glyph-name="uniF736" unicode="&#xf736;" horiz-adv-x="645" 
d="M345 76q70 0 112.5 38t42.5 113q0 72 -44 108.5t-111 36.5q-38 0 -69 -11t-53 -29t-34 -41t-12 -48q0 -35 11 -65t32 -53t52.5 -36t72.5 -13zM341 -10q-84 0 -137.5 31t-84.5 80t-42.5 110.5t-11.5 123.5q0 85 17 158.5t56.5 127.5t104.5 85t161 31q32 0 64 -4t62 -15
v-92q-31 12 -62.5 18.5t-66.5 6.5q-64 0 -110.5 -22t-76 -60t-43.5 -89.5t-14 -110.5q13 18 31 34.5t41.5 28.5t54 19t70.5 7q50 0 94.5 -13t78.5 -41t53.5 -71t19.5 -103q0 -56 -19.5 -100.5t-54 -75.5t-82 -47.5t-103.5 -16.5z" />
    <glyph glyph-name="uniF737" unicode="&#xf737;" horiz-adv-x="515" 
d="M383 452h-362v86h465v-76l-281 -651h-98z" />
    <glyph glyph-name="uniF738" unicode="&#xf738;" horiz-adv-x="650" 
d="M328 -10q-56 0 -104.5 12.5t-85 37.5t-57.5 63.5t-21 89.5q0 75 43.5 119.5t121.5 67.5q-70 31 -108 72.5t-38 109.5q0 42 17.5 74.5t50 55t78 34t101.5 11.5q51 0 95 -9.5t76.5 -30t51 -52.5t18.5 -77q0 -68 -35.5 -109t-105.5 -71q90 -29 127 -73.5t37 -117.5
q0 -48 -18.5 -86t-53 -65t-83 -41.5t-107.5 -14.5zM333 76q72 0 116.5 31.5t44.5 91.5q0 33 -15.5 56.5t-41 40t-58.5 28.5t-69 22q-30 -10 -57.5 -22.5t-49 -30t-34.5 -39.5t-13 -51q0 -55 43.5 -91t133.5 -36zM345 416q71 31 98.5 65.5t27.5 71.5q0 27 -11 45.5t-31 30
t-47.5 17t-61.5 5.5q-72 0 -108.5 -27t-36.5 -69q0 -29 14 -50t37 -37.5t54 -29t65 -22.5z" />
    <glyph glyph-name="uniF739" unicode="&#xf739;" horiz-adv-x="641" 
d="M244 -200q-33 0 -65 4t-62 15v92q31 -12 63 -18.5t69 -6.5q63 0 108.5 19.5t75 56.5t43.5 90t14 120q-24 -41 -71 -69t-126 -28q-50 0 -95 13.5t-78.5 42t-53 72.5t-19.5 104q0 56 19.5 100.5t54 75.5t82 47.5t103.5 16.5q84 0 137.5 -28.5t84.5 -76.5t42.5 -111.5
t11.5 -133.5q0 -85 -17 -157.5t-56.5 -126t-104 -83.5t-160.5 -30zM302 161q38 0 69.5 11t53.5 29.5t34 43.5t12 53q0 74 -42.5 118.5t-125.5 44.5q-70 0 -113 -38t-43 -113q0 -72 43 -110.5t112 -38.5z" />
    <glyph glyph-name="uniFEFF" unicode="&#xfeff;" horiz-adv-x="0" 
 />
    <glyph glyph-name="zero.slash" horiz-adv-x="690" 
d="M345 -10q-130 0 -200 90t-70 284q0 98 18.5 168.5t53.5 116t85 67t113 21.5q139 0 204.5 -88.5t65.5 -284.5q0 -101 -17.5 -172t-52 -116t-85 -65.5t-115.5 -20.5zM345 76q44 0 76 15t53 49.5t31 89t10 134.5q0 82 -11 137q-3 17 -7 32l-265 -413q18 -19 40 -30
q32 -14 73 -14zM420 637q-32 14 -75 14q-39 0 -70.5 -14t-53.5 -47t-34 -88.5t-12 -137.5q0 -81 11 -137q3 -15 7 -29l264 411q-16 18 -37 28z" />
    <glyph glyph-name="zero.slash.tab" 
d="M311 -10q-130 0 -200 90t-70 284q0 98 18.5 168.5t53.5 116t85 67t113 21.5q139 0 204.5 -88.5t65.5 -284.5q0 -101 -17.5 -172t-52 -116t-85 -65.5t-115.5 -20.5zM311 76q44 0 76 15t53 49.5t31 89t10 134.5q0 82 -11 137q-3 17 -7 32l-265 -413q18 -19 40 -30
q32 -14 73 -14zM386 637q-32 14 -75 14q-39 0 -70.5 -14t-53.5 -47t-34 -88.5t-12 -137.5q0 -81 11 -137q3 -15 7 -29l264 411q-16 18 -37 28z" />
    </font>
</defs>
</svg>
