<svg width="34" height="34" viewBox="0 0 34 34" fill="none" xmlns="http://www.w3.org/2000/svg">
<path d="M1 9V5C1 3.93913 1.42143 2.92172 2.17157 2.17157C2.92172 1.42143 3.93913 1 5 1H9M1 25V29C1 30.0609 1.42143 31.0783 2.17157 31.8284C2.92172 32.5786 3.93913 33 5 33H9M25 1H29C30.0609 1 31.0783 1.42143 31.8284 2.17157C32.5786 2.92172 33 3.93913 33 5V9M25 33H29C30.0609 33 31.0783 32.5786 31.8284 31.8284C32.5786 31.0783 33 30.0609 33 29V25M12 23C12.6518 23.6652 13.4297 24.1937 14.2883 24.5544C15.1468 24.9152 16.0687 25.101 17 25.101C17.9313 25.101 18.8532 24.9152 19.7117 24.5544C20.5703 24.1937 21.3482 23.6652 22 23M11.48 13.64C11.48 14.4353 10.8353 15.08 10.04 15.08C9.24471 15.08 8.6 14.4353 8.6 13.64C8.6 12.8447 9.24471 12.2 10.04 12.2C10.8353 12.2 11.48 12.8447 11.48 13.64ZM25.4001 13.64C25.4001 14.4352 24.7554 15.08 23.9601 15.08C23.1648 15.08 22.5201 14.4352 22.5201 13.64C22.5201 12.8447 23.1648 12.2 23.9601 12.2C24.7554 12.2 25.4001 12.8447 25.4001 13.64Z" stroke="white" stroke-width="1.5" stroke-linecap="round"/>
</svg>
