<svg width="39" height="34" viewBox="0 0 39 34" fill="none" xmlns="http://www.w3.org/2000/svg">
<path d="M34.3346 18.1434L19.3346 32.9994L4.33459 18.1434C3.3452 17.1806 2.56587 16.0234 2.04568 14.7446C1.52549 13.4659 1.27571 12.0933 1.31206 10.7132C1.34841 9.33321 1.67011 7.97565 2.2569 6.72605C2.84369 5.47645 3.68286 4.36189 4.72156 3.45254C5.76026 2.54319 6.976 1.85875 8.29221 1.44234C9.60842 1.02592 10.9966 0.886545 12.3693 1.03298C13.742 1.17941 15.0696 1.60849 16.2683 2.29319C17.4671 2.97789 18.5111 3.90338 19.3346 5.01138C20.1617 3.91142 21.2069 2.99402 22.4048 2.31659C23.6027 1.63915 24.9276 1.21628 26.2964 1.07442C27.6653 0.932558 29.0487 1.07477 30.3601 1.49216C31.6715 1.90955 32.8826 2.59312 33.9177 3.5001C34.9527 4.40708 35.7894 5.51794 36.3754 6.76316C36.9614 8.00838 37.2841 9.36114 37.3232 10.7368C37.3623 12.1124 37.1171 13.4814 36.6029 14.7579C36.0886 16.0344 35.3164 17.191 34.3346 18.1554M19.3346 4.99938L12.7486 11.5854C12.3736 11.9604 12.163 12.469 12.163 12.9994C12.163 13.5297 12.3736 14.0383 12.7486 14.4134L13.8346 15.4994C15.2146 16.8794 17.4546 16.8794 18.8346 15.4994L20.8346 13.4994C22.0281 12.3059 23.6468 11.6354 25.3346 11.6354C27.0224 11.6354 28.6411 12.3059 29.8346 13.4994L34.3346 17.9994M20.3346 23.9994L24.3346 27.9994M25.3346 18.9994L29.3346 22.9994" stroke="white" stroke-width="1.5" stroke-linecap="round" stroke-linejoin="round"/>
</svg>
