<svg width="38" height="38" viewBox="0 0 38 38" fill="none" xmlns="http://www.w3.org/2000/svg">
<path d="M36.9997 1L26.9997 19H36.9997L23.2177 33.172C21.9836 34.4087 20.5129 35.3839 18.8934 36.0395C17.2739 36.695 15.5389 37.0174 13.7921 36.9874C12.0452 36.9573 10.3224 36.5755 8.72641 35.8646C7.13044 35.1538 5.69414 34.1286 4.50329 32.8502C3.31245 31.5718 2.39151 30.0665 1.79549 28.4242C1.19947 26.7819 0.940605 25.0363 1.03436 23.2917C1.12811 21.5471 1.57255 19.8393 2.34114 18.2703C3.10972 16.7014 4.18668 15.3034 5.50766 14.16L20.9997 1L18.9997 11L36.9997 1Z" stroke="white" stroke-width="1.5" stroke-linecap="round" stroke-linejoin="round"/>
<path d="M13.9998 29C16.7612 29 18.9998 26.7614 18.9998 24C18.9998 21.2386 16.7612 19 13.9998 19C11.2383 19 8.99976 21.2386 8.99976 24C8.99976 26.7614 11.2383 29 13.9998 29Z" stroke="white" stroke-width="1.5" stroke-linecap="round" stroke-linejoin="round"/>
</svg>
