<svg width="38" height="38" viewBox="0 0 38 38" fill="none" xmlns="http://www.w3.org/2000/svg">
<path d="M19 11V19L25 25M12.12 2.38C9.93619 3.28398 7.95177 4.60919 6.28003 6.28M2.38 12.12C1.47311 14.3006 1.00421 16.6383 1 19M2.37988 25.88C3.28386 28.0638 4.60907 30.0483 6.27988 31.72M12.1201 35.62C14.3007 36.5269 16.6385 36.9958 19.0001 37M25.8799 35.62C28.0637 34.716 30.0481 33.3908 31.7199 31.72M35.6201 25.88C36.527 23.6994 36.9959 21.3617 37.0001 19M35.62 12.12C34.716 9.93619 33.3908 7.95177 31.72 6.28003M25.88 2.38C23.6994 1.47311 21.3617 1.00421 19 1" stroke="white" stroke-width="1.5" stroke-linecap="round" stroke-linejoin="round"/>
</svg>
