<svg width="35" height="34" viewBox="0 0 35 34" fill="none" xmlns="http://www.w3.org/2000/svg">
<path d="M1.66602 9V5C1.66602 3.93913 2.08744 2.92172 2.83759 2.17157C3.58773 1.42143 4.60515 1 5.66602 1H9.66602M1.66602 25V29C1.66602 30.0609 2.08744 31.0783 2.83759 31.8284C3.58773 32.5786 4.60515 33 5.66602 33H9.66602M25.666 1H29.666C30.7269 1 31.7443 1.42143 32.4944 2.17157C33.2446 2.92172 33.666 3.93913 33.666 5V9M25.666 33H29.666C30.7269 33 31.7443 32.5786 32.4944 31.8284C33.2446 31.0783 33.666 30.0609 33.666 29V25M17.666 15V15.02M17.666 28.9999L10.666 18.9999C9.99215 17.782 9.64773 16.4093 9.66676 15.0175C9.6858 13.6257 10.0677 12.263 10.7746 11.0639C11.4815 9.86489 12.489 8.87104 13.6976 8.18058C14.9063 7.49012 16.2741 7.12695 17.666 7.12695C19.0579 7.12695 20.4258 7.49012 21.6344 8.18058C22.843 8.87104 23.8505 9.86489 24.5575 11.0639C25.2644 12.263 25.6462 13.6257 25.6653 15.0175C25.6843 16.4093 25.3399 17.782 24.666 18.9999L17.666 28.9999Z" stroke="white" stroke-width="1.5" stroke-linecap="round" stroke-linejoin="round"/>
</svg>
