<svg width="450" height="428" viewBox="0 0 450 428" fill="none" xmlns="http://www.w3.org/2000/svg">
<g filter="url(#filter0_b_3263_108675)">
<path d="M6.00072 351L79.393 479L427.002 479L354.002 351L6.00072 351Z" fill="url(#paint0_linear_3263_108675)"/>
<path d="M6.00072 351L79.393 479L427.002 479L354.002 351L6.00072 351Z" fill="url(#paint1_linear_3263_108675)" fill-opacity="0.05"/>
</g>
<g filter="url(#filter1_b_3263_108675)">
<path d="M79.8037 223.504L6 351H354.008L427.5 223.5L79.8037 223.504Z" fill="url(#paint2_linear_3263_108675)"/>
<path d="M79.8037 223.504L6 351H354.008L427.5 223.5L79.8037 223.504Z" fill="url(#paint3_linear_3263_108675)" fill-opacity="0.05"/>
<path d="M154 95.5L79.8848 223.5H153.688H427.5L501.008 95.5H154Z" fill="url(#paint4_linear_3263_108675)"/>
<path d="M154 95.5L79.8848 223.5H153.688H427.5L501.008 95.5H154Z" fill="url(#paint5_linear_3263_108675)" fill-opacity="0.05"/>
</g>
<g filter="url(#filter2_b_3263_108675)">
<path d="M80 -32.5L154 95.5L501 95.5L427 -32.5L80 -32.5Z" fill="url(#paint6_linear_3263_108675)"/>
</g>
<g filter="url(#filter3_b_3263_108675)">
<path d="M74 482L0.5 351L73.8037 223.504L147.5 95.5L75 -29.5L80 -32.5L154.196 95.5L80.5811 223.5L6.99902 351L79.5 479L74 482Z" fill="#F0F3F4" fill-opacity="0.6"/>
<path d="M147.587 95.5499C147.605 95.5189 147.604 95.4808 147.587 95.4498L75.1359 -29.4649L79.9644 -32.362L154.081 95.5002L80.4944 223.45L80.4944 223.45L6.91241 350.95C6.8947 350.981 6.89455 351.018 6.91201 351.049L79.3629 478.961L74.0389 481.865L0.614998 351.001L73.8904 223.554L147.587 95.5499Z" stroke="url(#paint7_linear_3263_108675)" stroke-width="0.2" stroke-linejoin="round"/>
</g>
<g filter="url(#filter4_b_3263_108675)">
<path d="M105.001 328L178.393 456L526.002 456L453.002 328L105.001 328Z" fill="url(#paint8_linear_3263_108675)"/>
<path d="M105.001 328L178.393 456L526.002 456L453.002 328L105.001 328Z" fill="url(#paint9_linear_3263_108675)" fill-opacity="0.05"/>
</g>
<g filter="url(#filter5_b_3263_108675)">
<path d="M178.804 200.504L105 328H453.008L526.5 200.5L178.804 200.504Z" fill="url(#paint10_linear_3263_108675)"/>
<path d="M178.804 200.504L105 328H453.008L526.5 200.5L178.804 200.504Z" fill="url(#paint11_linear_3263_108675)" fill-opacity="0.05"/>
<path d="M253 72.5L178.885 200.5H252.688H526.5L600.008 72.5H253Z" fill="url(#paint12_linear_3263_108675)"/>
<path d="M253 72.5L178.885 200.5H252.688H526.5L600.008 72.5H253Z" fill="url(#paint13_linear_3263_108675)" fill-opacity="0.05"/>
</g>
<g filter="url(#filter6_b_3263_108675)">
<path d="M179 -55.5L253 72.5L600 72.5L526 -55.5L179 -55.5Z" fill="url(#paint14_linear_3263_108675)"/>
</g>
<g filter="url(#filter7_b_3263_108675)">
<path d="M173 459L99.5 328L172.804 200.504L246.5 72.5L174 -52.5L179 -55.5L253.196 72.5L179.581 200.5L105.999 328L178.5 456L173 459Z" fill="#F0F3F4" fill-opacity="0.6"/>
<path d="M246.587 72.5499C246.605 72.5189 246.604 72.4808 246.587 72.4498L174.136 -52.4649L178.964 -55.362L253.081 72.5002L179.494 200.45L179.494 200.45L105.912 327.95C105.895 327.981 105.895 328.018 105.912 328.049L178.363 455.961L173.039 458.865L99.615 328.001L172.89 200.554L246.587 72.5499Z" stroke="url(#paint15_linear_3263_108675)" stroke-width="0.2" stroke-linejoin="round"/>
</g>
<g filter="url(#filter8_b_3263_108675)">
<path d="M216.001 348L289.393 476L637.002 476L564.002 348L216.001 348Z" fill="url(#paint16_linear_3263_108675)"/>
<path d="M216.001 348L289.393 476L637.002 476L564.002 348L216.001 348Z" fill="url(#paint17_linear_3263_108675)" fill-opacity="0.05"/>
</g>
<g filter="url(#filter9_b_3263_108675)">
<path d="M289.804 220.504L216 348H564.008L637.5 220.5L289.804 220.504Z" fill="url(#paint18_linear_3263_108675)"/>
<path d="M289.804 220.504L216 348H564.008L637.5 220.5L289.804 220.504Z" fill="url(#paint19_linear_3263_108675)" fill-opacity="0.05"/>
<path d="M364 92.5L289.885 220.5H363.688H637.5L711.008 92.5H364Z" fill="url(#paint20_linear_3263_108675)"/>
<path d="M364 92.5L289.885 220.5H363.688H637.5L711.008 92.5H364Z" fill="url(#paint21_linear_3263_108675)" fill-opacity="0.05"/>
</g>
<g filter="url(#filter10_b_3263_108675)">
<path d="M290 -35.5L364 92.5L711 92.5L637 -35.5L290 -35.5Z" fill="url(#paint22_linear_3263_108675)"/>
</g>
<g filter="url(#filter11_b_3263_108675)">
<path d="M284 479L210.5 348L283.804 220.504L357.5 92.5L285 -32.5L290 -35.5L364.196 92.5L290.581 220.5L216.999 348L289.5 476L284 479Z" fill="#F0F3F4" fill-opacity="0.6"/>
<path d="M357.587 92.5499C357.605 92.5189 357.604 92.4808 357.587 92.4498L285.136 -32.4649L289.964 -35.362L364.081 92.5002L290.494 220.45L290.494 220.45L216.912 347.95C216.895 347.981 216.895 348.018 216.912 348.049L289.363 475.961L284.039 478.865L210.615 348.001L283.89 220.554L357.587 92.5499Z" stroke="url(#paint23_linear_3263_108675)" stroke-width="0.2" stroke-linejoin="round"/>
</g>
<defs>
<filter id="filter0_b_3263_108675" x="-4" y="341" width="441" height="148" filterUnits="userSpaceOnUse" color-interpolation-filters="sRGB">
<feFlood flood-opacity="0" result="BackgroundImageFix"/>
<feGaussianBlur in="BackgroundImageFix" stdDeviation="5"/>
<feComposite in2="SourceAlpha" operator="in" result="effect1_backgroundBlur_3263_108675"/>
<feBlend mode="normal" in="SourceGraphic" in2="effect1_backgroundBlur_3263_108675" result="shape"/>
</filter>
<filter id="filter1_b_3263_108675" x="-4" y="85.5" width="515.008" height="275.5" filterUnits="userSpaceOnUse" color-interpolation-filters="sRGB">
<feFlood flood-opacity="0" result="BackgroundImageFix"/>
<feGaussianBlur in="BackgroundImageFix" stdDeviation="5"/>
<feComposite in2="SourceAlpha" operator="in" result="effect1_backgroundBlur_3263_108675"/>
<feBlend mode="normal" in="SourceGraphic" in2="effect1_backgroundBlur_3263_108675" result="shape"/>
</filter>
<filter id="filter2_b_3263_108675" x="70" y="-42.5" width="441" height="148" filterUnits="userSpaceOnUse" color-interpolation-filters="sRGB">
<feFlood flood-opacity="0" result="BackgroundImageFix"/>
<feGaussianBlur in="BackgroundImageFix" stdDeviation="5"/>
<feComposite in2="SourceAlpha" operator="in" result="effect1_backgroundBlur_3263_108675"/>
<feBlend mode="normal" in="SourceGraphic" in2="effect1_backgroundBlur_3263_108675" result="shape"/>
</filter>
<filter id="filter3_b_3263_108675" x="-9.5" y="-42.5" width="173.695" height="534.5" filterUnits="userSpaceOnUse" color-interpolation-filters="sRGB">
<feFlood flood-opacity="0" result="BackgroundImageFix"/>
<feGaussianBlur in="BackgroundImageFix" stdDeviation="5"/>
<feComposite in2="SourceAlpha" operator="in" result="effect1_backgroundBlur_3263_108675"/>
<feBlend mode="normal" in="SourceGraphic" in2="effect1_backgroundBlur_3263_108675" result="shape"/>
</filter>
<filter id="filter4_b_3263_108675" x="95" y="318" width="441" height="148" filterUnits="userSpaceOnUse" color-interpolation-filters="sRGB">
<feFlood flood-opacity="0" result="BackgroundImageFix"/>
<feGaussianBlur in="BackgroundImageFix" stdDeviation="5"/>
<feComposite in2="SourceAlpha" operator="in" result="effect1_backgroundBlur_3263_108675"/>
<feBlend mode="normal" in="SourceGraphic" in2="effect1_backgroundBlur_3263_108675" result="shape"/>
</filter>
<filter id="filter5_b_3263_108675" x="95" y="62.5" width="515.008" height="275.5" filterUnits="userSpaceOnUse" color-interpolation-filters="sRGB">
<feFlood flood-opacity="0" result="BackgroundImageFix"/>
<feGaussianBlur in="BackgroundImageFix" stdDeviation="5"/>
<feComposite in2="SourceAlpha" operator="in" result="effect1_backgroundBlur_3263_108675"/>
<feBlend mode="normal" in="SourceGraphic" in2="effect1_backgroundBlur_3263_108675" result="shape"/>
</filter>
<filter id="filter6_b_3263_108675" x="169" y="-65.5" width="441" height="148" filterUnits="userSpaceOnUse" color-interpolation-filters="sRGB">
<feFlood flood-opacity="0" result="BackgroundImageFix"/>
<feGaussianBlur in="BackgroundImageFix" stdDeviation="5"/>
<feComposite in2="SourceAlpha" operator="in" result="effect1_backgroundBlur_3263_108675"/>
<feBlend mode="normal" in="SourceGraphic" in2="effect1_backgroundBlur_3263_108675" result="shape"/>
</filter>
<filter id="filter7_b_3263_108675" x="89.5" y="-65.5" width="173.695" height="534.5" filterUnits="userSpaceOnUse" color-interpolation-filters="sRGB">
<feFlood flood-opacity="0" result="BackgroundImageFix"/>
<feGaussianBlur in="BackgroundImageFix" stdDeviation="5"/>
<feComposite in2="SourceAlpha" operator="in" result="effect1_backgroundBlur_3263_108675"/>
<feBlend mode="normal" in="SourceGraphic" in2="effect1_backgroundBlur_3263_108675" result="shape"/>
</filter>
<filter id="filter8_b_3263_108675" x="206" y="338" width="441" height="148" filterUnits="userSpaceOnUse" color-interpolation-filters="sRGB">
<feFlood flood-opacity="0" result="BackgroundImageFix"/>
<feGaussianBlur in="BackgroundImageFix" stdDeviation="5"/>
<feComposite in2="SourceAlpha" operator="in" result="effect1_backgroundBlur_3263_108675"/>
<feBlend mode="normal" in="SourceGraphic" in2="effect1_backgroundBlur_3263_108675" result="shape"/>
</filter>
<filter id="filter9_b_3263_108675" x="206" y="82.5" width="515.008" height="275.5" filterUnits="userSpaceOnUse" color-interpolation-filters="sRGB">
<feFlood flood-opacity="0" result="BackgroundImageFix"/>
<feGaussianBlur in="BackgroundImageFix" stdDeviation="5"/>
<feComposite in2="SourceAlpha" operator="in" result="effect1_backgroundBlur_3263_108675"/>
<feBlend mode="normal" in="SourceGraphic" in2="effect1_backgroundBlur_3263_108675" result="shape"/>
</filter>
<filter id="filter10_b_3263_108675" x="280" y="-45.5" width="441" height="148" filterUnits="userSpaceOnUse" color-interpolation-filters="sRGB">
<feFlood flood-opacity="0" result="BackgroundImageFix"/>
<feGaussianBlur in="BackgroundImageFix" stdDeviation="5"/>
<feComposite in2="SourceAlpha" operator="in" result="effect1_backgroundBlur_3263_108675"/>
<feBlend mode="normal" in="SourceGraphic" in2="effect1_backgroundBlur_3263_108675" result="shape"/>
</filter>
<filter id="filter11_b_3263_108675" x="200.5" y="-45.5" width="173.695" height="534.5" filterUnits="userSpaceOnUse" color-interpolation-filters="sRGB">
<feFlood flood-opacity="0" result="BackgroundImageFix"/>
<feGaussianBlur in="BackgroundImageFix" stdDeviation="5"/>
<feComposite in2="SourceAlpha" operator="in" result="effect1_backgroundBlur_3263_108675"/>
<feBlend mode="normal" in="SourceGraphic" in2="effect1_backgroundBlur_3263_108675" result="shape"/>
</filter>
<linearGradient id="paint0_linear_3263_108675" x1="18.002" y1="415" x2="117.002" y2="357.842" gradientUnits="userSpaceOnUse">
<stop stop-color="white" stop-opacity="0.6"/>
<stop offset="1" stop-color="#45B0EF" stop-opacity="0.6"/>
</linearGradient>
<linearGradient id="paint1_linear_3263_108675" x1="42.9038" y1="351" x2="98.3294" y2="447" gradientUnits="userSpaceOnUse">
<stop stop-color="white"/>
<stop offset="1" stop-color="white" stop-opacity="0"/>
</linearGradient>
<linearGradient id="paint2_linear_3263_108675" x1="84" y1="96" x2="231" y2="175" gradientUnits="userSpaceOnUse">
<stop stop-color="white" stop-opacity="0.6"/>
<stop offset="1" stop-color="#45B0EF" stop-opacity="0.6"/>
</linearGradient>
<linearGradient id="paint3_linear_3263_108675" x1="185.5" y1="95.9998" x2="121.608" y2="143.425" gradientUnits="userSpaceOnUse">
<stop stop-color="white"/>
<stop offset="1" stop-color="white" stop-opacity="0"/>
</linearGradient>
<linearGradient id="paint4_linear_3263_108675" x1="84" y1="96" x2="231" y2="175" gradientUnits="userSpaceOnUse">
<stop stop-color="white" stop-opacity="0.6"/>
<stop offset="1" stop-color="#45B0EF" stop-opacity="0.6"/>
</linearGradient>
<linearGradient id="paint5_linear_3263_108675" x1="185.5" y1="95.9998" x2="121.608" y2="143.425" gradientUnits="userSpaceOnUse">
<stop stop-color="white"/>
<stop offset="1" stop-color="white" stop-opacity="0"/>
</linearGradient>
<linearGradient id="paint6_linear_3263_108675" x1="116.787" y1="31.7479" x2="227.492" y2="-32.1679" gradientUnits="userSpaceOnUse">
<stop stop-color="white" stop-opacity="0.6"/>
<stop offset="1" stop-color="#45B0EF" stop-opacity="0.6"/>
</linearGradient>
<linearGradient id="paint7_linear_3263_108675" x1="77.1924" y1="-32.168" x2="77.1924" y2="479.168" gradientUnits="userSpaceOnUse">
<stop offset="0.015625" stop-color="#FAFDFF" stop-opacity="0.18"/>
<stop offset="0.375" stop-color="#67B7E7"/>
<stop offset="1" stop-color="#E8E8E8" stop-opacity="0"/>
</linearGradient>
<linearGradient id="paint8_linear_3263_108675" x1="117.002" y1="392" x2="216.002" y2="334.842" gradientUnits="userSpaceOnUse">
<stop stop-color="white" stop-opacity="0.6"/>
<stop offset="1" stop-color="#45B0EF" stop-opacity="0.6"/>
</linearGradient>
<linearGradient id="paint9_linear_3263_108675" x1="141.904" y1="328" x2="197.329" y2="424" gradientUnits="userSpaceOnUse">
<stop stop-color="white"/>
<stop offset="1" stop-color="white" stop-opacity="0"/>
</linearGradient>
<linearGradient id="paint10_linear_3263_108675" x1="183" y1="73" x2="330" y2="152" gradientUnits="userSpaceOnUse">
<stop stop-color="white" stop-opacity="0.6"/>
<stop offset="1" stop-color="#45B0EF" stop-opacity="0.6"/>
</linearGradient>
<linearGradient id="paint11_linear_3263_108675" x1="284.5" y1="72.9998" x2="220.608" y2="120.425" gradientUnits="userSpaceOnUse">
<stop stop-color="white"/>
<stop offset="1" stop-color="white" stop-opacity="0"/>
</linearGradient>
<linearGradient id="paint12_linear_3263_108675" x1="183" y1="73" x2="330" y2="152" gradientUnits="userSpaceOnUse">
<stop stop-color="white" stop-opacity="0.6"/>
<stop offset="1" stop-color="#45B0EF" stop-opacity="0.6"/>
</linearGradient>
<linearGradient id="paint13_linear_3263_108675" x1="284.5" y1="72.9998" x2="220.608" y2="120.425" gradientUnits="userSpaceOnUse">
<stop stop-color="white"/>
<stop offset="1" stop-color="white" stop-opacity="0"/>
</linearGradient>
<linearGradient id="paint14_linear_3263_108675" x1="215.787" y1="8.74792" x2="326.492" y2="-55.1679" gradientUnits="userSpaceOnUse">
<stop stop-color="white" stop-opacity="0.6"/>
<stop offset="1" stop-color="#45B0EF" stop-opacity="0.6"/>
</linearGradient>
<linearGradient id="paint15_linear_3263_108675" x1="176.192" y1="-55.168" x2="176.192" y2="456.168" gradientUnits="userSpaceOnUse">
<stop offset="0.015625" stop-color="#FAFDFF" stop-opacity="0.18"/>
<stop offset="0.375" stop-color="#67B7E7"/>
<stop offset="1" stop-color="#E8E8E8" stop-opacity="0"/>
</linearGradient>
<linearGradient id="paint16_linear_3263_108675" x1="228.002" y1="412" x2="327.002" y2="354.842" gradientUnits="userSpaceOnUse">
<stop stop-color="white" stop-opacity="0.6"/>
<stop offset="1" stop-color="#45B0EF" stop-opacity="0.6"/>
</linearGradient>
<linearGradient id="paint17_linear_3263_108675" x1="252.904" y1="348" x2="308.329" y2="444" gradientUnits="userSpaceOnUse">
<stop stop-color="white"/>
<stop offset="1" stop-color="white" stop-opacity="0"/>
</linearGradient>
<linearGradient id="paint18_linear_3263_108675" x1="294" y1="93" x2="441" y2="172" gradientUnits="userSpaceOnUse">
<stop stop-color="white" stop-opacity="0.6"/>
<stop offset="1" stop-color="#45B0EF" stop-opacity="0.6"/>
</linearGradient>
<linearGradient id="paint19_linear_3263_108675" x1="395.5" y1="92.9998" x2="331.608" y2="140.425" gradientUnits="userSpaceOnUse">
<stop stop-color="white"/>
<stop offset="1" stop-color="white" stop-opacity="0"/>
</linearGradient>
<linearGradient id="paint20_linear_3263_108675" x1="294" y1="93" x2="441" y2="172" gradientUnits="userSpaceOnUse">
<stop stop-color="white" stop-opacity="0.6"/>
<stop offset="1" stop-color="#45B0EF" stop-opacity="0.6"/>
</linearGradient>
<linearGradient id="paint21_linear_3263_108675" x1="395.5" y1="92.9998" x2="331.608" y2="140.425" gradientUnits="userSpaceOnUse">
<stop stop-color="white"/>
<stop offset="1" stop-color="white" stop-opacity="0"/>
</linearGradient>
<linearGradient id="paint22_linear_3263_108675" x1="326.787" y1="28.7479" x2="437.492" y2="-35.1679" gradientUnits="userSpaceOnUse">
<stop stop-color="white" stop-opacity="0.6"/>
<stop offset="1" stop-color="#45B0EF" stop-opacity="0.6"/>
</linearGradient>
<linearGradient id="paint23_linear_3263_108675" x1="287.192" y1="-35.168" x2="287.192" y2="476.168" gradientUnits="userSpaceOnUse">
<stop offset="0.015625" stop-color="#FAFDFF" stop-opacity="0.18"/>
<stop offset="0.375" stop-color="#67B7E7"/>
<stop offset="1" stop-color="#E8E8E8" stop-opacity="0"/>
</linearGradient>
</defs>
</svg>
