<svg width="65" height="64" viewBox="0 0 65 64" fill="none" xmlns="http://www.w3.org/2000/svg">
<path d="M15.3337 14.6667L23.3337 22.6667M42.0003 41.3333L50.0003 49.3333M50.0003 14.6667L42.0003 22.6667M23.3337 41.3333L15.3337 49.3333M35.3337 10.6667C35.3337 12.1394 34.1398 13.3333 32.667 13.3333C31.1942 13.3333 30.0003 12.1394 30.0003 10.6667C30.0003 9.19391 31.1942 8 32.667 8C34.1398 8 35.3337 9.19391 35.3337 10.6667ZM14.0003 32C14.0003 33.4728 12.8064 34.6667 11.3337 34.6667C9.8609 34.6667 8.66699 33.4728 8.66699 32C8.66699 30.5272 9.8609 29.3333 11.3337 29.3333C12.8064 29.3333 14.0003 30.5272 14.0003 32ZM56.667 32C56.667 33.4728 55.4731 34.6667 54.0003 34.6667C52.5276 34.6667 51.3337 33.4728 51.3337 32C51.3337 30.5272 52.5276 29.3333 54.0003 29.3333C55.4731 29.3333 56.667 30.5272 56.667 32ZM35.3337 53.3333C35.3337 54.8061 34.1398 56 32.667 56C31.1942 56 30.0003 54.8061 30.0003 53.3333C30.0003 51.8606 31.1942 50.6667 32.667 50.6667C34.1398 50.6667 35.3337 51.8606 35.3337 53.3333Z" stroke="#0079C1" stroke-width="1.5" stroke-linecap="round" stroke-linejoin="round"/>
</svg>
