<svg width="64" height="64" viewBox="0 0 64 64" fill="none" xmlns="http://www.w3.org/2000/svg">
<path d="M13.0027 36.2946C11.43 37.2801 10.1416 38.6589 9.26495 40.2948C8.38828 41.9307 7.95362 43.767 8.00392 45.6223C8.05422 47.4776 8.58774 49.2877 9.55175 50.8736C10.5158 52.4596 11.8769 53.7666 13.5007 54.6655C15.1245 55.5643 16.9547 56.024 18.8105 55.9989C20.6663 55.9739 22.4835 55.4651 24.0825 54.5227C25.6814 53.5804 27.0068 52.2372 27.9277 50.6258C28.8486 49.0144 29.3331 47.1906 29.3333 45.3346H45.3333M40.176 54.6733C41.6007 55.4597 43.1865 55.9096 44.8119 55.9887C46.4373 56.0678 48.0593 55.7739 49.5536 55.1296C51.0479 54.4853 52.3751 53.5076 53.4333 52.2714C54.4916 51.0352 55.253 49.5732 55.6593 47.9974C56.0655 46.4216 56.1058 44.7737 55.7771 43.18C55.4484 41.5862 54.7594 40.0887 53.7628 38.8023C52.7662 37.5158 51.4884 36.4744 50.0274 35.7578C48.5663 35.0412 46.9607 34.6684 45.3333 34.668C43.4507 34.668 41.536 35.1453 40 36.0013L32 21.3346M42.6667 21.3346C42.6667 18.5057 41.5429 15.7926 39.5425 13.7922C37.5421 11.7918 34.829 10.668 32 10.668C29.171 10.668 26.4579 11.7918 24.4575 13.7922C22.4571 15.7926 21.3333 18.5057 21.3333 21.3346C21.3333 25.3506 23.3867 28.8493 26.6667 30.668L18.6667 45.3346" stroke="#0079C1" stroke-width="1.5" stroke-linecap="round" stroke-linejoin="round"/>
</svg>
