<svg width="65" height="64" viewBox="0 0 65 64" fill="none" xmlns="http://www.w3.org/2000/svg">
<path d="M25.1921 31.9984L30.177 37.6873L40.1468 26.3095M32.6695 6.39844C38.4915 12.2767 46.0901 15.3373 53.8554 14.9318C54.9859 19.3208 55.3319 23.9244 54.8726 28.469C54.4133 33.0136 53.1583 37.4065 51.182 41.3866C49.2057 45.3667 46.5485 48.8529 43.3683 51.6378C40.1881 54.4228 36.5497 56.4498 32.6695 57.5984C28.7893 56.4498 25.151 54.4228 21.9708 51.6378C18.7906 48.8529 16.1334 45.3667 14.1571 41.3866C12.1808 37.4065 10.9257 33.0136 10.4665 28.469C10.0072 23.9244 10.3531 19.3208 11.4837 14.9318C19.249 15.3373 26.8476 12.2767 32.6695 6.39844Z" stroke="#0079C1" stroke-width="1.5" stroke-linecap="round" stroke-linejoin="round"/>
</svg>
