<svg width="41" height="40" viewBox="0 0 41 40" fill="none" xmlns="http://www.w3.org/2000/svg">
<path d="M5.66797 35V31.6667C5.66797 29.8986 6.37035 28.2029 7.62059 26.9526C8.87083 25.7024 10.5665 25 12.3346 25H19.0013C20.7694 25 22.4651 25.7024 23.7153 26.9526C24.9656 28.2029 25.668 29.8986 25.668 31.6667V35M27.3346 18.3333H37.3346M32.3346 13.3333V23.3333M22.3346 11.6667C22.3346 15.3486 19.3499 18.3333 15.668 18.3333C11.9861 18.3333 9.0013 15.3486 9.0013 11.6667C9.0013 7.98477 11.9861 5 15.668 5C19.3499 5 22.3346 7.98477 22.3346 11.6667Z" stroke="#0079C1" stroke-width="1.5" stroke-linecap="round" stroke-linejoin="round"/>
</svg>
