<svg width="65" height="64" viewBox="0 0 65 64" fill="none" xmlns="http://www.w3.org/2000/svg">
<path d="M48.333 21.3346V13.3346C48.333 12.6274 48.0521 11.9491 47.552 11.449C47.0519 10.9489 46.3736 10.668 45.6663 10.668H10.9997C10.2924 10.668 9.61415 10.9489 9.11406 11.449C8.61396 11.9491 8.33301 12.6274 8.33301 13.3346V45.3346C8.33301 46.0419 8.61396 46.7202 9.11406 47.2203C9.61415 47.7204 10.2924 48.0013 10.9997 48.0013H34.9997M42.9997 24.0013H48.333M37.6663 21.3346H53.6663C55.1391 21.3346 56.333 22.5285 56.333 24.0013V50.668C56.333 52.1407 55.1391 53.3346 53.6663 53.3346H37.6663C36.1936 53.3346 34.9997 52.1407 34.9997 50.668V24.0013C34.9997 22.5285 36.1936 21.3346 37.6663 21.3346Z" stroke="#0079C1" stroke-width="1.5" stroke-linecap="round" stroke-linejoin="round"/>
</svg>
