<svg width="65" height="64" viewBox="0 0 65 64" fill="none" xmlns="http://www.w3.org/2000/svg">
<path d="M11.334 21.3346V16.0013C11.334 14.5868 11.8959 13.2303 12.8961 12.2301C13.8963 11.2299 15.2528 10.668 16.6673 10.668H22.0007M11.334 42.668V48.0013C11.334 49.4158 11.8959 50.7723 12.8961 51.7725C13.8963 52.7727 15.2528 53.3346 16.6673 53.3346H22.0007M43.334 10.668H48.6673C50.0818 10.668 51.4384 11.2299 52.4386 12.2301C53.4387 13.2303 54.0006 14.5868 54.0006 16.0013V21.3346M43.334 53.3346H48.6673C50.0818 53.3346 51.4384 52.7727 52.4386 51.7725C53.4387 50.7723 54.0006 49.4158 54.0006 48.0013V42.668M26.0006 40.0013C26.8697 40.8882 27.9069 41.5928 29.0517 42.0739C30.1964 42.5549 31.4256 42.8027 32.6673 42.8027C33.909 42.8027 35.1382 42.5549 36.283 42.0739C37.4277 41.5928 38.465 40.8882 39.334 40.0013M25.3073 27.5213C25.3073 28.5817 24.4477 29.4413 23.3873 29.4413C22.3269 29.4413 21.4673 28.5817 21.4673 27.5213C21.4673 26.4609 22.3269 25.6013 23.3873 25.6013C24.4477 25.6013 25.3073 26.4609 25.3073 27.5213ZM43.8675 27.5212C43.8675 28.5816 43.0079 29.4412 41.9475 29.4412C40.8871 29.4412 40.0275 28.5816 40.0275 27.5212C40.0275 26.4609 40.8871 25.6012 41.9475 25.6012C43.0079 25.6012 43.8675 26.4609 43.8675 27.5212Z" stroke="#0079C1" stroke-width="1.5" stroke-linecap="round"/>
</svg>
