<svg width="49" height="48" viewBox="0 0 49 48" fill="none" xmlns="http://www.w3.org/2000/svg">
<path d="M8.15583 23.517C7.07006 25.4003 6.499 27.5361 6.5 29.71C6.50101 31.8838 7.07404 34.0191 8.16155 35.9014C9.24906 37.7837 10.8127 39.3466 12.6955 40.4333C14.5783 41.5199 16.7139 42.092 18.8877 42.092C21.0616 42.092 23.1972 41.5199 25.0799 40.4333C26.9627 39.3466 28.5264 37.7837 29.6139 35.9014C30.7014 34.0191 31.2745 31.8838 31.2755 29.71C31.2765 27.5361 30.7054 25.4003 29.6196 23.517L18.8898 7L8.15376 23.517H8.15583Z" fill="#003A5C"/>
<g filter="url(#filter0_b_8575_168897)">
<path d="M20.5504 23.517C19.4646 25.4003 18.8935 27.5361 18.8945 29.71C18.8955 31.8838 19.4686 34.0191 20.5561 35.9014C21.6436 37.7837 23.2073 39.3466 25.0901 40.4333C26.9728 41.5199 29.1084 42.092 31.2823 42.092C33.4561 42.092 35.5917 41.5199 37.4745 40.4333C39.3573 39.3466 40.9209 37.7837 42.0084 35.9014C43.096 34.0191 43.669 31.8838 43.67 29.71C43.671 27.5361 43.0999 25.4003 42.0142 23.517L31.2843 7L20.5483 23.517H20.5504Z" fill="#DCEEF6" fill-opacity="0.7"/>
</g>
<defs>
<filter id="filter0_b_8575_168897" x="10.636" y="-1.25849" width="41.2943" height="51.6107" filterUnits="userSpaceOnUse" color-interpolation-filters="sRGB">
<feFlood flood-opacity="0" result="BackgroundImageFix"/>
<feGaussianBlur in="BackgroundImageFix" stdDeviation="4.12924"/>
<feComposite in2="SourceAlpha" operator="in" result="effect1_backgroundBlur_8575_168897"/>
<feBlend mode="normal" in="SourceGraphic" in2="effect1_backgroundBlur_8575_168897" result="shape"/>
</filter>
</defs>
</svg>
