<svg width="49" height="48" viewBox="0 0 49 48" fill="none" xmlns="http://www.w3.org/2000/svg">
<rect x="8.67969" y="20" width="20.8696" height="20" rx="4" fill="#003A5C"/>
<g filter="url(#filter0_b_8575_168846)">
<path fill-rule="evenodd" clip-rule="evenodd" d="M20.8567 8.00781C19.6486 8.00781 18.6692 8.98719 18.6692 10.1953V18.9892H17.1328C15.9247 18.9892 14.9453 19.9685 14.9453 21.1767C14.9453 22.3848 15.9247 23.3642 17.1328 23.3642H18.6692V26.3047H17.1328C15.9247 26.3047 14.9453 27.2841 14.9453 28.4922C14.9453 29.7003 15.9247 30.6797 17.1328 30.6797H18.6692V35.8185C18.6692 37.0266 19.6486 38.006 20.8567 38.006C22.0648 38.006 23.0442 37.0266 23.0442 35.8185V30.6797H32.0283C33.2365 30.6797 34.2158 29.7003 34.2158 28.4922C34.2158 27.2841 33.2365 26.3047 32.0283 26.3047H23.0442V23.3642H32.0283C34.0779 23.3642 36.051 22.5642 37.5116 21.1285C38.9734 19.6916 39.8017 17.7346 39.8017 15.686C39.8017 13.6374 38.9734 11.6804 37.5116 10.2435C36.051 8.80779 34.0779 8.00781 32.0283 8.00781H20.8567ZM32.0283 18.9892H23.0442V12.3828H32.0283C32.9416 12.3828 33.8101 12.7398 34.4447 13.3635C35.0779 13.986 35.4267 14.8222 35.4267 15.686C35.4267 16.5498 35.0779 17.386 34.4447 18.0085C33.8101 18.6322 32.9416 18.9892 32.0283 18.9892Z" fill="#D5E8F1" fill-opacity="0.7"/>
</g>
<defs>
<filter id="filter0_b_8575_168846" x="6.94531" y="0.0078125" width="40.8555" height="46" filterUnits="userSpaceOnUse" color-interpolation-filters="sRGB">
<feFlood flood-opacity="0" result="BackgroundImageFix"/>
<feGaussianBlur in="BackgroundImageFix" stdDeviation="4"/>
<feComposite in2="SourceAlpha" operator="in" result="effect1_backgroundBlur_8575_168846"/>
<feBlend mode="normal" in="SourceGraphic" in2="effect1_backgroundBlur_8575_168846" result="shape"/>
</filter>
</defs>
</svg>
