<svg width="49" height="48" viewBox="0 0 49 48" fill="none" xmlns="http://www.w3.org/2000/svg">
<rect x="9.66797" y="22" width="17" height="17" rx="2" fill="#003A5C"/>
<g filter="url(#filter0_b_8575_168858)">
<path fill-rule="evenodd" clip-rule="evenodd" d="M28.668 42C29.7725 42 30.668 41.1046 30.668 40L30.668 30H40.668C41.7725 30 42.668 29.1046 42.668 28V20C42.668 18.8954 41.7725 18 40.668 18L30.668 18L30.668 8C30.668 6.89543 29.7725 6 28.668 6H20.668C19.5634 6 18.668 6.89543 18.668 8L18.668 18L8.66797 18C7.5634 18 6.66797 18.8954 6.66797 20V28C6.66797 29.1046 7.5634 30 8.66797 30H18.668L18.668 40C18.668 41.1046 19.5634 42 20.668 42H28.668Z" fill="#D5E8F1" fill-opacity="0.7"/>
</g>
<defs>
<filter id="filter0_b_8575_168858" x="2.66797" y="2" width="44" height="44" filterUnits="userSpaceOnUse" color-interpolation-filters="sRGB">
<feFlood flood-opacity="0" result="BackgroundImageFix"/>
<feGaussianBlur in="BackgroundImageFix" stdDeviation="2"/>
<feComposite in2="SourceAlpha" operator="in" result="effect1_backgroundBlur_8575_168858"/>
<feBlend mode="normal" in="SourceGraphic" in2="effect1_backgroundBlur_8575_168858" result="shape"/>
</filter>
</defs>
</svg>
