<svg width="41" height="40" viewBox="0 0 41 40" fill="none" xmlns="http://www.w3.org/2000/svg">
<path d="M8.8457 35V31.6667C8.8457 29.8986 9.54808 28.2029 10.7983 26.9526C12.0486 25.7024 13.7443 25 15.5124 25H17.179M29.679 32.5L33.8457 36.6667M25.5124 11.6667C25.5124 15.3486 22.5276 18.3333 18.8457 18.3333C15.1638 18.3333 12.179 15.3486 12.179 11.6667C12.179 7.98477 15.1638 5 18.8457 5C22.5276 5 25.5124 7.98477 25.5124 11.6667ZM30.5124 29.1667C30.5124 31.4679 28.6469 33.3333 26.3457 33.3333C24.0445 33.3333 22.179 31.4679 22.179 29.1667C22.179 26.8655 24.0445 25 26.3457 25C28.6469 25 30.5124 26.8655 30.5124 29.1667Z" stroke="white" stroke-width="1.5" stroke-linecap="round" stroke-linejoin="round"/>
</svg>
