<svg width="41" height="40" viewBox="0 0 41 40" fill="none" xmlns="http://www.w3.org/2000/svg">
<path d="M5.5 35V31.6667C5.5 29.8986 6.20238 28.2029 7.45262 26.9526C8.70286 25.7024 10.3986 25 12.1667 25H18.8333C20.6014 25 22.2971 25.7024 23.5474 26.9526C24.7976 28.2029 25.5 29.8986 25.5 31.6667V35M27.1667 18.3333H37.1667M32.1667 13.3333V23.3333M22.1667 11.6667C22.1667 15.3486 19.1819 18.3333 15.5 18.3333C11.8181 18.3333 8.83333 15.3486 8.83333 11.6667C8.83333 7.98477 11.8181 5 15.5 5C19.1819 5 22.1667 7.98477 22.1667 11.6667Z" stroke="white" stroke-width="1.5" stroke-linecap="round" stroke-linejoin="round"/>
</svg>
