<svg width="90" height="88" viewBox="0 0 90 88" fill="none" xmlns="http://www.w3.org/2000/svg">
<rect x="0.443359" y="31.7109" width="39.1111" height="39.1111" rx="9.16667" transform="rotate(-20 0.443359 31.7109)" fill="#003A5C"/>
<g filter="url(#filter0_b_8591_233668)">
<rect x="18.7773" y="14.6641" width="58.6667" height="58.6667" rx="12.2222" fill="#62B6E9" fill-opacity="0.4"/>
<rect x="19.5412" y="15.428" width="57.1389" height="57.1389" rx="11.4583" stroke="url(#paint0_linear_8591_233668)" stroke-width="1.52778"/>
</g>
<path d="M48.1094 52.5579C46.4372 51.5925 44.5403 51.0842 42.6094 51.0842C40.6785 51.0842 38.7816 51.5925 37.1094 52.5579V36.669C38.7816 35.7036 40.6785 35.1953 42.6094 35.1953C44.5403 35.1953 46.4372 35.7036 48.1094 36.669M48.1094 52.5579C49.7816 51.5925 51.6785 51.0842 53.6094 51.0842C55.5403 51.0842 57.4372 51.5925 59.1094 52.5579V36.669C57.4372 35.7036 55.5403 35.1953 53.6094 35.1953C51.6785 35.1953 49.7816 35.7036 48.1094 36.669M48.1094 52.5579V36.669" stroke="#F5FCFF" stroke-width="1.5" stroke-linecap="round" stroke-linejoin="round"/>
<defs>
<filter id="filter0_b_8591_233668" x="-12.7933" y="-16.9066" width="121.807" height="121.805" filterUnits="userSpaceOnUse" color-interpolation-filters="sRGB">
<feFlood flood-opacity="0" result="BackgroundImageFix"/>
<feGaussianBlur in="BackgroundImageFix" stdDeviation="15.7853"/>
<feComposite in2="SourceAlpha" operator="in" result="effect1_backgroundBlur_8591_233668"/>
<feBlend mode="normal" in="SourceGraphic" in2="effect1_backgroundBlur_8591_233668" result="shape"/>
</filter>
<linearGradient id="paint0_linear_8591_233668" x1="18.7773" y1="14.6641" x2="77.4737" y2="73.301" gradientUnits="userSpaceOnUse">
<stop stop-color="white" stop-opacity="0.2"/>
<stop offset="1" stop-color="white" stop-opacity="0"/>
</linearGradient>
</defs>
</svg>
