<svg width="90" height="88" viewBox="0 0 90 88" fill="none" xmlns="http://www.w3.org/2000/svg">
<rect x="0.110352" y="31.7109" width="39.1111" height="39.1111" rx="9.16667" transform="rotate(-20 0.110352 31.7109)" fill="#003A5C"/>
<g filter="url(#filter0_b_8591_233649)">
<rect x="18.4443" y="14.6641" width="58.6667" height="58.6667" rx="12.2222" fill="#62B6E9" fill-opacity="0.4"/>
<rect x="19.2082" y="15.428" width="57.1389" height="57.1389" rx="11.4583" stroke="url(#paint0_linear_8591_233649)" stroke-width="1.52778"/>
</g>
<path d="M50.2218 47.6667V50.1111C50.2218 50.4353 50.093 50.7461 49.8638 50.9754C49.6346 51.2046 49.3237 51.3333 48.9996 51.3333H40.444L36.7773 55V42.7778C36.7773 42.4536 36.9061 42.1427 37.1353 41.9135C37.3645 41.6843 37.6754 41.5556 37.9996 41.5556H40.444M58.7773 46.4444L55.1107 42.7778H46.5551C46.231 42.7778 45.9201 42.649 45.6909 42.4198C45.4617 42.1906 45.3329 41.8797 45.3329 41.5556V34.2222C45.3329 33.8981 45.4617 33.5872 45.6909 33.358C45.9201 33.1288 46.231 33 46.5551 33H57.5551C57.8793 33 58.1901 33.1288 58.4194 33.358C58.6486 33.5872 58.7773 33.8981 58.7773 34.2222V46.4444Z" stroke="#F5FCFF" stroke-width="1.5" stroke-linecap="round" stroke-linejoin="round"/>
<defs>
<filter id="filter0_b_8591_233649" x="-13.1263" y="-16.9066" width="121.808" height="121.805" filterUnits="userSpaceOnUse" color-interpolation-filters="sRGB">
<feFlood flood-opacity="0" result="BackgroundImageFix"/>
<feGaussianBlur in="BackgroundImageFix" stdDeviation="15.7853"/>
<feComposite in2="SourceAlpha" operator="in" result="effect1_backgroundBlur_8591_233649"/>
<feBlend mode="normal" in="SourceGraphic" in2="effect1_backgroundBlur_8591_233649" result="shape"/>
</filter>
<linearGradient id="paint0_linear_8591_233649" x1="18.4443" y1="14.6641" x2="77.1407" y2="73.301" gradientUnits="userSpaceOnUse">
<stop stop-color="white" stop-opacity="0.2"/>
<stop offset="1" stop-color="white" stop-opacity="0"/>
</linearGradient>
</defs>
</svg>
