<svg width="40" height="40" viewBox="0 0 40 40" fill="none" xmlns="http://www.w3.org/2000/svg">
<path d="M10 33.3333V28.3333C10 27.4129 9.25381 26.6667 8.33333 26.6667H6.66667C5.74619 26.6667 5 27.4129 5 28.3333V33.3333C5 34.2538 5.74619 35 6.66667 35H8.33333C9.25381 35 10 34.2538 10 33.3333ZM10 33.3333C10 33.7754 10.1756 34.1994 10.4882 34.5119C10.8007 34.8245 11.2246 35.0001 11.6667 35.0001H17.9267C18.2852 35.0001 18.6342 34.8845 18.9219 34.6704C19.2095 34.4563 19.4204 34.1552 19.5233 33.8117L21.5233 28.8117C21.6733 28.3067 21.745 27.7617 21.43 27.3384C21.1167 26.9151 20.5267 26.6667 20 26.6667H16.6667V22.5551C16.6665 22.1617 16.5398 21.7789 16.3053 21.4631C16.0708 21.1473 15.741 20.9153 15.3645 20.8013C14.9881 20.6873 14.5849 20.6975 14.2147 20.8302C13.8444 20.9629 13.5267 21.2112 13.3083 21.5384L10 26.6667V33.3333ZM23.3333 5V11.6667C23.3333 12.1087 23.5089 12.5326 23.8215 12.8452C24.134 13.1577 24.558 13.3333 25 13.3333H31.6667M23.3333 5H11.6667C10.7826 5 9.93477 5.35119 9.30964 5.97631C8.68452 6.60143 8.33333 7.44928 8.33333 8.33333V20.1667M23.3333 5L31.6667 13.3333M31.6667 13.3333V31.6667C31.6667 32.5507 31.3155 33.3986 30.6904 34.0237C30.0652 34.6488 29.2174 35 28.3333 35H24.5" stroke="#0079C1" stroke-width="1.5" stroke-linecap="round" stroke-linejoin="round"/>
</svg>
