<svg width="41" height="41" viewBox="0 0 41 41" fill="none" xmlns="http://www.w3.org/2000/svg">
<path d="M20.334 12.1667C22.1749 12.1667 23.6673 10.6743 23.6673 8.83333C23.6673 6.99238 22.1749 5.5 20.334 5.5C18.493 5.5 17.0007 6.99238 17.0007 8.83333C17.0007 10.6743 18.493 12.1667 20.334 12.1667ZM20.334 12.1667V18.8333M20.334 18.8333C17.5726 18.8333 15.334 21.0719 15.334 23.8333C15.334 26.5948 17.5726 28.8333 20.334 28.8333C23.0954 28.8333 25.334 26.5948 25.334 23.8333C25.334 21.0719 23.0954 18.8333 20.334 18.8333ZM11.5007 30.1667L16.1673 26.8334M29.1673 30.1667L24.5007 26.8334M12.0007 32.1667C12.0007 34.0076 10.5083 35.5 8.66732 35.5C6.82637 35.5 5.33398 34.0076 5.33398 32.1667C5.33398 30.3257 6.82637 28.8333 8.66732 28.8333C10.5083 28.8333 12.0007 30.3257 12.0007 32.1667ZM35.334 32.1667C35.334 34.0076 33.8416 35.5 32.0007 35.5C30.1597 35.5 28.6673 34.0076 28.6673 32.1667C28.6673 30.3257 30.1597 28.8333 32.0007 28.8333C33.8416 28.8333 35.334 30.3257 35.334 32.1667Z" stroke="#0079C1" stroke-width="1.5" stroke-linecap="round" stroke-linejoin="round"/>
</svg>
