<svg width="65" height="64" viewBox="0 0 65 64" fill="none" xmlns="http://www.w3.org/2000/svg">
<path d="M52.6655 33.5258L32.6655 53.3338L12.6655 33.5258C11.3463 32.2421 10.3072 30.6992 9.61364 28.9942C8.92006 27.2892 8.58701 25.459 8.63548 23.619C8.68395 21.7789 9.11288 19.9688 9.89527 18.3027C10.6777 16.6366 11.7965 15.1505 13.1815 13.938C14.5664 12.7256 16.1874 11.813 17.9423 11.2578C19.6973 10.7025 21.5482 10.5167 23.3785 10.7119C25.2088 10.9072 26.9788 11.4793 28.5772 12.3922C30.1755 13.3052 31.5675 14.5391 32.6655 16.0165C33.7683 14.5499 35.1619 13.3267 36.7591 12.4234C38.3564 11.5202 40.1228 10.9563 41.948 10.7672C43.7732 10.578 45.6177 10.7677 47.3662 11.3242C49.1148 11.8807 50.7296 12.7921 52.1097 14.0014C53.4897 15.2107 54.6053 16.6919 55.3866 18.3522C56.168 20.0125 56.5982 21.8162 56.6503 23.6504C56.7025 25.4846 56.3755 27.3098 55.6899 29.0118C55.0042 30.7138 53.9746 32.256 52.6655 33.5418M32.6655 16.0005L23.8842 24.7818C23.3843 25.2819 23.1034 25.96 23.1034 26.6671C23.1034 27.3742 23.3843 28.0524 23.8842 28.5525L25.3322 30.0005C27.1722 31.8405 30.1588 31.8405 31.9988 30.0005L34.6655 27.3338C36.2568 25.7425 38.4151 24.8485 40.6655 24.8485C42.9159 24.8485 45.0742 25.7425 46.6655 27.3338L52.6655 33.3338M33.9988 41.3338L39.3322 46.6671M40.6655 34.6671L45.9988 40.0005" stroke="#0079C1" stroke-width="1.5" stroke-linecap="round" stroke-linejoin="round"/>
</svg>
