<svg width="41" height="41" viewBox="0 0 41 41" fill="none" xmlns="http://www.w3.org/2000/svg">
<path d="M9 28.8333L12.3333 23.8333M15.6667 17.1667L19 12.1667M22.3333 12.1667L25.6667 17.1667M29 23.8333L32.3333 28.8333M25.6667 23.8333L22.3333 28.8333M15.6667 23.8333L19 28.8333M24 8.83333C24 10.6743 22.5076 12.1667 20.6667 12.1667C18.8257 12.1667 17.3333 10.6743 17.3333 8.83333C17.3333 6.99238 18.8257 5.5 20.6667 5.5C22.5076 5.5 24 6.99238 24 8.83333ZM17.3333 20.5C17.3333 22.3409 15.8409 23.8333 14 23.8333C12.1591 23.8333 10.6667 22.3409 10.6667 20.5C10.6667 18.6591 12.1591 17.1667 14 17.1667C15.8409 17.1667 17.3333 18.6591 17.3333 20.5ZM24 32.1667C24 34.0076 22.5076 35.5 20.6667 35.5C18.8257 35.5 17.3333 34.0076 17.3333 32.1667C17.3333 30.3257 18.8257 28.8333 20.6667 28.8333C22.5076 28.8333 24 30.3257 24 32.1667ZM37.3333 32.1667C37.3333 34.0076 35.841 35.5 34 35.5C32.1591 35.5 30.6667 34.0076 30.6667 32.1667C30.6667 30.3257 32.1591 28.8333 34 28.8333C35.841 28.8333 37.3333 30.3257 37.3333 32.1667ZM10.6667 32.1667C10.6667 34.0076 9.17428 35.5 7.33333 35.5C5.49238 35.5 4 34.0076 4 32.1667C4 30.3257 5.49238 28.8333 7.33333 28.8333C9.17428 28.8333 10.6667 30.3257 10.6667 32.1667ZM30.6667 20.5C30.6667 22.3409 29.1743 23.8333 27.3333 23.8333C25.4924 23.8333 24 22.3409 24 20.5C24 18.6591 25.4924 17.1667 27.3333 17.1667C29.1743 17.1667 30.6667 18.6591 30.6667 20.5Z" stroke="#0079C1" stroke-width="1.5" stroke-linecap="round" stroke-linejoin="round"/>
</svg>
