<svg width="40" height="41" viewBox="0 0 40 41" fill="none" xmlns="http://www.w3.org/2000/svg">
<path d="M20 20.5C20.9205 20.5 21.6667 19.7538 21.6667 18.8333C21.6667 17.9129 20.9205 17.1667 20 17.1667C19.0795 17.1667 18.3334 17.9129 18.3334 18.8333C18.3334 19.7538 19.0795 20.5 20 20.5ZM20 20.5V24.6667M20 4.5C23.6387 8.17391 28.3878 10.0868 33.2411 9.83333C33.9477 12.5765 34.1639 15.4537 33.8769 18.2941C33.5899 21.1345 32.8055 23.88 31.5703 26.3676C30.3351 28.8552 28.6743 31.034 26.6867 32.7746C24.6991 34.5152 22.4251 35.7821 20 36.5C17.5749 35.7821 15.3009 34.5152 13.3133 32.7746C11.3257 31.034 9.66491 28.8552 8.42973 26.3676C7.19454 23.88 6.41012 21.1345 6.12309 18.2941C5.83605 15.4537 6.05226 12.5765 6.75886 9.83333C11.6122 10.0868 16.3613 8.17391 20 4.5Z" stroke="#0079C1" stroke-width="1.5" stroke-linecap="round" stroke-linejoin="round"/>
</svg>
