<svg width="1151" height="801" viewBox="0 0 1151 801" fill="none" xmlns="http://www.w3.org/2000/svg">
<g opacity="0.6">
<path d="M919.788 575.361L918.383 571.35L991.722 284.627L993.03 289.018L919.788 575.361Z" fill="#F0F3F4" fill-opacity="0.6" stroke="url(#paint0_linear_6182_198650)" stroke-width="0.2"/>
<g filter="url(#filter0_b_6182_198650)">
<path d="M692.384 146.949L571.274 180.575L497.814 467.768L618.841 434.467L692.384 146.949Z" fill="url(#paint1_linear_6182_198650)"/>
<path d="M692.384 146.949L571.274 180.575L497.814 467.768L618.841 434.467L692.384 146.949Z" fill="url(#paint2_linear_6182_198650)" fill-opacity="0.05"/>
</g>
<g filter="url(#filter1_b_6182_198650)">
<path d="M781.971 234.832L692.383 146.951L618.84 434.474L708.497 522.098L781.971 234.832Z" fill="url(#paint3_linear_6182_198650)"/>
<path d="M781.971 234.832L692.383 146.951L618.84 434.474L708.497 522.098L781.971 234.832Z" fill="url(#paint4_linear_6182_198650)" fill-opacity="0.05"/>
<path d="M871.895 323.144L781.957 234.9L766.361 295.876L708.497 522.098L798.562 609.841L871.895 323.144Z" fill="url(#paint5_linear_6182_198650)"/>
<path d="M871.895 323.144L781.957 234.9L766.361 295.876L708.497 522.098L798.562 609.841L871.895 323.144Z" fill="url(#paint6_linear_6182_198650)" fill-opacity="0.05"/>
</g>
<g filter="url(#filter2_b_6182_198650)">
<path d="M993.133 289.016L871.895 323.143L798.564 609.833L919.802 575.706L993.133 289.016Z" fill="url(#paint7_linear_6182_198650)"/>
</g>
<g filter="url(#filter3_b_6182_198650)">
<path d="M569.938 175.488L693.546 142.407L783.239 229.875L873.269 317.774L991.715 284.253L993.133 289.017L871.854 323.306L781.81 235.475L692.173 147.776L571.251 180.665L569.938 175.488Z" fill="#F0F3F4" fill-opacity="0.6"/>
<path d="M692.243 147.705C692.217 147.68 692.181 147.67 692.146 147.68L571.323 180.542L570.059 175.559L693.517 142.518L783.169 229.946L873.199 317.845C873.224 317.87 873.261 317.88 873.296 317.87L991.647 284.376L993.009 288.948L871.882 323.194L781.88 235.403L781.88 235.403L692.243 147.705Z" stroke="url(#paint8_linear_6182_198650)" stroke-width="0.2" stroke-linejoin="round"/>
</g>
<g filter="url(#filter4_b_6182_198650)">
<path d="M496.502 462.591L569.938 175.488L571.251 180.665L497.814 467.768L496.502 462.591Z" fill="#F0F3F4" fill-opacity="0.6"/>
<path d="M497.815 467.363L496.605 462.591L569.938 175.893L571.148 180.665L497.815 467.363Z" stroke="url(#paint9_linear_6182_198650)" stroke-width="0.2"/>
</g>
<path d="M467.758 474.189L466.348 470.177L539.687 183.453L541 187.846L467.758 474.189Z" fill="#F0F3F4" fill-opacity="0.6" stroke="url(#paint10_linear_6182_198650)" stroke-width="0.2"/>
<g filter="url(#filter5_b_6182_198650)">
<path d="M239.629 45.592L118.277 79.1556L44.8171 366.349L166.086 333.109L239.629 45.592Z" fill="url(#paint11_linear_6182_198650)"/>
<path d="M239.629 45.592L118.277 79.1556L44.8171 366.349L166.086 333.109L239.629 45.592Z" fill="url(#paint12_linear_6182_198650)" fill-opacity="0.05"/>
</g>
<g filter="url(#filter6_b_6182_198650)">
<path d="M329.457 133.535L239.629 45.5929L166.085 333.116L255.983 420.802L329.457 133.535Z" fill="url(#paint13_linear_6182_198650)"/>
<path d="M329.457 133.535L239.629 45.5929L166.085 333.116L255.983 420.802L329.457 133.535Z" fill="url(#paint14_linear_6182_198650)" fill-opacity="0.05"/>
<path d="M419.623 221.91L329.444 133.603L313.847 194.58L255.983 420.802L346.291 508.606L419.623 221.91Z" fill="url(#paint15_linear_6182_198650)"/>
<path d="M419.623 221.91L329.444 133.603L313.847 194.58L255.983 420.802L346.291 508.606L419.623 221.91Z" fill="url(#paint16_linear_6182_198650)" fill-opacity="0.05"/>
</g>
<g filter="url(#filter7_b_6182_198650)">
<path d="M541.104 187.844L419.624 221.909L346.293 508.599L467.774 474.534L541.104 187.844Z" fill="url(#paint17_linear_6182_198650)"/>
</g>
<g filter="url(#filter8_b_6182_198650)">
<path d="M116.935 74.0674L240.791 41.0493L330.725 128.579L420.997 216.54L539.68 183.079L541.104 187.845L419.582 222.073L329.297 134.179L239.418 46.4188L118.254 79.246L116.935 74.0674Z" fill="#F0F3F4" fill-opacity="0.6"/>
<path d="M239.487 46.3473C239.462 46.3225 239.426 46.313 239.391 46.3223L118.326 79.1229L117.057 74.1385L240.762 41.1606L330.656 128.65L420.927 216.612C420.953 216.637 420.99 216.646 421.024 216.636L539.613 183.202L540.979 187.776L419.61 221.961L329.366 134.108L329.366 134.107L239.487 46.3473Z" stroke="url(#paint18_linear_6182_198650)" stroke-width="0.2" stroke-linejoin="round"/>
</g>
<g filter="url(#filter9_b_6182_198650)">
<path d="M43.4989 361.169L116.935 74.0667L118.254 79.2452L44.8173 366.348L43.4989 361.169Z" fill="#F0F3F4" fill-opacity="0.6"/>
<path d="M44.8175 365.944L43.6021 361.17L116.935 74.4711L118.151 79.2452L44.8175 365.944Z" stroke="url(#paint19_linear_6182_198650)" stroke-width="0.2"/>
</g>
<path d="M1030.03 729.486L1028.63 725.475L1101.97 438.752L1103.27 443.143L1030.03 729.486Z" fill="#F0F3F4" fill-opacity="0.6" stroke="url(#paint20_linear_6182_198650)" stroke-width="0.2"/>
<g filter="url(#filter10_b_6182_198650)">
<path d="M802.629 301.074L681.519 334.7L608.059 621.893L729.086 588.592L802.629 301.074Z" fill="url(#paint21_linear_6182_198650)"/>
<path d="M802.629 301.074L681.519 334.7L608.059 621.893L729.086 588.592L802.629 301.074Z" fill="url(#paint22_linear_6182_198650)" fill-opacity="0.05"/>
</g>
<g filter="url(#filter11_b_6182_198650)">
<path d="M892.216 388.957L802.629 301.076L729.085 588.599L818.742 676.223L892.216 388.957Z" fill="url(#paint23_linear_6182_198650)"/>
<path d="M892.216 388.957L802.629 301.076L729.085 588.599L818.742 676.223L892.216 388.957Z" fill="url(#paint24_linear_6182_198650)" fill-opacity="0.05"/>
<path d="M982.14 477.269L892.203 389.025L876.606 450.001L818.742 676.223L908.807 763.966L982.14 477.269Z" fill="url(#paint25_linear_6182_198650)"/>
<path d="M982.14 477.269L892.203 389.025L876.606 450.001L818.742 676.223L908.807 763.966L982.14 477.269Z" fill="url(#paint26_linear_6182_198650)" fill-opacity="0.05"/>
</g>
<g filter="url(#filter12_b_6182_198650)">
<path d="M1103.38 443.141L982.14 477.268L908.809 763.958L1030.05 729.831L1103.38 443.141Z" fill="url(#paint27_linear_6182_198650)"/>
</g>
<g filter="url(#filter13_b_6182_198650)">
<path d="M680.183 329.613L803.791 296.532L893.484 384L983.514 471.899L1101.96 438.378L1103.38 443.142L982.099 477.431L892.055 389.6L802.418 301.901L681.496 334.79L680.183 329.613Z" fill="#F0F3F4" fill-opacity="0.6"/>
<path d="M802.488 301.83C802.462 301.805 802.426 301.795 802.391 301.805L681.568 334.667L680.305 329.684L803.762 296.643L893.414 384.071L983.444 471.97C983.47 471.995 983.507 472.005 983.541 471.995L1101.89 438.501L1103.25 443.073L982.127 477.319L892.125 389.528L892.125 389.528L802.488 301.83Z" stroke="url(#paint28_linear_6182_198650)" stroke-width="0.2" stroke-linejoin="round"/>
</g>
<g filter="url(#filter14_b_6182_198650)">
<path d="M606.747 616.716L680.183 329.613L681.496 334.79L608.059 621.893L606.747 616.716Z" fill="#F0F3F4" fill-opacity="0.6"/>
<path d="M608.06 621.488L606.85 616.716L680.183 330.018L681.393 334.79L608.06 621.488Z" stroke="url(#paint29_linear_6182_198650)" stroke-width="0.2"/>
</g>
<path d="M578.003 628.316L576.593 624.304L649.933 337.58L651.245 341.973L578.003 628.316Z" fill="#F0F3F4" fill-opacity="0.6" stroke="url(#paint30_linear_6182_198650)" stroke-width="0.2"/>
<g filter="url(#filter15_b_6182_198650)">
<path d="M349.874 199.719L228.522 233.283L155.062 520.476L276.331 487.236L349.874 199.719Z" fill="url(#paint31_linear_6182_198650)"/>
<path d="M349.874 199.719L228.522 233.283L155.062 520.476L276.331 487.236L349.874 199.719Z" fill="url(#paint32_linear_6182_198650)" fill-opacity="0.05"/>
</g>
<g filter="url(#filter16_b_6182_198650)">
<path d="M439.703 287.662L349.874 199.72L276.33 487.242L366.228 574.929L439.703 287.662Z" fill="url(#paint33_linear_6182_198650)"/>
<path d="M439.703 287.662L349.874 199.72L276.33 487.242L366.228 574.929L439.703 287.662Z" fill="url(#paint34_linear_6182_198650)" fill-opacity="0.05"/>
<path d="M529.868 376.037L439.689 287.73L424.092 348.707L366.228 574.929L456.536 662.733L529.868 376.037Z" fill="url(#paint35_linear_6182_198650)"/>
<path d="M529.868 376.037L439.689 287.73L424.092 348.707L366.228 574.929L456.536 662.733L529.868 376.037Z" fill="url(#paint36_linear_6182_198650)" fill-opacity="0.05"/>
</g>
<g filter="url(#filter17_b_6182_198650)">
<path d="M651.35 341.971L529.869 376.036L456.538 662.726L578.019 628.661L651.35 341.971Z" fill="url(#paint37_linear_6182_198650)"/>
</g>
<g filter="url(#filter18_b_6182_198650)">
<path d="M227.18 228.194L351.036 195.176L440.971 282.706L531.242 370.667L649.925 337.206L651.349 341.972L529.827 376.199L439.542 288.306L349.663 200.546L228.499 233.373L227.18 228.194Z" fill="#F0F3F4" fill-opacity="0.6"/>
<path d="M349.733 200.474C349.707 200.449 349.671 200.44 349.637 200.449L228.571 233.25L227.302 228.265L351.007 195.288L440.901 282.777L531.172 370.739C531.198 370.764 531.235 370.773 531.269 370.763L649.858 337.329L651.224 341.903L529.856 376.088L439.612 288.234L439.611 288.234L349.733 200.474Z" stroke="url(#paint38_linear_6182_198650)" stroke-width="0.2" stroke-linejoin="round"/>
</g>
<g filter="url(#filter19_b_6182_198650)">
<path d="M153.744 515.296L227.18 228.194L228.499 233.372L155.062 520.475L153.744 515.296Z" fill="#F0F3F4" fill-opacity="0.6"/>
<path d="M155.063 520.071L153.847 515.296L227.18 228.598L228.396 233.372L155.063 520.071Z" stroke="url(#paint39_linear_6182_198650)" stroke-width="0.2"/>
</g>
</g>
<defs>
<filter id="filter0_b_6182_198650" x="487.814" y="136.949" width="214.57" height="340.818" filterUnits="userSpaceOnUse" color-interpolation-filters="sRGB">
<feFlood flood-opacity="0" result="BackgroundImageFix"/>
<feGaussianBlur in="BackgroundImageFix" stdDeviation="5"/>
<feComposite in2="SourceAlpha" operator="in" result="effect1_backgroundBlur_6182_198650"/>
<feBlend mode="normal" in="SourceGraphic" in2="effect1_backgroundBlur_6182_198650" result="shape"/>
</filter>
<filter id="filter1_b_6182_198650" x="608.84" y="136.951" width="273.055" height="482.889" filterUnits="userSpaceOnUse" color-interpolation-filters="sRGB">
<feFlood flood-opacity="0" result="BackgroundImageFix"/>
<feGaussianBlur in="BackgroundImageFix" stdDeviation="5"/>
<feComposite in2="SourceAlpha" operator="in" result="effect1_backgroundBlur_6182_198650"/>
<feBlend mode="normal" in="SourceGraphic" in2="effect1_backgroundBlur_6182_198650" result="shape"/>
</filter>
<filter id="filter2_b_6182_198650" x="788.564" y="279.016" width="214.569" height="340.818" filterUnits="userSpaceOnUse" color-interpolation-filters="sRGB">
<feFlood flood-opacity="0" result="BackgroundImageFix"/>
<feGaussianBlur in="BackgroundImageFix" stdDeviation="5"/>
<feComposite in2="SourceAlpha" operator="in" result="effect1_backgroundBlur_6182_198650"/>
<feBlend mode="normal" in="SourceGraphic" in2="effect1_backgroundBlur_6182_198650" result="shape"/>
</filter>
<filter id="filter3_b_6182_198650" x="559.938" y="132.406" width="443.195" height="200.9" filterUnits="userSpaceOnUse" color-interpolation-filters="sRGB">
<feFlood flood-opacity="0" result="BackgroundImageFix"/>
<feGaussianBlur in="BackgroundImageFix" stdDeviation="5"/>
<feComposite in2="SourceAlpha" operator="in" result="effect1_backgroundBlur_6182_198650"/>
<feBlend mode="normal" in="SourceGraphic" in2="effect1_backgroundBlur_6182_198650" result="shape"/>
</filter>
<filter id="filter4_b_6182_198650" x="486.501" y="165.488" width="94.7495" height="312.279" filterUnits="userSpaceOnUse" color-interpolation-filters="sRGB">
<feFlood flood-opacity="0" result="BackgroundImageFix"/>
<feGaussianBlur in="BackgroundImageFix" stdDeviation="5"/>
<feComposite in2="SourceAlpha" operator="in" result="effect1_backgroundBlur_6182_198650"/>
<feBlend mode="normal" in="SourceGraphic" in2="effect1_backgroundBlur_6182_198650" result="shape"/>
</filter>
<filter id="filter5_b_6182_198650" x="34.8169" y="35.5918" width="214.812" height="340.758" filterUnits="userSpaceOnUse" color-interpolation-filters="sRGB">
<feFlood flood-opacity="0" result="BackgroundImageFix"/>
<feGaussianBlur in="BackgroundImageFix" stdDeviation="5"/>
<feComposite in2="SourceAlpha" operator="in" result="effect1_backgroundBlur_6182_198650"/>
<feBlend mode="normal" in="SourceGraphic" in2="effect1_backgroundBlur_6182_198650" result="shape"/>
</filter>
<filter id="filter6_b_6182_198650" x="156.085" y="35.5938" width="273.539" height="483.012" filterUnits="userSpaceOnUse" color-interpolation-filters="sRGB">
<feFlood flood-opacity="0" result="BackgroundImageFix"/>
<feGaussianBlur in="BackgroundImageFix" stdDeviation="5"/>
<feComposite in2="SourceAlpha" operator="in" result="effect1_backgroundBlur_6182_198650"/>
<feBlend mode="normal" in="SourceGraphic" in2="effect1_backgroundBlur_6182_198650" result="shape"/>
</filter>
<filter id="filter7_b_6182_198650" x="336.293" y="177.844" width="214.812" height="340.756" filterUnits="userSpaceOnUse" color-interpolation-filters="sRGB">
<feFlood flood-opacity="0" result="BackgroundImageFix"/>
<feGaussianBlur in="BackgroundImageFix" stdDeviation="5"/>
<feComposite in2="SourceAlpha" operator="in" result="effect1_backgroundBlur_6182_198650"/>
<feBlend mode="normal" in="SourceGraphic" in2="effect1_backgroundBlur_6182_198650" result="shape"/>
</filter>
<filter id="filter8_b_6182_198650" x="106.936" y="31.0488" width="444.168" height="201.023" filterUnits="userSpaceOnUse" color-interpolation-filters="sRGB">
<feFlood flood-opacity="0" result="BackgroundImageFix"/>
<feGaussianBlur in="BackgroundImageFix" stdDeviation="5"/>
<feComposite in2="SourceAlpha" operator="in" result="effect1_backgroundBlur_6182_198650"/>
<feBlend mode="normal" in="SourceGraphic" in2="effect1_backgroundBlur_6182_198650" result="shape"/>
</filter>
<filter id="filter9_b_6182_198650" x="33.499" y="64.0664" width="94.7549" height="312.281" filterUnits="userSpaceOnUse" color-interpolation-filters="sRGB">
<feFlood flood-opacity="0" result="BackgroundImageFix"/>
<feGaussianBlur in="BackgroundImageFix" stdDeviation="5"/>
<feComposite in2="SourceAlpha" operator="in" result="effect1_backgroundBlur_6182_198650"/>
<feBlend mode="normal" in="SourceGraphic" in2="effect1_backgroundBlur_6182_198650" result="shape"/>
</filter>
<filter id="filter10_b_6182_198650" x="598.059" y="291.074" width="214.57" height="340.818" filterUnits="userSpaceOnUse" color-interpolation-filters="sRGB">
<feFlood flood-opacity="0" result="BackgroundImageFix"/>
<feGaussianBlur in="BackgroundImageFix" stdDeviation="5"/>
<feComposite in2="SourceAlpha" operator="in" result="effect1_backgroundBlur_6182_198650"/>
<feBlend mode="normal" in="SourceGraphic" in2="effect1_backgroundBlur_6182_198650" result="shape"/>
</filter>
<filter id="filter11_b_6182_198650" x="719.085" y="291.076" width="273.055" height="482.889" filterUnits="userSpaceOnUse" color-interpolation-filters="sRGB">
<feFlood flood-opacity="0" result="BackgroundImageFix"/>
<feGaussianBlur in="BackgroundImageFix" stdDeviation="5"/>
<feComposite in2="SourceAlpha" operator="in" result="effect1_backgroundBlur_6182_198650"/>
<feBlend mode="normal" in="SourceGraphic" in2="effect1_backgroundBlur_6182_198650" result="shape"/>
</filter>
<filter id="filter12_b_6182_198650" x="898.809" y="433.141" width="214.569" height="340.818" filterUnits="userSpaceOnUse" color-interpolation-filters="sRGB">
<feFlood flood-opacity="0" result="BackgroundImageFix"/>
<feGaussianBlur in="BackgroundImageFix" stdDeviation="5"/>
<feComposite in2="SourceAlpha" operator="in" result="effect1_backgroundBlur_6182_198650"/>
<feBlend mode="normal" in="SourceGraphic" in2="effect1_backgroundBlur_6182_198650" result="shape"/>
</filter>
<filter id="filter13_b_6182_198650" x="670.183" y="286.531" width="443.195" height="200.9" filterUnits="userSpaceOnUse" color-interpolation-filters="sRGB">
<feFlood flood-opacity="0" result="BackgroundImageFix"/>
<feGaussianBlur in="BackgroundImageFix" stdDeviation="5"/>
<feComposite in2="SourceAlpha" operator="in" result="effect1_backgroundBlur_6182_198650"/>
<feBlend mode="normal" in="SourceGraphic" in2="effect1_backgroundBlur_6182_198650" result="shape"/>
</filter>
<filter id="filter14_b_6182_198650" x="596.747" y="319.613" width="94.7495" height="312.279" filterUnits="userSpaceOnUse" color-interpolation-filters="sRGB">
<feFlood flood-opacity="0" result="BackgroundImageFix"/>
<feGaussianBlur in="BackgroundImageFix" stdDeviation="5"/>
<feComposite in2="SourceAlpha" operator="in" result="effect1_backgroundBlur_6182_198650"/>
<feBlend mode="normal" in="SourceGraphic" in2="effect1_backgroundBlur_6182_198650" result="shape"/>
</filter>
<filter id="filter15_b_6182_198650" x="145.062" y="189.719" width="214.812" height="340.758" filterUnits="userSpaceOnUse" color-interpolation-filters="sRGB">
<feFlood flood-opacity="0" result="BackgroundImageFix"/>
<feGaussianBlur in="BackgroundImageFix" stdDeviation="5"/>
<feComposite in2="SourceAlpha" operator="in" result="effect1_backgroundBlur_6182_198650"/>
<feBlend mode="normal" in="SourceGraphic" in2="effect1_backgroundBlur_6182_198650" result="shape"/>
</filter>
<filter id="filter16_b_6182_198650" x="266.33" y="189.721" width="273.539" height="483.012" filterUnits="userSpaceOnUse" color-interpolation-filters="sRGB">
<feFlood flood-opacity="0" result="BackgroundImageFix"/>
<feGaussianBlur in="BackgroundImageFix" stdDeviation="5"/>
<feComposite in2="SourceAlpha" operator="in" result="effect1_backgroundBlur_6182_198650"/>
<feBlend mode="normal" in="SourceGraphic" in2="effect1_backgroundBlur_6182_198650" result="shape"/>
</filter>
<filter id="filter17_b_6182_198650" x="446.538" y="331.971" width="214.812" height="340.756" filterUnits="userSpaceOnUse" color-interpolation-filters="sRGB">
<feFlood flood-opacity="0" result="BackgroundImageFix"/>
<feGaussianBlur in="BackgroundImageFix" stdDeviation="5"/>
<feComposite in2="SourceAlpha" operator="in" result="effect1_backgroundBlur_6182_198650"/>
<feBlend mode="normal" in="SourceGraphic" in2="effect1_backgroundBlur_6182_198650" result="shape"/>
</filter>
<filter id="filter18_b_6182_198650" x="217.181" y="185.176" width="444.168" height="201.023" filterUnits="userSpaceOnUse" color-interpolation-filters="sRGB">
<feFlood flood-opacity="0" result="BackgroundImageFix"/>
<feGaussianBlur in="BackgroundImageFix" stdDeviation="5"/>
<feComposite in2="SourceAlpha" operator="in" result="effect1_backgroundBlur_6182_198650"/>
<feBlend mode="normal" in="SourceGraphic" in2="effect1_backgroundBlur_6182_198650" result="shape"/>
</filter>
<filter id="filter19_b_6182_198650" x="143.744" y="218.193" width="94.7549" height="312.281" filterUnits="userSpaceOnUse" color-interpolation-filters="sRGB">
<feFlood flood-opacity="0" result="BackgroundImageFix"/>
<feGaussianBlur in="BackgroundImageFix" stdDeviation="5"/>
<feComposite in2="SourceAlpha" operator="in" result="effect1_backgroundBlur_6182_198650"/>
<feBlend mode="normal" in="SourceGraphic" in2="effect1_backgroundBlur_6182_198650" result="shape"/>
</filter>
<linearGradient id="paint0_linear_6182_198650" x1="957.218" y1="431.139" x2="954.758" y2="430.51" gradientUnits="userSpaceOnUse">
<stop stop-color="#E8E8E8" stop-opacity="0"/>
<stop offset="1" stop-color="#0079C1" stop-opacity="0.53"/>
</linearGradient>
<linearGradient id="paint1_linear_6182_198650" x1="637.047" y1="143.359" x2="663.399" y2="237.181" gradientUnits="userSpaceOnUse">
<stop stop-color="white" stop-opacity="0.6"/>
<stop offset="1" stop-color="#45B0EF" stop-opacity="0.6"/>
</linearGradient>
<linearGradient id="paint2_linear_6182_198650" x1="684.585" y1="177.439" x2="593.64" y2="202.859" gradientUnits="userSpaceOnUse">
<stop stop-color="white"/>
<stop offset="1" stop-color="white" stop-opacity="0"/>
</linearGradient>
<linearGradient id="paint3_linear_6182_198650" x1="886.275" y1="265.205" x2="789.909" y2="369.869" gradientUnits="userSpaceOnUse">
<stop stop-color="white" stop-opacity="0.6"/>
<stop offset="1" stop-color="#45B0EF" stop-opacity="0.6"/>
</linearGradient>
<linearGradient id="paint4_linear_6182_198650" x1="864.826" y1="349.064" x2="839.115" y2="286.305" gradientUnits="userSpaceOnUse">
<stop stop-color="white"/>
<stop offset="1" stop-color="white" stop-opacity="0"/>
</linearGradient>
<linearGradient id="paint5_linear_6182_198650" x1="886.275" y1="265.205" x2="789.909" y2="369.869" gradientUnits="userSpaceOnUse">
<stop stop-color="white" stop-opacity="0.6"/>
<stop offset="1" stop-color="#45B0EF" stop-opacity="0.6"/>
</linearGradient>
<linearGradient id="paint6_linear_6182_198650" x1="864.826" y1="349.064" x2="839.115" y2="286.305" gradientUnits="userSpaceOnUse">
<stop stop-color="white"/>
<stop offset="1" stop-color="white" stop-opacity="0"/>
</linearGradient>
<linearGradient id="paint7_linear_6182_198650" x1="932.355" y1="305.851" x2="961.822" y2="410.766" gradientUnits="userSpaceOnUse">
<stop stop-color="white" stop-opacity="0.6"/>
<stop offset="1" stop-color="#45B0EF" stop-opacity="0.6"/>
</linearGradient>
<linearGradient id="paint8_linear_6182_198650" x1="993.453" y1="286.627" x2="571.6" y2="178.724" gradientUnits="userSpaceOnUse">
<stop offset="0.015625" stop-color="#FAFDFF" stop-opacity="0.18"/>
<stop offset="0.375" stop-color="#67B7E7"/>
<stop offset="1" stop-color="#E8E8E8" stop-opacity="0"/>
</linearGradient>
<linearGradient id="paint9_linear_6182_198650" x1="535.029" y1="322.27" x2="532.569" y2="321.64" gradientUnits="userSpaceOnUse">
<stop stop-color="#E8E8E8" stop-opacity="0"/>
<stop offset="1" stop-color="#0079C1" stop-opacity="0.53"/>
</linearGradient>
<linearGradient id="paint10_linear_6182_198650" x1="505.19" y1="329.967" x2="502.724" y2="329.337" gradientUnits="userSpaceOnUse">
<stop stop-color="#E8E8E8" stop-opacity="0"/>
<stop offset="1" stop-color="#0079C1" stop-opacity="0.53"/>
</linearGradient>
<linearGradient id="paint11_linear_6182_198650" x1="184.171" y1="41.971" x2="210.445" y2="135.873" gradientUnits="userSpaceOnUse">
<stop stop-color="white" stop-opacity="0.6"/>
<stop offset="1" stop-color="#45B0EF" stop-opacity="0.6"/>
</linearGradient>
<linearGradient id="paint12_linear_6182_198650" x1="231.83" y1="76.0812" x2="140.754" y2="101.636" gradientUnits="userSpaceOnUse">
<stop stop-color="white"/>
<stop offset="1" stop-color="white" stop-opacity="0"/>
</linearGradient>
<linearGradient id="paint13_linear_6182_198650" x1="434.003" y1="163.97" x2="337.687" y2="268.78" gradientUnits="userSpaceOnUse">
<stop stop-color="white" stop-opacity="0.6"/>
<stop offset="1" stop-color="#45B0EF" stop-opacity="0.6"/>
</linearGradient>
<linearGradient id="paint14_linear_6182_198650" x1="412.553" y1="247.829" x2="386.89" y2="184.991" gradientUnits="userSpaceOnUse">
<stop stop-color="white"/>
<stop offset="1" stop-color="white" stop-opacity="0"/>
</linearGradient>
<linearGradient id="paint15_linear_6182_198650" x1="434.003" y1="163.97" x2="337.687" y2="268.78" gradientUnits="userSpaceOnUse">
<stop stop-color="white" stop-opacity="0.6"/>
<stop offset="1" stop-color="#45B0EF" stop-opacity="0.6"/>
</linearGradient>
<linearGradient id="paint16_linear_6182_198650" x1="412.553" y1="247.829" x2="386.89" y2="184.991" gradientUnits="userSpaceOnUse">
<stop stop-color="white"/>
<stop offset="1" stop-color="white" stop-opacity="0"/>
</linearGradient>
<linearGradient id="paint17_linear_6182_198650" x1="480.204" y1="204.648" x2="509.584" y2="309.652" gradientUnits="userSpaceOnUse">
<stop stop-color="white" stop-opacity="0.6"/>
<stop offset="1" stop-color="#45B0EF" stop-opacity="0.6"/>
</linearGradient>
<linearGradient id="paint18_linear_6182_198650" x1="541.423" y1="185.455" x2="118.603" y2="77.304" gradientUnits="userSpaceOnUse">
<stop offset="0.015625" stop-color="#FAFDFF" stop-opacity="0.18"/>
<stop offset="0.375" stop-color="#67B7E7"/>
<stop offset="1" stop-color="#E8E8E8" stop-opacity="0"/>
</linearGradient>
<linearGradient id="paint19_linear_6182_198650" x1="82.0318" y1="220.85" x2="79.5664" y2="220.219" gradientUnits="userSpaceOnUse">
<stop stop-color="#E8E8E8" stop-opacity="0"/>
<stop offset="1" stop-color="#0079C1" stop-opacity="0.53"/>
</linearGradient>
<linearGradient id="paint20_linear_6182_198650" x1="1067.46" y1="585.264" x2="1065" y2="584.635" gradientUnits="userSpaceOnUse">
<stop stop-color="#E8E8E8" stop-opacity="0"/>
<stop offset="1" stop-color="#0079C1" stop-opacity="0.53"/>
</linearGradient>
<linearGradient id="paint21_linear_6182_198650" x1="747.293" y1="297.484" x2="773.644" y2="391.306" gradientUnits="userSpaceOnUse">
<stop stop-color="white" stop-opacity="0.6"/>
<stop offset="1" stop-color="#45B0EF" stop-opacity="0.6"/>
</linearGradient>
<linearGradient id="paint22_linear_6182_198650" x1="794.83" y1="331.564" x2="703.885" y2="356.984" gradientUnits="userSpaceOnUse">
<stop stop-color="white"/>
<stop offset="1" stop-color="white" stop-opacity="0"/>
</linearGradient>
<linearGradient id="paint23_linear_6182_198650" x1="996.52" y1="419.33" x2="900.154" y2="523.994" gradientUnits="userSpaceOnUse">
<stop stop-color="white" stop-opacity="0.6"/>
<stop offset="1" stop-color="#45B0EF" stop-opacity="0.6"/>
</linearGradient>
<linearGradient id="paint24_linear_6182_198650" x1="975.071" y1="503.189" x2="949.36" y2="440.43" gradientUnits="userSpaceOnUse">
<stop stop-color="white"/>
<stop offset="1" stop-color="white" stop-opacity="0"/>
</linearGradient>
<linearGradient id="paint25_linear_6182_198650" x1="996.52" y1="419.33" x2="900.154" y2="523.994" gradientUnits="userSpaceOnUse">
<stop stop-color="white" stop-opacity="0.6"/>
<stop offset="1" stop-color="#45B0EF" stop-opacity="0.6"/>
</linearGradient>
<linearGradient id="paint26_linear_6182_198650" x1="975.071" y1="503.189" x2="949.36" y2="440.43" gradientUnits="userSpaceOnUse">
<stop stop-color="white"/>
<stop offset="1" stop-color="white" stop-opacity="0"/>
</linearGradient>
<linearGradient id="paint27_linear_6182_198650" x1="1042.6" y1="459.976" x2="1072.07" y2="564.891" gradientUnits="userSpaceOnUse">
<stop stop-color="white" stop-opacity="0.6"/>
<stop offset="1" stop-color="#45B0EF" stop-opacity="0.6"/>
</linearGradient>
<linearGradient id="paint28_linear_6182_198650" x1="1103.7" y1="440.752" x2="681.845" y2="332.849" gradientUnits="userSpaceOnUse">
<stop offset="0.015625" stop-color="#FAFDFF" stop-opacity="0.18"/>
<stop offset="0.375" stop-color="#67B7E7"/>
<stop offset="1" stop-color="#E8E8E8" stop-opacity="0"/>
</linearGradient>
<linearGradient id="paint29_linear_6182_198650" x1="645.274" y1="476.395" x2="642.814" y2="475.765" gradientUnits="userSpaceOnUse">
<stop stop-color="#E8E8E8" stop-opacity="0"/>
<stop offset="1" stop-color="#0079C1" stop-opacity="0.53"/>
</linearGradient>
<linearGradient id="paint30_linear_6182_198650" x1="615.435" y1="484.094" x2="612.97" y2="483.463" gradientUnits="userSpaceOnUse">
<stop stop-color="#E8E8E8" stop-opacity="0"/>
<stop offset="1" stop-color="#0079C1" stop-opacity="0.53"/>
</linearGradient>
<linearGradient id="paint31_linear_6182_198650" x1="294.417" y1="196.098" x2="320.69" y2="290" gradientUnits="userSpaceOnUse">
<stop stop-color="white" stop-opacity="0.6"/>
<stop offset="1" stop-color="#45B0EF" stop-opacity="0.6"/>
</linearGradient>
<linearGradient id="paint32_linear_6182_198650" x1="342.075" y1="230.208" x2="250.999" y2="255.763" gradientUnits="userSpaceOnUse">
<stop stop-color="white"/>
<stop offset="1" stop-color="white" stop-opacity="0"/>
</linearGradient>
<linearGradient id="paint33_linear_6182_198650" x1="544.248" y1="318.097" x2="447.932" y2="422.907" gradientUnits="userSpaceOnUse">
<stop stop-color="white" stop-opacity="0.6"/>
<stop offset="1" stop-color="#45B0EF" stop-opacity="0.6"/>
</linearGradient>
<linearGradient id="paint34_linear_6182_198650" x1="522.798" y1="401.956" x2="497.135" y2="339.118" gradientUnits="userSpaceOnUse">
<stop stop-color="white"/>
<stop offset="1" stop-color="white" stop-opacity="0"/>
</linearGradient>
<linearGradient id="paint35_linear_6182_198650" x1="544.248" y1="318.097" x2="447.932" y2="422.907" gradientUnits="userSpaceOnUse">
<stop stop-color="white" stop-opacity="0.6"/>
<stop offset="1" stop-color="#45B0EF" stop-opacity="0.6"/>
</linearGradient>
<linearGradient id="paint36_linear_6182_198650" x1="522.798" y1="401.956" x2="497.135" y2="339.118" gradientUnits="userSpaceOnUse">
<stop stop-color="white"/>
<stop offset="1" stop-color="white" stop-opacity="0"/>
</linearGradient>
<linearGradient id="paint37_linear_6182_198650" x1="590.449" y1="358.775" x2="619.829" y2="463.779" gradientUnits="userSpaceOnUse">
<stop stop-color="white" stop-opacity="0.6"/>
<stop offset="1" stop-color="#45B0EF" stop-opacity="0.6"/>
</linearGradient>
<linearGradient id="paint38_linear_6182_198650" x1="651.668" y1="339.582" x2="228.848" y2="231.431" gradientUnits="userSpaceOnUse">
<stop offset="0.015625" stop-color="#FAFDFF" stop-opacity="0.18"/>
<stop offset="0.375" stop-color="#67B7E7"/>
<stop offset="1" stop-color="#E8E8E8" stop-opacity="0"/>
</linearGradient>
<linearGradient id="paint39_linear_6182_198650" x1="192.277" y1="374.977" x2="189.811" y2="374.346" gradientUnits="userSpaceOnUse">
<stop stop-color="#E8E8E8" stop-opacity="0"/>
<stop offset="1" stop-color="#0079C1" stop-opacity="0.53"/>
</linearGradient>
</defs>
</svg>
