<svg width="64" height="64" viewBox="0 0 64 64" fill="none" xmlns="http://www.w3.org/2000/svg">
<path d="M51.9995 33.5219L31.9995 53.3299L11.9995 33.5219C10.6803 32.2382 9.64121 30.6953 8.94763 28.9903C8.25404 27.2853 7.921 25.4551 7.96947 23.6151C8.01794 21.775 8.44687 19.9649 9.22925 18.2988C10.0116 16.6327 11.1305 15.1466 12.5155 13.9341C13.9004 12.7216 15.5214 11.8091 17.2763 11.2538C19.0313 10.6986 20.8822 10.5128 22.7125 10.708C24.5428 10.9033 26.3128 11.4754 27.9112 12.3883C29.5095 13.3012 30.9015 14.5352 31.9995 16.0126C33.1023 14.546 34.4959 13.3228 36.0931 12.4195C37.6903 11.5163 39.4568 10.9524 41.282 10.7633C43.1072 10.5741 44.9517 10.7638 46.7002 11.3203C48.4487 11.8768 50.0636 12.7882 51.4436 13.9975C52.8237 15.2068 53.9393 16.688 54.7206 18.3483C55.5019 20.0086 55.9321 21.8123 55.9843 23.6465C56.0365 25.4807 55.7095 27.3059 55.0239 29.0079C54.3382 30.7099 53.3086 32.2521 51.9995 33.5379M31.9995 15.9966L23.2182 24.7779C22.7182 25.278 22.4374 25.9561 22.4374 26.6632C22.4374 27.3703 22.7182 28.0485 23.2182 28.5486L24.6662 29.9966C26.5062 31.8366 29.4928 31.8366 31.3328 29.9966L33.9995 27.3299C35.5908 25.7386 37.7491 24.8446 39.9995 24.8446C42.2499 24.8446 44.4082 25.7386 45.9995 27.3299L51.9995 33.3299M33.3328 41.3299L38.6662 46.6632M39.9995 34.6632L45.3328 39.9966" stroke="#0079C1" stroke-width="1.5" stroke-linecap="round" stroke-linejoin="round"/>
</svg>
