<svg width="64" height="64" viewBox="0 0 64 64" fill="none" xmlns="http://www.w3.org/2000/svg">
<path d="M16 53.3333V45.3333C16 43.8606 14.8061 42.6667 13.3333 42.6667H10.6667C9.19391 42.6667 8 43.8606 8 45.3333V53.3333C8 54.8061 9.19391 56 10.6667 56H13.3333C14.8061 56 16 54.8061 16 53.3333ZM16 53.3333C16 54.0406 16.281 54.719 16.781 55.2191C17.2811 55.7192 17.9594 56.0001 18.6667 56.0001H28.6827C29.2564 56.0002 29.8148 55.8152 30.275 55.4727C30.7352 55.1301 31.0727 54.6483 31.2373 54.0988L34.4373 46.0988C34.6773 45.2908 34.792 44.4188 34.288 43.7414C33.7867 43.0641 32.8427 42.6668 32 42.6668H26.6667V36.0881C26.6663 35.4588 26.4636 34.8462 26.0885 34.3409C25.7133 33.8357 25.1856 33.4644 24.5832 33.2821C23.9809 33.0997 23.3359 33.1159 22.7435 33.3283C22.1511 33.5407 21.6426 33.938 21.2933 34.4614L16 42.6668V53.3333ZM37.3333 8V18.6667C37.3333 19.3739 37.6143 20.0522 38.1144 20.5523C38.6145 21.0524 39.2928 21.3333 40 21.3333H50.6667M37.3333 8H18.6667C17.2522 8 15.8956 8.5619 14.8954 9.5621C13.8952 10.5623 13.3333 11.9188 13.3333 13.3333V32.2667M37.3333 8L50.6667 21.3333M50.6667 21.3333V50.6667C50.6667 52.0812 50.1048 53.4377 49.1046 54.4379C48.1044 55.4381 46.7478 56 45.3333 56H39.2" stroke="#0079C1" stroke-width="1.5" stroke-linecap="round" stroke-linejoin="round"/>
</svg>
