<svg width="39" height="38" viewBox="0 0 39 38" fill="none" xmlns="http://www.w3.org/2000/svg">
<path d="M8.58464 12.6693C10.3335 12.6693 11.7513 11.2515 11.7513 9.5026C11.7513 7.7537 10.3335 6.33594 8.58464 6.33594C6.83573 6.33594 5.41797 7.7537 5.41797 9.5026C5.41797 11.2515 6.83573 12.6693 8.58464 12.6693ZM8.58464 12.6693V25.3359M19.668 12.6693C21.4169 12.6693 22.8346 11.2515 22.8346 9.5026C22.8346 7.7537 21.4169 6.33594 19.668 6.33594C17.9191 6.33594 16.5013 7.7537 16.5013 9.5026C16.5013 11.2515 17.9191 12.6693 19.668 12.6693ZM19.668 12.6693V25.3359M30.7513 12.6693C32.5002 12.6693 33.918 11.2515 33.918 9.5026C33.918 7.7537 32.5002 6.33594 30.7513 6.33594C29.0024 6.33594 27.5846 7.7537 27.5846 9.5026C27.5846 11.2515 29.0024 12.6693 30.7513 12.6693ZM30.7513 12.6693V15.8359C30.7513 16.6758 30.4177 17.4812 29.8238 18.0751C29.2299 18.669 28.4245 19.0026 27.5846 19.0026H8.58464M8.58464 25.3359C6.83573 25.3359 5.41797 26.7537 5.41797 28.5026C5.41797 30.2515 6.83573 31.6693 8.58464 31.6693C10.3335 31.6693 11.7513 30.2515 11.7513 28.5026C11.7513 26.7537 10.3335 25.3359 8.58464 25.3359ZM19.668 25.3359C17.9191 25.3359 16.5013 26.7537 16.5013 28.5026C16.5013 30.2515 17.9191 31.6693 19.668 31.6693C21.4169 31.6693 22.8346 30.2515 22.8346 28.5026C22.8346 26.7537 21.4169 25.3359 19.668 25.3359Z" stroke="#0079C1" stroke-width="1.5" stroke-linecap="round" stroke-linejoin="round"/>
</svg>
