<svg width="38" height="38" viewBox="0 0 38 38" fill="none" xmlns="http://www.w3.org/2000/svg">
<path d="M28.5 12.6693V7.91927C28.5 7.49934 28.3332 7.09662 28.0363 6.79969C27.7393 6.50275 27.3366 6.33594 26.9167 6.33594H6.33333C5.91341 6.33594 5.51068 6.50275 5.21375 6.79969C4.91681 7.09662 4.75 7.49934 4.75 7.91927V26.9193C4.75 27.3392 4.91681 27.7419 5.21375 28.0389C5.51068 28.3358 5.91341 28.5026 6.33333 28.5026H20.5833M25.3333 14.2526H28.5M22.1667 12.6693H31.6667C32.5411 12.6693 33.25 13.3782 33.25 14.2526V30.0859C33.25 30.9604 32.5411 31.6693 31.6667 31.6693H22.1667C21.2922 31.6693 20.5833 30.9604 20.5833 30.0859V14.2526C20.5833 13.3782 21.2922 12.6693 22.1667 12.6693Z" stroke="#0079C1" stroke-width="1.5" stroke-linecap="round" stroke-linejoin="round"/>
</svg>
