<svg width="211" height="44" viewBox="0 0 211 44" fill="none" xmlns="http://www.w3.org/2000/svg">
<path d="M127.957 44.179H104.941V5.53357H113.649V37.1166H127.964V44.179H127.957ZM132.557 44.179V5.53357H146.246C159.972 5.53357 166.839 11.8129 166.839 24.3715C166.839 30.3898 164.968 35.2 161.217 38.7871C157.475 42.3817 152.479 44.179 146.246 44.179H132.557ZM141.258 12.6183V37.1166H145.568C149.34 37.1166 152.3 35.9831 154.448 33.7234C156.595 31.4563 157.668 28.3763 157.668 24.4834C157.668 20.7993 156.602 17.9058 154.477 15.7952C152.345 13.6847 149.363 12.6258 145.515 12.6258H141.258V12.6183ZM85.4065 5.53357H82.5361H75.0877L66.5806 28.8983L61.0186 44.179H70.4502L73.1715 35.5803H86.9201L89.6713 44.179H99.1551L85.4065 5.53357ZM75.028 28.8983L79.9713 13.5058C80.3739 14.7064 80.687 15.6386 80.769 15.9071L84.9219 28.8983H75.028Z" fill="#113163"/>
<path d="M174.862 17.5329V24.8264H172.602V5.53357H177.904C179.969 5.53357 181.564 6.03322 182.698 7.04C183.831 8.04678 184.398 9.46374 184.398 11.2909C184.398 13.118 183.764 14.617 182.504 15.7803C181.244 16.9437 179.544 17.5254 177.397 17.5254H174.862V17.5329ZM174.862 7.57695V15.4895H177.233C178.791 15.4895 179.984 15.1315 180.804 14.423C181.624 13.7071 182.034 12.7003 182.034 11.4027C182.034 8.85967 180.528 7.58442 177.516 7.58442H174.862V7.57695ZM194.977 12.678C194.575 12.3647 193.986 12.2081 193.225 12.2081C192.234 12.2081 191.406 12.678 190.743 13.6102C190.079 14.5424 189.743 15.8176 189.743 17.4285V24.8041H187.425V10.3288H189.743V13.3119H189.803C190.131 12.2976 190.638 11.4997 191.317 10.9329C191.995 10.3661 192.756 10.0753 193.591 10.0753C194.195 10.0753 194.657 10.1424 194.977 10.2766V12.678ZM204.133 25.1471C201.993 25.1471 200.286 24.4685 199.011 23.1186C197.736 21.7688 197.095 19.9715 197.095 17.7417C197.095 15.3105 197.758 13.4088 199.086 12.0441C200.413 10.6793 202.21 9.99322 204.469 9.99322C206.623 9.99322 208.308 10.657 209.524 11.9844C210.732 13.3119 211.343 15.1539 211.343 17.5105C211.343 19.8224 210.687 21.6719 209.382 23.059C208.085 24.4536 206.333 25.1471 204.133 25.1471ZM204.305 11.9397C202.814 11.9397 201.636 12.4468 200.771 13.461C199.906 14.4752 199.473 15.8698 199.473 17.6522C199.473 19.3675 199.913 20.7173 200.786 21.7091C201.665 22.701 202.836 23.1932 204.305 23.1932C205.803 23.1932 206.959 22.7085 207.764 21.739C208.569 20.7695 208.972 19.3898 208.972 17.6C208.972 15.7878 208.569 14.3932 207.764 13.4163C206.959 12.4319 205.803 11.9397 204.305 11.9397Z" fill="#FC5D2B"/>
<path d="M46.9421 5.53373H44.2132C44.2058 3.99001 42.9532 2.73712 41.4099 2.73712H9.67038C5.84554 2.73712 2.73647 5.84694 2.73647 9.67271V27.6158C2.73647 29.1595 3.98904 30.4124 5.52494 30.4198V33.1493C2.49042 33.1419 0.00762939 30.6585 0.00762939 27.6158V9.67271C0.00762939 4.35542 4.35437 0.00762939 9.67038 0.00762939H41.4099C44.4444 0.015087 46.9346 2.49848 46.9421 5.53373Z" fill="#FC5D2B"/>
<path d="M38.651 44.1939H28.9883H19.3255C18.9453 44.1939 18.6023 44.0373 18.3488 43.7912C18.0953 43.5376 17.9462 43.1946 17.9462 42.8142C17.9462 42.4339 18.1028 42.0909 18.3488 41.8373C18.6023 41.5837 18.9453 41.4346 19.3255 41.4346H28.9883H38.651C39.0313 41.4346 39.3743 41.5912 39.6278 41.8373C39.8812 42.0909 40.0304 42.4339 40.0304 42.8142C40.0304 43.1946 39.8738 43.5376 39.6278 43.7912C39.3743 44.0373 39.0313 44.1939 38.651 44.1939ZM46.9345 8.26304H11.0346C9.49128 8.26304 8.2387 9.51592 8.2387 11.0597V33.1566C8.2387 34.7003 9.49128 35.9532 11.0346 35.9532H46.9345C48.4778 35.9532 49.7304 34.7003 49.7304 33.1566V11.0597C49.7304 9.51592 48.4778 8.26304 46.9345 8.26304ZM46.9345 5.53357C49.969 5.53357 52.4592 8.01695 52.4592 11.0522V33.1492C52.4592 36.1844 49.9765 38.6678 46.9345 38.6678H11.0346C8.00011 38.6678 5.50989 36.1844 5.50989 33.1492V11.0522C5.50989 8.01695 7.99266 5.53357 11.0346 5.53357H46.9345ZM16.1046 33.1492H21.5026L13.4429 15.8102L25.1112 33.1492H29.5549L19.6088 11.7607L33.9986 33.1492H37.5849L27.3256 11.0597H12.7793C11.825 11.0597 11.0496 11.8352 11.0496 12.7898V25.6244L16.1046 33.1492ZM46.9494 26.221V12.7824C46.9494 11.8278 46.174 11.0522 45.2196 11.0522H36.7423L46.9494 26.221ZM35.2661 11.0597H28.019L42.8785 33.1492H45.2196C45.3165 33.1492 45.4135 33.1417 45.5104 33.1268L35.2661 11.0597ZM11.0496 28.1227V31.419C11.0496 32.3736 11.825 33.1492 12.7793 33.1492H13.3832L11.0496 28.1227Z" fill="#113163"/>
</svg>
