<svg width="188" height="42" viewBox="0 0 188 42" fill="none" xmlns="http://www.w3.org/2000/svg">
<g clip-path="url(#clip0_7505_240495)">
<path d="M48.0223 24.1944H44.9637V32.4761H39.3137V9.06373H48.5373C50.8566 8.92665 53.1541 9.5777 55.0567 10.9111C55.8357 11.5315 56.4553 12.3288 56.864 13.2369C57.2727 14.1449 57.4588 15.1374 57.4067 16.1318C57.4604 17.5467 57.1175 18.9484 56.4168 20.1787C55.6618 21.3316 54.584 22.2366 53.318 22.7808L58.2116 32.2349V32.4761H52.1591L48.0223 24.1944ZM44.9637 19.8533H48.5373C48.9776 19.8863 49.42 19.8283 49.8369 19.6827C50.2538 19.5371 50.6361 19.3072 50.9602 19.0073C51.5329 18.3585 51.8251 17.5092 51.7728 16.6453C51.823 15.7756 51.528 14.9211 50.9518 14.2677C50.6313 13.9642 50.251 13.7308 49.8354 13.5823C49.4197 13.4338 48.9776 13.3735 48.5373 13.4052H44.9637V19.8533Z" fill="#009B82"/>
<path d="M70.4337 30.5945C69.8911 31.3073 69.1854 31.8793 68.3759 32.2626C67.5663 32.6459 66.6765 32.8293 65.7814 32.7973C64.9806 32.854 64.1771 32.7344 63.4275 32.4469C62.6779 32.1594 62.0006 31.7109 61.4432 31.1332C60.3791 29.7748 59.8547 28.0711 59.9706 26.3495V15.0777H65.3952V26.3817C65.3483 26.6804 65.3715 26.986 65.4631 27.2743C65.5547 27.5625 65.7121 27.8255 65.9229 28.0424C66.1337 28.2592 66.3921 28.4241 66.6776 28.5238C66.9632 28.6235 67.268 28.6554 67.568 28.6169C68.0908 28.6619 68.6159 28.561 69.0849 28.3254C69.5538 28.0898 69.9482 27.7288 70.2242 27.2824V15.0777H75.681V32.476H70.5942L70.4337 30.5945Z" fill="#009B82"/>
<path d="M79.4489 32.4761V9.06372H87.8679C90.8832 9.06372 93.1769 9.61574 94.749 10.7198C95.5186 11.2544 96.139 11.9765 96.5517 12.8178C96.9644 13.6591 97.1557 14.5917 97.1075 15.5276C97.1398 16.6219 96.8485 17.7014 96.2702 18.631C95.6783 19.5154 94.8135 20.1819 93.8075 20.5289C94.9273 20.7832 95.9235 21.42 96.6245 22.3297C97.2966 23.2643 97.6418 24.3946 97.6065 25.5453C97.6753 26.518 97.5136 27.4931 97.1346 28.3914C96.7556 29.2898 96.17 30.0861 95.4254 30.7155C93.9713 31.8674 91.817 32.4542 88.9624 32.4761L79.4489 32.4761ZM85.0989 18.824H88.0447C88.9757 18.8992 89.9051 18.6608 90.6848 18.1467C90.9557 17.9026 91.1675 17.6 91.3042 17.2619C91.4408 16.9237 91.4986 16.5589 91.4733 16.1951C91.5108 15.7968 91.453 15.3953 91.3047 15.0238C91.1564 14.6522 90.9218 14.3213 90.6203 14.0583C89.795 13.5552 88.8314 13.3265 87.868 13.4052H85.0989L85.0989 18.824ZM85.0989 22.5223V28.1343H88.8012C89.6432 28.1903 90.4772 27.9421 91.1516 27.4349C91.4283 27.1898 91.6459 26.8853 91.7881 26.5441C91.9303 26.2029 91.9934 25.834 91.9726 25.4649C92.0294 25.0678 91.9935 24.6629 91.8676 24.282C91.7418 23.9011 91.5294 23.5545 91.2471 23.2694C90.9648 22.9843 90.6203 22.7685 90.2407 22.6389C89.861 22.5093 89.4565 22.4694 89.0588 22.5223L85.0989 22.5223Z" fill="black"/>
<path d="M109.994 32.4761C109.753 31.9815 109.58 31.4568 109.479 30.9161C108.98 31.5382 108.34 32.033 107.613 32.36C106.885 32.687 106.091 32.8368 105.294 32.7973C103.763 32.837 102.271 32.307 101.109 31.3101C100.559 30.8568 100.118 30.2852 99.8197 29.6379C99.5214 28.9905 99.3733 28.2842 99.3862 27.5715C99.3392 26.739 99.507 25.9084 99.8734 25.1594C100.24 24.4104 100.793 23.7681 101.479 23.2944C103.317 22.2149 105.436 21.7108 107.563 21.847H109.238V20.926C109.238 19.3211 108.546 18.5186 107.161 18.5188C106.901 18.4799 106.635 18.5022 106.384 18.5839C106.134 18.6656 105.906 18.8045 105.719 18.9895C105.531 19.1745 105.39 19.4006 105.305 19.6498C105.22 19.8991 105.194 20.1647 105.23 20.4256H99.805C99.7945 19.6181 99.9854 18.8207 100.361 18.1056C100.736 17.3904 101.283 16.7801 101.954 16.3298C103.563 15.2274 105.486 14.6753 107.435 14.7558C109.327 14.6503 111.195 15.2267 112.699 16.3804C113.34 16.9277 113.851 17.6118 114.194 18.3826C114.537 19.1533 114.702 19.991 114.678 20.8341V28.5366C114.628 29.8001 114.882 31.0574 115.419 32.2021V32.4761L109.994 32.4761ZM106.598 28.9385C107.189 28.9611 107.774 28.8101 108.28 28.5041C108.678 28.2642 109.007 27.9267 109.238 27.5236V24.7414H107.66C105.771 24.7414 104.827 25.5884 104.827 27.2824C104.819 27.5062 104.859 27.7292 104.945 27.9359C105.031 28.1426 105.161 28.3283 105.326 28.48C105.675 28.7917 106.13 28.9561 106.598 28.9385Z" fill="black"/>
<path d="M124.764 28.6169C125.086 28.6371 125.408 28.5927 125.712 28.4863C126.016 28.3799 126.296 28.2138 126.535 27.9976C126.752 27.7678 126.918 27.4955 127.023 27.1979C127.128 26.9002 127.17 26.5839 127.146 26.2692H132.233C132.258 27.1547 132.087 28.0347 131.732 28.8465C131.377 29.6582 130.847 30.3815 130.181 30.9647C128.713 32.2224 126.824 32.8772 124.893 32.7973C123.782 32.8545 122.672 32.6715 121.639 32.2608C120.606 31.8501 119.673 31.2213 118.904 30.4174C117.357 28.5816 116.574 26.2219 116.715 23.8253V23.6002C116.683 21.9946 117.016 20.4027 117.689 18.9448C118.292 17.6512 119.271 16.5695 120.498 15.8414C121.822 15.0919 123.324 14.7166 124.844 14.7558C126.819 14.6517 128.756 15.3274 130.237 16.6373C130.911 17.2974 131.438 18.093 131.782 18.9717C132.126 19.8504 132.28 20.792 132.233 21.7344H127.146C127.197 20.9844 126.961 20.2432 126.486 19.6603C126.261 19.4186 125.986 19.2287 125.68 19.1037C125.375 18.9788 125.045 18.9218 124.716 18.9368C123.31 18.9368 122.489 19.8318 122.253 21.6219C122.167 22.4015 122.129 23.1857 122.14 23.97C122.041 25.2147 122.257 26.4644 122.768 27.6037C122.978 27.9377 123.274 28.2085 123.626 28.387C123.977 28.5655 124.371 28.645 124.764 28.6169Z" fill="black"/>
<path d="M141.436 25.9958L139.907 27.5236V32.4761H134.483V7.76108H139.907V20.8823L140.455 20.1588L144.543 15.0777H151.046L144.945 22.2329L151.448 32.4761H145.235L141.436 25.9958Z" fill="black"/>
<path d="M162.984 30.5945C162.442 31.3073 161.736 31.8793 160.927 32.2626C160.117 32.6459 159.228 32.8293 158.333 32.7973C157.532 32.8541 156.728 32.7346 155.979 32.447C155.229 32.1595 154.552 31.711 153.995 31.1332C152.93 29.7752 152.405 28.0713 152.521 26.3495V15.0777H157.946V26.3817C157.899 26.6805 157.923 26.9861 158.014 27.2743C158.106 27.5626 158.263 27.8256 158.474 28.0424C158.685 28.2593 158.943 28.4241 159.229 28.5238C159.514 28.6235 159.819 28.6554 160.119 28.6169C160.642 28.6619 161.167 28.561 161.636 28.3254C162.105 28.0898 162.499 27.7287 162.775 27.2824V15.0777H168.232V32.476H163.145L162.984 30.5945Z" fill="black"/>
<path d="M187.081 23.9053C187.199 26.2047 186.557 28.4791 185.254 30.3772C184.692 31.1532 183.948 31.7795 183.088 32.2015C182.228 32.6234 181.277 32.828 180.32 32.7973C179.574 32.8166 178.832 32.6693 178.15 32.3662C177.468 32.063 176.862 31.6116 176.376 31.0447V39.1653H170.951V15.0777H176.022L176.183 16.6855C176.668 16.0645 177.292 15.5662 178.005 15.231C178.718 14.8958 179.5 14.733 180.288 14.7558C181.253 14.7117 182.214 14.9049 183.086 15.3185C183.959 15.7321 184.717 16.3534 185.294 17.128C186.584 19.0483 187.212 21.3378 187.081 23.6478L187.081 23.9053ZM181.655 23.5677C181.655 20.4803 180.754 18.9367 178.952 18.9368C178.432 18.8758 177.907 18.9758 177.446 19.2231C176.986 19.4703 176.612 19.8531 176.376 20.3195V27.1695C176.614 27.6458 176.99 28.039 177.456 28.2973C177.921 28.5556 178.454 28.6671 178.984 28.6169C180.711 28.6169 181.602 27.1267 181.655 24.1465V23.5677Z" fill="black"/>
<path d="M23.5182 34.3609C23.4821 34.3165 23.4413 34.2761 23.3965 34.2405C23.5219 35.3178 23.3053 36.4072 22.7775 37.3546C22.5991 37.6378 22.4791 37.9538 22.4248 38.284C22.2937 38.9245 22.3668 38.5412 22.2834 38.9676L22.2827 38.9707C22.3173 39.0115 22.3578 39.0468 22.403 39.0753C23.0024 39.3979 23.6728 39.5662 24.3536 39.5649C24.3991 39.5649 24.6182 39.5572 24.682 39.5519C24.8679 39.5091 25.0309 39.3981 25.1388 39.2408C25.2467 39.0835 25.2916 38.8915 25.2646 38.7027C25.285 37.3991 24.5936 36.1052 23.5182 34.3609Z" fill="black"/>
<path d="M23.4275 33.2004L23.4161 33.2001C23.4138 33.2184 23.4127 33.237 23.4104 33.2552C23.03 34.9278 20.8616 34.4859 19.5953 34.3768C19.1273 34.3075 18.6661 34.1984 18.2167 34.0505C17.3031 33.6416 16.3651 33.2894 15.4081 32.9959L15.292 32.9929L15.352 33.2197C15.527 33.8744 15.717 34.5254 15.9221 35.1727C16.0865 35.7194 16.7374 37.5041 16.7374 37.5041C17.0456 38.3113 17.3755 39.1074 17.733 39.885C17.8147 40.0929 17.9393 40.2812 18.0987 40.4376C19.0619 41.1264 21.035 41.386 21.6961 40.894C22.1317 40.529 22.2256 39.8886 22.403 39.0752C22.4864 38.6489 22.4133 39.0321 22.5444 38.3917C22.5987 38.0614 22.7186 37.7454 22.8971 37.4623C23.5012 36.3365 23.7067 35.0394 23.4804 33.782C23.4663 33.6219 23.4275 33.2004 23.4275 33.2004Z" fill="#5D1400"/>
<path d="M34.6051 35.9891C32.5187 36.0292 29.2689 36.0572 27.2869 36.0767C20.7742 36.1406 15.4534 36.1118 15.4534 36.1118C15.4534 36.1118 11.5494 36.1653 7.85573 36.1161C5.61441 36.0862 3.59526 36.1132 2.19238 36.1963C1.5461 36.2164 0.902546 36.2893 0.268153 36.4143C-0.304067 36.5823 0.189963 37.1215 0.371023 37.2969C0.408122 37.3328 0.457857 37.3526 0.509453 37.3521L1.98437 37.3352L15.4535 37.2267L27.3334 37.2256L34.2259 37.2251C34.3774 37.2172 34.5225 37.1615 34.6404 37.0661C35.0173 36.727 35.8282 35.9657 34.6051 35.9891Z" fill="#424242"/>
<path d="M23.0358 24.6965C22.6855 23.0361 22.1759 21.4135 21.5142 19.8509C21.1507 17.5074 19.9366 15.3801 18.1039 13.875C17.8566 13.7283 17.7836 12.8658 17.258 12.8105C17.0492 12.7809 16.8136 12.7453 16.7106 12.7232C16.8427 13.2233 17.0228 13.7724 17.1674 14.2853C17.8574 19.7628 10.5158 23.8378 6.64653 19.5C3.26128 15.6367 5.6811 11.9554 8.73429 7.23624C11.4274 3.73924 13.7406 1.66345 16.1799 2.05297C16.4418 2.15416 16.8248 2.19529 16.9873 1.89872C17.0136 1.90857 17.0407 1.91611 17.0684 1.92125C17.2369 3.65468 15.9287 5.03906 15.751 6.65371C15.629 7.01937 15.39 7.61503 15.6786 8.02843C16.0108 8.75231 17.0382 8.78743 17.6432 9.01092C17.5428 9.09506 17.4518 9.18008 17.3667 9.26565C17.5689 9.30258 17.7659 9.34003 17.9534 9.37738C18.5548 9.47358 19.1452 9.62926 19.7158 9.84214C19.8311 9.88266 20.0302 9.95558 20.1127 9.97589C20.367 10.0392 20.6305 10.0574 20.8911 10.0297C20.8559 9.98959 20.8208 9.95033 20.7856 9.91193L20.7744 9.89982L20.7736 9.89891C18.5222 7.44609 16.3747 8.38878 16.6939 7.20005C16.8814 6.69988 16.9991 6.17625 17.0436 5.64395C17.0511 5.60028 17.0702 5.55941 17.0989 5.52564C17.8268 4.45537 18.2039 3.18526 18.178 1.89117C18.177 1.7149 18.1684 1.54006 18.1536 1.36717C17.946 1.32671 17.7311 1.34818 17.5356 1.42892L17.5397 1.42692C17.4531 1.0661 17.2573 0.740816 16.9788 0.495536C16.7004 0.250257 16.353 0.0969539 15.9841 0.0565829C15.1425 -0.0445756 14.2894 0.00760037 13.4663 0.210583C11.1828 0.840723 9.14993 2.16156 7.64633 3.99212C6.14274 5.82268 5.24197 8.0734 5.06744 10.4359C5.06004 10.6135 5.05857 10.7489 5.12515 11.9639C5.1322 12.0926 5.08515 12.1689 4.96515 12.1537C4.90208 12.145 4.83833 12.1424 4.77475 12.1458C3.69397 12.2164 3.14951 13.3317 3.03985 14.1966C3.03454 14.2414 3.03159 14.2868 3.02674 14.3318L3.02359 14.3238C2.56164 17.4647 2.99159 20.6723 4.26443 23.5808L4.26356 23.58C5.05046 25.5594 6.00574 27.4676 7.11889 29.2837C7.13033 29.301 7.14601 29.3152 7.16444 29.3247C7.18287 29.3343 7.20344 29.339 7.2242 29.3384C7.24496 29.3377 7.26521 29.3318 7.28303 29.3211C7.30085 29.3105 7.31565 29.2954 7.32601 29.2774C7.43475 29.0895 7.55527 28.9955 7.66693 29.2186C8.16204 30.0674 8.72269 30.8762 9.34377 31.6376C9.60995 31.9131 9.95607 31.2333 10.3163 31.3905C10.8906 31.8306 11.5051 32.2154 12.1518 32.5399C8.74591 34.0005 6.29291 35.3704 4.13808 35.3014C3.56617 35.1604 3.41408 35.1729 3.22532 35.4225C3.05318 35.4298 2.88989 35.5007 2.76716 35.6217C2.64443 35.7426 2.57103 35.9048 2.56122 36.0768C2.49932 36.126 2.45768 36.1962 2.44423 36.2742C2.43079 36.3521 2.44649 36.4322 2.48833 36.4993C1.92371 36.7742 2.18623 38.0973 3.11168 37.7495C3.11915 37.7038 3.06194 37.6713 3.02438 37.6494C2.94711 37.6021 2.88134 37.5382 2.83187 37.4623C2.7824 37.3864 2.75047 37.3004 2.73839 37.2106C2.72632 37.1209 2.73441 37.0295 2.76207 36.9433C2.78973 36.857 2.83628 36.778 2.89831 36.712C3.01911 36.7834 3.15857 36.8169 3.29861 36.8081C3.43866 36.7994 3.57287 36.7489 3.68388 36.6631C4.51852 35.8262 7.3953 36.2172 8.45809 36.1232C8.47165 36.1232 8.4636 36.0974 8.45032 36.0947C7.94465 36.0019 7.67276 35.6508 8.05115 35.4347L13.2432 32.9496C13.9303 33.1477 14.6438 33.2388 15.3587 33.2196C16.3349 33.5082 17.2898 33.8639 18.2168 34.2846C18.1157 34.4657 17.9692 34.7134 17.7844 34.7749C16.858 35.0705 15.8978 35.2474 14.9269 35.3014C14.3552 35.1604 14.2028 35.173 14.0141 35.4225C13.842 35.4298 13.6787 35.5007 13.556 35.6217C13.4332 35.7426 13.3598 35.9048 13.35 36.0768C13.2881 36.126 13.2465 36.1962 13.233 36.2742C13.2196 36.3521 13.2353 36.4322 13.2772 36.4993C13.1288 36.5915 13.0201 36.7358 12.9725 36.9039C12.9249 37.072 12.9417 37.2518 13.0196 37.4082C13.0976 37.5645 13.2311 37.6862 13.394 37.7493C13.5569 37.8124 13.7375 37.8125 13.9005 37.7495C13.6065 37.455 13.4154 37.1091 13.7087 36.7388C13.8306 36.7981 13.9665 36.8224 14.1014 36.8091C14.2363 36.7957 14.3648 36.7452 14.4726 36.6631C14.7879 36.4312 15.149 36.2696 15.5318 36.1885C15.7615 36.1569 15.993 36.1392 16.2249 36.1355C16.9531 36.1348 18.8546 36.1639 19.1946 36.1181C19.2344 36.1127 19.2135 36.0933 19.2067 36.086C18.7714 35.976 18.6027 35.6818 18.8394 35.4455L19.5954 34.6109C20.8618 34.72 23.0301 35.1619 23.4105 33.4893C23.7696 30.5577 23.643 27.5869 23.0358 24.6965Z" fill="#200000"/>
<path d="M21.6228 21.0087C21.5627 17.9035 19.548 14.7655 18.1039 13.875C17.8566 13.7283 17.7836 12.8658 17.2581 12.8106C17.0596 12.7846 16.8805 12.7548 16.7106 12.7232C16.8362 13.1951 17.0075 13.7179 17.1674 14.2853C17.8574 19.7628 10.5158 23.8379 6.64655 19.5001C3.2613 15.6367 5.68112 11.9554 8.73431 7.23625C11.4274 3.73925 13.7406 1.66346 16.1799 2.05298C16.4417 2.15412 16.8244 2.19526 16.9871 1.89917L17.0674 1.91153C17.2418 3.64953 15.9291 5.03605 15.7511 6.65372C15.6291 7.01938 15.3901 7.61504 15.6786 8.02844C16.0097 8.75002 17.0315 8.78727 17.6371 9.00888C17.9015 8.97807 18.2115 8.9427 18.5819 8.8983C18.008 8.60648 17.3956 8.39738 16.7631 8.27748C16.6448 8.26322 16.531 8.22365 16.4294 8.16147C16.3278 8.0993 16.2408 8.01597 16.1743 7.91715C16.1078 7.81834 16.0634 7.70636 16.044 7.58883C16.0246 7.4713 16.0308 7.35098 16.0621 7.23605C16.1563 7.01199 16.2259 6.77838 16.2697 6.53932C16.3943 6.10821 16.3418 5.61978 16.6451 5.25465C16.7928 5.00768 16.9238 4.75086 17.0363 4.486C17.0927 4.35348 17.1446 4.21908 17.192 4.08282C17.43 3.39872 17.5528 2.67986 17.5554 1.95554C17.556 1.7796 17.5494 1.60459 17.5355 1.42889L17.5398 1.42689C17.4532 1.06606 17.2573 0.740779 16.9789 0.495506C16.7004 0.250233 16.353 0.0969412 15.9842 0.0565868C15.1425 -0.0445777 14.2894 0.00759842 13.4664 0.210587C11.1828 0.840727 9.14994 2.16157 7.64635 3.99213C6.14275 5.82269 5.24198 8.0734 5.06746 10.4359C5.06006 10.6134 5.05859 10.7489 5.12517 11.9639C5.13222 12.0926 5.08517 12.1689 4.96517 12.1537C4.9021 12.145 4.83834 12.1424 4.77477 12.1458C3.69399 12.2164 3.14953 13.3317 3.03987 14.1966C2.34164 20.0916 5.63765 26.8543 11.2099 28.3618C13.4878 33.1157 17.0591 33.7778 19.1843 31.8552C19.6639 31.4058 20.0338 30.8522 20.2653 30.2371C21.4178 27.3053 21.8822 24.1482 21.6228 21.0087Z" fill="#424242"/>
<path d="M33.1375 11.6142C33.131 10.3594 32.7602 9.13353 32.0701 8.0855C31.539 7.30221 30.9404 6.56693 30.281 5.88806L30.2686 5.87541C28.8503 4.42963 27.1574 3.28171 25.2895 2.49899C23.4215 1.71626 21.416 1.31451 19.3907 1.31731C18.974 1.31731 18.5617 1.33391 18.1537 1.36713C18.1572 1.40796 18.1676 1.60265 18.1736 1.74932C18.175 1.79662 18.1777 1.84364 18.178 1.89117C18.2039 3.18525 17.8267 4.45536 17.0988 5.52562C17.0699 5.55924 17.0508 5.60017 17.0436 5.64394C16.999 6.17624 16.8814 6.69986 16.6939 7.20004C16.3746 8.38877 18.5222 7.44604 20.7735 9.8989C20.7737 9.8991 20.8795 10.0166 20.891 10.0296C23.6663 10.2817 26.3652 11.076 28.8346 12.3673C28.9119 12.4077 29.3475 12.6436 29.487 12.7231C30.5018 13.2992 31.4679 13.9571 32.3757 14.6904L32.3851 14.698L32.3902 14.6882C32.8892 13.7412 33.146 12.6846 33.1375 11.6142Z" fill="#A78015"/>
<path d="M19.8942 9.906C19.5077 9.50894 19.066 9.1697 18.5827 8.89877L18.5816 8.89847C18.1783 8.89847 17.9521 9.08187 17.9521 9.37723C18.6149 9.49076 19.2653 9.66783 19.8942 9.906Z" fill="black"/>
<path d="M17.258 12.8106C17.0274 12.3823 16.9161 11.9 16.9357 11.414C16.9553 10.928 17.1052 10.4562 17.3696 10.0479C17.6896 9.58488 18.1024 9.19339 18.5818 8.89832L18.58 8.89721C18.0066 8.60595 17.3949 8.39731 16.7631 8.27749C16.6448 8.26324 16.531 8.22367 16.4294 8.1615C16.3278 8.09933 16.2408 8.016 16.1742 7.91718C16.1077 7.81837 16.0633 7.70639 16.0439 7.58885C16.0245 7.47132 16.0307 7.35099 16.062 7.23606C16.1562 7.01201 16.2258 6.77839 16.2696 6.53932C16.3942 6.10823 16.3417 5.61979 16.645 5.25466C17.2377 4.25603 17.5523 3.11682 17.5554 1.95557C17.5356 1.78281 17.4711 1.36779 17.3051 1.30067C17.2905 1.29273 17.274 1.28901 17.2573 1.28994C17.2407 1.29087 17.2247 1.2964 17.211 1.30593C17.1973 1.31545 17.1866 1.32858 17.18 1.34386C17.1733 1.35914 17.1711 1.37596 17.1735 1.39244C17.1786 1.45827 17.1525 1.46667 17.1378 1.42808C16.9575 0.955391 16.7158 1.24858 16.7838 1.39703C16.7963 1.42432 16.7728 1.42943 16.7604 1.41437C16.5259 1.11855 16.3349 1.41446 16.5762 1.63169C16.5785 1.63375 16.58 1.63649 16.5807 1.63951C16.5813 1.64253 16.5809 1.64567 16.5796 1.64846C16.5783 1.65126 16.5761 1.65356 16.5734 1.65502C16.5707 1.65649 16.5676 1.65704 16.5645 1.65659C16.3704 1.6002 16.173 1.55586 15.9734 1.52382C11.3209 0.925872 4.61006 11.2815 4.52618 15.4476C4.53496 16.4477 4.77744 17.4319 5.23426 18.3216C5.69108 19.2112 6.34958 19.9818 7.1572 20.5717C7.96482 21.1616 8.89917 21.5545 9.88566 21.7191C10.8721 21.8836 11.8834 21.8152 12.8388 21.5194C15.6482 20.5074 18.1385 17.3394 17.6398 14.2102C17.6397 14.2095 17.6183 14.0384 17.6119 14.0027C17.5552 13.7248 17.4795 13.451 17.3852 13.1835C17.343 13.0626 17.2581 12.8108 17.258 12.8106Z" fill="#FEDD00"/>
<path d="M32.3851 14.698C31.4746 13.9617 30.5053 13.3012 29.487 12.7231C29.3474 12.6436 29.2069 12.5658 29.0655 12.4898C29.3947 12.1946 29.7039 11.8778 29.9909 11.5414L30.0159 11.5117C30.9177 12.4855 31.7121 13.5534 32.3856 14.697L32.3851 14.698Z" fill="#801F1B"/>
<path d="M15.5547 1.79631C15.0124 1.74759 14.4727 1.91343 14.0513 2.25822C13.63 2.603 13.3606 3.09926 13.301 3.64043C13.3606 4.18161 13.63 4.67786 14.0513 5.02265C14.4727 5.36744 15.0124 5.53327 15.5547 5.48455C15.9303 5.48632 16.3021 5.40794 16.6451 5.25463C16.9299 5.10269 17.1826 4.89629 17.3879 4.64715C17.5764 4.36524 17.6868 4.03841 17.7079 3.69995C17.729 3.36148 17.6601 3.02346 17.5081 2.72029C17.2786 2.423 16.9819 2.18428 16.6424 2.02368C16.3028 1.86308 15.9301 1.78517 15.5547 1.79631Z" fill="#00757A"/>
<path d="M15.5547 2.37112C15.3842 2.3713 15.2176 2.42202 15.0759 2.51687C14.9343 2.61171 14.8239 2.74643 14.7588 2.90399C14.6937 3.06155 14.6767 3.23488 14.7101 3.40207C14.7435 3.56926 14.8257 3.72281 14.9463 3.8433C15.0669 3.96378 15.2205 4.04581 15.3877 4.079C15.555 4.1122 15.7283 4.09507 15.8858 4.02978C16.0433 3.9645 16.1779 3.85399 16.2726 3.71222C16.3673 3.57045 16.4178 3.40379 16.4178 3.2333C16.4177 3.00453 16.3266 2.78517 16.1648 2.62349C16.0029 2.4618 15.7835 2.37103 15.5547 2.37112Z" fill="#1B5E20"/>
<path d="M33.137 11.6152C33.1457 12.6892 32.8873 13.7485 32.3851 14.698C31.7117 13.5544 30.9172 12.4865 30.0154 11.5127C30.4136 9.66561 30.5032 7.76535 30.2805 5.88901C30.9399 6.56787 31.5385 7.30316 32.0696 8.08644C32.7597 9.13448 33.1305 10.3604 33.137 11.6152Z" fill="#BF3B24"/>
<path d="M30.2806 5.88934L30.2682 5.87634C28.8498 4.43058 27.157 3.28266 25.289 2.49994C23.421 1.71723 21.4155 1.31548 19.3902 1.31828C18.9736 1.31828 18.5612 1.33489 18.1531 1.3681C18.1581 1.42554 18.1621 1.48326 18.1655 1.5411L18.168 1.58483C18.1735 1.68673 18.177 1.78914 18.1776 1.89211C18.2034 3.1862 17.8263 4.45632 17.0984 5.52659C17.082 5.54625 17.0687 5.56831 17.059 5.59199C19.5008 5.66983 21.9027 6.23232 24.1251 7.24677C26.3474 8.26121 28.346 9.70736 30.0045 11.5011L30.0155 11.5126C30.4136 9.66567 30.5032 7.76556 30.2806 5.88934Z" fill="#FFB000"/>
<path d="M12.8388 21.5193C14.1392 21.0368 15.2809 20.2042 16.1377 19.1134C16.9945 18.0225 17.533 16.7161 17.6936 15.3383C17.5257 17.5378 14.3389 20.1697 11.399 20.1697C10.8659 20.177 10.3335 20.1264 9.81126 20.0188C8.72076 19.8307 7.69389 19.3752 6.8225 18.6931C5.95111 18.011 5.26237 17.1236 4.81788 16.1102C4.65078 15.7022 4.57002 15.2641 4.58068 14.8234C4.54964 15.0301 4.53144 15.2386 4.52618 15.4476C4.53496 16.4477 4.77744 17.4318 5.23426 18.3215C5.69108 19.2112 6.34958 19.9818 7.1572 20.5717C7.96482 21.1616 8.89917 21.5545 9.88566 21.719C10.8721 21.8836 11.8834 21.8152 12.8388 21.5193Z" fill="#FFB000"/>
<path d="M15.6026 3.70959C15.8929 3.70959 16.1282 3.4743 16.1282 3.18405C16.1282 2.8938 15.8929 2.65851 15.6026 2.65851C15.3124 2.65851 15.0771 2.8938 15.0771 3.18405C15.0771 3.4743 15.3124 3.70959 15.6026 3.70959Z" fill="black"/>
<path d="M15.6027 2.898C15.6028 2.93444 15.5926 2.97018 15.5732 3.00103C15.5538 3.03187 15.526 3.05656 15.4931 3.0722C15.4601 3.08785 15.4234 3.0938 15.3873 3.08937C15.3511 3.08494 15.3169 3.07031 15.2888 3.04718C15.2606 3.02406 15.2396 2.99339 15.2282 2.95877C15.2168 2.92415 15.2155 2.88701 15.2244 2.85167C15.2334 2.81634 15.2522 2.78428 15.2786 2.75923C15.3051 2.73418 15.3382 2.71719 15.3739 2.71023L15.3749 2.70976C15.3868 2.70741 15.3989 2.70628 15.4109 2.7064C15.4361 2.70639 15.461 2.71134 15.4843 2.72096C15.5076 2.73059 15.5287 2.7447 15.5465 2.76249C15.5643 2.78028 15.5784 2.80141 15.5881 2.82466C15.5977 2.84791 15.6027 2.87283 15.6027 2.898Z" fill="white"/>
<path d="M20.7745 9.89976L20.7737 9.89886C18.5223 7.44604 16.3747 8.38873 16.694 7.19998C16.8815 6.69981 16.9992 6.17618 17.0437 5.64388C17.0511 5.60021 17.0702 5.55934 17.0989 5.52557C17.8268 4.45531 18.204 3.18519 18.1781 1.89109C18.1771 1.71482 18.1685 1.53998 18.1537 1.36709C17.946 1.32662 17.7311 1.3481 17.5356 1.42888C17.6406 2.76539 17.3297 4.10166 16.6456 5.25459C16.3423 5.61971 16.3943 6.10815 16.2697 6.53925C16.2259 6.77832 16.1563 7.01193 16.0621 7.23598C16.0308 7.35092 16.0246 7.47124 16.044 7.58878C16.0634 7.70631 16.1078 7.81829 16.1743 7.91711C16.2409 8.01592 16.3279 8.09925 16.4295 8.16143C16.5311 8.2236 16.6449 8.26316 16.7632 8.27741C17.9567 8.4638 19.0564 9.03579 19.8943 9.90598C20.2126 10.0237 20.5538 10.066 20.8912 10.0297C20.856 9.98959 20.8208 9.95033 20.7857 9.91193L20.7745 9.89976Z" fill="#200000"/>
</g>
<defs>
<clipPath id="clip0_7505_240495">
<rect width="187.081" height="41.1483" fill="white"/>
</clipPath>
</defs>
</svg>
