<svg width="75" height="16" viewBox="0 0 75 16" fill="none" xmlns="http://www.w3.org/2000/svg">
<path d="M30.0458 14.2182H26.8018H20.2679H18.1282H17.0239H15.6665C15.4594 14.2182 15.2984 14.3794 15.2984 14.5867V15.2315C15.2984 15.4388 15.4594 15.6 15.6665 15.6H17.185H18.2663H20.4519H26.8018H30.0458C30.2528 15.6 30.4139 15.4388 30.4139 15.2315V14.5867C30.4139 14.3794 30.2528 14.2182 30.0458 14.2182Z" fill="#3B3E40"/>
<path d="M12.4455 3.94666C12.0544 3.55514 11.5713 3.34787 10.9961 3.34787H2.13847H0.804077V5.62787V5.78908V6.57211V6.73332V7.19393V7.65454V7.9309V8.27635V15.6H2.18449V11.017L7.33802 11.04L11.1572 15.6H12.9747V15.577L9.13255 11.04H10.9961C11.5713 11.04 12.0544 10.8327 12.4455 10.4412C12.8367 10.0497 13.0437 9.56605 13.0437 9.01332V8.62181V8.20726V8.09211V7.19393V7.03272V6.66423V5.69696V5.62787V5.37454C13.0437 4.84484 12.8367 4.3612 12.4455 3.94666ZM11.6403 9.01332C11.6403 9.19757 11.5713 9.35878 11.4562 9.47393C11.3412 9.58908 11.1802 9.65817 10.9961 9.65817H2.85169C2.66763 9.65817 2.50658 9.58908 2.39155 9.47393C2.25351 9.35878 2.20749 9.19757 2.20749 9.01332V8.27635V7.9309V7.65454V7.19393V6.68726V6.57211V5.78908V5.62787V5.37454C2.20749 5.19029 2.27651 5.02908 2.39155 4.91393C2.52959 4.77575 2.66763 4.72969 2.85169 4.72969H11.0191C11.2032 4.72969 11.3642 4.79878 11.4792 4.91393C11.5943 5.05211 11.6633 5.19029 11.6633 5.37454V5.62787V5.69696V6.66423V7.19393V7.21696V8.25332V8.36848V8.80605V9.01332H11.6403Z" fill="#3B3E40"/>
<path d="M58.7123 3.34787H50.5449C49.9697 3.34787 49.4865 3.55514 49.0954 3.94666C48.7043 4.33817 48.4973 4.82181 48.4973 5.39757V8.13817C48.4973 8.6909 48.7043 9.17454 49.0954 9.56605C49.4865 9.95757 49.9697 10.1648 50.5449 10.1648H58.7123C58.8963 10.1648 59.0574 10.2339 59.1724 10.3491C59.3105 10.4642 59.3565 10.6254 59.3565 10.8097V13.5503C59.3565 13.7345 59.2875 13.8957 59.1724 14.0109C59.0344 14.1491 58.8963 14.1951 58.7123 14.1951H50.5449C50.3608 14.1951 50.1998 14.1261 50.0847 14.0109C49.9467 13.8727 49.9007 13.7345 49.9007 13.5503V13.0667H48.5203V13.5503C48.5203 14.1261 48.7273 14.6097 49.1184 15.0012C49.5096 15.3927 49.9927 15.6 50.5679 15.6H58.7353C59.3105 15.6 59.7936 15.3927 60.1847 15.0012C60.5758 14.6097 60.7829 14.1261 60.7829 13.5503V10.8327C60.7829 10.28 60.5758 9.79635 60.1847 9.40484C59.7936 9.01332 59.3105 8.80605 58.7353 8.80605H50.5679C50.3838 8.80605 50.2228 8.73696 50.1077 8.62181C49.9697 8.50666 49.9237 8.34544 49.9237 8.1612V5.39757C49.9237 5.21332 49.9927 5.05211 50.1077 4.93696C50.2458 4.79878 50.3838 4.75272 50.5679 4.75272H58.7353C58.9193 4.75272 59.0804 4.82181 59.1954 4.93696C59.3335 5.07514 59.3795 5.21332 59.3795 5.39757V5.8812H60.7599V5.39757C60.7599 4.82181 60.5528 4.33817 60.1617 3.94666C59.7706 3.55514 59.2875 3.34787 58.7123 3.34787Z" fill="#3B3E40"/>
<path d="M44.7011 3.34787H41.2961V4.72969H44.7011C44.8852 4.72969 45.0462 4.79878 45.1613 4.91393C45.2993 5.05211 45.3453 5.19029 45.3453 5.37454V13.5503C45.3453 13.7345 45.2763 13.8957 45.1613 14.0109C45.0232 14.1491 44.8852 14.1951 44.7011 14.1951H36.5337C36.3496 14.1951 36.1886 14.1261 36.0736 14.0109C35.9355 13.8727 35.8895 13.7345 35.8895 13.5503V8.06908H34.5091V13.5503C34.5091 14.1261 34.7162 14.6097 35.1073 15.0012C35.4984 15.3927 35.9815 15.6 36.5567 15.6H44.7241C45.2993 15.6 45.7824 15.3927 46.1736 15.0012C46.5647 14.6097 46.7717 14.1261 46.7717 13.5503V5.39757C46.7717 4.82181 46.5647 4.33817 46.1736 3.94666C45.7364 3.55514 45.2533 3.34787 44.7011 3.34787Z" fill="#3B3E40"/>
<path d="M61.9562 3.34787V4.72969H67.4089V15.6H68.7663V4.72969H74.1959V3.34787H61.9562Z" fill="#3B3E40"/>
<path d="M26.1576 0.399994V1.50545V7.97696V8.48363V9.08242V10.5794C26.1576 10.7636 26.0886 10.9248 25.9736 11.04C25.8355 11.1782 25.6975 11.2242 25.5134 11.2242H17.346C17.162 11.2242 17.0009 11.1551 16.8859 11.04C16.7478 10.9018 16.7018 10.7636 16.7018 10.5794V9.03636V8.43757V7.9309V1.50545V0.399994H15.3214V1.50545V7.90787V8.41454V9.03636V10.6024C15.3214 11.1782 15.5285 11.6618 15.9196 12.0533C16.3107 12.4448 16.7938 12.6521 17.369 12.6521H22.3385H25.5364C26.1116 12.6521 26.5948 12.4448 26.9859 12.0533C27.377 11.6618 27.5841 11.1782 27.5841 10.6024V9.15151V8.55272V8.04605V1.50545V0.399994H26.1576Z" fill="#EE4A23"/>
<path d="M40.675 0.998781C40.2839 0.607266 39.8007 0.399994 39.2255 0.399994H33.7959H33.5889H33.0597H32.9217H30.4139H30.3449H29.0565V4.72969H30.4369V1.78181H32.8987H33.2668H33.7959H34.026H39.2946C39.6627 1.78181 39.9388 2.08121 39.9388 2.42666V2.74909V2.84121V3.27878V3.34787V3.71636V3.85454V4.10787V4.29212V4.47636V4.68363V6.04242C39.9388 6.11151 39.9157 6.1806 39.8927 6.24969C39.8927 6.27272 39.8697 6.29575 39.8697 6.31878C39.8467 6.38787 39.8007 6.43393 39.7547 6.50302C39.6857 6.54908 39.6397 6.59515 39.5476 6.64121C39.5476 6.64121 39.5476 6.64121 39.5246 6.64121C39.4556 6.66424 39.3636 6.68727 39.2946 6.68727H29.0795V12.6521H30.4599V8.06909H39.2716C39.8467 8.06909 40.3299 7.86181 40.721 7.4703C41.1121 7.07878 41.3192 6.59515 41.3192 6.04242V4.72969V4.52242V4.33818V4.19999V3.9006V3.80848V3.39393V3.3709V2.93333V2.84121V2.44969C41.2731 1.87393 41.0891 1.41333 40.675 0.998781Z" fill="#EE4A23"/>
</svg>
