<svg width="173" height="69" viewBox="0 0 173 69" fill="none" xmlns="http://www.w3.org/2000/svg">
<g clip-path="url(#clip0_7502_240341)">
<path d="M109 28H101V52C101 60.84 108.16 68 117 68V60.008C112.576 60.008 109 56.424 109 52.008V44.008H117V36.008H109V28Z" fill="#CC3B03"/>
<path d="M137 37C128.16 37 121 44.16 121 53C121 61.84 128.16 69 137 69C145.84 69 153 61.84 153 53C153 44.16 145.84 37 137 37ZM137 61C132.584 61 129 57.416 129 53C129 48.584 132.584 45 137 45C141.416 45 145 48.584 145 53C145 57.416 141.416 61 137 61Z" fill="#CC3B03"/>
<path d="M157 53V69H165V53C165 48.584 168.576 45 173 45V37C164.161 37 157 44.16 157 53Z" fill="#CC3B03"/>
<path d="M44 37C35.16 37 28 44.16 28 53C28 61.84 35.16 69 44 69C46.92 69 49.648 68.208 52 66.84V69H60V53C60 44.168 52.84 37 44 37ZM44 61C39.584 61 36 57.416 36 53C36 48.584 39.584 45 44 45C48.416 45 52 48.584 52 53C52 57.416 48.416 61 44 61Z" fill="#CC3B03"/>
<path d="M80.0003 37C71.16 37 64 44.16 64 53V69H71.9998V53C71.9998 48.584 75.5758 45 80.0003 45C84.4162 45 88.0002 48.584 88.0002 53V69H96V53C96 44.16 88.8321 37 80.0003 37Z" fill="#CC3B03"/>
<path d="M12 28H8.00002V36H0C0 38.208 0.895999 40.208 2.344 41.656C3.792 43.104 5.792 44 8.00002 44V52C8.00002 60.84 15.16 68 24 68V60C19.576 60 16 56.416 16 52V44H24V40C17.376 40 12 34.624 12 28Z" fill="#CC3B03"/>
<path d="M24 24C21.7937 24 20 25.7857 20 28C20 30.2143 21.7857 32 24 32C26.2064 32 28 30.2143 28 28C28 25.7857 26.2064 24 24 24Z" fill="#F26522"/>
<path d="M72 12.1278V20.2695C72 20.4959 71.9842 20.7304 71.9842 20.9568C71.9762 21.1508 71.9763 21.353 71.9602 21.547C71.9442 21.8381 71.9202 22.1292 71.8962 22.4202C71.8882 22.5658 71.8722 22.7113 71.8561 22.8569C71.8242 23.1641 71.7842 23.4794 71.7442 23.7866C71.7282 23.8917 71.7122 23.9887 71.6962 24.0938C71.6402 24.4334 71.5842 24.773 71.5121 25.1126C71.5121 25.1287 71.5042 25.153 71.5042 25.1772C70.2722 31.225 66.8241 36.448 62.0401 39.9327C62.0401 39.9246 62.0322 39.9166 62.0322 39.9085C61.5041 40.2885 60.9601 40.6523 60.4082 41C58.7762 38.6229 56.6561 36.6259 54.1841 35.1544C59.4642 32.9229 63.3042 27.902 63.9122 21.919C63.9122 21.8947 63.9201 21.8785 63.9201 21.8542C63.9681 21.3207 64.0002 20.787 64.0002 20.2372C64.0002 19.647 63.9681 12.1278 63.9681 12.1278C63.9681 9.91243 62.1922 8.11753 60.0001 8.11753H32.9361C32.848 8.10946 32.7681 8.10138 32.6801 8.10138C32.456 8.09324 32.224 8.08516 32.0001 8.08516C23.16 8.08516 16 15.3214 16 24.2556H8C8 10.8584 18.744 0 32.0001 0H60.0001C66.6242 0 72 5.43324 72 12.1278Z" fill="#F26522"/>
</g>
<defs>
<clipPath id="clip0_7502_240341">
<rect width="173" height="69" fill="white"/>
</clipPath>
</defs>
</svg>
